<svg width="300" height="300" viewBox="0 0 300 300" fill="none" xmlns="http://www.w3.org/2000/svg">
<path d="M137.449 102.901H151.349C152.699 100.411 153.929 98.0011 155.279 95.6611C156.055 94.2685 157.102 93.0462 158.36 92.067C159.617 91.0877 161.059 90.3715 162.599 89.9611C163.738 89.6579 164.904 89.4637 166.079 89.3811C169.419 89.1111 172.759 88.7411 176.079 89.5811C179.879 90.5811 183.219 92.1811 185.449 95.5811C185.755 95.5067 186.048 95.3888 186.319 95.2311C199.619 83.5611 222.399 86.4911 233.919 100.561C234.489 101.271 235.079 101.961 235.629 102.691C238.253 106.045 239.695 110.173 239.729 114.431C240.079 135.571 240.799 156.701 241.399 177.841C241.549 183.191 241.699 188.541 241.899 193.841C242.069 198.551 242.349 203.251 242.469 207.961C242.549 211.301 241.069 212.691 237.689 212.811C226.356 213.204 215.023 213.601 203.689 214.001C190.269 214.508 176.849 215.031 163.429 215.571L122.359 217.171C120.639 217.241 118.929 217.491 117.209 217.471C116.525 217.519 115.845 217.33 115.283 216.937C114.72 216.544 114.31 215.97 114.119 215.311C111.839 208.311 109.449 201.431 107.199 194.461C106.089 191.021 105.199 187.511 104.139 183.741C101.499 182.741 98.6392 181.661 95.7592 180.621C85.9392 177.081 78.0593 170.901 71.3593 163.021C65.6597 156.544 61.5506 148.826 59.3593 140.481C57.104 131.269 57.6648 121.591 60.9693 112.701C65.0493 101.121 72.2993 92.1711 83.1593 86.2611C88.1546 83.6641 93.6717 82.2284 99.2993 82.0611C113.729 81.2711 124.639 88.2311 134.219 97.9811C135.549 99.4011 136.389 101.271 137.449 102.901ZM232.449 125.581C222.839 143.371 208.609 154.021 187.959 155.321C188.059 156.401 188.219 157.321 188.219 158.181C188.245 159.894 188.165 161.608 187.979 163.311C187.886 164.409 187.432 165.446 186.689 166.26C185.946 167.073 184.955 167.619 183.869 167.811C182.741 168.136 181.592 168.383 180.429 168.551C173.909 169.221 169.669 166.901 169.429 159.551C169.429 158.221 169.349 156.881 169.319 155.621C160.507 155.257 151.885 152.949 144.069 148.861C136.33 144.748 129.223 139.541 122.969 133.401C125.309 158.731 127.229 183.931 125.469 209.231C128.959 209.321 233.049 205.771 235.099 204.821C235.099 204.191 235.099 203.471 235.099 202.761C234.849 199.331 234.449 195.911 234.329 192.481C233.896 179.814 233.516 167.121 233.189 154.401C232.939 145.401 232.739 136.401 232.509 127.461C232.529 126.851 232.479 126.221 232.449 125.581ZM121.679 111.991C121.369 115.361 121.779 117.671 122.679 119.271C129.549 131.271 139.999 139.111 152.479 144.461C156.498 146.167 160.76 147.23 165.109 147.611C174.228 148.505 183.419 148.337 192.499 147.111C203.869 145.551 212.709 140.051 219.699 131.211C223.629 126.211 226.029 120.451 228.619 114.761C228.899 114.141 229.059 113.451 229.349 112.561C226.699 112.421 224.269 112.241 221.839 112.161C209.049 111.741 196.259 111.381 183.469 110.931C165.959 110.301 148.469 109.931 130.939 111.101C127.849 111.311 124.799 111.691 121.679 111.991ZM102.379 175.581C102.449 174.811 102.489 174.461 102.509 174.111C102.799 167.231 102.949 160.351 103.429 153.481C104.127 144.161 105.916 134.955 108.759 126.051C109.079 125.051 109.209 123.931 109.539 122.911C110.949 118.571 111.089 113.911 113.479 109.801C114.999 107.201 116.689 105.371 119.779 104.801C121.171 104.524 122.582 104.357 123.999 104.301C125.893 104.187 127.78 103.967 129.649 103.641C129.543 103.317 129.402 103.005 129.229 102.711C128.699 102.091 128.159 101.471 127.579 100.901C123.689 97.0011 119.009 94.2911 114.139 91.8111C105.879 87.6111 97.4593 88.0111 89.1393 91.1211C82.1304 93.8256 76.2297 98.8003 72.3792 105.251C64.1492 118.371 62.0993 132.251 68.8593 146.571C73.6806 156.828 81.5481 165.349 91.3893 170.971C94.8744 172.873 98.5432 174.418 102.339 175.581H102.379ZM117.859 203.581C119.859 179.731 117.399 156.161 115.009 132.581C114.709 132.915 114.502 133.322 114.409 133.761C113.749 137.401 113.179 141.071 112.409 144.701C111.074 151.463 110.405 158.339 110.409 165.231C110.409 170.291 109.919 175.411 111.209 180.391C112.569 185.651 114.149 190.841 115.639 196.071L117.859 203.581ZM227.999 104.971C226.609 103.691 225.689 102.701 224.639 101.891C220.151 98.3069 214.717 96.1074 208.999 95.5611C201.729 94.9111 195.409 96.9111 190.159 102.051C189.706 102.585 189.295 103.154 188.929 103.751L227.999 104.971ZM179.079 102.971C179.079 102.361 178.959 101.831 178.959 101.301C179.025 100.394 178.756 99.4941 178.203 98.7718C177.65 98.0495 176.852 97.5547 175.959 97.3811C175.379 97.1376 174.771 96.9663 174.149 96.8711C171.999 96.8111 169.849 96.8711 167.699 96.8711C163.699 96.8711 161.329 98.8711 160.199 102.971H179.079ZM177.079 160.971H180.919C180.799 159.071 180.699 157.421 180.579 155.601L177.079 155.821V160.971Z" fill="#3558A2"/>
<path d="M232.448 125.582C232.448 126.222 232.528 126.852 232.538 127.482C232.768 136.482 232.968 145.482 233.218 154.422C233.571 167.089 233.951 179.782 234.358 192.502C234.478 195.932 234.878 199.352 235.128 202.782C235.128 203.492 235.128 204.212 235.128 204.842C233.128 205.792 128.988 209.342 125.498 209.252C127.258 183.952 125.338 158.752 122.998 133.422C129.252 139.562 136.359 144.769 144.098 148.882C151.913 152.97 160.536 155.278 169.348 155.642C169.348 156.902 169.418 158.242 169.458 159.572C169.658 166.902 173.898 169.222 180.458 168.572C181.62 168.404 182.77 168.157 183.898 167.832C184.983 167.64 185.975 167.094 186.718 166.281C187.461 165.467 187.915 164.43 188.008 163.332C188.193 161.629 188.273 159.915 188.248 158.202C188.248 157.312 188.088 156.422 187.988 155.342C208.608 154.022 222.838 143.402 232.448 125.582ZM169.448 201.242C176.118 200.892 181.188 200.642 186.258 200.332C188.158 200.222 190.058 200.012 191.938 199.752C196.798 199.082 201.638 198.332 206.218 196.482C217.428 191.962 220.448 184.952 219.988 174.402C219.996 173.343 219.609 172.318 218.903 171.529C218.197 170.739 217.222 170.241 216.168 170.132C215.276 169.982 214.371 169.932 213.468 169.982C201.768 170.432 190.078 170.792 178.388 171.402C166.258 172.022 154.128 172.862 142.008 173.702C140.883 173.956 139.823 174.443 138.898 175.132C138.278 175.482 137.838 176.132 137.238 176.512C136.38 176.98 135.729 177.756 135.418 178.683C135.106 179.61 135.156 180.62 135.558 181.512C136.769 184.823 138.24 188.033 139.958 191.112C141.413 193.595 143.445 195.692 145.882 197.223C148.319 198.755 151.089 199.677 153.958 199.912C159.598 200.512 165.298 200.892 169.418 201.242H169.448Z" fill="#EAECF1"/>
<path d="M121.678 111.992C124.838 111.692 127.888 111.312 130.948 111.102C148.458 109.922 165.948 110.302 183.478 110.932C196.268 111.382 209.058 111.742 221.848 112.162C224.278 112.242 226.708 112.422 229.358 112.562C229.068 113.452 228.908 114.142 228.628 114.762C226.038 120.452 223.628 126.252 219.708 131.212C212.708 140.052 203.878 145.552 192.508 147.112C183.428 148.338 174.237 148.505 165.118 147.612C160.769 147.231 156.507 146.168 152.488 144.462C140.008 139.112 129.558 131.302 122.688 119.272C121.738 117.672 121.328 115.402 121.678 111.992Z" fill="#FCFCFC"/>
<path d="M117.818 203.541L115.688 196.011C114.198 190.781 112.618 185.591 111.258 180.331C109.968 175.331 110.478 170.231 110.458 165.171C110.453 158.279 111.123 151.403 112.458 144.641C113.178 141.011 113.748 137.341 114.458 133.701C114.551 133.262 114.758 132.855 115.058 132.521C117.358 156.121 119.818 179.691 117.818 203.541Z" fill="#979FBB"/>
<path d="M179.037 102.922H160.117C161.247 98.8116 163.627 96.7916 167.617 96.8216C169.767 96.8216 171.917 96.7616 174.067 96.8216C174.689 96.9168 175.297 97.0881 175.877 97.3316C176.77 97.5053 177.568 98 178.121 98.7223C178.674 99.4446 178.943 100.344 178.877 101.252C178.917 101.782 178.987 102.312 179.037 102.922Z" fill="#F6F6F9"/>
<path d="M177.059 160.891V155.741L180.559 155.521C180.679 157.341 180.779 158.991 180.899 160.891H177.059Z" fill="#979FBB"/>
<path d="M169.418 201.242C165.298 200.892 159.598 200.512 153.938 199.882C151.069 199.648 148.299 198.726 145.862 197.194C143.425 195.662 141.393 193.566 139.938 191.082C138.22 188.004 136.748 184.794 135.538 181.482C135.136 180.591 135.086 179.58 135.397 178.653C135.709 177.726 136.359 176.951 137.218 176.482C137.818 176.082 138.218 175.482 138.878 175.102C139.803 174.413 140.862 173.926 141.988 173.672C154.108 172.832 166.238 171.992 178.368 171.372C190.058 170.762 201.748 170.372 213.448 169.952C214.35 169.902 215.256 169.953 216.148 170.102C217.201 170.212 218.176 170.71 218.883 171.499C219.589 172.289 219.976 173.313 219.968 174.372C220.428 184.922 217.408 191.932 206.198 196.452C201.618 198.302 196.778 199.052 191.918 199.722C190.038 199.982 188.138 200.192 186.238 200.302C181.158 200.642 176.088 200.892 169.418 201.242ZM212.268 177.642C189.318 179.022 166.478 178.642 143.528 181.272C144.229 183.939 145.521 186.413 147.308 188.512C148.743 190.294 150.737 191.541 152.968 192.052C155.526 192.632 158.123 193.023 160.738 193.222C170.873 193.86 181.046 193.525 191.118 192.222C196.118 191.602 200.988 190.732 205.558 188.572C209.968 186.402 212.468 183.112 212.268 177.642Z" fill="#3558A2"/>
<path d="M212.267 177.641C212.467 183.111 209.967 186.441 205.557 188.531C200.987 190.691 196.067 191.531 191.117 192.181C181.046 193.483 170.873 193.818 160.737 193.181C158.122 192.981 155.525 192.59 152.967 192.011C150.737 191.5 148.743 190.253 147.307 188.471C145.521 186.371 144.229 183.897 143.527 181.231C166.477 178.601 189.317 179.021 212.267 177.641Z" fill="#979FBB"/>
</svg>
