<svg width="300" height="300" viewBox="0 0 300 300" fill="none" xmlns="http://www.w3.org/2000/svg">
<path d="M35 124.122C35.32 121.802 35.59 119.462 36 117.122C39.65 95.5116 51.8899 80.4316 71.6399 71.6116C100.83 58.6116 135.94 68.9115 153 95.1415C154.09 96.8115 155.07 98.5416 156.21 100.432C156.78 100.242 157.37 100.092 157.92 99.8616C168.809 95.3209 180.286 92.3447 192.01 91.0215C204.57 89.6515 217.01 90.1716 229.26 93.6016C230.807 94.1111 232.32 94.719 233.79 95.4216C236.67 96.6516 237.63 98.9815 237.69 101.972C237.842 111.417 237.028 120.852 235.26 130.132C234.62 133.512 233.88 136.862 233.18 140.232C235.98 140.662 238.77 140.942 241.49 141.542C247.898 142.874 253.693 146.27 257.988 151.21C262.283 156.149 264.841 162.36 265.27 168.892C265.77 176.522 263.27 183.382 258.54 189.392C247.41 203.682 225.79 207.992 210.23 195.702C209.09 194.812 208.05 193.792 206.9 192.772C204.13 195.772 201.54 198.902 198.57 201.652C195.6 204.402 192.26 206.762 188.98 209.372C190.423 213.738 190.292 218.472 188.61 222.752C187.097 226.389 184.454 229.443 181.07 231.462C172.83 236.522 164.01 235.082 154.53 227.132C143.66 231.462 132.26 233.312 120.65 234.262C110.971 235.165 101.226 235.098 91.5599 234.062C87.1743 233.43 82.8325 232.525 78.5599 231.351C76.9185 230.833 75.357 230.089 73.9199 229.142C73.2778 228.784 72.7376 228.269 72.3508 227.644C71.964 227.019 71.7434 226.306 71.71 225.572C71.0717 212.062 72.9398 198.551 77.22 185.722C77.47 184.952 77.75 184.182 77.99 183.402C78.0172 183.166 78.0172 182.927 77.99 182.692C77.33 182.412 76.57 182.152 75.87 181.792C71.66 179.682 67.4699 177.542 63.2699 175.412C61.6699 174.612 60.03 173.872 58.48 172.992C57.7246 172.534 57.049 171.957 56.48 171.282C55.48 170.142 54.6899 168.792 53.6299 167.722C43.0099 157.132 36.63 144.532 35.5 129.462C35.404 128.751 35.2535 128.049 35.0499 127.362L35 124.122ZM207.32 152.122C203.321 142.046 197.914 132.589 191.26 124.032C186.96 125.852 182.72 127.272 178.16 129.632C179.327 130.49 180.43 131.432 181.46 132.452C182.15 133.133 182.544 134.058 182.557 135.027C182.57 135.996 182.201 136.932 181.53 137.632C180.872 138.337 179.972 138.768 179.009 138.838C178.047 138.909 177.094 138.613 176.34 138.012C175.692 137.511 175.072 136.977 174.48 136.412L170.65 133.172L157.55 141.512C158.55 142.402 159.29 142.952 159.91 143.592C161.52 145.252 161.79 147.162 160.68 148.762C160.079 149.572 159.194 150.126 158.201 150.312C157.209 150.497 156.183 150.301 155.33 149.762C154.297 149.191 153.334 148.503 152.46 147.712C151.35 146.712 150.46 146.852 149.38 147.782C146.22 150.502 143 153.162 139.83 155.872C139.322 156.371 138.851 156.905 138.42 157.472C139.21 158.242 139.91 158.822 140.5 159.472C141.208 160.188 141.62 161.145 141.653 162.151C141.687 163.158 141.339 164.14 140.68 164.902C139.29 166.422 137.23 166.522 135.28 165.102C134.43 164.492 133.63 163.792 132.68 163.032C125.878 170.131 119.551 177.67 113.74 185.602C123.501 196.982 131.138 210.022 136.29 224.101C141.03 223.641 148.01 221.602 150.79 219.882C149.61 210.082 152.09 203.502 159.12 199.392C168.12 194.112 176.66 195.622 184.47 202.262C184.96 202.012 185.36 201.831 185.75 201.611C192.12 197.971 196.75 192.612 201.2 186.862C202.1 185.692 201.73 184.732 201.29 183.602C197.7 174.402 198.92 165.602 203.83 157.252C204.83 155.542 206.06 153.962 207.32 152.132V152.122ZM185.14 117.862L185.69 117.112C184.897 116.661 184.139 116.153 183.42 115.592C179.09 111.848 174.313 108.654 169.2 106.082C168.446 105.621 167.591 105.351 166.708 105.297C165.826 105.243 164.944 105.406 164.14 105.772C134.14 117.602 111.14 137.522 94.87 165.302C94.37 166.142 93.9699 167.042 93.5699 167.802L108.24 179.382L125.76 158.572L124.76 158.112C122.24 156.942 121.29 155.312 121.94 153.272C122.59 151.232 124.59 150.132 127.23 150.692C128.9 151.042 130.53 151.592 132.23 152.072L142.23 143.292C142.063 143.043 141.879 142.805 141.68 142.582C139.68 140.582 139.32 139.292 140.21 137.582C141.1 135.872 142.93 135.152 145.4 135.742C146.63 136.042 147.82 136.532 149.05 136.832C149.612 137.038 150.228 137.038 150.79 136.832C154.23 134.532 157.61 132.152 161.07 129.742C160.76 129.392 160.61 129.172 160.42 129.002C158.49 127.202 157.99 125.442 158.95 123.752C159.91 122.062 161.82 121.512 164.24 122.252C165.89 122.762 167.49 123.412 169.16 123.832C170.004 124.091 170.906 124.091 171.75 123.832C176.24 121.932 180.68 119.882 185.14 117.872V117.862ZM128.14 225.252C121.8 206.162 103.79 182.552 89.8899 175.562C84.0099 184.652 77.8899 212.472 79.4099 223.052C87.5099 228.402 119.94 227.802 128.14 225.262V225.252ZM213.59 146.542C215.963 145.238 218.418 144.089 220.94 143.102C221.983 142.828 222.929 142.27 223.672 141.489C224.416 140.708 224.927 139.736 225.15 138.682C225.35 137.892 225.66 137.122 225.85 136.332C228.42 125.332 230.04 114.242 229.67 102.912C229.609 102.379 229.512 101.851 229.38 101.332C212.402 97.1429 194.649 97.2426 177.72 101.622C195.44 112.532 205.37 128.762 213.59 146.552V146.542ZM144.71 96.8116C142.571 97.3693 140.405 97.8165 138.22 98.1515C129.9 98.9515 122.16 101.692 114.5 104.802C111.046 106.155 107.52 107.32 103.94 108.292C98.6771 109.935 92.999 109.633 87.9399 107.442C87.7999 107.382 87.5999 107.442 87.1699 107.502L80.24 116.962C90.24 121.962 97.86 129.572 106.24 136.232C118.414 122.913 132.914 111.927 149.03 103.812C147.52 101.302 146.13 99.0915 144.71 96.8215V96.8116ZM252.71 183.602C259.83 175.472 257.94 160.982 251.42 156.042C251.33 156.042 251.22 156.042 251.16 156.042C250.65 156.412 250.16 156.792 249.65 157.182C245.689 160.387 241.095 162.718 236.17 164.022C234.096 164.671 231.914 164.902 229.75 164.702C223.61 163.802 217.3 163.242 212.25 159.062C204.66 167.312 206.08 182.012 213.34 187.442C225.44 175.362 238.73 175.092 252.76 183.612L252.71 183.602ZM74.9399 78.6016C62.8299 84.1016 53.9399 92.2016 48.1999 103.602L73.4299 112.872C74.6399 111.182 75.9499 109.352 77.2799 107.532C78.6099 105.712 80.0699 103.772 81.4099 101.952C81.3257 101.634 81.2188 101.323 81.09 101.022C78.4191 96.2679 76.8025 90.9953 76.35 85.5616C76.0443 83.2316 75.59 80.9236 74.99 78.6515L74.9399 78.6016ZM70.1399 135.602C75.1399 139.242 79.0399 143.842 80.8899 148.382C82.5699 152.482 84.0799 156.652 85.6799 160.782C85.9599 161.492 86.3 162.182 86.62 162.922L100.83 141.922C92.9299 135.442 85.5899 128.232 75.9199 123.482L70.1399 135.602ZM68.72 120.032C65.01 117.472 49.11 111.912 45 111.812C41.84 123.062 42.6599 134.022 47.2699 145.152C48.0099 144.342 48.4999 143.852 48.9499 143.322C52.3099 139.322 56.02 135.792 61.35 134.512C61.9249 134.318 62.3996 133.905 62.6699 133.362C64.7799 129.032 66.7599 124.532 68.7699 120.082L68.72 120.032ZM93.3199 100.422L93.6799 101.312C95.6799 101.232 97.6799 101.312 99.5799 101.022C104.074 100.308 108.449 98.9788 112.58 97.0715C119.463 94.0045 126.713 91.8367 134.15 90.6216C135.45 90.4216 136.76 90.2816 138.71 90.0416C137.906 89.2091 137.047 88.4308 136.14 87.7115C132.32 85.1215 128.42 82.6416 124.61 80.0416C121.88 78.1816 119.29 78.6216 116.79 80.3516C113.136 82.7173 109.614 85.2812 106.24 88.0315C101.77 92.0315 97.65 96.3215 93.37 100.472L93.3199 100.422ZM169.67 226.522C172.166 226.657 174.649 226.071 176.82 224.832C178.674 223.687 180.142 222.013 181.033 220.025C181.925 218.037 182.199 215.827 181.82 213.682C180.74 207.892 174.66 203.092 167.39 204.312C165.298 204.579 163.335 205.469 161.757 206.867C160.178 208.266 159.057 210.107 158.54 212.152C157.29 216.542 158.73 220.152 161.93 223.152C164.037 225.183 166.799 226.395 169.72 226.572L169.67 226.522ZM80.8099 175.212C81.3644 174.702 81.7193 174.011 81.8109 173.264C81.9025 172.516 81.7249 171.76 81.3099 171.132C80.4661 169.433 79.7475 167.675 79.1599 165.872C77.3199 161.052 75.5699 156.202 73.6799 151.402C72.4599 148.302 69.5299 144.892 67.3799 143.872C66.9899 145.462 66.51 147.012 66.24 148.592C65.39 153.762 64.5799 158.952 63.8199 164.132C63.6899 165.072 63.5299 166.132 64.5599 166.832C69.4964 170.513 75.0027 173.361 80.86 175.262L80.8099 175.212ZM87.23 95.6216C94.23 87.9416 101.3 80.8815 110.05 75.3215C102.74 72.9315 86.79 73.8215 82.62 76.5115C84.59 82.5515 83.9299 89.2316 87.2799 95.6716L87.23 95.6216ZM219.8 192.482C228.68 196.642 242.69 194.922 246.72 189.282C236.3 182.962 225.8 185.512 219.85 192.532L219.8 192.482ZM218.16 153.292C224.78 158.762 238.82 157.392 244.27 150.902C237.33 146.922 225.94 147.922 218.21 153.342L218.16 153.292ZM56.2599 159.362L59.0599 144.222C55.8399 146.792 53.9599 149.652 51.9299 152.352C51.8326 152.59 51.7946 152.848 51.819 153.104C51.8434 153.36 51.9295 153.606 52.0699 153.822C53.3399 155.602 54.6599 157.262 56.3099 159.412L56.2599 159.362Z" fill="#3558A2"/>
<path d="M207.322 152.131C206.062 153.961 204.832 155.541 203.832 157.251C198.922 165.631 197.702 174.401 201.292 183.601C201.732 184.731 202.102 185.691 201.202 186.861C196.802 192.571 192.122 197.971 185.752 201.611C185.362 201.831 184.962 202.011 184.472 202.261C176.662 195.621 168.152 194.111 159.122 199.391C152.122 203.501 149.612 210.081 150.792 219.881C148.012 221.601 141.032 223.641 136.292 224.101C131.141 210.021 123.503 196.981 113.742 185.601C119.553 177.67 125.88 170.13 132.682 163.031C133.682 163.791 134.432 164.491 135.282 165.101C137.282 166.521 139.282 166.421 140.682 164.901C141.341 164.14 141.689 163.157 141.655 162.151C141.622 161.144 141.21 160.187 140.502 159.471C139.912 158.791 139.212 158.211 138.422 157.471C138.853 156.905 139.325 156.37 139.832 155.871C143.002 153.161 146.222 150.501 149.382 147.781C150.452 146.851 151.382 146.721 152.462 147.711C153.337 148.503 154.3 149.191 155.332 149.761C156.186 150.3 157.211 150.497 158.203 150.311C159.196 150.126 160.081 149.572 160.682 148.761C161.792 147.161 161.522 145.251 159.912 143.591C159.292 142.951 158.582 142.401 157.552 141.511L170.652 133.171L174.482 136.411C175.074 136.977 175.695 137.511 176.342 138.011C177.096 138.613 178.049 138.908 179.012 138.838C179.974 138.768 180.874 138.337 181.532 137.631C182.203 136.932 182.572 135.996 182.559 135.027C182.546 134.058 182.152 133.132 181.462 132.451C180.432 131.432 179.329 130.489 178.162 129.631C182.722 127.271 186.962 125.851 191.262 124.031C197.917 132.591 203.324 142.052 207.322 152.131V152.131Z" fill="#EAECF1"/>
<path d="M185.141 117.871C180.681 119.871 176.241 121.931 171.741 123.871C170.897 124.131 169.994 124.131 169.151 123.871C167.481 123.451 165.881 122.801 164.231 122.291C161.811 121.551 159.891 122.111 158.941 123.791C157.991 125.471 158.481 127.241 160.411 129.041C160.601 129.211 160.751 129.431 161.061 129.781C157.601 132.191 154.221 134.571 150.781 136.871C150.219 137.077 149.602 137.077 149.041 136.871C147.811 136.571 146.621 136.081 145.391 135.781C142.921 135.191 141.101 135.871 140.201 137.621C139.301 139.371 139.711 140.621 141.671 142.621C141.87 142.845 142.054 143.082 142.221 143.331L132.221 152.111C130.501 151.631 128.871 151.111 127.221 150.731C124.581 150.171 122.611 151.191 121.931 153.311C121.251 155.431 122.231 156.981 124.751 158.151L125.751 158.611L108.231 179.421L93.5605 167.841C93.9605 167.081 94.3606 166.181 94.8606 165.341C111.131 137.561 134.15 117.641 164.13 105.811C164.935 105.445 165.817 105.282 166.699 105.336C167.581 105.39 168.437 105.66 169.191 106.121C174.304 108.693 179.08 111.887 183.411 115.631C184.129 116.192 184.888 116.7 185.681 117.151L185.141 117.871Z" fill="#EAECF1"/>
<path d="M128.142 225.262C119.942 227.802 87.5122 228.402 79.4122 223.062C77.8722 212.482 84.0122 184.662 89.8922 175.572C103.792 182.562 121.802 206.172 128.142 225.262Z" fill="#979FBB"/>
<path d="M213.591 146.551C205.371 128.761 195.401 112.551 177.721 101.631C194.65 97.252 212.403 97.1524 229.381 101.341C229.513 101.86 229.61 102.388 229.671 102.921C230.041 114.251 228.421 125.351 225.851 136.341C225.661 137.131 225.351 137.901 225.151 138.691C224.928 139.746 224.416 140.718 223.673 141.498C222.929 142.279 221.983 142.837 220.941 143.111C218.419 144.098 215.964 145.247 213.591 146.551V146.551Z" fill="#979FBB"/>
<path d="M144.71 96.8223C146.13 99.0923 147.52 101.302 149.11 103.822C132.995 111.938 118.494 122.924 106.32 136.242C97.9003 129.582 90.2703 122.022 80.3203 116.972L87.2504 107.512C87.6804 107.512 87.8803 107.392 88.0203 107.452C93.0793 109.644 98.7574 109.946 104.02 108.302C107.601 107.33 111.126 106.165 114.58 104.812C122.24 101.702 129.98 98.9623 138.3 98.1623C140.458 97.8246 142.598 97.3773 144.71 96.8223V96.8223Z" fill="#979FBB"/>
<path d="M252.762 183.612C238.762 175.092 225.402 175.362 213.392 187.492C206.132 182.062 204.712 167.362 212.302 159.112C217.352 163.292 223.662 163.852 229.802 164.752C231.965 164.953 234.148 164.722 236.222 164.072C241.147 162.768 245.741 160.437 249.702 157.232C250.192 156.842 250.702 156.462 251.212 156.092C251.272 156.092 251.382 156.092 251.472 156.092C257.992 161.032 259.882 175.482 252.762 183.612Z" fill="white"/>
<path d="M74.99 78.6504C75.6081 80.9311 76.079 83.2493 76.3999 85.5904C76.8553 91.0173 78.4718 96.2828 81.1399 101.03C81.2687 101.332 81.3757 101.643 81.46 101.96C80.12 103.78 78.71 105.65 77.33 107.54C75.95 109.43 74.69 111.19 73.48 112.88L48.25 103.61C54 92.2504 62.88 84.1504 74.99 78.6504Z" fill="#979FBB"/>
<path d="M70.1914 135.65L75.9714 123.58C85.6414 128.33 92.9713 135.58 100.881 142.02L86.6714 163.02C86.3514 162.28 86.0114 161.59 85.7314 160.88C84.1314 156.75 82.6214 152.58 80.9414 148.48C79.0914 143.89 75.1714 139.29 70.1914 135.65Z" fill="#979FBB"/>
<path d="M68.7707 120.081C66.7707 124.531 64.7707 128.991 62.7707 133.411C62.5004 133.954 62.0257 134.368 61.4508 134.561C56.1208 135.841 52.4507 139.351 49.0507 143.371C48.6007 143.901 48.1108 144.371 47.3708 145.201C42.7608 134.071 41.9408 123.111 45.1008 111.861C49.1608 111.961 65.0607 117.521 68.7707 120.081Z" fill="#979FBB"/>
<path d="M93.3711 100.471C97.6511 96.3205 101.771 91.9905 106.251 88.0805C109.625 85.3302 113.147 82.7663 116.801 80.4006C119.301 78.6706 121.891 78.2306 124.621 80.0906C128.431 82.6906 132.331 85.1705 136.151 87.7605C137.058 88.4797 137.917 89.2581 138.721 90.0905C136.721 90.3305 135.461 90.4706 134.161 90.6706C126.724 91.8857 119.474 94.0535 112.591 97.1206C108.46 99.0278 104.085 100.357 99.5911 101.07C97.6511 101.33 95.661 101.281 93.691 101.361L93.3711 100.471Z" fill="#979FBB"/>
<path d="M169.722 226.572C166.839 226.407 164.105 225.231 162.002 223.252C158.802 220.252 157.362 216.592 158.612 212.252C159.129 210.207 160.25 208.366 161.829 206.968C163.407 205.569 165.37 204.679 167.462 204.412C174.732 203.192 180.812 207.992 181.892 213.782C182.271 215.927 181.997 218.137 181.105 220.125C180.214 222.113 178.746 223.787 176.892 224.932C174.71 226.157 172.22 226.727 169.722 226.572V226.572Z" fill="white"/>
<path d="M80.8614 175.26C75.0248 173.369 69.536 170.539 64.6114 166.88C63.6114 166.14 63.7414 165.12 63.8714 164.18C64.6314 159 65.4413 153.81 66.2913 148.64C66.5613 147.06 67.0413 145.51 67.4313 143.92C69.5813 144.92 72.5114 148.35 73.7314 151.45C75.6214 156.25 77.3713 161.1 79.2113 165.92C79.7989 167.723 80.5175 169.481 81.3614 171.18C81.7763 171.809 81.9538 172.564 81.8622 173.312C81.7706 174.06 81.4158 174.75 80.8614 175.26V175.26Z" fill="#979FBB"/>
<path d="M87.2819 95.6707C83.9319 89.2307 84.5919 82.5507 82.6719 76.5607C86.8419 73.8707 102.792 72.9807 110.102 75.3707C101.352 80.9307 94.2619 88.0307 87.2819 95.6707Z" fill="#979FBB"/>
<path d="M219.852 192.531C225.802 185.531 236.302 182.961 246.772 189.331C242.742 194.971 228.732 196.691 219.852 192.531Z" fill="white"/>
<path d="M218.211 153.342C225.941 147.923 237.331 146.923 244.321 150.953C238.871 157.442 224.831 158.812 218.211 153.342Z" fill="white"/>
<path d="M56.3115 159.411C54.6615 157.261 53.3115 155.601 52.1215 153.871C51.981 153.656 51.8948 153.41 51.8704 153.154C51.8461 152.898 51.8842 152.639 51.9815 152.401C53.9815 149.701 55.8915 146.841 59.1115 144.271L56.3115 159.411Z" fill="#979FBB"/>
</svg>
