<svg width="300" height="300" viewBox="0 0 300 300" fill="none" xmlns="http://www.w3.org/2000/svg">
<path d="M71.5904 181.305L81.2904 179.175C81.3507 178.463 81.3507 177.747 81.2904 177.035C80.3266 171.538 81.2425 165.877 83.8904 160.965C85.5309 157.502 87.942 154.462 90.9388 152.075C93.9357 149.688 97.4389 148.019 101.18 147.195C103.798 146.421 106.553 146.236 109.25 146.655C109.972 146.717 110.698 146.717 111.42 146.655C110.82 144.935 110.32 143.435 109.77 141.945C108.18 137.615 106.51 133.315 105.01 128.945C104.861 128.385 104.554 127.88 104.124 127.492C103.695 127.103 103.162 126.847 102.59 126.755C98.3951 125.643 94.3614 123.993 90.5904 121.845C88.3253 120.665 86.4109 118.909 85.0404 116.755C84.4813 115.92 84.1463 114.955 84.0675 113.953C83.9887 112.952 84.1688 111.947 84.5904 111.035C85.8474 108.277 87.9486 105.99 90.5904 104.505C90.9558 104.229 91.3735 104.032 91.818 103.925C92.2625 103.817 92.7242 103.802 93.1748 103.88C93.6254 103.957 94.0553 104.127 94.4381 104.377C94.8209 104.627 95.1483 104.953 95.4004 105.335C96.5104 106.705 96.3404 108.275 94.8304 109.965C93.8304 111.045 92.8305 112.055 91.6105 113.315C92.4889 114.136 93.4319 114.885 94.4304 115.555C97.1695 117.153 100.099 118.399 103.15 119.265C105.61 119.885 108.05 120.568 110.47 121.315C111.665 121.736 112.953 121.816 114.19 121.543C115.427 121.271 116.563 120.659 117.47 119.775C119.1 118.325 120.74 116.895 122.33 115.415C123.154 114.556 124.264 114.029 125.45 113.935C126.059 113.887 126.67 114.004 127.218 114.274C127.765 114.543 128.231 114.956 128.564 115.467C128.898 115.979 129.087 116.571 129.113 117.181C129.139 117.791 129 118.397 128.71 118.935C127.884 120.125 126.958 121.243 125.94 122.275C125.13 123.125 124.14 123.795 123.27 124.595C120.925 126.901 117.919 128.418 114.67 128.935C114.151 129.038 113.64 129.178 113.14 129.355C113.64 130.825 114.14 132.255 114.6 133.665C115.06 135.075 115.71 136.505 116.34 138.115C118.84 137.805 121.27 137.605 123.64 137.165C126.22 136.682 128.836 136.418 131.46 136.375C135.27 136.315 139.07 136.105 142.86 135.835C144.57 135.725 146.25 135.315 148.23 134.995C148.75 132.515 149.29 129.915 149.8 127.495C147.89 126.655 146.12 125.975 144.46 125.095C143.897 124.841 143.408 124.448 143.04 123.953C142.671 123.457 142.436 122.875 142.355 122.263C142.275 121.65 142.353 121.028 142.581 120.454C142.81 119.88 143.181 119.374 143.66 118.985C144.676 118.087 145.84 117.373 147.1 116.875C151.288 115.127 155.702 113.979 160.21 113.465C161.99 113.265 163.72 112.755 165.58 113.405C168.86 114.535 170.74 116.855 170.58 120.295C170.535 122.017 170.307 123.73 169.9 125.405C169.18 128.175 167.47 129.575 164.84 129.335C163.22 129.185 161.6 128.985 159.99 128.805L157.49 128.535C156.09 130.725 156.16 133.245 155.66 135.535C155.16 137.825 154.32 140.185 154.43 142.915C162.8 136.835 171.66 135.165 181.07 139.105C190.48 143.045 195.07 150.755 196.49 160.575L202.08 160.215C202.86 157.125 201.84 154.105 201.81 151.075C201.78 148.045 201.48 144.745 201.32 141.575C201.16 138.405 201.04 135.435 200.9 132.355C199.9 131.985 199.17 131.665 198.41 131.425C190.95 129.075 187.03 123.725 185.63 116.285C185.23 113.74 185.809 111.139 187.25 109.005C188.25 107.305 188.03 106.145 187.14 104.575C185.778 102.184 184.974 99.5171 184.789 96.7722C184.604 94.0273 185.042 91.2761 186.072 88.7248C187.101 86.1734 188.695 83.8882 190.733 82.0403C192.771 80.1924 195.201 78.8298 197.84 78.0545C199.069 77.7558 200.225 77.2098 201.235 76.4499C202.246 75.6899 203.092 74.732 203.72 73.6345C208.91 65.6845 218.81 62.8445 227.99 66.7145C230.67 67.9076 232.926 69.8843 234.46 72.3845C235.148 73.4613 236.221 74.2342 237.46 74.5445C243.46 76.3845 246.58 80.8345 248 86.6445C249.46 92.6945 248.28 98.5345 246.12 104.195C245.405 105.824 245.24 107.643 245.65 109.375C246.82 114.285 245.4 118.695 242.05 122.465C239.074 125.911 235.107 128.356 230.69 129.465C232.54 139.715 234.37 149.905 236.23 160.195C236.709 160.433 237.217 160.607 237.74 160.715C240.63 160.985 243.52 161.145 246.41 161.425C251.27 161.895 256.12 162.425 260.99 162.915C263.87 163.185 266.75 163.465 269.64 163.575C270.553 163.596 271.44 163.88 272.196 164.392C272.951 164.905 273.543 165.624 273.9 166.465C277.49 173.595 281 180.755 284.49 187.935C285.063 189.166 285.532 190.444 285.89 191.755C286.89 195.215 285.07 198.435 281.48 198.705C278.56 198.935 275.57 199.765 272.61 198.795C272.349 198.708 272.076 198.661 271.8 198.655C266.27 198.555 260.74 198.285 255.22 198.395C247.97 198.555 240.72 198.985 233.48 199.335C230.04 199.505 226.6 199.655 223.17 199.975C218.67 200.385 214.17 200.875 209.68 201.475C204.75 202.145 199.83 202.865 194.94 203.765C189.78 204.705 184.65 205.825 179.53 206.985C172.2 208.655 164.88 210.345 157.59 212.165C147.66 214.645 137.79 217.375 127.85 219.795C118.084 222.168 108.284 224.388 98.4504 226.455C93.5804 227.455 88.6304 228.095 83.7104 228.835C78.9704 229.555 74.2305 230.265 69.4705 230.885C65.7905 231.365 62.0904 231.675 58.4104 232.105C54.9004 232.515 51.4104 232.965 47.9004 233.395C45.9004 233.635 43.9005 233.945 41.9705 234.105C38.4505 234.385 34.9704 234.675 31.3904 234.785C29.4794 234.819 27.6137 234.202 26.0998 233.035C24.586 231.868 23.5141 230.221 23.0604 228.365C20.3404 219.055 17.3104 209.845 14.4404 200.575C14.0865 199.651 13.943 198.66 14.0204 197.675C14.14 196.859 14.5169 196.103 15.0961 195.517C15.6752 194.93 16.4266 194.544 17.2405 194.415C21.9805 193.255 26.7104 192.015 31.4404 190.835C34.7604 190.005 38.0904 189.215 41.5904 188.355C41.6468 187.355 41.6468 186.354 41.5904 185.355C40.7204 177.905 39.8004 170.455 38.8904 162.995C38.7017 162.391 38.5876 161.766 38.5504 161.135C38.9404 158.065 37.2004 156.785 34.6804 155.545C32.2541 154.307 30.048 152.678 28.1504 150.725C26.0955 148.837 24.6261 146.4 23.917 143.701C23.2079 141.003 23.2889 138.158 24.1504 135.505C24.3004 134.995 24.4304 134.505 24.5704 133.895C21.0698 130.062 18.5993 125.403 17.3904 120.355C16.2804 116.035 16.0404 111.805 18.2004 107.655C19.693 104.505 22.2909 102.014 25.5004 100.655C26.1757 100.429 26.7773 100.024 27.2405 99.4836C27.7037 98.9429 28.0112 98.2865 28.1304 97.5845C29.7704 90.7045 34.0104 86.1445 40.7504 83.8345C49.5704 80.8345 57.9204 85.8345 61.3104 91.4845C63.6433 95.1818 64.9067 99.453 64.9604 103.825C65.0105 104.547 65.0105 105.272 64.9604 105.995C64.7004 107.865 65.4504 109.105 66.7804 110.465C74.0504 117.955 76.6104 126.725 73.4304 136.905C72.0081 141.989 69.6028 146.745 66.3505 150.905C65.9926 151.307 65.739 151.791 65.6117 152.314C65.4844 152.837 65.4874 153.383 65.6205 153.905C67.4271 162.485 69.2304 171.061 71.0304 179.635C71.1697 180.206 71.3571 180.765 71.5904 181.305V181.305ZM270.48 176.535C269.71 175.025 269.1 173.915 268.58 172.775C268.407 172.312 268.103 171.91 267.705 171.617C267.308 171.324 266.834 171.153 266.34 171.125C262.66 170.705 259 170.015 255.34 169.635C250.34 169.125 245.41 168.815 240.45 168.415C237.92 168.205 235.45 167.925 232.87 167.795C226.87 167.485 220.93 167.135 214.95 167.005C211.51 166.935 208.06 167.255 204.62 167.445C202.27 167.575 199.92 167.785 197.62 167.995C197.187 168.068 196.764 168.192 196.36 168.365C195.14 171.255 194.29 174.065 192.85 176.535C187.64 185.535 179.72 190.115 169.34 190.075C166.97 190.075 164.7 189.575 162.61 191.075C162.201 191.271 161.754 191.376 161.3 191.385C155.42 192.445 149.55 193.515 143.66 194.535C141.886 194.885 140.087 195.102 138.28 195.185C137.5 195.256 136.721 195.03 136.099 194.551C135.478 194.073 135.061 193.378 134.93 192.605C134.734 191.849 134.81 191.048 135.145 190.342C135.479 189.637 136.051 189.071 136.76 188.745C137.731 188.267 138.765 187.93 139.83 187.745C142.23 187.285 144.66 186.965 147.07 186.555C149.48 186.145 152.07 185.685 155.13 185.165C151.724 182.521 148.985 179.117 147.13 175.225C143.92 174.905 136.21 176.385 133.75 177.725C133.67 178.345 133.61 178.975 133.49 179.595C133.366 180.217 133.205 180.831 133.01 181.435C129.68 191.555 123.1 198.105 112.43 200.165C110.43 200.555 108.33 200.655 106.43 201.715C105.594 202.05 104.702 202.226 103.8 202.235C103.08 202.335 102.33 202.235 101.63 202.375C95.8804 203.565 90.1404 204.795 84.3904 206.015C82.8904 206.335 81.3904 206.745 79.8804 207.015C78.9278 207.166 77.953 206.956 77.1479 206.424C76.3428 205.893 75.7658 205.08 75.5304 204.145C75.3942 203.288 75.5601 202.41 75.9997 201.662C76.4394 200.914 77.1255 200.342 77.9404 200.045C78.2618 199.899 78.5968 199.785 78.9404 199.705C81.4004 199.135 83.8704 198.585 86.3404 198.035L93.5804 196.495C89.6409 193.779 86.3605 190.215 83.9805 186.065C73.5605 188.575 63.3804 191.065 53.1804 193.465C42.9804 195.865 32.5804 197.975 22.3804 200.795C25.0904 209.885 27.7805 218.685 30.6105 227.435C35.0505 227.775 39.1704 227.035 43.3104 226.675C47.0904 226.335 50.8405 225.675 54.6205 225.275C58.2105 224.835 61.8204 224.505 65.4104 224.045C70.3371 223.411 75.2638 222.745 80.1904 222.045C85.3004 221.295 90.4305 220.695 95.4805 219.645C109.127 216.825 122.704 213.655 136.21 210.135C147.69 207.135 159.15 204.045 170.79 201.665C176.73 200.455 182.57 198.775 188.51 197.545C197.2 195.745 205.97 194.495 214.8 193.545C221.38 192.865 227.95 192.165 234.57 192.015C235.57 192.015 236.57 191.945 237.57 191.905C244.09 191.625 250.57 191.215 257.14 191.115C261.94 191.035 266.74 191.345 271.55 191.515C272.176 191.59 272.794 191.713 273.4 191.885C274.136 192.076 274.905 192.112 275.655 191.99C276.406 191.868 277.123 191.59 277.76 191.175L274.48 184.235C269.41 184.095 264.48 183.945 259.63 183.825C257.18 183.765 254.72 183.825 252.27 183.715C249.4 183.595 247.74 182.195 247.73 180.035C247.72 177.875 249.46 176.335 252.24 176.325C255.96 176.325 259.67 176.505 263.39 176.575C265.65 176.565 267.9 176.535 270.48 176.535ZM226 122.115C230.51 122.695 233.71 120.785 236.36 117.825C238.49 115.435 239.36 112.695 237.9 109.585C237.436 108.65 237.223 107.611 237.282 106.569C237.342 105.528 237.672 104.52 238.24 103.645C240.521 99.5877 241.485 94.923 241 90.2945C240.61 86.2945 239.25 82.7645 234.91 81.5345C232.259 80.8575 229.973 79.1802 228.53 76.8545C227.402 74.966 225.59 73.584 223.47 72.9945C218.58 71.6945 211.84 72.8645 208.69 79.6145C207.15 82.9145 205.1 84.7345 201.33 84.9145C195.33 85.1945 189.5 93.1645 193.22 100.345C193.555 101.088 193.943 101.806 194.38 102.495C196.59 105.585 196.87 108.555 194.24 111.635C193.747 112.175 193.382 112.82 193.172 113.521C192.963 114.222 192.914 114.962 193.03 115.685C194.28 122.685 200.38 125.865 205.62 124.815C206.42 124.655 207.22 124.555 208.03 124.445C211.43 123.975 214.82 123.445 218.23 123.045C220.91 122.695 223.61 122.395 226 122.115V122.115ZM57.4604 106.015C57.5305 104.745 57.5305 103.474 57.4604 102.205C57.0704 98.6745 55.8204 95.4245 53.0704 93.1245C46.2004 87.4045 37.7304 91.8245 36.0704 97.4645C35.6288 98.9322 35.2748 100.425 35.0104 101.935C34.6304 104.165 33.7104 105.875 31.3304 106.465C30.7168 106.616 30.1125 106.803 29.5204 107.025C25.9004 108.365 23.9804 111.025 24.1404 114.955C24.2955 120.275 26.4818 125.335 30.2504 129.095C31.1633 129.913 31.8214 130.978 32.1459 132.161C32.4704 133.343 32.4477 134.594 32.0804 135.765C31.7304 137.075 31.5004 138.425 31.0804 139.715C30.914 140.231 30.8644 140.778 30.9353 141.316C31.0062 141.854 31.1959 142.369 31.4905 142.825C33.3078 146.001 36.0737 148.529 39.4004 150.055C40.0514 150.351 40.767 150.479 41.4805 150.425C44.4805 150.155 47.4104 149.795 50.3804 149.425C52.8904 149.135 55.3804 148.775 57.9204 148.535C58.3627 148.486 58.7887 148.34 59.1675 148.106C59.5462 147.873 59.8684 147.558 60.1105 147.185C62.134 144.406 63.8854 141.439 65.3404 138.325C67.3899 134.335 67.9873 129.757 67.0304 125.375C66.6634 123.171 65.8541 121.065 64.651 119.183C63.4479 117.301 61.8761 115.682 60.0304 114.425C59.2366 113.883 58.5924 113.15 58.1571 112.294C57.7218 111.437 57.5097 110.485 57.5404 109.525C57.4404 108.395 57.4604 107.195 57.4604 106.015V106.015ZM126.46 172.635C126.544 172.281 126.571 171.916 126.54 171.555C125.68 168.605 124.87 165.645 123.86 162.755C123.47 161.837 122.846 161.037 122.05 160.435C120.305 158.998 118.478 157.663 116.58 156.435C113.964 154.788 110.951 153.879 107.86 153.805C103.608 153.693 99.4402 155.012 96.0261 157.551C92.612 160.089 90.1485 163.7 89.0304 167.805C87.9684 171.183 87.993 174.81 89.1005 178.175L126.46 172.635ZM152.52 167.345C164.87 165.515 176.95 164.175 189.19 163.445C188.92 156.515 186.4 151.075 180.91 147.165C177.793 144.924 174.004 143.816 170.17 144.025C166.224 144.342 162.472 145.873 159.428 148.406C156.385 150.939 154.199 154.351 153.17 158.175C152.94 159.175 152.59 160.065 152.38 161.025C151.855 163.123 151.907 165.324 152.53 167.395L152.52 167.345ZM208.45 131.765C208.1 135.225 209.45 157.865 210.07 159.635C213.3 160.025 226.81 159.945 228.54 159.475C227.98 156.215 227.43 152.935 226.84 149.665C226.25 146.395 225.63 142.915 224.94 139.555C224.25 136.195 224.14 132.995 222.94 129.835L208.45 131.765ZM58.5104 155.915L45.4004 157.285C45.9204 161.285 46.4004 165.015 46.8804 168.765C47.5004 174.155 48.0504 179.555 48.6804 184.935C48.841 185.557 49.0759 186.158 49.3804 186.725L64.2405 183.115L58.5104 155.915ZM146.51 142.915C145.71 142.995 145.2 143.035 144.69 143.105C142.506 143.567 140.268 143.725 138.04 143.575C135.967 143.478 133.89 143.595 131.84 143.925C128.6 144.205 125.37 144.525 122.14 144.855C121.14 144.965 120.08 145.165 118.9 145.345C119.52 146.925 119.96 148.345 120.61 149.575C121.028 150.266 121.583 150.865 122.24 151.335C123.42 152.335 124.73 153.075 125.86 154.085C126.213 154.426 126.631 154.691 127.091 154.864C127.55 155.036 128.04 155.111 128.53 155.085C131.6 154.975 134.68 155.085 137.75 154.955C139.75 154.885 141.83 154.565 143.9 154.355C144.81 150.395 145.66 146.765 146.55 142.885L146.51 142.915ZM125.64 180.395C114.28 181.585 103.41 183.395 92.2205 185.055C97.1005 191.345 103.22 194.055 110.75 192.945C117.89 191.865 122.81 187.585 125.64 180.395ZM187.04 171.395C186.526 171.271 185.999 171.204 185.47 171.195C175.657 172.155 165.85 173.155 156.05 174.195C155.83 174.195 155.63 174.465 155.43 174.605C157.75 179.605 164.19 183.145 170.15 183.065C178.81 182.895 185.59 176.535 187.04 171.395ZM133.81 169.635L144.88 167.455C144.76 165.455 144.65 163.815 144.55 162.145L132 162.465L133.81 169.635Z" fill="#3558A2"/>
<path d="M270.481 176.533C267.901 176.533 265.651 176.533 263.401 176.533C259.681 176.463 255.971 176.263 252.251 176.283C249.471 176.283 247.731 177.843 247.741 179.993C247.751 182.143 249.411 183.553 252.281 183.673C254.731 183.773 257.191 183.723 259.641 183.783C264.531 183.903 269.421 184.053 274.491 184.193L277.771 191.133C277.133 191.548 276.416 191.826 275.666 191.949C274.915 192.071 274.147 192.035 273.411 191.843C272.805 191.672 272.186 191.548 271.561 191.473C266.751 191.303 261.951 190.993 257.151 191.073C250.621 191.173 244.151 191.583 237.581 191.863C236.581 191.863 235.581 191.953 234.581 191.973C227.961 192.123 221.391 192.823 214.811 193.503C205.981 194.433 197.211 195.683 188.521 197.503C182.581 198.733 176.741 200.413 170.801 201.623C159.161 204.003 147.701 207.093 136.221 210.093C122.721 213.613 109.144 216.783 95.4907 219.603C90.4907 220.653 85.3107 221.253 80.2007 222.003C75.2807 222.723 70.354 223.39 65.4207 224.003C61.8307 224.463 58.2206 224.793 54.6306 225.233C50.8506 225.683 47.1007 226.293 43.3207 226.633C39.1807 226.993 35.0607 227.733 30.6207 227.393C27.7907 218.643 25.1006 209.843 22.3906 200.753C32.5906 197.933 42.9307 195.833 53.1907 193.423C63.4507 191.013 73.5707 188.533 83.9907 186.023C86.3707 190.174 89.6512 193.738 93.5907 196.453L86.3507 197.993C83.8807 198.543 81.4107 199.093 78.9507 199.663C78.607 199.743 78.2721 199.857 77.9507 200.003C77.1358 200.301 76.4497 200.873 76.01 201.621C75.5703 202.369 75.4044 203.246 75.5406 204.103C75.776 205.038 76.3531 205.852 77.1582 206.383C77.9633 206.914 78.9381 207.125 79.8906 206.973C81.4106 206.733 82.8906 206.323 84.4006 205.973C90.1506 204.753 95.8906 203.523 101.641 202.333C102.341 202.183 103.091 202.333 103.811 202.193C104.712 202.185 105.604 202.008 106.441 201.673C108.321 200.613 110.441 200.513 112.441 200.123C123.111 198.063 129.691 191.513 133.021 181.393C133.216 180.789 133.376 180.175 133.501 179.553C133.621 178.933 133.681 178.303 133.761 177.683C136.221 176.343 143.931 174.863 147.141 175.183C148.995 179.075 151.735 182.479 155.141 185.123C152.141 185.643 149.601 186.123 147.081 186.513C144.561 186.903 142.241 187.243 139.841 187.703C138.775 187.888 137.741 188.225 136.771 188.703C136.061 189.03 135.49 189.595 135.155 190.301C134.821 191.006 134.745 191.807 134.941 192.563C135.071 193.336 135.489 194.031 136.11 194.51C136.731 194.988 137.51 195.214 138.291 195.143C140.098 195.061 141.896 194.844 143.671 194.493C149.561 193.493 155.431 192.403 161.311 191.343C161.765 191.335 162.211 191.229 162.621 191.033C164.711 189.503 166.981 190.033 169.351 190.033C179.731 190.033 187.651 185.473 192.861 176.493C194.301 174.023 195.151 171.213 196.371 168.323C196.775 168.15 197.198 168.026 197.631 167.953C199.971 167.743 202.321 167.533 204.631 167.403C208.071 167.213 211.521 166.893 214.961 166.963C220.961 167.093 226.961 167.443 232.881 167.753C235.411 167.883 237.881 168.163 240.461 168.373C245.461 168.773 250.401 169.083 255.351 169.593C259.031 169.973 262.691 170.663 266.351 171.083C266.844 171.112 267.318 171.283 267.715 171.576C268.113 171.868 268.417 172.271 268.591 172.733C269.101 173.913 269.711 175.023 270.481 176.533ZM38.3707 215.453C39.4307 215.283 40.2406 215.173 41.0406 215.023C44.5873 214.356 48.1373 213.69 51.6907 213.023C53.2941 212.775 54.8831 212.441 56.4507 212.023C57.2917 211.79 58.0144 211.249 58.4756 210.508C58.9368 209.768 59.1028 208.88 58.9407 208.023C58.8031 207.211 58.3859 206.472 57.7614 205.936C57.1368 205.399 56.3441 205.097 55.5206 205.083C54.8867 205.036 54.2495 205.06 53.6207 205.153C50.5007 205.663 47.3806 206.153 44.2806 206.773C41.7906 207.253 39.2807 207.773 36.8707 208.393C36.1542 208.567 35.5089 208.958 35.0237 209.513C34.5384 210.068 34.237 210.76 34.1606 211.493C34.0711 212.177 34.2023 212.872 34.535 213.476C34.8678 214.08 35.3847 214.563 36.0106 214.853C36.765 215.163 37.5597 215.365 38.3707 215.453ZM206.501 183.763V183.663C210.501 183.483 214.501 183.353 218.441 183.113C219.432 183.044 220.4 182.782 221.291 182.343C221.841 182.034 222.295 181.579 222.604 181.029C222.913 180.478 223.063 179.853 223.039 179.223C223.016 178.592 222.818 177.98 222.469 177.454C222.12 176.929 221.633 176.51 221.061 176.243C220.136 175.897 219.157 175.721 218.171 175.723C214.171 175.843 210.171 176.043 206.221 176.293C205.133 176.368 204.061 176.587 203.031 176.943C202.245 177.199 201.577 177.729 201.148 178.435C200.719 179.141 200.557 179.978 200.691 180.793C200.78 181.62 201.173 182.385 201.794 182.939C202.414 183.494 203.219 183.798 204.051 183.793C204.861 183.813 205.681 183.763 206.501 183.763V183.763Z" fill="#979FBB"/>
<path d="M225.999 122.115C223.609 122.395 220.909 122.695 218.229 123.045C214.819 123.485 211.429 123.975 208.029 124.445C207.219 124.555 206.419 124.655 205.619 124.815C200.379 125.865 194.279 122.715 193.029 115.685C192.913 114.962 192.961 114.222 193.171 113.521C193.38 112.82 193.746 112.175 194.239 111.635C196.869 108.555 196.589 105.585 194.379 102.495C193.942 101.806 193.554 101.088 193.219 100.345C189.499 93.1645 195.329 85.1945 201.329 84.9145C205.099 84.7345 207.149 82.9145 208.689 79.6145C211.839 72.8645 218.579 71.6945 223.469 72.9945C225.589 73.584 227.401 74.966 228.529 76.8545C229.971 79.1802 232.258 80.8574 234.909 81.5345C239.249 82.7645 240.609 86.3345 240.999 90.2945C241.484 94.923 240.52 99.5877 238.239 103.645C237.671 104.52 237.341 105.528 237.281 106.569C237.222 107.611 237.435 108.65 237.899 109.585C239.399 112.695 238.489 115.435 236.359 117.825C233.709 120.785 230.509 122.695 225.999 122.115Z" fill="white"/>
<path d="M57.4601 106.015C57.4601 107.195 57.4601 108.375 57.4601 109.555C57.4293 110.515 57.6414 111.468 58.0766 112.324C58.5119 113.181 59.1563 113.914 59.95 114.455C61.7957 115.713 63.3675 117.332 64.5705 119.214C65.7736 121.096 66.5831 123.202 66.95 125.405C67.907 129.787 67.3094 134.365 65.26 138.355C63.8049 141.469 62.0536 144.436 60.03 147.215C59.7879 147.588 59.4659 147.903 59.0871 148.137C58.7084 148.37 58.2824 148.516 57.8401 148.565C55.3201 148.805 52.84 149.165 50.3 149.455C47.3 149.795 44.37 150.155 41.4 150.455C40.6866 150.509 39.9711 150.382 39.32 150.085C35.9933 148.56 33.2273 146.032 31.41 142.855C31.1154 142.399 30.9259 141.884 30.855 141.346C30.784 140.808 30.8335 140.261 31 139.745C31.41 138.455 31.64 137.105 32 135.795C32.3672 134.625 32.39 133.374 32.0655 132.191C31.741 131.008 31.083 129.944 30.17 129.125C26.4014 125.366 24.2151 120.306 24.06 114.985C23.9 111.065 25.82 108.395 29.44 107.055C30.0321 106.834 30.6364 106.647 31.25 106.495C33.63 105.905 34.55 104.195 34.93 101.965C35.1945 100.455 35.5485 98.9627 35.9901 97.495C37.6901 91.855 46.1601 87.435 52.9901 93.155C55.7401 95.455 56.99 98.705 57.38 102.235C57.45 103.504 57.45 104.776 57.38 106.045L57.4601 106.015Z" fill="white"/>
<path d="M208.459 131.764L222.999 129.834C224.149 132.994 224.279 136.334 224.999 139.554C225.719 142.774 226.289 146.294 226.899 149.664C227.509 153.034 228.039 156.214 228.599 159.474C226.869 159.944 213.359 160.024 210.129 159.634C209.469 157.864 208.109 135.224 208.459 131.764Z" fill="#CBCFDD"/>
<path d="M58.5201 155.914L64.2501 183.114L49.3901 186.724C49.0857 186.158 48.8507 185.557 48.6902 184.934C48.0602 179.554 47.5101 174.154 46.8901 168.764C46.4501 165.014 45.8902 161.264 45.4102 157.284L58.5201 155.914Z" fill="#CBCFDD"/>
<path d="M125.639 180.395C122.759 187.565 117.889 191.845 110.749 192.945C103.259 194.085 97.0988 191.345 92.2188 185.055C103.409 183.395 114.279 181.605 125.639 180.395Z" fill="#979FBB"/>
<path d="M187.04 171.394C185.59 176.554 178.84 182.914 170.15 183.024C164.15 183.104 157.75 179.604 155.43 174.564C155.63 174.424 155.83 174.174 156.05 174.154C165.856 173.148 175.663 172.148 185.47 171.154C186 171.177 186.527 171.258 187.04 171.394V171.394Z" fill="#979FBB"/>
<path d="M38.3703 215.455C37.5602 215.374 36.7656 215.179 36.0102 214.875C35.3843 214.585 34.8673 214.103 34.5346 213.499C34.2019 212.894 34.0707 212.199 34.1602 211.515C34.2365 210.782 34.538 210.09 35.0232 209.535C35.5085 208.98 36.1538 208.589 36.8703 208.415C39.3203 207.795 41.7902 207.275 44.2802 206.795C47.3802 206.205 50.5003 205.685 53.6203 205.175C54.2491 205.082 54.8862 205.059 55.5202 205.105C56.3437 205.12 57.1364 205.421 57.7609 205.958C58.3855 206.495 58.8027 207.233 58.9402 208.045C59.1023 208.903 58.9363 209.79 58.4752 210.531C58.014 211.272 57.2912 211.812 56.4503 212.045C54.8827 212.464 53.2937 212.798 51.6902 213.045C48.1369 213.712 44.5869 214.379 41.0402 215.045C40.2402 215.175 39.4303 215.285 38.3703 215.455Z" fill="#3558A2"/>
<path d="M206.5 183.765C205.68 183.765 204.86 183.765 204.05 183.765C203.218 183.77 202.414 183.466 201.793 182.912C201.172 182.358 200.779 181.593 200.69 180.765C200.556 179.95 200.719 179.113 201.148 178.407C201.577 177.701 202.245 177.172 203.03 176.915C204.06 176.559 205.133 176.341 206.22 176.265C210.22 176.015 214.22 175.815 218.17 175.695C219.157 175.693 220.136 175.87 221.06 176.215C221.632 176.482 222.12 176.901 222.469 177.427C222.818 177.953 223.015 178.564 223.039 179.195C223.063 179.826 222.912 180.451 222.604 181.001C222.295 181.552 221.841 182.006 221.29 182.315C220.399 182.755 219.431 183.016 218.44 183.085C214.44 183.325 210.44 183.455 206.5 183.635V183.765Z" fill="#3558A2"/>
</svg>
