<svg width="300" height="300" viewBox="0 0 300 300" fill="none" xmlns="http://www.w3.org/2000/svg">
<path d="M27.6565 171.009C27.1265 167.919 26.5565 165.109 26.1765 162.259C25.2859 156.496 25.689 150.607 27.3565 145.019C29.7265 137.419 35.3565 134.069 43.0765 135.849C44.8264 136.323 46.5434 136.911 48.2165 137.609C49.1365 137.949 50.0165 138.389 51.0765 138.849C51.6965 137.849 52.1765 136.989 52.7465 136.189C53.7721 134.584 54.9012 133.047 56.1265 131.589C61.4265 125.779 67.7365 125.199 74.4765 129.589C77.4441 131.578 79.8069 134.346 81.3065 137.589C82.3065 139.689 83.3065 141.839 84.2265 143.819L101.227 143.079L107.516 126.079C106.846 125.649 106.226 125.309 105.666 124.889C101.766 121.889 97.5165 119.329 94.0665 115.889C87.7765 109.699 87.0665 101.269 93.1365 94.3787C96.7365 90.3087 100.817 86.6587 104.727 82.8787C105.341 82.3391 106.059 81.9307 106.836 81.6787C107.55 81.3656 108.346 81.2938 109.104 81.4743C109.862 81.6548 110.541 82.0776 111.036 82.6787C111.562 83.3127 111.867 84.1007 111.905 84.9235C111.943 85.7463 111.712 86.559 111.247 87.2387C110.766 87.8929 110.212 88.4901 109.597 89.0187C106.707 91.7887 103.866 94.5987 100.906 97.2787C98.4364 99.5087 99.1965 102.279 99.5965 104.889C99.6765 105.439 100.707 106.169 101.377 106.269C103.144 106.622 104.957 106.693 106.747 106.479C115.117 104.8 123.318 102.364 131.247 99.1987L131.497 99.0887C134.107 98.0887 136.286 98.5487 137.216 100.419C138.276 102.559 137.357 105.049 134.617 106.139C130.267 107.913 125.831 109.468 121.326 110.799C116.456 112.209 111.466 113.199 106.526 114.379C106.116 114.479 105.727 114.629 104.757 114.939C106.757 116.219 108.316 117.249 109.916 118.229C111.193 119.088 112.53 119.853 113.916 120.519C114.878 120.962 115.945 121.129 116.997 120.999C124.317 119.679 131.616 118.209 138.926 116.809C148.006 115.069 157.096 113.342 166.196 111.629C168.738 111.218 171.242 110.606 173.686 109.799C172.786 109.479 171.877 109.179 170.987 108.799C169.697 108.367 168.437 107.849 167.216 107.249C161.746 104.249 161.326 98.5287 166.466 95.0287C168.765 93.4053 171.302 92.1502 173.987 91.3087C181.387 89.1687 188.867 87.3087 196.367 85.5287C201.037 84.4487 204.096 86.3387 205.676 90.8887C207.526 96.2187 207.676 101.769 207.266 107.309C207.016 110.619 204.607 112.619 200.887 112.799C197.357 112.969 193.806 112.799 190.266 112.799C189.636 112.799 188.997 112.689 188.367 112.729C187.047 112.799 186.597 113.509 187.127 114.729C187.401 115.3 187.736 115.84 188.127 116.339C192 121.719 195.88 127.095 199.766 132.469C201.206 134.469 201.247 134.469 203.497 133.469C215.367 128.299 227.447 127.469 239.497 132.529C253.137 138.249 261.796 148.329 263.906 163.189C266.346 180.489 259.376 194.039 245.526 203.849C231.466 213.849 216.006 215.579 200.076 208.489C195.047 206.317 190.547 203.084 186.885 199.01C183.222 194.937 180.483 190.119 178.857 184.889C178.607 184.139 178.266 183.419 177.916 182.549L175.706 183.059C171.186 184.059 166.646 184.999 162.156 186.059C161.206 186.378 160.178 186.382 159.225 186.07C158.272 185.759 157.445 185.148 156.867 184.329C154.447 181.269 151.867 178.329 149.507 175.229C141.977 165.539 133.506 156.659 125.326 147.539C121.806 143.629 118.417 139.539 114.987 135.539C114.557 134.907 114.03 134.347 113.426 133.879C111.509 137.466 110.01 141.26 108.956 145.189L111.656 146.329C119.164 149.383 125.55 154.674 129.948 161.483C134.345 168.292 136.541 176.289 136.237 184.389C136.058 189.996 134.723 195.506 132.314 200.572C129.904 205.638 126.474 210.152 122.237 213.829C117.926 217.765 112.88 220.809 107.388 222.787C101.896 224.764 96.0666 225.634 90.2365 225.349C83.2963 225.15 76.5219 223.181 70.5565 219.629C69.9391 219.221 69.2346 218.965 68.4998 218.88C67.7651 218.794 67.0206 218.883 66.3265 219.139C63.5765 219.929 60.6065 219.979 57.7365 220.409C52.0965 221.269 46.4665 222.219 40.8165 223.049C37.0465 223.589 33.2565 223.979 29.4765 224.439C28.6619 224.559 27.83 224.471 27.0588 224.182C26.2876 223.894 25.6021 223.414 25.0665 222.789C24.5021 222.198 23.9995 221.551 23.5665 220.859C18.8565 212.669 14.2165 204.439 11.9565 195.139C10.7165 190.009 10.4365 184.899 12.6165 179.919C15.1065 174.229 19.3665 171.059 25.6765 170.919C26.2365 170.999 26.8465 171.009 27.6565 171.009ZM76.6564 146.759C76.5683 146.194 76.4312 145.639 76.2465 145.099C75.6994 143.557 74.9956 142.076 74.1464 140.679C72.9699 138.869 71.5154 137.256 69.8365 135.899C66.8365 133.749 64.2165 134.099 61.9265 136.899C60.2113 139.121 58.7239 141.509 57.4865 144.029C55.1965 148.499 53.1965 149.189 48.8365 146.669C48.3059 146.317 47.7511 146.003 47.1765 145.729C45.2072 144.815 43.1755 144.043 41.0965 143.419C37.8365 142.619 36.3865 143.509 35.1865 146.609C34.876 147.46 34.6254 148.332 34.4365 149.219C33.0165 155.479 33.6565 161.669 35.1765 167.809C35.6765 169.809 36.3865 171.809 36.6965 173.879C37.3665 178.219 34.6965 180.669 30.4065 179.879C29.3365 179.689 28.3065 179.329 27.2365 179.099C23.4465 178.309 20.9565 179.819 19.6665 183.499C18.3765 187.179 18.8565 190.639 19.7565 194.209C21.6765 201.779 25.5865 208.449 29.2065 215.209C29.3755 215.63 29.6878 215.979 30.0883 216.193C30.4889 216.407 30.9521 216.472 31.3964 216.379C33.9164 216.049 36.3965 215.859 38.9565 215.489C45.5965 214.489 52.2265 213.489 58.8565 212.489C59.4376 212.338 60.0033 212.134 60.5465 211.879C42.0465 190.199 50.7065 158.539 76.6065 146.799L76.6564 146.759ZM119.967 128.419L119.686 129.169C124.046 134.169 128.386 139.109 132.776 144.049C137.166 148.989 141.777 153.969 146.227 159.049C150.676 164.129 154.626 169.049 159.036 174.399C159.826 172.039 160.476 170.149 161.036 168.259C166.05 152.259 171.05 136.259 176.036 120.259C176.256 119.549 176.336 118.789 176.526 117.869C157.236 120.449 138.686 124.979 119.916 128.419H119.967ZM102.757 164.219C102.527 164.849 102.246 165.489 102.056 166.219C101.056 169.779 99.9965 173.359 98.9365 176.929C98.7017 177.801 98.3661 178.644 97.9365 179.439C97.5455 180.221 96.8851 180.836 96.0766 181.171C95.2682 181.505 94.3661 181.536 93.5365 181.259C92.6975 181.011 91.9746 180.472 91.4979 179.739C91.0212 179.005 90.8221 178.126 90.9365 177.259C91.0587 176.269 91.2798 175.294 91.5965 174.349C92.4965 171.109 93.4365 167.889 94.3165 164.649C94.4313 164.069 94.4949 163.48 94.5065 162.889C85.5065 162.419 76.1265 168.829 72.7865 177.539C71.0656 181.84 70.9691 186.62 72.5148 190.987C74.0606 195.353 77.143 199.008 81.1865 201.269C86.1046 204.106 91.8752 205.092 97.4565 204.049C107.916 202.289 116.096 193.259 116.586 182.949C116.916 174.559 110.536 165.799 102.706 164.219H102.757ZM199.646 177.389C199.723 177.907 199.827 178.421 199.956 178.929C200.851 181.606 202.361 184.037 204.365 186.026C206.369 188.014 208.812 189.505 211.497 190.379C216.913 192.188 222.799 191.997 228.087 189.842C233.376 187.686 237.717 183.709 240.326 178.629C242.906 173.329 243.327 167.819 240.867 162.349C236.687 153.109 226.966 150.479 220.536 151.279C218.646 151.519 216.597 151.389 214.737 152.819C216.187 154.639 217.557 156.309 218.877 158.019C220.697 160.389 222.587 162.719 224.247 165.199C225.657 167.289 225.407 169.199 223.497 170.759C222.329 171.737 220.965 172.454 219.497 172.859C215.107 173.959 210.646 174.809 206.226 175.789C204.026 176.279 201.856 176.799 199.596 177.389H199.646ZM185.757 180.389C186.127 181.769 186.297 182.749 186.637 183.649C188.674 189.219 192.279 194.081 197.016 197.649C204.566 203.309 213.116 205.309 222.436 204.529C238.436 203.199 252.437 191.529 255.867 175.819C258.597 163.399 254.976 152.739 245.026 144.689C235.706 137.139 224.926 135.539 213.406 138.239C210.837 138.697 208.379 139.645 206.166 141.029C206.906 142.109 207.546 143.079 208.226 144.029C209.586 145.889 209.596 145.899 211.766 145.139C216.653 143.399 221.881 142.834 227.026 143.489C230.826 143.93 234.484 145.192 237.747 147.189C241.01 149.186 243.799 151.868 245.92 155.051C248.042 158.234 249.446 161.84 250.034 165.62C250.622 169.399 250.381 173.262 249.326 176.939C245.326 191.529 230.236 201.299 215.226 199.289C203.956 197.779 196.036 191.669 192.226 180.689C192.086 180.269 191.936 179.849 191.676 179.119L185.757 180.389ZM98.3765 151.389C97.9368 151.22 97.4855 151.083 97.0264 150.979C96.3095 150.856 95.5838 150.792 94.8565 150.789C81.8565 151.229 71.3165 156.499 63.9965 167.399C54.5865 181.399 57.0765 199.039 69.9965 209.829C79.2665 217.569 89.9964 219.349 101.516 216.479C118.516 212.209 131.806 195.269 127.766 176.479C125.276 164.899 117.936 157.339 107.026 153.089C106.741 153.078 106.455 153.105 106.176 153.169C105.876 154.089 105.536 155.169 105.176 156.399C109.267 157.681 112.984 159.939 116.007 162.979C123.497 170.259 126.167 179.189 123.597 189.359C118.217 210.689 90.0965 219.609 73.3765 205.359C66.3765 199.439 62.9865 191.769 63.6865 182.709C64.6865 169.279 75.2264 158.029 88.5264 155.589C91.3664 155.069 94.2665 154.949 97.3665 154.589L98.3765 151.389ZM166.487 177.299C169.627 176.499 172.196 175.719 174.816 175.199C176.506 174.859 176.947 174.019 176.997 172.409C177.367 159.409 182.897 148.839 192.627 140.409C193.227 139.889 193.806 139.349 194.556 138.659C190.876 133.589 187.556 128.479 183.296 123.389C177.076 141.259 171.836 158.859 166.436 177.289L166.487 177.299ZM198.426 93.5287C193.616 93.1587 175.036 98.5287 172.586 100.939C173.231 101.264 173.899 101.538 174.586 101.759C178.816 102.759 183.016 103.989 187.306 104.689C190.729 105.09 194.171 105.3 197.617 105.319C198.617 105.369 199.727 105.319 199.737 103.859C199.773 100.365 199.315 96.884 198.377 93.5187L198.426 93.5287ZM199.426 145.239C190.766 150.649 183.826 164.459 185.426 172.349C186.636 172.119 187.856 171.859 189.086 171.689C189.762 171.644 190.397 171.346 190.863 170.855C191.33 170.364 191.595 169.716 191.607 169.039C192.678 162.264 196.085 156.077 201.237 151.549C201.817 151.019 202.336 150.429 202.936 149.819L199.426 145.239ZM207.686 156.399C203.437 159.52 200.537 164.144 199.576 169.329L215.156 165.749L207.686 156.399Z" fill="#3558A2"/>
<path d="M262.686 98.7976C264.519 98.4549 266.327 97.9871 268.096 97.3976C273.096 95.3976 277.826 92.9576 281.626 88.9776C281.975 88.5546 282.404 88.2049 282.888 87.9486C283.372 87.6923 283.903 87.5345 284.449 87.4843C284.994 87.4341 285.545 87.4925 286.068 87.6561C286.591 87.8197 287.076 88.0853 287.496 88.4376C287.912 88.8329 288.24 89.3112 288.458 89.8415C288.677 90.3718 288.782 90.9421 288.766 91.5155C288.75 92.0889 288.613 92.6525 288.365 93.1697C288.117 93.6869 287.763 94.1461 287.326 94.5176C285.119 96.5404 282.74 98.3673 280.216 99.9776C275.708 103.065 270.595 105.159 265.216 106.118C262.259 106.675 259.212 106.503 256.336 105.618C255.697 105.399 255.013 105.349 254.349 105.471C253.686 105.594 253.065 105.885 252.546 106.318C247.221 109.957 241.522 113.018 235.546 115.448C233.849 116.072 232.083 116.488 230.286 116.688C229.295 116.759 228.302 116.584 227.396 116.178C226.625 115.866 225.984 115.298 225.584 114.57C225.183 113.841 225.046 112.996 225.196 112.178C225.28 111.397 225.633 110.67 226.196 110.123C226.758 109.575 227.494 109.241 228.276 109.178C235.626 108.318 241.176 103.708 247.686 100.388C246.966 99.2676 246.416 98.4776 245.926 97.6476C243.446 93.5076 241.706 89.1976 242.666 84.2276C243.06 82.1444 243.975 80.1947 245.325 78.5602C246.675 76.9258 248.417 75.6597 250.389 74.8801C252.36 74.1004 254.497 73.8325 256.6 74.1014C258.703 74.3702 260.704 75.1671 262.416 76.4176C266.086 79.1476 267.296 83.0576 267.016 87.4876C266.729 90.6731 265.57 93.7179 263.666 96.2876C263.216 96.9276 262.816 97.5976 262.396 98.2876L262.686 98.7976ZM253.996 95.2176C256.646 92.6676 258.996 90.3376 259.196 86.6676C259.336 83.7976 257.796 82.0176 255.196 81.8576C254.013 81.8451 252.866 82.2617 251.967 83.0303C251.068 83.7989 250.478 84.8673 250.306 86.0376C249.976 89.5776 251.436 92.4576 253.996 95.1976V95.2176Z" fill="#3558A2"/>
<path d="M76.6058 146.799C50.7058 158.579 42.0458 190.239 60.4958 212.019C59.9526 212.275 59.3868 212.479 58.8057 212.629C52.1757 213.629 45.5457 214.679 38.9057 215.629C36.3957 215.999 33.9058 216.189 31.3458 216.519C30.9014 216.613 30.4382 216.547 30.0377 216.333C29.6371 216.119 29.3247 215.771 29.1557 215.349C25.5357 208.539 21.6257 201.869 19.7057 194.349C18.8057 190.779 18.3357 187.239 19.6157 183.639C20.8957 180.039 23.3957 178.449 27.1857 179.239C28.2557 179.469 29.2858 179.829 30.3558 180.019C34.6858 180.789 37.3557 178.339 36.6457 174.019C36.3357 171.969 35.6458 170.019 35.1258 167.949C33.6058 161.809 32.9658 155.619 34.3858 149.359C34.5747 148.473 34.8254 147.601 35.1358 146.749C36.3358 143.649 37.7857 142.749 41.0457 143.559C43.1247 144.184 45.1565 144.956 47.1258 145.869C47.7004 146.143 48.2551 146.458 48.7857 146.809C53.1457 149.329 55.1457 148.639 57.4357 144.169C58.6731 141.65 60.1606 139.261 61.8758 137.039C64.1658 134.199 66.8757 133.849 69.7857 136.039C71.4646 137.396 72.9192 139.009 74.0958 140.819C74.945 142.217 75.6486 143.698 76.1957 145.239C76.3749 145.747 76.5121 146.269 76.6058 146.799V146.799Z" fill="#EAECF1"/>
<path d="M185.705 180.38L191.705 179.12C191.965 179.85 192.115 180.27 192.255 180.69C196.035 191.69 203.955 197.78 215.255 199.29C230.255 201.29 245.325 191.53 249.355 176.94C250.406 173.263 250.644 169.401 250.053 165.622C249.462 161.844 248.056 158.239 245.933 155.059C243.809 151.878 241.019 149.197 237.756 147.203C234.492 145.209 230.834 143.949 227.035 143.51C221.889 142.855 216.662 143.42 211.775 145.16C209.605 145.92 209.595 145.91 208.235 144.05C207.555 143.11 206.915 142.14 206.175 141.05C208.388 139.666 210.846 138.718 213.415 138.26C224.935 135.56 235.715 137.16 245.035 144.71C254.985 152.76 258.605 163.42 255.875 175.84C252.425 191.54 238.495 203.22 222.445 204.55C213.125 205.33 204.575 203.33 197.025 197.67C192.287 194.102 188.682 189.24 186.645 183.67C186.245 182.74 186.075 181.8 185.705 180.38Z" fill="#979FBB"/>
<path d="M98.3258 151.378L97.3258 154.558C94.2258 154.888 91.3258 155.008 88.4858 155.558C75.1858 157.998 64.6757 169.248 63.6457 182.678C62.9457 191.738 66.3858 199.408 73.3358 205.328C90.0558 219.608 118.176 210.688 123.556 189.328C126.126 179.158 123.456 170.228 115.966 162.948C112.943 159.908 109.226 157.65 105.136 156.368C105.536 155.108 105.876 154.058 106.136 153.138C106.415 153.074 106.7 153.047 106.986 153.058C117.896 157.308 125.236 164.868 127.726 176.448C131.726 195.258 118.526 212.198 101.476 216.448C89.9858 219.318 79.2258 217.538 69.9558 209.798C57.0258 199.008 54.5358 181.388 63.9558 167.368C71.2758 156.468 81.7858 151.198 94.8158 150.758C95.5431 150.761 96.2689 150.825 96.9858 150.948C97.442 151.059 97.8898 151.203 98.3258 151.378V151.378Z" fill="#979FBB"/>
<path d="M198.377 93.5183C199.304 96.8819 199.752 100.36 199.707 103.848C199.707 105.268 198.627 105.358 197.587 105.308C194.141 105.29 190.699 105.079 187.277 104.678C182.987 103.978 178.787 102.768 174.557 101.748C173.87 101.528 173.201 101.253 172.557 100.928C174.987 98.4883 193.567 93.1483 198.377 93.5183Z" fill="#EAECF1"/>
<path d="M199.326 145.229L202.786 149.809C202.186 150.419 201.666 151.009 201.086 151.539C195.934 156.067 192.528 162.254 191.456 169.029C191.445 169.706 191.18 170.354 190.713 170.845C190.246 171.336 189.612 171.633 188.936 171.679C187.706 171.849 186.486 172.109 185.276 172.339C183.726 164.449 190.666 150.639 199.326 145.229Z" fill="#979FBB"/>
<path d="M207.585 156.389L215.055 165.739L199.475 169.319C200.435 164.134 203.335 159.51 207.585 156.389V156.389Z" fill="white"/>
<path d="M253.995 95.1982C251.435 92.4582 249.995 89.5782 250.305 86.0182C250.477 84.8478 251.067 83.7794 251.966 83.0108C252.865 82.2423 254.013 81.8256 255.195 81.8382C257.795 81.9982 259.335 83.7782 259.195 86.6482C259.025 90.3182 256.645 92.6482 253.995 95.1982Z" fill="white"/>
</svg>
