<svg width="300" height="300" viewBox="0 0 300 300" fill="none" xmlns="http://www.w3.org/2000/svg">
<path d="M45.0129 187.625C45.6229 182.525 46.2329 177.305 46.8629 172.085C48.1129 161.725 49.3329 151.365 50.6129 141.015C51.7729 131.565 53.0229 122.135 54.1729 112.685C55.2329 104.045 56.1729 95.395 57.1729 86.745C57.3429 85.305 57.4529 83.845 57.7529 82.425C58.3029 79.805 60.1829 78.665 62.7529 79.085C67.4196 79.825 72.0862 80.4917 76.7529 81.085C84.2029 82.085 91.6729 82.995 99.1229 83.955L120.123 86.695C130.63 88.075 141.143 89.4483 151.663 90.815C165.233 92.565 178.823 94.265 192.403 96.015C202.643 97.345 212.873 98.745 223.123 100.015C232.733 101.255 242.363 102.425 251.983 103.605C254.983 103.965 256.283 105.375 255.913 108.325C255.213 113.995 254.333 119.635 253.473 125.325C251.52 138.145 249.546 150.955 247.553 163.755C245.073 179.695 242.573 195.629 240.053 211.555C239.853 212.815 239.573 214.055 239.493 215.315C239.253 219.205 236.393 220.715 232.843 220.315C230.323 220.035 227.843 219.615 225.313 219.235L178.543 212.165C168.603 210.655 158.673 209.095 148.733 207.605C136.903 205.835 125.053 204.155 113.223 202.385C102.223 200.725 91.2229 198.975 80.2229 197.315C70.8029 195.895 61.3728 194.555 51.9528 193.185L48.9528 192.715C46.0128 192.265 44.8629 190.815 45.0129 187.625ZM248.223 110.875L64.8829 87.155C61.4429 115.355 58.0329 143.305 54.6029 171.445L63.8029 172.805C64.1329 170.445 64.3229 168.285 64.7429 166.175C65.2729 163.465 67.1429 162.245 69.9129 162.615C71.7929 162.865 73.6729 163.135 75.5529 163.405C82.0129 164.315 88.4829 165.175 94.9329 166.145C98.2129 166.645 99.4429 168.235 99.3629 171.565C99.3629 172.565 99.1729 173.565 99.0929 174.565C99.0129 175.565 98.9529 176.695 98.8729 177.955L234.623 198.255C239.163 169.035 243.653 140.155 248.223 110.825V110.875ZM233.493 205.745L53.7429 178.745C53.4629 181.125 53.2129 183.335 52.9329 185.745C73.1429 188.745 93.0129 191.695 112.883 194.675C132.753 197.655 152.823 200.785 172.803 203.675C192.783 206.565 212.453 209.845 232.463 212.545C232.823 210.115 233.133 208.065 233.493 205.695V205.745ZM71.7729 170.405C71.6829 171.715 71.6129 172.755 71.5229 173.985C78.2129 174.865 84.6329 176.155 91.2629 176.645L91.6329 173.275L71.7729 170.405Z" fill="#3558A2"/>
<path d="M248.223 110.824C243.653 140.154 239.163 169.034 234.623 198.184L98.8735 177.884C98.9535 176.624 99.0135 175.554 99.0935 174.494C99.1735 173.434 99.3435 172.494 99.3635 171.494C99.4435 168.164 98.2136 166.574 94.9336 166.074C88.4836 165.074 82.0136 164.244 75.5536 163.334C73.6736 163.064 71.7936 162.794 69.9136 162.544C67.1436 162.174 65.2735 163.394 64.7435 166.104C64.3235 168.214 64.1336 170.374 63.8036 172.734L54.6035 171.374C58.0335 143.234 61.4435 115.284 64.8835 87.084L248.223 110.824ZM150.644 159.254C151.024 160.484 151.333 161.604 151.703 162.694C152.963 166.414 155.533 168.694 159.463 168.944C161.795 169.152 164.135 168.635 166.162 167.465C168.19 166.294 169.807 164.527 170.794 162.404C172.144 159.824 173.644 157.924 176.384 157.024C176.552 156.959 176.713 156.875 176.863 156.774C179.443 155.274 180.363 153.214 179.353 151.204C178.343 149.194 176.144 148.814 173.424 150.084C172.146 150.723 170.806 151.225 169.424 151.584C165.984 152.354 165.344 152.994 165.024 156.584C164.834 158.754 163.024 160.944 161.024 161.234C160.204 161.354 159.143 161.474 158.953 160.474C158.613 158.529 158.393 156.566 158.294 154.594C158.214 153.244 159.604 152.994 160.294 152.274C161.294 151.274 162.364 150.484 163.294 149.494C166.474 146.084 169.183 142.354 170.463 137.774C171.463 134.024 170.313 130.664 167.463 128.934C165.853 127.886 163.936 127.415 162.024 127.597C160.112 127.778 158.318 128.602 156.934 129.934C155.217 131.589 154.037 133.721 153.544 136.054C152.684 139.844 151.873 143.664 151.353 147.514C151.33 148.221 151.12 148.909 150.744 149.508C150.368 150.107 149.84 150.595 149.213 150.924C147.793 151.731 146.433 152.641 145.144 153.644C144.398 154.182 143.873 154.971 143.665 155.867C143.457 156.762 143.581 157.703 144.014 158.514C144.479 159.302 145.219 159.891 146.092 160.168C146.965 160.445 147.909 160.39 148.744 160.014C149.384 159.824 149.934 159.554 150.644 159.254ZM116.794 157.344C117.134 157.983 117.507 158.604 117.914 159.204C118.551 160.198 119.445 161.001 120.501 161.529C121.557 162.057 122.736 162.29 123.914 162.204C126.457 161.977 128.884 161.034 130.914 159.484C131.347 159.157 131.731 158.77 132.054 158.334C132.529 157.72 132.802 156.974 132.835 156.198C132.867 155.422 132.657 154.655 132.233 154.004C131.771 153.318 131.079 152.819 130.283 152.595C129.486 152.372 128.636 152.439 127.884 152.784C126.574 153.304 125.334 153.974 124.064 154.574C123.84 154.292 123.643 153.991 123.473 153.674C122.789 151.313 122.639 148.83 123.034 146.404C123.172 145.69 123.147 144.955 122.962 144.252C122.776 143.549 122.435 142.897 121.963 142.344C121.148 141.493 120.28 140.695 119.364 139.954C117.657 138.579 115.555 137.789 113.366 137.699C111.177 137.609 109.017 138.224 107.203 139.454C104.946 141.141 103.298 143.517 102.508 146.222C101.718 148.928 101.829 151.817 102.824 154.454C103.481 156.314 104.825 157.851 106.581 158.749C108.337 159.648 110.371 159.839 112.264 159.284C113.82 158.751 115.334 158.102 116.794 157.344V157.344ZM129.794 113.264C130.781 112.957 131.72 112.513 132.583 111.944C133.094 111.551 133.461 111.002 133.629 110.381C133.797 109.759 133.757 109.1 133.514 108.504C133.275 107.765 132.826 107.112 132.223 106.623C131.619 106.135 130.886 105.833 130.114 105.754C127.324 105.354 124.534 105.024 121.754 104.664C109.174 103.024 96.5935 101.384 84.0135 99.744C81.8665 99.4263 79.7029 99.2327 77.5336 99.1639C76.6574 99.1481 75.8066 99.4587 75.1467 100.035C74.4869 100.612 74.0651 101.414 73.9635 102.284C73.8717 103.148 74.0911 104.016 74.5824 104.733C75.0737 105.45 75.8045 105.968 76.6435 106.194C77.2437 106.401 77.8637 106.545 78.4935 106.624C85.7735 107.624 93.0536 108.494 100.324 109.434C106.324 110.224 112.324 111.044 118.324 111.824C122.014 112.294 125.574 112.734 129.824 113.264H129.794ZM193.733 168.854C194.073 169.304 194.313 169.564 194.503 169.854C195.507 171.482 196.882 172.849 198.516 173.843C200.15 174.837 201.996 175.431 203.904 175.574C207.453 175.914 211.015 175.059 214.024 173.144C214.924 172.746 215.629 172.007 215.985 171.089C216.34 170.171 216.316 169.149 215.919 168.249C215.521 167.349 214.781 166.643 213.863 166.288C212.945 165.932 211.924 165.956 211.024 166.354C210.414 166.532 209.826 166.78 209.274 167.094C207.639 167.925 205.778 168.199 203.973 167.874C203.03 167.726 202.16 167.275 201.494 166.59C200.829 165.904 200.404 165.022 200.284 164.074C200.201 163.392 200.309 162.701 200.595 162.076C200.881 161.451 201.334 160.918 201.904 160.534C203.074 159.724 204.154 160.354 205.174 160.984C205.474 161.174 205.734 161.444 206.034 161.644C207.884 162.874 209.684 162.794 211.034 161.454C211.686 160.745 212.048 159.817 212.048 158.854C212.048 157.891 211.686 156.963 211.034 156.254C208.174 152.794 200.484 150.184 196.034 155.904C194.367 158.196 192.313 160.18 189.963 161.764C188.753 162.524 187.534 163.274 186.314 164.014C185.746 164.317 185.195 164.651 184.664 165.014C184.134 165.373 183.717 165.874 183.459 166.46C183.201 167.045 183.113 167.691 183.204 168.324C183.296 168.957 183.564 169.552 183.978 170.04C184.391 170.528 184.934 170.89 185.544 171.084C186.741 171.414 188.008 171.393 189.194 171.024C190.77 170.418 192.297 169.692 193.764 168.854H193.733Z" fill="#979FBB"/>
<path d="M233.495 205.694C233.135 208.064 232.825 210.114 232.495 212.544C212.495 209.844 192.685 206.544 172.835 203.674C152.985 200.804 132.895 197.674 112.915 194.674C92.9349 191.674 73.1748 188.754 52.9648 185.744C53.2448 183.324 53.4949 181.114 53.7749 178.744L233.495 205.694Z" fill="#F6F6F9"/>
<path d="M71.7734 170.355L91.6334 173.225L91.2634 176.595C84.6334 176.105 78.2634 174.815 71.5234 173.935C71.6134 172.705 71.6834 171.625 71.7734 170.355Z" fill="#EFEFF3"/>
<path d="M150.644 159.254C149.934 159.554 149.384 159.824 148.804 160.024C147.969 160.4 147.025 160.455 146.152 160.178C145.28 159.901 144.54 159.312 144.074 158.524C143.641 157.713 143.517 156.772 143.725 155.877C143.933 154.982 144.458 154.192 145.204 153.654C146.493 152.651 147.854 151.741 149.274 150.934C149.9 150.605 150.428 150.117 150.804 149.518C151.18 148.919 151.391 148.231 151.414 147.524C151.934 143.674 152.744 139.854 153.604 136.064C154.097 133.731 155.278 131.599 156.994 129.944C158.378 128.612 160.172 127.788 162.085 127.606C163.997 127.425 165.914 127.896 167.524 128.944C170.374 130.674 171.524 134.034 170.524 137.784C169.244 142.364 166.524 146.094 163.354 149.504C162.424 150.504 161.354 151.324 160.354 152.284C159.614 153.004 158.224 153.284 158.354 154.604C158.453 156.576 158.673 158.539 159.014 160.484C159.204 161.484 160.264 161.364 161.084 161.244C163.004 160.954 164.854 158.764 165.084 156.594C165.404 152.954 166.084 152.314 169.484 151.594C170.866 151.235 172.207 150.733 173.484 150.094C176.204 148.824 178.394 149.204 179.414 151.214C180.434 153.224 179.504 155.284 176.924 156.784C176.774 156.885 176.613 156.969 176.444 157.034C173.704 157.934 172.204 159.834 170.854 162.414C169.867 164.537 168.25 166.304 166.223 167.475C164.195 168.645 161.856 169.162 159.524 168.954C155.594 168.694 153.024 166.424 151.764 162.704C151.334 161.624 151.014 160.484 150.644 159.254ZM160.324 141.254C161.754 139.514 163.094 137.744 162.914 135.254C160.594 136.624 160.754 139.034 160.324 141.214V141.254Z" fill="#3558A2"/>
<path d="M116.793 157.343C115.353 158.095 113.859 158.74 112.323 159.273C110.431 159.829 108.397 159.637 106.641 158.739C104.885 157.84 103.54 156.303 102.883 154.443C101.889 151.806 101.778 148.917 102.568 146.212C103.358 143.506 105.006 141.131 107.263 139.443C109.077 138.213 111.237 137.598 113.426 137.688C115.615 137.778 117.717 138.569 119.423 139.943C120.339 140.684 121.208 141.483 122.023 142.333C122.495 142.886 122.836 143.538 123.021 144.241C123.207 144.944 123.231 145.68 123.093 146.393C122.698 148.819 122.849 151.303 123.533 153.663C123.703 153.98 123.9 154.282 124.123 154.563C125.393 153.963 126.633 153.293 127.943 152.773C128.695 152.428 129.546 152.361 130.342 152.585C131.139 152.808 131.831 153.307 132.293 153.993C132.717 154.644 132.927 155.411 132.894 156.187C132.862 156.963 132.589 157.71 132.113 158.323C131.79 158.759 131.407 159.147 130.973 159.473C128.944 161.023 126.517 161.966 123.973 162.193C122.796 162.28 121.617 162.046 120.561 161.518C119.505 160.99 118.611 160.187 117.973 159.193C117.547 158.598 117.153 157.981 116.793 157.343V157.343ZM114.793 146.003C112.513 144.933 111.573 145.113 110.453 146.683C109.093 148.583 109.103 150.393 110.663 152.103C112.387 150.318 113.8 148.256 114.843 146.003H114.793Z" fill="#3558A2"/>
<path d="M129.824 113.265C125.574 112.735 121.984 112.265 118.394 111.825C112.394 111.045 106.394 110.225 100.394 109.435C93.1241 108.495 85.8441 107.575 78.5641 106.625C77.9343 106.546 77.3142 106.401 76.714 106.195C75.875 105.969 75.1443 105.451 74.653 104.734C74.1617 104.017 73.9423 103.149 74.0341 102.285C74.1358 101.414 74.5575 100.613 75.2173 100.036C75.8772 99.4594 76.7279 99.1488 77.6041 99.1646C79.7734 99.2334 81.937 99.427 84.084 99.7447C96.664 101.365 109.244 103.005 121.824 104.665C124.604 105.025 127.394 105.355 130.184 105.755C130.957 105.833 131.689 106.136 132.293 106.624C132.897 107.112 133.345 107.766 133.584 108.505C133.827 109.101 133.868 109.76 133.7 110.382C133.532 111.003 133.164 111.552 132.654 111.945C131.778 112.517 130.825 112.961 129.824 113.265V113.265Z" fill="#3558A2"/>
<path d="M193.764 168.855C192.277 169.682 190.729 170.395 189.134 170.985C187.948 171.355 186.681 171.375 185.484 171.045C184.874 170.851 184.332 170.489 183.918 170.001C183.504 169.513 183.236 168.919 183.145 168.285C183.053 167.652 183.141 167.006 183.399 166.421C183.657 165.835 184.075 165.334 184.604 164.975C185.135 164.612 185.686 164.278 186.254 163.975C187.474 163.235 188.694 162.485 189.904 161.725C192.253 160.141 194.308 158.157 195.974 155.865C200.454 150.145 208.144 152.755 210.974 156.215C211.626 156.924 211.988 157.852 211.988 158.815C211.988 159.778 211.626 160.706 210.974 161.415C209.674 162.755 207.874 162.835 205.974 161.605C205.674 161.405 205.414 161.135 205.114 160.945C204.114 160.315 203.014 159.685 201.844 160.495C201.274 160.879 200.821 161.412 200.535 162.037C200.249 162.662 200.142 163.353 200.224 164.035C200.344 164.983 200.769 165.866 201.435 166.551C202.1 167.236 202.97 167.687 203.914 167.835C205.718 168.161 207.58 167.887 209.214 167.055C209.766 166.742 210.354 166.493 210.964 166.315C211.41 166.118 211.89 166.011 212.377 166C212.864 165.988 213.349 166.073 213.804 166.249C214.258 166.425 214.674 166.689 215.026 167.025C215.379 167.362 215.662 167.764 215.859 168.21C216.056 168.656 216.163 169.136 216.174 169.624C216.186 170.111 216.101 170.596 215.925 171.05C215.749 171.505 215.485 171.92 215.149 172.273C214.812 172.625 214.41 172.908 213.964 173.105C210.955 175.02 207.394 175.876 203.844 175.535C201.937 175.392 200.091 174.799 198.457 173.804C196.823 172.81 195.448 171.443 194.444 169.815C194.344 169.565 194.104 169.305 193.764 168.855Z" fill="#3558A2"/>
<path d="M160.324 141.215C160.754 139.035 160.594 136.605 162.914 135.215C163.094 137.705 161.754 139.475 160.324 141.215Z" fill="#979FBB"/>
<path d="M114.843 146.004C113.815 148.253 112.42 150.315 110.713 152.105C109.153 150.395 109.143 148.585 110.503 146.684C111.623 145.114 112.563 144.934 114.843 146.004Z" fill="#979FBB"/>
</svg>
