<svg width="300" height="300" viewBox="0 0 300 300" fill="none" xmlns="http://www.w3.org/2000/svg">
<path d="M208.115 215.65C209.343 217.025 210.834 218.142 212.5 218.934C214.165 219.725 215.973 220.176 217.815 220.26C221.977 220.386 226.143 220.293 230.295 219.98C237.725 219.52 245.145 218.86 252.575 218.36C259.575 217.9 266.575 217.55 273.505 217.11C274.865 217.03 276.205 216.7 277.505 216.58C279.625 216.4 280.965 217.31 281.395 219.14C281.825 220.97 280.815 222.589 278.755 223.249C278.063 223.461 277.348 223.589 276.625 223.629C267.205 224.229 257.775 224.76 248.355 225.4C240.665 225.93 232.985 226.679 225.285 227.119C222.028 227.34 218.757 227.219 215.525 226.759C210.315 226.129 205.567 223.457 202.325 219.33C201.245 217.94 200.235 217.77 198.625 218.33C189.015 221.33 179.365 224.26 169.755 227.259C167.432 228.019 164.967 228.245 162.545 227.92C155.085 226.92 147.545 226.18 140.105 225.33L84.3852 218.999C73.7452 217.799 63.1051 216.65 52.4651 215.45C44.0784 214.51 35.6951 213.546 27.3151 212.56C26.2404 212.385 25.1783 212.141 24.1352 211.83C21.2052 211.06 20.6351 210.45 20.3751 207.37C20.1151 204.29 19.8951 201.03 19.7251 197.86C19.1251 186.62 18.5518 175.376 18.0052 164.13C17.969 162.689 18.1236 161.25 18.4651 159.85C18.9151 157.79 20.1051 156.63 22.2351 155.71C24.9349 154.666 27.7473 153.941 30.6151 153.55C45.0018 151.003 59.3951 148.49 73.7951 146.01C82.4751 144.52 91.1751 143.14 99.7951 141.64C101.005 141.43 102.125 140.74 103.335 140.43C104.523 140.056 105.76 139.861 107.005 139.85C115.345 140.4 123.665 141.05 132.005 141.67L159.165 143.67L196.915 146.53L230.585 149.07C232.935 149.24 235.295 149.43 237.645 149.63C239.295 149.77 240.645 150.35 241.185 152.09C241.665 153.67 241.185 154.72 239.345 156.09C238.958 156.339 238.641 156.683 238.425 157.09C237.175 160.2 235.665 163.21 235.655 166.7C235.645 170.19 235.225 173.94 235.355 177.55C235.628 182.921 236.989 188.18 239.355 193.01C239.588 193.691 239.983 194.306 240.506 194.803C241.028 195.299 241.662 195.661 242.355 195.86C243.648 196.281 244.852 196.939 245.905 197.8C248.245 199.49 248.085 202.57 245.425 203.68C241.995 205.1 238.425 206.16 234.865 207.26C226.715 209.78 218.545 212.26 210.385 214.71C209.795 214.88 209.155 215.22 208.115 215.65ZM24.1151 163C24.1151 164.46 24.0651 165.53 24.1151 166.59C24.7818 178.823 25.4318 191.056 26.0651 203.29C26.1851 205.44 26.2952 205.58 28.3952 205.83L49.4851 208.23L84.9051 212.28L117.085 215.89L156.835 220.41C157.605 220.49 158.395 220.41 159.285 220.41C159.346 219.888 159.373 219.364 159.365 218.84C158.465 206.26 157.585 193.68 156.615 181.1C156.315 177.25 157.075 177.4 152.315 176.87C141.395 175.67 130.475 174.54 119.555 173.34C101.695 171.393 83.8318 169.426 65.9651 167.44L28.0751 163.27C26.9251 163.16 25.7151 163.11 24.1151 163V163ZM45.6751 157.71V158.24C46.6751 158.42 47.7352 158.67 48.7752 158.78C64.4752 160.49 80.1751 162.16 95.8751 163.88C113.822 165.84 131.765 167.84 149.705 169.88C153.385 170.3 157.165 170.14 160.705 171.79C161.315 171.935 161.955 171.886 162.535 171.65C165.535 170.87 168.535 170.05 171.455 169.21C186.555 164.943 201.652 160.666 216.745 156.38C217.575 156.15 218.375 155.82 219.185 155.53C217.605 154.971 215.95 154.651 214.275 154.58C207.585 154.07 200.885 153.58 194.185 153.1C175.905 151.72 157.628 150.326 139.355 148.92C131.035 148.29 122.705 147.61 114.355 147.01C112.461 146.79 110.549 146.79 108.655 147.01C99.7851 148.42 90.9451 150.01 82.0951 151.51L54.7151 156.14C51.7151 156.65 48.7151 157.19 45.7151 157.71H45.6751ZM230.765 159.49C229.995 159.63 229.395 159.7 228.825 159.86C211.895 164.64 194.975 169.5 178.015 174.18C175.235 174.94 173.265 176.06 172.815 179.06C172.815 179.32 172.815 179.58 172.745 180.19C175.135 181.05 177.585 181.94 180.045 182.79C186.291 184.869 191.738 188.834 195.635 194.14C198.583 198.282 201.131 202.695 203.245 207.32C203.555 207.96 203.925 208.56 204.395 209.41L236.115 199.71C228.775 186.92 228.115 173.52 230.765 159.49V159.49ZM169.395 186.56C169.127 187.088 168.89 187.633 168.685 188.19C167.354 192.629 166.899 197.286 167.345 201.9C167.865 207.19 169.235 212.22 172.585 216.53C173.695 217.95 174.815 218.53 176.755 217.94C183.035 215.89 189.385 214.04 195.695 212.09C196.237 211.876 196.759 211.615 197.255 211.31C195.458 204.955 191.88 199.248 186.943 194.862C182.006 190.476 175.917 187.595 169.395 186.56V186.56Z" fill="#3558A2"/>
<path d="M24.1135 163C25.7535 163.11 26.9235 163.16 28.1135 163.28L66.0035 167.45C83.8635 169.45 101.727 171.417 119.593 173.35C130.513 174.55 141.433 175.68 152.353 176.88C157.113 177.41 156.353 177.26 156.653 181.11C157.653 193.69 158.503 206.27 159.403 218.85C159.411 219.375 159.384 219.899 159.323 220.42C158.433 220.42 157.644 220.49 156.874 220.42L117.124 215.9L84.9435 212.29L49.5235 208.24L28.4335 205.84C26.3335 205.59 26.2235 205.45 26.1035 203.3C25.4368 191.067 24.7868 178.833 24.1534 166.6C24.0634 165.53 24.1135 164.46 24.1135 163ZM42.1935 173.36V173.27C41.1935 173.27 40.1935 173.2 39.1935 173.27C38.503 173.267 37.8353 173.516 37.3159 173.971C36.7965 174.426 36.4613 175.055 36.3735 175.74C36.2051 176.457 36.294 177.211 36.6249 177.869C36.9557 178.527 37.5074 179.048 38.1834 179.34C39.0254 179.675 39.9111 179.887 40.8135 179.97C53.7935 181.41 66.7935 182.833 79.8135 184.24C96.6868 186.053 113.557 187.843 130.423 189.61C133.483 189.94 136.554 190.31 139.634 190.52C140.043 190.589 140.462 190.573 140.865 190.472C141.268 190.37 141.646 190.186 141.974 189.932C142.302 189.677 142.573 189.357 142.771 188.992C142.969 188.626 143.089 188.224 143.123 187.81C143.262 186.949 143.063 186.068 142.567 185.35C142.072 184.633 141.318 184.135 140.463 183.96C139.93 183.845 139.388 183.774 138.843 183.75C131.083 182.89 123.327 182.04 115.573 181.2C104.023 179.96 92.4734 178.77 80.9234 177.53C68.0034 176.163 55.0935 174.773 42.1935 173.36ZM42.6135 191.42C41.2435 191.33 39.8435 191.05 38.7535 192.19C38.2754 192.618 37.9382 193.18 37.7865 193.803C37.6347 194.426 37.6754 195.081 37.9034 195.68C38.5034 197.36 39.8235 197.95 41.4835 198.13C54.2902 199.503 67.0968 200.883 79.9034 202.27C96.8634 204.077 113.823 205.867 130.783 207.64C133.403 207.92 136.014 208.25 138.644 208.35C139.03 208.393 139.421 208.358 139.795 208.248C140.168 208.138 140.515 207.955 140.817 207.709C141.119 207.464 141.368 207.16 141.551 206.817C141.734 206.474 141.847 206.097 141.884 205.71C141.991 204.939 141.834 204.154 141.438 203.484C141.042 202.814 140.431 202.298 139.703 202.02C138.935 201.747 138.136 201.572 137.323 201.5C129.99 200.72 122.68 199.953 115.394 199.2C103.934 198.01 92.4735 196.84 81.0235 195.61C68.2169 194.237 55.4135 192.84 42.6135 191.42V191.42Z" fill="#EAECF1"/>
<path d="M45.7144 157.712C48.7144 157.192 51.7144 156.652 54.7144 156.142L82.0743 151.472C90.9243 149.962 99.7644 148.382 108.634 146.972C110.528 146.752 112.441 146.752 114.334 146.972C122.654 147.572 130.984 148.252 139.334 148.882C157.614 150.282 175.891 151.675 194.164 153.062C200.864 153.572 207.564 154.062 214.254 154.542C215.929 154.613 217.584 154.933 219.164 155.492C218.354 155.782 217.554 156.112 216.724 156.342C201.638 160.635 186.541 164.912 171.434 169.172C168.434 170.012 165.494 170.832 162.514 171.612C161.934 171.848 161.294 171.897 160.684 171.752C157.194 170.102 153.414 170.262 149.684 169.842C131.744 167.795 113.801 165.795 95.8544 163.842C80.1544 162.122 64.4544 160.452 48.7544 158.742C47.7544 158.632 46.6843 158.382 45.6543 158.202L45.7144 157.712Z" fill="#979FBB"/>
<path d="M230.764 159.49C228.114 173.49 228.764 186.92 236.114 199.71L204.394 209.41C203.924 208.56 203.554 207.96 203.244 207.32C201.13 202.696 198.582 198.283 195.634 194.14C191.731 188.85 186.285 184.899 180.044 182.83C177.584 181.98 175.134 181.09 172.744 180.23C172.744 179.62 172.744 179.36 172.814 179.1C173.264 176.1 175.234 174.98 178.014 174.22C195.014 169.54 211.894 164.68 228.824 159.9C229.394 159.7 229.994 159.63 230.764 159.49Z" fill="white"/>
<path d="M169.394 186.561C175.916 187.596 182.005 190.477 186.942 194.863C191.879 199.249 195.457 204.956 197.254 211.311C196.758 211.616 196.236 211.877 195.694 212.091C189.384 214.091 183.034 215.891 176.754 217.941C174.814 218.581 173.694 217.941 172.584 216.531C169.234 212.221 167.864 207.191 167.344 201.901C166.898 197.287 167.353 192.63 168.684 188.191C168.888 187.634 169.125 187.089 169.394 186.561V186.561Z" fill="white"/>
<path d="M42.1949 173.36C55.0949 174.753 67.995 176.15 80.895 177.55C92.445 178.79 103.995 179.98 115.545 181.22C123.305 182.053 131.062 182.903 138.815 183.77C139.36 183.794 139.902 183.865 140.435 183.98C141.289 184.155 142.043 184.653 142.539 185.37C143.035 186.088 143.234 186.969 143.095 187.83C143.061 188.244 142.941 188.646 142.743 189.012C142.545 189.377 142.273 189.697 141.945 189.952C141.617 190.206 141.24 190.39 140.837 190.492C140.434 190.593 140.015 190.609 139.605 190.54C136.525 190.33 133.455 189.96 130.395 189.63C113.522 187.85 96.6516 186.06 79.7849 184.26C66.7982 182.86 53.7982 181.437 40.7849 179.99C39.8826 179.907 38.9968 179.695 38.1549 179.36C37.4789 179.068 36.9272 178.547 36.5963 177.889C36.2654 177.231 36.1765 176.477 36.345 175.76C36.4328 175.075 36.768 174.446 37.2873 173.991C37.8067 173.536 38.4745 173.287 39.1649 173.29C40.1649 173.2 41.1649 173.29 42.1649 173.29L42.1949 173.36Z" fill="#3558A2"/>
<path d="M42.6144 191.421C55.4144 192.821 68.2177 194.217 81.0244 195.611C92.4744 196.841 103.934 198.011 115.394 199.201C122.728 199.961 130.038 200.727 137.324 201.501C138.136 201.573 138.936 201.748 139.704 202.021C140.432 202.298 141.043 202.815 141.439 203.485C141.835 204.155 141.992 204.94 141.884 205.711C141.848 206.098 141.735 206.474 141.552 206.818C141.369 207.161 141.119 207.464 140.818 207.71C140.516 207.956 140.169 208.139 139.796 208.249C139.422 208.359 139.031 208.394 138.644 208.351C136.014 208.251 133.404 207.921 130.784 207.641C113.824 205.861 96.8643 204.071 79.9043 202.271C67.0976 200.897 54.291 199.517 41.4843 198.131C39.8243 197.951 38.4843 197.361 37.9043 195.681C37.6763 195.081 37.6356 194.427 37.7873 193.804C37.9391 193.181 38.2763 192.618 38.7544 192.191C39.8444 191.051 41.2444 191.331 42.6144 191.421Z" fill="#3558A2"/>
</svg>
