<svg width="300" height="300" viewBox="0 0 300 300" fill="none" xmlns="http://www.w3.org/2000/svg">
<path d="M85.1191 76.6768C87.4691 74.4568 89.5291 72.4068 91.6991 70.4868C100.469 62.7368 111.029 58.8568 122.259 56.4868C130.441 54.8154 138.76 53.9081 147.109 53.7768C147.739 53.7768 148.369 53.6968 149.269 53.6368C149.799 51.3868 150.389 49.1168 150.869 46.8268C151.349 44.5368 152.449 42.8268 154.869 42.1568C157.289 41.4868 158.499 41.8068 159.919 43.6168C160.517 44.4171 161.061 45.2555 161.549 46.1268C175.183 68.7401 188.806 91.3568 202.419 113.977C204.819 117.977 204.819 122.397 204.419 126.847C203.753 135.26 203.086 143.67 202.419 152.077C201.769 160.077 201.089 167.997 200.419 175.947C199.979 181.287 199.599 186.627 199.169 191.947C198.503 200.18 197.836 208.407 197.169 216.627C196.749 221.88 196.336 227.127 195.929 232.367C195.349 239.877 194.789 247.367 194.189 254.897C194.19 256.136 193.77 257.338 192.998 258.307C192.226 259.275 191.147 259.952 189.939 260.227C180.519 262.867 171.119 265.577 161.699 268.227C159.857 268.774 157.885 268.686 156.099 267.977C148.099 264.817 140.029 261.797 132.029 258.617C104.243 247.57 76.4591 236.49 48.6791 225.377C47.8391 225.037 46.9991 224.697 46.1891 224.297C43.5491 222.987 42.6491 221.217 43.1191 218.297C46.5125 197.457 49.9025 176.617 53.2892 155.777C56.3492 136.997 59.4191 118.22 62.4991 99.4468C63.8791 91.0368 65.4191 82.6568 66.6291 74.2268C67.1691 70.5168 70.4491 69.0268 73.6291 70.9668C77.1591 73.1968 81.1591 74.7668 85.1191 76.6768ZM166.889 123.947C162.309 121.087 75.6492 80.6868 73.5492 80.4768C66.0558 126.29 58.5624 172.12 51.0691 217.967L154.569 259.147C158.699 213.837 162.789 168.957 166.889 123.947ZM162.349 260.077C170.349 257.797 177.639 255.697 184.949 253.637C186.259 253.267 186.529 252.337 186.609 251.167C186.989 245.834 187.386 240.5 187.799 235.167C188.213 229.834 188.629 224.587 189.049 219.427C189.709 211.287 190.389 203.147 191.049 195.007C191.669 187.317 192.249 179.627 192.859 171.937C193.526 163.617 194.192 155.283 194.859 146.937C195.329 141.237 195.859 135.537 196.289 129.847C196.399 128.487 196.439 127.127 196.529 125.767C196.619 124.407 196.719 123.157 196.839 121.627L174.689 124.577C170.569 169.727 166.489 214.577 162.349 260.077V260.077ZM115.479 65.9768V66.7868L181.069 115.087C180.599 113.954 179.92 112.92 179.069 112.037C165.989 96.8468 152.789 81.7568 139.899 66.4068C137.189 63.1968 134.719 61.7668 130.549 62.8568C125.619 64.1668 120.519 64.9668 115.479 65.9768V65.9768ZM106.479 69.8468C101.472 72.4779 96.9592 75.9559 93.1391 80.1268C98.3891 83.3568 165.039 114.347 166.959 114.407C146.829 99.5768 126.829 84.8368 106.489 69.8468H106.479ZM146.369 61.7568C147.059 62.6568 147.449 63.2468 147.909 63.7568C158.969 76.6102 170.036 89.4568 181.109 102.297L190.339 113.007C191.029 113.807 191.699 114.707 192.969 113.867C192.893 113.579 192.793 113.298 192.669 113.027C182.716 96.4868 172.769 79.9535 162.829 63.4268C162.596 62.9429 162.229 62.536 161.772 62.2542C161.315 61.9724 160.786 61.8276 160.249 61.8368C157.529 61.7768 154.809 61.5268 152.099 61.4768C150.319 61.4668 148.529 61.6468 146.379 61.7568H146.369Z" fill="#3558A2"/>
<path d="M257.397 74.3785C257.287 75.1794 257.011 75.9486 256.587 76.6372C256.164 77.3258 255.602 77.9188 254.937 78.3785C252.229 80.5106 249.632 82.7802 247.157 85.1786C241.66 90.751 237.461 97.4672 234.857 104.849C233.857 107.659 232.857 110.489 231.857 113.299C231.591 114.064 231.257 114.804 230.857 115.509C230.481 116.194 229.896 116.742 229.188 117.073C228.479 117.404 227.684 117.5 226.917 117.349C226.184 117.274 225.493 116.975 224.938 116.491C224.383 116.008 223.991 115.364 223.817 114.649C223.515 113.332 223.308 111.995 223.197 110.649C222.327 102.919 221.857 95.1286 219.447 87.6486C217.837 82.6486 214.447 79.1685 210.107 76.4185C209.577 76.0785 208.947 75.8885 208.407 75.5685C207.877 75.306 207.415 74.9254 207.056 74.456C206.697 73.9866 206.45 73.4411 206.335 72.8614C206.22 72.2817 206.24 71.6833 206.393 71.1124C206.546 70.5415 206.828 70.0133 207.217 69.5685C208.072 68.525 209.084 67.6208 210.217 66.8885C219.217 61.1185 224.317 52.7886 226.377 42.4286C226.817 40.2086 227.437 38.0286 228.077 35.8686C228.337 34.6995 229.012 33.6646 229.978 32.9564C230.944 32.2482 232.134 31.9149 233.327 32.0185C234.427 32.0267 235.489 32.422 236.326 33.1352C237.164 33.8484 237.724 34.8339 237.907 35.9185C238.687 38.9785 239.157 42.1285 240.047 45.1585C241.147 48.8885 242.497 52.5385 243.827 56.1585C245.957 61.9685 249.827 66.4185 254.727 70.1085C255.466 70.5722 256.09 71.1973 256.552 71.9369C257.015 72.6765 257.304 73.5113 257.397 74.3785ZM247.047 73.9185C239.287 67.6985 236.047 58.6385 232.867 49.4485C230.232 58.3191 224.776 66.0884 217.327 71.5785C220.887 74.9685 224.327 78.1985 225.937 82.5785C227.547 86.9585 228.477 91.5186 229.707 95.9986C232.217 92.1586 234.487 88.1385 237.307 84.5385C240.127 80.9385 243.637 77.5785 247.047 73.9185V73.9185Z" fill="#3558A2"/>
<path d="M166.888 123.949C162.788 168.948 158.698 213.838 154.568 259.148L51.0684 217.969C58.5684 172.122 66.0618 126.292 73.5485 80.4785C75.6485 80.6885 162.308 121.089 166.888 123.949ZM144.238 149.158C143.738 148.264 143.148 147.424 142.478 146.649C141.777 146.076 140.977 145.636 140.118 145.348C123.265 137.588 106.405 129.838 89.5385 122.099C88.6447 121.663 87.7056 121.328 86.7384 121.099C85.8905 120.899 84.9994 121.008 84.2245 121.406C83.4496 121.804 82.8413 122.464 82.5084 123.269C82.1728 124.022 82.1038 124.867 82.3129 125.665C82.5219 126.463 82.9965 127.166 83.6584 127.658C84.4533 128.255 85.3159 128.755 86.2284 129.149C103.248 136.989 120.272 144.809 137.298 152.609C138.44 153.137 139.68 153.419 140.938 153.438C142.898 153.438 144.248 151.798 144.238 149.158ZM137.988 166.888C137.563 166.033 137.032 165.233 136.408 164.508C135.653 163.858 134.785 163.35 133.848 163.008C117.668 155.895 101.478 148.802 85.2784 141.729C84.4623 141.337 83.5982 141.055 82.7084 140.889C81.8493 140.734 80.9631 140.881 80.2002 141.305C79.4373 141.729 78.8448 142.404 78.5232 143.216C78.2016 144.028 78.1708 144.925 78.436 145.757C78.7013 146.589 79.2463 147.303 79.9784 147.779C80.7325 148.281 81.5368 148.703 82.3784 149.038C98.4784 156.105 114.585 163.162 130.698 170.209C131.592 170.648 132.541 170.968 133.518 171.158C135.908 171.518 137.928 169.808 137.988 166.888ZM105.858 220.118C104.855 220.604 103.936 221.249 103.138 222.029C102.188 223.248 102.438 224.778 103.138 226.148C104.063 227.602 105.485 228.668 107.138 229.148C112.598 231.302 118.068 233.435 123.548 235.548C124.3 235.854 125.098 236.029 125.908 236.068C126.777 236.119 127.637 235.867 128.342 235.357C129.047 234.847 129.554 234.109 129.778 233.268C130.013 232.478 129.971 231.632 129.66 230.869C129.349 230.105 128.788 229.47 128.068 229.068C127.287 228.623 126.467 228.248 125.618 227.948L108.058 220.788C107.498 220.578 106.888 220.448 105.828 220.118H105.858Z" fill="#EAECF1"/>
<path d="M162.348 260.078C166.488 214.598 170.568 169.728 174.688 124.578L196.858 121.648C196.738 123.178 196.628 124.478 196.548 125.788C196.468 127.098 196.418 128.508 196.308 129.868C195.838 135.558 195.308 141.258 194.878 146.958C194.211 155.278 193.544 163.612 192.878 171.958C192.268 179.648 191.688 187.338 191.068 195.028C190.418 203.168 189.738 211.308 189.068 219.448C188.641 224.688 188.224 229.935 187.818 235.188C187.411 240.442 187.014 245.775 186.628 251.188C186.548 252.358 186.278 253.288 184.968 253.658C177.638 255.698 170.338 257.798 162.348 260.078Z" fill="#979FBB"/>
<path d="M115.479 65.9776C120.479 64.9776 125.619 64.1676 130.589 62.8576C134.759 61.7676 137.228 63.1976 139.938 66.4076C152.828 81.7576 166.029 96.8476 179.109 112.038C179.96 112.921 180.638 113.955 181.109 115.088L115.519 66.7876L115.479 65.9776Z" fill="white"/>
<path d="M106.488 69.8477C126.828 84.8477 146.828 99.5577 166.968 114.408C165.048 114.348 98.3984 83.3577 93.1484 80.1277C96.9685 75.9568 101.482 72.4788 106.488 69.8477V69.8477Z" fill="white"/>
<path d="M146.379 61.7574C148.529 61.6474 150.319 61.4675 152.109 61.4975C154.819 61.5475 157.539 61.7975 160.259 61.8575C160.796 61.8482 161.324 61.993 161.782 62.2748C162.239 62.5566 162.606 62.9636 162.839 63.4474C172.766 79.9874 182.712 96.5208 192.679 113.047C192.802 113.318 192.903 113.599 192.979 113.887C191.709 114.727 191.039 113.827 190.349 113.027L181.119 102.317C170.046 89.4641 158.979 76.6175 147.919 63.7775C147.459 63.2475 147.069 62.6574 146.379 61.7574Z" fill="white"/>
<path d="M247.048 73.9185C243.638 77.5885 240.208 80.8485 237.308 84.5285C234.408 88.2085 232.218 92.1485 229.708 95.9885C228.478 91.5085 227.498 86.9385 225.938 82.5685C224.378 78.1985 220.938 74.9285 217.328 71.5685C224.77 66.0887 230.225 58.3344 232.868 49.4785C236.078 58.6385 239.288 67.6985 247.048 73.9185Z" fill="white"/>
<path d="M144.237 149.157C144.237 151.797 142.897 153.437 140.937 153.447C139.679 153.428 138.439 153.145 137.297 152.617C120.257 144.824 103.234 137.004 86.2274 129.157C85.3149 128.763 84.4522 128.263 83.6574 127.667C82.9955 127.175 82.5209 126.472 82.3119 125.674C82.1028 124.876 82.1718 124.03 82.5074 123.277C82.8403 122.472 83.4486 121.812 84.2235 121.414C84.9984 121.017 85.8895 120.908 86.7374 121.107C87.7046 121.336 88.6437 121.672 89.5374 122.107C106.411 129.847 123.271 137.597 140.117 145.357C140.976 145.644 141.776 146.085 142.477 146.657C143.147 147.429 143.737 148.266 144.237 149.157V149.157Z" fill="#3558A2"/>
<path d="M137.989 166.888C137.989 169.808 135.989 171.518 133.519 171.158C132.541 170.967 131.593 170.648 130.699 170.208C114.586 163.168 98.4789 156.112 82.3789 149.038C81.5373 148.703 80.733 148.28 79.9789 147.778C79.2468 147.303 78.7018 146.588 78.4365 145.757C78.1712 144.925 78.2021 144.027 78.5237 143.216C78.8452 142.404 79.4378 141.729 80.2007 141.305C80.9636 140.88 81.8498 140.733 82.7089 140.888C83.5987 141.054 84.4628 141.337 85.2789 141.728C101.479 148.808 117.669 155.902 133.849 163.008C134.786 163.35 135.653 163.858 136.409 164.508C137.033 165.233 137.563 166.032 137.989 166.888V166.888Z" fill="#3558A2"/>
<path d="M105.828 220.119C106.888 220.449 107.498 220.599 108.078 220.829L125.638 227.989C126.487 228.289 127.307 228.664 128.088 229.109C128.808 229.511 129.369 230.146 129.68 230.909C129.991 231.673 130.033 232.519 129.799 233.309C129.574 234.15 129.067 234.888 128.362 235.398C127.657 235.908 126.797 236.159 125.928 236.109C125.118 236.07 124.32 235.894 123.568 235.589C118.088 233.482 112.619 231.349 107.159 229.189C105.505 228.709 104.083 227.642 103.159 226.189C102.429 224.819 102.159 223.289 103.159 222.069C103.938 221.28 104.84 220.622 105.828 220.119V220.119Z" fill="#3558A2"/>
</svg>
