<svg width="300" height="300" viewBox="0 0 300 300" fill="none" xmlns="http://www.w3.org/2000/svg">
<path d="M82.9913 166.196C83.2913 161.606 83.5613 157.486 83.8413 153.116C80.8413 155.376 78.1713 157.526 75.3413 159.436C73.5565 160.672 71.6335 161.696 69.6113 162.486C66.7513 163.566 64.6113 162.416 63.6113 159.486C61.5651 153.574 60.4156 147.389 60.2013 141.136C60.2769 136.876 60.9501 132.648 62.2013 128.576C63.0566 125.689 64.5696 123.04 66.6213 120.836C68.4056 118.698 70.693 117.037 73.2781 116.002C75.8631 114.967 78.6647 114.59 81.4313 114.906C82.1802 115.015 82.9438 114.962 83.6703 114.75C84.3967 114.537 85.0691 114.171 85.6413 113.676C86.9183 112.662 88.328 111.828 89.8313 111.196C91.3974 110.617 92.997 110.133 94.6213 109.746C94.6213 109.046 94.5413 108.366 94.5113 107.906C86.647 105.188 79.2948 101.169 72.7613 96.016C67.8401 92.2763 63.4322 87.9055 59.6512 83.016C56.0249 78.1219 53.4944 72.5047 52.2313 66.546C51.4313 63.066 52.7013 60.986 56.1213 59.906C59.6522 58.7451 63.3201 58.0525 67.0312 57.846C71.577 57.6009 76.1197 58.3836 80.3213 60.136C85.7713 62.466 90.9913 65.246 95.3213 69.336C100.061 73.796 103.321 79.066 103.951 85.796C104.265 89.7657 104.06 93.7593 103.341 97.676C102.953 99.8473 102.07 101.9 100.761 103.676C101.151 107.616 101.531 111.356 101.921 115.346C103.511 113.876 104.921 112.516 106.431 111.186C108.997 109.049 111.794 107.207 114.771 105.696C116.573 104.682 117.94 103.042 118.611 101.086C123.211 89.286 126.171 76.976 130.071 64.956C130.841 62.0596 132.096 59.3142 133.781 56.836C134.617 55.7647 135.537 54.7616 136.531 53.836C137.44 53.0652 138.612 52.6779 139.801 52.756C143.057 52.7052 146.3 53.1848 149.401 54.176C152.357 54.985 155.364 55.593 158.401 55.9959C166.671 57.5359 174.941 59.046 183.221 60.596C191.501 62.146 199.941 63.696 208.281 65.316C212.351 66.116 216.371 67.156 220.451 67.956C223.111 68.466 225.831 68.666 228.501 69.126C233.851 70.046 239.181 71.0459 244.501 72.0259C244.841 72.107 245.175 72.2106 245.501 72.336C247.951 73.116 248.891 74.866 248.171 77.336C244.391 90.176 240.618 103.016 236.851 115.856C232.081 132.166 227.411 148.516 222.561 164.806C221.629 167.819 221.336 170.993 221.701 174.126C221.903 176.751 221.96 179.385 221.871 182.016C221.961 196.906 222.011 211.796 222.131 226.686C222.241 240.686 222.421 254.686 222.561 268.616C222.602 269.617 222.572 270.619 222.471 271.616C222.409 272.718 221.92 273.752 221.108 274.499C220.296 275.246 219.224 275.646 218.121 275.616C217.571 275.616 217.031 275.616 216.481 275.616C179.981 275.543 143.478 275.473 106.971 275.406C95.8013 275.406 84.6413 275.236 73.4813 275.146C70.3313 275.146 68.3613 273.246 68.2713 270.146C68.0713 263.346 67.898 256.543 67.7513 249.736C67.5213 238.666 67.3213 227.596 67.0913 216.526C66.9513 209.726 66.7813 202.926 66.6213 196.126L66.1113 173.806C66.1113 173.176 66.1113 172.536 66.1113 171.896C66.1913 169.436 67.2313 168.186 69.6313 167.896C72.0313 167.606 74.6313 167.446 77.1713 167.136C79.2013 166.926 81.0413 166.536 82.9913 166.196ZM75.2413 267.796C78.9913 268.506 212.521 268.936 215.691 268.226C215.691 267.296 215.691 266.316 215.691 265.336C215.521 249.546 215.331 233.746 215.201 217.956C215.081 204.156 215.051 190.356 214.951 176.556C215.146 175.519 214.938 174.446 214.371 173.556C213.371 177.306 212.451 180.686 211.511 184.066C209.141 192.606 206.741 201.136 204.391 209.676C203.391 213.426 202.391 217.206 201.391 220.956C201.098 222.3 200.4 223.521 199.392 224.456C198.384 225.391 197.113 225.995 195.751 226.186C194.151 226.473 192.527 226.61 190.901 226.596C180.551 226.496 170.211 226.726 159.901 226.116C153.571 225.736 147.211 225.786 140.901 225.626C133.568 225.446 126.235 225.249 118.901 225.036C112.101 224.846 105.291 224.716 98.4913 224.386C95.5965 224.226 92.7181 223.845 89.8813 223.246C86.3213 222.516 84.3713 219.906 83.3613 216.606C81.3013 209.846 79.3613 203.076 77.3613 196.296C76.1613 192.156 75.0613 187.986 73.9213 183.826C73.5918 184.79 73.4592 185.81 73.5312 186.826C73.6712 191.266 73.8513 195.706 73.9613 200.156C74.1546 207.676 74.3246 215.203 74.4713 222.736C74.7046 234.449 74.928 246.156 75.1413 257.856C75.1413 260.486 75.1413 263.116 75.2213 265.756C75.0813 266.446 75.1913 267.136 75.2413 267.796ZM78.3013 173.906C80.0613 180.346 81.6813 186.466 83.4213 192.546C85.4213 199.546 87.6213 206.546 89.6013 213.656C90.2213 215.866 91.5113 216.656 93.6913 216.836C97.3913 217.056 101.091 217.576 104.801 217.726C112.231 218.036 119.681 218.176 127.121 218.386C132.651 218.546 138.181 218.716 143.721 218.856C152.431 219.086 161.141 219.346 169.851 219.496C175.661 219.596 181.471 219.496 187.291 219.546C189.011 219.546 190.741 219.546 192.461 219.546C194.461 219.496 194.521 219.476 195.081 217.546C195.721 215.286 196.281 212.996 196.901 210.726C200.115 199.046 203.328 187.359 206.541 175.666C206.721 174.996 206.841 174.306 207.081 173.256H204.161C166.648 173.216 129.138 173.186 91.6313 173.166C87.3013 173.156 82.9613 173.636 78.3013 173.906V173.906ZM199.351 166.046L220.471 93.046C208.471 90.746 196.471 88.656 184.631 86.486C172.791 84.316 160.711 82.076 148.541 79.916C146.311 87.466 144.161 94.726 141.981 102.126L153.821 105.626C154.071 105.226 154.331 104.756 154.621 104.316C155.951 102.316 157.151 100.116 158.621 98.226C160.65 95.633 163.346 93.6417 166.421 92.466C168.32 91.6381 170.462 91.5561 172.419 92.2362C174.376 92.9163 176.005 94.3087 176.981 96.136C177.805 97.6429 178.504 99.2148 179.071 100.836C179.619 102.275 180.083 103.744 180.461 105.236C181.321 108.666 183.561 110.616 186.861 111.606C188.855 112.196 190.812 112.904 192.721 113.726C198.211 116.106 201.611 120.226 202.451 126.196C202.83 129.069 203.053 131.959 203.121 134.856C203.189 139.329 201.985 143.73 199.651 147.546C197.909 150.666 195.533 153.387 192.676 155.533C189.818 157.679 186.543 159.203 183.061 160.006C182.801 161.776 182.501 163.786 182.161 166.006L199.351 166.046ZM144.171 60.446C146.111 64.446 147.901 68.146 149.631 71.836C149.85 72.3237 150.196 72.744 150.632 73.0535C151.068 73.3629 151.579 73.5502 152.111 73.596C164.291 75.746 176.461 77.966 188.641 80.176C199.641 82.176 210.641 84.1759 221.641 86.2459C222.155 86.3805 222.692 86.3954 223.212 86.2897C223.732 86.1839 224.221 85.9603 224.641 85.636C227.961 83.276 231.331 80.976 234.641 78.636C235.008 78.3198 235.343 77.9681 235.641 77.586L144.171 60.446ZM160.171 109.326C161.371 110.196 162.571 111.006 163.701 111.896C164.927 112.833 166.102 113.835 167.221 114.896C177.421 124.706 182.671 136.756 183.461 150.816C183.461 151.386 183.641 151.956 183.761 152.666C186.558 151.588 189.068 149.879 191.097 147.673C193.127 145.467 194.62 142.823 195.461 139.946C196.721 135.946 196.251 131.946 195.731 127.876C195.161 123.336 192.371 120.876 188.351 119.376C187.081 118.916 185.771 118.576 184.471 118.166C179.391 116.576 175.801 113.426 174.141 108.256C173.781 107.136 173.451 106.016 173.061 104.906C172.521 103.376 172.061 101.816 171.351 100.346C170.641 98.876 169.861 98.676 168.471 99.236C167.813 99.5319 167.192 99.9044 166.621 100.346C163.591 102.575 161.335 105.698 160.171 109.276V109.326ZM206.701 165.956C210.441 166.546 213.591 166.446 215.321 165.726C223.171 138.726 231.031 111.726 239.061 84.096C235.341 86.676 232.121 88.836 229.001 91.096C228.335 91.6913 227.867 92.4766 227.661 93.346C221.281 115.206 214.948 137.079 208.661 158.966C207.961 161.206 207.371 163.446 206.701 165.906V165.956ZM96.9913 90.416C97.5173 88.4556 97.5619 86.3972 97.1213 84.416C96.4154 81.3089 94.881 78.4511 92.6813 76.146C88.3013 71.326 82.7612 68.256 76.7912 65.976C72.1812 64.216 67.3913 64.2859 62.6013 65.2159C61.4713 65.4359 60.3613 65.7459 59.1713 66.0259C59.1757 66.5422 59.2226 67.0573 59.3113 67.566C60.8229 72.8064 63.4842 77.6438 67.1013 81.726C73.6154 88.958 81.4793 94.8483 90.2513 99.066C91.0913 99.476 91.9813 99.756 93.0613 100.186C93.0785 99.627 93.0417 99.0678 92.9513 98.516C91.7213 94.166 89.7412 90.266 86.1612 87.316C85.297 86.663 84.5058 85.9187 83.8013 85.096C83.3512 84.5169 83.1069 83.8044 83.1069 83.071C83.1069 82.3376 83.3512 81.6251 83.8013 81.046C84.3109 80.5258 84.9698 80.1771 85.6865 80.0481C86.4032 79.9191 87.1422 80.0162 87.8013 80.326C88.2854 80.5765 88.7414 80.8782 89.1612 81.226C91.7308 83.1054 93.9112 85.4657 95.5813 88.176C96.0413 88.886 96.5313 89.616 96.9913 90.366V90.416ZM139.191 166.106C140.821 161.806 142.351 157.656 143.971 153.536C144.135 153.165 144.183 152.754 144.108 152.356C144.033 151.957 143.839 151.591 143.551 151.306C142.451 149.973 141.341 148.656 140.221 147.356C138.641 145.486 137.041 143.636 135.451 141.776C135.081 141.317 134.584 140.978 134.022 140.8C133.46 140.622 132.858 140.614 132.291 140.776C130.351 141.166 128.361 141.376 126.401 141.696C124.441 142.016 122.281 142.306 120.281 142.836C119.329 143.077 118.491 143.643 117.911 144.436C115.331 148.436 112.911 152.616 110.441 156.716L115.441 166.146L139.191 166.106ZM166.881 144.676C167.731 140.966 168.151 137.306 169.451 133.996C170.751 130.686 169.641 128.116 167.581 125.666C165.521 123.216 163.631 120.486 160.781 118.726L146.091 123.786C145.657 123.897 145.255 124.109 144.918 124.404C144.581 124.699 144.318 125.07 144.151 125.486C142.971 128.413 141.688 131.306 140.301 134.166C140.012 134.621 139.888 135.161 139.95 135.696C140.012 136.231 140.256 136.729 140.641 137.106C143.191 140.056 145.741 143.006 148.201 146.026C148.528 146.454 148.973 146.778 149.481 146.955C149.99 147.133 150.539 147.158 151.061 147.026C152.131 146.866 153.201 146.676 154.271 146.516L166.881 144.676ZM106.571 120.216C110.571 125.146 114.571 129.976 118.501 134.826C118.747 135.152 119.082 135.399 119.465 135.537C119.849 135.676 120.264 135.7 120.661 135.606L131.371 133.956C131.865 133.91 132.336 133.725 132.729 133.423C133.122 133.12 133.421 132.712 133.591 132.246C134.901 129.176 136.321 126.146 137.731 123.006L127.671 109.606C118.461 111.446 111.541 114.936 106.571 120.166V120.216ZM69.3313 155.366C69.9713 155.076 70.1513 155.026 70.3313 154.926C75.7825 151.329 80.7439 147.04 85.0913 142.166C85.9313 141.266 88.2513 134.246 88.1713 133.026C88.1622 132.845 88.1423 132.665 88.1113 132.486C87.5495 129.937 86.4254 127.545 84.8213 125.486C84.2508 126.49 83.63 127.465 82.9613 128.406C82.3266 129.378 81.516 130.222 80.5713 130.896C80.105 131.184 79.5677 131.335 79.0198 131.334C78.4719 131.333 77.9352 131.178 77.4704 130.888C77.0057 130.598 76.6312 130.184 76.3893 129.692C76.1473 129.201 76.0476 128.651 76.1013 128.106C76.2501 127.126 76.5899 126.185 77.1013 125.336C77.7113 124.116 78.4812 122.966 79.2812 121.626C77.7213 121.627 76.1847 122.005 74.8022 122.727C73.4198 123.45 72.2324 124.496 71.3413 125.776C69.9932 127.802 68.8888 129.981 68.0513 132.266C66.0513 137.646 66.8513 143.166 67.7413 148.626C68.0313 150.766 68.7313 152.906 69.3313 155.316V155.366ZM101.511 125.266C95.1743 133.168 91.5082 142.877 91.0412 152.996H103.151C103.644 152.987 104.125 152.835 104.534 152.561C104.944 152.286 105.266 151.899 105.461 151.446C107.211 148.446 109.011 145.546 110.781 142.596C111.471 141.446 112.131 140.276 112.831 139.066C109.241 134.186 105.461 129.696 101.511 125.216V125.266ZM167.661 151.666L152.821 153.666C152.324 153.696 151.848 153.881 151.461 154.195C151.073 154.508 150.794 154.935 150.661 155.416C149.761 158.066 148.661 160.666 147.731 163.296C147.421 164.116 147.141 164.946 146.731 166.016H174.921C175.211 164.586 175.471 163.266 175.761 161.946C175.984 161.21 175.978 160.423 175.746 159.69C175.515 158.957 175.067 158.311 174.461 157.836C172.141 155.836 169.931 153.696 167.661 151.616V151.666ZM134.791 101.726C135.481 99.526 136.141 97.456 136.791 95.386C138.791 88.7193 140.791 82.0526 142.791 75.386C142.956 74.8927 142.956 74.3593 142.791 73.866C141.251 70.546 139.651 67.256 137.971 63.766C137.831 64.0277 137.707 64.2983 137.601 64.576C133.801 76.8426 130.011 89.116 126.231 101.396C126.176 101.811 126.176 102.231 126.231 102.646L134.791 101.726ZM91.4613 160.116C91.0013 162.256 91.7812 164.116 92.1612 165.926C96.7712 166.346 105.241 166.206 107.281 165.646L104.281 160.116H91.4613ZM135.841 108.906C138.161 111.986 140.231 114.716 142.351 117.546C146.051 116.356 149.661 115.156 153.481 113.546C148.028 110.722 142.018 109.138 135.881 108.906H135.841ZM89.3013 119.446L92.7313 125.556C94.0213 124.386 95.3113 123.286 95.4913 121.836C95.6713 120.386 95.1412 118.546 94.9112 116.786C92.7651 116.904 90.751 117.859 89.3013 119.446V119.446ZM176.301 149.776C176.501 146.716 175.591 144.086 175.021 140.776C174.471 142.886 174.021 144.416 173.671 145.966C173.516 146.44 173.531 146.952 173.714 147.416C173.896 147.88 174.235 148.265 174.671 148.506C175.171 148.846 175.621 149.256 176.301 149.776Z" fill="#3558A2"/>
<path d="M108.761 34.0973C107.861 37.7673 111.151 39.3373 113.601 41.3173C114.397 41.7378 115.293 41.9315 116.191 41.8773C117.371 41.9673 118.561 41.7973 119.731 41.8773C120.28 41.8868 120.816 42.0384 121.288 42.3173C121.761 42.5962 122.152 42.9928 122.425 43.4684C122.698 43.9441 122.844 44.4824 122.846 45.0308C122.849 45.5792 122.71 46.119 122.441 46.5973C121.945 47.6534 121.269 48.6146 120.441 49.4373C118.339 51.4473 116.701 53.8916 115.641 56.5997C114.58 59.3078 114.123 62.2145 114.301 65.1174C114.401 68.1174 114.651 71.1174 114.821 74.1174C114.881 74.8395 114.881 75.5653 114.821 76.2874C114.756 77.0692 114.421 77.804 113.874 78.3659C113.327 78.9279 112.601 79.2819 111.821 79.3674C111.095 79.3767 110.384 79.1617 109.784 78.7519C109.185 78.3421 108.726 77.7573 108.471 77.0774C108.152 75.9463 107.898 74.7977 107.711 73.6374C106.801 69.2174 105.901 64.7974 104.961 60.3874C104.811 59.6874 104.481 59.0274 104.271 58.3374C103.833 56.6074 102.836 55.0707 101.434 53.9658C100.033 52.8609 98.3058 52.2498 96.5214 52.2273C95.7128 52.1645 94.9278 51.9256 94.2213 51.5273C93.8107 51.3266 93.4498 51.0373 93.1644 50.6803C92.8791 50.3232 92.6765 49.9073 92.5713 49.4626C92.4661 49.0178 92.4608 48.5552 92.5559 48.1082C92.651 47.6611 92.8442 47.2407 93.1213 46.8773C93.5729 46.206 94.1223 45.606 94.7513 45.0973C95.6361 44.3156 96.5976 43.6254 97.6213 43.0373C100.891 41.2873 101.911 38.2973 102.171 34.9173C102.186 33.7438 102.116 32.5707 101.961 31.4073C101.871 30.0573 101.671 28.6973 101.691 27.3473C101.65 26.5696 101.895 25.8038 102.379 25.1941C102.864 24.5843 103.554 24.1729 104.321 24.0373C105.096 23.9153 105.888 24.0952 106.533 24.5399C107.179 24.9847 107.629 25.6602 107.791 26.4273C108.236 28.2689 108.57 30.1356 108.791 32.0173C108.823 32.7106 108.813 33.4052 108.761 34.0973V34.0973ZM112.281 48.4573L106.171 44.3173L103.431 47.3173C106.371 48.6273 108.051 51.0273 109.611 53.6374C110.611 51.6873 111.511 49.9373 112.281 48.4473V48.4573Z" fill="#3558A2"/>
<path d="M75.2404 267.795C75.2404 267.135 75.0803 266.435 75.0703 265.735C75.0703 263.095 75.0704 260.465 74.9904 257.835C74.7704 246.122 74.547 234.415 74.3203 222.715C74.1737 215.189 74.0037 207.662 73.8103 200.135C73.7003 195.685 73.5204 191.245 73.3804 186.805C73.3083 185.789 73.441 184.769 73.7704 183.805C74.9104 187.965 76.0104 192.135 77.2104 196.275C79.2104 203.055 81.2104 209.825 83.2104 216.585C84.2104 219.885 86.2104 222.495 89.7304 223.225C92.5671 223.824 95.4455 224.205 98.3404 224.365C105.14 224.695 111.95 224.825 118.75 225.015C126.084 225.229 133.417 225.425 140.75 225.605C147.1 225.765 153.46 225.715 159.75 226.095C170.1 226.705 180.44 226.475 190.75 226.575C192.376 226.589 194 226.452 195.6 226.165C196.962 225.974 198.233 225.37 199.241 224.435C200.249 223.5 200.947 222.279 201.24 220.935C202.24 217.185 203.24 213.405 204.24 209.655C206.59 201.115 208.99 192.585 211.36 184.045C212.3 180.665 213.2 177.285 214.22 173.535C214.787 174.425 214.995 175.498 214.8 176.535C214.9 190.335 214.93 204.135 215.05 217.935C215.18 233.725 215.37 249.525 215.54 265.315C215.54 266.315 215.54 267.315 215.54 268.205C212.52 268.935 78.9904 268.505 75.2404 267.795Z" fill="#EAECF1"/>
<path d="M78.3008 173.906C82.9608 173.636 87.3009 173.156 91.6309 173.156C129.138 173.156 166.647 173.186 204.161 173.246H207.081C206.841 174.296 206.721 174.986 206.541 175.656C203.327 187.35 200.114 199.036 196.901 210.716C196.281 212.986 195.721 215.276 195.081 217.536C194.521 219.476 194.481 219.536 192.461 219.536C190.741 219.536 189.011 219.536 187.291 219.536C181.471 219.536 175.661 219.536 169.851 219.486C161.141 219.336 152.431 219.076 143.721 218.846C138.181 218.706 132.651 218.536 127.121 218.376C119.681 218.166 112.231 218.026 104.801 217.716C101.091 217.566 97.3908 217.046 93.6908 216.826C91.5108 216.696 90.2208 215.826 89.6008 213.646C87.6008 206.586 85.4408 199.586 83.4208 192.536C81.6808 186.446 80.0608 180.346 78.3008 173.906Z" fill="white"/>
<path d="M199.351 166.047H182.211C182.551 163.827 182.851 161.817 183.111 160.047C186.593 159.243 189.868 157.72 192.726 155.574C195.583 153.428 197.959 150.707 199.701 147.587C202.035 143.77 203.239 139.37 203.171 134.897C203.103 132 202.88 129.11 202.501 126.237C201.661 120.237 198.261 116.147 192.771 113.767C190.862 112.945 188.905 112.237 186.911 111.647C183.611 110.647 181.371 108.707 180.511 105.277C180.133 103.785 179.669 102.316 179.121 100.877C178.554 99.2558 177.855 97.6839 177.031 96.177C176.055 94.3497 174.426 92.9574 172.469 92.2772C170.512 91.5971 168.371 91.6791 166.471 92.507C163.396 93.6828 160.7 95.6741 158.671 98.267C157.151 100.157 155.951 102.317 154.671 104.357C154.381 104.797 154.121 105.267 153.871 105.667L142.031 102.167C144.211 94.767 146.361 87.507 148.591 79.957C160.761 82.117 172.711 84.347 184.681 86.527C196.651 88.707 208.481 90.787 220.521 93.087L199.351 166.047ZM183.461 100.907C183.591 104.307 185.591 107.277 189.381 109.047C193.381 110.897 197.261 111.047 200.791 108.047C201.936 107.139 202.789 105.915 203.242 104.526C203.696 103.137 203.73 101.645 203.341 100.237C202.734 97.7664 201.325 95.5668 199.335 93.9819C197.344 92.397 194.885 91.5161 192.341 91.477C187.351 91.447 183.461 95.117 183.461 100.907Z" fill="#EAECF1"/>
<path d="M144.17 60.4453L235.69 77.5853C235.392 77.9674 235.057 78.3191 234.69 78.6353C231.35 80.9753 227.98 83.2753 224.69 85.6353C224.27 85.9596 223.781 86.1832 223.261 86.289C222.741 86.3947 222.203 86.3798 221.69 86.2452C210.69 84.1452 199.69 82.1753 188.69 80.1753C176.51 77.9653 164.34 75.7453 152.16 73.5953C151.627 73.5495 151.116 73.3622 150.68 73.0528C150.244 72.7434 149.899 72.323 149.68 71.8353C147.9 68.0953 146.11 64.4453 144.17 60.4453Z" fill="white"/>
<path d="M160.17 109.276C161.337 105.697 163.596 102.574 166.63 100.346C167.201 99.9041 167.822 99.5315 168.48 99.2356C169.87 98.6756 170.71 98.9556 171.36 100.346C172.01 101.736 172.53 103.346 173.07 104.906C173.46 106.016 173.79 107.136 174.15 108.256C175.81 113.426 179.4 116.576 184.48 118.166C185.78 118.576 187.09 118.916 188.36 119.376C192.36 120.846 195.17 123.376 195.74 127.876C196.26 131.926 196.74 135.946 195.47 139.946C194.619 142.812 193.121 145.445 191.091 147.64C189.06 149.836 186.552 151.535 183.76 152.606C183.64 151.896 183.5 151.326 183.46 150.756C182.67 136.696 177.46 124.646 167.22 114.836C166.1 113.774 164.925 112.773 163.7 111.836C162.57 110.956 161.37 110.146 160.17 109.276Z" fill="white"/>
<path d="M206.701 165.906C207.371 163.476 207.961 161.206 208.611 158.956C214.951 137.076 221.285 115.203 227.611 93.3359C227.817 92.4666 228.285 91.6813 228.951 91.0859C232.071 88.7859 235.291 86.6259 239.011 84.0859C231.011 111.706 223.121 138.736 215.271 165.716C213.591 166.446 210.461 166.496 206.701 165.906Z" fill="white"/>
<path d="M96.9895 90.3651C96.5295 89.6151 95.9895 88.8851 95.5995 88.1251C93.9294 85.4149 91.749 83.0546 89.1794 81.1751C88.7596 80.8274 88.3036 80.5257 87.8195 80.2751C87.1604 79.9654 86.4214 79.8683 85.7047 79.9973C84.988 80.1263 84.3291 80.475 83.8195 80.9951C83.3694 81.5742 83.1251 82.2867 83.1251 83.0201C83.1251 83.7535 83.3694 84.466 83.8195 85.0451C84.524 85.8679 85.3152 86.6122 86.1794 87.2651C89.7594 90.2151 91.7395 94.1151 92.9695 98.4651C93.0599 99.0169 93.0967 99.5762 93.0795 100.135C91.9995 99.7051 91.0795 99.4251 90.2695 99.0151C81.4975 94.7975 73.6336 88.9072 67.1195 81.6751C63.5024 77.593 60.8411 72.7556 59.3295 67.5151C59.2408 67.0065 59.1939 66.4914 59.1895 65.9751C60.3795 65.6951 61.4895 65.3851 62.6195 65.1651C67.4095 64.2351 72.1994 64.1651 76.8094 65.9251C82.8094 68.2051 88.3195 71.2751 92.6995 76.0951C94.8992 78.4002 96.4336 81.2581 97.1395 84.3651C97.5735 86.348 97.5221 88.4064 96.9895 90.3651Z" fill="white"/>
<path d="M139.191 166.056H115.461L110.461 156.626C112.931 152.526 115.351 148.386 117.931 144.346C118.511 143.553 119.349 142.987 120.301 142.746C122.301 142.216 124.371 141.946 126.421 141.606C128.471 141.266 130.421 141.076 132.311 140.686C132.878 140.524 133.48 140.532 134.042 140.71C134.604 140.888 135.101 141.227 135.471 141.686C137.061 143.546 138.661 145.396 140.241 147.266C141.361 148.599 142.471 149.916 143.571 151.216C143.859 151.502 144.053 151.868 144.128 152.266C144.203 152.664 144.155 153.076 143.991 153.446C142.351 157.606 140.821 161.756 139.191 166.056Z" fill="white"/>
<path d="M166.882 144.627L154.272 146.507C153.202 146.667 152.132 146.857 151.062 147.017C150.54 147.149 149.99 147.124 149.482 146.946C148.974 146.768 148.528 146.445 148.202 146.017C145.742 143.017 143.202 140.017 140.642 137.097C140.257 136.72 140.013 136.222 139.951 135.687C139.889 135.152 140.013 134.612 140.302 134.157C141.682 131.303 142.965 128.41 144.152 125.477C144.319 125.061 144.582 124.69 144.919 124.395C145.256 124.099 145.658 123.888 146.092 123.777L160.782 118.717C163.632 120.477 165.502 123.177 167.582 125.657C169.662 128.137 170.802 130.527 169.452 133.987C168.102 137.447 167.732 140.917 166.882 144.627Z" fill="white"/>
<path d="M106.57 120.167C111.57 114.937 118.48 111.477 127.67 109.557L137.73 122.957C136.32 126.097 134.9 129.127 133.59 132.197C133.42 132.663 133.121 133.071 132.728 133.373C132.335 133.676 131.864 133.861 131.37 133.907L120.66 135.557C120.263 135.65 119.848 135.627 119.464 135.488C119.081 135.35 118.746 135.102 118.5 134.777C114.57 129.927 110.6 125.097 106.57 120.167Z" fill="#979FBB"/>
<path d="M69.3303 155.316C68.7303 152.906 68.0302 150.766 67.6702 148.566C66.7802 143.106 66.0203 137.566 67.9803 132.206C68.8179 129.921 69.9222 127.743 71.2703 125.716C72.1615 124.436 73.3488 123.39 74.7313 122.668C76.1137 121.945 77.6503 121.567 79.2103 121.566C78.4103 122.906 77.6402 124.056 77.0302 125.276C76.5188 126.125 76.179 127.067 76.0302 128.046C75.9765 128.592 76.0763 129.141 76.3182 129.633C76.5601 130.124 76.9347 130.539 77.3995 130.829C77.8643 131.119 78.4009 131.273 78.9488 131.275C79.4967 131.276 80.0341 131.124 80.5003 130.836C81.445 130.162 82.2556 129.318 82.8903 128.346C83.559 127.405 84.1798 126.43 84.7503 125.426C86.3545 127.486 87.4784 129.877 88.0402 132.426C88.0712 132.605 88.0913 132.785 88.1003 132.966C88.1803 134.186 85.8603 141.206 85.0203 142.106C80.6729 146.98 75.7115 151.269 70.2603 154.866C70.1503 154.976 69.9703 155.026 69.3303 155.316Z" fill="white"/>
<path d="M101.511 125.217C105.511 129.697 109.241 134.217 112.871 139.027C112.171 140.237 111.511 141.407 110.821 142.557C109.051 145.507 107.251 148.437 105.501 151.407C105.301 151.864 104.972 152.253 104.555 152.526C104.138 152.8 103.65 152.946 103.151 152.947H91.041C91.508 142.828 95.174 133.119 101.511 125.217V125.217Z" fill="white"/>
<path d="M167.66 151.617C169.93 153.697 172.14 155.837 174.49 157.827C175.095 158.302 175.543 158.948 175.775 159.681C176.007 160.415 176.012 161.201 175.79 161.937C175.5 163.257 175.24 164.577 174.95 166.007H146.76C147.14 164.937 147.42 164.107 147.76 163.287C148.76 160.657 149.76 158.057 150.69 155.407C150.822 154.927 151.102 154.5 151.489 154.186C151.876 153.872 152.352 153.687 152.85 153.657L167.66 151.617Z" fill="#979FBB"/>
<path d="M134.79 101.676L126.26 102.616C126.205 102.202 126.205 101.781 126.26 101.366C130.04 89.0864 133.83 76.813 137.63 64.5463C137.736 64.2686 137.86 63.9981 138 63.7363C139.68 67.2263 141.28 70.5163 142.82 73.8363C142.985 74.3296 142.985 74.863 142.82 75.3563C140.82 82.023 138.82 88.6897 136.82 95.3563C136.14 97.4464 135.46 99.4464 134.79 101.676Z" fill="white"/>
<path d="M91.4607 160.117H104.321L107.321 165.647C105.321 166.207 96.8106 166.347 92.2006 165.927C91.8206 164.087 91.0407 162.257 91.4607 160.117Z" fill="#979FBB"/>
<path d="M135.881 108.906C142.034 109.145 148.059 110.743 153.521 113.586C149.701 115.156 146.091 116.356 142.391 117.586C140.271 114.716 138.201 111.986 135.881 108.906Z" fill="white"/>
<path d="M89.3008 119.445C90.7505 117.858 92.7647 116.903 94.9108 116.785C95.1408 118.545 95.6908 120.235 95.4908 121.835C95.2908 123.435 94.0208 124.385 92.7308 125.555L89.3008 119.445Z" fill="white"/>
<path d="M176.301 149.777C175.621 149.257 175.171 148.847 174.661 148.527C174.225 148.286 173.886 147.901 173.703 147.437C173.521 146.973 173.506 146.46 173.661 145.987C174.051 144.437 174.461 142.907 175.011 140.797C175.591 144.087 176.461 146.717 176.301 149.777Z" fill="white"/>
<path d="M183.461 100.906C183.461 95.1163 187.361 91.3963 192.331 91.5063C194.875 91.5454 197.334 92.4262 199.324 94.0112C201.314 95.5961 202.723 97.7957 203.331 100.266C203.72 101.675 203.685 103.166 203.232 104.555C202.778 105.944 201.926 107.169 200.781 108.076C197.251 111.076 193.351 110.896 189.371 109.076C185.581 107.276 183.581 104.306 183.461 100.906ZM194.871 103.606C195.231 103.406 196.201 103.196 196.491 102.606C196.735 101.857 196.674 101.041 196.321 100.336C195.781 99.1363 193.161 97.9862 191.861 98.1862C191.529 98.2222 191.211 98.3407 190.937 98.531C190.662 98.7212 190.44 98.9772 190.29 99.2754C190.14 99.5737 190.067 99.9049 190.077 100.239C190.088 100.572 190.182 100.898 190.351 101.186C191.231 102.836 192.711 103.446 194.861 103.606H194.871Z" fill="#3558A2"/>
<path d="M194.861 103.606C192.711 103.416 191.231 102.836 190.341 101.256C190.172 100.968 190.078 100.642 190.067 100.309C190.057 99.9749 190.13 99.6438 190.28 99.3455C190.43 99.0473 190.652 98.7913 190.927 98.6011C191.201 98.4108 191.519 98.2923 191.851 98.2564C193.151 98.0564 195.771 99.2563 196.311 100.406C196.664 101.111 196.725 101.927 196.481 102.676C196.191 103.196 195.221 103.446 194.861 103.606Z" fill="#979FBB"/>
</svg>
