<svg width="300" height="300" viewBox="0 0 300 300" fill="none" xmlns="http://www.w3.org/2000/svg">
<path d="M157.479 224.437L160.639 235.817C164.019 234.937 167.159 234.107 170.309 233.307C171.179 233.061 172.075 232.916 172.979 232.876C173.805 232.81 174.628 233.05 175.288 233.552C175.949 234.054 176.401 234.782 176.559 235.597C176.685 236.363 176.558 237.149 176.197 237.837C175.836 238.524 175.261 239.075 174.559 239.406C173.991 239.685 173.394 239.899 172.779 240.047C151.359 245.836 129.959 251.697 108.509 257.347C102.739 258.867 96.8187 259.817 90.9587 260.957C90.0305 261.228 89.0327 261.123 88.1812 260.665C87.3297 260.206 86.693 259.431 86.4086 258.506C85.8686 256.566 86.9787 254.686 89.3487 254.046C92.7487 253.116 96.2086 252.397 99.6486 251.587C100.079 251.487 100.499 251.356 101.259 251.156L97.8686 238.337C93.6186 239.337 89.5786 240.237 85.5486 241.207C74.982 243.747 64.412 246.303 53.8387 248.876C50.8387 249.606 49.1686 248.626 48.4786 245.636C41.4052 214.837 34.3453 184.03 27.2986 153.217C26.1986 148.387 28.1387 145.437 33.0987 144.297C57.592 138.643 82.0853 133.003 106.579 127.377L171.579 112.437C175.709 111.497 178.969 113.377 179.999 117.537C184.385 135.377 188.742 153.233 193.069 171.107L201.619 206.207C202.909 211.497 201.879 213.307 196.619 214.607C190.109 216.227 183.619 217.707 177.069 219.337C170.519 220.967 164.289 222.657 157.479 224.437ZM173.129 119.527L34.1286 151.527C41.0586 181.527 47.9287 211.287 54.8387 241.167L194.529 207.687C187.409 178.257 180.289 149.027 173.129 119.527V119.527ZM108.509 249.926L153.579 237.597C152.519 233.697 151.519 230.067 150.499 226.307C134.949 229.007 119.959 232.946 104.859 236.876C106.109 241.326 107.289 245.497 108.509 249.926V249.926Z" fill="#3558A2"/>
<path d="M198.028 104.845C195.728 103.125 193.668 101.765 191.818 100.175C178.698 88.8954 176.888 71.8555 187.368 58.0755C193.698 49.7555 202.158 44.5355 212.078 41.5955C225.078 37.7455 237.828 38.0655 250.378 43.3155C254.408 44.9865 258.127 47.326 261.378 50.2354C274.428 61.9554 275.848 79.2354 264.818 92.8654C257.308 102.165 247.328 107.335 235.818 109.775C234.028 110.155 232.238 110.365 231.208 112.165C231.041 112.385 230.825 112.563 230.578 112.685C221.328 118.165 212.938 125.175 202.508 128.565C201.648 128.845 200.798 129.195 199.928 129.435C196.248 130.435 193.928 128.515 194.558 124.785C195.208 120.675 195.968 116.575 196.678 112.475C197.118 109.905 197.578 107.335 198.028 104.845ZM202.558 120.845C204.294 120.165 205.99 119.387 207.638 118.515C213.378 115.015 219.048 111.425 224.728 107.845C225.435 107.45 226.049 106.908 226.528 106.255C227.097 105.38 227.86 104.648 228.759 104.117C229.658 103.587 230.667 103.271 231.708 103.195C237.643 102.289 243.357 100.284 248.558 97.2854C254.158 94.0454 258.878 89.8854 262.028 84.1354C264.326 80.2331 265.352 75.7126 264.965 71.2008C264.578 66.6891 262.797 62.4096 259.868 58.9555C256.835 55.1875 252.924 52.2209 248.478 50.3155C235.078 44.4055 221.678 44.9155 208.388 50.6554C201.956 53.2816 196.406 57.6872 192.388 63.3555C188.798 68.5355 187.068 74.2355 188.168 80.5855C189.176 86.2847 192.271 91.4042 196.848 94.9454C198.952 96.5163 201.135 97.9782 203.388 99.3255C205.478 100.695 206.048 102.005 205.548 104.395C205.288 105.635 204.958 106.855 204.748 108.105C204.018 112.235 203.338 116.315 202.558 120.895V120.845Z" fill="#3558A2"/>
<path d="M258.369 169.597C258.069 178.717 256.629 187.517 253.029 195.887C251.36 200.021 248.854 203.766 245.669 206.887C239.139 213.047 230.899 212.817 224.669 206.217C220.449 201.727 218.109 196.217 216.669 190.347C215.923 187.076 215.372 183.763 215.019 180.427C214.996 179.853 214.842 179.292 214.57 178.786C214.298 178.28 213.915 177.843 213.449 177.507C210.019 174.967 206.639 172.357 203.289 169.707C199.289 166.547 199.719 162.547 204.389 160.417C207.849 158.837 211.389 157.517 214.939 156.057C215.678 155.781 216.331 155.316 216.835 154.709C217.338 154.102 217.674 153.374 217.809 152.597C219.264 146.371 222.438 140.678 226.969 136.167C233.649 129.757 241.769 129.967 248.119 136.727C253.119 142.087 255.499 148.727 256.739 155.817C257.589 160.377 257.859 165.007 258.369 169.597ZM210.449 165.927C210.959 166.387 211.319 166.757 211.729 167.077C214.396 169.137 217.062 171.19 219.729 173.237C220.457 173.767 221.052 174.46 221.465 175.26C221.879 176.06 222.099 176.946 222.109 177.847C222.309 183.574 223.574 189.214 225.839 194.477C227.075 197.189 228.706 199.703 230.679 201.937C233.319 204.847 236.539 204.887 239.679 202.507C240.951 201.632 242.042 200.518 242.889 199.227C244.752 196.239 246.335 193.086 247.619 189.807C250.921 180.245 251.818 170.017 250.229 160.027C249.419 154.537 247.999 149.187 245.009 144.397C240.469 137.137 234.879 136.927 229.789 143.847C227.053 147.807 225.06 152.233 223.909 156.907C223.743 157.831 223.361 158.703 222.792 159.451C222.224 160.198 221.486 160.8 220.639 161.207C217.369 162.797 214.079 164.247 210.449 165.927V165.927Z" fill="#3558A2"/>
<path d="M173.128 119.527C180.298 149.027 187.408 178.257 194.558 207.697L54.8682 241.177C47.9582 211.297 41.0882 181.537 34.1582 151.537L173.128 119.527ZM73.6982 192.047C73.9782 196.757 74.1582 200.197 74.3782 203.637C74.7382 209.167 78.4682 212.637 83.1282 213.837C90.9282 215.837 98.5682 215.637 105.888 211.837C112.761 208.334 120.175 206.012 127.818 204.967C132.534 204.189 137.207 203.167 141.818 201.907C150.088 199.807 154.528 193.807 157.308 186.227C157.511 185.721 157.626 185.183 157.648 184.637C157.728 180.977 157.418 177.367 155.648 174.077C153.125 169.228 149.593 164.976 145.288 161.607C141.958 159.087 138.638 156.607 135.348 153.987C133.721 152.665 131.835 151.697 129.811 151.146C127.788 150.595 125.672 150.473 123.598 150.787C121.387 151.249 119.201 151.823 117.048 152.507C115.223 153 113.365 153.361 111.488 153.587C109.238 153.797 106.948 153.587 104.698 153.787C99.8082 154.277 95.5682 156.567 91.2982 158.787C87.4097 160.827 84.199 163.954 82.0582 167.787C80.6182 170.297 78.9682 172.697 77.4482 175.167C75.7135 177.843 74.6279 180.888 74.2782 184.057C74.0082 187.147 73.8282 190.217 73.6982 192.047V192.047ZM160.518 137.947C160.497 138.907 160.835 139.84 161.466 140.563C162.097 141.286 162.975 141.748 163.928 141.857C164.404 141.886 164.88 141.817 165.328 141.656C165.776 141.496 166.187 141.245 166.536 140.921C166.885 140.596 167.164 140.205 167.357 139.769C167.55 139.334 167.652 138.864 167.658 138.387C167.701 137.912 167.649 137.433 167.505 136.978C167.361 136.523 167.129 136.102 166.821 135.737C166.513 135.373 166.136 135.073 165.712 134.855C165.287 134.637 164.824 134.505 164.348 134.467C163.389 134.459 162.462 134.812 161.752 135.457C161.042 136.103 160.601 136.992 160.518 137.947V137.947ZM172.598 152.877C172.608 152.382 172.518 151.89 172.334 151.43C172.151 150.97 171.878 150.551 171.53 150.198C171.183 149.845 170.768 149.565 170.311 149.374C169.854 149.183 169.363 149.086 168.868 149.087C167.962 149.144 167.113 149.552 166.503 150.224C165.892 150.896 165.568 151.78 165.598 152.687C165.618 153.686 166.02 154.638 166.722 155.349C167.423 156.06 168.37 156.474 169.368 156.507C170.272 156.438 171.113 156.021 171.716 155.344C172.318 154.667 172.635 153.783 172.598 152.877V152.877ZM173.778 164.297C172.871 164.331 172.011 164.714 171.38 165.366C170.748 166.018 170.393 166.889 170.388 167.797C170.398 168.249 170.497 168.694 170.679 169.108C170.861 169.522 171.122 169.895 171.449 170.208C171.775 170.52 172.16 170.765 172.581 170.929C173.002 171.093 173.451 171.172 173.903 171.162C174.355 171.153 174.8 171.054 175.214 170.872C175.628 170.69 176.001 170.428 176.314 170.102C176.626 169.775 176.871 169.391 177.035 168.969C177.199 168.548 177.278 168.099 177.268 167.647C177.263 167.197 177.168 166.752 176.989 166.339C176.81 165.926 176.551 165.552 176.226 165.24C175.901 164.928 175.517 164.684 175.097 164.522C174.677 164.361 174.228 164.284 173.778 164.297V164.297ZM152.778 140.447C152.782 139.996 152.696 139.549 152.523 139.133C152.35 138.716 152.095 138.339 151.773 138.023C151.451 137.707 151.068 137.46 150.648 137.296C150.228 137.132 149.779 137.054 149.328 137.067C148.421 137.108 147.563 137.494 146.931 138.147C146.299 138.799 145.94 139.669 145.928 140.577C145.976 141.484 146.363 142.34 147.014 142.974C147.665 143.608 148.53 143.973 149.438 143.997C150.34 143.941 151.186 143.542 151.804 142.882C152.421 142.222 152.762 141.351 152.758 140.447H152.778ZM156.218 154.567C156.242 153.707 155.924 152.872 155.334 152.246C154.743 151.62 153.929 151.254 153.068 151.227C152.636 151.221 152.207 151.299 151.805 151.459C151.404 151.618 151.037 151.855 150.727 152.156C150.417 152.457 150.169 152.816 149.998 153.212C149.826 153.609 149.735 154.035 149.728 154.467C149.722 154.899 149.8 155.329 149.959 155.73C150.119 156.132 150.356 156.498 150.656 156.808C150.957 157.118 151.316 157.366 151.713 157.538C152.11 157.709 152.536 157.801 152.968 157.807C153.394 157.811 153.817 157.73 154.211 157.569C154.606 157.407 154.964 157.169 155.265 156.867C155.566 156.565 155.803 156.206 155.963 155.811C156.124 155.416 156.204 154.994 156.198 154.567H156.218ZM184.678 196.337C184.697 195.467 184.374 194.624 183.777 193.99C183.18 193.356 182.358 192.981 181.488 192.947C180.83 192.922 180.178 193.093 179.617 193.438C179.056 193.784 178.611 194.289 178.338 194.889C178.064 195.489 177.976 196.156 178.083 196.806C178.191 197.456 178.49 198.06 178.941 198.54C179.393 199.02 179.977 199.355 180.62 199.501C181.262 199.648 181.934 199.6 182.549 199.364C183.164 199.128 183.695 198.714 184.074 198.175C184.454 197.636 184.664 196.996 184.678 196.337ZM181.288 181.797C181.259 180.934 180.89 180.116 180.26 179.524C179.631 178.932 178.792 178.613 177.928 178.637C177.069 178.718 176.273 179.123 175.701 179.769C175.129 180.415 174.824 181.255 174.848 182.117C174.921 182.935 175.296 183.697 175.901 184.252C176.506 184.807 177.297 185.116 178.118 185.117C178.548 185.121 178.974 185.036 179.37 184.868C179.767 184.701 180.124 184.454 180.421 184.143C180.718 183.832 180.948 183.463 181.097 183.06C181.246 182.656 181.311 182.227 181.288 181.797Z" fill="white"/>
<path d="M108.507 249.927C107.267 245.497 106.107 241.327 104.857 236.877C119.957 232.947 134.947 229.007 150.497 226.307C151.497 230.067 152.498 233.697 153.578 237.597L108.507 249.927Z" fill="#979FBB"/>
<path d="M202.558 120.897C203.338 116.317 204.018 112.237 204.738 108.157C204.948 106.907 205.278 105.687 205.538 104.447C206.038 102.057 205.468 100.747 203.378 99.3768C201.125 98.0295 198.942 96.5676 196.838 94.9968C192.261 91.4555 189.166 86.336 188.158 80.6367C187.058 74.2867 188.788 68.6367 192.378 63.4067C196.396 57.7383 201.946 53.3329 208.378 50.7067C221.668 44.9667 235.068 44.4566 248.468 50.3666C252.914 52.272 256.825 55.2387 259.858 59.0067C262.787 62.4608 264.568 66.7404 264.955 71.2522C265.342 75.764 264.316 80.2844 262.018 84.1868C258.868 89.9368 254.148 94.0968 248.548 97.3368C243.347 100.336 237.633 102.34 231.698 103.247C230.657 103.322 229.648 103.638 228.749 104.169C227.85 104.7 227.087 105.431 226.518 106.307C226.039 106.96 225.425 107.502 224.718 107.897C219.038 111.477 213.368 115.067 207.628 118.567C205.983 119.438 204.291 120.216 202.558 120.897V120.897ZM233.088 79.5368C236.538 83.6568 240.088 84.4368 243.688 81.1068C246.442 78.3685 248.905 75.3524 251.038 72.1068C251.536 71.3808 251.73 70.4888 251.578 69.6217C251.427 68.7546 250.942 67.9812 250.228 67.4668C249.869 67.1842 249.457 66.9756 249.016 66.8533C248.575 66.7309 248.115 66.697 247.661 66.7538C247.207 66.8105 246.769 66.9566 246.372 67.1837C245.975 67.4108 245.627 67.7143 245.348 68.0768C243.968 69.6168 242.838 71.3968 241.558 73.0768C241.048 73.7368 240.428 74.3067 239.858 74.9167C239.494 73.5058 239.312 72.054 239.318 70.5968C239.178 68.6968 238.558 67.0168 236.518 66.3568C234.688 65.7768 233.178 66.4467 231.688 68.5167C230.198 70.5867 228.598 72.9968 227.008 75.1968C226.562 75.6608 226.066 76.0734 225.528 76.4268C225.428 75.4268 225.338 74.7867 225.308 74.1667C225.308 73.3467 225.308 72.5268 225.248 71.7168C225.128 69.0968 224.138 67.4968 222.348 66.9768C220.558 66.4568 219.138 67.1868 217.598 69.3168C216.958 70.1968 216.368 71.1067 215.738 71.9967L211.978 77.2868C210.868 75.2267 211.168 73.4668 211.358 71.6868C211.598 69.3468 210.528 67.6868 208.628 67.3268C206.728 66.9668 204.878 68.0867 204.368 70.5067C203.633 73.6147 203.863 76.8731 205.028 79.8468C207.188 85.0368 212.598 86.2668 216.758 82.5167C217.455 81.7459 218.075 80.9085 218.608 80.0167C222.748 86.1868 226.748 85.9068 233.088 79.5368Z" fill="white"/>
<path d="M210.447 165.927C214.077 164.247 217.367 162.747 220.637 161.207C221.484 160.801 222.222 160.199 222.79 159.451C223.359 158.703 223.742 157.832 223.907 156.907C225.059 152.233 227.051 147.808 229.787 143.847C234.877 136.927 240.467 137.137 245.007 144.397C248.007 149.187 249.417 154.537 250.227 160.027C251.816 170.017 250.92 180.245 247.617 189.807C246.334 193.086 244.75 196.239 242.887 199.227C242.04 200.518 240.95 201.632 239.677 202.507C236.507 204.887 233.287 204.847 230.677 201.937C228.704 199.703 227.073 197.189 225.837 194.477C223.572 189.214 222.307 183.574 222.107 177.847C222.097 176.946 221.877 176.061 221.463 175.26C221.05 174.46 220.456 173.767 219.727 173.237C217.061 171.19 214.394 169.137 211.727 167.077C211.287 166.797 210.957 166.387 210.447 165.927ZM232.917 166.067V170.567C232.917 172.197 232.817 173.837 232.917 175.457C232.953 176.373 233.344 177.24 234.006 177.874C234.668 178.508 235.55 178.861 236.467 178.857C237.33 178.779 238.14 178.409 238.765 177.81C239.39 177.21 239.793 176.416 239.907 175.557C239.956 175.199 239.979 174.838 239.977 174.477C240.151 168.877 240.314 163.27 240.467 157.657C240.523 156.755 240.483 155.85 240.347 154.957C240.236 154.135 239.833 153.38 239.212 152.829C238.592 152.278 237.794 151.968 236.964 151.955C236.135 151.942 235.328 152.226 234.69 152.757C234.052 153.287 233.625 154.029 233.487 154.847C233.383 155.381 233.33 155.923 233.327 156.467C233.207 159.537 233.077 162.607 232.917 166.067V166.067ZM235.117 191.687C235.593 191.695 236.066 191.608 236.507 191.43C236.949 191.252 237.35 190.988 237.688 190.652C238.025 190.316 238.292 189.916 238.472 189.476C238.653 189.035 238.743 188.563 238.737 188.087C238.674 187.133 238.253 186.238 237.557 185.581C236.862 184.925 235.944 184.555 234.987 184.547C234.078 184.587 233.216 184.966 232.574 185.611C231.931 186.255 231.554 187.118 231.517 188.027C231.525 188.985 231.905 189.903 232.576 190.586C233.248 191.269 234.159 191.664 235.117 191.687V191.687Z" fill="#979FBB"/>
<path d="M73.6973 192.046C73.8273 190.216 74.0072 187.146 74.2872 184.046C74.637 180.876 75.7225 177.832 77.4573 175.156C78.9773 172.686 80.6273 170.286 82.0673 167.776C84.208 163.942 87.4187 160.815 91.3072 158.776C95.5772 156.526 99.8173 154.236 104.707 153.776C106.957 153.546 109.247 153.776 111.497 153.576C113.374 153.349 115.232 152.988 117.057 152.496C119.21 151.812 121.396 151.238 123.607 150.776C125.681 150.461 127.797 150.583 129.82 151.134C131.844 151.685 133.73 152.653 135.357 153.976C138.647 156.546 141.967 159.076 145.297 161.596C149.602 164.965 153.134 169.217 155.657 174.066C157.467 177.356 157.777 180.966 157.657 184.626C157.635 185.171 157.52 185.709 157.317 186.216C154.537 193.796 150.097 199.796 141.827 201.896C137.216 203.156 132.543 204.177 127.827 204.956C120.184 206 112.77 208.323 105.897 211.826C98.5772 215.596 90.8972 215.826 83.1372 213.826C78.4772 212.626 74.7472 209.156 74.3872 203.626C74.1572 200.196 73.9773 196.796 73.6973 192.046ZM141.647 168.226C139.257 165.996 139.117 165.956 137.077 167.586C136.226 168.262 135.445 169.023 134.747 169.856C132.747 172.346 129.877 173.596 126.997 174.706C126.282 175.022 125.478 175.072 124.729 174.847C123.981 174.621 123.338 174.135 122.917 173.476C122.439 172.802 122.219 171.978 122.298 171.156C122.377 170.333 122.749 169.566 123.347 168.996C123.945 168.318 124.696 167.794 125.537 167.466C128.777 166.466 130.537 163.696 132.917 161.386C132.017 160.646 131.297 159.966 130.487 159.386C127.097 157.096 125.787 157.636 124.997 161.616C124.927 161.966 124.917 162.336 124.817 162.686C123.297 167.746 120.547 171.466 114.817 172.026C113.587 172.146 112.377 172.426 111.197 172.626C110.893 181.937 112.45 191.215 115.777 199.916L131.957 196.916C131.787 196.166 131.647 195.646 131.547 195.116C130.947 192.116 129.857 189.596 126.257 189.226C125.468 189.032 124.722 188.692 124.057 188.226C123.177 187.746 122.327 187.226 120.997 186.416C121.297 187.756 121.487 188.416 121.607 189.126C121.81 189.879 121.75 190.678 121.435 191.392C121.12 192.105 120.57 192.689 119.877 193.046C119.126 193.387 118.281 193.458 117.483 193.249C116.685 193.039 115.984 192.562 115.497 191.896C114.331 190.37 113.721 188.491 113.768 186.57C113.815 184.65 114.517 182.803 115.757 181.336C118.677 177.966 121.237 177.706 125.297 180.336C125.827 180.686 126.297 181.106 126.867 181.406C127.619 181.912 128.446 182.297 129.317 182.546C134.317 183.546 136.797 186.916 138.037 191.546C138.357 192.746 138.787 193.916 139.277 195.406L145.067 192.586L145.367 192.086C139.237 190.916 138.117 186.246 137.197 181.376C136.217 176.206 137.757 171.896 141.647 168.226V168.226ZM99.1873 206.676C97.4073 202.906 94.1872 201.356 90.0572 202.266C87.9306 202.739 86.4672 202.159 85.6672 200.526C85.2638 199.745 85.1813 198.838 85.4373 197.997C85.6932 197.157 86.2673 196.449 87.0372 196.026C88.3545 195.087 89.9119 194.542 91.5272 194.456C97.1272 194.796 101.887 196.966 105.017 201.916C105.387 202.516 105.827 203.076 106.327 203.786L108.657 202.536C107.097 195.626 105.107 188.996 104.217 182.216C103.253 175.364 103.283 168.409 104.307 161.566C103.827 161.494 103.338 161.494 102.857 161.566C96.2572 164.046 94.4872 164.236 97.2572 171.986C98.0747 174.185 98.779 176.425 99.3672 178.696C100.757 184.316 97.5573 188.096 93.8173 189.856C92.7166 190.274 91.7004 190.887 90.8173 191.666C88.2673 194.356 85.3473 195.776 81.1873 194.786C81.3573 197.726 81.4273 200.426 81.6973 203.106C81.7395 204.074 82.1318 204.994 82.8013 205.695C83.4708 206.396 84.3719 206.83 85.3373 206.916C87.1173 207.236 88.8873 207.696 90.6873 207.836C93.5873 208.066 96.4873 208.056 99.1873 206.676ZM89.2672 171.006L88.6072 170.806C86.5172 174.376 84.3672 177.906 82.3572 181.526C81.8584 182.593 81.5214 183.729 81.3572 184.896C81.2654 185.128 81.2206 185.375 81.2253 185.624C81.2301 185.873 81.2843 186.119 81.3848 186.347C81.4853 186.575 81.63 186.781 81.8107 186.952C81.9914 187.124 82.2044 187.257 82.4373 187.346C82.9035 187.607 83.444 187.704 83.9719 187.62C84.4998 187.537 84.9843 187.278 85.3473 186.886C86.7177 185.733 88.2059 184.727 89.7872 183.886C92.3472 182.486 92.8872 181.676 92.0372 178.886C91.1872 176.096 90.2172 173.616 89.2872 171.006H89.2672ZM146.637 173.586C143.857 176.746 143.387 180.586 145.207 183.746C145.747 184.686 148.207 185.656 149.277 185.216C150.607 184.636 150.547 183.446 150.467 182.216C150.228 178.983 148.875 175.932 146.637 173.586V173.586ZM117.637 160.306C112.947 161.166 112.077 161.806 111.467 164.876C114.797 165.566 117.547 164.126 117.677 160.306H117.637Z" fill="#3558A2"/>
<path d="M160.519 137.947C160.602 136.991 161.042 136.102 161.752 135.457C162.462 134.812 163.389 134.458 164.349 134.467C164.824 134.505 165.287 134.636 165.712 134.854C166.136 135.072 166.513 135.372 166.821 135.737C167.129 136.101 167.361 136.523 167.505 136.978C167.649 137.433 167.701 137.912 167.659 138.387C167.653 138.863 167.55 139.333 167.357 139.769C167.164 140.204 166.885 140.596 166.536 140.92C166.188 141.245 165.777 141.495 165.328 141.656C164.88 141.817 164.404 141.885 163.929 141.857C162.975 141.747 162.097 141.286 161.466 140.562C160.835 139.839 160.497 138.906 160.519 137.947Z" fill="#3558A2"/>
<path d="M172.598 152.876C172.634 153.781 172.318 154.666 171.715 155.343C171.113 156.02 170.271 156.437 169.368 156.506C168.37 156.473 167.422 156.058 166.721 155.348C166.02 154.637 165.618 153.684 165.598 152.686C165.567 151.778 165.892 150.895 166.502 150.223C167.113 149.55 167.961 149.143 168.868 149.086C169.363 149.085 169.854 149.182 170.311 149.373C170.768 149.563 171.182 149.844 171.53 150.197C171.877 150.55 172.15 150.968 172.334 151.428C172.517 151.889 172.607 152.381 172.598 152.876V152.876Z" fill="#3558A2"/>
<path d="M173.779 164.296C174.229 164.283 174.677 164.36 175.097 164.521C175.518 164.683 175.902 164.927 176.226 165.239C176.551 165.551 176.811 165.925 176.99 166.338C177.169 166.751 177.264 167.196 177.269 167.646C177.279 168.098 177.199 168.547 177.036 168.968C176.872 169.389 176.627 169.774 176.314 170.101C176.002 170.427 175.628 170.689 175.214 170.871C174.801 171.053 174.355 171.151 173.904 171.161C173.452 171.171 173.003 171.092 172.582 170.928C172.16 170.764 171.776 170.519 171.449 170.207C171.123 169.894 170.861 169.52 170.679 169.107C170.497 168.693 170.399 168.248 170.389 167.796C170.393 166.888 170.749 166.017 171.38 165.365C172.012 164.713 172.871 164.33 173.779 164.296Z" fill="#3558A2"/>
<path d="M152.758 140.446C152.762 141.353 152.418 142.227 151.797 142.887C151.175 143.548 150.324 143.945 149.418 143.996C148.51 143.972 147.645 143.607 146.994 142.973C146.343 142.339 145.956 141.483 145.908 140.576C145.92 139.668 146.279 138.798 146.911 138.145C147.543 137.493 148.401 137.107 149.308 137.066C149.759 137.052 150.208 137.13 150.628 137.294C151.048 137.459 151.431 137.706 151.753 138.022C152.075 138.337 152.33 138.715 152.503 139.131C152.676 139.548 152.762 139.995 152.758 140.446V140.446Z" fill="#3558A2"/>
<path d="M156.197 154.567C156.203 154.995 156.122 155.419 155.961 155.815C155.799 156.212 155.56 156.572 155.257 156.874C154.954 157.176 154.593 157.414 154.197 157.574C153.8 157.735 153.375 157.814 152.947 157.807C152.075 157.794 151.243 157.434 150.636 156.808C150.028 156.182 149.694 155.34 149.707 154.467C149.721 153.594 150.08 152.763 150.706 152.155C151.333 151.548 152.175 151.214 153.047 151.227C153.908 151.253 154.722 151.619 155.313 152.246C155.904 152.872 156.222 153.707 156.197 154.567Z" fill="#3558A2"/>
<path d="M184.657 196.337C184.639 196.99 184.427 197.623 184.049 198.156C183.671 198.689 183.143 199.097 182.532 199.329C181.922 199.562 181.256 199.608 180.619 199.461C179.982 199.315 179.403 198.983 178.955 198.507C178.508 198.031 178.211 197.433 178.104 196.788C177.996 196.144 178.082 195.482 178.351 194.887C178.62 194.291 179.06 193.789 179.615 193.444C180.17 193.098 180.814 192.926 181.467 192.947C182.337 192.981 183.159 193.355 183.756 193.989C184.353 194.623 184.676 195.467 184.657 196.337Z" fill="#3558A2"/>
<path d="M181.289 181.797C181.309 182.224 181.242 182.652 181.092 183.053C180.942 183.454 180.711 183.82 180.414 184.129C180.117 184.438 179.761 184.683 179.366 184.849C178.972 185.016 178.547 185.1 178.119 185.097C177.298 185.095 176.507 184.786 175.902 184.231C175.297 183.676 174.921 182.915 174.849 182.097C174.825 181.234 175.13 180.394 175.702 179.748C176.273 179.102 177.07 178.697 177.929 178.617C178.358 178.605 178.786 178.677 179.187 178.831C179.589 178.984 179.956 179.215 180.268 179.51C180.58 179.806 180.831 180.16 181.006 180.552C181.181 180.944 181.277 181.367 181.289 181.797V181.797Z" fill="#3558A2"/>
<path d="M233.089 79.5356C226.749 85.9056 222.749 86.1857 218.609 79.9757C218.075 80.8675 217.456 81.7048 216.759 82.4757C212.599 86.2257 207.189 84.9956 205.029 79.8056C203.864 76.8319 203.634 73.5737 204.369 70.4657C204.879 68.0457 206.599 66.8757 208.629 67.2857C210.659 67.6957 211.629 69.2856 211.359 71.6456C211.169 73.4256 210.869 75.1856 211.979 77.2456L215.739 71.9557C216.369 71.0657 216.959 70.1556 217.599 69.2756C219.139 67.1456 220.599 66.4357 222.349 66.9357C224.099 67.4357 225.129 69.0557 225.249 71.6757C225.249 72.4857 225.249 73.3056 225.309 74.1256C225.309 74.7456 225.429 75.3756 225.529 76.3856C226.067 76.0322 226.563 75.6196 227.009 75.1556C228.599 72.9556 230.099 70.6857 231.689 68.4757C233.279 66.2657 234.689 65.7357 236.519 66.3157C238.519 66.9757 239.179 68.6557 239.319 70.5557C239.313 72.0129 239.494 73.4647 239.859 74.8756C240.429 74.2656 241.049 73.6956 241.559 73.0356C242.839 71.3956 243.969 69.6157 245.349 68.0357C245.628 67.6732 245.976 67.3697 246.373 67.1426C246.77 66.9155 247.208 66.7694 247.662 66.7127C248.115 66.6559 248.576 66.6898 249.017 66.8121C249.457 66.9345 249.869 67.1431 250.229 67.4257C250.943 67.9401 251.428 68.7136 251.579 69.5807C251.73 70.4478 251.537 71.3397 251.039 72.0657C248.906 75.3113 246.443 78.3273 243.689 81.0657C240.039 84.4356 236.539 83.6556 233.089 79.5356Z" fill="#3558A2"/>
<path d="M232.918 166.066C233.078 162.606 233.208 159.536 233.358 156.466C233.361 155.922 233.415 155.38 233.518 154.846C233.656 154.028 234.083 153.286 234.721 152.755C235.359 152.225 236.166 151.94 236.996 151.954C237.825 151.967 238.623 152.277 239.243 152.828C239.864 153.379 240.267 154.134 240.378 154.956C240.514 155.849 240.554 156.754 240.498 157.656C240.345 163.269 240.182 168.876 240.008 174.476C240.01 174.837 239.987 175.198 239.938 175.556C239.824 176.414 239.421 177.208 238.796 177.808C238.171 178.408 237.361 178.777 236.498 178.856C235.581 178.859 234.699 178.506 234.037 177.872C233.375 177.238 232.985 176.372 232.948 175.456C232.818 173.836 232.948 172.196 232.948 170.566L232.918 166.066Z" fill="#3558A2"/>
<path d="M235.118 191.687C234.16 191.664 233.249 191.269 232.577 190.586C231.905 189.903 231.525 188.985 231.518 188.027C231.554 187.117 231.931 186.255 232.574 185.61C233.217 184.966 234.078 184.586 234.988 184.547C235.944 184.555 236.862 184.924 237.557 185.581C238.253 186.237 238.674 187.133 238.738 188.087C238.743 188.563 238.653 189.035 238.473 189.476C238.292 189.916 238.026 190.316 237.688 190.652C237.351 190.987 236.949 191.252 236.508 191.43C236.066 191.608 235.593 191.695 235.118 191.687V191.687Z" fill="#3558A2"/>
<path d="M141.648 168.227C137.758 171.897 136.218 176.227 137.188 181.367C138.108 186.237 139.188 190.907 145.358 192.077L145.058 192.577L139.268 195.397C138.778 193.907 138.348 192.737 138.028 191.537C136.788 186.917 134.358 183.537 129.308 182.537C128.436 182.288 127.61 181.903 126.858 181.397C126.308 181.097 125.858 180.677 125.288 180.327C121.228 177.667 118.668 177.927 115.748 181.327C114.508 182.794 113.806 184.641 113.759 186.561C113.711 188.482 114.321 190.361 115.488 191.887C115.975 192.553 116.676 193.03 117.474 193.24C118.271 193.449 119.117 193.378 119.868 193.037C120.561 192.68 121.111 192.096 121.425 191.383C121.74 190.669 121.801 189.87 121.598 189.117C121.478 188.427 121.288 187.747 120.988 186.407C122.318 187.197 123.168 187.737 124.048 188.217C124.713 188.684 125.459 189.023 126.248 189.217C129.848 189.587 130.938 192.097 131.538 195.107C131.638 195.637 131.778 196.107 131.948 196.907L115.768 199.907C112.44 191.206 110.883 181.928 111.188 172.617C112.368 172.417 113.578 172.137 114.808 172.017C120.548 171.457 123.298 167.737 124.808 162.677C124.908 162.327 124.918 161.957 124.988 161.607C125.778 157.607 127.088 157.087 130.478 159.377C131.288 159.917 132.008 160.597 132.908 161.377C130.498 163.687 128.768 166.377 125.528 167.457C124.686 167.785 123.935 168.309 123.338 168.987C122.74 169.557 122.367 170.324 122.288 171.147C122.21 171.97 122.429 172.793 122.908 173.467C123.329 174.126 123.971 174.612 124.72 174.838C125.468 175.064 126.273 175.014 126.988 174.697C129.868 173.587 132.688 172.337 134.738 169.847C135.436 169.014 136.217 168.253 137.068 167.577C139.118 165.957 139.288 165.997 141.648 168.227Z" fill="white"/>
<path d="M99.1873 206.677C96.4873 208.057 93.5873 208.067 90.6973 207.847C88.8973 207.707 87.1273 207.247 85.3473 206.927C84.382 206.841 83.4808 206.407 82.8113 205.706C82.1418 205.005 81.7495 204.085 81.7073 203.117C81.4373 200.437 81.3673 197.737 81.1973 194.797C85.3573 195.797 88.2773 194.367 90.8273 191.677C91.7104 190.898 92.7267 190.285 93.8273 189.867C97.5673 188.107 100.767 184.327 99.3772 178.707C98.789 176.436 98.0847 174.196 97.2672 171.997C94.4972 164.247 96.2672 164.057 102.867 161.577C103.348 161.505 103.837 161.505 104.317 161.577C103.293 168.42 103.262 175.375 104.227 182.227C105.117 189.007 107.107 195.637 108.667 202.547L106.287 203.797C105.787 203.087 105.347 202.527 104.977 201.927C101.847 196.977 97.0872 194.807 91.4872 194.467C89.8718 194.554 88.3145 195.098 86.9972 196.037C86.2272 196.46 85.6531 197.168 85.3972 198.008C85.1413 198.849 85.2238 199.756 85.6272 200.537C86.4272 202.164 87.8905 202.744 90.0172 202.277C94.1572 201.357 97.4073 202.907 99.1873 206.677Z" fill="white"/>
<path d="M89.2872 171.005C90.2872 173.615 91.2871 176.205 92.1071 178.865C92.9271 181.525 92.4171 182.445 89.8571 183.865C88.2758 184.706 86.7876 185.712 85.4172 186.865C85.0542 187.258 84.5698 187.516 84.042 187.6C83.5141 187.683 82.9734 187.587 82.5072 187.325C82.2743 187.237 82.0614 187.103 81.8807 186.931C81.7 186.76 81.5552 186.554 81.4547 186.326C81.3542 186.098 81.3 185.853 81.2953 185.604C81.2905 185.355 81.3354 185.107 81.4272 184.875C81.5914 183.709 81.9285 182.573 82.4272 181.505C84.4272 177.885 86.5872 174.355 88.6772 170.785L89.2872 171.005Z" fill="white"/>
<path d="M146.639 173.586C148.876 175.932 150.23 178.982 150.469 182.216C150.549 183.446 150.609 184.636 149.279 185.216C148.279 185.656 145.749 184.686 145.209 183.746C143.389 180.576 143.859 176.796 146.639 173.586Z" fill="white"/>
<path d="M117.678 160.307C117.548 164.127 114.798 165.566 111.508 164.876C112.118 161.797 112.988 161.167 117.678 160.307Z" fill="white"/>
</svg>
