<svg width="300" height="300" viewBox="0 0 300 300" fill="none" xmlns="http://www.w3.org/2000/svg">
<path d="M107.025 104.241C107.175 103.421 107.305 102.811 107.385 102.241C107.935 97.8306 108.385 93.4106 109.055 89.0106C109.895 83.3406 113.055 79.1906 117.955 76.3306C121.918 74.0745 126.295 72.6425 130.825 72.1206C138.195 71.1206 145.595 70.3706 152.995 69.5806C155.245 69.3306 157.515 69.2206 159.785 69.1906C165.345 69.1206 169.115 72.3106 172.215 76.4306C175.605 80.9106 177.315 86.2206 179.215 91.4306C179.615 92.5206 179.925 93.6406 180.295 94.8206C181.125 94.7606 181.745 94.7506 182.355 94.6706C193.965 93.1806 205.565 91.6706 217.185 90.2406C219.073 90.1708 220.963 90.2948 222.825 90.6106C225.325 90.8506 226.405 92.4506 226.735 94.7706C227.285 98.6406 227.875 102.501 228.395 106.371C231.222 127.511 234.045 148.654 236.865 169.801C238.559 182.467 240.242 195.154 241.915 207.861C242.375 211.351 241.175 212.981 237.675 213.511C224.035 215.591 210.385 217.611 196.745 219.681C181.765 221.941 166.765 224.221 151.745 226.521L111.085 232.691C102.195 234.031 93.3054 235.341 84.4254 236.691C83.2754 236.871 82.2054 237.471 81.0654 237.691C79.7554 237.961 78.2654 238.501 77.0654 238.131C74.1291 237.22 71.2888 236.024 68.5853 234.561C66.0653 233.171 64.9554 230.561 64.4054 227.801C63.1154 221.401 61.7854 215.001 60.8054 208.551C59.3654 199.137 58.0954 189.701 56.9954 180.241C55.7554 169.701 54.5953 159.141 53.7153 148.571C53.0353 140.571 52.8453 132.451 52.4453 124.391C52.4453 123.851 52.4453 123.301 52.4453 122.751C52.6853 113.841 55.0754 113.301 60.9854 111.151C65.6154 109.461 70.3954 109.241 75.1354 108.571C85.1354 107.151 95.1354 105.951 105.135 104.651C105.745 104.561 106.255 104.401 107.025 104.241ZM173.175 147.991C173.055 149.141 172.965 149.991 172.895 150.751C172.305 156.811 169.315 160.361 163.415 161.901C161.835 162.301 160.215 162.591 158.605 162.831C155.025 163.371 151.435 163.901 147.835 164.341C143.695 164.851 139.555 165.431 135.405 165.681C130.505 165.971 126.825 163.791 124.515 159.421C123.715 157.911 122.995 156.351 122.105 154.541L71.7554 160.981C75.3054 184.081 78.7553 206.881 82.3353 229.921L234.335 206.511C231.445 184.651 228.605 163.191 225.715 141.301L173.175 147.991ZM70.6654 153.991C84.2954 152.991 222.115 134.691 224.665 133.561C223.105 121.561 221.545 109.561 219.985 97.6806C219.608 97.5629 219.219 97.4891 218.825 97.4606C168.445 103.854 118.065 110.271 67.6854 116.711C67.2353 116.752 66.7879 116.819 66.3453 116.911C66.0863 116.991 65.8353 117.094 65.5953 117.221C65.5181 117.264 65.4502 117.321 65.3954 117.391C65.2706 117.577 65.1571 117.771 65.0554 117.971L70.6654 153.991ZM172.915 95.7106C170.995 90.2506 169.335 85.0906 166.155 80.5906C165.905 80.2206 165.555 79.9106 165.275 79.5906C163.275 76.9606 160.535 76.2306 157.275 76.5906C149.175 77.5206 141.055 78.2906 132.955 79.2106C129.066 79.6175 125.29 80.7684 121.835 82.6006C120.322 83.347 119.009 84.4459 118.009 85.805C117.008 87.1641 116.348 88.7436 116.085 90.4106C115.505 93.9806 115.085 97.5906 114.615 101.181C114.596 101.869 114.636 102.559 114.735 103.241C115.435 103.241 115.885 103.241 116.325 103.241C119.165 102.911 119.145 103.021 119.505 100.241C120.028 96.6461 121.208 93.1784 122.985 90.0106C123.701 88.537 124.713 87.2273 125.959 86.1638C127.205 85.1003 128.658 84.3059 130.225 83.8306C137.603 81.5574 145.311 80.5432 153.025 80.8306C159.135 81.1306 163.485 83.9206 165.945 89.6106C166.945 91.8306 168.065 93.9606 169.125 96.1206C169.915 96.1206 170.545 96.1206 171.125 96.1206C171.729 96.0187 172.327 95.8819 172.915 95.7106V95.7106ZM126.705 101.431C129.615 101.731 159.445 97.7706 161.395 96.8406L158.705 91.5506C158.233 90.6191 157.52 89.8305 156.641 89.2663C155.763 88.702 154.749 88.3824 153.705 88.3406C146.645 87.5206 139.815 88.8006 133.075 90.6406C131.709 91.0886 130.532 91.9832 129.735 93.1806C128.1 95.6442 127.063 98.4554 126.705 101.391V101.431ZM74.9054 228.921C70.4354 199.731 66.0054 170.781 61.5654 141.831H61.0154C61.0154 142.691 60.9554 143.551 61.0154 144.401C61.4254 149.461 61.7954 154.521 62.3054 159.571C63.1454 167.861 63.9554 176.161 65.0054 184.431C66.3054 194.771 67.7754 205.101 69.3154 215.431C69.8454 219.011 70.7453 222.531 71.5853 226.061C71.9253 227.411 72.4154 228.861 74.9054 228.881V228.921ZM129.855 153.621C131.705 157.921 132.435 158.411 136.385 158.341C137.024 158.347 137.661 158.314 138.295 158.241C142.789 157.614 147.275 156.974 151.755 156.321C155.075 155.841 158.425 155.501 161.685 154.781C164.765 154.121 165.425 152.911 165.305 149.131C153.525 150.421 141.815 152.001 129.855 153.581V153.621Z" fill="#3558A2"/>
<path d="M58.9153 82.272C58.5553 82.842 57.9152 83.9219 57.2352 84.9419C55.3452 87.7119 53.2353 90.352 51.5653 93.232C49.2211 97.3276 47.6484 101.819 46.9253 106.482C46.9253 106.662 46.8752 106.842 46.8352 107.022C46.3152 109.442 45.0952 110.832 43.3252 111.022C41.5552 111.212 39.9253 110.022 39.0053 107.612C38.1753 105.402 37.3653 103.192 36.5253 101.002C34.6053 96.0019 30.5253 93.482 25.8153 91.652C25.4853 91.522 25.1053 91.5119 24.8153 91.3819C21.8153 90.1919 21.0852 87.182 23.2452 84.802C24.5067 83.4838 25.8422 82.2384 27.2452 81.0719C31.3032 77.6367 33.8994 72.784 34.5053 67.5019C34.7464 66.0861 35.3299 64.7507 36.2052 63.612C36.5048 63.1491 36.9086 62.7629 37.3843 62.4842C37.86 62.2055 38.3944 62.0421 38.9446 62.0071C39.4948 61.9721 40.0456 62.0665 40.5527 62.2826C41.0599 62.4988 41.5095 62.8308 41.8652 63.2519C43.0593 64.4918 44.0939 65.8758 44.9452 67.3719C47.5463 71.7559 51.3689 75.2866 55.9452 77.532C57.9952 78.602 59.0053 79.962 58.9153 82.272ZM49.2453 82.5619L40.2453 74.5619C38.9353 79.4519 35.6952 82.8719 32.4552 86.3119C34.3314 87.5484 36.1406 88.8837 37.8753 90.3119C39.4095 91.851 40.8615 93.47 42.2252 95.162C44.5552 90.922 46.8453 86.8319 49.2553 82.5619H49.2453Z" fill="#3558A2"/>
<path d="M248.635 141.792C248.225 141.792 247.635 141.792 247.135 141.792C246.518 141.788 245.915 141.617 245.388 141.298C244.861 140.978 244.43 140.522 244.142 139.977C243.854 139.433 243.719 138.82 243.751 138.205C243.783 137.589 243.981 136.994 244.324 136.482C244.812 135.719 245.424 135.043 246.135 134.482C250.415 130.832 252.284 126.102 252.494 120.592C252.501 118.961 252.597 117.332 252.785 115.712C252.84 114.841 253.217 114.021 253.84 113.41C254.464 112.799 255.292 112.44 256.165 112.402C256.997 112.354 257.819 112.61 258.476 113.124C259.133 113.637 259.58 114.373 259.734 115.192C261.354 122.642 267.354 126.072 272.944 129.892C273.834 130.502 274.944 130.892 275.824 131.422C278.824 133.252 279.115 136.172 276.535 138.632C275.811 139.321 275.046 139.965 274.244 140.562C271.022 142.99 268.87 146.576 268.244 150.562C267.804 152.962 267.544 155.402 267.244 157.812C267.132 159.073 266.921 160.324 266.614 161.552C266.412 162.259 265.986 162.882 265.4 163.327C264.814 163.772 264.1 164.016 263.364 164.022C262.68 164.099 261.988 163.958 261.388 163.619C260.788 163.279 260.311 162.759 260.025 162.132C259.632 161.322 259.324 160.475 259.104 159.602C258.104 156.022 257.185 152.422 256.165 148.852C255.797 147.546 255.315 146.274 254.724 145.052C253.474 142.632 251.645 141.212 248.635 141.792ZM258.864 128.382L255.435 135.382C258.489 137.415 260.865 140.316 262.255 143.712L268.015 135.802L258.864 128.382Z" fill="#3558A2"/>
<path d="M173.175 147.991L225.665 141.301C228.555 163.191 231.395 184.651 234.285 206.511L82.2852 229.921C78.7552 206.921 75.2851 184.081 71.7051 160.981L122.055 154.541C122.945 156.351 123.665 157.911 124.465 159.421C126.775 163.791 130.465 165.971 135.355 165.681C139.505 165.431 143.645 164.851 147.785 164.341C151.385 163.901 154.975 163.341 158.555 162.831C160.165 162.591 161.785 162.301 163.365 161.901C169.265 160.361 172.255 156.811 172.845 150.751C172.965 149.941 173.055 149.141 173.175 147.991Z" fill="#EAECF1"/>
<path d="M70.6647 153.98L65.0547 117.98C65.1563 117.78 65.2698 117.587 65.3947 117.4C65.4495 117.331 65.5174 117.273 65.5946 117.23C65.8345 117.104 66.0856 117 66.3446 116.92C66.7871 116.828 67.2346 116.762 67.6847 116.72C118.051 110.3 168.425 103.89 218.805 97.4902C219.199 97.5188 219.588 97.5926 219.965 97.7102C221.525 109.63 223.085 121.64 224.645 133.59C222.115 134.71 84.2547 152.94 70.6647 153.98Z" fill="white"/>
<path d="M172.916 95.7121C172.354 95.8737 171.783 96.0039 171.206 96.1022C170.586 96.1022 169.956 96.1022 169.206 96.1022C168.146 93.9422 166.976 91.8122 166.026 89.5922C163.566 83.9022 159.216 81.1122 153.106 80.8122C145.392 80.5248 137.684 81.539 130.306 83.8122C128.739 84.2875 127.286 85.0818 126.04 86.1454C124.794 87.2089 123.782 88.5186 123.066 89.9922C121.289 93.16 120.109 96.6276 119.586 100.222C119.226 102.982 119.246 102.872 116.406 103.222C115.966 103.222 115.516 103.222 114.816 103.222C114.717 102.54 114.677 101.851 114.696 101.162C115.146 97.5721 115.586 93.9621 116.166 90.3922C116.429 88.7251 117.089 87.1456 118.09 85.7865C119.09 84.4275 120.402 83.3286 121.916 82.5822C125.371 80.75 129.146 79.5991 133.036 79.1922C141.136 78.2722 149.256 77.5022 157.356 76.5722C160.576 76.2022 163.276 76.9322 165.356 79.5722C165.636 79.9322 165.986 80.2422 166.236 80.5722C169.336 85.0522 170.996 90.2122 172.916 95.7121Z" fill="#979FBB"/>
<path d="M74.9053 228.881C72.4153 228.881 71.9052 227.411 71.5952 226.011C70.7552 222.481 69.8552 219.011 69.3252 215.381C67.7852 205.071 66.3252 194.741 65.0152 184.381C64.0152 176.111 63.1553 167.811 62.3153 159.521C61.8053 154.471 61.4353 149.411 61.0253 144.351C60.9553 143.501 61.0253 142.641 61.0253 141.781H61.5752C66.0052 170.711 70.4353 199.711 74.9053 228.881Z" fill="white"/>
<path d="M129.855 153.582C141.855 152.002 153.526 150.422 165.306 149.092C165.426 152.872 164.766 154.092 161.686 154.742C158.426 155.462 155.075 155.802 151.755 156.282C147.262 156.949 142.776 157.588 138.296 158.202C137.662 158.275 137.024 158.309 136.385 158.302C132.435 158.372 131.705 157.882 129.855 153.582Z" fill="#979FBB"/>
<path d="M49.2544 82.561C46.8544 86.831 44.5644 90.921 42.2544 95.141C40.8906 93.449 39.4387 91.8301 37.9044 90.291C36.1698 88.8627 34.3605 87.5275 32.4844 86.291C35.7244 82.851 38.9644 79.431 40.2744 74.541L49.2544 82.561Z" fill="white"/>
<path d="M258.866 128.381L268.026 135.811L262.256 143.711C260.858 140.325 258.479 137.434 255.426 135.411L258.866 128.381Z" fill="white"/>
</svg>
