<svg width="300" height="300" viewBox="0 0 300 300" fill="none" xmlns="http://www.w3.org/2000/svg">
<path d="M255.671 169.019C255.471 173.279 254.127 177.407 251.781 180.969C246.531 189.669 233.981 191.969 225.581 184.229C222.716 181.824 220.559 178.685 219.341 175.149C219.182 174.733 219.002 174.326 218.801 173.929C202.041 176.089 185.301 178.369 168.561 180.619C151.821 182.869 135.231 185.039 118.371 187.269C118.181 188.139 117.901 188.989 117.801 189.859C117.51 192.283 116.732 194.624 115.513 196.74C114.294 198.856 112.66 200.704 110.708 202.171C108.757 203.639 106.528 204.697 104.157 205.281C101.786 205.864 99.3209 205.962 96.9108 205.569C89.7608 204.569 85.0508 200.059 83.0108 192.999C82.8908 192.579 82.8008 192.159 82.6408 191.509C81.2108 191.619 79.8609 191.629 78.5509 191.849C73.4609 192.709 70.0808 191.179 67.5008 186.899C64.8624 182.664 62.8862 178.05 61.6408 173.219C60.6408 169.279 59.4108 165.389 58.6408 161.409C57.6408 156.409 57.0608 151.409 56.2308 146.409C55.5091 142.764 55.1739 139.054 55.2308 135.339C55.253 133.258 55.4572 131.184 55.8409 129.139C56.9209 124.239 60.1809 121.139 64.6809 119.139C70.0377 116.927 75.6212 115.311 81.3309 114.319C90.0309 112.679 98.7808 111.259 107.521 109.849C113.771 108.849 120.051 108.069 126.311 107.109C131.401 106.339 136.471 105.409 141.561 104.609C144.511 104.149 147.481 103.839 150.431 103.399C155.611 102.609 160.791 101.749 165.971 100.959C170.441 100.269 174.901 99.5687 179.381 98.9587C185.031 98.2187 190.691 97.5087 196.381 96.9087C202.771 96.2387 209.181 95.7087 215.581 95.0987C221.581 94.5187 227.661 93.7187 233.741 94.0987C236.361 94.1813 238.966 94.5399 241.511 95.1687C250.581 97.7087 257.951 102.549 262.601 111.099C264.991 115.773 266.839 120.705 268.111 125.799C269.611 131.199 271.111 136.589 272.441 142.039C273.821 147.829 274.901 153.699 276.201 159.519C276.48 161.186 276.089 162.896 275.113 164.276C274.137 165.656 272.656 166.595 270.991 166.889C267.851 167.329 264.711 167.669 261.571 168.089C259.641 168.399 257.781 168.709 255.671 169.019ZM199.271 169.089C199.011 166.719 198.751 164.659 198.571 162.599C197.961 155.739 197.391 148.879 196.791 142.029C196.598 139.769 196.388 137.515 196.161 135.269C195.691 130.579 195.161 125.899 194.721 121.219C194.541 119.419 194.351 117.619 194.211 115.809C193.981 112.879 195.401 110.669 198.551 110.389C203.231 109.969 207.901 109.389 212.551 108.799C216.551 108.329 220.631 107.799 224.681 107.339C227.381 107.039 230.081 106.769 232.801 106.629C236.031 106.459 237.491 107.629 238.091 110.809C238.331 112.049 238.481 113.309 238.701 114.559L242.121 134.559C243.354 141.692 244.584 148.819 245.811 155.939C246.191 158.139 246.641 160.339 247.091 162.659L268.781 159.749L265.291 144.349C265.131 144.282 264.968 144.225 264.801 144.179C263.801 144.179 262.801 144.179 261.801 144.059C256.251 143.609 251.301 141.819 247.961 137.059C245.971 134.12 244.543 130.838 243.751 127.379C243.041 124.489 242.591 121.539 242.051 118.609C241.051 113.189 240.051 107.779 239.051 102.179C235.79 101.326 232.416 100.989 229.051 101.179C223.631 101.479 218.221 102.049 212.811 102.559C206.871 103.119 200.921 103.679 194.991 104.339C189.504 104.945 184.031 105.612 178.571 106.339C174.091 106.949 169.631 107.679 165.161 108.339L149.621 110.739C146.411 111.229 143.181 111.669 139.971 112.159C134.871 112.939 129.791 113.779 124.691 114.529C120.491 115.159 116.261 115.629 112.061 116.279C106.971 117.059 101.921 118.119 96.8209 118.779C90.098 119.699 83.4385 121.035 76.8808 122.779C73.5614 123.651 70.2986 124.727 67.1108 125.999C65.7313 126.506 64.5508 127.442 63.7426 128.669C62.9345 129.897 62.5413 131.351 62.6208 132.819C62.4155 136.444 62.5966 140.081 63.1608 143.669C63.6208 145.969 63.9008 148.299 64.2808 150.669C64.9408 154.589 65.4708 158.539 66.2808 162.419C67.0208 165.859 68.1709 169.209 69.0509 172.619C70.1352 176.267 71.6953 179.757 73.6909 182.999C73.9126 183.499 74.2879 183.917 74.7625 184.19C75.2371 184.463 75.7865 184.578 76.3309 184.519C78.4809 184.319 80.6408 184.169 82.7408 183.999C83.1908 182.909 83.5308 182.079 83.8908 181.259C86.7808 174.629 91.8908 170.669 98.9908 169.909C106.091 169.149 111.791 172.399 115.731 178.439C116.801 180.089 116.731 180.139 118.671 179.609C118.671 179.019 118.721 178.389 118.671 177.789C118.391 175.359 118.041 172.939 117.791 170.509C117.361 166.189 117.021 161.859 116.581 157.509C116.141 153.159 115.581 148.699 115.081 144.299C114.531 139.299 114.081 134.209 113.511 129.179C113.131 125.709 114.641 123.729 117.591 123.259C123.211 122.369 128.791 121.199 134.401 120.259C142.681 118.819 150.981 117.469 159.261 116.059C162.331 115.539 164.471 116.899 165.001 119.949C166.487 128.615 167.941 137.262 169.361 145.889C170.561 153.109 171.691 160.349 172.881 167.569C173.141 169.149 173.501 170.709 173.881 172.369L199.271 169.089ZM158.271 123.889C152.901 124.549 147.901 125.599 142.561 126.509C143.931 134.799 145.251 142.899 146.561 150.989C147.871 159.079 149.311 167.149 150.721 175.409C156.071 175.019 161.101 174.109 166.471 173.409C163.791 156.819 161.071 140.469 158.311 123.889H158.271ZM121.081 130.189C122.761 146.499 124.401 162.499 126.081 178.669C129.028 178.554 131.963 178.219 134.861 177.669C137.681 177.249 140.571 177.189 143.441 176.369C142.511 170.779 141.611 165.449 140.721 160.109C139.831 154.769 138.941 149.229 137.971 143.799C137.001 138.369 136.411 133.129 135.111 127.799L121.081 130.189ZM226.151 165.529L239.511 163.669C238.461 155.209 236.811 147.089 235.411 138.929C234.011 130.769 232.771 122.419 230.981 114.099L219.351 115.509C221.591 132.179 223.911 148.689 226.191 165.529H226.151ZM201.911 117.599C203.491 134.509 205.051 151.239 206.631 168.119L218.911 166.419L212.081 116.259C208.511 116.899 205.161 116.659 201.911 117.599ZM99.7909 198.599C101.355 198.253 102.892 197.795 104.391 197.229C106.091 196.453 107.564 195.254 108.668 193.746C109.773 192.239 110.473 190.474 110.701 188.619C111.461 184.099 108.151 177.249 101.091 177.319C98.5294 177.308 96.0414 178.174 94.0404 179.773C92.0393 181.372 90.6456 183.608 90.0909 186.109C88.7109 193.179 93.8108 198.699 99.7508 198.619L99.7909 198.599ZM263.351 136.329C262.111 131.879 260.861 127.639 259.741 123.329C258.486 118.694 256.313 114.358 253.351 110.579C251.87 108.511 249.869 106.873 247.551 105.829C247.495 106.494 247.495 107.163 247.551 107.829C248.451 112.699 249.441 117.559 250.301 122.439C250.843 125.645 251.886 128.746 253.391 131.629C255.261 135.249 258.911 137.029 263.311 136.349L263.351 136.329ZM247.791 169.879L226.791 172.819C226.761 173.291 226.811 173.764 226.941 174.219C228.711 177.539 231.271 180.149 234.941 181.119C238.401 182.039 242.941 181.489 245.351 177.309C246.184 175.916 246.916 174.466 247.541 172.969C247.791 172.179 248.381 171.179 247.751 169.899L247.791 169.879Z" fill="#3558A2"/>
<path d="M29.8206 158.419C28.8206 158.419 27.8206 158.419 26.8206 158.419C24.5406 158.339 23.1206 157.049 23.0106 155.019C22.9732 154.543 23.035 154.064 23.1922 153.613C23.3494 153.162 23.5986 152.749 23.9238 152.399C24.249 152.049 24.6434 151.771 25.0818 151.582C25.5201 151.392 25.9931 151.296 26.4707 151.299C28.8907 151.069 31.3306 150.949 33.7606 150.799C36.8206 150.599 39.8907 150.379 42.9507 150.249C43.7579 150.205 44.5654 150.331 45.3206 150.619C45.9854 150.917 46.5419 151.414 46.9142 152.04C47.2864 152.666 47.4563 153.392 47.4006 154.119C47.2837 154.881 46.9317 155.587 46.3939 156.139C45.856 156.692 45.1592 157.062 44.4006 157.199C43.1561 157.417 41.9011 157.571 40.6406 157.659C37.0306 157.919 33.4306 158.129 29.8206 158.369V158.419Z" fill="#3558A2"/>
<path d="M35.3806 173.099C34.6555 173.037 33.9441 172.865 33.2706 172.589C32.6455 172.304 32.1268 171.828 31.7891 171.23C31.4513 170.631 31.3118 169.942 31.3906 169.259C31.4627 168.575 31.7261 167.925 32.1506 167.384C32.5751 166.843 33.1435 166.432 33.7906 166.199C34.5566 165.93 35.347 165.735 36.1506 165.619C40.0506 164.939 43.9706 164.349 47.8606 163.619C48.4727 163.463 49.1109 163.438 49.7331 163.547C50.3554 163.656 50.9476 163.895 51.4707 164.249C51.9287 164.544 52.3082 164.946 52.5768 165.421C52.8453 165.895 52.9949 166.427 53.0126 166.972C53.0303 167.517 52.9157 168.057 52.6785 168.548C52.4412 169.039 52.0885 169.465 51.6506 169.789C51.0065 170.279 50.2622 170.62 49.4707 170.789C45.6707 171.549 41.8606 172.239 38.0506 172.929C37.3406 173.029 36.6106 173.019 35.3806 173.099Z" fill="#3558A2"/>
<path d="M37.7216 183.91C37.7359 183.274 37.9231 182.654 38.2631 182.117C38.6032 181.58 39.0831 181.145 39.6516 180.86C40.3585 180.464 41.0978 180.13 41.8615 179.86C44.3815 178.91 46.9216 177.98 49.4516 177.05C49.8816 176.9 50.3015 176.74 50.7315 176.62C53.0015 175.98 54.8616 176.67 55.5716 178.4C55.7739 178.86 55.8792 179.357 55.8811 179.86C55.8829 180.362 55.7812 180.86 55.5824 181.321C55.3835 181.783 55.0916 182.199 54.7251 182.542C54.3585 182.886 53.925 183.151 53.4516 183.32C49.8016 184.82 46.0716 186.19 42.3116 187.39C41.7733 187.572 41.1987 187.619 40.6379 187.528C40.0771 187.437 39.5471 187.21 39.0943 186.866C38.6415 186.523 38.2796 186.074 38.0404 185.559C37.8011 185.043 37.6917 184.477 37.7216 183.91Z" fill="#3558A2"/>
<path d="M199.272 169.09L173.912 172.47C173.572 170.81 173.212 169.25 172.912 167.67C171.722 160.45 170.592 153.21 169.392 145.99C167.972 137.323 166.519 128.677 165.032 120.05C164.502 117.05 162.362 115.64 159.292 116.16C151.012 117.57 142.712 118.92 134.432 120.36C128.822 121.36 123.242 122.5 117.622 123.36C114.622 123.83 113.162 125.81 113.542 129.28C114.092 134.28 114.542 139.36 115.112 144.4C115.582 148.8 116.112 153.2 116.612 157.61C117.112 162.02 117.392 166.26 117.822 170.61C118.072 173.04 118.422 175.46 118.702 177.89C118.762 178.49 118.702 179.12 118.702 179.71C116.772 180.24 116.832 180.19 115.762 178.54C111.822 172.54 106.272 169.23 99.0222 170.01C91.7722 170.79 86.8122 174.73 83.9222 181.36C83.5622 182.18 83.2222 183.01 82.7722 184.1C80.6722 184.27 78.5121 184.42 76.3621 184.62C75.8177 184.68 75.2685 184.564 74.7939 184.291C74.3193 184.018 73.944 183.601 73.7222 183.1C71.7267 179.859 70.1666 176.369 69.0822 172.72C68.2022 169.31 67.0822 165.96 66.3122 162.52C65.4622 158.64 64.9322 154.69 64.3122 150.77C63.9322 148.45 63.6522 146.12 63.1922 143.77C62.628 140.183 62.4469 136.546 62.6522 132.92C62.5727 131.452 62.9658 129.998 63.774 128.771C64.5822 127.543 65.7627 126.607 67.1422 126.1C70.33 124.828 73.5928 123.753 76.9122 122.88C83.4699 121.136 90.1292 119.8 96.8521 118.88C101.952 118.22 107.002 117.16 112.092 116.38C116.292 115.73 120.522 115.26 124.722 114.63C129.822 113.88 134.902 113.04 140.002 112.26C143.212 111.77 146.442 111.33 149.652 110.84L165.192 108.44C169.662 107.75 174.122 107.02 178.602 106.44C184.062 105.7 189.535 105.033 195.022 104.44C200.952 103.78 206.902 103.22 212.842 102.66C218.252 102.15 223.662 101.58 229.082 101.28C232.447 101.09 235.821 101.427 239.082 102.28C240.082 107.88 241.082 113.28 242.082 118.71C242.622 121.64 243.082 124.59 243.782 127.48C244.574 130.939 246.002 134.222 247.992 137.16C251.332 141.89 256.282 143.68 261.832 144.16C262.832 144.24 263.832 144.24 264.832 144.28C264.999 144.326 265.163 144.383 265.322 144.45L268.812 159.85L247.122 162.76C246.672 160.44 246.222 158.24 245.842 156.04C244.602 148.913 243.372 141.787 242.152 134.66L238.732 114.66C238.512 113.41 238.362 112.15 238.122 110.91C237.522 107.77 236.062 106.56 232.832 106.73C230.112 106.87 227.412 107.14 224.712 107.44C220.712 107.89 216.622 108.44 212.582 108.9C207.912 109.46 203.242 110.07 198.582 110.49C195.432 110.77 194.012 112.98 194.242 115.91C194.382 117.72 194.572 119.52 194.752 121.32C195.232 126 195.752 130.68 196.192 135.37C196.426 137.623 196.636 139.877 196.822 142.13C197.422 148.98 197.992 155.84 198.602 162.7C198.752 164.66 199.012 166.72 199.272 169.09ZM79.4821 162.7C87.6421 161.76 96.2722 160.79 104.892 159.76C105.961 159.581 107.015 159.316 108.042 158.97C108.79 158.758 109.449 158.31 109.922 157.695C110.396 157.079 110.659 156.327 110.672 155.55C110.737 155.009 110.737 154.461 110.672 153.92C109.872 146.55 109.072 139.17 108.222 131.8C108.074 130.91 107.822 130.041 107.472 129.21C107.222 128.523 106.766 127.93 106.166 127.511C105.567 127.093 104.853 126.869 104.122 126.87C103.306 126.82 102.486 126.87 101.682 127.02C94.9689 128.04 88.2622 129.07 81.5622 130.11C78.3422 130.61 75.1122 131.05 71.9122 131.67C69.0822 132.22 67.9122 133.88 68.1622 136.67C68.1622 137.21 68.3122 137.74 68.4122 138.28C69.6522 144.67 70.8822 151.07 72.1422 157.46C73.1722 162.75 74.9821 163.1 79.4821 162.7ZM191.312 137.79C190.722 133.06 190.082 127.79 189.412 122.47C189.222 120.95 188.942 119.47 188.712 117.92C188.638 116.946 188.189 116.04 187.46 115.391C186.73 114.742 185.778 114.401 184.802 114.44C181.112 114.44 177.412 114.92 173.722 115.21C173.454 115.246 173.192 115.316 172.942 115.42C171.849 115.767 170.924 116.508 170.346 117.498C169.768 118.488 169.578 119.658 169.812 120.78C170.502 125.7 171.152 130.63 171.812 135.55C172.122 137.79 172.442 140.03 172.892 142.24C172.963 142.787 173.146 143.314 173.431 143.786C173.715 144.259 174.094 144.668 174.544 144.987C174.994 145.307 175.505 145.53 176.045 145.642C176.585 145.754 177.142 145.754 177.682 145.64C180.882 145.11 184.082 144.48 187.242 143.73C190.612 142.94 191.422 141.75 191.312 137.79V137.79Z" fill="#979FBB"/>
<path d="M158.311 123.891C161.071 140.471 163.791 156.821 166.551 173.431C161.181 174.111 156.151 175.021 150.801 175.431C149.391 167.171 148.001 159.091 146.641 151.011C145.281 142.931 143.971 134.821 142.641 126.531C147.911 125.601 152.911 124.551 158.311 123.891Z" fill="white"/>
<path d="M121.121 130.18L135.121 127.75C136.421 133.11 137.031 138.48 137.981 143.75C138.931 149.02 139.811 154.62 140.731 160.06C141.651 165.5 142.521 170.73 143.451 176.32C140.581 177.14 137.691 177.2 134.871 177.62C131.973 178.171 129.039 178.505 126.091 178.62C124.441 162.5 122.801 146.5 121.121 130.18Z" fill="white"/>
<path d="M226.191 165.529C223.861 148.689 221.591 132.189 219.391 115.529L231.021 114.119C232.811 122.439 234.021 130.709 235.451 138.949C236.881 147.189 238.451 155.229 239.551 163.689L226.191 165.529Z" fill="white"/>
<path d="M201.912 117.6C205.202 116.66 208.552 116.9 212.082 116.26L218.912 166.42L206.632 168.12C205.012 151.24 203.452 134.51 201.912 117.6Z" fill="white"/>
<path d="M99.7521 198.62C93.8121 198.7 88.7522 193.14 90.0922 186.13C90.647 183.63 92.0406 181.394 94.0417 179.795C96.0428 178.196 98.5308 177.33 101.092 177.34C108.152 177.27 111.462 184.12 110.702 188.64C110.474 190.495 109.774 192.261 108.67 193.768C107.565 195.275 106.092 196.474 104.392 197.25C102.881 197.818 101.33 198.276 99.7521 198.62V198.62Z" fill="#CBCFDD"/>
<path d="M263.311 136.351C258.891 137.031 255.26 135.251 253.37 131.691C251.866 128.808 250.823 125.707 250.281 122.501C249.421 117.621 248.431 112.761 247.531 107.891C247.474 107.225 247.474 106.556 247.531 105.891C249.849 106.935 251.85 108.573 253.331 110.641C256.293 114.42 258.466 118.756 259.721 123.391C260.821 127.661 262.071 131.901 263.311 136.351Z" fill="white"/>
<path d="M247.752 169.898C248.382 171.198 247.752 172.128 247.452 172.988C246.827 174.486 246.095 175.936 245.262 177.328C242.852 181.508 238.312 182.058 234.852 181.138C231.202 180.138 228.642 177.558 226.852 174.238C226.722 173.784 226.672 173.31 226.702 172.838L247.752 169.898Z" fill="#CBCFDD"/>
<path d="M79.4813 162.699C74.9813 163.099 73.1714 162.749 72.1414 157.499C70.8814 151.109 69.6514 144.709 68.4114 138.319C68.3114 137.779 68.2114 137.249 68.1614 136.709C67.9314 133.879 69.0814 132.219 71.9114 131.709C75.1114 131.089 78.3414 130.649 81.5614 130.149C88.2681 129.109 94.9747 128.079 101.681 127.059C102.486 126.91 103.305 126.859 104.121 126.909C104.852 126.908 105.566 127.132 106.166 127.551C106.765 127.969 107.221 128.563 107.471 129.249C107.821 130.081 108.073 130.95 108.221 131.839C109.071 139.209 109.871 146.589 110.671 153.959C110.736 154.501 110.736 155.048 110.671 155.589C110.658 156.366 110.395 157.118 109.922 157.734C109.448 158.35 108.789 158.797 108.041 159.009C107.014 159.356 105.961 159.62 104.891 159.799C96.2714 160.789 87.6413 161.759 79.4813 162.699ZM76.1814 138.439C76.9814 144.179 78.2514 149.589 79.3114 155.269L102.831 152.449C102.731 146.699 101.361 136.509 100.431 134.759L76.1814 138.439Z" fill="#3558A2"/>
<path d="M191.311 137.79C191.421 141.79 190.611 142.94 187.311 143.73C184.151 144.48 180.951 145.11 177.751 145.64C177.211 145.754 176.654 145.754 176.114 145.642C175.574 145.53 175.063 145.307 174.613 144.988C174.163 144.668 173.784 144.26 173.5 143.787C173.215 143.314 173.032 142.787 172.961 142.24C172.511 140.03 172.191 137.79 171.881 135.55C171.191 130.63 170.541 125.7 169.881 120.78C169.647 119.658 169.837 118.489 170.415 117.498C170.993 116.508 171.918 115.768 173.011 115.421C173.261 115.317 173.523 115.246 173.791 115.211C177.481 114.921 181.181 114.461 184.871 114.441C185.847 114.401 186.799 114.742 187.529 115.391C188.258 116.04 188.707 116.947 188.781 117.92C189.011 119.44 189.291 120.92 189.481 122.47C190.081 127.76 190.721 133.06 191.311 137.79ZM181.911 121.9C181.031 121.9 180.331 121.9 179.631 121.9C178.931 121.9 178.411 122.09 177.501 122.23C177.951 127.43 178.881 132.45 179.581 137.79L183.781 136.9L181.911 121.9Z" fill="#3558A2"/>
<path d="M76.1816 138.44L100.432 134.76C101.362 136.51 102.732 146.7 102.832 152.45L79.3116 155.27C78.2516 149.59 76.9816 144.18 76.1816 138.44Z" fill="white"/>
<path d="M181.912 121.901L183.782 136.901L179.582 137.791C178.882 132.451 177.952 127.431 177.502 122.231C178.412 122.091 179.012 121.941 179.632 121.901C180.252 121.861 181.062 121.901 181.912 121.901Z" fill="white"/>
</svg>
