<svg width="300" height="300" viewBox="0 0 300 300" fill="none" xmlns="http://www.w3.org/2000/svg">
<path d="M252.11 123.683L260.29 122.763C262.81 122.473 265.29 122.093 267.86 121.953C271.21 121.763 272.8 123.153 273.07 126.423C273.69 133.753 274.22 141.083 274.82 148.423C275.45 156.013 276.15 163.603 276.82 171.193C277.49 178.783 278.01 186.193 278.63 193.713C279.27 201.483 279.94 209.253 280.63 217.033C281.07 222.273 281.48 227.513 281.93 232.763C282.07 234.473 282.26 236.193 282.47 237.903C282.85 241.093 281.88 242.563 278.71 242.993C274.21 243.593 269.71 243.993 265.19 244.523L236.19 247.613C228.52 248.423 220.85 249.193 213.19 250.013L184.78 253.073C177.3 253.873 169.78 254.643 162.32 255.433C152.76 256.44 143.2 257.463 133.64 258.503L111.14 260.863L82.1396 263.953L59.6796 266.313C53.4496 266.973 47.2297 267.663 41.0097 268.313C39.9273 268.438 38.8392 268.509 37.7497 268.523C36.4201 268.577 35.1188 268.13 34.1025 267.271C33.0862 266.412 32.4287 265.203 32.2597 263.883C31.8197 261.023 31.5197 258.133 31.2597 255.243C30.1797 245.337 29.1163 235.423 28.0697 225.503C27.2697 217.843 26.5297 210.163 25.7197 202.503C24.7197 193.223 23.6596 183.943 22.6596 174.663C21.8496 167.093 21.1096 159.513 20.2996 151.933C19.4896 144.353 18.6096 136.623 17.7896 128.933C17.4796 126.053 17.1696 123.163 17.0196 120.273C16.8796 117.603 17.4496 116.433 20.0196 115.743C23.431 114.861 26.8945 114.193 30.3896 113.743C36.4896 112.873 42.6197 112.163 48.7297 111.373C49.3497 111.293 49.9496 111.093 50.7896 110.893C49.9996 107.953 49.2397 105.113 48.4797 102.263C48.1839 101.313 47.9369 100.349 47.7397 99.3734C47.5487 98.4264 47.7357 97.4422 48.2608 96.6312C48.7859 95.8202 49.6074 95.2468 50.5496 95.0334C51.0139 94.9202 51.4959 94.8998 51.9681 94.9733C52.4403 95.0468 52.8934 95.2128 53.3012 95.4618C53.7091 95.7108 54.0638 96.0378 54.3449 96.4242C54.6261 96.8106 54.8282 97.2487 54.9396 97.7134C55.6496 100.143 56.1697 102.623 56.8297 105.073C57.2597 106.633 57.8296 108.153 58.4096 110.013L68.7297 108.723C68.5297 105.773 68.3696 102.923 68.1496 100.073C67.6796 94.0734 67.1496 88.1334 66.6796 82.1734C66.013 74.2134 65.3463 66.2601 64.6796 58.3134C64.4296 55.2334 64.1197 52.1634 63.9797 49.0834C63.8197 45.6634 64.7697 44.3934 68.1197 43.9034C72.6097 43.2534 77.1197 42.8234 81.6297 42.3334C88.0297 41.6668 94.4297 41.0001 100.83 40.3334C106.83 39.7234 112.74 39.1334 118.69 38.5134L142.2 36.0934L160.33 34.2134L179.26 32.2134C179.8 32.1634 180.34 32.0934 180.88 32.0534C186.06 31.7134 187.77 32.9134 188.68 38.0534C189.54 42.9634 190.11 47.9234 190.8 52.8634C191.26 56.1834 191.71 59.5034 192.17 62.8634C192.684 63.0954 193.211 63.2958 193.75 63.4634C206.65 66.2734 216.07 73.9234 223.22 84.6834C228.021 92.0911 231.226 100.418 232.63 109.133C233.39 113.403 233.5 117.783 233.92 122.133C234.03 123.283 234.19 124.433 234.36 125.823L244.29 124.583C244.34 124.025 244.34 123.462 244.29 122.903C243.16 117.493 241.98 112.103 240.85 106.693C240.631 105.821 240.56 104.919 240.64 104.023C240.78 103.307 241.138 102.652 241.664 102.145C242.19 101.639 242.859 101.307 243.58 101.193C244.394 101.017 245.245 101.151 245.967 101.569C246.688 101.987 247.227 102.659 247.48 103.453C248.166 105.7 248.727 107.984 249.16 110.293C249.97 114.093 250.7 117.923 251.49 121.733C251.657 122.395 251.865 123.046 252.11 123.683V123.683ZM118.11 252.683C113.52 205.473 108.97 158.603 104.4 111.503L24.3996 121.963C29.3996 168.503 34.2497 214.693 39.2597 261.063L118.11 252.683ZM153.71 248.893C153.3 242.483 152.93 236.513 152.52 230.533C151.87 221.033 151.18 211.533 150.52 202.023C150.08 195.603 149.69 189.163 149.25 182.743C148.583 173.143 147.916 163.547 147.25 153.953C146.78 147.163 146.13 140.383 145.86 133.593C145.53 125.083 144.09 116.643 144.97 108.063C145.97 98.1234 148.68 88.8634 154.33 80.5834C160.52 71.4934 168.87 65.4934 179.77 63.3334C181.25 63.0334 182.77 62.8634 184.52 62.5934L181.36 39.4034L71.4196 50.8634C72.9596 70.0234 74.4197 88.8034 75.9897 107.633C76.3948 107.713 76.8067 107.754 77.2197 107.753C86.0297 106.593 94.8296 105.393 103.64 104.263C104.796 104.106 105.972 104.16 107.11 104.423C110.42 105.253 111.61 107.653 111.82 110.893C112.14 115.683 112.65 120.463 113.11 125.253C113.76 131.933 114.44 138.603 115.11 145.253C115.74 151.663 116.32 158.073 116.95 164.483C117.77 172.873 118.64 181.263 119.45 189.653C120.26 198.043 121 206.273 121.79 214.573C122.65 223.513 123.526 232.447 124.42 241.373C124.75 244.783 125.15 248.173 125.55 251.903L153.71 248.893ZM176.33 246.513C176.17 244.443 176.04 242.733 175.91 241.033C175.26 232.883 174.56 224.753 174 216.603C173.74 212.933 175 211.413 178.65 210.883C186.46 209.733 194.27 208.593 202.1 207.573C207.97 206.813 209.22 207.993 209.82 213.993C210.54 221.213 211.39 228.423 212.19 235.633C212.44 237.853 212.75 240.073 213.07 242.633L237.88 240.003C236.21 223.003 234.68 206.313 232.88 189.403L157.57 198.463C158.72 215.073 159.84 231.463 160.98 248.133L176.33 246.513ZM157.2 191.093L232.34 182.093C231.27 171.093 230.23 160.463 229.17 149.633L154.93 158.153C155.68 169.173 156.43 179.993 157.2 191.093ZM225.37 110.283L152.07 116.283C152.88 127.993 153.67 139.283 154.46 150.763L228.46 142.263C227.43 131.443 226.41 121.013 225.36 110.283H225.37ZM240.61 190.773C242.09 190.683 243.34 190.653 244.61 190.513C249.61 189.933 254.69 189.303 259.74 188.733C262.83 188.383 264.6 189.733 265 192.833C265.4 195.933 265.75 198.963 266 202.033C266.25 205.103 265 206.803 261.91 207.443C258.99 208.043 256.04 208.543 253.1 209.093L242.54 211.093C243.47 220.573 244.38 229.813 245.31 239.283L250.31 238.553C250.31 237.453 250.31 236.553 250.31 235.663C250.27 230.663 250.226 225.663 250.18 220.663C250.18 218.093 251.27 216.093 253.75 215.503C256.738 214.769 259.794 214.34 262.87 214.223C265.96 214.133 267.73 215.913 268.15 219.013C268.65 222.783 268.99 226.583 269.38 230.363C269.58 232.363 269.74 234.293 269.95 236.533L274.76 236.033C271.76 200.393 268.89 165.033 265.95 129.533L234.95 133.113C235.55 139.343 236.15 145.523 236.78 151.943C237.83 151.873 238.72 151.863 239.59 151.753C244.35 151.123 249.11 150.423 253.88 149.853C257.88 149.363 259.34 150.403 260.22 154.363C260.88 157.363 261.45 160.363 262.02 163.433C262.72 167.193 261.39 169.083 257.56 169.753C254.88 170.223 252.18 170.563 249.49 170.983L238.75 172.733C239.41 178.863 239.99 184.723 240.6 190.773H240.61ZM223.61 103.093C223.08 101.493 222.79 100.273 222.28 99.1534C220.994 96.1581 219.556 93.2309 217.97 90.3834C213.79 83.3034 208.28 77.4634 200.86 73.7134C190.86 68.6434 180.72 68.4034 171.1 74.4934C158.68 82.3534 153.8 94.5434 152.22 108.973L223.61 103.093ZM195.94 215.953C196.62 225.473 197.29 234.733 197.94 244.203L205.59 243.323C204.51 233.753 203.47 224.503 202.39 215.003L195.94 215.953ZM188.61 216.953L181.53 217.953C182.25 227.333 182.95 236.393 183.68 245.713L190.56 244.863C189.94 235.573 189.3 226.493 188.64 216.973L188.61 216.953ZM238.09 165.273L254.33 162.733C253.95 160.733 253.64 159.123 253.33 157.313L237.62 159.393C237.78 161.423 237.94 163.173 238.12 165.293L238.09 165.273ZM241.79 203.693L258.45 200.623L257.79 196.293L241.35 198.213C241.54 200.203 241.67 201.863 241.82 203.713L241.79 203.693ZM257.73 222.173V237.783L262.61 237.263C262.13 231.893 261.67 226.803 261.18 221.453L257.73 222.173Z" fill="#3558A2"/>
<path d="M118.2 252.674L39.3405 261.054C34.3405 214.684 29.4505 168.494 24.4805 121.954L104.48 111.494C109.02 158.594 113.57 205.464 118.2 252.674ZM98.7804 195.274C98.7972 194.968 98.7972 194.661 98.7804 194.354C98.0504 187.414 97.3404 180.474 96.5704 173.544C96.2604 170.774 94.5704 169.184 92.4504 169.414C90.3304 169.644 88.9804 171.714 89.2804 174.574C89.9704 181.064 90.6204 187.574 91.2804 194.044C91.386 195.218 91.5834 196.381 91.8705 197.524C92.0703 198.35 92.563 199.076 93.2572 199.566C93.9514 200.056 94.8 200.278 95.6453 200.19C96.4906 200.102 97.2752 199.71 97.8536 199.088C98.4321 198.465 98.7649 197.654 98.7904 196.804C98.7804 196.354 98.7405 195.864 98.7405 195.274H98.7804ZM60.0804 242.424C59.4304 235.804 58.8104 229.424 58.1804 223.024C58.1051 221.759 57.9482 220.499 57.7104 219.254C57.5463 218.341 57.0425 217.524 56.3004 216.968C55.5583 216.411 54.6329 216.156 53.7104 216.254C52.8596 216.402 52.0897 216.849 51.5396 217.515C50.9894 218.18 50.6953 219.021 50.7104 219.884C50.6988 220.428 50.7222 220.973 50.7804 221.514C51.2104 226.384 51.6004 231.254 52.0804 236.114C52.3404 238.814 52.6205 241.524 53.1305 244.184C53.2775 245.001 53.7286 245.732 54.3929 246.229C55.0573 246.726 55.8854 246.953 56.7104 246.864C57.5324 246.813 58.3109 246.478 58.913 245.916C59.515 245.354 59.903 244.601 60.0105 243.784C60.0488 243.332 60.0588 242.878 60.0404 242.424H60.0804ZM56.8204 199.864C56.4304 195.284 56.0404 190.314 55.5804 185.344C55.4032 183.09 55.0893 180.85 54.6404 178.634C54.476 177.869 54.0469 177.187 53.4285 176.707C52.8101 176.228 52.0423 175.983 51.2605 176.014C50.4316 176.046 49.6385 176.361 49.0142 176.907C48.3898 177.453 47.9719 178.197 47.8304 179.014C47.689 179.725 47.652 180.453 47.7205 181.174C48.2271 187.047 48.7537 192.917 49.3004 198.784C49.3958 200.234 49.5829 201.677 49.8605 203.104C50.0223 203.975 50.5031 204.754 51.2089 205.29C51.9146 205.825 52.7945 206.078 53.6769 206C54.5592 205.921 55.3806 205.516 55.9803 204.864C56.5801 204.212 56.9153 203.36 56.9204 202.474C56.9704 201.664 56.8704 200.934 56.8204 199.864ZM93.3805 217.334H93.4404C93.7671 223.481 94.1004 229.627 94.4404 235.774C94.4606 236.406 94.5684 237.032 94.7605 237.634C94.992 238.374 95.4531 239.021 96.077 239.481C96.7009 239.942 97.4552 240.191 98.2305 240.194C99.0538 240.183 99.8447 239.872 100.456 239.32C101.067 238.768 101.456 238.012 101.55 237.194C101.723 236.4 101.797 235.587 101.77 234.774C101.48 228.344 101.15 221.924 100.82 215.504C100.803 214.78 100.709 214.059 100.54 213.354C99.9604 211.264 98.4404 210.104 96.6404 210.354C95.7313 210.474 94.8976 210.923 94.2969 211.615C93.6962 212.308 93.3702 213.197 93.3805 214.114C93.3105 215.104 93.3805 216.194 93.3805 217.284V217.334ZM81.2004 238.114C80.6204 230.034 80.1304 222.984 79.5804 215.944C79.5116 215.13 79.2732 214.34 78.8805 213.624C78.5902 213.052 78.137 212.579 77.5782 212.264C77.0195 211.949 76.3801 211.806 75.7405 211.854C75.0958 211.84 74.4625 212.025 73.926 212.382C73.3895 212.74 72.9757 213.254 72.7405 213.854C72.377 214.776 72.2134 215.764 72.2605 216.754C72.5405 221.454 72.9105 226.144 73.2605 230.844C73.4205 233.014 73.5604 235.184 73.7704 237.344C74.0104 239.734 75.1805 241.214 76.9805 241.544C77.4884 241.633 78.0094 241.612 78.5084 241.482C79.0075 241.353 79.4728 241.117 79.8729 240.792C80.2731 240.467 80.5986 240.059 80.8276 239.597C81.0567 239.135 81.1838 238.63 81.2004 238.114ZM69.8605 179.374C70.0005 181.004 70.1405 182.624 70.2605 184.244C70.3805 185.864 70.4605 187.684 70.6105 189.394C70.8805 192.394 71.0704 195.394 71.5304 198.294C71.6542 199.162 72.099 199.951 72.7766 200.506C73.4543 201.062 74.3156 201.343 75.1904 201.294C76.1027 201.218 76.9545 200.807 77.5822 200.141C78.2098 199.474 78.569 198.599 78.5905 197.684C78.6255 197.231 78.6255 196.777 78.5905 196.324C78.0905 189.831 77.5871 183.337 77.0804 176.844C77.0543 176.301 76.9773 175.762 76.8505 175.234C76.2905 173.144 74.7805 171.944 72.9905 172.114C72.0803 172.219 71.2426 172.661 70.6427 173.354C70.0428 174.046 69.7245 174.938 69.7505 175.854C69.7305 177.029 69.7706 178.204 69.8705 179.374H69.8605ZM74.7305 156.914C74.0805 151.514 73.4305 146.034 72.7305 140.554C72.6025 139.026 72.3517 137.512 71.9805 136.024C71.769 135.178 71.2509 134.441 70.5266 133.955C69.8024 133.469 68.9235 133.269 68.0604 133.394C67.2013 133.529 66.4196 133.969 65.8593 134.634C65.2989 135.3 64.9976 136.145 65.0105 137.014C64.9823 137.92 65.029 138.826 65.1504 139.724C65.6804 144.304 66.2104 148.884 66.7904 153.464C66.9813 155.442 67.3155 157.404 67.7904 159.334C68.0128 160.18 68.5526 160.907 69.2975 161.366C70.0424 161.824 70.9352 161.977 71.7904 161.794C72.5986 161.646 73.3304 161.222 73.8611 160.595C74.3917 159.968 74.6884 159.176 74.7004 158.354C74.7804 157.864 74.7405 157.444 74.7405 156.914H74.7305ZM44.8104 140.914C45.2504 144.784 45.6705 148.644 46.1105 152.514C46.4405 155.384 46.7105 158.274 47.1105 161.134C47.4905 163.624 49.3404 165.134 51.3204 164.864C53.3004 164.594 54.6304 162.574 54.4004 160.124C54.4004 159.854 54.2905 159.594 54.2605 159.324C53.8005 155.324 53.3705 151.234 52.8805 147.184C52.5605 144.494 52.2804 141.784 51.7704 139.124C51.6295 138.214 51.1364 137.395 50.3975 136.845C49.6585 136.295 48.7329 136.058 47.8204 136.184C46.9741 136.345 46.2108 136.797 45.6628 137.462C45.1149 138.127 44.8169 138.963 44.8204 139.824C44.8104 140.174 44.8304 140.544 44.8204 140.864L44.8104 140.914ZM94.4504 154.354C93.9004 148.514 93.3804 142.734 92.7804 136.974C92.6821 135.991 92.4007 135.034 91.9504 134.154C91.6505 133.583 91.1803 133.119 90.6052 132.827C90.0301 132.535 89.3785 132.429 88.7405 132.524C88.0984 132.55 87.4788 132.767 86.9618 133.149C86.4448 133.53 86.0541 134.058 85.8405 134.664C85.5454 135.515 85.4263 136.416 85.4905 137.314C85.9505 143.094 86.4905 148.864 87.0105 154.634C87.0821 155.718 87.287 156.79 87.6205 157.824C87.8918 158.573 88.4087 159.207 89.0872 159.624C89.7656 160.041 90.5653 160.215 91.3557 160.119C92.1461 160.023 92.8805 159.661 93.439 159.094C93.9974 158.526 94.3469 157.786 94.4304 156.994C94.5007 156.113 94.5107 155.227 94.4604 154.344L94.4504 154.354Z" fill="white"/>
<path d="M153.761 248.864L125.53 251.864C125.13 248.134 124.73 244.744 124.4 241.334C123.507 232.408 122.63 223.474 121.77 214.534C120.98 206.234 120.23 197.924 119.43 189.614C118.63 181.304 117.75 172.834 116.93 164.444C116.3 158.034 115.72 151.624 115.09 145.214C114.44 138.534 113.76 131.864 113.09 125.214C112.63 120.424 112.09 115.644 111.8 110.854C111.59 107.614 110.4 105.214 107.09 104.384C105.953 104.121 104.777 104.067 103.62 104.224C94.8105 105.354 86.0104 106.554 77.2004 107.714C76.7875 107.714 76.3756 107.674 75.9705 107.594C74.4505 88.7643 72.9704 69.9843 71.4004 50.8243L181.4 39.4043L184.56 62.5943C182.79 62.8643 181.29 63.0343 179.81 63.3343C168.91 65.4943 160.56 71.4943 154.37 80.5843C148.72 88.8643 146.021 98.1243 145.011 108.064C144.131 116.644 145.57 125.064 145.9 133.594C146.17 140.384 146.82 147.164 147.29 153.954C147.957 163.554 148.624 173.151 149.29 182.744C149.73 189.164 150.12 195.604 150.56 202.024C151.21 211.534 151.9 221.024 152.56 230.534C152.98 236.504 153.351 242.474 153.761 248.864ZM112.05 65.4043C111.927 63.595 111.673 61.797 111.29 60.0243C111.132 59.4255 110.825 58.8764 110.398 58.4279C109.971 57.9794 109.437 57.6459 108.847 57.4584C108.256 57.271 107.628 57.2355 107.021 57.3554C106.413 57.4753 105.845 57.7467 105.37 58.1443C104.675 58.7203 104.044 59.3708 103.49 60.0843C101.68 62.0843 99.9404 64.2143 98.0704 66.1843C97.198 66.959 96.2612 67.6582 95.2704 68.2743C93.9304 65.6043 94.7904 63.3343 95.2704 61.0543C95.7504 58.7743 94.7804 56.8343 92.8304 56.2443C92.3682 56.1106 91.884 56.0702 91.406 56.1253C90.928 56.1805 90.4657 56.3301 90.046 56.5655C89.6264 56.801 89.2577 57.1175 88.9614 57.4966C88.6652 57.8758 88.4473 58.3101 88.3204 58.7743C86.8504 63.0043 86.6105 67.3243 88.4905 71.5143C89.0686 72.9154 90.1032 74.08 91.4266 74.8188C92.75 75.5577 94.2843 75.8274 95.7804 75.5843C98.2223 75.2348 100.487 74.1094 102.24 72.3743C103.03 71.6843 103.78 70.9643 104.56 70.2443C107.33 74.2443 109.61 75.1543 113.09 73.6343C114.451 72.9288 115.706 72.0369 116.82 70.9843C117.607 70.2454 118.342 69.4536 119.02 68.6143C123.02 72.9043 126.49 73.6143 131.15 71.1943C132.43 70.5129 133.636 69.702 134.75 68.7743C137.33 66.6276 139.864 64.4243 142.35 62.1643C144.76 59.9843 145.11 57.7743 143.47 56.0443C141.83 54.3143 139.88 54.6243 137.47 56.7043C135.06 58.7843 132.47 61.1343 129.85 63.2843C128.738 64.4127 127.234 65.0712 125.65 65.1243C125.39 63.6943 125.08 62.3243 124.92 60.9343C124.63 58.4443 123.57 56.8043 121.72 56.3643C119.55 55.8443 118.06 56.9343 116.85 58.5643C116.15 59.5643 115.51 60.5643 114.85 61.4743C114.01 62.6443 113.2 63.8643 112.05 65.4043ZM94.4805 84.8643V84.7443C96.3905 84.7443 98.3004 84.8643 100.19 84.7443C109.04 84.1043 117.89 83.4243 126.73 82.6543C128.449 82.4953 130.134 82.0807 131.73 81.4243C132.487 81.0872 133.094 80.4857 133.438 79.7326C133.783 78.9796 133.84 78.1268 133.6 77.3343C133.366 76.541 132.867 75.8518 132.187 75.3807C131.506 74.9097 130.686 74.6852 129.86 74.7443C125.18 75.1143 120.49 75.5543 115.86 75.9643C110.45 76.4343 105.04 76.9643 99.6205 77.3243C96.1005 77.5643 92.5604 77.5343 89.0404 77.6243C86.3504 77.6943 84.7004 79.3643 85.0404 81.6243C85.1662 82.5349 85.6255 83.3664 86.3295 83.9577C87.0334 84.5489 87.9318 84.8577 88.8505 84.8243C90.6705 84.9243 92.5805 84.8643 94.4805 84.8643Z" fill="#EAECF1"/>
<path d="M176.38 246.504L161.08 248.084C159.94 231.424 158.82 215.024 157.67 198.414L232.98 189.354C234.73 206.264 236.26 222.984 237.98 239.954L213.17 242.584C212.85 240.064 212.54 237.844 212.29 235.584C211.49 228.374 210.64 221.164 209.92 213.944C209.32 207.944 208.07 206.764 202.2 207.524C194.37 208.524 186.56 209.684 178.75 210.834C175.13 211.364 173.84 212.884 174.1 216.554C174.66 224.704 175.36 232.834 176.01 240.984C176.09 242.724 176.2 244.434 176.38 246.504Z" fill="white"/>
<path d="M157.2 191.094C156.44 179.994 155.69 169.174 154.93 158.094L229.17 149.574C230.23 160.404 231.27 170.994 232.34 182.034L157.2 191.094ZM218.1 171.354C217.66 169.064 217.31 166.454 216.64 163.924C216.427 163.083 215.91 162.35 215.189 161.868C214.467 161.385 213.593 161.187 212.734 161.311C211.875 161.436 211.093 161.874 210.538 162.541C209.983 163.208 209.695 164.057 209.73 164.924C209.985 167.619 210.433 170.293 211.07 172.924C211.158 173.373 211.334 173.801 211.589 174.182C211.843 174.562 212.17 174.889 212.551 175.143C212.932 175.397 213.36 175.572 213.809 175.66C214.259 175.748 214.721 175.746 215.17 175.654C216.97 175.304 218.13 173.704 218.09 171.354H218.1ZM195.74 173.864C195.28 171.774 194.91 169.354 194.18 167.044C193.944 166.251 193.424 165.574 192.718 165.142C192.013 164.71 191.173 164.554 190.36 164.704C189.485 164.8 188.683 165.239 188.132 165.925C187.581 166.612 187.324 167.489 187.42 168.364C187.636 171.06 188.064 173.735 188.7 176.364C188.886 177.126 189.353 177.79 190.008 178.222C190.662 178.654 191.456 178.823 192.23 178.694C192.952 178.649 193.639 178.366 194.182 177.888C194.725 177.41 195.094 176.765 195.23 176.054C195.43 175.394 195.54 174.774 195.74 173.864ZM168.67 167.654C168.212 167.642 167.757 167.726 167.333 167.899C166.909 168.072 166.525 168.331 166.207 168.66C165.888 168.989 165.641 169.381 165.482 169.81C165.322 170.239 165.253 170.697 165.28 171.154C165.341 173.678 165.609 176.194 166.08 178.674C166.149 179.146 166.312 179.598 166.558 180.006C166.805 180.414 167.131 180.768 167.517 181.047C167.903 181.327 168.341 181.526 168.805 181.634C169.269 181.742 169.75 181.755 170.22 181.674C171.172 181.48 172.014 180.928 172.572 180.132C173.13 179.336 173.362 178.356 173.22 177.394C173.02 175.144 172.71 172.904 172.31 170.684C172.196 169.811 171.759 169.011 171.085 168.443C170.412 167.875 169.55 167.579 168.67 167.614V167.654Z" fill="white"/>
<path d="M225.36 110.283C226.36 121.013 227.43 131.443 228.49 142.283L154.49 150.783C153.7 139.353 152.91 128.013 152.1 116.303L225.36 110.283ZM166.36 130.533C166.74 133.093 167.02 135.533 167.49 137.933C167.96 140.333 169.74 141.653 171.67 141.363C173.83 141.043 174.95 139.283 174.67 136.673C174.41 134.423 174.17 132.173 173.86 129.923C173.774 129.207 173.578 128.509 173.28 127.853C173.033 127.261 172.616 126.755 172.082 126.399C171.549 126.043 170.921 125.853 170.28 125.853C169.59 125.825 168.909 126.015 168.332 126.395C167.756 126.776 167.315 127.328 167.07 127.973C166.774 128.806 166.55 129.662 166.4 130.533H166.36ZM195.29 133.583H195.4C195 131.353 194.71 129.103 194.18 126.913C193.65 124.723 191.95 123.493 190.07 123.823C189.115 124.006 188.269 124.552 187.709 125.347C187.149 126.142 186.92 127.123 187.07 128.083C187.322 130.514 187.716 132.928 188.25 135.313C188.382 136.2 188.848 137.004 189.553 137.559C190.258 138.114 191.148 138.379 192.042 138.3C192.935 138.221 193.765 137.803 194.361 137.133C194.957 136.463 195.275 135.59 195.25 134.693C195.35 134.313 195.33 133.943 195.33 133.583H195.29ZM215.37 131.473C215.07 129.753 214.76 127.233 214.18 124.783C214.013 124.063 213.596 123.425 213.002 122.983C212.409 122.542 211.678 122.326 210.94 122.373C210.3 122.308 209.657 122.449 209.104 122.777C208.552 123.105 208.119 123.601 207.87 124.193C207.484 125.012 207.296 125.909 207.32 126.813C207.5 128.978 207.817 131.129 208.27 133.253C208.76 135.513 210.45 136.743 212.27 136.473C214.09 136.203 215.39 134.553 215.41 131.473H215.37Z" fill="white"/>
<path d="M240.6 190.774C239.99 184.774 239.41 178.884 238.79 172.714L249.53 170.964C252.22 170.544 254.92 170.204 257.6 169.734C261.43 169.064 262.76 167.174 262.06 163.414C261.49 160.414 260.92 157.354 260.26 154.344C259.38 150.344 257.95 149.344 253.92 149.834C249.15 150.404 244.39 151.104 239.63 151.734C238.76 151.844 237.87 151.854 236.82 151.924C236.19 145.504 235.59 139.324 234.99 133.094L265.99 129.514C268.93 165.054 271.85 200.374 274.8 236.014L269.99 236.514C269.78 234.274 269.62 232.314 269.42 230.344C269.03 226.564 268.69 222.764 268.19 218.994C267.77 215.894 266 214.114 262.91 214.204C259.835 214.32 256.779 214.749 253.79 215.484C251.31 216.074 250.19 218.074 250.22 220.644C250.267 225.644 250.31 230.644 250.35 235.644C250.35 236.534 250.35 237.434 250.35 238.534L245.35 239.264C244.42 229.794 243.51 220.554 242.58 211.074L253.14 209.074C256.08 208.524 259.03 208.074 261.95 207.424C265.05 206.784 266.3 205.174 266.04 202.014C265.78 198.854 265.43 195.874 265.04 192.814C264.65 189.754 262.87 188.364 259.78 188.714C254.78 189.284 249.69 189.914 244.65 190.494C243.33 190.654 242.08 190.684 240.6 190.774Z" fill="#979FBB"/>
<path d="M223.64 103.093L152.25 108.973C153.83 94.5435 158.71 82.3535 171.13 74.4935C180.75 68.4035 190.87 68.6435 200.89 73.7135C208.31 77.4635 213.82 83.3035 218 90.3835C219.586 93.2309 221.025 96.1581 222.31 99.1535C222.82 100.273 223.11 101.493 223.64 103.093ZM201.99 91.8635C199.41 92.1135 197.15 92.2835 194.91 92.5835C191.14 93.0735 187.37 93.5835 183.62 94.2135C182.795 94.2913 182.023 94.6545 181.437 95.2404C180.851 95.8264 180.488 96.5984 180.41 97.4235C180.298 98.1484 180.435 98.8897 180.798 99.527C181.161 100.164 181.729 100.66 182.41 100.933C183.266 101.219 184.173 101.318 185.07 101.223C188.13 100.903 191.18 100.443 194.23 100.083C197.47 99.7035 200.72 99.4135 203.95 98.9935C204.428 98.9569 204.894 98.826 205.322 98.6082C205.749 98.3905 206.129 98.0902 206.439 97.7248C206.75 97.3594 206.985 96.936 207.131 96.4792C207.277 96.0225 207.331 95.5413 207.29 95.0635C207.14 93.1735 205.76 91.9735 203.56 91.8635C202.94 91.8635 202.31 91.8635 201.99 91.8635ZM195.53 91.0535C197.82 90.9835 200.04 90.6335 201.85 89.0535C202.497 88.5463 202.946 87.828 203.118 87.0239C203.289 86.2198 203.173 85.3808 202.79 84.6535C202.398 83.9347 201.775 83.3691 201.022 83.048C200.269 82.7268 199.43 82.6688 198.64 82.8835C198.292 82.9688 197.956 83.0964 197.64 83.2635C197.37 83.4649 197.059 83.605 196.729 83.6741C196.399 83.7431 196.058 83.7395 195.729 83.6633C195.401 83.5872 195.093 83.4404 194.827 83.2332C194.561 83.026 194.344 82.7633 194.19 82.4635C193.948 82.0829 193.632 81.7545 193.261 81.4975C192.89 81.2406 192.472 81.0603 192.03 80.9671C191.589 80.874 191.133 80.8699 190.69 80.9552C190.247 81.0404 189.825 81.2132 189.45 81.4635C188.718 81.9953 188.188 82.7594 187.947 83.6312C187.705 84.503 187.766 85.4309 188.12 86.2635C189.2 89.2235 191.96 91.0135 195.53 91.0335V91.0535Z" fill="white"/>
<path d="M195.969 215.953L202.459 214.953C203.539 224.453 204.579 233.703 205.659 243.273L198.009 244.153C197.319 234.733 196.649 225.473 195.969 215.953Z" fill="#979FBB"/>
<path d="M188.639 216.973C189.299 226.493 189.939 235.573 190.639 244.893L183.759 245.743C183.029 236.423 182.329 227.363 181.609 217.983L188.639 216.973Z" fill="#979FBB"/>
<path d="M238.119 165.294C237.939 163.174 237.779 161.424 237.609 159.414L253.319 157.334C253.669 159.144 253.979 160.784 254.319 162.754L238.119 165.294Z" fill="white"/>
<path d="M241.819 203.714C241.669 201.854 241.539 200.204 241.379 198.234L257.819 196.314L258.479 200.644L241.819 203.714Z" fill="white"/>
<path d="M257.76 222.195L261.21 221.475C261.7 226.825 262.21 231.915 262.64 237.285L257.76 237.805V222.195Z" fill="white"/>
<path d="M98.7403 195.274C98.7403 195.894 98.7403 196.354 98.7403 196.804C98.7148 197.654 98.382 198.465 97.8036 199.088C97.2252 199.711 96.4404 200.102 95.5951 200.19C94.7498 200.278 93.9013 200.056 93.2071 199.566C92.5129 199.076 92.0201 198.35 91.8203 197.524C91.5332 196.381 91.3359 195.218 91.2303 194.044C90.5403 187.554 89.8903 181.044 89.2303 174.574C88.9303 171.714 90.2302 169.654 92.4002 169.414C94.5702 169.174 96.2102 170.774 96.5202 173.544C97.2902 180.474 98.0003 187.414 98.7303 194.354C98.7504 194.661 98.7538 194.968 98.7403 195.274V195.274Z" fill="#3558A2"/>
<path d="M60.0409 242.424C60.0476 242.892 60.0243 243.359 59.9709 243.824C59.8635 244.64 59.4755 245.394 58.8735 245.956C58.2715 246.518 57.4928 246.853 56.6709 246.904C55.8458 246.993 55.0177 246.766 54.3534 246.269C53.689 245.771 53.2379 245.041 53.0909 244.224C52.5809 241.564 52.3009 238.854 52.0409 236.154C51.5609 231.294 51.1709 226.424 50.7409 221.554C50.6827 221.013 50.6592 220.468 50.6709 219.924C50.6557 219.061 50.9498 218.22 51.5 217.555C52.0501 216.889 52.82 216.442 53.6709 216.294C54.5933 216.196 55.5187 216.451 56.2608 217.007C57.0029 217.564 57.5067 218.381 57.6709 219.294C57.9086 220.539 58.0656 221.799 58.1408 223.064C58.7708 229.414 59.3909 235.804 60.0409 242.424Z" fill="#3558A2"/>
<path d="M56.8209 199.863C56.8709 200.983 56.9708 201.713 56.9208 202.433C56.9157 203.319 56.5806 204.171 55.9808 204.823C55.381 205.475 54.5596 205.88 53.6773 205.959C52.7949 206.038 51.915 205.784 51.2093 205.249C50.5035 204.714 50.0227 203.934 49.8609 203.063C49.5833 201.637 49.3962 200.194 49.3008 198.743C48.7608 192.87 48.2342 187 47.7209 181.133C47.6524 180.412 47.6894 179.684 47.8308 178.973C47.9723 178.156 48.3902 177.412 49.0146 176.866C49.6389 176.32 50.432 176.005 51.2609 175.973C52.0427 175.942 52.8105 176.187 53.4289 176.667C54.0473 177.146 54.4765 177.828 54.6408 178.593C55.0897 180.809 55.4037 183.05 55.5809 185.303C56.0409 190.263 56.4309 195.233 56.8209 199.863Z" fill="#3558A2"/>
<path d="M93.3788 217.284C93.3788 216.194 93.3088 215.104 93.3788 214.024C93.3685 213.107 93.6944 212.218 94.2951 211.525C94.8959 210.832 95.7295 210.384 96.6387 210.264C98.4387 210.064 99.9587 211.264 100.539 213.264C100.707 213.969 100.801 214.689 100.819 215.414C101.149 221.834 101.479 228.254 101.769 234.684C101.795 235.497 101.721 236.309 101.549 237.104C101.454 237.922 101.065 238.677 100.454 239.229C99.843 239.781 99.0521 240.092 98.2287 240.104C97.4534 240.101 96.6992 239.851 96.0753 239.391C95.4514 238.931 94.9903 238.284 94.7588 237.544C94.5667 236.942 94.4589 236.316 94.4387 235.684C94.092 229.544 93.7587 223.397 93.4387 217.244L93.3788 217.284Z" fill="#3558A2"/>
<path d="M81.1996 238.113C81.1828 238.627 81.0559 239.132 80.8275 239.593C80.599 240.054 80.2744 240.461 79.8754 240.786C79.4764 241.111 79.0124 241.347 78.5146 241.477C78.0168 241.608 77.4968 241.63 76.9897 241.543C75.1897 241.213 73.9896 239.733 73.7796 237.343C73.5696 235.183 73.4296 233.013 73.2696 230.843C72.9196 226.143 72.5496 221.453 72.2696 216.753C72.2226 215.763 72.3863 214.775 72.7497 213.853C72.985 213.252 73.3988 212.739 73.9353 212.381C74.4717 212.023 75.1051 211.839 75.7497 211.853C76.3893 211.805 77.0287 211.948 77.5875 212.263C78.1462 212.578 78.5993 213.051 78.8896 213.623C79.2823 214.339 79.5208 215.129 79.5897 215.943C80.1397 222.983 80.6296 230.033 81.1996 238.113Z" fill="#3558A2"/>
<path d="M69.8802 179.374C69.7687 178.204 69.7219 177.029 69.7402 175.854C69.7141 174.938 70.0325 174.046 70.6324 173.353C71.2323 172.661 72.07 172.219 72.9802 172.114C74.7702 171.944 76.2802 173.114 76.8402 175.234C76.967 175.762 77.044 176.301 77.0701 176.844C77.5835 183.344 78.0868 189.837 78.5801 196.324C78.6152 196.777 78.6152 197.231 78.5801 197.684C78.5587 198.599 78.1996 199.474 77.572 200.14C76.9443 200.807 76.0924 201.218 75.1801 201.294C74.3053 201.343 73.444 201.062 72.7663 200.506C72.0886 199.951 71.6439 199.161 71.5201 198.294C71.0601 195.354 70.8702 192.364 70.6002 189.394C70.4502 187.684 70.3802 185.964 70.2502 184.244C70.1202 182.524 70.0102 181.004 69.8802 179.374Z" fill="#3558A2"/>
<path d="M74.741 156.914C74.741 157.444 74.741 157.914 74.741 158.354C74.729 159.175 74.4323 159.967 73.9016 160.595C73.371 161.222 72.6392 161.646 71.831 161.794C70.9758 161.977 70.083 161.823 69.338 161.365C68.5931 160.907 68.0534 160.18 67.831 159.334C67.3561 157.404 67.0219 155.442 66.831 153.464C66.251 148.884 65.7209 144.304 65.1909 139.724C65.0695 138.826 65.0227 137.919 65.0509 137.014C65.038 136.144 65.3395 135.299 65.8998 134.634C66.4602 133.969 67.2418 133.529 68.101 133.394C68.9641 133.269 69.8429 133.468 70.5672 133.954C71.2914 134.44 71.8094 135.178 72.0209 136.024C72.3921 137.511 72.6429 139.026 72.7709 140.554C73.4409 146.034 74.091 151.514 74.741 156.914Z" fill="#3558A2"/>
<path d="M44.8301 140.865C44.8301 140.505 44.8301 140.135 44.8301 139.775C44.8266 138.913 45.1246 138.078 45.6725 137.413C46.2204 136.748 46.9838 136.296 47.8301 136.135C48.7426 136.008 49.6682 136.246 50.4071 136.796C51.1461 137.346 51.6392 138.164 51.7801 139.075C52.2901 141.735 52.57 144.445 52.89 147.135C53.38 151.185 53.8101 155.225 54.2701 159.275C54.2701 159.545 54.3801 159.805 54.4101 160.075C54.6401 162.525 53.3501 164.495 51.3301 164.815C49.3101 165.135 47.5001 163.575 47.1201 161.085C46.6801 158.225 46.4101 155.335 46.1201 152.465C45.6801 148.635 45.2601 144.775 44.8301 140.865Z" fill="#3558A2"/>
<path d="M94.4609 154.344C94.5207 155.223 94.5207 156.105 94.4609 156.984C94.3774 157.776 94.0279 158.516 93.4694 159.084C92.911 159.651 92.1766 160.013 91.3862 160.109C90.5958 160.205 89.796 160.031 89.1176 159.614C88.4392 159.197 87.9221 158.563 87.6508 157.814C87.3173 156.78 87.1125 155.709 87.0408 154.624C86.5008 148.854 85.9808 143.084 85.5208 137.304C85.4566 136.406 85.5758 135.505 85.8709 134.654C86.0846 134.048 86.4751 133.52 86.9921 133.139C87.5091 132.757 88.1288 132.54 88.7708 132.514C89.4088 132.419 90.0606 132.525 90.6357 132.817C91.2108 133.11 91.6809 133.573 91.9809 134.144C92.4311 135.024 92.7126 135.981 92.8108 136.964C93.3909 142.724 93.9109 148.504 94.4609 154.344Z" fill="#3558A2"/>
<path d="M112.05 65.4042C113.18 63.8142 114.05 62.6442 114.83 61.4742C115.51 60.4742 116.15 59.4742 116.83 58.5642C118.04 56.9342 119.53 55.8442 121.7 56.3642C123.55 56.8042 124.61 58.4442 124.9 60.9342C125.06 62.3242 125.37 63.6942 125.63 65.1242C127.214 65.0712 128.717 64.4126 129.83 63.2842C132.4 61.1342 134.92 58.9042 137.45 56.7042C139.98 54.5042 141.88 54.3942 143.45 56.0442C145.02 57.6942 144.74 59.9842 142.33 62.1642C139.92 64.3442 137.33 66.6242 134.73 68.7742C133.616 69.7019 132.41 70.5128 131.13 71.1942C126.47 73.6442 123.04 72.9042 119 68.6142C118.322 69.4535 117.587 70.2454 116.8 70.9842C115.686 72.0368 114.431 72.9288 113.07 73.6342C109.59 75.1542 107.31 74.1942 104.54 70.2442C103.76 70.9642 103.01 71.6842 102.22 72.3742C100.467 74.1094 98.2022 75.2348 95.7604 75.5842C94.2643 75.8274 92.7299 75.5576 91.4065 74.8188C90.0831 74.0799 89.0484 72.9154 88.4703 71.5142C86.5903 67.3242 86.8303 63.0042 88.3003 58.7742C88.4271 58.3101 88.645 57.8758 88.9413 57.4966C89.2375 57.1174 89.6062 56.8009 90.0259 56.5655C90.4455 56.3301 90.9078 56.1804 91.3858 56.1253C91.8639 56.0701 92.348 56.1106 92.8103 56.2442C94.8103 56.8342 95.7303 58.6942 95.2503 61.0542C94.7703 63.4142 93.9203 65.6042 95.2503 68.2742C96.2412 67.6581 97.1778 66.9589 98.0503 66.1842C99.9203 64.1842 101.66 62.1142 103.47 60.0842C104.024 59.3708 104.655 58.7202 105.35 58.1442C105.825 57.7466 106.393 57.4753 107 57.3554C107.608 57.2355 108.236 57.2709 108.827 57.4584C109.417 57.6459 109.95 57.9793 110.378 58.4278C110.805 58.8764 111.112 59.4255 111.27 60.0242C111.659 61.7965 111.92 63.5945 112.05 65.4042V65.4042Z" fill="#3558A2"/>
<path d="M94.4807 84.8627C92.5807 84.8627 90.6706 84.9427 88.7706 84.8627C87.8519 84.8961 86.9536 84.5873 86.2497 83.9961C85.5458 83.4049 85.0864 82.5734 84.9607 81.6627C84.6107 79.3727 86.2607 77.6627 88.9607 77.6627C92.4807 77.5727 96.0206 77.6027 99.5406 77.3627C104.961 77.0027 110.371 76.4727 115.781 76.0027C120.461 75.5927 125.151 75.1527 129.781 74.7827C130.606 74.7236 131.426 74.9481 132.107 75.4192C132.787 75.8902 133.286 76.5794 133.521 77.3727C133.76 78.1652 133.703 79.018 133.358 79.7711C133.014 80.5241 132.407 81.1256 131.651 81.4627C130.054 82.1191 128.369 82.5337 126.651 82.6927C117.811 83.4627 108.961 84.1427 100.111 84.7827C98.2207 84.9227 96.3106 84.7827 94.4006 84.7827L94.4807 84.8627Z" fill="#3558A2"/>
<path d="M218.09 171.354C218.09 173.704 216.97 175.304 215.16 175.674C214.711 175.766 214.249 175.768 213.799 175.68C213.35 175.592 212.922 175.416 212.541 175.163C212.16 174.909 211.833 174.582 211.579 174.201C211.324 173.821 211.148 173.393 211.06 172.944C210.423 170.313 209.975 167.639 209.72 164.944C209.685 164.077 209.973 163.228 210.528 162.561C211.083 161.893 211.865 161.455 212.724 161.331C213.583 161.207 214.457 161.405 215.179 161.888C215.9 162.37 216.417 163.103 216.63 163.944C217.3 166.454 217.65 169.064 218.09 171.354Z" fill="#3558A2"/>
<path d="M195.739 173.864C195.539 174.814 195.429 175.434 195.279 176.044C195.142 176.755 194.774 177.4 194.231 177.878C193.688 178.356 193.001 178.64 192.279 178.684C191.505 178.813 190.711 178.644 190.057 178.212C189.402 177.78 188.935 177.116 188.749 176.354C188.113 173.726 187.685 171.051 187.469 168.354C187.373 167.479 187.63 166.602 188.181 165.916C188.732 165.229 189.534 164.79 190.409 164.694C191.222 164.544 192.062 164.7 192.767 165.132C193.473 165.564 193.993 166.242 194.229 167.034C194.909 169.314 195.279 171.734 195.739 173.864Z" fill="#3558A2"/>
<path d="M168.671 167.614C169.543 167.592 170.392 167.893 171.055 168.46C171.718 169.027 172.148 169.819 172.261 170.684C172.661 172.904 172.971 175.144 173.171 177.394C173.313 178.356 173.082 179.336 172.524 180.132C171.966 180.928 171.123 181.48 170.171 181.674C169.701 181.755 169.22 181.742 168.756 181.634C168.292 181.526 167.854 181.327 167.468 181.047C167.082 180.768 166.757 180.414 166.51 180.006C166.263 179.598 166.1 179.146 166.031 178.674C165.56 176.193 165.292 173.678 165.231 171.154C165.198 170.689 165.264 170.223 165.424 169.785C165.584 169.348 165.834 168.949 166.159 168.615C166.484 168.28 166.875 168.019 167.308 167.846C167.741 167.674 168.205 167.595 168.671 167.614Z" fill="#3558A2"/>
<path d="M166.4 130.534C166.541 129.682 166.751 128.842 167.03 128.024C167.267 127.378 167.699 126.822 168.268 126.434C168.837 126.047 169.513 125.848 170.2 125.864C170.842 125.864 171.469 126.054 172.003 126.41C172.537 126.766 172.954 127.272 173.2 127.864C173.499 128.52 173.695 129.219 173.78 129.934C174.09 132.184 174.33 134.434 174.59 136.684C174.9 139.294 173.78 141.054 171.59 141.374C169.66 141.664 167.87 140.294 167.41 137.944C166.95 135.594 166.78 133.094 166.4 130.534Z" fill="#3558A2"/>
<path d="M195.33 133.584C195.33 133.944 195.33 134.314 195.33 134.674C195.356 135.571 195.038 136.443 194.442 137.114C193.846 137.784 193.016 138.201 192.122 138.28C191.229 138.36 190.338 138.094 189.634 137.539C188.929 136.984 188.463 136.181 188.33 135.294C187.797 132.909 187.403 130.495 187.15 128.064C187.001 127.103 187.23 126.122 187.79 125.328C188.349 124.533 189.195 123.987 190.15 123.804C192.03 123.474 193.7 124.624 194.26 126.894C194.82 129.164 195.08 131.334 195.48 133.564L195.33 133.584Z" fill="#3558A2"/>
<path d="M215.411 131.475C215.411 134.555 214.181 136.195 212.331 136.475C210.481 136.755 208.801 135.475 208.331 133.255C207.879 131.13 207.561 128.979 207.381 126.815C207.357 125.911 207.546 125.013 207.931 124.195C208.18 123.603 208.613 123.106 209.166 122.779C209.718 122.451 210.362 122.31 211.001 122.375C211.739 122.327 212.47 122.544 213.063 122.985C213.657 123.427 214.074 124.064 214.241 124.785C214.801 127.235 215.111 129.755 215.411 131.475Z" fill="#3558A2"/>
<path d="M201.991 91.8633C202.311 91.8633 202.991 91.8633 203.571 91.8633C205.771 91.9733 207.151 93.1733 207.301 95.0633C207.342 95.5411 207.288 96.0223 207.142 96.4791C206.996 96.9359 206.761 97.3592 206.45 97.7246C206.139 98.09 205.76 98.3903 205.332 98.608C204.905 98.8258 204.439 98.9567 203.961 98.9933C200.731 99.4133 197.481 99.7033 194.241 100.083C191.241 100.443 188.141 100.903 185.081 101.223C184.183 101.318 183.276 101.219 182.421 100.933C181.74 100.66 181.172 100.164 180.809 99.5268C180.446 98.8895 180.309 98.1482 180.421 97.4233C180.498 96.5983 180.862 95.8262 181.448 95.2403C182.034 94.6543 182.806 94.2911 183.631 94.2133C187.381 93.6033 191.151 93.0733 194.921 92.5833C197.201 92.2633 199.411 92.0933 201.991 91.8633Z" fill="#3558A2"/>
<path d="M195.53 91.0333C191.959 91.0333 189.2 89.2233 188.11 86.2033C187.756 85.3707 187.695 84.4428 187.936 83.571C188.178 82.6993 188.708 81.9351 189.44 81.4033C189.815 81.153 190.237 80.9802 190.68 80.895C191.123 80.8098 191.578 80.8139 192.02 80.907C192.461 81.0001 192.88 81.1805 193.25 81.4374C193.621 81.6943 193.937 82.0227 194.18 82.4033C194.334 82.7031 194.551 82.9658 194.817 83.173C195.083 83.3802 195.391 83.527 195.719 83.6032C196.047 83.6793 196.388 83.683 196.718 83.6139C197.048 83.5449 197.359 83.4047 197.63 83.2033C197.946 83.0363 198.282 82.9086 198.63 82.8233C199.42 82.6087 200.259 82.6666 201.012 82.9878C201.765 83.309 202.388 83.8746 202.78 84.5933C203.163 85.3207 203.279 86.1596 203.107 86.9637C202.935 87.7679 202.487 88.4862 201.84 88.9933C200.04 90.6133 197.82 90.9633 195.53 91.0333Z" fill="#3558A2"/>
</svg>
