<svg width="300" height="300" viewBox="0 0 300 300" fill="none" xmlns="http://www.w3.org/2000/svg">
<path d="M195.464 91.8041C199.944 91.0541 203.944 90.3441 207.944 89.7341C212.684 89.0041 217.364 89.064 221.754 91.324C223.282 92.0505 224.63 93.106 225.702 94.4147C226.774 95.7235 227.543 97.2531 227.954 98.894C229.034 103.284 229.844 107.734 230.684 112.174C234.017 129.994 237.351 147.811 240.684 165.624C242.754 176.624 244.984 187.514 246.834 198.504C247.413 202.728 247.647 206.992 247.534 211.254C247.621 213.509 246.891 215.72 245.478 217.48C244.065 219.24 242.065 220.431 239.844 220.834C231.184 222.834 222.504 224.754 213.844 226.684C199.324 229.924 184.844 233.124 170.294 236.424C167.224 237.124 164.294 238.354 161.044 238.314C154.344 238.234 149.444 234.314 148.324 227.664C146.694 218.024 145.124 208.364 143.524 198.664C143.134 196.294 143.154 196.244 140.734 195.804C132.434 194.284 124.138 192.781 115.844 191.294C106.654 189.634 97.4641 187.994 88.2741 186.294C84.9241 185.684 83.6542 183.664 84.3642 180.114C87.2709 165.714 90.1875 151.317 93.1142 136.924C97.7809 113.897 102.427 90.8741 107.054 67.8541C107.194 67.1441 107.344 66.4341 107.544 65.7341C107.735 64.692 108.302 63.7562 109.137 63.1038C109.972 62.4514 111.017 62.1277 112.074 62.194C113.334 62.194 114.614 62.194 115.884 62.254C130.124 62.7807 144.368 63.3174 158.614 63.8641C170.401 64.3308 182.194 64.8241 193.994 65.3441C198.044 65.5141 199.434 67.3441 198.774 71.3441C197.684 78.0241 196.684 84.5941 195.464 91.8041ZM240.394 209.034C240.104 205.834 239.914 202.114 239.394 198.434C238.874 194.754 238.004 190.954 237.304 187.214C234.097 170.194 230.898 153.194 227.704 136.214C225.704 125.614 223.904 114.984 221.914 104.384C221.414 101.724 220.844 98.7441 217.914 97.7441C215.717 96.9327 213.366 96.6251 211.034 96.844C199.904 98.394 188.824 100.254 177.724 101.974C166.624 103.694 155.724 105.274 144.664 106.974C138.844 107.894 135.744 112.704 136.874 118.484C138.104 124.794 139.144 131.144 140.264 137.484L146.534 173.074C148.627 184.934 150.714 196.794 152.794 208.654C153.794 214.654 154.794 220.654 155.874 226.594C156.484 230.024 158.434 231.444 161.824 231.024C162.638 230.919 163.443 230.759 164.234 230.544C166.674 229.884 169.084 229.084 171.544 228.544C193.404 223.644 215.264 218.761 237.124 213.894C239.924 213.214 240.484 212.434 240.394 209.034ZM114.274 69.6641L92.0542 179.594L141.784 188.594C139.544 175.864 137.374 163.594 135.214 151.344C128.004 150.284 121.094 149.294 114.214 148.254C113.137 148.122 112.083 147.839 111.084 147.414C110.419 147.103 109.874 146.582 109.533 145.932C109.191 145.282 109.073 144.538 109.194 143.814C109.253 143.125 109.535 142.475 109.997 141.96C110.459 141.446 111.076 141.096 111.754 140.964C112.739 140.743 113.756 140.705 114.754 140.854C118.884 141.414 123.004 142.094 127.134 142.694C129.254 143.004 131.384 143.254 133.914 143.584C132.864 137.584 131.914 132.074 130.914 126.504C129.004 126.284 127.384 126.124 125.764 125.924C123.154 125.604 120.524 125.384 117.954 124.924C117.037 124.816 116.199 124.354 115.618 123.636C115.037 122.919 114.76 122.003 114.844 121.084C114.957 120.169 115.411 119.331 116.116 118.738C116.821 118.144 117.724 117.839 118.644 117.884C119.912 117.898 121.178 117.991 122.434 118.164L128.994 118.804C129.154 118.464 129.224 118.374 129.214 118.304C128.214 110.214 133.504 101.084 144.284 99.7441C145.544 99.5941 146.794 99.364 148.044 99.164C160.584 97.224 173.114 95.2341 185.664 93.3741C187.304 93.1341 188.044 92.5341 188.284 90.9241C188.944 86.5241 189.724 82.154 190.424 77.764C190.684 76.124 190.844 74.4541 191.074 72.6141L114.274 69.6641Z" fill="#3558A2"/>
<path d="M81.4754 106.013C80.9254 107.013 80.3654 108.013 79.8354 109.093C76.1154 116.453 72.4153 123.824 68.6653 131.174C66.6653 135.174 64.9053 135.733 60.7653 133.813C58.8753 132.933 56.9853 132.043 55.1553 131.063C51.9653 129.373 51.3053 127.704 52.6753 124.374C56.2953 115.583 59.9953 106.823 63.6753 98.0434C64.6753 95.6234 65.6754 93.1834 66.7454 90.7834C67.0397 90.2283 67.2075 89.615 67.2369 88.9874C67.2662 88.3599 67.1564 87.7336 66.9153 87.1534C66.4746 86.095 66.3638 84.9282 66.5976 83.8058C66.8313 82.6834 67.3988 81.6578 68.2254 80.8634C73.6575 74.6346 79.5256 68.7998 85.7853 63.4033C86.404 62.8658 87.0739 62.3902 87.7853 61.9833C92.1553 59.5433 96.4753 61.8233 96.6553 66.8433C96.7208 69.5666 96.4691 72.2883 95.9053 74.9533C93.3353 87.7534 90.6253 100.523 87.9053 113.293C87.7502 114.095 87.5053 114.877 87.1753 115.623C86.8247 116.476 86.1708 117.168 85.3399 117.567C84.5089 117.966 83.5597 118.043 82.6753 117.783C82.2346 117.664 81.8222 117.457 81.4621 117.176C81.102 116.895 80.8015 116.545 80.578 116.147C80.3546 115.748 80.2128 115.309 80.1608 114.855C80.1088 114.402 80.1477 113.942 80.2753 113.503C80.6353 111.503 81.2754 109.633 81.6954 107.693C81.8154 107.183 81.8654 106.693 81.9454 106.133L81.4754 106.013ZM74.0053 92.3834L60.2354 125.283L62.8053 126.494L78.6853 95.1534L74.0053 92.3834ZM85.4954 90.4934C86.7354 83.7934 87.9253 77.3634 89.1253 70.9334C83.7983 74.8074 79.0535 79.4243 75.0353 84.6434L85.4954 90.4934Z" fill="#3558A2"/>
<path d="M240.394 209.035C240.484 212.435 239.924 213.215 237.084 213.855C215.224 218.748 193.364 223.631 171.504 228.505C169.044 229.065 166.634 229.865 164.194 230.505C163.403 230.719 162.597 230.88 161.784 230.985C158.394 231.405 156.444 229.985 155.834 226.555C154.774 220.555 153.834 214.555 152.754 208.615C150.687 196.748 148.601 184.888 146.494 173.035L140.224 137.445C139.104 131.105 138.064 124.755 136.834 118.445C135.704 112.665 138.834 107.855 144.624 106.935C155.624 105.205 166.624 103.595 177.684 101.935C188.744 100.275 199.864 98.3548 210.994 96.8048C213.326 96.5859 215.677 96.8934 217.874 97.7048C220.874 98.7048 221.414 101.705 221.874 104.345C223.874 114.945 225.694 125.575 227.664 136.175C230.837 153.195 234.037 170.195 237.264 187.175C237.964 190.915 238.824 194.635 239.354 198.395C239.884 202.155 240.104 205.835 240.394 209.035ZM207.254 107.035L207.164 107.385C205.544 107.515 203.904 107.545 202.304 107.795C187.804 110.025 173.304 112.245 158.814 114.595C155.184 115.185 151.414 115.245 148.074 117.245C145.784 118.625 145.074 119.655 145.514 122.305C146.094 125.695 146.744 129.085 147.374 132.465C148.314 137.535 149.224 142.615 150.224 147.685C150.884 151.045 152.124 152.105 155.644 152.165C157.272 152.18 158.897 152.029 160.494 151.715C174.761 149.048 189.027 146.381 203.294 143.715C207.124 142.995 210.964 142.295 214.784 141.525C217.984 140.875 218.894 139.655 218.784 136.455C218.806 135.278 218.743 134.102 218.594 132.935C217.194 125.355 215.774 117.775 214.244 110.225C214.149 109.8 213.963 109.402 213.699 109.057C213.435 108.711 213.099 108.427 212.714 108.225C210.919 107.732 209.096 107.352 207.254 107.085V107.035ZM185.414 193.625C185.369 195.076 185.62 196.522 186.15 197.873C186.681 199.225 187.48 200.455 188.501 201.488C189.521 202.522 190.74 203.337 192.085 203.885C193.43 204.432 194.872 204.701 196.324 204.675C202.594 204.565 207.624 199.195 207.824 192.885C208.004 187.445 201.704 181.715 196.824 181.945C193.766 182.018 190.858 183.287 188.724 185.48C186.591 187.673 185.403 190.615 185.414 193.675V193.625ZM190.574 177.845C192.031 177.884 193.482 177.629 194.839 177.097C196.196 176.564 197.432 175.765 198.474 174.745C199.515 173.726 200.342 172.507 200.904 171.162C201.466 169.817 201.751 168.372 201.744 166.915C201.744 160.115 196.984 155.765 190.744 155.425C184.744 155.095 179.664 160.235 179.554 166.355C179.518 167.837 179.775 169.311 180.31 170.693C180.844 172.076 181.647 173.339 182.67 174.411C183.694 175.483 184.919 176.342 186.275 176.94C187.631 177.538 189.092 177.862 190.574 177.895V177.845ZM163.574 180.535C169.574 180.745 174.644 175.665 174.824 169.295C174.984 163.825 170.094 159.165 163.984 158.995C158.554 158.845 153.494 163.825 153.254 169.575C153.153 170.992 153.347 172.415 153.823 173.754C154.299 175.092 155.048 176.318 156.021 177.353C156.994 178.389 158.171 179.211 159.478 179.769C160.785 180.327 162.193 180.608 163.614 180.595L163.574 180.535ZM169.664 186.995C166.74 187.088 163.966 188.315 161.93 190.417C159.894 192.518 158.755 195.329 158.754 198.255C158.812 200.948 159.931 203.509 161.867 205.382C163.803 207.255 166.401 208.287 169.094 208.255C171.975 208.221 174.732 207.079 176.793 205.066C178.854 203.053 180.062 200.324 180.164 197.445C180.176 196.069 179.913 194.704 179.39 193.432C178.866 192.159 178.094 191.004 177.117 190.035C176.14 189.066 174.979 188.302 173.703 187.788C172.426 187.275 171.06 187.022 169.684 187.045L169.664 186.995ZM221.914 198.855C224.717 198.837 227.402 197.729 229.401 195.766C231.401 193.802 232.557 191.136 232.624 188.335C232.694 182.855 227.624 177.835 221.874 177.775C219.072 177.729 216.366 178.796 214.35 180.742C212.333 182.687 211.169 185.353 211.114 188.155C211.127 191.017 212.276 193.758 214.309 195.773C216.342 197.789 219.092 198.915 221.954 198.905L221.914 198.855ZM216.844 150.955C210.534 150.955 205.544 155.575 205.484 161.595C205.424 167.615 209.704 171.775 215.754 171.845C218.678 171.899 221.506 170.803 223.629 168.792C225.752 166.781 227 164.017 227.104 161.095C227.334 155.595 221.414 150.595 216.884 151.005L216.844 150.955Z" fill="#EAECF1"/>
<path d="M114.275 69.6641L190.985 72.564C190.755 74.404 190.595 76.0741 190.335 77.7141C189.635 82.1041 188.855 86.4741 188.195 90.8741C187.955 92.4841 187.195 93.084 185.575 93.324C173.025 95.184 160.495 97.1741 147.955 99.1141C146.705 99.3141 145.455 99.544 144.195 99.694C133.415 101.034 128.075 110.164 129.125 118.254C129.125 118.324 129.065 118.414 128.905 118.754L122.345 118.114C121.089 117.941 119.823 117.848 118.555 117.834C117.634 117.789 116.731 118.094 116.026 118.688C115.322 119.281 114.867 120.12 114.755 121.034C114.67 121.953 114.948 122.869 115.529 123.586C116.11 124.304 116.948 124.766 117.865 124.874C120.435 125.364 123.065 125.584 125.675 125.874C127.295 126.074 128.915 126.234 130.825 126.454C131.825 132.024 132.825 137.574 133.825 143.534C131.295 143.204 129.165 142.954 127.045 142.644C122.915 142.044 118.795 141.364 114.665 140.804C113.667 140.655 112.649 140.693 111.665 140.914C110.986 141.046 110.369 141.396 109.907 141.91C109.446 142.425 109.164 143.075 109.105 143.764C108.983 144.488 109.102 145.232 109.443 145.882C109.785 146.533 110.33 147.053 110.995 147.364C111.994 147.789 113.047 148.072 114.125 148.204C121.025 149.204 127.935 150.204 135.125 151.294C137.285 163.544 139.455 175.814 141.695 188.544L91.9648 179.544L114.275 69.6641ZM154.415 90.2141V89.9241C157.775 89.9241 161.125 89.9241 164.485 89.9241C165.386 89.9124 166.279 89.7467 167.125 89.4341C167.816 89.1902 168.405 88.7196 168.796 88.0987C169.186 87.4778 169.355 86.7431 169.275 86.014C169.277 85.3286 169.051 84.6619 168.633 84.1188C168.215 83.5757 167.628 83.1871 166.965 83.014C165.918 82.7338 164.839 82.5926 163.755 82.5941C158.135 82.5341 152.515 82.6641 146.895 82.4641C140.835 82.2541 134.775 81.7141 128.705 81.4041C127.448 81.3534 126.192 81.5261 124.995 81.9141C124.334 82.1269 123.768 82.5621 123.392 83.1456C123.017 83.729 122.855 84.4247 122.935 85.1141C122.923 85.803 123.13 86.4779 123.528 87.0408C123.925 87.6036 124.491 88.0251 125.145 88.2441C126.001 88.549 126.897 88.7308 127.805 88.7841C136.671 89.2641 145.541 89.7407 154.415 90.2141Z" fill="white"/>
<path d="M74.0043 92.3848L78.6543 95.1548L62.8043 126.495L60.2344 125.285L74.0043 92.3848Z" fill="white"/>
<path d="M85.4953 90.4935L75.0352 84.6435C79.0534 79.4244 83.7982 74.8076 89.1251 70.9336C87.9251 77.3636 86.7353 83.7935 85.4953 90.4935Z" fill="#979FBB"/>
<path d="M207.254 107.084C209.091 107.375 210.908 107.779 212.694 108.294C213.079 108.497 213.415 108.78 213.679 109.126C213.943 109.471 214.129 109.87 214.224 110.294C215.754 117.844 217.224 125.424 218.574 133.004C218.723 134.171 218.786 135.348 218.764 136.524C218.894 139.724 217.984 140.944 214.764 141.594C210.944 142.364 207.104 143.064 203.274 143.784C189.008 146.451 174.741 149.117 160.474 151.784C158.877 152.098 157.252 152.249 155.624 152.234C152.104 152.174 150.864 151.114 150.204 147.754C149.204 142.684 148.294 137.604 147.354 132.534C146.724 129.154 146.074 125.764 145.494 122.374C145.044 119.724 145.764 118.694 148.054 117.314C151.394 115.314 155.164 115.254 158.794 114.664C173.274 112.314 187.794 110.094 202.284 107.864C203.884 107.614 205.524 107.584 207.144 107.454L207.254 107.084ZM207.514 114.484L153.074 122.914C154.464 130.324 155.804 137.494 157.194 144.914L211.374 134.674C210.064 127.824 208.814 121.284 207.514 114.484Z" fill="#3558A2"/>
<path d="M185.415 193.675C185.417 190.617 186.617 187.682 188.757 185.499C190.898 183.316 193.809 182.058 196.865 181.995C201.705 181.765 208.005 187.495 207.865 192.935C207.665 199.245 202.635 204.615 196.365 204.725C194.91 204.757 193.464 204.492 192.114 203.947C190.764 203.402 189.54 202.587 188.516 201.553C187.491 200.519 186.688 199.288 186.155 197.933C185.622 196.579 185.37 195.13 185.415 193.675ZM197.015 189.295C195.875 189.372 194.801 189.861 193.994 190.67C193.186 191.48 192.7 192.554 192.625 193.695C192.638 194.656 193.022 195.575 193.697 196.259C194.371 196.943 195.285 197.339 196.245 197.365C197.341 197.299 198.371 196.819 199.127 196.023C199.882 195.226 200.307 194.173 200.315 193.075C200.365 190.735 199.165 189.365 197.015 189.295V189.295Z" fill="#3558A2"/>
<path d="M190.574 177.894C187.594 177.823 184.763 176.574 182.701 174.421C180.64 172.267 179.515 169.385 179.574 166.404C179.684 160.284 184.734 155.144 190.764 155.474C196.994 155.814 201.764 160.164 201.764 166.964C201.772 168.423 201.485 169.869 200.922 171.216C200.359 172.562 199.531 173.782 198.487 174.802C197.443 175.821 196.204 176.621 194.845 177.152C193.486 177.683 192.033 177.936 190.574 177.894V177.894ZM190.725 162.894C190.229 162.863 189.732 162.938 189.268 163.115C188.804 163.292 188.383 163.566 188.034 163.92C187.685 164.274 187.416 164.698 187.245 165.164C187.075 165.631 187.006 166.129 187.044 166.624C187.039 167.619 187.406 168.58 188.071 169.32C188.737 170.06 189.654 170.525 190.644 170.624C191.139 170.616 191.626 170.51 192.079 170.311C192.531 170.113 192.939 169.826 193.279 169.467C193.619 169.108 193.884 168.685 194.059 168.223C194.233 167.76 194.313 167.268 194.294 166.774C194.329 166.278 194.261 165.78 194.095 165.311C193.929 164.842 193.669 164.412 193.331 164.048C192.993 163.683 192.584 163.392 192.128 163.192C191.673 162.992 191.182 162.887 190.684 162.884L190.725 162.894Z" fill="#3558A2"/>
<path d="M163.614 180.595C162.198 180.602 160.796 180.318 159.496 179.759C158.195 179.2 157.024 178.378 156.055 177.346C155.087 176.313 154.341 175.092 153.866 173.758C153.391 172.425 153.196 171.007 153.294 169.595C153.534 163.845 158.594 158.865 164.024 159.015C170.134 159.185 175.024 163.845 174.864 169.315C174.684 175.715 169.594 180.795 163.614 180.595ZM164.614 166.335C164.117 166.326 163.623 166.415 163.16 166.597C162.697 166.779 162.275 167.05 161.917 167.396C161.559 167.742 161.273 168.154 161.076 168.611C160.878 169.067 160.772 169.558 160.764 170.055C160.729 170.461 160.78 170.869 160.912 171.254C161.044 171.639 161.255 171.992 161.532 172.291C161.809 172.589 162.145 172.827 162.519 172.987C162.893 173.148 163.297 173.229 163.704 173.225C164.658 173.194 165.567 172.815 166.26 172.159C166.953 171.503 167.381 170.616 167.464 169.665C167.504 168.848 167.23 168.047 166.699 167.426C166.167 166.805 165.417 166.411 164.604 166.325L164.614 166.335Z" fill="#3558A2"/>
<path d="M169.684 187.045C171.069 187.019 172.445 187.273 173.73 187.791C175.015 188.309 176.182 189.08 177.162 190.059C178.142 191.038 178.915 192.205 179.434 193.489C179.953 194.774 180.208 196.15 180.184 197.535C180.081 200.414 178.874 203.143 176.813 205.156C174.751 207.169 171.994 208.311 169.114 208.345C166.42 208.377 163.823 207.345 161.886 205.472C159.95 203.599 158.831 201.038 158.773 198.345C158.764 195.412 159.899 192.591 161.936 190.481C163.973 188.371 166.752 187.138 169.684 187.045V187.045ZM169.104 200.915C170.061 200.925 170.984 200.557 171.672 199.891C172.359 199.224 172.755 198.312 172.774 197.355C172.79 196.973 172.725 196.592 172.585 196.236C172.444 195.881 172.229 195.559 171.956 195.292C171.682 195.025 171.355 194.819 170.996 194.686C170.638 194.554 170.255 194.499 169.873 194.525C169.402 194.504 168.93 194.581 168.489 194.749C168.048 194.917 167.646 195.174 167.307 195.504C166.969 195.834 166.702 196.23 166.523 196.666C166.343 197.103 166.255 197.572 166.263 198.045C166.232 198.429 166.284 198.815 166.417 199.177C166.549 199.539 166.758 199.868 167.03 200.141C167.302 200.414 167.63 200.624 167.992 200.758C168.353 200.892 168.739 200.945 169.123 200.915H169.104Z" fill="#3558A2"/>
<path d="M221.954 198.906C219.107 198.906 216.375 197.782 214.353 195.778C212.33 193.774 211.181 191.053 211.154 188.206C211.209 185.404 212.373 182.738 214.39 180.793C216.407 178.847 219.112 177.78 221.914 177.826C227.634 177.886 232.734 182.906 232.664 188.386C232.597 191.187 231.441 193.853 229.442 195.816C227.442 197.78 224.757 198.888 221.954 198.906ZM221.894 191.446C222.709 191.496 223.51 191.226 224.129 190.693C224.747 190.161 225.133 189.408 225.204 188.596C225.21 188.168 225.131 187.743 224.972 187.345C224.813 186.948 224.577 186.585 224.278 186.279C223.979 185.972 223.622 185.728 223.229 185.559C222.835 185.39 222.412 185.301 221.984 185.296C219.984 185.206 218.624 186.366 218.624 188.296C218.618 188.721 218.7 189.144 218.863 189.536C219.027 189.929 219.27 190.284 219.576 190.58C219.883 190.875 220.247 191.104 220.646 191.253C221.044 191.402 221.469 191.468 221.894 191.446V191.446Z" fill="#3558A2"/>
<path d="M216.884 151.004C221.414 150.564 227.334 155.554 227.144 161.144C227.04 164.066 225.792 166.83 223.669 168.841C221.546 170.852 218.718 171.948 215.794 171.894C209.794 171.824 205.454 167.554 205.524 161.644C205.594 155.734 210.574 150.954 216.884 151.004ZM215.884 164.644C216.875 164.613 217.819 164.221 218.54 163.541C219.26 162.861 219.707 161.94 219.794 160.954C219.726 160.188 219.366 159.478 218.789 158.97C218.212 158.462 217.462 158.195 216.694 158.224C214.774 158.224 212.694 160.144 212.694 161.914C212.793 162.687 213.177 163.395 213.771 163.9C214.365 164.405 215.125 164.67 215.904 164.644H215.884Z" fill="#3558A2"/>
<path d="M154.416 90.2144C145.542 89.721 136.676 89.2277 127.816 88.7344C126.908 88.6811 126.012 88.4993 125.156 88.1943C124.502 87.9754 123.936 87.5539 123.538 86.991C123.141 86.4281 122.933 85.7532 122.946 85.0643C122.866 84.375 123.028 83.6793 123.403 83.0959C123.779 82.5124 124.345 82.0772 125.006 81.8644C126.202 81.4763 127.459 81.3037 128.716 81.3543C134.786 81.6643 140.846 82.2043 146.906 82.4143C152.526 82.6143 158.146 82.4843 163.766 82.5443C164.849 82.5429 165.929 82.6841 166.976 82.9643C167.639 83.1374 168.226 83.526 168.644 84.0691C169.062 84.6122 169.288 85.2789 169.286 85.9643C169.366 86.6934 169.197 87.428 168.806 88.0489C168.416 88.6699 167.827 89.1405 167.136 89.3843C166.29 89.6969 165.397 89.8627 164.496 89.8744C161.136 89.9244 157.786 89.8744 154.426 89.8744L154.416 90.2144Z" fill="#3558A2"/>
<path d="M207.514 114.484C208.814 121.284 210.064 127.824 211.374 134.644L157.194 144.884C155.804 137.494 154.464 130.324 153.074 122.884L207.514 114.484ZM201.074 126.244C200.074 126.374 199.314 126.444 198.514 126.614L168.514 132.914C166.733 133.221 164.971 133.625 163.234 134.124C162.339 134.337 161.562 134.89 161.068 135.668C160.575 136.445 160.405 137.384 160.594 138.284C160.847 139.214 161.436 140.017 162.247 140.536C163.059 141.056 164.034 141.255 164.984 141.094C165.344 141.094 165.694 140.924 166.044 140.854L194.214 135.064C196.784 134.534 199.374 134.064 201.904 133.394C202.795 133.2 203.584 132.686 204.12 131.948C204.657 131.211 204.904 130.302 204.814 129.394C204.687 128.501 204.235 127.687 203.545 127.106C202.855 126.525 201.976 126.218 201.074 126.244Z" fill="#979FBB"/>
<path d="M197.015 189.295C199.165 189.365 200.365 190.735 200.315 193.075C200.307 194.173 199.882 195.227 199.126 196.023C198.371 196.819 197.341 197.299 196.245 197.365C195.285 197.339 194.371 196.943 193.696 196.259C193.021 195.575 192.638 194.656 192.625 193.695C192.7 192.554 193.186 191.48 193.994 190.67C194.801 189.861 195.875 189.372 197.015 189.295Z" fill="#979FBB"/>
<path d="M190.685 162.886C191.179 162.894 191.666 163.003 192.116 163.205C192.567 163.408 192.971 163.7 193.305 164.064C193.639 164.428 193.896 164.856 194.059 165.322C194.222 165.788 194.289 166.283 194.255 166.776C194.284 167.755 193.926 168.706 193.257 169.421C192.588 170.137 191.663 170.559 190.685 170.596C189.695 170.496 188.777 170.031 188.111 169.291C187.446 168.552 187.08 167.591 187.085 166.596C187.051 166.109 187.119 165.621 187.287 165.162C187.454 164.704 187.716 164.286 188.056 163.936C188.396 163.586 188.805 163.312 189.258 163.131C189.711 162.95 190.197 162.866 190.685 162.886V162.886Z" fill="#979FBB"/>
<path d="M164.605 166.325C165.415 166.413 166.16 166.807 166.69 167.425C167.219 168.044 167.493 168.841 167.455 169.655C167.372 170.606 166.944 171.493 166.251 172.149C165.558 172.805 164.649 173.184 163.695 173.215C163.288 173.219 162.884 173.138 162.51 172.977C162.136 172.816 161.8 172.579 161.523 172.281C161.246 171.982 161.035 171.629 160.903 171.244C160.77 170.859 160.72 170.45 160.755 170.045C160.763 169.548 160.869 169.057 161.066 168.601C161.264 168.144 161.55 167.731 161.908 167.386C162.265 167.04 162.688 166.769 163.151 166.587C163.613 166.405 164.108 166.316 164.605 166.325V166.325Z" fill="#979FBB"/>
<path d="M169.124 200.915C168.742 200.943 168.358 200.887 167.999 200.752C167.64 200.617 167.314 200.406 167.045 200.133C166.775 199.861 166.567 199.533 166.436 199.173C166.305 198.812 166.253 198.428 166.284 198.046C166.276 197.573 166.364 197.104 166.543 196.667C166.723 196.23 166.99 195.835 167.328 195.505C167.666 195.175 168.068 194.918 168.51 194.75C168.951 194.581 169.422 194.505 169.894 194.526C170.276 194.5 170.658 194.555 171.017 194.687C171.376 194.819 171.703 195.026 171.976 195.293C172.25 195.56 172.464 195.882 172.605 196.237C172.746 196.592 172.811 196.974 172.794 197.356C172.776 198.313 172.38 199.225 171.692 199.891C171.005 200.558 170.082 200.926 169.124 200.915V200.915Z" fill="#979FBB"/>
<path d="M221.896 191.444C221.469 191.466 221.042 191.4 220.642 191.25C220.242 191.1 219.877 190.869 219.57 190.572C219.264 190.274 219.021 189.917 218.859 189.521C218.696 189.126 218.617 188.702 218.626 188.274C218.626 186.364 219.946 185.204 221.986 185.274C222.414 185.28 222.837 185.369 223.23 185.538C223.624 185.706 223.98 185.951 224.279 186.258C224.578 186.564 224.814 186.926 224.973 187.324C225.132 187.721 225.211 188.146 225.206 188.574C225.139 189.391 224.755 190.148 224.137 190.685C223.518 191.221 222.713 191.494 221.896 191.444Z" fill="#979FBB"/>
<path d="M215.904 164.645C215.135 164.656 214.389 164.384 213.808 163.88C213.227 163.377 212.852 162.677 212.754 161.915C212.754 160.145 214.754 158.205 216.754 158.225C217.522 158.196 218.272 158.463 218.849 158.971C219.425 159.479 219.785 160.189 219.854 160.955C219.766 161.948 219.314 162.874 218.585 163.555C217.856 164.236 216.901 164.624 215.904 164.645V164.645Z" fill="#979FBB"/>
<path d="M201.075 126.244C201.969 126.216 202.842 126.516 203.531 127.087C204.22 127.657 204.676 128.46 204.815 129.344C204.904 130.252 204.657 131.16 204.121 131.898C203.584 132.635 202.796 133.15 201.905 133.344C199.375 134.004 196.785 134.484 194.215 135.014L166.045 140.804C165.695 140.874 165.345 141.004 164.985 141.044C164.035 141.204 163.059 141.005 162.248 140.486C161.436 139.967 160.847 139.164 160.595 138.234C160.406 137.333 160.576 136.394 161.069 135.617C161.562 134.84 162.339 134.286 163.235 134.074C164.971 133.574 166.734 133.17 168.515 132.864L198.515 126.564C199.315 126.444 200.125 126.374 201.075 126.244Z" fill="#3558A2"/>
</svg>
