<svg width="300" height="300" viewBox="0 0 300 300" fill="none" xmlns="http://www.w3.org/2000/svg">
<path d="M242.723 209.12C242.233 209.04 241.893 208.96 241.553 208.94L212.983 207.78C212.438 207.819 211.89 207.765 211.363 207.62C210.769 207.416 210.138 207.34 209.512 207.396C208.887 207.453 208.28 207.642 207.733 207.95C201.593 210.61 195.733 209.84 190.663 205.6C185.593 201.36 183.663 195.6 185.093 188.96C185.303 188.238 185.358 187.479 185.253 186.734C185.148 185.99 184.885 185.276 184.483 184.64C183.333 182.82 182.483 180.83 181.343 178.73C179.513 179.27 177.883 179.73 176.273 180.25C174.663 180.77 172.843 181.4 171.113 181.93C167.583 183.02 166.223 182.55 164.243 179.48C162.263 176.41 160.393 173.33 158.453 170.26C157.983 169.51 157.453 168.78 156.893 167.93C156.053 168.32 155.313 168.63 154.603 168.99C146.423 173.11 138.263 177.27 130.063 181.34C128.689 182.003 127.227 182.467 125.723 182.72C124.818 182.899 123.88 182.765 123.062 182.339C122.245 181.914 121.596 181.223 121.223 180.38C119.689 177.613 118.169 174.84 116.663 172.06C116.363 171.51 116.123 170.93 115.723 170.06C113.723 170.76 111.783 171.4 109.873 172.12C104.163 174.27 102.873 173.2 100.463 168.35C97.4627 162.43 94.3128 156.63 91.2728 150.76C89.5028 147.32 89.8128 145.99 92.7728 143.47C95.0328 141.53 97.3428 139.64 99.7728 137.62C98.2628 134.62 96.8627 131.67 95.3427 128.81C93.8227 125.95 94.2028 124.01 97.1228 122.51C101.393 120.32 105.753 118.3 110.123 116.23L200.923 72.8901C204.453 71.2101 206.323 71.8301 208.153 75.4201C215.786 90.3601 223.409 105.3 231.023 120.24C231.704 121.513 232.479 122.733 233.343 123.89C233.744 124.387 234.025 124.971 234.162 125.595C234.298 126.219 234.288 126.866 234.13 127.486C233.973 128.105 233.674 128.679 233.256 129.163C232.838 129.646 232.313 130.025 231.723 130.27C225.543 133.27 219.363 136.33 213.183 139.38C212.383 139.77 211.623 140.23 210.703 140.74C211.893 144.93 213.043 149.02 214.213 153.1C215.933 159.1 215.853 159.37 210.933 163.15C209.203 164.47 207.493 165.8 205.553 167.3C206.12 169.103 206.788 170.872 207.553 172.6C209.023 175.48 210.113 178.65 212.913 180.6C213.515 181.114 214.243 181.459 215.023 181.6C224.023 182.04 233.023 182.4 241.953 182.77C242.389 182.755 242.823 182.709 243.253 182.63C243.253 181.71 243.373 180.83 243.383 179.94C243.443 176.49 243.453 173.04 243.543 169.59C243.633 165.96 245.363 164.17 248.953 164.26C253.753 164.38 258.563 164.61 263.353 165C267.153 165.31 268.233 166.61 268.223 170.47C268.129 187.903 268.016 205.337 267.883 222.77C267.883 226.71 266.383 228.18 262.473 228.39C258.213 228.61 253.943 228.77 249.683 228.96C249.143 228.96 248.593 228.96 248.053 228.96C244.643 228.84 242.603 226.96 242.543 223.52C242.543 220.34 242.673 217.16 242.723 213.99C242.743 212.43 242.723 210.82 242.723 209.12ZM126.363 174.95L225.103 125.06C218.903 112.9 212.873 101.06 206.833 89.2601C206.093 92.4935 205.582 95.775 205.303 99.0801C204.978 103.01 203.156 106.665 200.213 109.29C196.761 112.52 192.881 115.259 188.683 117.43C181.793 121.06 174.833 124.58 167.903 128.13C157.763 133.173 147.281 137.494 136.533 141.06C133.289 142.243 129.866 142.859 126.413 142.88C121.125 142.778 115.939 141.406 111.293 138.88C110.423 138.269 109.417 137.878 108.363 137.74C114.383 150.2 120.283 162.4 126.363 174.95V174.95ZM105.563 126.59C108.375 128.76 111.389 130.656 114.563 132.25C117.751 133.993 121.28 135.024 124.905 135.273C128.53 135.521 132.166 134.981 135.563 133.69C153.387 127.324 170.598 119.355 186.983 109.88C190.103 108.11 192.833 105.64 195.673 103.4C196.309 102.877 196.829 102.228 197.199 101.492C197.569 100.757 197.782 99.9523 197.823 99.1301C198.253 94.1301 198.633 89.2 199.003 84.23C198.969 83.5551 198.868 82.8852 198.703 82.23L105.563 126.59ZM169.843 174.53C173.543 173.36 176.983 172.25 180.433 171.19C183.573 170.19 185.053 170.8 186.803 173.64C187.973 175.55 189.113 177.5 190.093 179.14L200.473 175.14C199.683 173.07 198.763 170.81 197.933 168.52C197.023 165.98 197.443 164.44 199.433 162.68C200.113 162.09 200.853 161.56 201.573 161.01L207.383 156.47C206.183 152.33 205.043 148.36 203.813 144.11L163.573 164.45C165.703 167.89 167.703 171.09 169.843 174.53V174.53ZM260.383 221.06C260.583 204.62 260.783 188.62 260.983 172.53C257.668 171.871 254.273 171.716 250.913 172.07C250.613 188.61 250.303 204.97 249.993 221.6L260.383 221.06ZM242.893 190.37C234.273 189.95 225.893 189.37 217.223 189.27C218.283 193.27 217.063 196.67 216.043 200.47L242.893 201.63V190.37ZM200.993 201.94C205.353 202.39 210.243 198.05 210.253 192.57C210.233 190.152 209.29 187.834 207.617 186.088C205.944 184.343 203.667 183.302 201.253 183.18C196.943 182.96 192.053 187.1 192.043 192.6C192.033 198.1 196.933 202.33 201.013 201.94H200.993ZM107.083 165.21L112.573 163.34L103.313 144.34L98.4527 148.5L107.083 165.21Z" fill="#3558A2"/>
<path d="M48.7641 197.99C46.3341 197.99 44.8341 196.99 44.3341 195.44C44.0809 194.708 44.0868 193.911 44.3508 193.183C44.6147 192.455 45.1207 191.84 45.7841 191.44C55.9975 184.36 66.2207 177.3 76.4541 170.26C77.2708 169.7 78.1875 169.303 79.1541 169.09C79.8267 168.93 80.5333 168.995 81.1655 169.275C81.7977 169.555 82.3206 170.034 82.6541 170.64C83.0428 171.21 83.238 171.89 83.211 172.58C83.184 173.269 82.9362 173.932 82.5041 174.47C81.8889 175.249 81.153 175.924 80.3242 176.47C70.5842 183.276 60.8308 190.063 51.0641 196.83C50.3304 197.279 49.5611 197.667 48.7641 197.99V197.99Z" fill="#3558A2"/>
<path d="M75.753 155.09C75.7488 155.963 75.4366 156.807 74.8714 157.473C74.3062 158.139 73.5241 158.584 72.663 158.73C69.093 159.73 65.483 160.57 61.893 161.47C54.093 163.423 46.2896 165.36 38.483 167.28C37.4666 167.587 36.3992 167.69 35.343 167.58C33.133 167.21 32.073 166.03 32.003 164.27C31.933 162.51 33.093 161 35.193 160.45C37.983 159.72 40.793 159.05 43.603 158.36C52.113 156.27 60.603 154.16 69.133 152.1C70.267 151.794 71.4385 151.649 72.613 151.67C73.0456 151.683 73.4712 151.782 73.8648 151.962C74.2584 152.142 74.612 152.399 74.9047 152.717C75.1974 153.036 75.4232 153.41 75.5689 153.818C75.7146 154.225 75.7772 154.658 75.753 155.09V155.09Z" fill="#3558A2"/>
<path d="M75.1432 215.529C72.9632 215.599 71.3132 214.149 71.5032 212.199C71.5961 210.77 71.9988 209.378 72.6832 208.119C77.5432 200.049 82.5231 192.059 87.4631 184.049C87.7522 183.577 88.0872 183.135 88.4631 182.729C89.0461 182.087 89.8319 181.664 90.6891 181.531C91.5463 181.398 92.4231 181.563 93.1732 181.999C93.9097 182.467 94.449 183.188 94.6886 184.027C94.9282 184.866 94.8515 185.763 94.4732 186.549C94.0711 187.459 93.5963 188.335 93.0532 189.169C89.7432 194.569 86.3932 199.949 83.1132 205.369C81.7532 207.609 80.5232 209.929 79.2632 212.229C78.2732 213.999 77.1432 215.529 75.1432 215.529Z" fill="#3558A2"/>
<path d="M126.363 174.949C120.283 162.399 114.363 150.199 108.363 137.779C109.418 137.916 110.423 138.308 111.293 138.919C115.94 141.444 121.126 142.816 126.413 142.919C129.866 142.898 133.29 142.282 136.533 141.099C147.281 137.532 157.764 133.212 167.903 128.169C174.833 124.619 181.793 121.099 188.683 117.469C192.882 115.297 196.762 112.558 200.213 109.329C203.156 106.704 204.978 103.049 205.303 99.1188C205.583 95.8136 206.094 92.5323 206.833 89.2988C212.833 101.119 218.903 112.939 225.103 125.099L126.363 174.949Z" fill="#EAECF1"/>
<path d="M105.562 126.591L198.652 82.2207C198.818 82.8759 198.918 83.5458 198.952 84.2207C198.582 89.2207 198.202 94.1607 197.772 99.1207C197.731 99.9429 197.519 100.748 197.148 101.483C196.778 102.218 196.258 102.868 195.622 103.391C192.782 105.631 190.053 108.101 186.933 109.871C170.548 119.346 153.337 127.315 135.512 133.681C132.116 134.972 128.48 135.512 124.855 135.263C121.229 135.015 117.701 133.983 114.512 132.241C111.356 130.647 108.359 128.755 105.562 126.591V126.591Z" fill="white"/>
<path d="M169.842 174.529C167.702 171.089 165.702 167.889 163.572 164.449L203.812 144.109C205.042 148.359 206.182 152.329 207.382 156.469L201.572 161.009C200.852 161.559 200.112 162.089 199.432 162.679C197.432 164.439 197.022 165.979 197.932 168.519C198.762 170.809 199.682 173.069 200.472 175.139L190.092 179.139C189.092 177.499 187.972 175.549 186.802 173.639C185.052 170.799 183.572 170.219 180.432 171.189C177.012 172.249 173.542 173.359 169.842 174.529Z" fill="#979FBB"/>
<path d="M260.382 221.06L249.992 221.599C250.302 204.97 250.612 188.6 250.912 172.07C254.273 171.716 257.668 171.871 260.982 172.53C260.782 188.62 260.582 204.62 260.382 221.06Z" fill="#979FBB"/>
<path d="M242.893 190.37V201.63L216.043 200.469C217.043 196.669 218.283 193.25 217.223 189.27C225.913 189.41 234.273 189.95 242.893 190.37Z" fill="#979FBB"/>
<path d="M201.013 201.94C196.953 202.33 192.013 198.09 192.073 192.6C192.133 187.11 196.973 182.96 201.283 183.18C203.697 183.303 205.974 184.343 207.647 186.088C209.32 187.834 210.263 190.153 210.283 192.57C210.243 198.05 205.353 202.39 201.013 201.94Z" fill="#979FBB"/>
<path d="M107.083 165.209L98.4531 148.529L103.313 144.369L112.573 163.369L107.083 165.209Z" fill="#979FBB"/>
</svg>
