<svg width="300" height="300" viewBox="0 0 300 300" fill="none" xmlns="http://www.w3.org/2000/svg">
<path d="M102.572 203.373C102.202 202.373 101.862 201.583 101.572 200.743C94.4456 177.216 87.3156 153.683 80.1823 130.143C79.8923 129.203 79.4223 128.323 79.0623 127.403C78.8223 126.773 78.6323 126.123 78.3223 125.193L201.642 95.7227C208.332 119.873 214.862 143.993 221.582 168.353C220.942 168.613 220.332 168.913 219.692 169.103L167.822 184.273L104.002 203.053C103.662 203.193 103.302 203.273 102.572 203.373ZM127.862 147.123C128.452 147.563 128.862 147.803 129.142 148.123L138.912 156.743C141.562 159.083 144.222 161.403 146.912 163.743C148.202 164.873 149.652 165.743 151.352 164.963C153.256 164.29 154.816 162.892 155.692 161.073C156.222 159.823 156.802 158.603 157.382 157.373C158.112 155.853 158.862 154.373 159.642 152.753C160.502 153.203 161.142 153.523 161.772 153.873C163.272 154.713 164.772 155.623 166.262 156.393C169.082 157.823 171.902 157.563 173.412 154.063C173.732 153.313 174.082 152.583 174.412 151.843C177.646 144.683 180.876 137.523 184.102 130.363C184.462 129.563 184.932 128.803 185.492 127.763C185.902 129.463 186.122 130.763 186.552 132.083C186.788 132.872 187.289 133.555 187.971 134.018C188.652 134.48 189.472 134.694 190.292 134.623C191.135 134.458 191.895 134.007 192.442 133.345C192.989 132.683 193.29 131.851 193.292 130.993C193.327 130.267 193.287 129.54 193.172 128.823C192.472 124.823 191.832 120.823 190.982 116.823C190.641 115.52 190.054 114.295 189.252 113.213C188.873 112.638 188.32 112.201 187.673 111.965C187.027 111.729 186.322 111.707 185.662 111.903C184.87 112.072 184.094 112.31 183.342 112.613C179.982 114.163 176.642 115.763 173.342 117.343C172.843 117.558 172.362 117.812 171.902 118.103C171.229 118.57 170.73 119.249 170.488 120.032C170.245 120.815 170.271 121.656 170.562 122.423C170.904 123.159 171.486 123.758 172.213 124.122C172.939 124.485 173.768 124.591 174.562 124.423C175.584 124.08 176.586 123.679 177.562 123.223C178.114 123.071 178.675 122.954 179.242 122.873L167.762 148.943C166.892 148.453 166.272 148.103 165.642 147.763C163.982 146.853 162.372 145.763 160.642 145.073C157.642 143.803 155.642 144.583 154.122 147.423C153.122 149.353 152.232 151.333 151.292 153.283L149.722 156.533L138.942 147.033C136.092 144.523 133.252 142.033 130.372 139.513C128.152 137.603 126.752 137.653 124.282 139.243C122.954 140.194 122.007 141.587 121.612 143.173C119.222 150.173 116.892 157.173 114.422 164.173C113.422 167.093 112.052 169.903 110.852 172.763H110.382L106.512 158.273C107.512 157.853 108.422 157.593 109.212 157.173C110.001 156.807 110.632 156.168 110.987 155.374C111.341 154.58 111.397 153.684 111.142 152.853C110.883 152.072 110.351 151.41 109.644 150.99C108.937 150.569 108.102 150.417 107.292 150.563C106.292 150.633 105.402 150.873 104.292 151.073L101.222 140.403C102.552 139.643 103.702 139.113 104.702 138.403C105.242 137.976 105.631 137.387 105.811 136.723C105.991 136.058 105.953 135.354 105.702 134.713C105.492 134.062 105.076 133.498 104.517 133.104C103.958 132.711 103.285 132.51 102.602 132.533C101.789 132.527 100.978 132.631 100.192 132.843C98.8923 133.193 97.6222 133.653 96.3322 134.073C94.0322 134.833 93.1922 136.183 93.5822 138.603C93.7247 139.588 93.9286 140.563 94.1923 141.523C95.8223 147.343 97.5822 153.133 99.1222 158.983C101.322 167.353 103.512 175.733 105.422 184.173C106.074 187.439 107.08 190.625 108.422 193.673C109.582 196.123 110.972 196.673 113.422 195.743C114.422 195.383 115.422 194.963 116.482 194.653L200.612 170.053C201.742 169.723 202.872 169.413 203.962 168.973C205.722 168.273 206.582 167.143 206.392 165.483C206.11 163.046 205.215 160.721 203.792 158.723C203.328 158.157 202.7 157.749 201.995 157.554C201.29 157.359 200.541 157.386 199.852 157.633C199.164 157.878 198.575 158.343 198.175 158.955C197.776 159.567 197.589 160.294 197.642 161.023C197.642 161.783 197.852 162.543 197.972 163.343L173.032 170.653C172.487 169.333 171.869 168.045 171.182 166.793C170.715 166.009 169.975 165.425 169.104 165.154C168.233 164.882 167.292 164.943 166.462 165.323C165.705 165.737 165.124 166.414 164.83 167.226C164.535 168.038 164.547 168.929 164.862 169.733C165.142 170.683 165.532 171.593 165.922 172.673C158.552 174.933 151.172 177.123 143.772 179.153C143.42 177.946 142.982 176.767 142.462 175.623C141.252 173.403 139.112 172.623 137.252 173.623C135.642 174.443 135.122 176.373 135.922 178.623C136.212 179.453 136.572 180.253 136.922 181.233C129.152 183.523 121.642 185.843 113.702 187.983L127.862 147.123Z" fill="white"/>
<path d="M105.223 155.131C121.983 160.591 138.493 166.738 154.753 173.571C156.013 174.101 157.483 172.991 157.823 171.831C161.489 159.474 163.605 146.71 164.123 133.831L160.363 135.991L193.763 153.761C196.603 155.271 199.133 150.961 196.283 149.441L162.853 131.661C162.471 131.449 162.041 131.339 161.605 131.342C161.169 131.345 160.74 131.461 160.362 131.678C159.983 131.895 159.668 132.207 159.445 132.583C159.223 132.958 159.101 133.385 159.093 133.821C158.585 146.255 156.529 158.576 152.973 170.501L156.053 168.751C139.806 161.918 123.296 155.771 106.523 150.311C103.453 149.311 102.143 154.141 105.193 155.131H105.223Z" fill="#EAECF1"/>
<path d="M203.764 88.0017C204.638 87.976 205.497 88.238 206.209 88.7473C206.921 89.2567 207.446 89.9854 207.703 90.8217C208.2 92.1738 208.621 93.5527 208.963 94.9517C213.943 113.112 218.914 131.268 223.874 149.422C225.554 155.595 227.237 161.765 228.924 167.932C229.064 168.452 229.143 168.992 229.233 169.522C229.713 172.102 228.903 173.672 226.363 174.522C223.123 175.622 219.834 176.602 216.544 177.522C201.924 181.815 187.3 186.092 172.674 190.352L103.904 210.522C103.124 210.752 102.344 211.002 101.554 211.162C101.05 211.316 100.521 211.369 99.9967 211.318C99.4725 211.267 98.9636 211.113 98.499 210.865C98.0345 210.617 97.6234 210.28 97.2895 209.872C96.9557 209.465 96.7056 208.996 96.5536 208.492C95.9536 206.992 95.4935 205.422 95.0235 203.872C89.3035 184.905 83.5902 165.928 77.8835 146.942C76.4335 142.112 75.0436 137.262 73.5536 132.442C72.9836 130.572 72.7935 128.642 71.7335 126.842C70.9735 125.552 70.9735 123.692 71.0135 122.092C71.0735 120.092 72.5235 119.092 74.3435 118.672C76.9735 118.052 79.6135 117.462 82.2435 116.832L130.634 105.272L184.534 92.3917L201.363 88.3917C202.163 88.2717 202.974 88.1417 203.764 88.0017ZM102.574 203.372C103.304 203.232 103.664 203.192 104.004 203.092L167.824 184.272L219.723 169.062C220.363 168.872 220.973 168.572 221.613 168.312C214.893 143.952 208.364 119.832 201.674 95.6817L78.3535 125.152C78.6635 126.082 78.8535 126.732 79.0935 127.362C79.4535 128.282 79.9235 129.162 80.2135 130.102C87.3535 153.628 94.4835 177.162 101.604 200.702C101.864 201.582 102.204 202.392 102.574 203.372Z" fill="#3558A2"/>
<path d="M127.863 147.122L113.763 187.962C121.703 185.822 129.213 183.502 136.983 181.212C136.593 180.212 136.233 179.432 135.983 178.602C135.183 176.342 135.703 174.412 137.313 173.602C139.173 172.602 141.313 173.432 142.523 175.602C143.043 176.746 143.48 177.925 143.833 179.132C151.233 177.132 158.613 174.912 165.983 172.652C165.593 171.572 165.203 170.652 164.923 169.712C164.607 168.908 164.596 168.016 164.89 167.205C165.185 166.393 165.765 165.716 166.523 165.302C167.352 164.921 168.293 164.861 169.164 165.133C170.035 165.404 170.776 165.988 171.243 166.772C171.93 168.023 172.547 169.312 173.093 170.632L198.033 163.322C197.913 162.522 197.743 161.762 197.703 161.002C197.649 160.272 197.837 159.546 198.236 158.934C198.635 158.321 199.224 157.857 199.913 157.612C200.602 157.365 201.35 157.337 202.055 157.532C202.761 157.728 203.388 158.136 203.853 158.702C205.276 160.699 206.17 163.025 206.453 165.462C206.643 167.122 205.783 168.252 204.023 168.952C202.933 169.392 201.803 169.702 200.673 170.032L116.543 194.631C115.543 194.941 114.543 195.362 113.483 195.722C110.983 196.622 109.593 196.101 108.483 193.652C107.14 190.603 106.134 187.418 105.483 184.152C103.573 175.712 101.383 167.332 99.1827 158.962C97.6427 153.112 95.8826 147.322 94.2526 141.502C93.9889 140.542 93.7852 139.567 93.6426 138.582C93.2526 136.162 94.0926 134.812 96.3926 134.052C97.6826 133.632 98.9526 133.172 100.253 132.822C101.038 132.61 101.849 132.506 102.663 132.512C103.346 132.489 104.018 132.69 104.577 133.083C105.136 133.477 105.552 134.041 105.763 134.692C106.014 135.333 106.052 136.037 105.872 136.702C105.692 137.366 105.303 137.955 104.763 138.382C103.763 139.102 102.613 139.632 101.283 140.382L104.353 151.052C105.483 150.852 106.423 150.612 107.353 150.542C108.162 150.396 108.998 150.548 109.705 150.969C110.412 151.389 110.944 152.051 111.203 152.832C111.457 153.663 111.402 154.559 111.047 155.353C110.692 156.147 110.062 156.786 109.273 157.152C108.483 157.572 107.613 157.832 106.573 158.252L110.393 172.702H110.863C112.063 169.842 113.403 167.032 114.433 164.112C116.903 157.112 119.233 150.112 121.623 143.112C122.018 141.526 122.964 140.133 124.293 139.182C126.763 137.592 128.163 137.542 130.383 139.452C133.263 141.932 136.103 144.452 138.953 146.972L149.733 156.472L151.303 153.222C152.243 151.222 153.133 149.292 154.133 147.362C155.603 144.522 157.663 143.742 160.653 145.012C162.393 145.752 164.003 146.792 165.653 147.702C166.283 148.042 166.903 148.392 167.773 148.882L179.313 122.782C178.746 122.863 178.185 122.98 177.633 123.132C176.656 123.588 175.654 123.989 174.633 124.332C173.838 124.5 173.01 124.394 172.283 124.031C171.557 123.667 170.975 123.068 170.633 122.332C170.341 121.565 170.315 120.724 170.558 119.941C170.801 119.158 171.299 118.479 171.973 118.012C172.432 117.721 172.913 117.467 173.413 117.252C176.763 115.672 180.103 114.072 183.413 112.522C184.164 112.219 184.94 111.981 185.733 111.812C186.392 111.616 187.097 111.638 187.744 111.874C188.39 112.11 188.944 112.547 189.323 113.122C190.124 114.204 190.711 115.429 191.053 116.732C191.903 120.732 192.543 124.732 193.243 128.732C193.358 129.449 193.398 130.176 193.363 130.902C193.36 131.76 193.059 132.592 192.512 133.254C191.965 133.916 191.206 134.367 190.363 134.532C189.542 134.603 188.722 134.389 188.041 133.927C187.36 133.464 186.859 132.781 186.623 131.992C186.193 130.712 185.973 129.372 185.563 127.672C185.003 128.672 184.563 129.472 184.173 130.272C180.933 137.425 177.703 144.585 174.483 151.752C174.143 152.492 173.793 153.222 173.483 153.972C171.973 157.472 169.153 157.732 166.333 156.302C164.803 155.532 163.333 154.622 161.843 153.782C161.213 153.432 160.573 153.112 159.713 152.662C158.933 154.242 158.183 155.762 157.453 157.282C156.873 158.512 156.293 159.732 155.763 160.982C154.887 162.801 153.326 164.199 151.423 164.872C149.723 165.612 148.273 164.782 146.983 163.652C144.333 161.322 141.673 159.002 138.983 156.652L129.213 148.032C128.823 147.802 128.453 147.562 127.863 147.122Z" fill="#3558A2"/>
</svg>
