<svg width="300" height="300" viewBox="0 0 300 300" fill="none" xmlns="http://www.w3.org/2000/svg">
<path d="M112.719 100.056C109.379 98.2062 106.159 96.3962 102.919 94.6362C102.064 94.297 101.367 93.6505 100.963 92.8236C100.56 91.9967 100.48 91.0489 100.739 90.1662C101.639 85.3662 102.639 80.5862 103.419 75.7762C104.059 71.8462 104.349 67.8562 104.999 63.9362C105.485 60.8903 106.187 57.8827 107.099 54.9362C107.964 52.3479 109.601 50.0865 111.789 48.4562C118.979 42.6962 127.399 40.1562 136.209 38.5062C143.726 37.2405 151.337 36.6116 158.959 36.6262C166.103 36.4448 173.249 36.8764 180.319 37.9162C189.079 39.2762 197.949 40.0062 206.559 42.2562C212.169 43.7162 217.759 45.2062 223.319 46.8162C227.074 47.836 230.769 49.0612 234.389 50.4862C246.639 55.5962 258.599 61.2462 268.579 70.2762C271.709 73.0545 274.334 76.3531 276.339 80.0262C278.589 84.2162 278.619 88.5862 278.119 93.2362C276.909 104.396 273.909 115.106 270.689 125.776C270.308 126.873 270.168 128.04 270.279 129.196C270.428 129.909 270.379 130.65 270.137 131.337C269.896 132.024 269.471 132.632 268.909 133.096C267.159 134.676 265.312 136.146 263.379 137.496C256.829 141.916 249.499 144.496 241.879 146.326C240.776 146.651 239.694 147.045 238.639 147.506C238.469 147.566 238.319 147.706 238.149 147.726C234.929 148.086 231.709 148.496 228.479 148.726C226.409 148.906 224.319 148.866 222.229 148.946C186.879 150.316 153.739 142.206 122.579 125.656C120.659 124.656 118.859 123.386 116.919 122.416C114.429 121.166 112.989 119.006 111.589 116.786C111.066 115.935 110.718 114.988 110.565 114.001C110.412 113.014 110.458 112.006 110.699 111.036C111.399 107.676 111.999 104.286 112.629 100.906C112.676 100.625 112.706 100.341 112.719 100.056V100.056ZM122.509 50.1962L128.039 51.5962C148.519 56.6562 169.039 61.5162 189.309 67.3762C190.959 67.8562 192.599 68.3762 194.199 69.0262C194.945 69.2498 195.607 69.6909 196.101 70.2931C196.594 70.8953 196.897 71.631 196.969 72.4062C197.056 73.1851 196.893 73.9713 196.505 74.6522C196.117 75.3331 195.524 75.8736 194.809 76.1962C193.371 76.9506 191.81 77.4448 190.199 77.6562C182.529 78.4662 174.859 79.1962 167.199 79.7962C156.339 80.6562 145.479 81.3662 134.619 82.1462C133.619 82.2162 132.739 82.4062 131.219 82.6262C132.639 83.4662 133.449 84.0462 134.339 84.4762C139.479 86.9562 144.529 89.6462 149.799 91.7962C163.332 97.2076 177.416 101.124 191.799 103.476C201.625 105.216 211.572 106.182 221.549 106.366C228.172 106.388 234.792 106.054 241.379 105.366C247.441 104.824 253.394 103.42 259.059 101.196C261.899 100.038 264.585 98.5373 267.059 96.7262C271.629 93.4462 272.059 86.5662 269.529 82.7962C268.869 81.7962 268.269 80.7962 267.529 79.8562C264.943 76.5733 261.886 73.689 258.459 71.2962C249.829 64.9562 240.229 60.4162 230.269 56.7262C214.293 50.8921 197.674 46.9943 180.769 45.1162C172.203 44.0981 163.573 43.7037 154.949 43.9362C147.415 44.0687 139.915 44.9836 132.569 46.6662C129.075 47.3944 125.693 48.5814 122.509 50.1962V50.1962ZM268.729 104.916C265.069 106.396 261.459 108.086 257.729 109.326C248.249 112.466 238.399 113.326 228.489 113.586C217.318 113.818 206.147 113.058 195.109 111.316C183.55 109.626 172.146 107.004 161.009 103.476C147.819 99.2762 135.159 93.9862 123.579 86.2962C123.314 86.1839 123.035 86.1066 122.749 86.0662C120.939 95.5762 119.159 104.966 117.369 114.386C129.196 121.867 141.92 127.824 155.239 132.116C155.749 129.546 156.189 127.256 156.679 124.966C156.949 123.454 157.317 121.961 157.779 120.496C158.011 119.701 158.528 119.019 159.231 118.582C159.934 118.145 160.774 117.982 161.589 118.126C162.407 118.262 163.143 118.703 163.647 119.36C164.152 120.017 164.389 120.841 164.309 121.666C164.298 122.674 164.194 123.678 163.999 124.666C163.439 127.856 162.839 131.026 162.279 134.086C162.502 134.263 162.743 134.414 162.999 134.536C163.509 134.716 163.999 134.876 164.549 135.026C177.031 138.524 189.832 140.762 202.759 141.706C215.345 142.763 228.017 141.961 240.369 139.326C247.222 137.915 253.761 135.272 259.669 131.526C260.813 130.813 261.683 129.735 262.139 128.466C265.059 120.906 266.869 113.046 268.799 105.216C268.811 105.164 268.811 105.11 268.799 105.058C268.787 105.006 268.763 104.958 268.729 104.916V104.916ZM114.109 93.2462C114.569 90.9462 114.939 89.1862 115.259 87.4262C115.669 85.1062 115.989 82.7762 116.449 80.4262C116.574 79.5306 116.94 78.6856 117.507 77.9813C118.074 77.2769 118.821 76.7394 119.669 76.4262C121.289 75.7362 122.839 75.9262 124.409 75.8062C133.079 75.1462 141.759 74.5862 150.409 73.9462C158.643 73.3462 166.873 72.7162 175.099 72.0562C175.62 71.9572 176.127 71.7961 176.609 71.5762C167.459 68.7762 158.389 66.3162 149.279 64.0262C138.839 61.3962 128.349 58.9562 117.899 56.3662C114.479 55.5162 113.899 55.7862 113.129 59.2762C113.049 59.6262 113.059 60.0062 113.009 60.3562C112.529 63.4062 112.009 66.4462 111.549 69.4862C110.469 76.1862 109.389 82.8862 108.259 89.8262L114.109 93.2462Z" fill="#3558A2"/>
<path d="M62.7401 37.7965C63.6181 37.7712 64.4765 38.0591 65.1617 38.6088C65.8469 39.1584 66.3142 39.9339 66.4801 40.7965C67.2814 43.2036 68.4594 45.4683 69.97 47.5065C71.7173 49.9449 73.9855 51.9637 76.6101 53.4165C78.0701 54.3365 79.6101 55.0465 81.1301 55.9365C84.5801 57.9965 85.13 60.7765 82.47 63.8265C78.3168 68.6703 75.4336 74.4711 74.08 80.7065C73.72 82.2865 73.6 83.9465 73.08 85.4965C72.17 88.3765 69.08 89.4365 67.08 87.5965C66.3779 86.8974 65.8474 86.0451 65.5301 85.1065C64.9001 83.4165 64.53 81.6365 63.93 79.9265C63.19 77.6865 62.56 75.4065 60.93 73.5765C59.6526 71.8997 57.7738 70.7846 55.69 70.4665C54.4321 70.3141 53.1988 70.0016 52.0201 69.5365C48.7201 68.1865 47.9501 65.3965 50.0201 62.5365C51.6801 60.2665 53.3901 58.0365 55.1101 55.7965C56.1851 54.5017 56.9845 53.001 57.4591 51.3863C57.9337 49.7717 58.0735 48.0771 57.8701 46.4065C57.5601 44.0165 58.5201 41.9465 59.4001 39.8765C59.6688 39.2236 60.1357 38.6716 60.7349 38.2984C61.3342 37.9252 62.0356 37.7496 62.7401 37.7965V37.7965ZM68.7401 72.1965L75.22 60.8765C71.3566 58.9279 67.888 56.2798 64.9901 53.0665L58.6101 63.6865C63.3501 65.0265 66.2401 68.3265 68.7801 72.1965H68.7401Z" fill="#3558A2"/>
<path d="M87.8499 39.8057C87.8574 39.4674 87.9079 39.1314 88 38.8057C89.24 34.9957 88.2899 31.4857 86.5799 28.0657C84.9258 24.9057 84.2901 21.3114 84.76 17.7757C84.9796 16.2616 85.4672 14.7988 86.1999 13.4557C86.602 12.6757 87.284 12.0765 88.1092 11.7779C88.9344 11.4794 89.8419 11.5036 90.65 11.8457C91.0354 11.9922 91.3874 12.2147 91.6853 12.4998C91.9831 12.7849 92.2207 13.1269 92.3839 13.5055C92.5471 13.8841 92.6326 14.2917 92.6353 14.704C92.6381 15.1163 92.5581 15.5249 92.4 15.9057C91.19 19.7457 92.07 23.1357 93.75 26.6357C95.8621 30.9141 96.3146 35.8233 95.02 40.4157C94.62 41.8757 94.02 43.1757 92.5 43.7357C90.01 44.7057 87.8499 43.0257 87.8499 39.8057Z" fill="#3558A2"/>
<path d="M105.169 34.2356C104.749 32.4956 104.359 30.7556 103.909 29.0256C103.499 27.4556 102.909 25.9156 102.579 24.3456C101.469 19.8956 102.769 15.9556 105.289 12.3456C105.768 11.6871 106.352 11.1126 107.019 10.6456C107.615 10.2255 108.325 10 109.054 10C109.783 10 110.494 10.2255 111.089 10.6456C111.66 11.0989 112.061 11.7314 112.228 12.4408C112.395 13.1503 112.318 13.8954 112.009 14.5556C111.639 15.4756 111.069 16.3056 110.609 17.1856C109.469 19.3256 108.869 21.5256 109.759 23.9356C110.229 25.2056 110.569 26.5256 111.029 27.7956C111.849 30.0078 112.157 32.3773 111.929 34.7256C111.844 35.7125 111.608 36.6805 111.229 37.5956C110.918 38.2595 110.397 38.8026 109.746 39.141C109.096 39.4794 108.352 39.5943 107.63 39.468C106.907 39.3418 106.247 38.9814 105.75 38.4424C105.253 37.9033 104.947 37.2157 104.879 36.4856C104.834 35.763 104.834 35.0382 104.879 34.3156L105.169 34.2356Z" fill="#3558A2"/>
<path d="M122.51 50.1965C125.691 48.5713 129.074 47.3742 132.57 46.6365C139.915 44.9539 147.415 44.039 154.95 43.9065C163.574 43.674 172.203 44.0684 180.77 45.0865C197.707 46.9768 214.357 50.8949 230.36 56.7565C240.36 60.4465 249.92 64.9865 258.55 71.3265C261.977 73.7193 265.033 76.6035 267.62 79.8865C268.33 80.8365 268.93 81.8865 269.62 82.8265C272.11 86.5965 271.72 93.4765 267.15 96.7565C264.676 98.5676 261.989 100.069 259.15 101.226C253.485 103.45 247.531 104.854 241.47 105.396C234.882 106.085 228.263 106.418 221.64 106.396C211.663 106.213 201.716 105.246 191.89 103.506C177.506 101.154 163.423 97.2379 149.89 91.8265C144.62 89.6765 139.57 86.9865 134.43 84.5065C133.54 84.0765 132.73 83.5065 131.31 82.6565C132.83 82.4365 133.76 82.2465 134.71 82.1765C145.57 81.3965 156.43 80.6865 167.29 79.8265C174.98 79.2265 182.65 78.4965 190.29 77.6865C191.9 77.4751 193.461 76.9809 194.9 76.2265C195.614 75.9038 196.208 75.3633 196.596 74.6825C196.984 74.0016 197.146 73.2154 197.06 72.4365C196.987 71.6613 196.685 70.9255 196.191 70.3234C195.698 69.7212 195.036 69.2801 194.29 69.0565C192.69 68.4365 191.05 67.8865 189.4 67.4065C169.13 61.5465 148.61 56.6865 128.13 51.6265L122.51 50.1965ZM228.51 67.1965C226.75 67.2665 225.64 67.7365 225.07 69.0765C224.797 69.7065 224.74 70.4091 224.908 71.0748C225.076 71.7405 225.46 72.3318 226 72.7565C226.567 73.2049 227.176 73.5968 227.82 73.9265C236.14 78.5265 244.45 83.1365 252.82 87.6865C253.776 88.1727 254.82 88.4618 255.89 88.5365C256.536 88.5955 257.184 88.4353 257.728 88.0816C258.272 87.7278 258.681 87.2012 258.89 86.5865C259.186 86.0148 259.291 85.363 259.188 84.7273C259.085 84.0916 258.781 83.5058 258.32 83.0565C257.54 82.3087 256.658 81.6757 255.7 81.1765C249.82 77.9765 243.923 74.8031 238.01 71.6565C235.69 70.4165 233.37 69.1865 231.01 68.0365C230.184 67.709 229.335 67.445 228.47 67.2465L228.51 67.1965ZM241.11 85.9265C240.896 85.2063 240.558 84.5293 240.11 83.9265C239.224 83.0212 238.214 82.2467 237.11 81.6265C229.64 77.3465 222.11 73.1265 214.63 68.9065C213.942 68.4749 213.198 68.1385 212.42 67.9065C211.756 67.7274 211.051 67.7736 210.416 68.0377C209.781 68.3019 209.251 68.7692 208.91 69.3665C208.549 69.9528 208.4 70.6456 208.489 71.3284C208.579 72.0112 208.9 72.6426 209.4 73.1165C210.113 73.8138 210.909 74.4216 211.77 74.9265C219.67 79.7165 227.57 84.5065 235.5 89.2265C238.01 90.8065 241.01 89.2065 241.11 85.9765V85.9265Z" fill="#EAECF1"/>
<path d="M268.729 104.917C268.76 104.956 268.782 105.001 268.794 105.05C268.806 105.098 268.808 105.148 268.799 105.197C266.869 113.027 265.059 120.887 262.139 128.447C261.683 129.716 260.813 130.794 259.669 131.507C253.761 135.253 247.221 137.896 240.369 139.307C228.017 141.942 215.345 142.744 202.759 141.687C189.831 140.743 177.031 138.505 164.549 135.007C164.029 134.857 163.549 134.697 162.999 134.517C162.743 134.395 162.501 134.244 162.279 134.067C162.839 131.007 163.439 127.837 163.999 124.647C164.194 123.659 164.297 122.654 164.309 121.647C164.389 120.822 164.152 119.998 163.647 119.341C163.142 118.684 162.407 118.243 161.589 118.107C160.774 117.963 159.934 118.126 159.231 118.563C158.527 119 158.011 119.682 157.779 120.477C157.316 121.942 156.949 123.435 156.679 124.947C156.189 127.237 155.749 129.527 155.239 132.097C141.919 127.802 129.195 121.841 117.369 114.357C119.159 104.937 120.939 95.5471 122.749 86.0371C123.035 86.0775 123.314 86.1548 123.579 86.2671C135.159 93.9571 147.819 99.2671 161.009 103.447C172.146 106.975 183.55 109.597 195.109 111.287C206.137 113.027 217.297 113.787 228.459 113.557C238.369 113.257 248.219 112.437 257.699 109.297C261.459 108.117 265.109 106.397 268.729 104.917ZM138.129 104.987C138.239 101.347 137.309 99.8671 135.439 99.5471C133.569 99.2271 131.739 100.457 131.219 102.867C130.629 105.607 130.089 108.367 129.699 111.147C129.567 111.729 129.587 112.334 129.757 112.906C129.926 113.478 130.24 113.997 130.668 114.412C131.095 114.828 131.623 115.127 132.199 115.28C132.775 115.433 133.381 115.436 133.959 115.287C134.585 115.142 135.155 114.819 135.602 114.358C136.049 113.897 136.353 113.317 136.479 112.687C137.159 109.787 137.739 106.857 138.109 104.987H138.129ZM211.129 123.077C210.987 122.172 210.752 121.284 210.429 120.427C210.243 119.954 209.939 119.536 209.547 119.213C209.155 118.889 208.687 118.671 208.187 118.578C207.687 118.485 207.171 118.52 206.689 118.681C206.207 118.842 205.773 119.123 205.429 119.497C204.744 120.191 204.269 121.065 204.059 122.017C203.579 124.397 203.279 126.817 203.059 129.237C202.9 130.185 203.106 131.158 203.634 131.961C204.163 132.765 204.975 133.338 205.909 133.567C206.375 133.642 206.85 133.624 207.308 133.513C207.767 133.403 208.198 133.202 208.578 132.923C208.958 132.643 209.278 132.291 209.521 131.887C209.763 131.482 209.922 131.034 209.989 130.567C210.519 128.117 210.779 125.717 211.169 123.117L211.129 123.077Z" fill="#979FBB"/>
<path d="M114.109 93.2457L108.289 89.8757C109.419 82.9357 110.499 76.2357 111.579 69.5357C112.079 66.5357 112.579 63.4557 113.039 60.4057C113.039 60.0557 113.039 59.6757 113.159 59.3257C113.919 55.8357 114.509 55.5657 117.929 56.4157C128.379 59.0057 138.869 61.4157 149.309 64.0757C158.419 66.3657 167.489 68.8257 176.639 71.6257C176.157 71.8456 175.65 72.0067 175.129 72.1057C166.896 72.7724 158.666 73.4024 150.439 73.9957C141.759 74.6357 133.079 75.1957 124.439 75.8557C122.869 75.9757 121.319 75.7857 119.699 76.4757C118.851 76.789 118.103 77.3264 117.536 78.0308C116.969 78.7351 116.604 79.5801 116.479 80.4757C116.019 82.7857 115.699 85.1157 115.289 87.4757C114.929 89.1857 114.559 90.9457 114.109 93.2457Z" fill="white"/>
<path d="M68.7804 72.1964C66.2404 68.3264 63.3504 65.0264 58.6504 63.6864L65.0304 53.0664C67.9283 56.2797 71.3969 58.9278 75.2604 60.8764L68.7804 72.1964Z" fill="white"/>
<path d="M228.469 67.2461C229.305 67.4652 230.124 67.7459 230.919 68.0861C233.279 69.2361 235.599 70.4661 237.919 71.7061C243.819 74.8661 249.716 78.0394 255.609 81.2261C256.567 81.7253 257.449 82.3583 258.229 83.1061C258.69 83.5554 258.995 84.1412 259.097 84.7769C259.2 85.4126 259.095 86.0644 258.799 86.6361C258.59 87.2508 258.181 87.7774 257.637 88.1312C257.093 88.4849 256.445 88.6451 255.799 88.5861C254.729 88.5114 253.685 88.2223 252.729 87.7361C244.389 83.1861 236.079 78.5761 227.729 73.9761C227.086 73.6464 226.476 73.2545 225.909 72.8061C225.37 72.3814 224.986 71.7901 224.817 71.1244C224.649 70.4587 224.706 69.7561 224.979 69.1261C225.599 67.7861 226.709 67.3161 228.469 67.2461Z" fill="#3558A2"/>
<path d="M241.11 85.9761C241.05 89.2061 238.05 90.8061 235.52 89.3061C227.59 84.5861 219.69 79.7961 211.79 75.0061C210.93 74.5012 210.134 73.8934 209.42 73.1961C208.92 72.7223 208.599 72.0909 208.51 71.4081C208.42 70.7252 208.569 70.0325 208.93 69.4461C209.271 68.8489 209.801 68.3816 210.436 68.1174C211.071 67.8532 211.776 67.8071 212.44 67.9861C213.218 68.2182 213.962 68.5546 214.65 68.9861C222.15 73.2061 229.65 77.4261 237.13 81.7061C238.234 82.3264 239.244 83.1008 240.13 84.0061C240.568 84.6013 240.9 85.2678 241.11 85.9761V85.9761Z" fill="#3558A2"/>
<path d="M138.11 104.986C137.72 106.856 137.11 109.786 136.46 112.686C136.334 113.316 136.03 113.896 135.583 114.357C135.136 114.818 134.565 115.141 133.94 115.286C133.362 115.434 132.756 115.432 132.18 115.279C131.603 115.125 131.076 114.827 130.648 114.411C130.221 113.995 129.907 113.477 129.737 112.905C129.568 112.333 129.548 111.728 129.68 111.146C130.07 108.366 130.61 105.606 131.2 102.866C131.72 100.456 133.41 99.196 135.42 99.546C137.43 99.896 138.24 101.346 138.11 104.986Z" fill="#3558A2"/>
<path d="M211.169 123.116C210.779 125.756 210.519 128.186 210.029 130.556C209.962 131.022 209.803 131.471 209.561 131.875C209.318 132.28 208.998 132.632 208.618 132.911C208.239 133.19 207.807 133.391 207.349 133.502C206.89 133.613 206.415 133.631 205.949 133.556C205.016 133.327 204.203 132.753 203.674 131.95C203.146 131.147 202.94 130.174 203.099 129.226C203.359 126.806 203.659 124.386 204.099 122.006C204.309 121.053 204.784 120.18 205.469 119.486C205.813 119.111 206.247 118.831 206.729 118.67C207.212 118.509 207.727 118.473 208.227 118.566C208.727 118.659 209.195 118.878 209.587 119.201C209.979 119.525 210.283 119.943 210.469 120.416C210.796 121.289 211.031 122.194 211.169 123.116Z" fill="#3558A2"/>
<path d="M175.689 220.916L171.369 212.736L172.259 212.236L176.749 220.286L175.689 220.916Z" fill="#ECEDF1"/>
<path d="M177.26 223.116L177.07 223.016L177.25 223.116H177.26Z" fill="#ECEDF1"/>
<path d="M177.25 223.115L177.44 223.225L177.26 223.115H177.25Z" fill="#ECEDF1"/>
<path d="M84.6596 253.926C83.3369 256.321 82.4242 258.92 81.9595 261.616C80.9677 268.07 80.3798 274.58 80.1995 281.106C80.1024 282.812 79.7658 284.495 79.1995 286.106C78.8913 287.17 78.2456 288.104 77.3599 288.767C76.4741 289.431 75.3965 289.789 74.2896 289.786C69.3962 290.04 64.4995 290.223 59.5995 290.336C58.3597 290.424 57.1286 290.071 56.1241 289.339C55.1195 288.607 54.406 287.544 54.1095 286.336C53.4078 284.28 52.9284 282.155 52.6795 279.996C52.2995 275.746 52.2196 271.486 52.0196 267.226C51.6396 258.796 51.3695 250.356 50.8595 241.936C50.5795 237.236 49.9896 232.556 49.4096 227.886C48.9396 224.026 46.6395 221.266 43.5795 219.086C42.6374 218.392 41.6331 217.786 40.5795 217.276C39.7379 216.923 39.0204 216.328 38.5182 215.566C38.0161 214.803 37.752 213.909 37.7596 212.996C37.7596 212.636 37.6695 212.287 37.6095 211.757C36.4195 211.097 35.1796 210.366 33.9096 209.696C31.0577 208.084 28.523 205.966 26.4295 203.446C22.5795 199.046 21.4995 193.776 22.1995 188.176C23.0087 181.447 26.0508 175.183 30.8395 170.387C32.6045 168.547 34.724 167.083 37.07 166.085C39.416 165.086 41.9399 164.573 44.4895 164.577C49.4895 164.477 54.4895 164.577 59.4895 164.577H62.3295C62.9276 159.755 62.1366 154.864 60.0495 150.477C59.3195 149.017 58.4295 147.637 57.7295 146.167C56.8395 144.267 55.9195 142.257 57.4795 140.287C59.0395 138.317 61.0195 138.456 63.1895 138.596C69.7395 139.026 77.3295 146.197 78.7395 151.827C79.7239 155.129 80.285 158.543 80.4096 161.986C80.4096 162.686 80.5095 163.396 80.5695 164.296H88.0695C88.9495 161.656 88.5696 158.936 88.3996 156.296C88.2689 152.022 87.2471 147.823 85.3996 143.967C85.0155 143.143 84.8207 142.245 84.8295 141.337C84.8076 140.814 84.8928 140.292 85.0797 139.804C85.2667 139.315 85.5516 138.87 85.9168 138.495C86.282 138.121 86.7198 137.825 87.2035 137.625C87.6872 137.426 88.2065 137.328 88.7295 137.337C89.4513 137.306 90.1712 137.432 90.8395 137.706C92.8542 138.506 94.7728 139.529 96.5595 140.757C101.369 144.428 104.741 149.668 106.09 155.566C106.228 156.092 106.395 156.609 106.59 157.117L108.66 155.236C110.508 153.346 112.802 151.95 115.329 151.176C116.592 150.783 117.941 150.756 119.219 151.097C120.496 151.439 121.651 152.136 122.549 153.107C124.879 155.417 125.7 158.367 126.12 161.447C126.48 164.127 126.62 166.846 126.88 169.846C127.95 169.916 128.999 170.017 130.059 170.057C140.129 170.437 150.2 170.636 160.25 171.236C165.311 171.604 170.345 172.292 175.319 173.296C182.429 174.626 187.83 178.777 192.25 184.357C196.502 189.791 200.044 195.746 202.79 202.076C204.469 205.582 205.854 209.221 206.929 212.956C207.702 216.03 208.869 218.991 210.4 221.766C214.04 228.176 218.19 234.266 224.49 238.446C228.72 241.236 233.05 243.866 237.24 246.516C239.305 244.758 241.027 242.632 242.319 240.246C243.549 237.866 245.199 237.106 247.069 238.026C248.008 238.51 248.718 239.344 249.044 240.348C249.37 241.352 249.285 242.444 248.809 243.386C248.373 244.277 247.847 245.122 247.24 245.906C246.68 246.696 246.04 247.436 245.24 248.486C246.4 248.726 247.169 248.866 247.939 249.046C248.826 249.208 249.694 249.459 250.53 249.796C251.191 250.109 251.735 250.625 252.082 251.27C252.43 251.914 252.562 252.652 252.46 253.376C252.326 254.148 251.921 254.846 251.318 255.345C250.714 255.844 249.952 256.11 249.17 256.096C248.082 256.071 246.997 255.981 245.92 255.826L242.92 255.546C243.2 257.186 243.45 258.546 243.65 259.846C243.813 260.737 243.896 261.641 243.9 262.546C243.946 263.419 243.647 264.275 243.066 264.928C242.486 265.582 241.672 265.98 240.799 266.036C239.929 266.135 239.055 265.899 238.351 265.378C237.648 264.856 237.169 264.087 237.01 263.226C236.53 261.226 236.23 259.136 235.85 257.086C235.79 256.726 235.739 256.367 235.689 256.007C235.571 255.071 235.214 254.182 234.651 253.425C234.089 252.668 233.341 252.07 232.48 251.686C226.645 248.809 221.21 245.185 216.309 240.906C216.499 242.196 216.63 243.107 216.76 244.007C217.46 249.307 218.21 254.596 218.86 259.906C219.25 263.056 219.51 266.216 219.78 269.376C220.119 271.711 219.994 274.09 219.41 276.376C219.172 277.405 218.628 278.338 217.85 279.052C217.071 279.766 216.095 280.228 215.049 280.376C210.199 280.966 205.309 281.296 200.429 281.686C199.798 281.712 199.168 281.607 198.579 281.376C197.745 281.12 197.027 280.58 196.55 279.849C196.073 279.118 195.868 278.243 195.97 277.376C196.13 274.126 196.42 270.866 196.73 267.626C196.961 264.533 196.385 261.431 195.059 258.626C194.389 257.086 193.38 255.626 191.54 255.626C190.619 255.663 189.738 256.016 189.048 256.626C188.357 257.237 187.899 258.067 187.75 258.976C186.49 264.066 185.22 269.156 184.01 274.266C183.55 276.196 183.31 278.186 182.88 280.126C182.711 281.266 182.159 282.314 181.316 283.099C180.473 283.884 179.388 284.359 178.24 284.446C176.251 284.713 174.245 284.824 172.24 284.776C168.79 284.616 165.359 284.276 161.929 283.936C161.028 283.851 160.149 283.611 159.329 283.226C157.649 282.446 157.149 281.006 157.199 279.226C157.289 275.416 157.26 271.606 157.26 267.796C157.26 266.906 157.139 266.016 157.069 264.996C154.389 265.816 151.899 266.526 149.439 267.376C148.939 267.546 148.55 268.176 148.21 268.666C147.49 269.666 146.9 270.846 146.14 271.856C145.257 273.148 143.928 274.066 142.408 274.436C140.889 274.805 139.286 274.599 137.91 273.856L136.84 273.326C136.22 273.796 135.599 274.326 134.939 274.756C130.479 277.856 125.519 276.236 123.939 271.076C123.409 269.326 122.759 268.076 120.829 267.486C119.589 266.964 118.417 266.292 117.34 265.486C116.752 267.023 116.264 268.597 115.88 270.196C115.21 273.846 114.65 277.516 114.17 281.196C113.65 285.116 111.97 286.876 108 287.086C103.381 287.234 98.7589 286.899 94.2095 286.086C93.2074 285.982 92.2691 285.546 91.5441 284.846C90.8191 284.146 90.3493 283.224 90.2095 282.226C89.9815 281.073 89.8577 279.902 89.8395 278.726C89.7269 272.922 89.1416 267.136 88.0895 261.426C87.6136 258.672 86.4319 256.088 84.6596 253.926V253.926ZM199.78 213.556C194.52 215.556 189.96 214.196 185.52 212.136C183.79 211.346 182.22 210.226 180.52 209.456C178.474 208.447 176.324 207.663 174.11 207.116C170.988 206.549 167.836 206.162 164.67 205.956C161.667 205.728 158.789 204.665 156.36 202.886C151.8 199.536 149.82 194.706 149.03 189.386C148.49 185.756 148.57 182.027 148.35 178.027L136.42 177.477C132.79 177.297 129.16 177.216 125.54 176.906C121.31 176.556 119.69 174.676 119.54 170.396C119.43 167.856 119.32 165.316 118.99 162.796C118.78 161.146 118.78 159.317 117.24 158.137C115.52 158.327 114.44 159.456 113.36 160.546C110.22 163.686 107.07 166.826 103.99 170.036C103.454 170.655 102.758 171.114 101.978 171.363C101.198 171.612 100.365 171.641 99.5695 171.447C98.6819 171.258 97.7769 171.165 96.8695 171.167C87.1695 171.307 77.4595 171.476 67.7495 171.626C66.2495 171.626 64.7495 171.626 62.8495 171.626C68.2595 179.626 68.9495 187.777 65.9995 196.377C62.9995 205.247 56.1995 210.066 47.6995 213.196C48.2595 213.626 48.6295 213.886 48.9695 214.196C52.9695 217.596 55.9695 221.646 56.4895 227.016C57.1995 234.146 57.9295 241.266 58.3395 248.416C58.9095 258.416 59.1795 268.356 59.6295 278.326C59.5992 280.12 60.0516 281.888 60.9395 283.446L73.3996 282.726C73.4996 281.726 73.6295 281.026 73.6295 280.316C73.5105 273.961 73.9084 267.607 74.8195 261.316C75.5149 256.828 77.0774 252.518 79.4196 248.626C81.3096 245.546 83.8995 244.836 87.1295 246.466C88.3093 247.105 89.3337 247.996 90.1295 249.076C92.6673 252.306 94.3276 256.136 94.9495 260.196C95.7295 265.936 96.2795 271.716 96.9495 277.476C97.0195 278.076 97.1396 278.666 97.2796 279.476C100.55 279.116 103.63 280.476 106.96 279.576C107.17 278.106 107.379 276.676 107.569 275.246C108.329 269.556 109.229 263.916 113.329 259.436C113.702 258.932 114.037 258.401 114.329 257.846C118.129 252.186 122.88 247.756 129.74 246.106C136.11 244.576 142.54 243.656 149.09 244.716C151.077 244.983 152.989 245.653 154.709 246.685C156.428 247.716 157.919 249.088 159.09 250.716C162.5 255.386 163.64 260.716 164.09 266.276C164.4 269.686 164.27 273.146 164.34 276.796C168.28 277.266 172.08 277.796 175.86 277.266C176.75 272.986 177.489 268.976 178.439 265.016C179.177 261.749 180.101 258.527 181.21 255.366C182.054 253.087 183.648 251.161 185.73 249.906C187.812 248.651 190.259 248.14 192.67 248.456C197.13 249.126 199.94 252.027 201.6 256.007C203.527 260.249 204.221 264.948 203.6 269.566C203.484 271.171 203.484 272.782 203.6 274.386L212.6 273.386C211.72 260.386 210.36 247.746 207.29 235.276C205.51 227.856 202.62 220.886 199.78 213.556ZM196.9 206.666C194.204 199.895 190.495 193.573 185.9 187.916C182.55 183.916 178.47 180.916 173.21 180.126C167.76 179.296 162.26 178.756 156.77 178.126C156.36 178.159 155.958 178.257 155.579 178.417C155.579 180.647 155.449 182.737 155.579 184.807C155.705 188.077 156.56 191.278 158.079 194.176C158.734 195.429 159.68 196.505 160.837 197.316C161.994 198.127 163.329 198.648 164.73 198.836C166.43 199.076 168.15 199.246 169.86 199.356C175.495 199.614 180.975 201.282 185.799 204.206C187.484 205.271 189.294 206.121 191.189 206.736C192.949 207.276 194.83 208.116 196.9 206.666ZM29.0296 190.766C28.9606 192.319 29.2027 193.871 29.742 195.329C30.2812 196.787 31.1067 198.122 32.1696 199.257C34.6591 201.933 37.7417 203.988 41.1696 205.257C42.5209 205.81 43.9817 206.045 45.4385 205.943C46.8953 205.841 48.3089 205.404 49.5695 204.666C54.9595 201.666 58.7496 197.497 60.1496 191.247C61.0408 187.148 60.6209 182.873 58.9495 179.027C58.5697 178.104 58.0086 177.268 57.2995 176.566C55.0095 174.306 52.5696 172.426 49.0096 172.566C47.5596 172.636 46.0795 171.657 44.6195 171.667C42.0508 171.557 39.527 172.365 37.4995 173.947C32.2395 178.387 29.6696 184.116 29.0296 190.766V190.766ZM121.86 258.886C122.064 259.532 122.461 260.101 122.997 260.515C123.533 260.93 124.183 261.171 124.86 261.206C127.69 261.526 129.15 263.256 129.86 265.866C130.09 266.746 130.42 267.586 130.71 268.446H131.319C131.629 267.356 131.9 266.236 132.27 265.166C132.471 264.369 132.913 263.654 133.536 263.117C134.158 262.58 134.931 262.248 135.75 262.166C137.62 261.996 138.75 263.096 139.64 264.606C140.01 265.256 140.36 265.916 141.04 267.156C141.51 265.696 141.83 264.886 142.04 264.056C142.6 261.776 143.96 260.236 146.34 260.236C149.43 260.236 152.07 258.876 154.88 257.956C153.33 254.086 151.069 252.117 147.689 251.757C142.562 251.169 137.37 251.542 132.38 252.856C128.37 253.906 124.58 255.366 121.86 258.886V258.886ZM67.2495 148.247C67.8495 150.827 68.6196 153.387 69.0096 156.006C69.3996 158.626 69.4895 161.546 69.7095 164.396C70.3895 164.396 70.9195 164.516 71.4495 164.506C71.9795 164.496 72.4495 164.426 73.3295 164.346C73.0495 158.206 72.6695 152.367 67.2495 148.247V148.247ZM94.8695 149.007L95.7596 164.396H99.1696C100.39 158.446 99.0495 153.377 94.8695 149.007V149.007Z" fill="#3558A2"/>
<path d="M199.78 213.556C202.62 220.886 205.51 227.856 207.35 235.306C210.42 247.776 211.78 260.406 212.66 273.416L203.66 274.416C203.544 272.811 203.544 271.201 203.66 269.596C204.281 264.978 203.588 260.278 201.66 256.036C200 252.036 197.19 249.156 192.73 248.486C190.319 248.169 187.873 248.68 185.791 249.936C183.708 251.191 182.115 253.116 181.27 255.396C180.162 258.557 179.237 261.779 178.5 265.046C177.5 269.046 176.81 273.046 175.92 277.296C172.14 277.826 168.34 277.296 164.4 276.826C164.33 273.176 164.46 269.716 164.15 266.306C163.65 260.766 162.51 255.416 159.15 250.746C157.979 249.118 156.488 247.746 154.769 246.714C153.049 245.682 151.137 245.013 149.15 244.746C142.6 243.686 136.15 244.606 129.8 246.136C122.94 247.786 118.19 252.216 114.39 257.876C114.097 258.43 113.762 258.962 113.39 259.466C109.29 263.946 108.39 269.586 107.63 275.276C107.44 276.706 107.23 278.136 107.02 279.606C103.69 280.536 100.61 279.146 97.3397 279.506C97.1997 278.696 97.0798 278.106 97.0098 277.506C96.3498 271.746 95.7998 265.966 95.0098 260.226C94.3878 256.166 92.7275 252.336 90.1897 249.106C89.3938 248.026 88.3695 247.135 87.1897 246.496C83.9597 244.866 81.3697 245.576 79.4797 248.656C77.1375 252.547 75.5752 256.858 74.8798 261.346C73.9687 267.637 73.5706 273.991 73.6897 280.346C73.6897 281.056 73.5597 281.766 73.4597 282.756L60.9998 283.476C60.1118 281.918 59.6593 280.149 59.6897 278.356C59.2397 268.356 58.9698 258.406 58.3998 248.446C57.9898 241.296 57.2597 234.176 56.5497 227.046C56.0097 221.676 53.0298 217.626 49.0298 214.226C48.6898 213.936 48.3198 213.676 47.7598 213.226C56.2598 210.096 63.0197 205.226 66.0597 196.406C69.0097 187.806 68.3198 179.666 62.9098 171.656C64.8098 171.656 66.3097 171.656 67.8097 171.656C77.5197 171.506 87.2297 171.336 96.9297 171.196C97.837 171.194 98.7421 171.288 99.6298 171.476C100.425 171.67 101.258 171.641 102.038 171.393C102.818 171.144 103.514 170.685 104.05 170.066C107.13 166.856 110.28 163.716 113.42 160.576C114.5 159.486 115.58 158.356 117.3 158.166C118.84 159.346 118.84 161.166 119.05 162.826C119.38 165.346 119.49 167.886 119.6 170.426C119.79 174.706 121.41 176.586 125.6 176.936C129.22 177.246 132.85 177.326 136.48 177.506L148.41 178.056C148.63 182.056 148.55 185.786 149.09 189.416C149.88 194.736 151.86 199.566 156.42 202.916C158.849 204.694 161.728 205.758 164.73 205.986C167.875 206.184 171.007 206.561 174.11 207.116C176.3 207.664 178.426 208.445 180.45 209.446C182.19 210.216 183.76 211.336 185.45 212.126C189.96 214.196 194.52 215.576 199.78 213.556ZM130.64 230.736C132.381 230.497 134.099 230.119 135.78 229.606C141.22 227.486 144.24 223.196 145.58 217.726C145.912 216.394 145.961 215.007 145.723 213.655C145.485 212.302 144.966 211.015 144.2 209.876C143.27 208.382 142.038 207.099 140.583 206.11C139.128 205.122 137.481 204.449 135.75 204.136C128.156 202.44 120.479 201.142 112.75 200.246C109.577 199.818 106.348 200.199 103.362 201.353C100.376 202.507 97.7303 204.396 95.6698 206.846C88.4398 215.036 93.4697 227.636 103.05 228.846C105.191 229.148 107.364 229.164 109.51 228.896C114.51 228.216 119.42 228.036 124.34 229.476C126.3 230.116 128.39 230.316 130.64 230.736ZM157.7 228.926C157.94 232.666 160.42 236.386 165.07 238.646C168.635 240.311 172.632 240.818 176.5 240.096C178.926 239.746 181.4 239.944 183.74 240.676C184.74 240.946 185.67 241.206 186.64 241.396C188.429 241.757 190.288 241.478 191.893 240.608C193.498 239.738 194.746 238.332 195.42 236.636C196.132 235.161 196.253 233.469 195.758 231.908C195.264 230.346 194.191 229.033 192.76 228.236C192.025 227.709 191.354 227.098 190.76 226.416C185.487 220.682 178.357 216.998 170.63 216.016C163.11 215.116 157.45 221.416 157.7 228.926ZM73.7997 182.486C73.815 183.399 74.1661 184.275 74.7858 184.947C75.4054 185.618 76.2505 186.038 77.1598 186.126C78.1626 186.16 79.1394 185.803 79.8852 185.132C80.6311 184.461 81.0879 183.527 81.1598 182.526C81.1288 181.566 80.7273 180.654 80.0394 179.983C79.3516 179.312 78.4307 178.933 77.4697 178.926C76.9945 178.917 76.5221 179.002 76.0798 179.176C75.6376 179.35 75.2341 179.61 74.8929 179.941C74.5517 180.272 74.2794 180.668 74.0918 181.104C73.9042 181.541 73.8049 182.011 73.7997 182.486V182.486ZM89.9997 187.656C90.9555 187.654 91.8735 187.282 92.5614 186.619C93.2492 185.955 93.6535 185.051 93.6897 184.096C93.6832 183.622 93.5826 183.153 93.3935 182.718C93.2045 182.283 92.9307 181.89 92.5882 181.561C92.2458 181.233 91.8416 180.975 91.3989 180.805C90.9562 180.634 90.4841 180.553 90.0098 180.566C89.1027 180.613 88.2432 180.986 87.5891 181.616C86.935 182.246 86.5304 183.091 86.4497 183.996C86.4363 184.952 86.8026 185.874 87.4681 186.56C88.1336 187.246 89.044 187.64 89.9997 187.656V187.656Z" fill="white"/>
<path d="M196.9 206.665C194.83 208.135 192.9 207.275 191.21 206.725C189.315 206.11 187.505 205.26 185.82 204.195C180.996 201.271 175.516 199.603 169.88 199.345C168.17 199.235 166.45 199.065 164.75 198.825C163.35 198.637 162.015 198.116 160.858 197.305C159.701 196.494 158.755 195.417 158.1 194.165C156.58 191.267 155.726 188.066 155.6 184.795C155.44 182.725 155.6 180.635 155.6 178.405C155.979 178.246 156.381 178.148 156.79 178.115C162.28 178.755 167.79 179.295 173.23 180.115C178.49 180.915 182.57 183.885 185.92 187.905C190.51 193.566 194.212 199.892 196.9 206.665V206.665Z" fill="#979FBB"/>
<path d="M29.0304 190.766C29.6704 184.106 32.2404 178.386 37.4604 174.016C39.4878 172.435 42.0116 171.627 44.5804 171.736C46.0404 171.736 47.5204 172.736 48.9704 172.636C52.5304 172.456 54.9704 174.336 57.2604 176.636C57.9695 177.338 58.5306 178.174 58.9104 179.096C60.5819 182.943 61.0016 187.218 60.1104 191.316C58.7104 197.566 54.9204 201.736 49.5304 204.736C48.2698 205.474 46.8562 205.911 45.3993 206.013C43.9425 206.115 42.4817 205.88 41.1304 205.326C37.7025 204.058 34.6199 202.003 32.1304 199.326C31.066 198.18 30.2429 196.832 29.7104 195.361C29.1778 193.891 28.9466 192.328 29.0304 190.766V190.766ZM44.5703 186.906C44.3727 185.643 44.1057 184.391 43.7704 183.156C42.7704 180.096 40.3103 179.406 37.5503 180.996C34.7903 182.586 33.9404 187.776 35.3604 190.816C35.6453 191.585 36.1537 192.251 36.8202 192.729C37.4867 193.206 38.2808 193.474 39.1004 193.496C39.9174 193.577 40.7395 193.405 41.4551 193.002C42.1707 192.6 42.7452 191.987 43.1004 191.246C43.6845 189.833 44.1755 188.384 44.5703 186.906V186.906ZM46.8404 187.196C46.8894 188.278 46.9996 189.357 47.1704 190.426C47.3249 191.348 47.777 192.195 48.4577 192.835C49.1384 193.476 50.0103 193.877 50.94 193.975C51.8697 194.074 52.8062 193.865 53.6062 193.382C54.4063 192.898 55.0259 192.165 55.3704 191.296C56.8804 188.246 56.3704 185.296 54.7204 182.526C53.7204 180.876 52.0604 180.526 50.2304 181.266C47.5004 182.346 46.8604 184.566 46.8404 187.196Z" fill="#EAECF1"/>
<path d="M121.859 258.887C124.579 255.367 128.369 253.887 132.319 252.827C137.31 251.513 142.502 251.14 147.629 251.727C151.009 252.087 153.269 254.057 154.819 257.927C152.009 258.847 149.369 260.207 146.279 260.207C143.899 260.207 142.539 261.747 141.979 264.027C141.779 264.857 141.459 265.667 140.979 267.127C140.299 265.887 139.979 265.227 139.579 264.577C138.719 263.067 137.579 261.967 135.689 262.137C134.871 262.219 134.098 262.551 133.476 263.087C132.853 263.624 132.411 264.34 132.209 265.137C131.839 266.207 131.569 267.327 131.259 268.417H130.649C130.359 267.557 130.029 266.717 129.799 265.837C129.129 263.227 127.669 261.497 124.799 261.177C124.137 261.132 123.503 260.89 122.979 260.482C122.455 260.074 122.065 259.518 121.859 258.887V258.887Z" fill="#EAECF1"/>
<path d="M67.25 148.246C72.67 152.366 73.05 158.246 73.33 164.346C72.49 164.426 71.97 164.506 71.45 164.506C70.93 164.506 70.39 164.436 69.71 164.396C69.49 161.546 69.43 158.746 69.01 156.006C68.59 153.266 67.85 150.826 67.25 148.246Z" fill="white"/>
<path d="M94.8691 149.006C99.0491 153.376 100.389 158.446 99.1692 164.396H95.7592L94.8691 149.006Z" fill="white"/>
<path d="M130.64 230.736C128.39 230.316 126.3 230.096 124.32 229.516C119.4 228.076 114.49 228.256 109.49 228.936C107.344 229.204 105.172 229.187 103.03 228.886C93.4502 227.636 88.4202 215.036 95.6502 206.886C97.7106 204.436 100.357 202.546 103.343 201.392C106.329 200.239 109.558 199.858 112.73 200.286C120.459 201.182 128.136 202.48 135.73 204.176C137.462 204.489 139.108 205.161 140.564 206.15C142.019 207.139 143.251 208.422 144.18 209.916C144.947 211.055 145.466 212.342 145.703 213.694C145.941 215.046 145.892 216.433 145.56 217.766C144.22 223.236 141.2 227.526 135.76 229.646C134.085 230.144 132.373 230.509 130.64 230.736ZM111.82 207.176C109.85 207.041 107.874 207.347 106.037 208.072C104.2 208.797 102.548 209.922 101.2 211.366C100.451 212.103 99.9097 213.024 99.6289 214.037C99.3481 215.049 99.3382 216.118 99.6001 217.136C100.35 220.326 102.3 222.286 106.66 222.056C109.1 221.916 111.52 221.516 113.96 221.246C118.84 220.716 123.51 221.956 128.18 223.096C133.42 224.366 136.72 221.406 138.34 217.176C138.709 216.288 138.75 215.298 138.457 214.382C138.164 213.467 137.556 212.685 136.74 212.176C135.75 211.553 134.656 211.113 133.51 210.876C130.95 210.306 128.36 209.876 125.77 209.426C121.11 208.626 116.47 207.916 111.82 207.176Z" fill="#3558A2"/>
<path d="M157.699 228.928C157.449 221.418 163.069 215.118 170.699 216.018C178.427 217 185.557 220.684 190.829 226.418C191.423 227.1 192.095 227.71 192.829 228.238C194.261 229.034 195.333 230.348 195.828 231.909C196.322 233.471 196.201 235.162 195.489 236.638C194.816 238.334 193.567 239.74 191.963 240.61C190.358 241.48 188.499 241.758 186.709 241.398C185.709 241.208 184.769 240.948 183.809 240.678C181.47 239.946 178.996 239.748 176.569 240.098C172.701 240.82 168.705 240.313 165.139 238.648C160.419 236.388 157.939 232.668 157.699 228.928ZM188.209 234.348C184.019 229.038 179.009 225.278 172.649 223.678C171.249 223.322 169.797 223.214 168.359 223.358C167.754 223.442 167.175 223.66 166.665 223.996C166.155 224.333 165.727 224.779 165.412 225.303C165.096 225.826 164.902 226.413 164.843 227.021C164.784 227.629 164.861 228.243 165.069 228.818C165.301 229.556 165.688 230.235 166.206 230.81C166.724 231.385 167.359 231.841 168.069 232.148C170.117 233.166 172.44 233.493 174.689 233.078C178.448 232.432 182.306 232.682 185.949 233.808C186.679 234.008 187.449 234.168 188.209 234.348Z" fill="#3558A2"/>
<path d="M73.8008 182.486C73.8059 182.007 73.9064 181.534 74.0966 181.094C74.2867 180.655 74.5626 180.258 74.9081 179.926C75.2536 179.595 75.6617 179.335 76.1086 179.164C76.5556 178.992 77.0323 178.911 77.5109 178.926C78.4718 178.933 79.3927 179.312 80.0806 179.983C80.7684 180.654 81.1698 181.565 81.2008 182.526C81.129 183.526 80.6722 184.46 79.9264 185.132C79.1806 185.803 78.2037 186.159 77.2008 186.126C76.2843 186.047 75.4297 185.631 74.8018 184.959C74.1738 184.286 73.8172 183.405 73.8008 182.486V182.486Z" fill="#3558A2"/>
<path d="M89.9996 187.656C89.0439 187.64 88.1335 187.246 87.468 186.56C86.8025 185.874 86.4362 184.952 86.4496 183.996C86.5303 183.091 86.9349 182.246 87.589 181.616C88.243 180.986 89.1026 180.613 90.0096 180.566C90.4839 180.553 90.9561 180.634 91.3988 180.805C91.8415 180.975 92.2457 181.232 92.5881 181.561C92.9305 181.889 93.2043 182.283 93.3934 182.718C93.5825 183.153 93.6831 183.621 93.6896 184.096C93.6534 185.051 93.2491 185.955 92.5613 186.619C91.8734 187.282 90.9554 187.654 89.9996 187.656Z" fill="#3558A2"/>
<path d="M44.5703 186.907C44.182 188.384 43.6977 189.834 43.1204 191.247C42.7652 191.987 42.1907 192.6 41.4751 193.003C40.7595 193.405 39.9374 193.578 39.1204 193.497C38.3008 193.475 37.5067 193.207 36.8402 192.73C36.1738 192.252 35.6654 191.586 35.3804 190.817C33.9604 187.817 34.8403 182.577 37.5703 180.997C40.3003 179.417 42.7604 180.097 43.7904 183.157C44.119 184.392 44.3793 185.644 44.5703 186.907Z" fill="#3558A2"/>
<path d="M46.8398 187.197C46.8398 184.567 47.4999 182.347 50.2299 181.267C52.0599 180.537 53.7299 180.877 54.7199 182.527C56.3899 185.307 56.8799 188.247 55.3699 191.297C55.0254 192.166 54.4058 192.898 53.6057 193.382C52.8057 193.866 51.8692 194.074 50.9395 193.976C50.0097 193.877 49.1379 193.477 48.4572 192.836C47.7764 192.195 47.3244 191.349 47.1699 190.427C46.9991 189.357 46.8888 188.279 46.8398 187.197V187.197Z" fill="#3558A2"/>
<path d="M111.82 207.176C116.47 207.916 121.12 208.626 125.82 209.396C128.41 209.816 131 210.276 133.56 210.846C134.706 211.083 135.8 211.523 136.79 212.146C137.606 212.655 138.214 213.437 138.507 214.353C138.8 215.268 138.759 216.258 138.39 217.146C136.77 221.376 133.47 224.336 128.23 223.066C123.56 221.926 118.89 220.686 114.01 221.216C111.57 221.486 109.15 221.886 106.71 222.026C102.35 222.256 100.4 220.296 99.6503 217.106C99.3884 216.088 99.3983 215.02 99.6791 214.007C99.9599 212.994 100.502 212.073 101.25 211.336C102.595 209.905 104.241 208.789 106.068 208.07C107.896 207.35 109.86 207.045 111.82 207.176V207.176Z" fill="#979FBB"/>
<path d="M188.211 234.346C187.451 234.166 186.681 234.006 185.931 233.806C182.287 232.681 178.429 232.431 174.671 233.076C172.422 233.491 170.098 233.165 168.051 232.146C167.341 231.84 166.705 231.383 166.187 230.809C165.67 230.234 165.282 229.554 165.051 228.816C164.842 228.242 164.765 227.628 164.824 227.02C164.883 226.412 165.078 225.825 165.393 225.301C165.708 224.778 166.137 224.332 166.647 223.995C167.157 223.659 167.735 223.44 168.341 223.356C169.778 223.213 171.23 223.321 172.631 223.676C179.011 225.276 184.021 229.036 188.211 234.346Z" fill="#979FBB"/>
</svg>
