<svg width="300" height="300" viewBox="0 0 300 300" fill="none" xmlns="http://www.w3.org/2000/svg">
<g clip-path="url(#clip0_1_8400)">
<path d="M285.543 186.81C285.943 190.05 286.223 193.1 286.773 196.11C286.903 196.82 287.833 197.57 288.573 197.94C289.451 198.33 290.182 198.989 290.661 199.82C291.141 200.652 291.345 201.615 291.243 202.57C291.173 204.75 291.143 206.93 291.063 209.1C290.923 212.75 288.833 214.1 286.063 214.44C260.303 217.64 234.546 220.89 208.793 224.19C185.106 227.197 161.44 230.197 137.793 233.19L75.373 241.05L39.413 245.59C34.983 246.15 33.413 245.19 32.293 240.91C31.733 238.91 31.293 236.91 30.823 234.82C30.493 233.34 30.453 231.71 31.663 230.74C34.073 228.83 33.773 226.56 33.023 224.11C32.893 223.69 32.783 223.27 32.583 222.57C30.193 222.79 27.863 222.98 25.583 223.23C23.423 223.47 21.283 223.86 19.113 224.04C16.173 224.28 14.623 223.12 14.253 220.2C13.683 215.7 13.253 211.2 12.813 206.67C11.563 194.2 10.283 181.74 9.083 169.27C7.863 156.62 6.76302 143.96 5.53302 131.27C4.42302 119.7 3.21302 108.15 2.03302 96.59C1.78302 94.15 1.57301 91.74 2.46301 89.34C2.70004 88.4648 3.20403 87.6852 3.90484 87.1099C4.60565 86.5345 5.46838 86.1921 6.37298 86.13C13.233 85.39 20.073 84.54 26.923 83.75C43.523 81.8367 60.1197 79.9333 76.713 78.0399C84.913 77.0399 93.113 76.04 101.313 75.12C109.873 74.12 118.453 73.21 127.013 72.24C143.68 70.3467 160.366 68.4466 177.073 66.5399C185.273 65.5999 193.463 64.5399 201.673 63.5399C213.393 62.1899 225.123 60.9199 236.853 59.5399C245.503 58.5399 254.153 57.5399 262.853 56.5399C267.453 56.0199 272.063 55.54 276.663 55.08C277.114 55.0284 277.569 55.0017 278.023 55C284.023 55.08 284.563 56.55 285.113 61.09C286.383 71.45 287.623 81.8199 288.893 92.1799C290.513 105.43 292.183 118.67 293.803 131.91C295.113 142.72 296.383 153.54 297.683 164.36C298.263 169.22 298.963 174.08 299.433 178.95C299.793 182.8 298.583 184.16 294.713 184.87C293.283 185.13 291.873 185.47 290.453 185.75C289.033 186.03 287.523 186.43 285.543 186.81ZM166.093 140.31C165.832 139.308 165.715 138.275 165.743 137.24C166.213 134.8 164.983 133.16 163.583 131.41C161.628 129.116 160.297 126.356 159.719 123.397C159.141 120.439 159.335 117.382 160.283 114.52C161.023 112.09 161.843 109.68 162.813 107.33C165.873 99.93 170.963 93.8799 175.863 87.6699C183.033 78.5999 192.703 76.3899 203.403 77.4099C215.543 78.5599 227.233 82.05 238.993 85.11C251.993 88.49 264.933 92.04 277.903 95.5C278.903 95.77 279.973 95.84 281.393 96.06C280.013 84.8699 278.683 74.0599 277.313 62.9299L161.823 76.1699C160.315 80.1425 158.114 83.8162 155.323 87.02C151.814 91.4718 147.116 94.8384 141.773 96.73C140.783 97.1375 139.94 97.8346 139.353 98.73C137.753 101.04 136.353 103.52 134.823 105.84C133.795 107.443 132.595 108.929 131.243 110.27C130.748 110.781 130.143 111.171 129.473 111.41C128.803 111.65 128.088 111.732 127.381 111.651C126.675 111.57 125.996 111.327 125.398 110.942C124.8 110.557 124.299 110.04 123.933 109.43C123.234 108.373 122.698 107.217 122.343 106C121.423 103 120.523 99.91 119.843 96.82C119.733 96.0635 119.422 95.3504 118.941 94.7558C118.461 94.1611 117.829 93.7066 117.113 93.44C112.853 91.67 109.483 88.9199 107.663 84.5399C107.445 83.8932 106.988 83.3542 106.386 83.0327C105.784 82.7112 105.082 82.6315 104.423 82.8099C88.643 84.6399 72.853 86.3699 57.063 88.1699C44.443 89.5966 31.823 91.0566 19.203 92.5499C16.203 92.8999 13.113 93.32 9.66302 93.76C10.893 106.55 12.113 119.15 13.343 131.89C14.173 131.68 14.783 131.56 15.343 131.36C24.543 128.26 33.7363 125.153 42.923 122.04C56.483 117.41 70.003 112.66 83.613 108.18C88.7732 106.462 94.0457 105.102 99.3931 104.11C102.126 103.561 104.949 103.665 107.634 104.414C110.319 105.163 112.789 106.536 114.843 108.42C118.12 111.321 120.727 114.901 122.483 118.91C124.803 124.12 126.973 129.43 128.863 134.82C131.363 141.95 132.213 149.29 130.403 156.82C129.599 160.485 129.87 164.305 131.183 167.82C131.803 169.68 132.353 171.57 133.053 173.82C144.643 172.5 156.443 171.05 168.783 169.37C167.853 168.59 167.463 168.22 167.043 167.91C162.975 164.832 159.573 160.96 157.043 156.53C155.858 154.495 154.956 152.309 154.363 150.03C152.963 144.75 158.313 138.57 163.953 140.13C164.662 140.236 165.377 140.296 166.093 140.31V140.31ZM289.093 160.02C288.943 158.3 288.853 156.78 288.663 155.28C287.733 147.8 286.753 140.34 285.823 132.86C284.823 124.86 283.933 116.86 282.923 108.86C282.513 105.59 281.173 104.32 277.863 103.48C268.553 101.1 259.223 98.7699 249.933 96.2799C236.713 92.7299 223.573 88.8599 210.103 86.2799C207.743 85.8299 205.343 85.5399 203.043 85.1799C199.533 95.5199 191.733 98.92 179.583 95.58C178.583 96.91 177.393 98.3 176.303 99.73C172.337 104.836 169.418 110.674 167.713 116.91C167.18 118.64 167.122 120.481 167.546 122.241C167.97 124 168.861 125.613 170.123 126.91C171.54 126.594 172.976 126.377 174.423 126.26C175.767 126.329 177.104 126.499 178.423 126.77V124.33C178.423 118.26 182.423 114.05 188.423 113.61C191.059 113.407 193.704 113.872 196.113 114.96C201.515 117.346 206.639 120.317 211.393 123.82C223.203 132.59 236.563 136.93 251.113 137.9C251.917 137.915 252.717 137.782 253.473 137.51C256.233 136.65 258.083 137.41 258.963 139.85C259.166 140.405 259.25 140.996 259.211 141.586C259.171 142.175 259.009 142.75 258.734 143.273C258.459 143.795 258.077 144.255 257.614 144.621C257.15 144.988 256.615 145.253 256.043 145.4C254.743 145.769 253.391 145.917 252.043 145.84C242.321 145.365 232.743 143.294 223.693 139.71C217.083 137.06 211.233 133.05 205.333 129.12C201.713 126.72 197.873 124.63 194.033 122.59C192.664 121.881 191.154 121.484 189.613 121.43C186.843 121.34 185.723 122.83 186.563 125.43C187.27 127.292 188.099 129.106 189.043 130.86C189.633 132.08 190.353 133.25 190.863 134.5C191.169 135.221 191.238 136.021 191.058 136.784C190.878 137.546 190.459 138.232 189.863 138.74C189.32 139.307 188.605 139.679 187.829 139.797C187.053 139.914 186.259 139.771 185.573 139.39C184.273 138.76 183.063 137.94 181.803 137.23C179.613 136 177.453 134.65 174.913 134.34C174.241 134.927 173.797 135.732 173.66 136.613C173.522 137.495 173.701 138.397 174.163 139.16C175.123 141.02 176.146 142.84 177.233 144.62C178.173 146.16 179.333 147.62 180.233 149.15C180.701 149.881 180.911 150.748 180.83 151.612C180.75 152.477 180.383 153.29 179.789 153.922C179.194 154.555 178.405 154.971 177.548 155.104C176.69 155.238 175.812 155.082 175.053 154.66C174.003 154.13 173.113 153.32 172.113 152.66C169.803 151.25 167.493 149.82 165.113 148.52C164.013 148.1 162.874 147.792 161.713 147.6C162.083 148.886 162.541 150.146 163.083 151.37C165.337 155.539 168.461 159.174 172.243 162.03C174.423 163.66 176.583 165.33 178.633 167.11C178.996 167.443 179.432 167.686 179.907 167.818C180.381 167.95 180.88 167.968 181.363 167.87C184.153 167.49 186.943 167.18 189.743 166.87L236.473 160.99C243.473 160.1 250.473 159.26 257.533 158.25C260.713 157.79 262.453 158.68 262.963 161.87C263.413 164.73 263.563 167.64 263.863 170.53C263.993 171.76 264.133 172.98 264.283 174.27C265.203 174.27 265.833 174.27 266.453 174.27C270.253 174.05 274.063 173.86 277.873 173.58C278.907 173.456 279.956 173.614 280.908 174.037C281.86 174.459 282.68 175.13 283.283 175.98C284.733 177.81 286.593 179.22 289.223 178.1C289.898 177.859 290.586 177.655 291.283 177.49L290.133 168.78C289.89 168.625 289.636 168.488 289.373 168.37C288.843 168.24 288.303 168.15 287.773 168.03C280.173 166.35 274.653 162.03 271.503 154.88C270.843 153.39 270.283 151.88 269.753 150.31C267.613 144.15 267.753 137.62 266.693 131.31C266.432 129.788 266.255 128.252 266.163 126.71C266.033 123.71 267.513 121.63 269.733 121.4C271.953 121.17 273.613 122.74 273.993 125.96C274.603 130.96 275.223 136.06 275.763 141.11C276.159 145.094 277.263 148.974 279.023 152.57C279.917 154.573 281.312 156.311 283.075 157.616C284.837 158.921 286.907 159.749 289.083 160.02H289.093ZM50.433 195.86C50.263 193.71 50.153 191.86 49.953 190.11C49.493 185.88 50.843 184.02 55.113 183.47C64.113 182.3 73.113 181.22 82.113 180.11C95.3664 178.47 108.613 176.837 121.853 175.21C122.853 175.09 123.853 174.82 124.743 174.65C124.263 172.53 123.993 170.72 123.433 169.02C121.948 164.603 121.72 159.86 122.773 155.32C125.133 145 121.453 135.9 117.423 127.03C115.363 127.51 113.543 128.26 111.723 128.28C108.622 128.366 105.546 127.699 102.759 126.335C99.9721 124.971 97.5578 122.952 95.723 120.45C94.113 118.45 92.723 116.21 90.933 113.77L14.113 140.09C15.723 156.58 17.323 172.93 18.943 189.56C21.7338 187.389 23.9061 184.523 25.243 181.25C28.533 173.87 29.843 165.99 30.783 158.04C30.8804 156.701 30.7963 155.356 30.533 154.04C30.153 151.61 30.963 149.76 32.843 149.13C33.3388 148.957 33.8646 148.886 34.3886 148.922C34.9126 148.958 35.4238 149.1 35.8913 149.339C36.3588 149.579 36.7728 149.91 37.1083 150.314C37.4438 150.718 37.6937 151.186 37.843 151.69C38.4759 153.48 38.7676 155.373 38.703 157.27C38.2284 164.614 36.8273 171.868 34.533 178.86C32.043 186.66 28.113 193.5 21.023 198.07C20.6065 198.336 20.2851 198.727 20.1053 199.187C19.9256 199.647 19.8968 200.152 20.023 200.63C20.413 204.15 20.733 207.63 21.083 211.2C21.233 212.61 21.413 214.01 21.603 215.62L31.773 214.78C31.773 213.29 31.773 212.21 31.773 211.13C31.773 209.04 31.553 206.95 31.683 204.87C31.953 200.81 33.9931 198.63 38.0231 197.94C42.0531 197.25 46.083 196.59 50.423 195.86H50.433ZM162.243 211.93C177.423 209.84 192.383 208.01 207.473 205.78C206.303 194.63 205.163 183.87 203.813 172.9L158.563 178.53C159.793 189.81 160.993 200.68 162.233 211.93H162.243ZM107.033 184.93C108.153 196.43 109.233 207.49 110.343 218.86C125.173 216.86 139.743 215.04 154.473 212.86C153.233 201.52 152.043 190.59 150.823 179.43L107.033 184.93ZM255.733 166.5L211.643 171.96C212.893 183.08 214.083 193.78 215.323 204.84L258.663 199.04C257.713 188.07 256.713 177.45 255.713 166.48L255.733 166.5ZM57.8931 191C59.1431 202.77 60.323 214 61.543 225.43L102.543 219.91L99.253 185.91L57.8931 191ZM39.623 237.71L283.263 206.85V204.11C279.063 204.49 275.003 204.75 270.983 205.25C261.173 206.48 251.373 207.82 241.563 209.13L196.763 215.13L160.063 220.04C145.136 222.04 130.203 224.04 115.263 226.04C101.593 227.9 87.9331 229.82 74.2631 231.68C70.3931 232.2 66.523 232.75 62.633 233.04C55.853 233.55 49.053 233.87 42.253 234.27L38.953 234.44C39.173 235.52 39.353 236.38 39.613 237.69L39.623 237.71ZM115.173 81.5499C115.411 82.3664 115.823 83.1218 116.38 83.7639C116.938 84.4061 117.628 84.9199 118.403 85.27C119.753 86.01 121.123 86.72 122.533 87.35C123.7 87.859 124.723 88.6483 125.512 89.648C126.3 90.6476 126.83 91.8265 127.053 93.08C127.583 95.35 128.233 97.58 128.933 100.23C129.603 99.35 130.053 98.81 130.423 98.23C131.493 96.55 132.563 94.87 133.573 93.14C134.069 92.2188 134.756 91.4134 135.587 90.7772C136.418 90.1411 137.374 89.6887 138.393 89.45C142.393 88.53 145.393 86.11 148.183 83.35C150 81.7345 151.354 79.6632 152.103 77.35L115.173 81.5499ZM39.383 205.55C39.763 209.03 40.093 212.17 40.383 215.3L41.383 224.48C41.483 225.48 41.743 226.34 42.953 226.26C46.443 226.03 49.953 225.75 53.623 225.48C52.833 218 52.093 210.94 51.323 203.71L39.383 205.55ZM277.103 181.33C273.003 181.89 269.053 181.55 265.103 182.33C265.533 187.65 265.933 192.6 266.353 197.84C270.683 197.45 274.843 197.61 278.663 194.84C278.293 191.44 277.913 187.84 277.523 184.26C277.393 183.48 277.273 182.68 277.093 181.29L277.103 181.33Z" fill="#3558A2"/>
<path d="M2.16212 199.99C1.74247 200.942 1.17179 201.82 0.472114 202.59C-4.35788 206.84 -9.27787 210.98 -14.1979 215.13C-14.7626 215.577 -15.3891 215.941 -16.0579 216.21C-16.7963 216.572 -17.6345 216.678 -18.4399 216.511C-19.2454 216.344 -19.9722 215.914 -20.5055 215.287C-21.0389 214.661 -21.3484 213.875 -21.385 213.053C-21.4216 212.231 -21.1834 211.421 -20.7079 210.75C-20.3866 210.206 -19.9817 209.717 -19.5079 209.3C-15.1979 205.56 -10.8979 201.81 -6.50786 198.16C-5.33557 197.149 -3.97665 196.378 -2.50787 195.89C-0.107866 195.14 2.14212 196.92 2.16212 199.99Z" fill="#3558A2"/>
<path d="M300.452 93.3687C296.932 93.3687 295.112 90.2286 296.662 87.7286C297.317 86.7539 298.144 85.9067 299.102 85.2286C303.352 81.9886 307.642 78.8086 311.942 75.6486C314.002 74.1386 316.162 74.2485 317.582 75.8185C319.002 77.3885 318.852 79.6185 317.092 81.4285C316.002 82.5186 314.829 83.5217 313.582 84.4285C310.092 87.0186 306.582 89.5886 303.032 92.0886C302.214 92.5948 301.35 93.0234 300.452 93.3687Z" fill="#3558A2"/>
<path d="M166.092 140.309C165.38 140.268 164.672 140.181 163.972 140.049C158.332 138.489 152.972 144.669 154.382 149.949C154.975 152.228 155.876 154.415 157.062 156.449C159.592 160.88 162.993 164.751 167.062 167.829C167.482 168.139 167.872 168.509 168.802 169.289C156.462 170.969 144.662 172.419 133.072 173.739C132.372 171.469 131.822 169.579 131.202 167.739C129.889 164.224 129.618 160.405 130.422 156.739C132.232 149.249 131.422 141.909 128.882 134.74C126.992 129.35 124.822 124.039 122.502 118.829C120.746 114.82 118.139 111.241 114.862 108.34C112.808 106.455 110.338 105.083 107.653 104.334C104.968 103.585 102.144 103.481 99.4116 104.029C94.0643 105.022 88.7919 106.382 83.6317 108.1C70.0217 112.58 56.5016 117.33 42.9416 121.959C33.7483 125.086 24.555 128.193 15.3617 131.279C14.7717 131.479 14.1617 131.599 13.3617 131.809C12.1317 119.069 10.9116 106.469 9.68164 93.6795C13.1316 93.2395 16.1717 92.8196 19.2217 92.4696C31.8417 90.9896 44.4617 89.5296 57.0817 88.0896C72.8716 86.2896 88.6616 84.5596 104.442 82.7296C105.1 82.5511 105.803 82.6308 106.405 82.9522C107.007 83.2737 107.463 83.8128 107.682 84.4596C109.502 88.8396 112.872 91.5896 117.132 93.3596C117.848 93.6262 118.48 94.0807 118.96 94.6754C119.44 95.2701 119.752 95.9831 119.862 96.7396C120.542 99.8296 121.442 102.879 122.362 105.919C122.716 107.136 123.252 108.293 123.952 109.35C124.318 109.959 124.819 110.476 125.417 110.861C126.015 111.247 126.693 111.489 127.4 111.57C128.106 111.651 128.822 111.569 129.492 111.33C130.161 111.09 130.767 110.7 131.262 110.189C132.614 108.848 133.814 107.363 134.842 105.76C136.422 103.44 137.772 100.96 139.372 98.6496C139.958 97.7543 140.802 97.0571 141.792 96.6496C147.135 94.758 151.833 91.3913 155.342 86.9395C158.133 83.7357 160.334 80.0621 161.842 76.0896L277.332 62.8496C278.702 73.9596 280.032 84.7896 281.412 95.9796C279.992 95.7596 278.932 95.6895 277.922 95.4195C264.922 91.9595 252.002 88.4195 239.012 85.0295C227.252 81.9695 215.562 78.4796 203.422 77.3296C192.722 76.3296 183.052 78.5196 175.882 87.5896C170.982 93.7995 165.882 99.8496 162.832 107.25C161.832 109.6 161.042 112.009 160.302 114.439C159.354 117.301 159.16 120.359 159.738 123.317C160.316 126.275 161.647 129.035 163.602 131.329C165.002 133.079 166.232 134.719 165.762 137.159C165.719 138.22 165.83 139.281 166.092 140.309V140.309Z" fill="white"/>
<path d="M289.081 160.019C286.91 159.733 284.848 158.891 283.097 157.575C281.345 156.26 279.962 154.515 279.081 152.509C277.322 148.913 276.218 145.033 275.821 141.049C275.281 136.049 274.661 130.949 274.051 125.899C273.671 122.679 272.151 121.089 269.791 121.339C267.431 121.589 266.091 123.689 266.221 126.649C266.314 128.191 266.49 129.727 266.751 131.249C267.751 137.599 267.671 144.129 269.811 150.249C270.341 151.799 270.901 153.329 271.561 154.819C274.711 161.999 280.231 166.289 287.831 167.969C288.361 168.089 288.901 168.179 289.431 168.309C289.694 168.427 289.949 168.564 290.191 168.719L291.341 177.429C290.644 177.594 289.956 177.798 289.281 178.039C286.651 179.159 284.791 177.749 283.341 175.919C282.739 175.069 281.918 174.398 280.966 173.975C280.014 173.553 278.966 173.395 277.931 173.519C274.121 173.799 270.311 173.989 266.511 174.209C265.891 174.209 265.261 174.209 264.341 174.209C264.191 172.919 264.051 171.699 263.921 170.469C263.621 167.579 263.471 164.669 263.021 161.809C262.511 158.619 260.771 157.729 257.591 158.189C250.591 159.189 243.591 160.039 236.531 160.929L189.801 166.809C187.001 167.159 184.211 167.469 181.421 167.809C180.939 167.907 180.44 167.889 179.965 167.757C179.491 167.625 179.054 167.382 178.691 167.049C176.691 165.269 174.481 163.599 172.301 161.969C168.52 159.113 165.396 155.478 163.141 151.309C162.599 150.085 162.141 148.825 161.771 147.539C162.933 147.731 164.072 148.039 165.171 148.459C167.551 149.759 169.861 151.189 172.171 152.599C173.171 153.219 174.061 154.029 175.111 154.599C175.87 155.021 176.748 155.177 177.606 155.044C178.464 154.91 179.253 154.494 179.847 153.861C180.442 153.229 180.808 152.416 180.889 151.551C180.969 150.687 180.759 149.82 180.291 149.089C179.381 147.519 178.221 146.089 177.291 144.559C176.205 142.779 175.181 140.959 174.221 139.099C173.759 138.336 173.581 137.434 173.718 136.552C173.855 135.671 174.299 134.866 174.971 134.279C177.511 134.589 179.671 135.939 181.861 137.169C183.121 137.879 184.331 138.699 185.631 139.329C186.318 139.71 187.111 139.853 187.887 139.736C188.664 139.618 189.379 139.246 189.921 138.679C190.518 138.171 190.936 137.486 191.116 136.723C191.296 135.96 191.228 135.16 190.921 134.439C190.411 133.189 189.691 132.019 189.101 130.799C188.157 129.045 187.329 127.231 186.621 125.369C185.781 122.729 186.901 121.239 189.671 121.369C191.212 121.424 192.722 121.82 194.091 122.529C197.931 124.529 201.771 126.659 205.391 129.059C211.291 132.989 217.141 136.999 223.751 139.649C232.801 143.233 242.379 145.304 252.101 145.779C253.45 145.856 254.802 145.708 256.101 145.339C256.674 145.192 257.209 144.927 257.672 144.56C258.136 144.194 258.517 143.734 258.792 143.212C259.067 142.689 259.23 142.114 259.269 141.525C259.309 140.935 259.224 140.344 259.021 139.789C258.141 137.349 256.291 136.589 253.531 137.449C252.775 137.721 251.975 137.854 251.171 137.839C236.621 136.839 223.261 132.529 211.451 123.759C206.697 120.256 201.573 117.285 196.171 114.899C193.762 113.811 191.117 113.346 188.481 113.549C182.421 113.989 178.481 118.199 178.481 124.269V126.709C177.163 126.439 175.826 126.268 174.481 126.199C173.035 126.316 171.598 126.533 170.181 126.849C168.919 125.552 168.029 123.939 167.605 122.18C167.181 120.42 167.238 118.579 167.771 116.849C169.477 110.613 172.396 104.775 176.361 99.6691C177.451 98.2391 178.591 96.8492 179.641 95.5192C191.791 98.8592 199.641 95.4591 203.101 85.1191C205.401 85.4791 207.801 85.7691 210.161 86.2191C223.631 88.8091 236.771 92.6791 249.991 96.2191C259.281 98.7091 268.611 101.039 277.921 103.419C281.231 104.259 282.571 105.529 282.981 108.799C283.981 116.799 284.901 124.799 285.881 132.799C286.811 140.279 287.791 147.739 288.721 155.219C288.841 156.779 288.931 158.299 289.081 160.019ZM224.981 109.429C225.993 109.453 226.974 109.077 227.71 108.383C228.446 107.688 228.877 106.731 228.911 105.719C228.847 104.534 228.343 103.416 227.498 102.584C226.653 101.751 225.527 101.265 224.341 101.219C223.821 101.204 223.304 101.294 222.819 101.483C222.334 101.672 221.892 101.956 221.519 102.319C221.146 102.682 220.85 103.115 220.648 103.595C220.445 104.074 220.341 104.589 220.341 105.109C220.408 106.289 220.929 107.397 221.793 108.202C222.658 109.007 223.8 109.446 224.981 109.429V109.429ZM241.381 116.189C242.435 116.137 243.428 115.682 244.156 114.918C244.883 114.154 245.289 113.139 245.289 112.084C245.289 111.029 244.883 110.015 244.156 109.25C243.428 108.486 242.435 108.031 241.381 107.979C240.858 107.967 240.337 108.06 239.85 108.253C239.364 108.446 238.921 108.735 238.547 109.102C238.174 109.47 237.879 109.909 237.679 110.392C237.478 110.876 237.377 111.395 237.381 111.919C237.377 113.007 237.789 114.055 238.532 114.849C239.276 115.643 240.296 116.123 241.381 116.189V116.189Z" fill="white"/>
<path d="M50.4228 195.859C46.0828 196.579 42.0528 197.209 38.0428 197.859C34.0328 198.509 31.9728 200.729 31.7028 204.789C31.5728 206.869 31.7628 208.959 31.7928 211.049C31.7928 212.129 31.7928 213.209 31.7928 214.699L21.6228 215.539C21.4328 213.929 21.2528 212.54 21.1028 211.12C20.7528 207.6 20.4328 204.119 20.0428 200.549C19.9166 200.072 19.9454 199.566 20.1252 199.106C20.3049 198.646 20.6263 198.255 21.0428 197.99C28.1328 193.42 32.0429 186.579 34.5529 178.779C36.8472 171.787 38.2483 164.533 38.7228 157.189C38.7874 155.292 38.4957 153.399 37.8629 151.609C37.7136 151.106 37.4636 150.638 37.1281 150.234C36.7926 149.83 36.3786 149.498 35.9111 149.259C35.4436 149.019 34.9324 148.877 34.4084 148.841C33.8845 148.805 33.3587 148.876 32.8629 149.049C30.9829 149.679 30.1729 151.529 30.5529 153.959C30.8162 155.275 30.9003 156.621 30.8029 157.959C29.8629 165.959 28.5528 173.789 25.2628 181.169C23.9259 184.443 21.7536 187.308 18.9628 189.479C17.3428 172.849 15.7428 156.48 14.1328 140.01L90.9528 113.689C92.6928 116.129 94.1329 118.32 95.7429 120.37C97.5776 122.871 99.992 124.891 102.779 126.255C105.566 127.618 108.641 128.286 111.743 128.199C113.563 128.199 115.383 127.429 117.443 126.949C121.443 135.819 125.153 144.95 122.793 155.24C121.739 159.779 121.968 164.522 123.453 168.939C124.013 170.639 124.283 172.449 124.763 174.569C123.893 174.739 122.893 175.01 121.873 175.13C108.626 176.783 95.3795 178.416 82.1329 180.029C73.1329 181.139 64.1329 182.22 55.1329 183.39C50.8629 183.94 49.5128 185.799 49.9728 190.029C50.1428 191.899 50.2528 193.709 50.4228 195.859ZM66.3328 142.49C63.6028 142.56 61.1228 144.789 61.2128 147.109C61.3334 148.197 61.8614 149.199 62.6907 149.913C63.5201 150.628 64.5891 151.002 65.6828 150.959C66.9153 150.923 68.0831 150.399 68.9304 149.503C69.7776 148.607 70.2351 147.412 70.2028 146.179C70.1938 145.682 70.0862 145.192 69.8863 144.736C69.6864 144.281 69.3981 143.87 69.0381 143.527C68.6782 143.183 68.2537 142.915 67.7894 142.737C67.325 142.559 66.8299 142.475 66.3328 142.49V142.49ZM89.4828 137.969C89.4803 137.384 89.3614 136.805 89.1331 136.266C88.9048 135.726 88.5717 135.238 88.153 134.828C87.7343 134.419 87.2385 134.097 86.6943 133.881C86.1501 133.665 85.5683 133.559 84.9828 133.569C84.4655 133.576 83.9545 133.685 83.4794 133.89C83.0043 134.095 82.5745 134.392 82.2148 134.763C81.855 135.135 81.5724 135.575 81.3832 136.056C81.1941 136.538 81.1023 137.052 81.1129 137.569C81.0995 138.754 81.556 139.896 82.3825 140.745C83.209 141.594 84.3382 142.081 85.5229 142.099C86.0621 142.116 86.5987 142.02 87.0982 141.816C87.5977 141.612 88.0487 141.305 88.4221 140.916C88.7954 140.526 89.0828 140.063 89.2656 139.555C89.4483 139.048 89.5223 138.508 89.4828 137.969V137.969Z" fill="white"/>
<path d="M162.233 211.93C160.993 200.68 159.793 189.81 158.553 178.53L203.803 172.9C205.153 183.9 206.293 194.63 207.463 205.78C192.373 208.01 177.413 209.84 162.233 211.93Z" fill="#979FBB"/>
<path d="M107.021 184.909L150.811 179.459C152.031 190.619 153.221 201.549 154.461 212.889C139.731 215.019 125.161 216.889 110.331 218.889C109.221 207.469 108.141 196.409 107.021 184.909Z" fill="#979FBB"/>
<path d="M255.713 166.479C256.713 177.479 257.713 188.069 258.643 199.019L215.303 204.819C214.063 193.759 212.873 183.059 211.623 171.938L255.713 166.479Z" fill="#979FBB"/>
<path d="M57.8828 190.979L99.2827 185.859L102.573 219.859L61.5728 225.379C60.3128 213.969 59.1328 202.749 57.8828 190.979Z" fill="#979FBB"/>
<path d="M39.6134 237.69C39.3534 236.38 39.1734 235.52 38.9434 234.41L42.2434 234.24C49.0434 233.84 55.8434 233.52 62.6234 233.01C66.5134 232.72 70.3834 232.17 74.2534 231.65C87.9234 229.79 101.583 227.87 115.253 226.01C130.18 224.01 145.113 222.01 160.053 220.01L196.753 215.1L241.553 209.1C251.363 207.79 261.163 206.45 270.973 205.22C274.973 204.72 279.053 204.46 283.253 204.08V206.82L39.6134 237.69Z" fill="#979FBB"/>
<path d="M115.162 81.5288L152.092 77.2988C151.343 79.6121 149.99 81.6834 148.172 83.2988C145.392 86.0588 142.352 88.4789 138.382 89.3989C137.363 89.6377 136.407 90.0899 135.576 90.7261C134.745 91.3622 134.058 92.1676 133.562 93.0889C132.562 94.8189 131.482 96.4988 130.412 98.1788C130.042 98.7588 129.592 99.2988 128.922 100.179C128.222 97.5288 127.572 95.2988 127.042 93.0288C126.819 91.7753 126.29 90.5964 125.501 89.5968C124.712 88.5972 123.689 87.8078 122.522 87.2988C121.112 86.6688 119.742 85.9589 118.392 85.2189C117.62 84.8719 116.932 84.3627 116.375 83.726C115.817 83.0892 115.404 82.3398 115.162 81.5288V81.5288Z" fill="white"/>
<path d="M39.373 205.51L51.313 203.67C52.083 210.9 52.823 217.96 53.613 225.44C49.913 225.71 46.433 225.99 42.943 226.22C41.733 226.3 41.473 225.41 41.373 224.44L40.373 215.26C40.083 212.13 39.713 208.99 39.373 205.51Z" fill="#979FBB"/>
<path d="M277.093 181.289C277.273 182.679 277.393 183.479 277.483 184.289C277.873 187.879 278.253 191.469 278.623 194.869C274.803 197.589 270.622 197.429 266.312 197.869C265.893 192.629 265.493 187.679 265.062 182.359C269.043 181.509 272.993 181.849 277.093 181.289Z" fill="#979FBB"/>
<path d="M224.983 109.43C223.795 109.458 222.642 109.023 221.769 108.217C220.896 107.411 220.37 106.297 220.303 105.11C220.303 104.59 220.407 104.075 220.609 103.596C220.811 103.117 221.108 102.683 221.481 102.32C221.854 101.957 222.296 101.673 222.78 101.484C223.265 101.295 223.783 101.206 224.303 101.22C225.488 101.266 226.614 101.753 227.459 102.585C228.305 103.417 228.809 104.536 228.873 105.72C228.839 106.725 228.412 107.676 227.685 108.369C226.958 109.063 225.988 109.444 224.983 109.43Z" fill="#3558A2"/>
<path d="M241.383 116.19C240.297 116.123 239.278 115.644 238.534 114.85C237.79 114.056 237.378 113.008 237.383 111.92C237.379 111.396 237.48 110.877 237.68 110.393C237.88 109.909 238.176 109.47 238.549 109.103C238.922 108.735 239.365 108.447 239.852 108.254C240.339 108.061 240.859 107.967 241.383 107.98C242.437 108.032 243.43 108.487 244.157 109.251C244.885 110.015 245.29 111.03 245.29 112.085C245.29 113.14 244.885 114.154 244.157 114.918C243.43 115.682 242.437 116.138 241.383 116.19V116.19Z" fill="#3558A2"/>
<path d="M66.3314 142.49C66.8285 142.475 67.3235 142.559 67.7879 142.737C68.2523 142.915 68.6767 143.184 69.0367 143.527C69.3966 143.87 69.6849 144.281 69.8848 144.737C70.0847 145.192 70.1923 145.683 70.2013 146.18C70.2336 147.413 69.7761 148.608 68.9289 149.504C68.0817 150.4 66.9139 150.923 65.6813 150.96C64.5876 151.002 63.5186 150.628 62.6893 149.914C61.8599 149.2 61.3319 148.198 61.2114 147.11C61.1214 144.79 63.6014 142.59 66.3314 142.49Z" fill="#3558A2"/>
<path d="M89.4831 137.969C89.5276 138.513 89.4558 139.06 89.2727 139.574C89.0896 140.088 88.7994 140.558 88.4211 140.951C88.0429 141.345 87.5853 141.653 87.0788 141.856C86.5723 142.059 86.0284 142.152 85.4831 142.129C84.2984 142.111 83.1692 141.624 82.3427 140.775C81.5162 139.926 81.0597 138.784 81.0731 137.599C81.0625 137.082 81.1545 136.568 81.3436 136.086C81.5327 135.604 81.8153 135.165 82.175 134.793C82.5348 134.421 82.9646 134.125 83.4397 133.92C83.9148 133.715 84.4257 133.606 84.9431 133.599C85.5294 133.583 86.113 133.684 86.6599 133.896C87.2068 134.108 87.7061 134.426 88.1286 134.833C88.5512 135.24 88.8885 135.727 89.1211 136.265C89.3536 136.803 89.4767 137.383 89.4831 137.969V137.969Z" fill="#3558A2"/>
</g>
<defs>
<clipPath id="clip0_1_8400">
<rect width="300" height="300" fill="white"/>
</clipPath>
</defs>
</svg>
