<svg width="300" height="300" viewBox="0 0 300 300" fill="none" xmlns="http://www.w3.org/2000/svg">
<path d="M178.799 94.9649C182.129 96.8949 185.399 98.6549 188.519 100.645C194.278 104.291 199.397 108.863 203.669 114.175C206.126 116.942 208.395 119.872 210.459 122.945C217.616 134.455 220.945 147.936 219.969 161.455C219.125 175.65 213.357 189.106 203.659 199.505C201.829 201.505 199.809 203.315 197.859 205.245C198.679 207.355 199.579 209.245 200.169 211.245C201.169 214.535 202.059 217.865 202.799 221.245C203.12 222.446 203.055 223.719 202.614 224.882C202.173 226.045 201.376 227.039 200.339 227.725C198.524 229.072 196.574 230.225 194.519 231.165C191.579 232.415 188.889 231.465 186.929 229.095C184.789 226.515 182.929 223.725 180.989 220.975C180.109 219.725 179.399 218.355 178.469 216.805C154.642 224.591 132.419 221.305 111.799 206.945C110.679 208.025 109.659 209.035 108.599 210.005C105.919 212.445 103.339 215.005 100.499 217.265C94.2586 222.195 88.5986 219.395 84.4986 214.315C83.7353 213.324 83.2873 212.128 83.2124 210.879C83.1375 209.631 83.4392 208.389 84.0786 207.315C85.9008 203.975 87.9038 200.737 90.0786 197.615C91.7686 195.155 93.7686 192.915 95.7586 190.415C95.0786 189.195 94.4586 188.005 93.7586 186.865C85.9286 173.865 82.7586 159.785 84.7586 144.865C87.5186 124.425 98.1286 108.925 115.759 98.2749C122.166 94.4346 129.222 91.8011 136.579 90.5049C137.247 90.4426 137.884 90.1913 138.416 89.7806C138.947 89.3698 139.35 88.8163 139.579 88.1849C140.319 86.3349 141.259 84.5649 142.119 82.7649C144.319 78.1249 147.939 75.7649 153.119 75.7649C154.549 75.7649 156.309 76.0949 157.319 75.4049C158.159 74.8349 158.079 72.9649 158.449 71.6849C158.649 70.8867 159.121 70.1829 159.783 69.694C160.445 69.2051 161.257 68.9616 162.079 69.0049C162.904 69.0731 163.682 69.4216 164.282 69.9928C164.883 70.5641 165.27 71.3235 165.379 72.1449C165.471 73.6102 165.471 75.0797 165.379 76.5449C166.449 76.9602 167.549 77.2945 168.669 77.5449C177.569 78.9849 180.399 88.0549 178.799 94.9649ZM150.399 96.3249C135.319 96.5349 122.149 100.885 111.059 110.475C96.3487 123.185 89.6586 139.475 91.8486 158.765C94.4286 181.505 106.849 197.765 127.399 207.525C143.979 215.445 161.089 215.935 178.079 208.765C194.289 201.925 205.309 190.035 210.489 173.115C214.249 160.927 213.637 147.809 208.759 136.025C205.989 128.613 201.74 121.842 196.269 116.125C190.33 109.932 183.212 104.99 175.334 101.59C167.457 98.1896 158.979 96.3995 150.399 96.3249V96.3249ZM172.209 92.6849C171.879 90.8849 171.639 89.6849 171.449 88.5849C171.335 87.6739 170.944 86.8198 170.328 86.1383C169.713 85.4569 168.903 84.9809 168.009 84.7749C163.212 83.3992 158.225 82.8016 153.239 83.0049C149.809 83.1949 148.239 85.0049 147.729 89.0049C156.033 88.9073 164.3 90.1499 172.209 92.6849V92.6849ZM100.369 196.255C97.1086 200.395 93.7886 204.085 91.3686 208.465C90.8886 209.335 90.5087 210.255 91.5287 211.155C92.9287 212.375 93.9587 212.755 95.1687 211.975C99.2109 209.214 102.823 205.871 105.889 202.055L100.369 196.255ZM191.579 209.995L185.269 213.715C187.205 217.519 189.614 221.064 192.439 224.265C193.599 223.185 195.579 223.265 195.439 221.465C194.935 217.421 193.622 213.52 191.579 209.995V209.995Z" fill="#3558A2"/>
<path d="M95.9674 102.135C95.5443 103.072 94.947 103.92 94.2074 104.635C88.0474 109.075 84.6574 115.455 81.7374 122.145C80.5774 124.795 79.7374 127.585 78.8274 130.335C77.9174 133.085 76.1074 134.575 73.9574 133.995C71.8074 133.415 70.8175 131.185 71.6975 128.375C74.6175 119.045 78.3974 110.115 85.2474 102.895C86.9326 101.129 88.9078 99.664 91.0874 98.5647C93.5174 97.3447 95.8874 98.9847 95.9674 102.135Z" fill="#3558A2"/>
<path d="M64.5081 124.465C62.2481 124.465 60.618 122.525 61.078 119.955C61.4959 117.64 62.1116 115.365 62.9181 113.155C65.139 106.609 68.8065 100.648 73.6481 95.7148C75.2394 94.2463 76.9085 92.8643 78.6481 91.5748C79.153 91.1924 79.7172 90.8952 80.3181 90.6948C81.034 90.3963 81.8261 90.3323 82.5807 90.5119C83.3353 90.6916 84.0135 91.1057 84.5181 91.6948C84.9522 92.3913 85.1353 93.2151 85.0371 94.0299C84.9389 94.8447 84.5652 95.6014 83.978 96.1748C83.6074 96.5706 83.1988 96.9289 82.7581 97.2448C75.4581 102.795 71.1581 110.245 68.7581 118.965C68.4681 120.015 68.268 121.095 67.878 122.105C67.6401 122.805 67.1851 123.412 66.5791 123.836C65.9731 124.26 65.2477 124.481 64.5081 124.465V124.465Z" fill="#3558A2"/>
<path d="M230.418 120.915C230.418 122.915 229.528 124.345 228.198 124.765C227.51 125.034 226.755 125.082 226.038 124.903C225.322 124.723 224.678 124.326 224.198 123.765C223.649 123.044 223.179 122.266 222.798 121.445C220.098 116.515 217.368 111.585 213.118 107.765C211.578 106.375 209.908 105.125 208.308 103.765C207.505 103.179 206.767 102.508 206.108 101.765C205.596 101.119 205.324 100.316 205.336 99.492C205.349 98.6682 205.646 97.8741 206.178 97.2445C206.68 96.6451 207.379 96.2428 208.149 96.1092C208.92 95.9756 209.713 96.1192 210.388 96.5145C212.506 97.7157 214.513 99.101 216.388 100.655C222.228 105.655 226.228 111.965 229.578 118.755C229.911 119.453 230.192 120.175 230.418 120.915V120.915Z" fill="#3558A2"/>
<path d="M218.387 87.2845C219.106 87.5118 219.797 87.8205 220.447 88.2045C227.76 93.1947 233.641 100.01 237.507 107.974C237.875 108.8 238.072 109.691 238.087 110.594C238.062 111.226 237.862 111.839 237.51 112.364C237.157 112.889 236.665 113.305 236.089 113.567C235.513 113.828 234.876 113.924 234.249 113.844C233.622 113.765 233.029 113.512 232.537 113.114C231.708 112.281 231.001 111.335 230.437 110.304C227.211 104.176 222.644 98.854 217.077 94.7345C216.181 94.1166 215.417 93.3282 214.827 92.4145C213.437 90.0545 215.207 87.2145 218.387 87.2845Z" fill="#3558A2"/>
<path d="M150.398 96.3262C158.978 96.4007 167.456 98.1908 175.334 101.591C183.211 104.992 190.329 109.934 196.268 116.126C201.739 121.843 205.989 128.614 208.758 136.026C213.637 147.811 214.248 160.929 210.488 173.116C205.308 190.036 194.288 201.926 178.078 208.766C161.078 215.936 143.978 215.446 127.398 207.526C106.898 197.726 94.3981 181.526 91.8481 158.766C89.6581 139.516 96.3482 123.186 111.058 110.476C122.148 100.886 135.318 96.5362 150.398 96.3262ZM205.688 155.226C205.785 148.015 204.291 140.872 201.313 134.304C198.335 127.736 193.946 121.905 188.458 117.226C176.028 105.986 161.148 101.676 144.778 104.586C122.378 108.586 107.778 121.846 102.008 144.016C99.1573 154.863 100.304 166.374 105.238 176.446C108.124 182.797 112.301 188.477 117.502 193.125C122.703 197.774 128.815 201.289 135.448 203.446C149.908 208.446 164.238 207.556 177.688 200.316C195.518 190.756 204.798 175.496 205.688 155.226Z" fill="#979FBB"/>
<path d="M172.208 92.6849C164.298 90.1567 156.032 88.9209 147.729 89.0249C148.209 85.025 149.809 83.1951 153.239 83.0251C158.225 82.8218 163.211 83.4194 168.009 84.7951C168.903 85.0011 169.713 85.477 170.328 86.1585C170.944 86.8399 171.335 87.6939 171.449 88.605C171.639 89.7349 171.888 90.8849 172.208 92.6849Z" fill="#EAECF1"/>
<path d="M100.368 196.256L105.888 202.056C102.821 205.877 99.2048 209.223 95.1584 211.986C93.9484 212.766 92.9184 212.386 91.5184 211.166C90.5184 210.266 90.8783 209.346 91.3583 208.476C93.7883 204.056 97.1083 200.396 100.368 196.256Z" fill="white"/>
<path d="M191.579 209.994C193.605 213.523 194.9 217.424 195.389 221.464C195.579 223.244 193.599 223.184 192.389 224.264C189.564 221.064 187.155 217.519 185.219 213.714L191.579 209.994Z" fill="white"/>
<path d="M205.687 155.224C204.797 175.494 195.517 190.754 177.687 200.364C164.237 207.604 149.907 208.474 135.447 203.494C128.814 201.336 122.702 197.821 117.501 193.173C112.3 188.525 108.123 182.844 105.237 176.494C100.303 166.422 99.1564 154.911 102.007 144.064C107.807 121.894 122.377 108.634 144.777 104.634C161.147 101.724 176.027 106.034 188.457 117.274C193.945 121.953 198.334 127.784 201.312 134.351C204.29 140.919 205.784 148.063 205.687 155.274V155.224ZM198.187 155.134C197.687 151.644 197.457 148.084 196.647 144.664C194.807 136.874 191.367 129.764 185.647 124.094C177.924 116.26 167.673 111.417 156.717 110.424C137.467 108.424 116.717 120.124 109.947 139.654C105.947 151.044 106.397 162.154 111.477 172.994C120.037 191.264 139.197 201.304 159.477 198.404C169.981 196.88 179.614 191.71 186.691 183.8C193.768 175.889 197.837 165.742 198.187 155.134V155.134Z" fill="#3558A2"/>
<path d="M198.189 155.135C197.84 165.74 193.773 175.885 186.701 183.795C179.628 191.705 169.999 196.876 159.499 198.405C139.219 201.305 120.059 191.265 111.499 172.995C106.419 162.155 105.999 150.995 109.969 139.655C116.779 120.125 137.489 108.455 156.739 110.425C167.69 111.406 177.939 116.235 185.669 124.055C191.369 129.725 194.809 136.835 196.669 144.625C197.459 148.055 197.689 151.645 198.189 155.135ZM156.599 139.135C156.884 140.672 157.282 142.186 157.789 143.665C158.163 144.558 158.863 145.277 159.747 145.674C160.63 146.072 161.632 146.118 162.549 145.805C164.489 145.155 165.219 143.575 164.719 141.195C164.459 139.955 164.329 138.685 164.029 137.455C163.489 135.165 162.959 132.865 162.229 130.625C161.709 129.025 160.629 127.505 158.909 127.295C154.387 126.791 149.813 127.542 145.689 129.465C145.042 129.824 144.541 130.4 144.276 131.091C144.011 131.782 143.998 132.545 144.239 133.245C144.439 133.947 144.855 134.569 145.427 135.023C145.999 135.477 146.699 135.74 147.429 135.775C148.039 135.835 148.669 135.775 149.649 135.775C149.099 136.715 148.709 137.395 148.299 138.045C146.029 141.655 143.729 145.245 141.499 148.875C139.979 151.355 139.989 152.525 141.869 154.775C143.394 156.577 145.066 158.25 146.869 159.775C152.179 164.315 157.579 168.775 162.869 173.245C163.314 173.715 163.712 174.228 164.059 174.775C163.319 175.065 162.809 175.225 162.319 175.445C160.149 176.445 159.149 178.295 159.689 180.225C160.229 182.155 161.829 183.145 164.259 182.615C167.879 181.835 171.439 180.725 174.969 179.615C175.735 179.415 176.411 178.963 176.888 178.331C177.365 177.7 177.616 176.926 177.599 176.135C177.422 172.613 177.045 169.104 176.469 165.625C176.315 164.801 175.845 164.071 175.159 163.59C174.473 163.11 173.625 162.917 172.799 163.055C170.989 163.205 169.799 164.415 169.549 166.475C169.449 167.225 169.429 167.975 169.359 168.925L148.479 151.535C151.139 147.175 153.379 142.975 156.599 139.115V139.135ZM115.979 159.195C116.476 159.174 116.963 159.052 117.412 158.837C117.861 158.622 118.261 158.319 118.589 157.945C118.917 157.571 119.166 157.135 119.321 156.662C119.476 156.189 119.533 155.69 119.489 155.195C119.389 154.205 118.925 153.287 118.185 152.621C117.445 151.956 116.484 151.59 115.489 151.595C114.993 151.623 114.508 151.749 114.061 151.965C113.614 152.182 113.214 152.485 112.885 152.857C112.556 153.229 112.304 153.662 112.143 154.132C111.983 154.602 111.917 155.099 111.949 155.595C112.073 156.578 112.549 157.484 113.291 158.142C114.032 158.801 114.987 159.168 115.979 159.175V159.195ZM161.699 117.195C161.661 116.283 161.279 115.42 160.629 114.779C159.98 114.139 159.111 113.769 158.199 113.745C157.199 113.807 156.259 114.242 155.565 114.964C154.87 115.687 154.472 116.643 154.449 117.645C154.457 118.118 154.558 118.586 154.748 119.02C154.938 119.454 155.212 119.846 155.554 120.173C155.896 120.5 156.3 120.757 156.742 120.927C157.184 121.097 157.656 121.178 158.129 121.165C158.633 121.153 159.13 121.038 159.588 120.826C160.046 120.614 160.455 120.31 160.79 119.932C161.125 119.555 161.379 119.113 161.535 118.633C161.691 118.154 161.747 117.647 161.699 117.145V117.195ZM192.599 157.555C192.585 157.104 192.481 156.66 192.292 156.25C192.103 155.84 191.833 155.473 191.499 155.17C191.165 154.866 190.773 154.633 190.347 154.485C189.921 154.336 189.469 154.275 189.019 154.305C188.112 154.361 187.265 154.775 186.663 155.456C186.061 156.136 185.754 157.028 185.809 157.935C185.859 158.835 186.265 159.679 186.938 160.28C187.61 160.881 188.494 161.19 189.394 161.14C190.294 161.089 191.138 160.683 191.739 160.011C192.34 159.339 192.649 158.455 192.599 157.555V157.555ZM148.599 188.715C148.656 187.846 148.376 186.99 147.817 186.323C147.258 185.656 146.464 185.231 145.599 185.135C144.933 185.065 144.262 185.195 143.671 185.509C143.08 185.823 142.596 186.307 142.281 186.898C141.967 187.489 141.836 188.16 141.906 188.826C141.975 189.491 142.242 190.121 142.672 190.634C143.102 191.147 143.676 191.52 144.319 191.705C144.962 191.89 145.646 191.879 146.283 191.673C146.92 191.466 147.48 191.075 147.893 190.548C148.306 190.021 148.551 189.382 148.599 188.715V188.715Z" fill="white"/>
<path d="M156.598 139.116C153.378 142.976 151.138 147.176 148.478 151.506L169.358 168.896C169.428 167.896 169.448 167.196 169.548 166.446C169.818 164.386 170.988 163.175 172.798 163.025C173.625 162.888 174.472 163.081 175.158 163.561C175.844 164.042 176.315 164.772 176.468 165.595C177.044 169.074 177.422 172.583 177.598 176.105C177.615 176.897 177.365 177.671 176.887 178.302C176.41 178.933 175.734 179.386 174.968 179.585C171.438 180.715 167.878 181.825 164.258 182.585C161.828 183.115 160.258 182.035 159.688 180.195C159.118 178.355 160.148 176.435 162.318 175.415C162.808 175.195 163.318 175.035 164.058 174.745C163.712 174.198 163.313 173.686 162.868 173.215C157.528 168.715 152.128 164.286 146.868 159.746C145.066 158.221 143.393 156.548 141.868 154.746C139.988 152.496 139.978 151.326 141.498 148.846C143.728 145.216 146.028 141.626 148.298 138.016C148.708 137.366 149.098 136.686 149.648 135.746C148.648 135.746 148.038 135.746 147.428 135.746C146.699 135.711 145.998 135.448 145.426 134.994C144.854 134.54 144.438 133.918 144.238 133.216C143.997 132.516 144.01 131.753 144.276 131.062C144.541 130.371 145.041 129.795 145.688 129.436C149.812 127.513 154.386 126.762 158.908 127.266C160.628 127.476 161.708 128.996 162.228 130.596C162.958 132.836 163.488 135.136 164.028 137.426C164.328 138.656 164.458 139.926 164.718 141.166C165.218 143.546 164.488 145.166 162.548 145.776C161.631 146.089 160.63 146.042 159.746 145.645C158.862 145.248 158.162 144.529 157.788 143.636C157.282 142.16 156.884 140.649 156.598 139.116V139.116Z" fill="#3558A2"/>
<path d="M115.978 159.174C114.978 159.174 114.013 158.808 113.265 158.145C112.517 157.481 112.038 156.567 111.918 155.574C111.886 155.079 111.952 154.582 112.112 154.112C112.273 153.642 112.525 153.208 112.854 152.836C113.184 152.465 113.583 152.161 114.03 151.945C114.477 151.728 114.962 151.602 115.458 151.574C116.453 151.569 117.414 151.935 118.154 152.601C118.894 153.267 119.359 154.184 119.458 155.174C119.502 155.667 119.446 156.164 119.293 156.635C119.14 157.106 118.894 157.541 118.569 157.915C118.244 158.288 117.847 158.592 117.402 158.809C116.957 159.025 116.473 159.149 115.978 159.174Z" fill="#3558A2"/>
<path d="M161.699 117.145C161.745 117.645 161.687 118.15 161.529 118.627C161.371 119.104 161.117 119.544 160.782 119.919C160.448 120.294 160.039 120.597 159.583 120.807C159.127 121.018 158.632 121.133 158.129 121.145C157.656 121.158 157.184 121.077 156.742 120.907C156.3 120.737 155.896 120.48 155.554 120.153C155.212 119.826 154.938 119.434 154.748 119C154.559 118.566 154.457 118.098 154.449 117.625C154.472 116.623 154.87 115.667 155.565 114.944C156.259 114.222 157.199 113.787 158.199 113.725C159.106 113.749 159.971 114.114 160.62 114.749C161.269 115.383 161.654 116.238 161.699 117.145V117.145Z" fill="#3558A2"/>
<path d="M192.597 157.505C192.622 157.951 192.559 158.398 192.411 158.819C192.264 159.24 192.035 159.629 191.737 159.962C191.439 160.295 191.079 160.566 190.677 160.759C190.274 160.953 189.838 161.065 189.392 161.09C188.946 161.115 188.5 161.052 188.078 160.905C187.657 160.757 187.269 160.528 186.936 160.23C186.603 159.933 186.332 159.572 186.138 159.17C185.944 158.768 185.832 158.331 185.807 157.885C185.752 156.979 186.059 156.087 186.661 155.406C187.263 154.726 188.11 154.312 189.017 154.255C189.467 154.226 189.919 154.287 190.345 154.435C190.771 154.584 191.163 154.817 191.497 155.12C191.831 155.424 192.101 155.791 192.29 156.201C192.479 156.611 192.583 157.054 192.597 157.505Z" fill="#3558A2"/>
<path d="M148.618 188.665C148.56 189.315 148.311 189.933 147.902 190.441C147.493 190.949 146.943 191.325 146.32 191.521C145.698 191.716 145.031 191.723 144.405 191.54C143.779 191.356 143.221 190.992 142.802 190.492C142.383 189.992 142.121 189.379 142.051 188.73C141.98 188.081 142.103 187.426 142.404 186.848C142.706 186.269 143.172 185.793 143.744 185.479C144.316 185.165 144.968 185.028 145.618 185.085C146.483 185.181 147.277 185.606 147.836 186.273C148.395 186.94 148.675 187.797 148.618 188.665V188.665Z" fill="#3558A2"/>
</svg>
