<svg width="300" height="300" viewBox="0 0 300 300" fill="none" xmlns="http://www.w3.org/2000/svg">
<path d="M118.722 171.354C117.092 171.354 115.662 171.354 114.232 171.354C110.552 171.354 108.622 169.564 109.062 165.974C109.682 160.974 110.702 155.974 111.652 150.974C111.813 150.202 112.175 149.487 112.702 148.9C113.229 148.313 113.902 147.877 114.652 147.634C116.242 147.064 116.652 145.984 116.802 144.554C117.222 141.134 117.662 137.714 118.162 134.304C118.412 132.604 118.872 130.934 119.162 129.234C119.702 126.044 121.792 124.634 124.772 124.234C127.752 123.834 130.512 123.354 133.402 123.064C142.972 122.124 152.542 121.244 162.112 120.344C162.842 120.284 163.572 120.344 164.292 120.234C167.292 119.894 169.362 121.234 170.852 123.684C174.312 129.434 177.852 135.144 179.972 141.604C180.552 141.694 181.082 141.804 181.612 141.874C182.8 141.949 183.942 142.367 184.898 143.077C185.855 143.787 186.585 144.758 187.002 145.874C188.442 149.784 189.792 153.734 190.892 157.744C191.732 160.744 190.472 162.524 187.362 163.374C186.242 163.674 185.082 163.844 183.842 164.094C183.842 166.964 183.772 169.744 183.842 172.524C184.132 183.124 184.472 193.734 184.792 204.334C185.092 214.474 185.388 224.621 185.682 234.774C185.682 235.584 185.682 236.404 185.682 237.214C185.701 238.092 185.412 238.948 184.863 239.634C184.315 240.32 183.542 240.79 182.682 240.964C181.205 241.395 179.697 241.709 178.172 241.904C166.702 242.954 155.172 243.904 143.742 244.904C142.743 244.984 141.74 244.984 140.742 244.904C139.777 244.881 138.845 244.554 138.076 243.971C137.308 243.387 136.743 242.577 136.462 241.654C136.072 240.544 135.792 239.394 135.462 238.254C133.282 230.254 130.972 222.254 128.982 214.124C125.662 200.664 122.562 187.124 119.362 173.644C119.152 172.844 118.912 172.084 118.722 171.354ZM126.062 170.354C126.392 171.884 126.582 172.954 126.862 173.994C130.232 186.594 132.522 199.464 136.432 211.934C138.812 219.554 140.532 227.374 142.572 235.104C143.202 237.504 143.232 237.544 145.722 237.344C153.592 236.694 161.462 236.004 169.332 235.344L177.682 234.604C177.682 233.464 177.682 232.604 177.682 231.704C177.472 225.544 177.162 219.374 177.062 213.204C177.012 210.204 177.442 207.104 177.442 204.054C177.442 200.254 177.232 196.444 177.102 192.644C177.102 191.504 176.992 190.364 176.942 189.504C174.942 188.894 173.352 188.364 171.712 187.924C171.28 187.849 170.836 187.923 170.452 188.134C169.288 188.829 167.952 189.183 166.597 189.152C165.242 189.122 163.923 188.71 162.792 187.964C162.581 188.045 162.378 188.142 162.182 188.254C157.312 192.184 150.842 189.484 150.022 182.014C149.927 181.193 150.11 180.364 150.541 179.659C150.972 178.954 151.628 178.413 152.402 178.124C153.231 177.853 154.131 177.895 154.932 178.241C155.733 178.587 156.38 179.214 156.752 180.004C157.122 180.664 157.392 181.384 157.632 181.914C159.332 180.824 160.782 179.524 162.482 178.914C164.602 178.124 165.862 180.114 167.272 181.224C171.322 178.574 171.322 178.574 176.702 181.784C176.842 176.114 176.572 170.674 176.352 164.884L126.062 170.354ZM116.722 163.924C139.142 161.654 160.972 159.274 183.042 156.634C182.332 154.404 181.742 152.634 181.192 150.794C181.13 150.508 181.011 150.238 180.841 149.999C180.672 149.761 180.456 149.559 180.206 149.407C179.956 149.254 179.678 149.154 179.389 149.112C179.099 149.071 178.804 149.088 178.522 149.164C173.012 149.684 167.522 150.164 161.992 150.564C149.172 151.584 136.345 152.604 123.512 153.624C121.822 153.764 120.132 154.024 118.372 154.224C117.832 157.414 117.332 160.344 116.722 163.964V163.924ZM163.122 127.104C162.682 133.274 160.452 137.744 154.682 138.244C148.912 138.744 146.962 134.154 145.422 129.314C139.261 129.61 133.128 130.319 127.062 131.434C126.532 131.534 125.902 132.524 125.792 133.174C125.172 136.934 124.692 140.704 124.192 144.484C124.191 145.071 124.245 145.657 124.352 146.234C129.842 145.824 135.142 145.444 140.452 145.014C145.762 144.584 151.102 144.164 156.452 143.664C161.802 143.164 166.992 143.144 172.282 142.144C170.612 136.984 167.822 132.844 165.282 128.564C164.952 128.104 164.212 127.874 163.152 127.144L163.122 127.104Z" fill="#3558A2"/>
<path d="M161.72 73.1049C163.532 74.0893 165.089 75.4836 166.266 77.1764C167.443 78.8692 168.208 80.8138 168.5 82.8549C169.2 87.6449 169.191 92.4349 167.211 97.0049C166.297 99.4997 164.59 101.625 162.35 103.055C161.735 103.41 161.214 103.908 160.832 104.507C160.449 105.106 160.215 105.787 160.151 106.495C159.886 107.88 159.335 109.194 158.533 110.353C157.73 111.512 156.694 112.49 155.49 113.225C154.042 114.269 152.298 114.824 150.512 114.809C148.727 114.795 146.992 114.212 145.561 113.145C144.23 112.271 143.087 111.141 142.198 109.82C141.308 108.5 140.691 107.016 140.38 105.455C140.09 104.055 139.297 102.81 138.15 101.955C133.07 97.9549 131.63 92.3549 132.09 86.1749C132.184 83.251 133.238 80.4394 135.09 78.1749C135.65 77.5049 135.44 76.1749 135.53 75.1149C135.79 71.9749 135.61 68.7349 136.35 65.7149C137.14 62.7022 138.887 60.0281 141.33 58.0961C143.772 56.164 146.777 55.0791 149.89 55.0049C154.75 54.8349 160.041 59.1149 161.081 64.4449C161.469 67.3159 161.683 70.2079 161.72 73.1049ZM139.34 87.7949C139.34 91.4149 139.97 94.4749 142.88 96.2549C144.008 96.9161 144.976 97.8184 145.714 98.8971C146.452 99.9758 146.943 101.204 147.15 102.495C147.44 103.899 148.057 105.214 148.951 106.335C150.111 107.765 151.581 107.535 152.441 105.885C152.978 104.836 153.317 103.697 153.441 102.525C153.495 101.478 153.853 100.469 154.471 99.6221C155.089 98.7751 155.94 98.1263 156.921 97.7549C158.062 97.2763 159.054 96.4991 159.791 95.5049C160.528 94.5106 160.984 93.3362 161.11 92.1049C161.432 89.42 161.479 86.7093 161.25 84.0149C161.165 83.0109 160.792 82.0528 160.177 81.2548C159.562 80.4569 158.73 79.8529 157.781 79.5149C153.621 77.6249 153.02 76.2849 153.87 71.8849C154.188 70.289 154.282 68.6567 154.151 67.0349C153.811 63.2249 150.501 61.4549 147.081 63.1449C146.149 63.6277 145.332 64.304 144.684 65.1284C144.035 65.9528 143.57 66.9062 143.321 67.9249C142.531 70.4448 142.42 73.1286 143 75.7049C143.56 78.1249 143.46 80.4449 141.49 82.2549C140.714 82.9378 140.113 83.7977 139.738 84.7621C139.364 85.7264 139.228 86.7667 139.34 87.7949V87.7949Z" fill="#3558A2"/>
<path d="M126.061 170.395L176.34 164.885C176.56 170.675 176.831 176.115 176.691 181.785C171.311 178.575 171.31 178.575 167.26 181.225C165.85 180.115 164.59 178.125 162.47 178.915C160.77 179.545 159.32 180.845 157.62 181.915C157.38 181.385 157.11 180.665 156.74 180.005C156.369 179.215 155.722 178.588 154.921 178.242C154.12 177.896 153.22 177.854 152.391 178.125C151.616 178.414 150.961 178.954 150.53 179.659C150.099 180.365 149.916 181.194 150.01 182.015C150.83 189.485 157.301 192.185 162.171 188.255C162.366 188.143 162.57 188.046 162.781 187.965C163.912 188.711 165.231 189.123 166.586 189.153C167.941 189.183 169.277 188.83 170.441 188.135C170.825 187.924 171.269 187.85 171.701 187.925C173.341 188.365 174.951 188.925 176.931 189.505C176.931 190.365 177.05 191.505 177.09 192.645C177.22 196.445 177.431 200.255 177.431 204.055C177.431 207.105 177.001 210.165 177.051 213.205C177.151 219.375 177.461 225.545 177.671 231.705C177.671 232.585 177.671 233.465 177.671 234.605L169.321 235.345C161.451 236.025 153.581 236.715 145.711 237.345C143.221 237.545 143.191 237.505 142.561 235.105C140.561 227.375 138.801 219.555 136.421 211.935C132.511 199.465 130.22 186.595 126.85 173.995C126.58 172.995 126.391 171.925 126.061 170.395ZM159.24 201.995L159.37 202.295C161.965 201.624 164.522 200.816 167.031 199.875C167.785 199.528 168.374 198.899 168.671 198.124C168.968 197.348 168.95 196.487 168.62 195.725C168.375 194.984 167.885 194.349 167.23 193.924C166.576 193.499 165.797 193.309 165.021 193.385C162.261 193.795 159.511 194.335 156.801 195.015C156.093 195.212 155.474 195.647 155.049 196.246C154.623 196.845 154.415 197.571 154.461 198.305C154.45 199.038 154.68 199.755 155.115 200.345C155.551 200.936 156.167 201.367 156.87 201.575C157.649 201.771 158.441 201.912 159.24 201.995V201.995Z" fill="white"/>
<path d="M116.721 163.964C117.331 160.344 117.831 157.414 118.371 154.264C120.131 154.064 121.821 153.804 123.511 153.664C136.331 152.631 149.157 151.611 161.991 150.604C167.501 150.164 172.991 149.724 178.521 149.204C178.803 149.129 179.098 149.111 179.388 149.153C179.677 149.195 179.955 149.295 180.205 149.447C180.455 149.6 180.671 149.801 180.84 150.04C181.01 150.278 181.129 150.548 181.191 150.834C181.741 152.644 182.331 154.444 183.041 156.674C160.971 159.314 139.151 161.694 116.721 163.964Z" fill="#EAECF1"/>
<path d="M163.15 127.145C164.24 127.875 164.98 128.145 165.27 128.605C167.81 132.884 170.6 137.024 172.27 142.184C166.98 143.184 161.68 143.184 156.44 143.704C151.2 144.224 145.8 144.634 140.44 145.054C135.08 145.474 129.83 145.864 124.34 146.274C124.221 145.688 124.158 145.092 124.15 144.494C124.65 140.714 125.15 136.944 125.75 133.185C125.86 132.535 126.49 131.545 127.02 131.445C133.086 130.329 139.22 129.621 145.38 129.325C146.92 134.164 148.99 138.754 154.64 138.254C160.29 137.754 162.68 133.315 163.15 127.145Z" fill="#979FBB"/>
<path d="M139.342 87.7949C139.229 86.7724 139.362 85.7376 139.731 84.7772C140.1 83.8168 140.693 82.9588 141.462 82.2749C143.462 80.4649 143.532 78.145 142.972 75.725C142.392 73.1487 142.502 70.4649 143.292 67.945C143.542 66.9263 144.007 65.9728 144.655 65.1484C145.304 64.324 146.121 63.6478 147.052 63.165C150.472 61.475 153.782 63.2449 154.122 67.0549C154.254 68.6768 154.16 70.3091 153.842 71.9049C152.992 76.3049 153.592 77.645 157.752 79.535C158.701 79.8729 159.533 80.4769 160.148 81.2749C160.764 82.0728 161.136 83.031 161.222 84.035C161.451 86.7294 161.404 89.4401 161.082 92.125C160.955 93.3562 160.5 94.5307 159.762 95.5249C159.025 96.5191 158.033 97.2964 156.892 97.7749C155.911 98.1463 155.06 98.7952 154.442 99.6422C153.824 100.489 153.466 101.498 153.412 102.545C153.288 103.717 152.949 104.856 152.412 105.905C151.552 107.555 150.082 107.785 148.922 106.355C148.036 105.225 147.43 103.903 147.152 102.495C146.948 101.202 146.46 99.9699 145.723 98.8875C144.987 97.8052 144.02 96.8993 142.892 96.2349C139.972 94.4949 139.292 91.4149 139.342 87.7949Z" fill="white"/>
<path d="M159.241 201.996C158.442 201.912 157.65 201.772 156.871 201.576C156.168 201.368 155.551 200.936 155.116 200.346C154.681 199.756 154.451 199.039 154.461 198.306C154.416 197.572 154.623 196.845 155.049 196.247C155.475 195.648 156.094 195.213 156.801 195.015C159.511 194.335 162.261 193.796 165.021 193.386C165.798 193.31 166.577 193.5 167.231 193.925C167.885 194.35 168.375 194.985 168.621 195.726C168.95 196.488 168.969 197.349 168.671 198.124C168.374 198.9 167.786 199.528 167.031 199.876C164.522 200.817 161.965 201.625 159.371 202.296L159.241 201.996Z" fill="#3558A2"/>
</svg>
