<svg width="300" height="300" viewBox="0 0 300 300" fill="none" xmlns="http://www.w3.org/2000/svg">
<path d="M129.4 66.0538C130.01 65.1238 130.6 64.2238 131.18 63.3238C136.418 54.9834 143.631 48.0625 152.18 43.1737C160.9 38.2537 170.3 36.0337 180.18 37.3937C193.65 39.2337 203.71 46.4938 210.45 58.2138C216.25 68.3138 217.92 79.3238 216.98 90.8138C216.85 92.4238 216.64 94.0338 216.46 95.8138L219.75 96.6938C230.32 99.4338 239.82 104.124 247.49 112.064C253.991 118.637 258.229 127.11 259.59 136.254C260.856 145.131 259.446 154.183 255.54 162.254C250.98 172.144 244.03 180.024 235.38 186.494C234.44 187.194 233.48 187.884 232.32 188.734C232.58 189.834 232.85 190.954 233.1 192.074C235.96 204.964 234.68 217.384 228.55 229.124C223.78 238.254 216.83 245.314 207.17 249.234C193.67 254.724 181.06 252.634 169.4 244.094C168.82 243.664 168.25 243.204 167.66 242.794C167.53 242.694 167.32 242.724 166.98 242.674C165.41 244.674 163.88 246.764 162.15 248.674C155.234 256.653 145.565 261.734 135.07 262.904C120.77 264.714 108.07 260.394 96.7805 252.034C81.5605 240.804 72.5404 225.554 68.9304 207.034C67.6404 200.454 67.5104 194.714 68.2204 186.744L65.4004 185.444C54.3404 180.294 45.9304 172.504 41.4704 160.964C34.5704 143.164 42.4704 123.964 60.8504 115.834C63.1604 114.834 65.6505 114.174 68.0505 113.364L70.2604 112.644C69.9504 109.934 69.6104 107.424 69.3904 104.914C68.4702 95.7716 71.1819 86.6341 76.9404 79.4738C82.3004 72.6538 89.4204 68.4738 97.6804 66.1938C107.61 63.4238 117.59 63.7138 127.6 65.7838C128.18 65.8838 128.71 65.9338 129.4 66.0538ZM113.63 70.8838C106.63 70.8038 102.5 71.5338 97.5204 73.2438C89.0104 76.1638 82.2304 81.2438 78.5204 89.6738C75.1404 97.4138 75.1505 105.364 77.7805 113.334C78.9805 116.964 79.4004 118.204 74.4304 118.864C69.3813 119.494 64.5148 121.152 60.1304 123.734C47.3604 131.324 41.8204 146.254 48.6904 160.734C51.4424 166.502 55.6295 171.468 60.8504 175.154C64.3455 177.602 68.144 179.585 72.1504 181.054C74.7304 182.054 75.2304 182.864 75.0904 185.554C75.0304 186.734 74.9804 187.914 74.8404 189.084C74.3569 193.148 74.3839 197.257 74.9205 201.314C77.6005 221.844 87.2605 238.114 104.8 249.314C113.66 254.994 123.42 257.744 134.07 256.384C145.07 254.974 153.63 249.544 160.07 240.634C161.28 238.944 162.17 237.034 163.25 235.254C163.487 234.785 163.829 234.377 164.249 234.062C164.67 233.746 165.157 233.532 165.673 233.435C166.19 233.338 166.722 233.362 167.228 233.504C167.733 233.646 168.2 233.903 168.59 234.254C169.09 234.634 169.48 235.164 169.96 235.564C171.908 237.33 173.959 238.979 176.1 240.504C180.017 243.186 184.524 244.882 189.237 245.448C193.95 246.014 198.73 245.433 203.17 243.754C210.501 241.094 216.686 235.982 220.68 229.284C228.22 217.284 229.68 204.384 225.87 190.874C225 187.744 225.59 185.734 228.25 183.474C229.25 182.654 230.33 182.004 231.34 181.234C239.79 174.794 246.73 167.094 250.53 157.014C255.37 144.144 254.33 131.854 246.04 120.594C240.78 113.444 233.65 108.594 225.44 105.524C221.41 104.157 217.307 103.015 213.15 102.104C209.92 101.284 208.93 99.8938 209.47 96.6738C210.623 90.8877 210.89 84.96 210.26 79.0938C209.484 72.315 207.224 65.7904 203.64 59.9838C195.64 47.4037 181.81 40.8538 165.99 44.8438C156.506 47.2998 148.059 52.7324 141.89 60.3438C139.252 63.6908 136.808 67.1865 134.57 70.8138C132.98 73.2138 131.95 73.7638 129.14 73.1538C128.88 73.0938 128.62 72.9938 128.36 72.9238C123.32 71.6338 118.25 70.6838 113.63 70.8838Z" fill="#3558A2"/>
<path d="M113.63 70.886C118.25 70.696 123.32 71.646 128.36 72.886C128.62 72.956 128.88 73.056 129.14 73.116C131.95 73.726 132.98 73.176 134.57 70.776C136.807 67.1488 139.251 63.653 141.89 60.306C148.059 52.6946 156.505 47.262 165.99 44.806C181.81 40.806 195.68 47.366 203.64 59.946C207.223 65.7526 209.483 72.2771 210.26 79.056C210.889 84.9222 210.623 90.8499 209.47 96.636C208.93 99.856 209.92 101.246 213.15 102.066C217.307 102.977 221.41 104.119 225.44 105.486C233.65 108.586 240.78 113.406 246.04 120.556C254.33 131.816 255.37 144.106 250.53 156.976C246.73 167.056 239.79 174.756 231.34 181.196C230.34 181.966 229.22 182.616 228.25 183.436C225.59 185.696 225 187.706 225.87 190.836C229.66 204.346 228.22 217.256 220.68 229.246C216.686 235.944 210.5 241.056 203.17 243.716C198.73 245.394 193.95 245.976 189.236 245.41C184.523 244.844 180.017 243.148 176.1 240.466C173.958 238.941 171.908 237.292 169.96 235.526C169.48 235.126 169.09 234.596 168.59 234.216C168.199 233.864 167.733 233.608 167.227 233.466C166.721 233.324 166.189 233.3 165.673 233.397C165.156 233.493 164.669 233.708 164.249 234.023C163.829 234.339 163.487 234.747 163.25 235.216C162.17 236.996 161.25 238.906 160.07 240.596C153.65 249.506 145.07 254.936 134.07 256.346C123.42 257.706 113.66 254.956 104.8 249.276C87.2599 238.056 77.5999 221.786 74.9199 201.276C74.3833 197.219 74.3563 193.11 74.8398 189.046C74.9798 187.876 75.0298 186.696 75.0898 185.516C75.2298 182.826 74.7299 182.006 72.1499 181.016C68.1435 179.547 64.3449 177.564 60.8498 175.116C55.6289 171.43 51.4419 166.464 48.6898 160.696C41.8198 146.246 47.3598 131.316 60.1298 123.696C64.5142 121.114 69.3807 119.456 74.4298 118.826C79.4298 118.166 78.9799 116.926 77.7799 113.296C75.1499 105.296 75.1399 97.376 78.5199 89.636C82.2099 81.196 88.9899 76.126 97.5199 73.206C102.5 71.526 106.63 70.796 113.63 70.886ZM192.91 192.186C194.67 191.886 197.56 191.606 200.35 190.896C217.17 186.596 227.85 169.806 225.47 154.656C224.691 148.952 222.178 143.624 218.27 139.396C214.96 135.686 210.768 132.87 206.083 131.208C201.397 129.546 196.368 129.091 191.46 129.886C179.9 131.446 171.03 137.346 165.46 147.586C159.71 158.236 159.7 169.106 166.56 179.316C172.53 188.116 181.35 191.806 192.91 192.176V192.186ZM107.28 224.536C108.519 226.308 109.854 228.01 111.28 229.636C119.28 237.856 129.05 240.936 140.28 238.826C156.56 235.766 167.13 220.666 165.03 205.566C164.539 201.45 163.146 197.494 160.951 193.978C158.756 190.462 155.812 187.474 152.33 185.226C148.584 182.63 144.299 180.915 139.797 180.208C135.295 179.502 130.691 179.822 126.33 181.146C124.14 181.756 122.46 181.646 120.95 179.956C120.817 179.829 120.673 179.716 120.52 179.616C119.384 178.767 118.02 178.277 116.603 178.209C115.186 178.142 113.782 178.499 112.57 179.236C111.285 179.942 110.258 181.039 109.64 182.368C109.021 183.697 108.842 185.188 109.13 186.626C109.3 187.686 109.6 188.726 109.84 189.736C109.694 189.991 109.533 190.238 109.36 190.476C103.857 196.926 100.055 204.651 98.2999 212.946C97.833 215.343 97.715 217.795 97.9498 220.226C98.0448 221.513 98.6405 222.711 99.609 223.563C100.577 224.416 101.841 224.855 103.13 224.786C104.55 224.796 105.89 224.616 107.28 224.526V224.536ZM125.2 106.306C120.415 106.313 115.697 107.432 111.419 109.575C107.141 111.719 103.42 114.827 100.55 118.656C97.7612 122.51 95.7947 126.896 94.7724 131.541C93.7502 136.187 93.694 140.993 94.6074 145.662C95.5208 150.33 97.3843 154.761 100.082 158.678C102.78 162.596 106.254 165.917 110.29 168.436C123.35 176.436 139.57 174.216 149.66 162.726C157.66 153.566 159.8 142.796 156.66 131.166C152.57 116.236 139.29 106.306 125.2 106.296V106.306ZM174.12 58.586C166.599 57.6738 159.019 59.7293 152.99 64.316C149.903 66.577 147.298 69.4307 145.327 72.7102C143.356 75.9897 142.058 79.6292 141.51 83.416C139.28 97.246 147.21 110.516 159.59 115.066C165.92 117.368 172.85 117.412 179.21 115.193C185.569 112.974 190.966 108.626 194.49 102.886C198.129 97.1518 199.624 90.3157 198.71 83.586C198.26 79.4811 196.921 75.5234 194.787 71.9883C192.652 68.4533 189.773 65.4256 186.35 63.116C187.45 58.016 186.44 55.246 183.13 53.986C179.82 52.726 176.45 54.496 174.12 58.576V58.586ZM71.7999 158.086C75.3299 157.876 78.2198 157.796 81.0898 157.506C82.6152 157.35 84.1104 156.976 85.5299 156.396C86.2639 156.073 86.8516 155.489 87.1787 154.757C87.5057 154.024 87.5486 153.197 87.2992 152.435C87.0497 151.672 86.5256 151.03 85.8289 150.633C85.1322 150.236 84.3128 150.112 83.5299 150.286C79.621 151.023 75.647 151.358 71.6699 151.286C70.9505 151.278 70.2326 151.352 69.5299 151.506C68.8065 151.616 68.1448 151.977 67.6604 152.525C67.176 153.073 66.8997 153.775 66.8798 154.506C66.8376 155.236 67.0586 155.958 67.5025 156.539C67.9465 157.121 68.5841 157.524 69.2999 157.676C70.1232 157.866 70.9585 157.999 71.7999 158.076V158.086ZM92.5798 165.776C92.5798 163.256 91.0798 161.776 89.0698 162.156C88.1951 162.36 87.3716 162.741 86.6499 163.276C84.2299 164.856 81.8498 166.506 79.4598 168.126C78.9939 168.404 78.5464 168.711 78.1198 169.046C77.4473 169.525 76.98 170.24 76.8114 171.048C76.6427 171.856 76.7849 172.698 77.2098 173.406C77.621 174.13 78.3029 174.661 79.1055 174.882C79.9082 175.103 80.7657 174.997 81.4898 174.586C85.1662 172.828 88.5413 170.499 91.4898 167.686C91.9568 167.111 92.3251 166.462 92.5798 165.766V165.776ZM216.07 126.776C216.26 128.256 216.65 129.316 217.85 129.906C218.449 130.26 219.155 130.384 219.839 130.258C220.523 130.131 221.138 129.761 221.57 129.216C223.403 126.861 225.096 124.4 226.64 121.846C226.986 121.197 227.082 120.442 226.909 119.727C226.736 119.011 226.305 118.385 225.7 117.966C225.105 117.557 224.393 117.352 223.671 117.383C222.95 117.413 222.258 117.678 221.7 118.136C221.21 118.541 220.779 119.012 220.42 119.536C219.24 121.246 218.06 122.976 216.96 124.746C216.607 125.39 216.309 126.062 216.07 126.756V126.776ZM228.74 139.516C229.242 139.44 229.734 139.313 230.21 139.136C232.49 138.056 234.81 137.026 237.01 135.786C237.388 135.623 237.729 135.387 238.015 135.091C238.301 134.795 238.525 134.445 238.675 134.062C238.825 133.679 238.897 133.27 238.888 132.859C238.878 132.447 238.787 132.042 238.62 131.666C238.483 131.275 238.266 130.916 237.984 130.613C237.701 130.309 237.359 130.068 236.978 129.903C236.598 129.739 236.187 129.655 235.773 129.657C235.358 129.66 234.949 129.748 234.57 129.916C231.837 131.113 229.167 132.448 226.57 133.916C226.272 134.122 226.031 134.401 225.87 134.726C225.543 135.218 225.369 135.795 225.369 136.386C225.369 136.977 225.543 137.554 225.87 138.046C226.172 138.525 226.598 138.914 227.104 139.169C227.609 139.425 228.175 139.538 228.74 139.496V139.516ZM188.28 226.266C189.14 226.25 189.961 225.9 190.568 225.29C191.174 224.679 191.52 223.857 191.53 222.996C191.484 222.136 191.114 221.325 190.494 220.728C189.874 220.13 189.051 219.79 188.19 219.776C187.326 219.738 186.483 220.042 185.842 220.623C185.202 221.203 184.816 222.013 184.77 222.876C184.816 223.779 185.204 224.631 185.857 225.257C186.509 225.883 187.376 226.237 188.28 226.246V226.266ZM95.1198 94.826C95.1024 95.2529 95.1693 95.679 95.3167 96.08C95.4642 96.481 95.6892 96.849 95.979 97.1629C96.2687 97.4768 96.6176 97.7306 97.0056 97.9096C97.3935 98.0885 97.8129 98.1893 98.2398 98.206C99.1453 98.2061 100.014 97.8492 100.658 97.2127C101.302 96.5762 101.669 95.7114 101.68 94.806C101.659 93.9448 101.298 93.127 100.676 92.5311C100.054 91.9353 99.2211 91.6099 98.3598 91.626C97.9339 91.6051 97.5083 91.6726 97.1097 91.8242C96.7111 91.9758 96.3482 92.2083 96.0439 92.507C95.7396 92.8057 95.5004 93.1642 95.3414 93.5598C95.1823 93.9555 95.1069 94.3797 95.1198 94.806V94.826ZM185.67 211.046C185.692 210.615 185.625 210.185 185.472 209.781C185.32 209.378 185.086 209.01 184.784 208.702C184.482 208.394 184.12 208.152 183.72 207.991C183.32 207.829 182.891 207.753 182.46 207.766C182.029 207.743 181.598 207.807 181.192 207.955C180.787 208.103 180.416 208.332 180.101 208.627C179.786 208.922 179.534 209.278 179.36 209.673C179.187 210.068 179.095 210.494 179.09 210.926C179.078 211.357 179.152 211.787 179.307 212.19C179.462 212.592 179.696 212.96 179.995 213.272C180.293 213.584 180.651 213.833 181.047 214.005C181.442 214.177 181.868 214.27 182.3 214.276C183.174 214.279 184.015 213.941 184.644 213.335C185.273 212.728 185.641 211.9 185.67 211.026V211.046ZM105.56 100.726C105.509 101.552 105.782 102.364 106.319 102.993C106.856 103.622 107.617 104.017 108.44 104.096C109.354 104.092 110.232 103.739 110.894 103.109C111.556 102.478 111.951 101.619 112 100.706C111.99 99.8922 111.677 99.1113 111.123 98.5158C110.568 97.9204 109.811 97.5531 109 97.486C108.126 97.4913 107.287 97.8257 106.649 98.4226C106.012 99.0195 105.623 99.8349 105.56 100.706V100.726ZM201.18 220.026C201.182 219.234 200.881 218.47 200.338 217.893C199.795 217.316 199.051 216.969 198.26 216.923C197.469 216.877 196.69 217.135 196.084 217.645C195.478 218.156 195.09 218.879 195 219.666C194.952 220.085 194.99 220.509 195.112 220.913C195.234 221.316 195.436 221.691 195.708 222.013C195.979 222.336 196.314 222.6 196.69 222.789C197.067 222.978 197.479 223.088 197.9 223.112C198.32 223.137 198.742 223.075 199.138 222.931C199.534 222.787 199.897 222.564 200.204 222.275C200.511 221.986 200.756 221.638 200.924 221.251C201.092 220.864 201.179 220.448 201.18 220.026V220.026ZM108.32 82.026C108.34 81.6394 108.279 81.2528 108.139 80.8916C108 80.5304 107.786 80.2027 107.511 79.9299C107.237 79.6571 106.908 79.4453 106.545 79.3085C106.183 79.1717 105.796 79.1129 105.41 79.136C104.633 79.1219 103.88 79.4102 103.311 79.9399C102.742 80.4697 102.401 81.1997 102.36 81.976C102.373 82.7978 102.704 83.5824 103.284 84.1645C103.864 84.7466 104.648 85.0806 105.47 85.096C106.257 85.0421 106.992 84.6865 107.523 84.1033C108.054 83.5202 108.34 82.7545 108.32 81.966V82.026Z" fill="white"/>
<path d="M192.91 192.175C181.35 191.805 172.53 188.115 166.61 179.305C159.75 169.095 159.76 158.225 165.51 147.575C171.03 137.335 179.9 131.435 191.51 129.875C196.418 129.08 201.447 129.535 206.133 131.197C210.818 132.859 215.01 135.675 218.32 139.385C222.227 143.613 224.741 148.94 225.52 154.645C227.9 169.795 217.22 186.585 200.4 190.885C197.56 191.595 194.67 191.885 192.91 192.175ZM193.91 185.455C201.24 185.275 208.91 180.975 214.65 173.025C215.176 172.414 215.473 171.638 215.49 170.831C215.506 170.025 215.241 169.237 214.74 168.605C209.779 160.699 207.731 151.309 208.95 142.055C209.08 141.439 208.984 140.797 208.679 140.246C208.374 139.695 207.881 139.272 207.29 139.055C204.399 137.51 201.218 136.584 197.95 136.335C193.634 135.945 189.288 136.593 185.274 138.227C181.26 139.861 177.696 142.432 174.88 145.725C169.65 151.575 167.16 158.475 168.43 166.285C170.33 177.765 179.75 185.465 193.99 185.455H193.91Z" fill="#3558A2"/>
<path d="M107.28 224.526C105.89 224.616 104.55 224.796 103.2 224.776C101.911 224.845 100.647 224.406 99.6787 223.554C98.7103 222.701 98.1147 221.503 98.0197 220.216C97.7849 217.785 97.9028 215.333 98.3697 212.936C100.125 204.641 103.927 196.916 109.43 190.466C109.603 190.229 109.763 189.981 109.91 189.726C109.67 188.726 109.37 187.676 109.2 186.616C108.912 185.179 109.091 183.687 109.71 182.358C110.328 181.029 111.355 179.932 112.64 179.226C113.852 178.489 115.256 178.132 116.673 178.2C118.089 178.267 119.454 178.757 120.59 179.606C120.743 179.706 120.887 179.82 121.02 179.946C122.53 181.636 124.21 181.746 126.4 181.136C130.761 179.812 135.365 179.492 139.867 180.198C144.369 180.905 148.654 182.62 152.4 185.216C155.882 187.464 158.826 190.452 161.021 193.968C163.216 197.484 164.609 201.44 165.1 205.556C167.2 220.656 156.63 235.756 140.35 238.816C129.1 240.926 119.35 237.816 111.35 229.626C109.9 228.002 108.541 226.3 107.28 224.526ZM131.58 232.856C140.25 232.856 145.58 230.856 150.21 227.006C164.12 215.246 160.15 195.246 144.81 188.486C140.136 186.506 134.974 185.98 129.997 186.977C125.02 187.974 120.46 190.448 116.91 194.076C109.77 201.446 108.17 212.076 113.23 220.956C117.81 228.966 125.05 232.666 131.58 232.886V232.856Z" fill="#3558A2"/>
<path d="M125.2 106.295C139.29 106.295 152.57 116.235 156.64 131.155C159.8 142.785 157.7 153.555 149.64 162.715C139.55 174.205 123.33 176.425 110.27 168.425C106.234 165.906 102.76 162.585 100.062 158.667C97.3641 154.749 95.5005 150.319 94.5871 145.65C93.6737 140.982 93.7299 136.176 94.7522 131.53C95.7744 126.885 97.741 122.499 100.53 118.645C103.402 114.814 107.126 111.703 111.408 109.56C115.689 107.416 120.411 106.298 125.2 106.295V106.295ZM127.1 166.495C134.96 166.165 141.65 162.945 146.4 156.105C150.196 150.699 151.813 144.061 150.93 137.515C150.526 133.112 149.071 128.87 146.687 125.146C144.303 121.422 141.059 118.325 137.23 116.115C136.543 115.598 135.713 115.306 134.853 115.28C133.994 115.253 133.148 115.492 132.43 115.965C129.634 117.676 126.522 118.805 123.28 119.285C118.72 119.935 114.16 120.715 109.57 121.055C108.777 121.044 107.995 121.234 107.296 121.606C106.597 121.978 106.003 122.522 105.57 123.185C102.352 127.848 100.64 133.384 100.661 139.049C100.683 144.714 102.437 150.236 105.69 154.875C110.73 162.235 117.73 166.195 127.1 166.495V166.495Z" fill="#3558A2"/>
<path d="M174.12 58.5743C176.45 54.4943 179.92 52.8043 183.12 54.0143C186.32 55.2243 187.44 58.0143 186.34 63.1443C189.763 65.4539 192.642 68.4815 194.777 72.0166C196.911 75.5516 198.25 79.5093 198.7 83.6142C199.614 90.3439 198.119 97.18 194.48 102.914C190.951 108.647 185.55 112.987 179.192 115.198C172.833 117.41 165.905 117.359 159.58 115.054C147.2 110.504 139.27 97.2342 141.5 83.4042C142.048 79.6175 143.346 75.9779 145.317 72.6984C147.288 69.419 149.893 66.5653 152.98 64.3042C159.012 59.715 166.596 57.6593 174.12 58.5743V58.5743ZM189.81 77.1142C188.292 77.4161 186.723 77.3425 185.24 76.8998C183.757 76.4572 182.404 75.6588 181.3 74.5742C179.883 73.1793 178.582 71.671 177.41 70.0642C177.106 69.6139 176.673 69.2653 176.169 69.0638C175.664 68.8623 175.111 68.8171 174.58 68.9342C172.531 69.2854 170.465 69.5224 168.39 69.6442C166.299 69.8866 164.184 69.4706 162.34 68.4542C160.74 67.4542 159.52 67.7642 158.15 68.7642C150.22 74.5142 146.75 82.2742 148.15 91.9242C149.037 97.552 152.098 102.607 156.675 105.999C161.251 109.392 166.978 110.852 172.62 110.064C177.231 109.403 181.528 107.339 184.927 104.153C188.325 100.967 190.662 96.8132 191.62 92.2542C192.897 87.1565 192.253 81.7672 189.81 77.1142V77.1142Z" fill="#3558A2"/>
<path d="M71.8014 158.075C70.942 157.984 70.0899 157.834 69.2513 157.625C68.5356 157.473 67.8979 157.07 67.454 156.488C67.01 155.907 66.7891 155.185 66.8313 154.455C66.8511 153.724 67.1274 153.022 67.6118 152.474C68.0962 151.926 68.7579 151.565 69.4813 151.455C70.1841 151.301 70.902 151.227 71.6213 151.235C75.5984 151.307 79.5724 150.972 83.4813 150.235C84.2642 150.061 85.0838 150.185 85.7805 150.582C86.4772 150.979 87.0012 151.621 87.2507 152.383C87.5002 153.146 87.4571 153.973 87.1301 154.705C86.8031 155.438 86.2154 156.022 85.4813 156.345C84.0618 156.925 82.5667 157.299 81.0414 157.455C78.2214 157.785 75.3314 157.885 71.8014 158.075Z" fill="#3558A2"/>
<path d="M92.5792 165.765C92.3327 166.456 91.9747 167.101 91.5193 167.675C88.5707 170.489 85.1957 172.817 81.5193 174.576C80.7952 174.986 79.9375 175.093 79.1349 174.872C78.3323 174.65 77.6504 174.119 77.2392 173.396C76.8144 172.688 76.672 171.846 76.8407 171.037C77.0094 170.229 77.4767 169.514 78.1493 169.036C78.5758 168.701 79.0233 168.393 79.4892 168.115C81.8792 166.495 84.2592 164.845 86.6792 163.265C87.4009 162.731 88.2246 162.35 89.0992 162.145C91.0792 161.795 92.6092 163.245 92.5792 165.765Z" fill="#3558A2"/>
<path d="M216.07 126.755C216.297 126.066 216.582 125.397 216.92 124.755C218.02 122.985 219.2 121.255 220.38 119.545C220.74 119.021 221.171 118.55 221.66 118.145C222.219 117.687 222.91 117.422 223.632 117.392C224.353 117.361 225.065 117.566 225.66 117.975C226.266 118.394 226.696 119.02 226.869 119.736C227.043 120.451 226.947 121.205 226.6 121.855C225.057 124.409 223.364 126.87 221.53 129.225C221.098 129.77 220.483 130.14 219.8 130.266C219.116 130.393 218.409 130.268 217.81 129.915C216.65 129.295 216.26 128.235 216.07 126.755Z" fill="#3558A2"/>
<path d="M228.739 139.494C228.176 139.523 227.616 139.399 227.117 139.135C226.619 138.871 226.202 138.477 225.909 137.994C225.583 137.502 225.408 136.925 225.408 136.334C225.408 135.743 225.583 135.166 225.909 134.674C226.07 134.349 226.311 134.07 226.609 133.864C229.207 132.396 231.877 131.061 234.609 129.864C234.988 129.696 235.398 129.608 235.812 129.606C236.227 129.603 236.637 129.687 237.018 129.852C237.398 130.016 237.741 130.257 238.023 130.561C238.306 130.864 238.522 131.223 238.659 131.614C238.827 131.99 238.918 132.395 238.927 132.807C238.937 133.218 238.864 133.627 238.715 134.01C238.565 134.393 238.341 134.743 238.055 135.039C237.769 135.335 237.427 135.571 237.049 135.734C234.849 136.974 232.529 138.004 230.249 139.084C229.762 139.274 229.256 139.411 228.739 139.494V139.494Z" fill="#3558A2"/>
<path d="M188.282 226.245C187.374 226.235 186.504 225.879 185.852 225.248C185.199 224.618 184.812 223.762 184.771 222.855C184.818 221.992 185.203 221.182 185.844 220.602C186.484 220.021 187.328 219.717 188.191 219.755C189.052 219.769 189.876 220.109 190.496 220.707C191.116 221.304 191.486 222.115 191.532 222.975C191.521 223.836 191.176 224.658 190.569 225.269C189.963 225.879 189.142 226.229 188.282 226.245V226.245Z" fill="#3558A2"/>
<path d="M95.1199 94.8054C95.1041 94.3775 95.1774 93.951 95.3352 93.553C95.493 93.1549 95.7318 92.794 96.0364 92.4931C96.341 92.1923 96.7049 91.958 97.1049 91.8051C97.5048 91.6523 97.9322 91.5842 98.3599 91.6053C99.2211 91.5892 100.054 91.9147 100.676 92.5105C101.298 93.1064 101.659 93.9242 101.68 94.7854C101.669 95.6908 101.302 96.5556 100.658 97.1921C100.014 97.8286 99.1453 98.1855 98.2399 98.1854C97.813 98.1687 97.3936 98.068 97.0056 97.889C96.6177 97.71 96.2688 97.4563 95.979 97.1423C95.6892 96.8284 95.4642 96.4604 95.3168 96.0594C95.1694 95.6584 95.1025 95.2323 95.1199 94.8054V94.8054Z" fill="#3558A2"/>
<path d="M185.671 211.025C185.637 211.895 185.267 212.718 184.639 213.321C184.01 213.923 183.172 214.258 182.301 214.255C181.87 214.249 181.444 214.156 181.048 213.984C180.652 213.812 180.295 213.562 179.996 213.251C179.697 212.939 179.464 212.571 179.308 212.169C179.153 211.766 179.079 211.336 179.091 210.905C179.096 210.473 179.188 210.047 179.362 209.652C179.535 209.257 179.787 208.901 180.102 208.606C180.417 208.311 180.788 208.082 181.194 207.934C181.599 207.786 182.03 207.722 182.461 207.745C182.892 207.732 183.321 207.808 183.721 207.969C184.121 208.131 184.484 208.373 184.785 208.681C185.087 208.989 185.321 209.357 185.474 209.76C185.626 210.164 185.693 210.594 185.671 211.025V211.025Z" fill="#3558A2"/>
<path d="M105.561 100.705C105.618 99.8386 105.998 99.0253 106.626 98.4255C107.253 97.8257 108.083 97.483 108.951 97.4648C109.762 97.532 110.519 97.8992 111.074 98.4946C111.629 99.0901 111.941 99.871 111.951 100.685C111.902 101.598 111.507 102.457 110.845 103.087C110.183 103.718 109.305 104.071 108.391 104.075C107.577 103.984 106.829 103.583 106.302 102.956C105.775 102.329 105.51 101.523 105.561 100.705V100.705Z" fill="#3558A2"/>
<path d="M201.18 220.005C201.179 220.427 201.092 220.843 200.924 221.23C200.757 221.617 200.512 221.965 200.205 222.254C199.898 222.543 199.535 222.766 199.139 222.91C198.742 223.054 198.321 223.116 197.9 223.091C197.479 223.067 197.068 222.957 196.691 222.768C196.314 222.579 195.98 222.315 195.708 221.992C195.437 221.67 195.234 221.295 195.113 220.892C194.991 220.488 194.953 220.064 195 219.645C195.09 218.858 195.478 218.135 196.085 217.625C196.691 217.114 197.47 216.856 198.261 216.902C199.052 216.948 199.795 217.295 200.338 217.872C200.881 218.449 201.183 219.213 201.18 220.005V220.005Z" fill="#3558A2"/>
<path d="M108.321 81.9652C108.326 82.7434 108.033 83.494 107.504 84.0643C106.975 84.6347 106.248 84.9818 105.471 85.0352C104.65 85.0198 103.866 84.6858 103.286 84.1037C102.706 83.5216 102.374 82.737 102.361 81.9152C102.403 81.1389 102.744 80.4089 103.313 79.8792C103.882 79.3494 104.634 79.0611 105.411 79.0752C105.798 79.0521 106.185 79.1109 106.547 79.2477C106.909 79.3845 107.238 79.5963 107.513 79.8691C107.788 80.1419 108.002 80.4696 108.141 80.8308C108.28 81.192 108.342 81.5786 108.321 81.9652Z" fill="#3558A2"/>
<path d="M193.99 185.455C179.79 185.455 170.37 177.765 168.51 166.275C167.24 158.465 169.73 151.565 174.96 145.715C177.777 142.422 181.341 139.851 185.355 138.217C189.368 136.584 193.715 135.935 198.03 136.325C201.299 136.575 204.479 137.501 207.37 139.045C207.961 139.262 208.454 139.685 208.759 140.236C209.064 140.787 209.16 141.429 209.03 142.045C207.812 151.299 209.859 160.689 214.82 168.595C215.322 169.228 215.587 170.015 215.57 170.821C215.554 171.628 215.257 172.404 214.73 173.015C208.99 180.975 201.28 185.275 193.99 185.455ZM173.25 165.065C173.21 165.788 173.21 166.512 173.25 167.235C173.34 167.953 173.49 168.663 173.7 169.355C174.073 170.738 174.755 172.018 175.694 173.1C176.632 174.181 177.804 175.036 179.12 175.6C180.437 176.164 181.864 176.422 183.295 176.356C184.725 176.289 186.122 175.899 187.38 175.215C190.516 173.351 193.084 170.669 194.81 167.455C196.06 165.335 195.37 163.245 193.21 161.845C191.77 160.905 190.21 160.105 188.77 159.215C186.519 157.841 184.675 155.891 183.43 153.565C181.81 150.645 179.36 150.405 177.09 152.865C176.638 153.313 176.26 153.829 175.97 154.395C174.41 157.785 173.15 161.265 173.21 165.065H173.25ZM196.11 155.635C196.562 155.665 197.016 155.603 197.443 155.451C197.87 155.3 198.262 155.063 198.594 154.755C198.926 154.447 199.192 154.074 199.376 153.66C199.559 153.246 199.656 152.798 199.66 152.345C199.603 151.483 199.226 150.674 198.602 150.076C197.978 149.479 197.154 149.136 196.29 149.115C195.428 149.158 194.608 149.509 193.981 150.103C193.354 150.697 192.96 151.496 192.87 152.355C192.87 153.211 193.205 154.034 193.803 154.647C194.401 155.26 195.214 155.614 196.07 155.635H196.11ZM190.46 145.805C190.445 145.079 190.151 144.386 189.639 143.87C189.127 143.355 188.437 143.056 187.71 143.035C185.91 143.115 184.34 144.455 184.32 145.915C184.353 146.695 184.682 147.432 185.239 147.979C185.796 148.525 186.54 148.838 187.32 148.855C188.13 148.843 188.904 148.519 189.481 147.951C190.058 147.383 190.395 146.615 190.42 145.805H190.46Z" fill="white"/>
<path d="M131.581 232.885C125.051 232.695 117.811 228.995 113.231 220.985C108.171 212.125 109.771 201.475 116.911 194.105C120.461 190.477 125.022 188.003 129.999 187.006C134.976 186.009 140.137 186.535 144.811 188.515C160.151 195.275 164.121 215.275 150.211 227.035C145.621 230.885 140.251 232.885 131.581 232.885ZM139.721 200.495C140.005 203.042 139.469 205.613 138.191 207.835C137.898 208.502 137.38 209.046 136.729 209.373C136.077 209.7 135.331 209.789 134.621 209.625C132.63 209.412 130.733 208.666 129.131 207.465C128.499 206.95 127.811 206.508 127.081 206.145C126.458 205.808 125.738 205.693 125.041 205.819C124.343 205.945 123.71 206.305 123.244 206.839C122.779 207.374 122.509 208.05 122.479 208.758C122.45 209.467 122.662 210.164 123.081 210.735C123.615 211.483 124.247 212.156 124.961 212.735C127.631 214.955 130.791 215.815 134.201 216.285C135.908 216.61 137.672 216.423 139.273 215.749C140.874 215.075 142.241 213.943 143.201 212.495C145.371 209.539 146.506 205.951 146.431 202.285C146.435 200.837 146.268 199.393 145.931 197.985C145.77 197.264 145.334 196.634 144.716 196.228C144.098 195.823 143.347 195.675 142.621 195.815C141.933 195.852 141.279 196.129 140.775 196.599C140.27 197.069 139.947 197.701 139.861 198.385C139.77 199.075 139.723 199.769 139.721 200.465V200.495ZM121.211 199.575C121.207 200.003 121.289 200.427 121.451 200.823C121.614 201.219 121.855 201.578 122.159 201.879C122.463 202.18 122.824 202.417 123.221 202.576C123.618 202.735 124.043 202.813 124.471 202.805C125.378 202.764 126.235 202.376 126.864 201.72C127.494 201.065 127.847 200.193 127.851 199.285C127.76 198.444 127.352 197.668 126.71 197.117C126.068 196.566 125.241 196.279 124.395 196.316C123.55 196.353 122.75 196.711 122.159 197.316C121.567 197.921 121.228 198.729 121.211 199.575ZM136.561 194.005C136.546 193.146 136.213 192.323 135.625 191.697C135.037 191.07 134.237 190.684 133.381 190.615C132.518 190.636 131.697 190.992 131.092 191.608C130.487 192.224 130.146 193.052 130.141 193.915C130.146 194.343 130.237 194.766 130.409 195.158C130.581 195.55 130.831 195.903 131.143 196.196C131.455 196.489 131.822 196.716 132.224 196.864C132.626 197.012 133.053 197.077 133.481 197.055C133.888 197.066 134.294 196.994 134.673 196.843C135.051 196.692 135.395 196.466 135.683 196.177C135.972 195.889 136.198 195.545 136.349 195.167C136.5 194.788 136.572 194.382 136.561 193.975V194.005Z" fill="white"/>
<path d="M127.101 166.495C117.731 166.195 110.731 162.235 105.671 154.875C102.419 150.236 100.664 144.714 100.643 139.049C100.621 133.384 102.334 127.848 105.551 123.185C105.985 122.521 106.578 121.978 107.278 121.606C107.977 121.233 108.759 121.044 109.551 121.055C114.141 120.715 118.701 119.935 123.261 119.285C126.504 118.805 129.616 117.676 132.411 115.965C133.129 115.492 133.976 115.253 134.835 115.279C135.694 115.306 136.524 115.598 137.211 116.115C141.041 118.325 144.284 121.422 146.668 125.146C149.052 128.87 150.507 133.112 150.911 137.515C151.795 144.061 150.177 150.699 146.381 156.105C141.651 162.945 134.991 166.165 127.101 166.495ZM140.221 142.555C140.022 141.201 139.721 139.864 139.321 138.555C139.055 137.903 138.577 137.361 137.964 137.016C137.351 136.671 136.64 136.543 135.945 136.653C135.25 136.763 134.613 137.104 134.137 137.622C133.66 138.14 133.373 138.803 133.321 139.505C133.231 140.125 133.321 140.785 133.241 141.395C132.937 143.449 132.483 145.477 131.881 147.465C131.171 149.465 129.651 149.895 127.721 148.885C126.08 148.054 124.802 146.648 124.131 144.935C123.561 143.515 123.191 142.005 122.631 140.585C122.463 140.039 122.154 139.548 121.736 139.16C121.317 138.772 120.804 138.501 120.247 138.374C119.691 138.247 119.111 138.27 118.566 138.438C118.02 138.607 117.529 138.916 117.141 139.335C116.675 139.836 116.349 140.451 116.198 141.119C116.047 141.786 116.076 142.482 116.281 143.135C117.491 147.645 119.581 151.505 123.611 154.195C129.021 157.805 135.611 156.125 138.121 150.145C138.99 147.664 139.691 145.129 140.221 142.555ZM124.141 131.675C124.082 130.768 123.672 129.919 122.998 129.309C122.325 128.698 121.44 128.374 120.531 128.405C120.058 128.403 119.59 128.496 119.153 128.679C118.717 128.861 118.321 129.128 117.989 129.466C117.658 129.803 117.397 130.203 117.222 130.642C117.047 131.082 116.962 131.552 116.971 132.025C117.072 132.925 117.521 133.751 118.221 134.326C118.921 134.901 119.818 135.181 120.721 135.105C121.172 135.109 121.62 135.023 122.037 134.852C122.455 134.681 122.834 134.428 123.152 134.108C123.471 133.789 123.722 133.409 123.892 132.991C124.062 132.573 124.147 132.126 124.141 131.675V131.675ZM132.261 133.675C133.079 133.67 133.864 133.351 134.452 132.783C135.041 132.215 135.388 131.442 135.421 130.625C135.368 129.764 135.001 128.954 134.389 128.347C133.776 127.74 132.962 127.38 132.101 127.335C131.672 127.319 131.244 127.393 130.843 127.55C130.443 127.707 130.08 127.945 129.776 128.249C129.472 128.553 129.234 128.917 129.077 129.317C128.919 129.717 128.846 130.145 128.861 130.575C128.87 131.007 128.966 131.433 129.143 131.827C129.32 132.221 129.575 132.575 129.893 132.869C130.21 133.162 130.584 133.388 130.991 133.533C131.398 133.679 131.83 133.74 132.261 133.715V133.675Z" fill="white"/>
<path d="M189.811 77.1142C192.267 81.7621 192.925 87.1518 191.661 92.2543C190.703 96.8134 188.366 100.967 184.967 104.153C181.568 107.339 177.272 109.403 172.661 110.065C167.009 110.857 161.273 109.395 156.69 105.993C152.108 102.591 149.048 97.5235 148.171 91.8843C146.751 82.2343 150.171 74.4742 158.171 68.7242C159.541 67.7242 160.761 67.3942 162.361 68.4142C164.204 69.4305 166.319 69.8464 168.411 69.6041C170.486 69.4823 172.552 69.2453 174.601 68.8941C175.131 68.7771 175.685 68.8222 176.19 69.0237C176.694 69.2252 177.127 69.5738 177.431 70.0242C178.602 71.6309 179.903 73.1393 181.321 74.5342C182.419 75.6228 183.766 76.4267 185.246 76.8763C186.725 77.326 188.292 77.4076 189.811 77.1142V77.1142ZM176.811 94.7044C176.873 93.9885 176.705 93.2715 176.333 92.6568C175.961 92.042 175.404 91.5615 174.741 91.2844C174.061 91.0106 173.31 90.9742 172.607 91.1812C171.905 91.3881 171.293 91.8261 170.871 92.4243C170.131 93.4243 169.601 94.6244 168.871 95.6444C167.201 97.9444 165.301 97.9444 163.661 95.5844C163.005 94.506 162.446 93.3715 161.991 92.1943C161.731 91.6243 161.631 90.9744 161.351 90.4044C161.057 89.7876 160.581 89.2757 159.988 88.9378C159.394 88.5998 158.711 88.452 158.031 88.5143C157.306 88.6015 156.632 88.93 156.117 89.447C155.601 89.964 155.275 90.6394 155.191 91.3643C155.098 92.0828 155.142 92.8123 155.321 93.5144C155.999 96.1572 157.279 98.6075 159.061 100.674C161.711 103.724 166.521 104.894 169.941 103.384C173.361 101.874 175.161 98.7744 176.691 95.5544C176.799 95.2838 176.856 94.9957 176.861 94.7044H176.811ZM170.191 82.7743C170.158 83.2 170.21 83.628 170.343 84.0336C170.476 84.4393 170.688 84.8146 170.967 85.138C171.246 85.4614 171.586 85.7265 171.967 85.9181C172.349 86.1097 172.765 86.2239 173.191 86.2543C174.015 86.2972 174.826 86.0294 175.463 85.5036C176.1 84.9777 176.517 84.2323 176.631 83.4143C176.674 82.5428 176.391 81.6864 175.836 81.013C175.281 80.3396 174.494 79.8978 173.631 79.7742C172.785 79.7276 171.954 80.0164 171.32 80.578C170.685 81.1396 170.297 81.9287 170.241 82.7743H170.191ZM164.271 81.3443C164.26 80.4982 163.914 79.691 163.308 79.1003C162.702 78.5095 161.887 78.1836 161.041 78.1942C160.195 78.2048 159.387 78.5511 158.797 79.1569C158.206 79.7626 157.88 80.5782 157.891 81.4242C157.932 82.2828 158.308 83.091 158.938 83.676C159.568 84.2609 160.401 84.5762 161.261 84.5543C162.083 84.5085 162.858 84.1512 163.426 83.5549C163.994 82.9585 164.314 82.1681 164.321 81.3443H164.271Z" fill="white"/>
<path d="M173.21 165.065C173.15 161.265 174.41 157.785 175.95 154.395C176.24 153.828 176.618 153.312 177.07 152.865C179.34 150.405 181.79 150.645 183.41 153.565C184.655 155.89 186.499 157.841 188.75 159.215C190.22 160.105 191.75 160.905 193.19 161.845C195.35 163.245 196.04 165.335 194.79 167.455C193.065 170.668 190.496 173.351 187.36 175.215C186.102 175.899 184.705 176.288 183.275 176.355C181.844 176.422 180.417 176.164 179.1 175.6C177.784 175.036 176.612 174.181 175.674 173.099C174.735 172.018 174.053 170.737 173.68 169.355C173.47 168.662 173.32 167.953 173.23 167.235C173.184 166.512 173.177 165.788 173.21 165.065V165.065ZM180.93 161.765C179.75 163.505 179.62 167.055 180.7 168.545C180.885 168.831 181.124 169.077 181.405 169.27C181.685 169.463 182.002 169.597 182.335 169.666C182.668 169.735 183.012 169.737 183.346 169.671C183.68 169.606 183.998 169.474 184.28 169.285C185.563 168.62 186.579 167.536 187.16 166.215L180.93 161.765Z" fill="#3558A2"/>
<path d="M196.07 155.635C195.207 155.625 194.383 155.274 193.777 154.66C193.17 154.046 192.83 153.218 192.83 152.355C192.92 151.496 193.314 150.697 193.941 150.103C194.568 149.509 195.387 149.158 196.25 149.115C197.114 149.136 197.938 149.479 198.562 150.076C199.185 150.674 199.563 151.483 199.62 152.345C199.616 152.798 199.519 153.246 199.335 153.66C199.152 154.074 198.886 154.447 198.554 154.755C198.221 155.063 197.83 155.3 197.403 155.451C196.976 155.603 196.522 155.665 196.07 155.635V155.635Z" fill="#3558A2"/>
<path d="M190.42 145.805C190.394 146.626 190.048 147.405 189.456 147.975C188.863 148.545 188.072 148.861 187.25 148.855C186.47 148.838 185.726 148.524 185.168 147.978C184.611 147.432 184.283 146.695 184.25 145.915C184.25 144.455 185.84 143.115 187.64 143.035C188.372 143.048 189.07 143.344 189.588 143.86C190.106 144.376 190.405 145.074 190.42 145.805V145.805Z" fill="#3558A2"/>
<path d="M139.72 200.465C139.712 199.743 139.752 199.022 139.84 198.305C139.925 197.621 140.249 196.989 140.753 196.519C141.258 196.049 141.911 195.772 142.6 195.735C143.325 195.595 144.077 195.743 144.695 196.149C145.313 196.554 145.749 197.184 145.91 197.905C146.246 199.313 146.414 200.757 146.41 202.205C146.485 205.871 145.35 209.46 143.18 212.415C142.219 213.863 140.853 214.995 139.252 215.669C137.651 216.343 135.886 216.53 134.18 216.205C130.77 215.735 127.61 214.875 124.94 212.655C124.226 212.076 123.593 211.403 123.06 210.655C122.64 210.084 122.428 209.387 122.458 208.679C122.487 207.971 122.757 207.294 123.223 206.759C123.689 206.225 124.322 205.865 125.019 205.739C125.717 205.613 126.436 205.728 127.06 206.065C127.79 206.428 128.477 206.87 129.11 207.385C130.712 208.586 132.609 209.332 134.6 209.545C135.31 209.709 136.055 209.62 136.707 209.293C137.359 208.967 137.876 208.422 138.17 207.755C139.444 205.55 139.986 202.998 139.72 200.465V200.465Z" fill="#3558A2"/>
<path d="M121.211 199.545C121.228 198.699 121.567 197.891 122.159 197.286C122.75 196.681 123.55 196.323 124.395 196.286C125.241 196.249 126.068 196.536 126.71 197.087C127.352 197.639 127.76 198.414 127.851 199.255C127.847 200.163 127.494 201.035 126.865 201.69C126.235 202.346 125.379 202.734 124.471 202.775C124.043 202.783 123.618 202.705 123.221 202.546C122.824 202.387 122.463 202.15 122.159 201.849C121.855 201.548 121.614 201.189 121.452 200.793C121.289 200.397 121.207 199.973 121.211 199.545V199.545Z" fill="#3558A2"/>
<path d="M136.561 193.975C136.561 194.376 136.481 194.773 136.325 195.142C136.169 195.511 135.941 195.845 135.654 196.125C135.367 196.405 135.026 196.624 134.653 196.77C134.28 196.916 133.881 196.986 133.481 196.975C133.053 196.997 132.626 196.932 132.224 196.784C131.822 196.636 131.454 196.409 131.142 196.116C130.83 195.823 130.581 195.47 130.409 195.078C130.237 194.686 130.145 194.263 130.141 193.835C130.146 192.972 130.487 192.144 131.092 191.528C131.696 190.912 132.517 190.556 133.381 190.535C134.245 190.605 135.052 190.998 135.641 191.635C136.23 192.272 136.558 193.107 136.561 193.975V193.975Z" fill="#3558A2"/>
<path d="M140.221 142.555C139.683 145.143 138.971 147.692 138.091 150.185C135.571 156.185 128.991 157.845 123.581 154.235C119.581 151.545 117.461 147.685 116.251 143.175C116.045 142.522 116.017 141.826 116.168 141.159C116.319 140.491 116.644 139.876 117.111 139.375C117.499 138.956 117.99 138.647 118.535 138.478C119.08 138.31 119.66 138.288 120.217 138.414C120.773 138.541 121.287 138.812 121.705 139.2C122.124 139.588 122.433 140.079 122.601 140.625C123.161 142.045 123.531 143.555 124.101 144.975C124.772 146.688 126.05 148.094 127.691 148.925C129.621 149.925 131.141 149.545 131.851 147.505C132.452 145.518 132.907 143.489 133.211 141.435C133.331 140.825 133.211 140.165 133.291 139.545C133.343 138.843 133.63 138.18 134.106 137.662C134.582 137.144 135.22 136.803 135.914 136.693C136.609 136.583 137.321 136.711 137.934 137.056C138.547 137.401 139.025 137.944 139.291 138.595C139.699 139.89 140.01 141.213 140.221 142.555V142.555Z" fill="#3558A2"/>
<path d="M124.141 131.674C124.147 132.125 124.062 132.573 123.892 132.991C123.722 133.409 123.471 133.789 123.152 134.108C122.834 134.428 122.455 134.68 122.037 134.851C121.62 135.023 121.172 135.109 120.721 135.105C119.818 135.18 118.921 134.901 118.221 134.326C117.521 133.751 117.072 132.925 116.971 132.024C116.962 131.552 117.047 131.082 117.222 130.642C117.397 130.203 117.658 129.802 117.99 129.465C118.321 129.128 118.717 128.86 119.153 128.678C119.59 128.496 120.058 128.403 120.531 128.404C121.44 128.374 122.325 128.698 122.998 129.308C123.672 129.919 124.082 130.767 124.141 131.674V131.674Z" fill="#3558A2"/>
<path d="M132.259 133.715C131.831 133.741 131.402 133.68 130.998 133.537C130.594 133.394 130.222 133.172 129.905 132.883C129.588 132.594 129.332 132.244 129.153 131.855C128.973 131.465 128.873 131.044 128.859 130.615C128.844 130.185 128.917 129.757 129.075 129.357C129.232 128.957 129.47 128.594 129.774 128.29C130.078 127.986 130.442 127.748 130.842 127.59C131.242 127.433 131.67 127.36 132.099 127.375C132.96 127.42 133.774 127.78 134.387 128.387C134.999 128.994 135.367 129.805 135.419 130.665C135.386 131.482 135.039 132.255 134.45 132.823C133.862 133.391 133.077 133.711 132.259 133.715V133.715Z" fill="#3558A2"/>
<path d="M176.861 94.704C176.869 94.9929 176.825 95.2809 176.731 95.554C175.201 98.774 173.461 101.834 169.981 103.384C166.501 104.934 161.751 103.724 159.101 100.674C157.319 98.6071 156.039 96.1568 155.361 93.514C155.182 92.8119 155.138 92.0824 155.231 91.3639C155.315 90.639 155.641 89.9636 156.157 89.4466C156.672 88.9296 157.346 88.6011 158.071 88.5139C158.751 88.4516 159.434 88.5994 160.028 88.9374C160.621 89.2753 161.097 89.7872 161.391 90.404C161.671 90.974 161.771 91.6239 162.031 92.194C162.486 93.3711 163.045 94.5056 163.701 95.584C165.341 97.944 167.241 97.944 168.911 95.644C169.651 94.644 170.181 93.4539 170.911 92.4239C171.333 91.8257 171.945 91.3877 172.647 91.1808C173.35 90.9738 174.102 91.0102 174.781 91.284C175.446 91.5595 176.005 92.0393 176.379 92.6542C176.753 93.269 176.922 93.987 176.861 94.704V94.704Z" fill="#3558A2"/>
<path d="M170.24 82.7745C170.267 82.3439 170.381 81.9233 170.574 81.5376C170.767 81.1518 171.036 80.8089 171.364 80.5291C171.693 80.2492 172.074 80.0383 172.485 79.9086C172.897 79.779 173.33 79.7333 173.76 79.7744C174.623 79.898 175.41 80.3397 175.965 81.0131C176.52 81.6865 176.803 82.543 176.76 83.4145C176.646 84.2325 176.229 84.978 175.592 85.5038C174.955 86.0296 174.144 86.2975 173.32 86.2546C172.887 86.2344 172.462 86.1276 172.072 85.9405C171.681 85.7534 171.331 85.4899 171.044 85.1654C170.757 84.8409 170.538 84.4621 170.4 84.0514C170.261 83.6408 170.207 83.2066 170.24 82.7745V82.7745Z" fill="#3558A2"/>
<path d="M164.321 81.3458C164.316 82.16 164.005 82.9423 163.449 83.5371C162.893 84.132 162.133 84.4957 161.321 84.556C160.462 84.5779 159.628 84.2626 158.999 83.6776C158.369 83.0926 157.993 82.2844 157.951 81.4258C157.941 80.5797 158.267 79.7641 158.858 79.1583C159.448 78.5525 160.255 78.2062 161.101 78.1956C161.947 78.185 162.763 78.5109 163.369 79.1017C163.975 79.6925 164.321 80.4997 164.331 81.3458H164.321Z" fill="#3558A2"/>
<path d="M180.931 161.766L187.161 166.216C186.579 167.538 185.563 168.621 184.281 169.286C183.998 169.475 183.681 169.607 183.347 169.672C183.012 169.738 182.669 169.736 182.335 169.667C182.002 169.598 181.686 169.464 181.405 169.271C181.124 169.079 180.885 168.832 180.701 168.546C179.621 167.056 179.751 163.506 180.931 161.766Z" fill="#979FBB"/>
</svg>
