<svg width="300" height="300" viewBox="0 0 300 300" fill="none" xmlns="http://www.w3.org/2000/svg">
<path d="M136.327 210.504C132.027 211.064 127.997 211.584 123.967 212.124L97.5674 215.684L71.7274 219.204C70.2874 219.394 68.8474 219.564 67.4174 219.794C63.5274 220.404 61.3275 218.934 60.6575 214.994C60.0775 211.594 59.7275 208.164 59.2875 204.744C57.1475 188.19 55.0175 171.637 52.8975 155.084C50.9975 140.231 49.1041 125.381 47.2174 110.534C45.8674 100.014 44.5174 89.5338 43.1074 78.9638C42.4674 74.1738 44.6975 71.3738 49.5275 70.8538C58.6275 69.8538 67.7174 68.7539 76.8174 67.7239C85.5474 66.7239 94.2975 65.8038 103.037 64.7938C111.777 63.7838 120.317 62.7938 128.967 61.7938C135.967 60.9838 142.967 60.2338 150.047 59.4338C158.777 58.4338 167.507 57.4338 176.247 56.4338C183.247 55.6238 190.247 54.8538 197.327 54.0538C204.527 53.2238 211.727 52.3638 218.937 51.5438C223.077 51.0738 227.267 50.8638 231.367 50.1438C236.947 49.1438 239.997 53.5338 240.017 57.8638C240.017 65.4438 241.687 72.7838 242.617 80.2338C243.617 88.4938 244.887 96.7438 246.047 104.994C247.441 114.867 248.831 124.734 250.217 134.594C251.551 144.281 252.884 153.974 254.217 163.674C255.357 171.927 256.511 180.18 257.677 188.434C258.187 192.024 256.927 194.014 253.307 194.584C247.037 195.584 240.747 196.384 234.467 197.244C225.757 198.434 217.037 199.594 208.327 200.774C203.567 201.441 198.811 202.087 194.057 202.714C193.057 202.854 192.147 203.084 191.107 203.294C190.673 208.246 191.254 213.235 192.817 217.954C193.323 218.895 194.166 219.609 195.177 219.954C197.937 221.074 200.877 221.794 203.577 223.054C205.469 223.909 207.17 225.137 208.577 226.664C211.387 229.864 210.687 234.094 207.247 236.664C204.572 238.549 201.488 239.773 198.247 240.234C184.387 242.554 170.527 244.914 156.627 246.984C149.177 248.094 141.627 248.744 134.157 249.384C131.447 249.487 128.733 249.39 126.037 249.094C125.318 249.013 124.619 248.799 123.977 248.464C119.467 246.324 118.697 241.244 122.527 238.054C125.638 235.409 128.893 232.939 132.277 230.654C133.879 229.69 135.173 228.291 136.008 226.619C136.844 224.948 137.187 223.073 136.997 221.214C136.787 217.714 136.567 214.374 136.327 210.504ZM64.1074 185.284L246.367 159.284C241.587 125.154 236.827 91.2338 232.047 57.1538L50.3274 78.0438C54.9374 113.904 59.5074 149.494 64.1074 185.284V185.284ZM67.6174 212.504L250.357 187.734C249.357 180.574 248.357 173.644 247.357 166.504L65.0074 192.334C65.8974 199.184 66.7274 205.724 67.6174 212.504V212.504ZM183.067 204.134L143.787 209.454C143.787 211.184 143.787 212.614 143.787 214.044C143.877 216.854 144.097 219.654 144.127 222.464C144.216 225.061 143.638 227.637 142.449 229.947C141.261 232.257 139.501 234.226 137.337 235.664C135.337 237.097 133.364 238.544 131.417 240.004C130.727 240.514 130.097 241.104 129.017 242.004C129.705 242.118 130.4 242.185 131.097 242.204C139.847 241.334 148.637 240.744 157.327 239.484C170.327 237.614 183.247 235.304 196.197 233.114C198.387 232.744 200.657 232.414 202.777 230.614C201.707 230.084 200.897 229.614 200.017 229.254C197.567 228.334 195.107 227.384 192.607 226.624C190.787 226.18 189.14 225.201 187.882 223.812C186.623 222.424 185.81 220.689 185.547 218.834C184.727 214.134 183.947 209.384 183.067 204.134Z" fill="#3558A2"/>
<path d="M64.1062 185.285C59.5062 149.495 54.9362 113.905 50.3262 78.0453L232.046 57.1953C236.826 91.2753 241.586 125.195 246.366 159.325L64.1062 185.285ZM90.6362 128.135C91.6362 127.045 92.3362 126.295 93.0562 125.615C100.023 119.115 106.996 112.619 113.976 106.125C114.797 105.409 115.55 104.619 116.226 103.765C116.765 103.138 117.062 102.338 117.062 101.51C117.062 100.683 116.765 99.8829 116.226 99.2553C115.675 98.6356 114.912 98.2439 114.087 98.157C113.262 98.0701 112.435 98.2941 111.766 98.7853C110.845 99.3599 109.987 100.03 109.206 100.785C100.753 108.632 92.3129 116.489 83.8862 124.355C83.4262 124.795 82.9563 125.225 82.5363 125.695C80.5963 127.865 80.5362 129.885 82.6362 131.915C83.7751 133.067 85.1695 133.934 86.7062 134.445C98.2162 137.695 109.766 140.795 121.306 143.935C122.002 144.137 122.722 144.242 123.446 144.245C124.198 144.254 124.932 144.013 125.532 143.559C126.132 143.105 126.564 142.465 126.759 141.738C126.955 141.012 126.904 140.241 126.614 139.547C126.324 138.853 125.811 138.276 125.156 137.905C124.207 137.401 123.199 137.015 122.156 136.755C116.156 135.085 110.096 133.455 104.066 131.805L90.6362 128.135ZM203.286 111.255C202.086 112.255 201.416 112.835 200.716 113.385C193.023 119.465 185.333 125.549 177.646 131.635C176.78 132.29 176 133.053 175.326 133.905C174.865 134.47 174.613 135.176 174.613 135.905C174.613 136.634 174.865 137.341 175.326 137.905C175.746 138.518 176.374 138.957 177.093 139.141C177.812 139.325 178.574 139.241 179.236 138.905C180.306 138.423 181.314 137.812 182.236 137.085C191.503 129.799 200.76 122.465 210.006 115.085C213.596 112.235 213.626 109.595 210.096 106.625C209.256 105.941 208.306 105.403 207.286 105.035C196.386 101.035 185.476 97.0686 174.556 93.1353C173.538 92.7628 172.469 92.547 171.386 92.4953C170.695 92.4382 170.006 92.6222 169.435 93.016C168.865 93.4098 168.448 93.9891 168.256 94.6553C167.987 95.2922 167.94 96.0008 168.121 96.668C168.302 97.3351 168.702 97.9222 169.256 98.3353C170.118 98.9912 171.076 99.5105 172.096 99.8753C181.203 103.209 190.323 106.542 199.456 109.875C200.566 110.325 201.666 110.705 203.286 111.285V111.255ZM163.726 84.7953C163.576 82.9153 162.916 81.6753 161.366 81.1353C160.681 80.8619 159.923 80.8319 159.219 81.0503C158.514 81.2687 157.906 81.7224 157.496 82.3353C156.9 83.238 156.435 84.2212 156.116 85.2553C148.23 107.215 140.356 129.182 132.496 151.155C132.159 151.993 131.914 152.865 131.766 153.755C131.661 154.526 131.818 155.31 132.211 155.981C132.605 156.652 133.212 157.171 133.936 157.455C134.654 157.764 135.458 157.807 136.205 157.578C136.953 157.35 137.594 156.863 138.016 156.205C138.516 155.453 138.916 154.64 139.206 153.785C147.14 131.645 155.056 109.505 162.956 87.3653C163.256 86.4353 163.496 85.4753 163.726 84.7953Z" fill="white"/>
<path d="M67.6178 212.504C66.7378 205.724 65.8978 199.184 65.0078 192.334L247.368 166.504C248.368 173.644 249.368 180.574 250.368 187.734L67.6178 212.504Z" fill="#CBCFDD"/>
<path d="M183.067 204.135C183.947 209.405 184.707 214.135 185.557 218.835C185.82 220.69 186.633 222.425 187.892 223.813C189.15 225.202 190.796 226.181 192.617 226.625C195.117 227.385 197.617 228.335 200.027 229.255C200.907 229.585 201.717 230.085 202.787 230.615C200.667 232.415 198.397 232.745 196.207 233.115C183.207 235.305 170.337 237.615 157.337 239.485C148.647 240.745 139.857 241.335 131.107 242.205C130.41 242.186 129.715 242.119 129.027 242.005C130.107 241.105 130.737 240.515 131.427 240.005C133.387 238.545 135.361 237.098 137.347 235.665C139.511 234.226 141.271 232.258 142.459 229.948C143.648 227.638 144.225 225.061 144.137 222.465C144.137 219.655 143.887 216.855 143.797 214.045C143.797 212.615 143.797 211.185 143.797 209.455L183.067 204.135Z" fill="#979FBB"/>
<path d="M90.6373 128.135L103.997 131.815C109.997 133.465 116.067 135.095 122.087 136.765C123.13 137.025 124.138 137.411 125.087 137.915C125.742 138.286 126.255 138.863 126.545 139.557C126.835 140.251 126.886 141.022 126.691 141.748C126.495 142.475 126.063 143.115 125.463 143.569C124.863 144.023 124.129 144.264 123.377 144.255C122.653 144.252 121.933 144.148 121.237 143.945C109.697 140.805 98.1473 137.705 86.6373 134.455C85.1006 133.944 83.7061 133.077 82.5673 131.925C80.4473 129.925 80.5673 127.875 82.4673 125.705C82.8873 125.235 83.3573 124.805 83.8173 124.365C92.2573 116.505 100.697 108.649 109.137 100.795C109.918 100.04 110.776 99.3698 111.697 98.7951C112.366 98.3039 113.193 98.0799 114.018 98.1668C114.843 98.2537 115.606 98.6454 116.157 99.2652C116.697 99.8927 116.993 100.693 116.993 101.52C116.993 102.348 116.697 103.148 116.157 103.775C115.481 104.629 114.728 105.419 113.907 106.135C106.947 112.635 99.974 119.132 92.9873 125.625C92.3373 126.325 91.7273 127.075 90.6373 128.135Z" fill="#3558A2"/>
<path d="M203.287 111.285C201.667 110.705 200.567 110.285 199.487 109.925C190.367 106.592 181.247 103.259 172.127 99.9254C171.107 99.5606 170.149 99.0412 169.287 98.3854C168.732 97.9723 168.332 97.3852 168.151 96.718C167.97 96.0509 168.018 95.3422 168.287 94.7054C168.478 94.0391 168.895 93.4598 169.466 93.066C170.036 92.6723 170.725 92.4883 171.416 92.5453C172.499 92.597 173.568 92.8128 174.586 93.1854C185.507 97.1254 196.416 101.092 207.316 105.085C208.336 105.453 209.286 105.991 210.127 106.675C213.657 109.675 213.627 112.285 210.037 115.135C200.797 122.469 191.54 129.802 182.267 137.135C181.344 137.862 180.337 138.473 179.267 138.955C178.604 139.292 177.843 139.375 177.123 139.191C176.404 139.007 175.776 138.568 175.357 137.955C174.895 137.391 174.643 136.684 174.643 135.955C174.643 135.226 174.895 134.52 175.357 133.955C176.03 133.103 176.81 132.341 177.676 131.685C185.356 125.585 193.047 119.502 200.747 113.435C201.417 112.865 202.087 112.275 203.287 111.285Z" fill="#3558A2"/>
<path d="M163.726 84.7957C163.526 85.4757 163.286 86.4357 162.956 87.3657C155.043 109.506 147.126 131.646 139.206 153.786C138.916 154.64 138.516 155.454 138.016 156.206C137.594 156.863 136.953 157.35 136.206 157.579C135.458 157.808 134.654 157.764 133.936 157.456C133.212 157.171 132.605 156.652 132.211 155.981C131.818 155.31 131.661 154.526 131.766 153.756C131.914 152.865 132.159 151.993 132.496 151.156C140.356 129.156 148.23 107.189 156.116 85.2557C156.435 84.2216 156.9 83.2384 157.496 82.3357C157.906 81.7228 158.514 81.2691 159.219 81.0507C159.923 80.8323 160.681 80.8623 161.366 81.1357C162.886 81.6757 163.546 82.9157 163.726 84.7957Z" fill="#3558A2"/>
</svg>
