<svg width="300" height="300" viewBox="0 0 300 300" fill="none" xmlns="http://www.w3.org/2000/svg">
<path d="M83 146.173C83.11 144.023 83.4 139.963 83.46 135.903C83.4745 134.863 83.699 133.838 84.12 132.888C84.541 131.937 85.1499 131.082 85.9099 130.373C93.9099 122.073 101.91 113.713 109.83 105.373C120.177 94.5328 130.53 83.7028 140.89 72.8828C141.869 71.8137 142.974 70.8669 144.18 70.0628C146.66 68.4928 148.18 68.6428 150.3 70.6428C152.42 72.6428 154.58 74.8528 156.69 76.9628C172.743 93.0228 188.79 109.079 204.83 125.133C207.054 127.31 208.424 130.212 208.69 133.313C211.15 157.593 213.65 181.876 216.19 206.163C216.46 208.783 216.78 211.393 217.06 214.013C217.59 218.833 215.48 221.513 210.67 221.893C204.61 222.373 198.53 222.693 192.46 223.133C181.23 223.943 170.01 224.823 158.78 225.603C146.78 226.443 134.67 227.193 122.62 228.023C113.48 228.653 104.33 229.293 95.1899 230.023C88.7999 230.543 86.88 228.833 86.61 222.303C86.0433 208.256 85.4267 194.206 84.76 180.153C84.25 169.483 83.66 158.813 83 146.173ZM206.61 214.623L209.61 214.393C206.84 187.563 204.09 160.993 201.32 134.173L90.75 139.053C90.5051 140.34 90.3546 141.644 90.2999 142.953C90.6699 152.023 91.0999 161.083 91.5399 170.153C92.2799 185.553 93.0299 200.96 93.7899 216.373C93.8899 218.373 94.07 220.373 94.22 222.423L95.22 222.763C98.59 212.613 103.74 203.643 111.54 196.363C119.34 189.083 128.88 184.473 139.38 182.063C139.18 181.593 139.17 181.483 139.11 181.433C138.865 181.171 138.604 180.924 138.33 180.693C131.2 174.923 128.03 167.393 129.03 158.353C130.1 148.723 135.03 141.793 144.37 138.353C145.22 138.043 146.01 137.573 146.88 137.353C147.641 137.091 148.448 136.989 149.25 137.053C151.03 137.323 152.8 137.753 154.56 138.153C157.586 138.844 160.403 140.246 162.78 142.243C165.522 144.567 167.73 147.456 169.254 150.711C170.778 153.967 171.582 157.512 171.612 161.107C171.641 164.701 170.895 168.26 169.424 171.54C167.954 174.819 165.793 177.744 163.09 180.113C162.5 180.623 161.93 181.163 161.03 181.993C170.546 183.737 179.556 187.573 187.41 193.223C195.257 198.911 201.803 206.207 206.61 214.623V214.623ZM103.08 222.023L197.76 215.393C197.778 215.197 197.778 214.999 197.76 214.803C197.675 214.547 197.561 214.302 197.42 214.073C184.8 196.833 168.2 187.273 146.42 188.773C129.82 189.923 117.14 198.233 108.2 212.173C106.36 215.113 104.98 218.383 103.08 222.023ZM95.47 131.413L195.47 127.033L184.83 116.633C182.29 116.633 179.21 116.583 176.13 116.633C166.7 116.833 157.27 117.093 147.84 117.303C135.33 117.583 122.84 117.873 110.3 118.073C109.544 118.055 108.794 118.205 108.102 118.511C107.411 118.817 106.795 119.272 106.3 119.843C103.36 123.053 100.3 126.143 97.2999 129.293C96.7499 129.813 96.34 130.373 95.48 131.413H95.47ZM177.33 109.083C177.33 108.523 177.33 108.283 177.25 108.193C174.46 105.343 171.68 102.473 168.8 99.7028C168.16 99.2298 167.374 98.9962 166.58 99.0428C163.95 99.0428 161.33 99.2428 158.7 99.3128C148.09 99.6028 137.48 99.8528 126.87 100.173C125.987 100.156 125.123 100.438 124.42 100.973C121.42 103.973 118.54 107.123 115.63 110.243C115.57 110.313 115.63 110.553 115.74 110.843L177.33 109.083ZM140.19 150.083C134.39 155.913 134.75 170.083 144 175.533C146.202 176.83 148.749 177.423 151.298 177.232C153.847 177.041 156.276 176.074 158.26 174.463C166.51 167.993 165.39 153.803 158.71 148.693C152.92 153.643 146.65 152.633 140.2 150.123L140.19 150.083ZM146.32 77.9028L132.72 92.1728L133.01 92.6828L160.42 91.7828L146.32 77.9028Z" fill="#3558A2"/>
<path d="M206.61 214.622C201.804 206.21 195.262 198.918 187.42 193.232C179.578 187.587 170.582 183.752 161.08 182.002C161.98 181.172 162.55 180.632 163.14 180.122C165.843 177.753 168.003 174.828 169.474 171.548C170.945 168.268 171.691 164.71 171.661 161.116C171.632 157.521 170.828 153.975 169.304 150.72C167.779 147.465 165.571 144.576 162.83 142.252C160.453 140.255 157.635 138.853 154.61 138.162C152.85 137.762 151.08 137.332 149.3 137.062C148.497 136.998 147.691 137.1 146.93 137.362C146.06 137.612 145.27 138.082 144.42 138.362C135.06 141.762 130.15 148.692 129.08 158.362C128.08 167.362 131.25 174.932 138.38 180.702C138.654 180.933 138.914 181.18 139.16 181.442C139.22 181.492 139.23 181.602 139.43 182.072C128.93 184.482 119.5 188.982 111.59 196.372C103.68 203.762 98.5895 212.622 95.2695 222.772L94.2695 222.432C94.1195 220.432 93.9396 218.432 93.8396 216.382C93.0796 200.968 92.3296 185.562 91.5896 170.162C91.1496 161.092 90.7196 152.032 90.3496 142.962C90.4043 141.652 90.5546 140.349 90.7996 139.062L201.37 134.182C204.14 161.002 206.89 187.572 209.66 214.402L206.61 214.622Z" fill="white"/>
<path d="M103.08 222.021C104.97 218.381 106.35 215.111 108.23 212.171C117.17 198.231 129.85 189.921 146.45 188.771C168.2 187.271 184.8 196.831 197.45 214.071C197.591 214.3 197.705 214.545 197.79 214.801C197.809 214.997 197.809 215.195 197.79 215.391L103.08 222.021Z" fill="#979FBB"/>
<path d="M95.4785 131.412C96.3385 130.412 96.7485 129.812 97.2185 129.302C100.219 126.152 103.299 123.062 106.219 119.852C106.714 119.281 107.329 118.826 108.021 118.52C108.712 118.214 109.463 118.065 110.219 118.082C122.729 117.882 135.219 117.592 147.759 117.312C157.189 117.102 166.618 116.842 176.048 116.642C179.128 116.582 182.209 116.642 184.749 116.642L195.389 127.042L95.4785 131.412Z" fill="#EAECF1"/>
<path d="M177.34 109.082L115.75 110.812C115.69 110.522 115.58 110.282 115.64 110.212C118.55 107.092 121.43 103.952 124.43 100.942C125.133 100.406 125.997 100.125 126.88 100.142C137.49 99.8217 148.1 99.5717 158.71 99.2817C161.34 99.2117 163.96 99.0217 166.59 99.0117C167.385 98.9651 168.17 99.1986 168.81 99.6717C171.69 102.442 174.47 105.312 177.26 108.162C177.35 108.282 177.3 108.522 177.34 109.082Z" fill="#EAECF1"/>
<path d="M140.2 150.122C146.65 152.632 152.92 153.642 158.72 148.732C165.4 153.842 166.519 168.032 158.269 174.502C156.285 176.114 153.856 177.08 151.307 177.271C148.758 177.463 146.212 176.87 144.01 175.572C134.76 170.122 134.4 155.952 140.2 150.122ZM145.74 156.232C144.828 156.229 143.948 156.571 143.277 157.188C142.606 157.805 142.193 158.653 142.12 159.562C142.081 160.014 142.134 160.468 142.274 160.899C142.414 161.33 142.639 161.729 142.935 162.072C143.231 162.415 143.593 162.695 143.999 162.896C144.405 163.097 144.847 163.215 145.3 163.242C145.775 163.276 146.253 163.213 146.704 163.058C147.155 162.902 147.57 162.656 147.923 162.335C148.276 162.015 148.561 161.626 148.76 161.192C148.958 160.759 149.067 160.289 149.08 159.812C149.104 158.897 148.767 158.008 148.143 157.338C147.518 156.669 146.655 156.271 145.74 156.232V156.232ZM159.06 159.942C159.07 159.513 158.995 159.085 158.838 158.686C158.681 158.286 158.445 157.921 158.145 157.614C157.845 157.306 157.486 157.062 157.091 156.895C156.695 156.728 156.269 156.642 155.84 156.642C155.387 156.62 154.934 156.692 154.51 156.854C154.087 157.016 153.701 157.264 153.378 157.583C153.056 157.901 152.803 158.284 152.636 158.706C152.47 159.127 152.392 159.579 152.409 160.032C152.4 160.461 152.476 160.888 152.633 161.287C152.79 161.686 153.024 162.05 153.323 162.358C153.622 162.666 153.978 162.912 154.373 163.081C154.767 163.249 155.191 163.338 155.62 163.342C156.074 163.36 156.526 163.285 156.95 163.121C157.374 162.957 157.76 162.709 158.084 162.39C158.408 162.072 158.664 161.69 158.835 161.269C159.006 160.848 159.089 160.397 159.08 159.942H159.06Z" fill="white"/>
<path d="M146.328 77.9414L160.428 91.8215L133.018 92.7215L132.729 92.2115L146.328 77.9414Z" fill="#EAECF1"/>
<path d="M145.739 156.232C146.654 156.271 147.517 156.669 148.142 157.338C148.767 158.008 149.104 158.897 149.079 159.812C149.067 160.288 148.958 160.757 148.76 161.19C148.562 161.623 148.278 162.011 147.926 162.332C147.574 162.652 147.16 162.898 146.711 163.055C146.261 163.211 145.784 163.275 145.309 163.242C144.857 163.215 144.415 163.097 144.009 162.896C143.603 162.695 143.241 162.415 142.945 162.072C142.648 161.729 142.424 161.33 142.284 160.899C142.144 160.469 142.091 160.014 142.129 159.562C142.202 158.655 142.614 157.809 143.283 157.192C143.952 156.574 144.829 156.232 145.739 156.232Z" fill="#3558A2"/>
<path d="M159.08 159.941C159.09 160.393 159.007 160.843 158.837 161.263C158.667 161.682 158.414 162.063 158.092 162.381C157.77 162.699 157.386 162.948 156.965 163.113C156.543 163.278 156.093 163.356 155.64 163.341C155.211 163.337 154.787 163.248 154.393 163.079C153.999 162.91 153.642 162.664 153.343 162.356C153.045 162.049 152.81 161.684 152.654 161.285C152.497 160.886 152.421 160.46 152.43 160.031C152.413 159.578 152.49 159.126 152.657 158.704C152.824 158.282 153.077 157.9 153.399 157.581C153.722 157.262 154.107 157.014 154.531 156.852C154.954 156.69 155.407 156.618 155.86 156.641C156.29 156.641 156.715 156.726 157.111 156.893C157.507 157.06 157.866 157.304 158.166 157.612C158.466 157.919 158.701 158.284 158.858 158.684C159.015 159.084 159.091 159.511 159.08 159.941Z" fill="#3558A2"/>
</svg>
