<svg width="300" height="300" viewBox="0 0 300 300" fill="none" xmlns="http://www.w3.org/2000/svg">
<path d="M68.9245 197.361H65.3345C62.7945 197.361 60.2445 197.421 57.7245 197.221C52.4945 196.801 48.9844 193.971 47.1644 189.101C46.0565 186.494 45.73 183.621 46.2245 180.831C46.4208 179.704 46.94 178.658 47.7193 177.82C48.4985 176.982 49.5043 176.388 50.6144 176.111C51.848 175.812 53.1068 175.628 54.3744 175.561C59.6044 175.061 64.8345 174.561 70.0645 174.121C72.7745 173.871 75.4845 173.651 78.1945 173.391C79.1945 173.291 80.1945 173.051 81.1945 172.941C82.0844 172.814 82.9386 172.505 83.7041 172.033C84.4696 171.562 85.13 170.938 85.6444 170.201C87.4753 167.95 89.5216 165.884 91.7544 164.031C96.3144 160.281 102.645 160.471 106.235 165.861C106.448 166.067 106.679 166.255 106.924 166.421C115.924 164.351 125.164 162.151 133.924 157.521C132.624 155.221 131.354 153.161 130.254 151.001C129.71 149.77 129.249 148.504 128.874 147.211C128.504 146.211 128.194 145.211 127.764 144.211C127.334 143.211 126.764 142.291 126.314 141.291C125.224 138.571 125.954 136.431 128.524 135.111C129.812 134.443 131.18 133.942 132.595 133.621C138.254 132.361 143.944 131.261 149.594 129.991C157.204 128.291 164.794 126.481 172.384 124.701C179.534 123.031 186.664 121.251 193.844 119.701C194.865 119.562 195.83 119.158 196.646 118.53C197.462 117.902 198.099 117.072 198.494 116.121C200.294 112.121 202.625 108.471 203.735 104.181C204.744 100.216 205.082 96.1087 204.735 92.0313C204.445 88.2413 203.894 84.4613 203.524 80.6713C203.024 75.4413 203.784 70.5314 207.314 66.3514C210.844 62.1714 216.144 61.6614 220.314 65.3514C223.314 68.0414 224.964 71.5814 226.114 75.3514C227.128 79.1199 227.673 82.9992 227.735 86.9013C227.735 87.6213 227.794 88.3313 227.834 89.1813C228.994 89.1113 229.404 88.1813 230.024 87.6613C232.844 85.2113 235.574 84.9313 238.754 86.8813C239.994 87.6313 241.184 88.4713 242.344 89.3413C243.381 90.0266 244.146 91.0504 244.511 92.2378C244.876 93.4252 244.817 94.7026 244.344 95.8513C243.673 97.7309 242.901 99.5733 242.034 101.371C241.034 103.501 239.944 105.571 238.664 108.121C239.864 107.941 240.664 107.871 241.374 107.701C242.784 107.361 244.164 106.881 245.584 106.591C249.874 105.701 252.834 108.181 252.984 112.591C253.354 123.241 252.115 133.661 247.985 143.521C242.675 156.181 234.884 166.931 222.844 174.131C214.609 178.985 205.512 182.198 196.054 183.591C189.964 184.591 183.884 185.591 177.664 185.491C170.064 185.381 162.884 183.891 156.404 179.741C155.951 179.482 155.484 179.248 155.004 179.041C149.734 181.871 144.004 183.331 138.524 185.411C139.024 190.731 136.434 194.871 133.904 198.921C130.225 204.551 125.921 209.747 121.074 214.411C118.574 216.921 115.934 219.271 113.384 221.731C112.074 222.991 110.784 224.271 109.564 225.611C107.025 228.35 105.183 231.66 104.194 235.261C103.024 239.551 101.734 243.801 100.594 248.091C100.435 248.946 100.001 249.726 99.359 250.312C98.7166 250.899 97.9005 251.26 97.0344 251.341C93.0344 251.901 89.1244 252.551 85.1544 252.871C79.3744 253.351 73.5644 253.581 67.7644 253.871C66.6781 253.939 65.5881 253.923 64.5044 253.821C61.7144 253.521 59.7744 251.731 60.0344 248.951C60.4944 243.951 59.4145 239.061 59.4545 234.071C59.6009 223.705 61.8354 213.474 66.0244 203.991C66.9244 201.881 67.8345 199.851 68.9245 197.361ZM134.054 140.631C134.464 141.801 134.824 142.711 135.054 143.631C135.247 144.694 135.531 145.738 135.904 146.751C140.767 156.12 147.588 164.332 155.904 170.831C161.931 175.766 169.517 178.396 177.304 178.251C186.738 178.09 196.107 176.671 205.164 174.031C211.466 172.24 217.406 169.36 222.714 165.521C229.834 160.351 234.984 153.451 238.994 145.731C243.994 136.191 245.884 125.931 245.694 115.231C245.625 114.787 245.497 114.353 245.314 113.941C208.644 124.131 171.464 132.071 134.095 140.671L134.054 140.631ZM66.6544 246.481H69.7544C76.9244 246.381 84.0545 245.781 91.1845 245.001C91.983 245.015 92.7595 244.739 93.37 244.224C93.9805 243.709 94.3835 242.99 94.5044 242.201C95.5544 238.541 96.8244 234.941 97.9044 231.291C98.7547 228.608 100.06 226.091 101.764 223.851C104.764 219.611 108.764 216.261 112.514 212.701C118.061 207.582 123.043 201.883 127.374 195.701C129.164 193.217 130.47 190.418 131.225 187.451C130.305 187.551 129.594 187.561 128.914 187.701C126.784 188.121 124.684 188.761 122.534 189.001C116.954 189.611 111.354 190.111 105.754 190.541C104.314 190.651 103.394 191.041 102.914 192.491C102.518 193.607 101.984 194.668 101.324 195.651C100.891 196.352 100.224 196.877 99.4404 197.134C98.6571 197.39 97.8083 197.361 97.0444 197.051C96.2898 196.735 95.6768 196.154 95.3213 195.417C94.9658 194.68 94.8921 193.838 95.1144 193.051C95.2173 192.609 95.351 192.175 95.5144 191.751C96.7344 188.531 98.0045 185.321 99.1845 182.091C100.28 179.003 100.778 175.735 100.654 172.461C100.654 171.111 100.565 169.581 99.1045 168.921C97.6445 168.261 96.5345 169.291 95.4545 170.141C91.9726 172.944 89.2638 176.589 87.5845 180.731C85.0509 186.558 81.8279 192.061 77.9845 197.121C75.9216 199.989 74.1526 203.058 72.7045 206.281C70.0261 211.944 68.1867 217.968 67.2444 224.161C66.5545 229.652 66.3538 235.194 66.6444 240.721C66.7344 242.491 66.6945 244.271 66.6945 246.481H66.6544ZM106.485 183.481C121.285 183.381 134.934 179.161 148.654 174.481L138.174 163.421C128.674 168.311 118.514 171.261 108.084 173.281C107.594 176.671 107.094 179.841 106.524 183.441L106.485 183.481ZM206.224 116.691C209.034 116.041 211.224 116.111 212.614 113.691C217.974 103.871 221.614 93.6912 220.154 82.2413C219.835 78.4238 218.495 74.7626 216.274 71.6413C214.754 69.6413 213.434 69.7514 212.014 71.8514C210.719 73.8493 210.157 76.2351 210.424 78.6014C210.604 81.0414 210.914 83.4813 211.204 85.9113C211.821 90.4005 211.968 94.9416 211.644 99.4613C211.19 104.542 209.764 109.488 207.444 114.031C207.124 114.671 206.834 115.391 206.264 116.671L206.224 116.691ZM53.3445 183.021C53.1545 187.641 55.2345 190.241 59.4845 190.261C63.7345 190.281 67.8045 189.971 71.9545 189.651C73.1221 189.501 74.2421 189.094 75.2345 188.461C76.5345 187.681 79.0344 182.731 79.4144 180.461L53.3445 183.021ZM221.284 113.131C223.404 112.601 225.034 112.131 226.684 111.801C227.35 111.67 227.975 111.384 228.51 110.967C229.045 110.55 229.474 110.014 229.764 109.401C231.984 105.161 234.254 100.941 236.404 96.6613C237.464 94.5513 237.184 94.1613 234.814 93.2813C233.134 94.5713 231.664 96.3913 229.814 96.9513C226.754 97.8913 225.704 99.8512 224.954 102.631C224.064 105.961 222.694 109.211 221.324 113.091L221.284 113.131Z" fill="#3558A2"/>
<path d="M157.345 81.3518C158.125 80.1618 158.855 79.0317 159.595 77.9117C160.195 77.0117 160.775 76.0718 161.445 75.2218C161.801 74.6894 162.258 74.2324 162.791 73.8772C163.323 73.522 163.921 73.2755 164.549 73.152C165.177 73.0284 165.823 73.0301 166.451 73.1571C167.078 73.284 167.675 73.5336 168.205 73.8917C171.231 75.7333 173.9 78.1044 176.085 80.8917C179.085 84.6818 181.645 88.6518 182.695 93.5418C183.865 98.9718 182.555 103.822 179.955 108.432C178.828 110.295 177.522 112.043 176.055 113.652C172.465 117.832 167.715 119.542 162.355 120.032C158.092 120.379 153.803 119.799 149.785 118.332C148.418 117.85 147.135 117.155 145.985 116.272C145.097 115.625 144.403 114.747 143.98 113.733C143.557 112.719 143.42 111.608 143.585 110.522C143.614 109.793 143.749 109.072 143.985 108.382C145.085 105.902 144.065 104.382 141.985 102.942C139.632 101.24 137.378 99.4032 135.235 97.4419C132.105 94.6318 131.725 92.7919 133.235 88.9819C134.325 86.2918 135.365 83.5718 136.675 80.9818C138.535 77.3418 141.055 76.1418 145.005 77.1818C148.415 78.0818 151.705 79.4218 155.005 80.5618L157.345 81.3518ZM143.445 84.1018C141.675 85.9418 141.445 88.2018 140.545 90.1718C139.645 92.1418 139.795 92.0718 141.365 93.3618C144.105 95.6018 146.825 97.8619 149.675 99.9619C152.095 101.742 152.615 103.962 151.815 106.672C151.535 107.672 151.275 108.592 151.035 109.562C150.942 109.797 150.906 110.05 150.928 110.302C150.951 110.554 151.032 110.797 151.165 111.011C151.298 111.226 151.479 111.407 151.695 111.539C151.91 111.671 152.153 111.751 152.405 111.772C154.241 112.275 156.108 112.652 157.995 112.902C162.135 113.222 166.205 112.902 169.585 110.102C171.706 108.239 173.41 105.949 174.585 103.382C175.646 101.303 176.139 98.9816 176.014 96.6514C175.889 94.3213 175.152 92.0652 173.875 90.1117C172.155 87.2717 169.745 84.8518 167.595 82.2918C167.065 81.8384 166.477 81.4584 165.845 81.1618C165.063 82.4448 164.417 83.8055 163.915 85.2218C163.335 87.5718 161.845 88.4218 159.635 88.6918C158.021 88.9617 156.364 88.7817 154.845 88.1718C152.595 87.1718 150.305 86.3217 148.005 85.4917C146.495 84.9417 144.925 84.5418 143.445 84.1018Z" fill="#3558A2"/>
<path d="M195.245 79.801C195.146 81.8102 194.943 83.8129 194.635 85.801C193.935 89.391 190.895 90.5309 187.915 88.3709C187.058 87.7068 186.335 86.8856 185.785 85.951C182.035 79.851 178.335 73.711 174.625 67.5811C172.495 64.0611 170.785 60.4011 170.445 56.2011C169.875 49.3711 176.345 45.2011 181.715 47.7611C185.945 49.7611 188.715 53.1211 190.935 57.0611C193.155 61.0011 193.935 65.611 194.455 70.111C194.835 73.031 194.925 76.021 195.245 79.801ZM186.875 74.2211L187.405 73.8411C187.498 73.3366 187.531 72.8232 187.505 72.311C186.995 69.371 186.615 66.391 185.865 63.511C185.067 60.3112 183.24 57.4621 180.665 55.4011C179.905 54.7911 179.155 54.021 177.725 54.761C177.685 55.6724 177.752 56.5855 177.925 57.4811C178.37 59.0496 178.984 60.565 179.755 62.001C181.905 65.781 184.205 69.4811 186.435 73.2111C186.621 73.5363 186.785 73.8737 186.925 74.2211H186.875Z" fill="#3558A2"/>
<path d="M107.925 95.4015C107.559 96.211 107.124 96.9873 106.625 97.7216C101.065 105.062 99.3349 113.392 100.305 122.382C100.505 124.252 101.305 126.052 101.645 127.912C101.797 128.488 101.788 129.096 101.619 129.668C101.449 130.24 101.127 130.754 100.685 131.155C100.244 131.557 99.7009 131.829 99.1154 131.943C98.5299 132.057 97.9244 132.008 97.3648 131.802C96.4476 131.449 95.688 130.778 95.2249 129.912C94.4029 128.294 93.8169 126.566 93.4849 124.782C91.6649 113.622 93.8449 103.322 100.485 94.0816C101.138 93.2151 101.913 92.4471 102.785 91.8015C103.302 91.4168 103.93 91.209 104.575 91.209C105.22 91.209 105.847 91.4168 106.365 91.8015C107.525 92.5115 107.995 93.5315 107.925 95.4015Z" fill="#3558A2"/>
<path d="M90.4047 84.4902C92.9047 84.4902 94.4046 86.0003 94.2546 87.8303C94.1335 88.9104 93.7413 89.9423 93.1146 90.8303C88.553 97.4541 86.1118 105.308 86.1146 113.35C86.1602 114.436 86.2705 115.518 86.4447 116.59C86.6747 118.72 85.7046 120.42 83.9946 120.91C82.1046 121.44 80.4546 120.47 79.6346 118.22C79.3228 117.372 79.1375 116.482 79.0847 115.58C78.585 106.27 80.8836 97.0229 85.6847 89.0303C86.3018 87.9293 87.0692 86.9196 87.9647 86.0303C88.7069 85.412 89.5272 84.8942 90.4047 84.4902V84.4902Z" fill="#3558A2"/>
<path d="M154.534 57.9722C154.506 58.8797 154.128 59.7411 153.479 60.3765C152.831 61.012 151.962 61.3723 151.054 61.3822C150.146 61.347 149.286 60.9679 148.647 60.3216C148.008 59.6754 147.639 58.8104 147.614 57.9021C147.574 57.4517 147.63 56.9979 147.779 56.5708C147.928 56.1438 148.166 55.7533 148.477 55.4252C148.788 55.097 149.165 54.8388 149.584 54.6676C150.002 54.4963 150.452 54.416 150.904 54.432C151.379 54.4084 151.854 54.4832 152.299 54.6516C152.745 54.82 153.15 55.0784 153.491 55.4106C153.832 55.7429 154.1 56.1418 154.279 56.5826C154.459 57.0233 154.546 57.4964 154.534 57.9722V57.9722Z" fill="#3558A2"/>
<path d="M128.094 100.891C128.544 100.885 128.991 100.97 129.408 101.14C129.825 101.311 130.203 101.562 130.521 101.881C130.839 102.2 131.09 102.579 131.259 102.997C131.427 103.414 131.511 103.861 131.504 104.311C131.518 104.784 131.435 105.255 131.26 105.696C131.085 106.136 130.821 106.535 130.486 106.87C130.151 107.204 129.75 107.466 129.31 107.64C128.869 107.814 128.398 107.896 127.924 107.881C127.063 107.873 126.24 107.524 125.635 106.912C125.03 106.299 124.692 105.472 124.694 104.611C124.657 104.14 124.717 103.666 124.871 103.219C125.025 102.772 125.268 102.362 125.587 102.013C125.906 101.664 126.293 101.385 126.724 101.192C127.155 100.999 127.622 100.896 128.094 100.891Z" fill="#3558A2"/>
<path d="M130.274 119.72C130.273 119.288 130.361 118.861 130.531 118.464C130.702 118.067 130.951 117.709 131.265 117.412C131.579 117.116 131.95 116.886 132.355 116.738C132.761 116.589 133.193 116.526 133.624 116.55C134.451 116.608 135.225 116.981 135.786 117.593C136.347 118.204 136.651 119.008 136.637 119.837C136.623 120.667 136.291 121.459 135.71 122.051C135.129 122.644 134.343 122.99 133.514 123.02C133.084 123.019 132.658 122.932 132.261 122.765C131.865 122.598 131.506 122.354 131.204 122.047C130.903 121.74 130.665 121.376 130.506 120.977C130.346 120.577 130.267 120.15 130.274 119.72V119.72Z" fill="#3558A2"/>
<path d="M134.094 140.672C171.464 132.112 208.644 124.172 245.434 114.002C245.616 114.413 245.744 114.847 245.814 115.292C246.004 125.992 244.074 136.292 239.114 145.792C235.114 153.512 229.954 160.412 222.834 165.582C217.525 169.421 211.585 172.301 205.284 174.092C196.226 176.732 186.857 178.152 177.424 178.312C169.636 178.457 162.051 175.826 156.024 170.892C147.707 164.393 140.886 156.18 136.024 146.812C135.65 145.799 135.366 144.755 135.174 143.692C134.864 142.672 134.504 141.802 134.094 140.672ZM234.944 131.922C234.944 129.692 234.164 128.542 232.734 128.052C232.003 127.798 231.207 127.802 230.479 128.064C229.751 128.326 229.135 128.83 228.734 129.492C228.429 129.941 228.171 130.42 227.964 130.922C227.304 132.422 226.744 133.922 226.034 135.422C222.674 142.422 218.434 148.612 211.544 152.632C210.641 153.221 209.875 153.995 209.294 154.902C208.98 155.413 208.841 156.012 208.897 156.609C208.953 157.206 209.201 157.768 209.604 158.212C209.938 158.76 210.438 159.189 211.03 159.437C211.623 159.684 212.278 159.739 212.904 159.592C213.619 159.45 214.298 159.168 214.904 158.762C217.101 157.332 219.22 155.787 221.254 154.132C227.454 148.772 231.254 141.782 234.254 134.332C234.533 133.532 234.757 132.713 234.924 131.882L234.944 131.922ZM199.354 166.792L199.414 167.022C201.082 166.679 202.731 166.249 204.354 165.732C205.101 165.45 205.723 164.91 206.107 164.211C206.491 163.511 206.613 162.696 206.45 161.915C206.287 161.133 205.851 160.435 205.219 159.947C204.587 159.459 203.801 159.212 203.004 159.252C201.025 159.389 199.065 159.724 197.154 160.252C196.397 160.453 195.746 160.936 195.333 161.601C194.92 162.267 194.777 163.065 194.934 163.832C195.043 164.601 195.403 165.312 195.959 165.854C196.514 166.397 197.233 166.741 198.004 166.832C198.455 166.836 198.906 166.809 199.354 166.752V166.792Z" fill="white"/>
<path d="M66.6935 246.481C66.6935 244.271 66.6935 242.481 66.6935 240.721C66.4028 235.194 66.6036 229.653 67.2934 224.161C68.2357 217.968 70.075 211.945 72.7534 206.281C74.2015 203.059 75.9705 199.99 78.0334 197.121C81.8768 192.061 85.0998 186.559 87.6334 180.731C89.3127 176.589 92.0215 172.944 95.5034 170.141C96.5834 169.291 97.6734 168.241 99.1534 168.921C100.633 169.601 100.653 171.111 100.703 172.461C100.827 175.736 100.329 179.003 99.2335 182.091C98.0535 185.321 96.7834 188.531 95.5634 191.751C95.4 192.175 95.2664 192.609 95.1634 193.051C94.9412 193.839 95.0148 194.68 95.3703 195.417C95.7259 196.154 96.3388 196.735 97.0935 197.051C97.8573 197.361 98.7061 197.39 99.4895 197.134C100.273 196.878 100.94 196.352 101.373 195.651C102.033 194.668 102.567 193.607 102.963 192.491C103.443 191.041 104.363 190.651 105.803 190.541C111.403 190.111 117.003 189.611 122.583 189.001C124.733 188.761 126.833 188.121 128.963 187.701C129.643 187.561 130.353 187.551 131.273 187.451C130.519 190.419 129.213 193.217 127.423 195.701C123.092 201.883 118.11 207.582 112.563 212.701C108.823 216.261 104.863 219.611 101.813 223.851C100.109 226.092 98.8038 228.608 97.9535 231.291C96.8735 234.941 95.6034 238.541 94.5534 242.201C94.4326 242.991 94.0294 243.709 93.4189 244.224C92.8084 244.739 92.032 245.015 91.2335 245.001C84.1035 245.781 76.9734 246.381 69.8034 246.481H66.6935Z" fill="white"/>
<path d="M106.523 183.44C107.093 179.84 107.593 176.65 108.123 173.28C118.553 171.28 128.713 168.28 138.213 163.42L148.693 174.48C134.973 179.12 121.323 183.34 106.523 183.44Z" fill="#979FBB"/>
<path d="M206.264 116.671C206.834 115.411 207.124 114.671 207.484 113.971C209.803 109.428 211.229 104.482 211.684 99.4012C212.007 94.8815 211.86 90.3405 211.244 85.8513C210.954 83.4213 210.644 80.9813 210.464 78.5413C210.196 76.1751 210.758 73.7893 212.054 71.7913C213.474 69.6913 214.794 69.6014 216.314 71.5814C218.535 74.7026 219.875 78.3639 220.194 82.1813C221.644 93.6213 218.014 103.811 212.654 113.631C211.304 116.071 209.074 116.001 206.264 116.671Z" fill="#EAECF1"/>
<path d="M53.3845 182.981L79.4546 180.461C79.0746 182.691 76.5746 187.641 75.2746 188.461C74.2821 189.094 73.1621 189.501 71.9945 189.651C67.8445 189.971 63.6846 190.281 59.5246 190.261C55.3646 190.241 53.1945 187.601 53.3845 182.981Z" fill="#979FBB"/>
<path d="M221.324 113.09C222.694 109.21 224.064 105.96 224.994 102.59C225.744 99.8103 226.794 97.8503 229.854 96.9103C231.704 96.3503 233.174 94.5302 234.854 93.2402C237.224 94.1202 237.504 94.5102 236.444 96.6202C234.294 100.9 232.024 105.12 229.804 109.36C229.514 109.973 229.084 110.509 228.549 110.926C228.014 111.343 227.389 111.629 226.724 111.76C225.074 112.11 223.444 112.56 221.324 113.09Z" fill="#979FBB"/>
<path d="M143.444 84.1022C144.934 84.5422 146.444 84.9421 148.004 85.4921C150.304 86.3221 152.594 87.2222 154.844 88.1722C156.363 88.7821 158.02 88.9621 159.634 88.6922C161.844 88.4222 163.334 87.5722 163.914 85.2222C164.416 83.8059 165.063 82.4452 165.844 81.1621C166.476 81.4587 167.064 81.8388 167.594 82.2921C169.744 84.8521 172.154 87.2921 173.874 90.1121C175.151 92.0656 175.889 94.3217 176.013 96.6519C176.138 98.9821 175.645 101.304 174.584 103.382C173.409 105.949 171.705 108.239 169.584 110.102C166.204 112.942 162.134 113.222 157.994 112.902C156.108 112.653 154.24 112.275 152.404 111.772C152.153 111.751 151.909 111.671 151.694 111.539C151.479 111.407 151.297 111.226 151.164 111.012C151.031 110.797 150.95 110.554 150.927 110.302C150.905 110.051 150.941 109.797 151.034 109.562C151.274 108.562 151.534 107.622 151.814 106.672C152.614 103.952 152.094 101.742 149.674 99.9623C146.824 97.8623 144.104 95.6022 141.364 93.3622C139.794 92.0722 139.744 92.0022 140.544 90.1722C141.344 88.3422 141.674 85.9422 143.444 84.1022ZM166.814 100.292C169.284 100.382 170.684 99.5423 171.274 97.9623C171.509 97.3163 171.526 96.6115 171.324 95.9546C171.122 95.2977 170.711 94.7247 170.154 94.3223C168.108 92.9454 165.68 92.2458 163.214 92.3222C162.39 92.39 161.612 92.7322 161.004 93.2942C160.397 93.8561 159.996 94.6054 159.864 95.4222C159.739 96.1459 159.87 96.8908 160.235 97.5281C160.6 98.1654 161.176 98.655 161.864 98.9123C163.654 99.5423 165.524 99.9423 166.814 100.292V100.292ZM162.194 109.152C162.625 109.164 163.054 109.091 163.456 108.936C163.858 108.781 164.225 108.549 164.537 108.251C164.848 107.953 165.098 107.597 165.271 107.203C165.444 106.808 165.537 106.383 165.544 105.952C165.544 103.812 163.374 101.842 160.974 101.832C160.522 101.81 160.07 101.881 159.647 102.041C159.223 102.201 158.837 102.446 158.511 102.761C158.186 103.075 157.929 103.454 157.756 103.872C157.583 104.29 157.497 104.74 157.504 105.192C157.534 107.342 159.744 109.192 162.194 109.152Z" fill="#EAECF1"/>
<path d="M186.925 74.222C186.801 73.8794 186.654 73.5454 186.485 73.222C184.255 69.492 181.955 65.792 179.805 62.012C179.034 60.5759 178.42 59.0604 177.975 57.4919C177.802 56.5963 177.734 55.6834 177.775 54.772C179.205 54.032 179.955 54.772 180.715 55.412C183.29 57.473 185.117 60.3222 185.915 63.522C186.665 66.402 187.045 69.382 187.555 72.322C187.581 72.8342 187.548 73.3476 187.455 73.8521L186.925 74.222Z" fill="#979FBB"/>
<path d="M234.924 131.882C234.755 132.699 234.531 133.504 234.254 134.292C231.254 141.742 227.414 148.732 221.254 154.092C219.22 155.746 217.101 157.292 214.904 158.722C214.298 159.128 213.618 159.41 212.904 159.552C212.278 159.698 211.623 159.644 211.03 159.396C210.437 159.148 209.938 158.72 209.604 158.172C209.201 157.728 208.953 157.165 208.897 156.568C208.841 155.971 208.98 155.372 209.294 154.862C209.874 153.954 210.641 153.18 211.544 152.592C218.434 148.592 222.674 142.352 226.034 135.382C226.744 133.922 227.304 132.382 227.964 130.882C228.17 130.38 228.428 129.901 228.734 129.452C229.135 128.79 229.751 128.286 230.479 128.024C231.207 127.762 232.003 127.758 232.734 128.012C234.164 128.502 234.924 129.672 234.924 131.882Z" fill="#3558A2"/>
<path d="M199.355 166.75C198.905 166.78 198.454 166.78 198.005 166.75C197.234 166.659 196.515 166.315 195.96 165.772C195.404 165.23 195.044 164.519 194.935 163.75C194.779 162.983 194.921 162.185 195.334 161.519C195.747 160.854 196.398 160.371 197.155 160.17C199.066 159.642 201.026 159.307 203.005 159.17C203.802 159.13 204.588 159.377 205.22 159.865C205.852 160.353 206.289 161.051 206.451 161.833C206.614 162.615 206.492 163.429 206.108 164.129C205.724 164.829 205.102 165.368 204.355 165.65C202.732 166.167 201.083 166.598 199.415 166.94L199.355 166.75Z" fill="#3558A2"/>
<path d="M166.815 100.292C165.525 99.9423 163.655 99.5423 161.875 98.9023C161.187 98.645 160.61 98.1554 160.245 97.5181C159.88 96.8808 159.749 96.1359 159.875 95.4123C160.006 94.5954 160.408 93.8462 161.015 93.2842C161.622 92.7223 162.4 92.3801 163.225 92.3123C165.69 92.2359 168.118 92.9354 170.165 94.3123C170.722 94.7147 171.133 95.2878 171.335 95.9446C171.537 96.6015 171.519 97.3063 171.285 97.9523C170.685 99.5423 169.285 100.382 166.815 100.292Z" fill="#3558A2"/>
<path d="M162.194 109.151C159.744 109.151 157.534 107.341 157.504 105.151C157.497 104.698 157.583 104.249 157.756 103.831C157.929 103.412 158.186 103.034 158.511 102.719C158.837 102.404 159.223 102.159 159.647 102C160.07 101.84 160.522 101.769 160.974 101.791C163.374 101.791 165.564 103.791 165.544 105.911C165.542 106.345 165.453 106.774 165.282 107.173C165.111 107.573 164.863 107.934 164.551 108.235C164.239 108.537 163.87 108.774 163.465 108.931C163.06 109.088 162.628 109.163 162.194 109.151Z" fill="#3558A2"/>
</svg>
