<svg width="300" height="300" viewBox="0 0 300 300" fill="none" xmlns="http://www.w3.org/2000/svg">
<path d="M98.3539 244.936L109.864 243.416C112.746 243.145 115.653 243.317 118.484 243.926C119.774 244.156 120.724 245.776 120.754 247.586C120.804 250.396 120.754 253.216 120.754 256.026C120.754 256.756 120.754 257.486 120.754 258.206C120.684 261.306 119.154 263.036 116.034 263.406C112.454 263.826 108.864 264.136 105.294 264.576C101.544 265.036 97.8238 265.576 94.0738 266.096C91.8438 266.376 89.5839 266.476 87.3539 266.756C83.6039 267.216 79.8738 267.756 76.1338 268.266C73.9938 268.536 71.8238 268.666 69.6838 268.916C67.3638 269.186 65.0538 269.536 62.6838 269.836C61.2538 270.026 59.8238 270.186 58.3938 270.336C55.9738 270.596 53.5638 270.936 51.1338 271.056C48.7038 271.176 47.2439 270.166 46.5838 267.776C45.5838 264.246 44.8239 260.656 43.9639 257.076C43.3239 254.436 46.7739 250.616 50.0939 250.376C53.7639 250.116 57.4039 249.546 61.2339 249.086C61.5438 247.598 61.3612 246.05 60.7139 244.676C60.5031 244.281 60.3675 243.85 60.3138 243.406C60.0938 241.066 59.9339 238.736 59.7339 236.406C59.3939 232.456 59.0339 228.506 58.7339 224.556C58.5339 222.126 58.3338 219.696 58.1738 217.266C57.9438 213.566 57.8038 209.866 57.5138 206.166C57.2738 203.026 56.8838 199.906 56.5138 196.766C56.5138 196.496 56.5138 196.226 56.5138 195.956C56.3038 192.436 56.1338 188.956 55.8838 185.396C55.5438 180.536 55.1538 175.686 54.7738 170.826C54.4238 166.326 54.0938 161.826 53.6938 157.346C53.4238 154.296 53.0538 151.256 52.6938 148.216C52.6938 148.036 52.6938 147.856 52.6938 147.676C52.4838 144.066 52.3038 140.446 52.0538 136.846C51.7005 131.806 51.3238 126.766 50.9238 121.726C50.5971 117.419 50.2638 113.106 49.9238 108.786C49.6238 105.386 49.2838 101.996 48.9238 98.4458C46.1438 98.4458 43.5538 98.1757 40.9238 98.7157C40.6612 98.7775 40.3933 98.8144 40.1238 98.8258C35.7838 99.0324 31.4504 99.2324 27.1238 99.4258H26.3038C25.3901 99.4817 24.4884 99.1951 23.7746 98.6219C23.0609 98.0487 22.5864 97.23 22.4438 96.3258C22.2374 95.5463 22.1397 94.742 22.1538 93.9357C22.0938 83.9357 22.0471 73.9357 22.0138 63.9357C22.0138 63.6657 22.0138 63.3857 22.0138 63.1157C21.8238 60.5857 23.6238 59.4458 25.8738 59.1658C26.7728 59.1064 27.6748 59.1064 28.5738 59.1658C29.8938 57.8858 31.1038 56.8358 32.1738 55.6458C32.9307 54.7486 33.6193 53.7959 34.2339 52.7958C38.5909 46.1283 43.4163 39.7789 48.6738 33.7958C49.6738 32.6458 50.6738 31.4557 51.6738 30.3357C52.1944 29.7528 52.8743 29.3351 53.6296 29.1343C54.3849 28.9335 55.1825 28.9583 55.9238 29.2058C59.1338 30.2058 62.4838 30.2058 65.7538 30.7458C69.3038 31.3258 72.8638 31.8058 76.4238 32.2958C79.4238 32.7058 82.5038 33.0458 85.5338 33.4558C89.2738 33.9558 93.0038 34.5258 96.7438 35.0158C100.134 35.4558 103.544 35.7858 106.934 36.2258C110.324 36.6658 113.694 37.1758 117.074 37.6558C118.674 37.8758 120.274 38.1257 121.874 38.3357C125.874 38.8857 129.874 39.4358 133.874 39.9458C137.174 40.3658 140.484 40.6858 143.784 41.1358C147.084 41.5858 150.524 42.1858 153.904 42.6458C157.284 43.1058 160.524 43.4058 163.824 43.8458C167.124 44.2858 170.564 44.8458 173.944 45.3558C175.544 45.5858 177.154 45.7758 178.764 45.9758C183.404 46.5458 188.044 47.0857 192.684 47.6857C194.824 47.9657 196.934 48.4757 199.074 48.6857C199.848 48.7206 200.601 48.9472 201.266 49.3452C201.931 49.7431 202.487 50.3 202.884 50.9657C206.604 50.7757 210.304 50.5358 214.004 50.3958C220.254 50.1758 226.504 50.0658 232.744 49.7958C234.823 49.6902 236.875 50.3048 238.554 51.5358C250.654 59.9158 262.804 68.2258 274.904 76.6058C275.788 77.2162 276.537 78.0026 277.104 78.9158C277.384 79.3571 277.558 79.8572 277.612 80.377C277.667 80.8967 277.601 81.4221 277.419 81.912C277.237 82.4019 276.944 82.8431 276.563 83.2011C276.182 83.5591 275.724 83.8242 275.224 83.9758C272.098 85.0695 268.824 85.6831 265.514 85.7958C261.114 86.0658 256.714 86.4558 252.304 86.7958H252.034C248.334 86.9958 244.634 87.2358 240.934 87.3958C235.694 87.6258 230.444 87.7757 225.204 88.0357C223.324 88.1257 221.464 88.4358 219.594 88.6358C219.674 90.3858 219.764 92.0657 219.834 93.7457C220.044 98.6257 220.224 103.516 220.454 108.396C220.604 111.556 220.794 114.706 220.994 117.866C221.294 122.546 221.604 127.226 221.994 131.866C222.063 132.48 222.318 133.059 222.724 133.526C224.374 135.456 226.104 137.316 227.784 139.206C231.824 143.739 235.854 148.269 239.874 152.796C241.264 154.356 242.614 155.936 244.024 157.466C244.679 158.219 245.017 159.198 244.964 160.196C245.124 168.806 245.364 177.416 245.484 186.016C245.484 187.336 246.014 188.596 245.564 190.016C244.904 192.066 243.784 193.386 241.724 193.626C239.664 193.866 237.594 193.986 235.534 194.216C233.124 194.486 230.724 194.836 228.314 195.126C227.774 195.196 227.224 195.196 226.684 195.256L217.844 196.256C217.304 196.316 216.754 196.256 216.214 196.356C213.074 196.686 209.944 197.056 206.814 197.356C204.754 197.576 202.684 197.806 200.614 197.916C199.523 198.009 198.437 197.695 197.565 197.034C196.693 196.372 196.098 195.411 195.894 194.336C195.633 193.016 195.466 191.679 195.394 190.336C195.144 186.096 195.004 181.846 194.704 177.606C194.444 173.826 194.111 170.059 193.704 166.306C193.439 163.49 194.258 160.679 195.994 158.446C201.854 149.986 207.614 141.446 213.494 133.026C214.175 132.177 214.53 131.113 214.494 130.026C214.254 125.026 214.084 120.076 213.854 115.106C213.724 112.216 213.504 109.336 213.354 106.446C213.144 102.116 212.994 97.7758 212.754 93.4458C212.632 92.22 212.445 91.0016 212.194 89.7958C211.628 89.6984 211.057 89.635 210.484 89.6058C206.664 89.6058 202.844 89.5058 199.044 89.6058C194.264 89.7958 189.494 90.1957 184.724 90.5057H184.454C179.394 90.7357 174.324 90.9058 169.264 91.1958C165.024 91.4358 160.804 91.8057 156.574 92.1257H156.034C151.034 92.3457 146.034 92.5257 141.114 92.8057C136.784 93.0557 132.474 93.4258 128.114 93.7358C127.564 93.7358 127.024 93.7358 126.474 93.7358C121.324 93.9558 116.164 94.1758 111.014 94.4258C107.944 94.5758 104.874 94.7657 101.804 94.9657L84.9938 96.1058C84.9138 96.3258 84.7138 96.5757 84.7438 96.8057C85.0138 99.6757 85.3139 102.546 85.6039 105.416C85.6039 105.856 85.7138 106.306 85.7538 106.756C86.1638 111.886 86.5439 117.016 86.9839 122.146C87.2939 125.826 87.6638 129.506 88.0438 133.146C88.5238 137.886 89.0438 142.626 89.5438 147.376C89.8038 150.076 89.9138 152.786 90.1738 155.486C90.4538 158.486 90.8538 161.566 91.1738 164.616C91.4038 166.856 91.5838 169.106 91.7638 171.356C91.9938 174.236 92.1438 177.126 92.4238 180.006C92.8838 184.756 93.4238 189.496 93.9138 194.246C94.1838 196.936 94.2938 199.646 94.5438 202.346C94.8338 205.396 95.2238 208.426 95.5438 211.476C95.7738 213.716 95.9538 215.966 96.1338 218.216C96.3638 221.096 96.5138 223.986 96.7838 226.866C97.2538 231.616 97.7838 236.356 98.2838 241.106C98.4438 242.406 98.3539 243.496 98.3539 244.936ZM81.2938 56.7558C81.7082 56.6532 82.1292 56.5796 82.5538 56.5358C86.6138 56.3358 90.6838 56.1557 94.7438 55.9657L106.394 55.4158L117.224 54.8858L129.144 54.3357C132.854 54.1557 136.554 53.9557 140.254 53.8057C146.044 53.5657 151.834 53.3858 157.624 53.1358C161.324 52.9858 165.024 52.7657 168.724 52.5557C168.854 52.5557 168.984 52.4058 169.144 52.3158C167.524 52.0458 165.944 51.7458 164.344 51.5458C161.044 51.1158 157.734 50.7857 154.434 50.3357C151.134 49.8857 147.874 49.2758 144.584 48.8458C141.114 48.3758 137.584 48.0858 134.134 47.6258C128.964 46.9558 123.814 46.2057 118.654 45.4957C116.954 45.2657 115.254 45.1058 113.564 44.8458C110.454 44.3858 107.364 43.8458 104.254 43.3958C99.5338 42.7658 94.7838 42.2758 90.0638 41.6358C85.3438 40.9958 80.8339 40.2458 76.2139 39.5758C72.2939 39.0024 68.3738 38.4658 64.4538 37.9658C63.7878 37.9255 63.1199 37.9255 62.4538 37.9658L81.2938 56.7558ZM229.514 187.326C232.164 187.096 234.764 186.906 237.354 186.646C238.254 186.556 238.494 185.886 238.424 185.066C238.294 183.636 238.074 182.206 238.044 180.766C237.964 176.136 237.984 171.506 237.914 166.876C237.914 165.076 237.654 164.876 235.814 164.956C234.374 165.036 232.954 165.296 231.514 165.366C226.634 165.616 221.754 165.826 216.874 166.046H216.604C212.011 166.366 207.421 166.699 202.834 167.046C202.414 167.046 201.994 167.176 201.514 167.256C201.514 168.306 201.514 169.206 201.514 170.096C201.634 171.896 201.834 173.686 201.964 175.476C202.194 178.726 202.344 181.976 202.614 185.216C202.744 186.796 203.074 188.356 203.334 190.066L212.254 189.236C211.534 187.366 212.254 185.686 212.644 183.976C212.93 182.689 213.539 181.496 214.414 180.509C215.289 179.522 216.4 178.774 217.644 178.336C222.754 176.116 227.584 178.846 228.644 183.496C228.924 184.576 229.174 185.756 229.514 187.276V187.326ZM113.124 251.026C112.794 250.958 112.46 250.918 112.124 250.906L99.7738 252.166C98.2538 252.326 96.7739 252.446 95.2039 252.636C91.2839 253.136 87.3738 253.706 83.4438 254.146C79.5138 254.586 75.5638 254.936 71.6238 255.326C69.8338 255.506 68.0338 255.686 66.2538 255.906C63.8438 256.216 61.4538 256.606 59.0438 256.906C56.6338 257.206 54.2239 257.366 51.7239 257.596C52.4339 259.596 52.2839 261.776 53.4739 263.386L113.114 256.226L113.124 251.026ZM63.7838 69.4057C63.5038 72.0557 64.4139 87.5157 64.9639 89.9957L91.9639 88.3958C89.3439 85.3658 70.1238 72.4557 63.7838 69.4057V69.4057ZM218.224 139.666C217.334 140.926 216.654 141.876 215.984 142.846C212.531 147.799 209.084 152.762 205.644 157.736C205.43 158.236 205.289 158.765 205.224 159.306C205.934 159.306 206.384 159.306 206.814 159.306C210.584 158.996 214.354 158.616 218.124 158.386C222.734 158.106 227.344 157.946 231.944 157.716C232.667 157.623 233.384 157.493 234.094 157.326C228.654 151.286 223.544 145.586 218.224 139.666V139.666ZM82.4238 175.226C81.0514 175.154 79.6762 175.154 78.3038 175.226C75.9938 175.496 73.6938 175.896 71.3838 176.226C69.3838 176.546 67.2838 176.756 65.2838 177.226C63.2838 177.696 62.9238 178.146 63.0138 180.226C63.1238 182.746 63.3838 185.226 63.5538 187.786C63.7738 191.036 63.9238 194.286 64.1838 197.526C64.3338 199.276 64.6338 201.016 64.9138 203.166C70.8238 193.816 76.5338 184.676 82.4238 175.226V175.226ZM126.214 86.3558C118.024 79.7658 109.954 73.3558 101.304 67.4458C101.234 67.8088 101.19 68.1764 101.174 68.5458C101.354 74.1558 101.524 79.7657 101.764 85.3657C101.922 86.1811 102.181 86.9738 102.534 87.7258L126.214 86.3558ZM61.4138 160.286C67.2738 151.286 72.8538 142.206 78.4138 132.696C71.9938 133.316 66.0138 133.906 60.0338 134.516C59.8138 134.516 59.6338 134.846 59.4438 135.016C60.0905 143.456 60.7471 151.879 61.4138 160.286V160.286ZM29.9238 71.4558C29.4738 76.2958 29.6738 90.3758 30.1538 92.2058L53.5438 90.6557L29.9238 71.4558ZM172.924 59.6058C181.264 65.9258 189.664 71.3658 197.994 77.1658C198.424 71.8658 198.294 60.4557 197.794 58.4957C189.654 58.6057 181.484 59.0558 172.924 59.6058V59.6058ZM229.514 80.1658C225.604 76.7258 221.644 74.0557 217.804 71.2457C213.964 68.4357 209.994 65.6957 205.864 62.8757V81.2757C206.134 81.3757 206.294 81.5057 206.454 81.4957C211.774 81.2857 217.094 81.0958 222.454 80.8258C224.674 80.7558 226.924 80.4158 229.544 80.1658H229.514ZM81.4038 142.516L65.2038 169.596L83.7139 167.176C83.0039 159.266 82.2538 151.246 81.4338 142.516H81.4038ZM239.524 61.3357C239.724 67.9257 239.244 73.8657 240.214 79.8457C243.044 79.8663 245.873 79.7127 248.684 79.3858C252.684 78.9758 256.794 78.9157 260.854 78.7157C261.337 78.7559 261.823 78.6968 262.282 78.542C262.741 78.3872 263.164 78.14 263.524 77.8157L239.524 61.3357ZM88.9739 222.656C87.3439 224.076 75.2139 242.846 72.7339 247.656C78.3439 247.446 83.7338 246.276 89.1338 245.986C89.8182 245.89 90.4893 245.715 91.1338 245.466C90.6938 241.606 90.1338 237.886 89.8838 234.146C89.6338 230.406 89.1339 226.646 88.9739 222.656ZM134.974 67.6557C135.174 68.9157 135.384 69.7757 135.434 70.6557C135.674 74.9757 135.874 79.2957 136.084 83.6557C136.084 84.3557 136.154 85.0457 136.194 85.9357C138.194 85.7357 139.934 85.4858 141.714 85.3958C146.714 85.1358 151.624 84.9358 156.574 84.7058C156.845 84.73 157.118 84.7131 157.384 84.6557C157.702 84.5007 158.004 84.313 158.284 84.0957C156.334 81.8657 140.924 71.0057 134.924 67.6857L134.974 67.6557ZM67.6138 240.366L68.0839 240.526L83.9238 215.636L65.9238 217.836C66.4938 225.516 67.0539 232.956 67.6039 240.396L67.6138 240.366ZM87.5338 207.616C86.6438 200.056 86.3438 192.616 85.2438 184.846L69.9238 209.346C71.9238 209.816 73.6638 209.346 75.4238 209.056C79.3738 208.496 83.3038 208.126 87.5238 207.646L87.5338 207.616ZM74.5338 96.7257L56.5338 97.8357C56.5338 98.9157 56.5338 99.8357 56.5338 100.686C56.5338 101.536 56.8338 102.686 56.9038 103.616C57.1338 106.946 57.2838 110.286 57.5438 113.616C57.7038 115.726 58.0038 117.826 58.2738 120.206L74.5338 96.7257ZM162.754 77.4657C162.754 76.3457 162.754 75.4657 162.754 74.5557C162.574 70.4857 162.364 66.4158 162.154 62.3558C162.154 61.6558 162.044 60.9558 161.974 60.1458C160.974 60.1458 160.214 60.1458 159.404 60.1458L141.214 60.7658C140.644 60.7658 140.084 60.8558 139.134 60.9258L162.754 77.4657ZM34.5838 65.6058L56.5238 83.2757C56.5238 82.2757 56.5238 81.6757 56.5238 81.0657C56.3371 76.1857 56.1372 71.3124 55.9238 66.4458C55.9238 65.8358 55.8138 65.2358 55.7438 64.5758L34.5838 65.6058ZM94.0839 79.7558C94.0839 79.0258 94.0839 78.4957 94.0839 77.9657C93.8905 73.1857 93.6938 68.4091 93.4938 63.6358C93.4938 63.4058 93.2739 63.1858 93.0939 62.8158C91.4839 62.9958 89.8938 63.2657 88.2838 63.3357C82.9738 63.5857 77.6539 63.7558 72.3339 63.9558C71.6539 63.9558 70.9738 64.0458 70.2538 64.0958L94.0839 79.7558ZM192.344 82.4057L169.734 66.7558C170.794 72.5458 169.824 78.1558 171.204 83.7558L192.344 82.4057ZM77.5038 105.576L63.0638 126.516C63.4491 126.591 63.8417 126.621 64.2339 126.606C68.861 125.844 73.5445 125.476 78.2339 125.506C78.7439 125.506 79.2338 125.436 79.9038 125.396C79.2638 118.786 78.6438 112.396 78.0038 105.946C77.9738 105.866 77.7238 105.756 77.5038 105.616V105.576ZM127.204 61.7358C126.144 61.7358 125.334 61.7358 124.524 61.7358L109.894 62.3158C109.214 62.3158 108.534 62.4158 107.474 62.4858L128.144 77.8457C127.824 72.3857 127.524 67.2158 127.204 61.7558V61.7358ZM212.204 57.9558L231.994 72.1857C231.994 67.4357 231.994 63.0158 231.994 58.5958C231.978 58.2604 231.941 57.9264 231.884 57.5958C228.104 57.1858 214.434 57.3957 212.204 57.9957V57.9558ZM70.9238 57.1458L57.2538 43.7558C56.8038 46.6558 56.8738 55.9258 57.3638 57.9458C61.6438 57.1158 66.0638 57.8158 70.9238 57.1458ZM49.4238 57.8558C49.4238 53.4958 49.4238 49.3158 49.4238 44.6458C45.8059 49.0957 42.5044 53.7939 39.5438 58.7058C42.9738 58.3558 46.1238 58.9858 49.4138 57.8558H49.4238Z" fill="#3558A2"/>
<path d="M157.484 185.596C158.424 185.675 159.305 186.083 159.973 186.749C160.641 187.415 161.052 188.296 161.134 189.236C161.185 193.219 162.525 197.078 164.954 200.236C165.834 201.486 167.024 202.506 168.024 203.676C168.679 204.414 169.274 205.203 169.804 206.036C170.624 207.386 170.134 208.656 169.254 209.756C168.804 210.326 168.18 210.732 167.478 210.913C166.775 211.094 166.032 211.039 165.364 210.756C163.441 209.909 161.78 208.562 160.554 206.856C157.004 202.739 154.633 197.74 153.694 192.386C153.314 189.976 154.254 186.486 156.434 185.936C156.791 185.848 157.142 185.734 157.484 185.596V185.596Z" fill="#3558A2"/>
<path d="M175.822 185.816C176.037 190.063 177.764 194.092 180.692 197.176C181.254 197.696 181.698 198.329 181.994 199.035C182.291 199.74 182.434 200.501 182.412 201.266C182.425 201.859 182.283 202.446 181.999 202.968C181.716 203.489 181.301 203.928 180.796 204.24C180.291 204.552 179.713 204.727 179.119 204.748C178.526 204.768 177.937 204.633 177.412 204.356C176.841 204.092 176.325 203.723 175.892 203.266C172.014 199.116 169.39 193.954 168.322 188.376C167.857 186.614 167.951 184.751 168.592 183.046C169.402 181.206 171.292 179.906 172.712 180.216C173.635 180.459 174.445 181.014 175.005 181.787C175.564 182.56 175.839 183.503 175.782 184.456C175.832 184.906 175.822 185.356 175.822 185.816Z" fill="#3558A2"/>
<path d="M229.512 187.276C229.172 185.716 228.942 184.576 228.672 183.446C227.572 178.796 222.742 176.066 217.672 178.286C216.429 178.724 215.317 179.472 214.443 180.459C213.568 181.446 212.959 182.639 212.672 183.926C212.312 185.636 211.562 187.316 212.282 189.186L203.362 190.016C203.102 188.306 202.772 186.746 202.642 185.166C202.372 181.926 202.222 178.676 201.992 175.426C201.862 173.636 201.662 171.846 201.542 170.046C201.482 169.156 201.542 168.256 201.542 167.206C202.022 167.126 202.442 167.026 202.862 166.996C207.449 166.656 212.039 166.323 216.632 165.996H216.902C221.782 165.776 226.662 165.566 231.542 165.316C232.982 165.246 234.402 164.986 235.842 164.906C237.682 164.816 237.922 165.026 237.942 166.826C238.012 171.456 237.942 176.086 238.072 180.716C238.072 182.156 238.322 183.586 238.452 185.016C238.522 185.836 238.282 186.506 237.382 186.596C234.762 186.856 232.162 187.046 229.512 187.276Z" fill="white"/>
<path d="M113.122 251.027V256.197L53.4824 263.357C52.2924 261.747 52.4824 259.597 51.7324 257.567C54.2324 257.337 56.6524 257.157 59.0524 256.877C61.4524 256.597 63.8523 256.217 66.2623 255.877C68.0423 255.657 69.8423 255.477 71.6323 255.297C75.5723 254.907 79.5224 254.567 83.4524 254.117C87.3824 253.667 91.2924 253.117 95.2124 252.607C96.7324 252.417 98.2123 252.297 99.7823 252.137L112.132 250.877C112.466 250.899 112.797 250.949 113.122 251.027V251.027Z" fill="white"/>
<path d="M218.223 139.666C223.543 145.586 228.653 151.286 234.093 157.326C233.383 157.493 232.666 157.623 231.943 157.716C227.343 157.946 222.733 158.106 218.123 158.386C214.353 158.616 210.583 158.996 206.813 159.306C206.383 159.306 205.933 159.306 205.223 159.306C205.287 158.765 205.429 158.237 205.643 157.736C209.076 152.756 212.523 147.793 215.983 142.846C216.653 141.876 217.333 140.926 218.223 139.666Z" fill="#979FBB"/>
</svg>
