<svg width="90" height="91" viewBox="0 0 90 91" fill="none" xmlns="http://www.w3.org/2000/svg">
<path d="M78.8029 60.7703C79.0471 62.2819 79.3198 63.698 79.4907 65.146C79.8666 68.5282 79.3641 71.9485 78.0296 75.0907C76.7144 78.4153 74.411 81.279 71.416 83.313C68.2823 85.4995 64.414 86.4369 60.5982 85.9345C57.7999 85.5628 55.1585 84.4515 52.959 82.7203C52.7311 82.5453 52.4909 82.3862 52.1938 82.1754C51.9822 82.43 51.7868 82.6328 51.6281 82.8596C49.7859 85.4946 47.2427 87.5882 44.2727 88.9145C41.3027 90.2408 38.0186 90.7495 34.7746 90.3857C29.793 89.8209 25.5237 87.812 21.7834 84.6178C16.6065 80.2023 13.5093 74.6372 12.211 68.0817C11.6942 65.4801 11.6453 63.5071 11.922 60.0384L10.758 59.5212C6.68814 57.6954 3.51361 54.9387 1.55599 50.9727C-0.45455 46.8954 -0.552212 42.7345 1.47053 38.6413C3.04559 35.459 5.64218 33.2592 8.93066 31.8391C9.87081 31.4413 10.8801 31.1827 11.861 30.8645L12.7523 30.5741C12.6302 29.4643 12.5 28.434 12.4023 27.3918C12.0576 23.9789 13.0285 20.563 15.1251 17.813C17.1844 15.0285 20.0089 13.2782 23.3585 12.244C25.6207 11.5624 27.9797 11.2375 30.3465 11.2813C32.3415 11.2829 34.3292 11.5153 36.2683 11.9735C36.4107 12.0093 36.5572 12.0132 36.7892 12.0451C37.0212 11.703 37.2694 11.3529 37.5055 10.9949C39.8227 7.35835 43.1094 4.40726 47.0129 2.45835C50.1902 0.861498 53.78 0.219284 57.3301 0.612605C60.3593 0.94119 63.2248 2.12591 65.5757 4.02169C69.1084 6.83406 71.1474 10.5136 72.0672 14.8137C72.6232 17.2954 72.7374 19.8521 72.405 22.3717C72.3358 22.861 72.3358 23.3622 72.3032 23.8634C73.5242 24.2175 74.7045 24.5118 75.8522 24.8937C79.3175 25.9763 82.455 27.8799 84.9851 30.4349C87.5834 33.0414 89.2752 36.3819 89.8202 39.9818C90.329 43.5045 89.7523 47.0956 88.1637 50.2965C86.2946 54.1693 83.4384 57.5075 79.8692 59.9906L78.9779 60.6351C78.9209 60.6589 78.8721 60.7146 78.8029 60.7703ZM30.0901 13.9863C28.4959 13.9193 26.9001 14.0788 25.3527 14.4597C22.8009 15.0802 20.4688 16.1304 18.5763 17.9522C15.5524 20.872 14.6692 24.4879 15.2268 28.4937C15.4239 29.52 15.6848 30.5336 16.0082 31.5288C16.2117 32.2965 16.0693 32.6347 15.3611 32.8614C15.0086 32.9631 14.6477 33.0349 14.2826 33.0762C10.6848 33.6013 7.56316 35.0134 5.25552 37.8497C4.17232 39.1131 3.40799 40.6076 3.02413 42.2127C2.64026 43.8178 2.64762 45.4885 3.04559 47.0903C3.61752 49.4892 4.84887 51.6899 6.60676 53.4549C8.51244 55.3861 10.854 56.8546 13.4442 57.7431C14.5715 58.1409 14.7629 58.4432 14.6977 59.5968C14.6408 60.5674 14.5065 61.538 14.4861 62.5086C14.3757 66.2404 15.1283 69.9484 16.6879 73.3564C19.4433 79.3232 23.68 83.9455 29.9681 86.5192C33.1263 87.8121 36.427 88.2934 39.8213 87.5694C44.6319 86.5471 48.1524 83.862 50.4275 79.6136C51.0868 78.3884 52.0555 78.2571 53.0933 79.2158C53.724 79.824 54.3898 80.3965 55.0875 80.9303C56.5107 82.0114 58.1612 82.7711 59.9204 83.1548C61.6796 83.5386 63.5039 83.5369 65.2623 83.1499C68.2252 82.5413 70.6102 80.974 72.5882 78.7743C74.9348 76.1416 76.3906 72.8638 76.7558 69.3904C77.1336 66.7328 76.8887 64.026 76.0394 61.4744C75.8886 61.1029 75.853 60.6963 75.9369 60.3051C76.0209 59.914 76.2207 59.5555 76.5116 59.2746C76.7852 58.9781 77.0909 58.7113 77.4232 58.479C79.1885 57.2878 80.8021 55.895 82.2298 54.3301C84.7694 51.5098 86.5479 48.3354 87.1137 44.5485C87.8422 39.5045 86.2183 35.268 82.5635 31.7754C80.0694 29.436 76.9924 27.7752 73.6382 26.9582C72.7102 26.7195 71.7701 26.5604 70.834 26.3337C69.613 26.0552 69.2386 25.4585 69.4299 24.2214C69.6334 22.8689 69.8084 21.5085 69.9061 20.148C69.9949 18.5975 69.8579 17.0425 69.4991 15.5297C68.7096 11.9496 67.106 8.7872 64.2082 6.34875C62.7285 5.05339 60.9659 4.10524 59.0545 3.57651C57.1432 3.04777 55.1335 2.95239 53.1787 3.29768C48.4821 4.02166 44.7663 6.48 41.722 9.96066C40.6397 11.1959 39.6968 12.5415 38.9096 13.9743C38.7563 14.3268 38.478 14.6134 38.1259 14.7815C37.7737 14.9495 37.3714 14.9878 36.9927 14.8893C36.777 14.8495 36.5857 14.7819 36.3497 14.7341C34.3102 14.1951 32.2024 13.9433 30.0901 13.9863Z" fill="#3558A2"/>
<path d="M30.0902 13.9857C32.1889 13.9465 34.2827 14.1983 36.309 14.7335C36.5247 14.7813 36.716 14.8489 36.9521 14.8887C37.3307 14.9872 37.7331 14.949 38.0852 14.7809C38.4374 14.6128 38.7157 14.3262 38.869 13.9738C39.6561 12.5409 40.599 11.1953 41.6813 9.96008C44.7256 6.46351 48.4414 4.02108 53.1381 3.29711C55.0929 2.95182 57.1025 3.0472 59.0139 3.57593C60.9252 4.10466 62.6879 5.05282 64.1676 6.34817C67.045 8.78662 68.6445 11.945 69.4585 15.5291C69.8172 17.042 69.9542 18.5969 69.8654 20.1475C69.7678 21.5079 69.5928 22.8683 69.3893 24.2208C69.198 25.4579 69.5562 26.0546 70.7934 26.3331C71.7295 26.5439 72.6696 26.7309 73.5976 26.9576C76.9518 27.7747 80.0288 29.4354 82.5229 31.7748C86.1858 35.2674 87.8138 39.5039 87.0731 44.5479C86.5236 48.3348 84.7451 51.5092 82.1892 54.3295C80.7615 55.8944 79.1479 57.2872 77.3826 58.4784C77.0503 58.7107 76.7446 58.9775 76.4709 59.274C76.1801 59.5549 75.9802 59.9133 75.8963 60.3045C75.8123 60.6957 75.848 61.1023 75.9988 61.4738C76.8481 64.0253 77.093 66.7322 76.7151 69.3898C76.35 72.8631 74.8942 76.141 72.5476 78.7736C70.5777 80.9893 68.1927 82.5566 65.2217 83.1493C63.4633 83.5363 61.639 83.538 59.8798 83.1542C58.1206 82.7704 56.4701 82.0108 55.0469 80.9297C54.3492 80.3959 53.6834 79.8234 53.0527 79.2152C51.9945 78.2525 51.0462 78.3838 50.3869 79.613C48.1118 83.8693 44.5913 86.5544 39.7807 87.5687C36.3864 88.2927 33.0856 87.8114 29.9274 86.5186C23.6394 83.9449 19.4026 79.3584 16.6473 73.3557C15.0876 69.9478 14.335 66.2398 14.4455 62.508C14.4455 61.5374 14.6001 60.5668 14.6571 59.5962C14.7222 58.4426 14.5309 58.1562 13.4035 57.7425C10.8133 56.854 8.4718 55.3855 6.56612 53.4543C4.80823 51.6893 3.57688 49.4886 3.00495 47.0897C2.60698 45.4879 2.59962 43.8172 2.98348 42.2121C3.36735 40.607 4.13168 39.1125 5.21488 37.8491C7.52252 35.0248 10.6442 33.6126 14.242 33.0756C14.6071 33.0343 14.9679 32.9625 15.3205 32.8608C16.0286 32.6341 16.1711 32.2959 15.9676 31.5282C15.6442 30.533 15.3832 29.5194 15.1862 28.4931C14.6286 24.4873 15.5118 20.8714 18.5357 17.9516C20.4241 16.1298 22.7603 15.0796 25.3121 14.4591C26.8727 14.0744 28.4824 13.9149 30.0902 13.9857ZM62.1855 62.1182C62.7024 62.1182 63.2193 62.1421 63.7321 62.1182C64.1351 62.0764 64.5348 62.0086 64.9286 61.9153C72.0754 60.4554 76.8983 53.7408 75.9174 47.3324C75.7254 45.8436 75.226 44.4085 74.4494 43.1141C73.6729 41.8197 72.6353 40.6929 71.3998 39.8022C69.8911 38.6613 68.1334 37.8761 66.2634 37.5077C64.3935 37.1392 62.4617 37.1975 60.6186 37.6781C54.1475 39.2215 49.4426 44.9098 49.9392 51.4853C50.0942 54.3675 51.4113 57.0723 53.6021 59.0075C55.9318 61.1098 59.0167 62.2278 62.1855 62.1182ZM27.7581 75.0782C27.8187 75.1056 27.8738 75.1433 27.9209 75.1895C28.0756 75.3924 28.214 75.5874 28.3646 75.8101C29.3755 77.2665 30.7075 78.483 32.2626 79.3703C33.8176 80.2576 35.5563 80.7932 37.3509 80.9376C41.8726 81.3831 45.7431 79.9034 48.6694 76.4545C49.8609 75.1085 50.7072 73.5043 51.1382 71.7749C51.5693 70.0455 51.5726 68.2407 51.1479 66.5098C50.6506 64.1965 49.3997 62.103 47.5827 60.543C45.4153 58.5981 42.6109 57.4701 39.6708 57.3607C38.157 57.2664 36.6386 57.4499 35.1939 57.9016C34.9569 58 34.6958 58.0291 34.4422 57.9853C34.1886 57.9415 33.9535 57.8268 33.7653 57.655C33.627 57.5357 33.4886 57.4163 33.3583 57.305C32.8885 56.9528 32.3253 56.7394 31.7354 56.6901C31.1455 56.6407 30.5534 56.7575 30.0291 57.0265C29.4958 57.3229 29.0718 57.7762 28.8175 58.3219C28.5631 58.8676 28.4915 59.4778 28.6128 60.0656C28.682 60.4634 28.7919 60.8294 28.8896 61.2232C28.8412 61.3187 28.7854 61.4105 28.7227 61.4977C26.4738 64.0567 24.9202 67.1278 24.2051 70.428C24.0171 71.3803 23.9609 72.353 24.0382 73.32C24.0646 73.8332 24.2969 74.3155 24.6846 74.6625C25.0724 75.0095 25.5844 75.1931 26.1098 75.1737C26.643 75.1856 27.1924 75.11 27.7581 75.0782ZM48.4007 43.0124C48.4781 37.4712 46.4105 33.2864 42.8575 30.6809C39.9475 28.5328 36.6428 27.61 33.0572 28.2146C27.3267 29.1813 23.1876 33.5132 22.4754 39.2612C21.8568 44.4325 23.6434 48.832 27.9372 52.0143C32.0519 55.0694 36.6305 55.5945 41.2702 53.3271C46.0361 50.9841 48.2013 46.9306 48.4007 43.0124ZM55.0266 9.06505C52.8428 8.82607 50.6336 9.17088 48.6345 10.0627C46.6355 10.9545 44.9216 12.3598 43.6756 14.1289C42.4261 15.8897 41.7031 17.9559 41.5877 20.0957C41.3476 24.4157 43.6227 29.5592 49.1415 31.5521C51.0711 32.225 53.1453 32.4021 55.1651 32.0662C57.1849 31.7304 59.0825 30.893 60.676 29.6343C62.2694 28.3756 63.5052 26.7378 64.2648 24.878C65.0245 23.0183 65.2825 20.999 65.0141 19.0138C64.8339 17.3823 64.2896 15.8094 63.4198 14.4059C62.5499 13.0024 61.3756 11.8025 59.9797 10.8909C60.464 8.90194 60.0529 7.78416 58.6813 7.26305C57.3708 6.76582 55.9138 7.46196 55.0266 9.06505ZM13.2489 48.653C14.7466 48.5695 16.0002 48.5377 17.2456 48.4104C17.8652 48.3458 18.47 48.1833 19.0363 47.9291C19.3406 47.7878 19.578 47.538 19.6999 47.2311C19.8217 46.9241 19.8188 46.5832 19.6916 46.2783C19.5586 45.9982 19.3311 45.7714 19.0473 45.6359C18.7634 45.5005 18.4405 45.4646 18.1328 45.5344C16.5784 45.8334 14.9955 45.9667 13.4117 45.9322C13.0453 45.9315 12.6802 45.9755 12.325 46.0634C12.0328 46.1181 11.771 46.2752 11.5889 46.5052C11.4068 46.7352 11.3169 47.0223 11.336 47.3125C11.3437 47.5849 11.4432 47.8473 11.6191 48.0587C11.795 48.2702 12.0375 48.419 12.3088 48.482C12.6176 48.5608 12.9317 48.6179 13.2489 48.653ZM16.8345 55.3637C17.0978 55.3004 17.352 55.2056 17.5915 55.0813C18.6497 54.4263 19.6956 53.7514 20.7294 53.0565C21.0345 52.848 21.3085 52.599 21.5434 52.3167C21.7238 52.0908 21.8251 51.8142 21.8325 51.5277C21.8398 51.2412 21.7527 50.9599 21.5841 50.7255C21.398 50.4991 21.1386 50.3415 20.8486 50.2786C20.5585 50.2157 20.2553 50.2512 19.9887 50.3794C19.8212 50.454 19.6617 50.5447 19.5125 50.65C18.4462 51.358 17.3717 52.0581 16.3176 52.7861C16.0097 52.9776 15.7485 53.2329 15.5525 53.5339C15.0519 54.3573 15.6624 55.3319 16.8345 55.3637ZM72.0958 36.1426C72.1324 36.7552 72.3033 37.1689 72.7755 37.4235C72.9988 37.5598 73.2633 37.6172 73.5247 37.586C73.7861 37.5549 74.0288 37.4371 74.2121 37.2524C75.1638 36.3439 75.9255 35.263 76.4547 34.0701C76.5419 33.8099 76.5381 33.5287 76.4438 33.2708C76.3495 33.013 76.17 32.7932 75.9337 32.646C75.7132 32.5124 75.4577 32.4443 75.1983 32.4499C74.9389 32.4556 74.6868 32.5347 74.4726 32.6778C74.2595 32.8218 74.0736 33.0008 73.9232 33.2069C73.3941 33.9468 72.8731 34.6906 72.3807 35.4544C72.259 35.6723 72.1634 35.9033 72.0958 36.1426ZM79.6658 37.3956C78.4262 37.7905 77.2645 38.3892 76.2308 39.1658C76.0214 39.3495 75.8895 39.6028 75.8609 39.8764C75.8323 40.15 75.909 40.4243 76.0761 40.6455C76.2045 40.8878 76.4181 41.0768 76.6775 41.1776C76.9369 41.2784 77.2248 41.2844 77.4884 41.1945C78.0466 41.0067 78.5906 40.7807 79.1164 40.5183C79.6874 40.2711 80.2408 39.9867 80.7728 39.667C81.0138 39.5288 81.199 39.314 81.2975 39.0585C81.396 38.8029 81.4019 38.5221 81.3141 38.2628C81.0943 37.6542 80.6548 37.3717 79.6495 37.3956H79.6658ZM60.7122 73.1966C60.3598 73.1858 60.0172 73.3114 59.7589 73.546C59.5006 73.7806 59.3473 74.1053 59.3325 74.4497C59.3601 74.8099 59.5252 75.1469 59.7951 75.3938C60.065 75.6406 60.42 75.7793 60.7896 75.7822C61.1187 75.7731 61.4331 75.6468 61.6737 75.427C61.9142 75.2073 62.0644 74.9092 62.096 74.5889C62.1031 74.4068 62.0726 74.2252 62.0063 74.0548C61.94 73.8845 61.8393 73.729 61.7101 73.5976C61.581 73.4661 61.426 73.3615 61.2546 73.2898C61.0831 73.2182 60.8987 73.1811 60.7122 73.1807V73.1966ZM25.5197 23.5326C25.524 23.3629 25.4939 23.194 25.431 23.0357C25.3682 22.8775 25.2738 22.733 25.1535 22.6105C25.0331 22.4881 24.8892 22.3902 24.7299 22.3225C24.5706 22.2548 24.3991 22.2186 24.2254 22.216C24.0536 22.1989 23.8801 22.2169 23.7158 22.2688C23.5515 22.3208 23.4001 22.4056 23.2711 22.5178C23.1421 22.63 23.0384 22.7672 22.9666 22.9207C22.8948 23.0742 22.8564 23.2406 22.8539 23.4094C22.8386 23.5879 22.8616 23.7677 22.9212 23.9371C22.9808 24.1066 23.0758 24.2621 23.2002 24.3938C23.3246 24.5254 23.4756 24.6304 23.6437 24.702C23.8118 24.7736 23.9932 24.8102 24.1766 24.8096C24.5229 24.7983 24.8525 24.6612 25.1009 24.425C25.3493 24.1889 25.4986 23.8707 25.5197 23.5326ZM58.3802 68.4073C58.207 68.3998 58.034 68.4263 57.8715 68.4853C57.7089 68.5442 57.5601 68.6343 57.4338 68.7503C57.3075 68.8664 57.2062 69.006 57.136 69.1609C57.0658 69.3158 57.028 69.4829 57.0249 69.6523C57.0138 69.9938 57.1401 70.3259 57.3768 70.5773C57.6135 70.8287 57.9416 70.9793 58.2906 70.9969C58.4733 71.0033 58.6553 70.9738 58.8261 70.9102C58.9969 70.8467 59.1529 70.7503 59.285 70.6268C59.417 70.5033 59.5223 70.3553 59.5948 70.1913C59.6673 70.0273 59.7054 69.8508 59.707 69.6722C59.7099 69.5026 59.6773 69.3342 59.6112 69.1773C59.5452 69.0204 59.447 68.8784 59.3228 68.76C59.1985 68.6415 59.0508 68.5492 58.8888 68.4885C58.7267 68.4278 58.5536 68.4002 58.3802 68.4073ZM27.1029 25.9194C27.1028 26.2484 27.2342 26.5644 27.4692 26.8C27.7041 27.0356 28.024 27.1721 28.3605 27.1804C28.7315 27.1505 29.0776 26.9855 29.3301 26.7181C29.5826 26.4506 29.7231 26.1003 29.7239 25.7364C29.701 25.4086 29.5501 25.102 29.3024 24.8799C29.0547 24.6578 28.7292 24.5372 28.3931 24.543C28.0383 24.5665 27.7063 24.7225 27.4661 24.9788C27.2258 25.2351 27.0958 25.5719 27.1029 25.9194ZM66.0194 73.2563C66.0297 72.9292 65.9066 72.6116 65.6772 72.3733C65.4478 72.1349 65.131 71.9954 64.7964 71.9854C64.4618 71.9754 64.1368 72.0957 63.8929 72.3198C63.6491 72.544 63.5063 72.8537 63.4961 73.1807C63.491 73.3427 63.5186 73.504 63.5773 73.6555C63.636 73.807 63.7247 73.9457 63.8382 74.0638C63.9518 74.1818 64.088 74.2768 64.2392 74.3433C64.3903 74.4099 64.5534 74.4467 64.719 74.4517C64.8847 74.4566 65.0498 74.4296 65.2048 74.3723C65.3598 74.3149 65.5018 74.2282 65.6225 74.1172C65.7433 74.0062 65.8405 73.873 65.9086 73.7253C65.9767 73.5776 66.0143 73.4182 66.0194 73.2563ZM27.0622 17.2396C26.8968 17.2291 26.7309 17.2523 26.5752 17.3079C26.4195 17.3635 26.2774 17.4502 26.1579 17.5625C26.0385 17.6748 25.9442 17.8102 25.8813 17.9601C25.8183 18.11 25.7881 18.271 25.7924 18.433C25.8148 18.7369 25.9464 19.0233 26.1638 19.2416C26.3812 19.4599 26.6706 19.5962 26.9808 19.6264C27.3115 19.6201 27.6266 19.4876 27.8586 19.2571C28.0907 19.0266 28.2211 18.7166 28.2221 18.3932C28.2359 18.2397 28.2156 18.0851 28.1626 17.9399C28.1096 17.7947 28.0251 17.6625 27.915 17.5522C27.8048 17.4419 27.6716 17.3561 27.5244 17.3008C27.3773 17.2455 27.2196 17.2219 27.0622 17.2317V17.2396Z" fill="white"/>
<path d="M62.1853 62.1192C59.0133 62.2266 55.9266 61.1042 53.5978 58.9966C51.407 57.0614 50.0899 54.3566 49.9349 51.4744C49.4383 44.8989 54.1431 39.2106 60.6143 37.6671C62.4574 37.1866 64.3892 37.1283 66.2591 37.4967C68.1291 37.8652 69.8868 38.6504 71.3955 39.7913C72.631 40.682 73.6685 41.8088 74.4451 43.1032C75.2217 44.3976 75.7211 45.8327 75.9131 47.3215C76.9143 53.7299 72.0914 60.4486 64.9243 61.9045C64.5305 61.9978 64.1308 62.0655 63.7278 62.1073C63.2191 62.1431 62.7022 62.1192 62.1853 62.1192ZM62.0876 59.5535C66.011 59.462 69.0757 57.7993 71.4159 54.7443C71.9531 54.0362 71.9572 53.4793 71.4728 52.7076C69.5192 49.6186 68.713 45.9665 69.1896 42.3651C69.2578 42.1226 69.2339 41.8642 69.1224 41.6376C69.011 41.411 68.8195 41.2313 68.5832 41.1319C67.4107 40.5107 66.1191 40.1342 64.79 40.0261C61.005 39.7675 57.8101 40.9966 55.3071 43.7891C52.9099 46.4543 51.9698 49.5531 52.9466 53.0258C53.5137 54.9507 54.7195 56.6367 56.3743 57.8184C58.0291 59.0002 60.039 59.6105 62.0876 59.5535Z" fill="#3558A2"/>
<path d="M27.7579 75.0789C27.1921 75.1108 26.6427 75.1863 26.0933 75.1744C25.5679 75.1939 25.0558 75.0102 24.6681 74.6632C24.2803 74.3162 24.048 73.8339 24.0217 73.3207C23.9444 72.3538 24.0005 71.381 24.1885 70.4287C24.9037 67.1285 26.4573 64.0574 28.7061 61.4984C28.7689 61.4112 28.8247 61.3194 28.873 61.2239C28.7753 60.8261 28.6655 60.4522 28.5963 60.0663C28.475 59.4785 28.5466 58.8682 28.8009 58.3225C29.0552 57.7768 29.4793 57.3235 30.0126 57.0272C30.5368 56.7581 31.1289 56.6414 31.7188 56.6907C32.3088 56.7401 32.8719 56.9534 33.3418 57.3056C33.4883 57.417 33.6267 57.5363 33.7488 57.6557C33.9369 57.8275 34.1721 57.9422 34.4256 57.986C34.6792 58.0298 34.9403 58.0007 35.1773 57.9023C36.622 57.4506 38.1404 57.2671 39.6542 57.3613C42.5943 57.4708 45.3988 58.5988 47.5661 60.5436C49.3831 62.1037 50.634 64.1972 51.1314 66.5105C51.556 68.2414 51.5527 70.0463 51.1216 71.7757C50.6906 73.505 49.8443 75.1092 48.6528 76.4553C45.7265 79.9041 41.856 81.3839 37.3344 80.9384C35.5398 80.7939 33.8011 80.2584 32.246 79.3711C30.6909 78.4838 29.359 77.2672 28.348 75.8109C28.1974 75.604 28.059 75.3932 27.9044 75.1903C27.8621 75.1455 27.8126 75.1079 27.7579 75.0789ZM39.1129 59.9629C35.9587 59.8595 32.7028 61.6057 30.9527 63.8493C30.1689 64.845 29.608 65.9908 29.3064 67.2121C29.0049 68.4334 28.9694 69.703 29.2024 70.9386C29.4353 72.1742 29.9315 73.3481 30.6586 74.3842C31.3858 75.4202 32.3277 76.2953 33.4232 76.9525C35.3117 78.0865 37.5285 78.5839 39.7339 78.3683C41.9394 78.1528 44.0116 77.2362 45.6329 75.7591C48.3191 73.3008 49.365 70.2855 48.429 66.7412C47.869 64.759 46.6489 63.0159 44.9617 61.7876C43.2744 60.5592 41.2163 59.9157 39.1129 59.9589V59.9629Z" fill="#3558A2"/>
<path d="M48.4006 43.013C48.2011 46.9313 46.036 50.9688 41.2905 53.3158C36.6508 55.5991 32.0721 55.0581 27.9574 52.0031C23.6637 48.8208 21.877 44.4451 22.4956 39.25C23.1875 33.5019 27.3266 29.17 33.0773 28.2034C36.6629 27.5988 39.9677 28.5217 42.8777 30.6697C46.4104 33.2872 48.4779 37.4719 48.4006 43.013ZM35.9548 51.9991C39.0683 51.8519 41.8033 50.5949 43.7243 47.8621C45.2415 45.7401 45.8998 43.1436 45.572 40.5747C45.4205 38.8045 44.8336 37.0962 43.8614 35.5954C42.8892 34.0946 41.5604 32.8455 39.9881 31.9546C39.7032 31.7562 39.3647 31.6443 39.015 31.633C38.6654 31.6216 38.32 31.7114 38.0223 31.8909C37.1568 32.37 36.2359 32.7466 35.2792 33.0127C33.8913 33.3508 32.4547 33.5099 31.0343 33.7167C30.2772 33.8644 29.5068 33.9377 28.7348 33.9355C28.4094 33.9061 28.0822 33.9697 27.7932 34.1188C27.5041 34.2678 27.2657 34.4957 27.1068 34.7749C25.7948 36.6291 25.0967 38.8322 25.1069 41.0866C25.1171 43.341 25.8351 45.538 27.1638 47.3808C29.211 50.2966 32.0558 51.8877 35.9548 51.9991Z" fill="#3558A2"/>
<path d="M55.0263 9.06616C55.9136 7.47501 57.3706 6.76699 58.6892 7.26024C60.0608 7.78134 60.4718 8.89117 59.9875 10.8881C61.3835 11.7997 62.5578 12.9995 63.4277 14.403C64.2975 15.8065 64.8418 17.3794 65.0221 19.0108C65.2904 20.9961 65.0324 23.0154 64.2728 24.8751C63.5131 26.7348 62.2773 28.3726 60.6838 29.6313C59.0904 30.89 57.1928 31.7274 55.173 32.0632C53.1532 32.3991 51.079 32.222 49.1494 31.5491C43.6102 29.5602 41.3555 24.4128 41.5956 20.0928C41.7111 17.953 42.434 15.8868 43.6835 14.126C44.9295 12.3569 46.6434 10.9516 48.6424 10.0598C50.6415 9.16801 52.8507 8.8232 55.0345 9.06218L55.0263 9.06616ZM61.4201 16.4372C60.8229 16.5684 60.2018 16.5536 59.6118 16.394C59.0218 16.2344 58.4813 15.935 58.0381 15.5222C57.4222 14.9545 56.8609 14.3327 56.3613 13.6646C56.2256 13.4731 56.033 13.3268 55.8095 13.2457C55.5861 13.1646 55.3425 13.1526 55.1118 13.2111C54.2806 13.3673 53.4384 13.4604 52.5925 13.4896C51.7785 13.4896 50.9238 13.4896 50.236 13.0202C49.5482 12.5508 49.0151 12.7696 48.4372 13.1714C46.7598 14.2873 45.4947 15.9015 44.8291 17.775C44.1636 19.6485 44.1329 21.6816 44.7417 23.5735C45.266 25.2249 46.2866 26.684 47.6708 27.761C49.055 28.8379 50.7387 29.4828 52.503 29.6119C56.2758 29.8307 59.1736 28.2515 61.0783 25.093C62.7388 22.3244 62.8365 19.4325 61.4201 16.4372Z" fill="#3558A2"/>
<path d="M13.2489 48.6536C12.9314 48.6145 12.6173 48.5534 12.3088 48.4706C12.0375 48.4076 11.795 48.2588 11.6191 48.0473C11.4432 47.8359 11.3437 47.5735 11.336 47.3011C11.3169 47.0109 11.4068 46.7239 11.5889 46.4939C11.771 46.2639 12.0327 46.1067 12.325 46.0521C12.6802 45.9642 13.0453 45.9201 13.4117 45.9208C14.9955 45.9554 16.5784 45.822 18.1328 45.5231C18.4405 45.4533 18.7634 45.4891 19.0473 45.6246C19.3311 45.7601 19.5586 45.9869 19.6916 46.2669C19.8188 46.5718 19.8217 46.9127 19.6999 47.2197C19.578 47.5267 19.3406 47.7764 19.0363 47.9177C18.47 48.1719 17.8652 48.3344 17.2456 48.399C16.0002 48.5382 14.7466 48.57 13.2489 48.6536Z" fill="#3558A2"/>
<path d="M16.8347 55.3638C15.6626 55.332 15.052 54.3574 15.5364 53.5141C15.7324 53.2131 15.9936 52.9578 16.3015 52.7663C17.3556 52.0383 18.4301 51.3383 19.4964 50.6302C19.6456 50.5249 19.8051 50.4343 19.9726 50.3597C20.2391 50.2315 20.5424 50.1959 20.8325 50.2588C21.1225 50.3218 21.382 50.4794 21.568 50.7058C21.7366 50.9402 21.8237 51.2214 21.8164 51.5079C21.8091 51.7944 21.7077 52.071 21.5273 52.2969C21.2924 52.5793 21.0184 52.8283 20.7133 53.0368C19.6795 53.7289 18.6336 54.4038 17.5754 55.0615C17.342 55.1914 17.0933 55.2929 16.8347 55.3638Z" fill="#3558A2"/>
<path d="M72.0957 36.1443C72.1627 35.9022 72.2584 35.6686 72.3806 35.4482C72.8731 34.6844 73.3941 33.9405 73.9231 33.2007C74.0736 32.9946 74.2595 32.8155 74.4726 32.6716C74.6868 32.5285 74.9389 32.4493 75.1983 32.4437C75.4577 32.438 75.7131 32.5061 75.9337 32.6398C76.1699 32.7869 76.3494 33.0068 76.4437 33.2646C76.5381 33.5225 76.5419 33.8036 76.4546 34.0638C75.9254 35.2567 75.1638 36.3376 74.2121 37.2461C74.0287 37.4309 73.7861 37.5486 73.5246 37.5797C73.2632 37.6109 72.9988 37.5535 72.7754 37.4172C72.3236 37.1705 72.1323 36.7728 72.0957 36.1443Z" fill="#3558A2"/>
<path d="M79.649 37.3959C80.638 37.3721 81.0775 37.6545 81.277 38.2631C81.3647 38.5224 81.3589 38.8033 81.2604 39.0588C81.1619 39.3144 80.9767 39.5292 80.7357 39.6674C80.2037 39.987 79.6502 40.2714 79.0792 40.5186C78.5535 40.7811 78.0095 41.0071 77.4512 41.1949C77.1877 41.2848 76.8998 41.2788 76.6403 41.178C76.3809 41.0771 76.1674 40.8882 76.039 40.6459C75.8719 40.4246 75.7951 40.1504 75.8237 39.8768C75.8523 39.6032 75.9842 39.3498 76.1937 39.1661C77.2336 38.3875 78.4022 37.7888 79.649 37.3959Z" fill="#3558A2"/>
<path d="M60.712 73.1823C60.8953 73.1828 61.0766 73.2188 61.2456 73.2882C61.4146 73.3576 61.5679 73.459 61.6965 73.5866C61.8252 73.7142 61.9267 73.8654 61.9952 74.0316C62.0637 74.1977 62.0979 74.3755 62.0958 74.5546C62.0642 74.875 61.914 75.173 61.6734 75.3927C61.4329 75.6125 61.1185 75.7388 60.7893 75.748C60.4197 75.745 60.0648 75.6063 59.7949 75.3595C59.525 75.1126 59.3598 74.7757 59.3323 74.4154C59.3523 74.0746 59.5077 73.7549 59.7655 73.5245C60.0233 73.2942 60.3629 73.1714 60.712 73.1823Z" fill="#3558A2"/>
<path d="M25.5193 23.5336C25.5031 23.8752 25.3559 24.1983 25.1071 24.4386C24.8582 24.6789 24.5258 24.8188 24.1762 24.8304C23.9928 24.831 23.8114 24.7944 23.6433 24.7228C23.4752 24.6512 23.3242 24.5463 23.1998 24.4146C23.0754 24.2829 22.9804 24.1274 22.9208 23.9579C22.8611 23.7885 22.8382 23.6087 22.8534 23.4301C22.8559 23.2614 22.8944 23.095 22.9662 22.9415C23.038 22.788 23.1417 22.6508 23.2707 22.5385C23.3997 22.4263 23.5511 22.3415 23.7154 22.2896C23.8797 22.2376 24.0532 22.2196 24.225 22.2367C24.5722 22.242 24.9033 22.3813 25.1458 22.6243C25.3882 22.8673 25.5225 23.1942 25.5193 23.5336Z" fill="#3558A2"/>
<path d="M58.3803 68.4075C58.5538 68.4004 58.7268 68.4281 58.8889 68.4887C59.051 68.5494 59.1987 68.6418 59.323 68.7602C59.4472 68.8787 59.5453 69.0206 59.6114 69.1775C59.6775 69.3344 59.7101 69.5028 59.7071 69.6724C59.7056 69.851 59.6675 70.0276 59.595 70.1915C59.5225 70.3555 59.4172 70.5035 59.2851 70.627C59.1531 70.7505 58.9971 70.8469 58.8263 70.9105C58.6555 70.974 58.4734 71.0035 58.2908 70.9971C57.9418 70.9796 57.6137 70.8289 57.377 70.5775C57.1403 70.3261 57.014 69.994 57.0251 69.6526C57.0282 69.4832 57.0659 69.316 57.1362 69.1611C57.2064 69.0062 57.3076 68.8666 57.434 68.7505C57.5603 68.6345 57.7091 68.5444 57.8717 68.4855C58.0342 68.4265 58.2072 68.4 58.3803 68.4075Z" fill="#3558A2"/>
<path d="M27.1029 25.9193C27.0989 25.5739 27.2304 25.24 27.4703 24.9863C27.7102 24.7326 28.0404 24.5782 28.393 24.5549C28.7291 24.549 29.0547 24.6696 29.3024 24.8917C29.5501 25.1138 29.701 25.4205 29.7239 25.7483C29.7231 26.1122 29.5825 26.4626 29.33 26.73C29.0775 26.9974 28.7315 27.1624 28.3605 27.1923C28.0218 27.184 27.7001 27.0458 27.4648 26.8076C27.2296 26.5695 27.0996 26.2504 27.1029 25.9193Z" fill="#3558A2"/>
<path d="M66.0193 73.248C66.0142 73.41 65.9765 73.5693 65.9084 73.7171C65.8403 73.8648 65.7432 73.998 65.6224 74.109C65.5017 74.22 65.3597 74.3066 65.2047 74.364C65.0497 74.4214 64.8846 74.4483 64.7189 74.4434C64.5532 74.4384 64.3902 74.4016 64.239 74.335C64.0879 74.2685 63.9517 74.1735 63.8381 74.0555C63.7245 73.9375 63.6359 73.7987 63.5772 73.6472C63.5185 73.4957 63.4909 73.3344 63.496 73.1725C63.5062 72.8454 63.6489 72.5358 63.8928 72.3116C64.1367 72.0874 64.4617 71.9671 64.7963 71.9771C65.1309 71.9872 65.4477 72.1267 65.6771 72.365C65.9064 72.6034 66.0295 72.921 66.0193 73.248Z" fill="#3558A2"/>
<path d="M27.0625 17.2329C27.2184 17.2235 27.3746 17.2467 27.5205 17.3011C27.6665 17.3554 27.7988 17.4397 27.9087 17.5483C28.0186 17.6568 28.1034 17.787 28.1575 17.9302C28.2116 18.0734 28.2338 18.2263 28.2224 18.3785C28.2214 18.7018 28.091 19.0119 27.859 19.2424C27.627 19.4729 27.3118 19.6054 26.9811 19.6116C26.6709 19.5815 26.3816 19.4452 26.1641 19.2269C25.9467 19.0086 25.8152 18.7222 25.7927 18.4183C25.7895 18.257 25.8207 18.0969 25.8841 17.9479C25.9476 17.799 26.0419 17.6645 26.1613 17.5531C26.2806 17.4417 26.4224 17.3557 26.5775 17.3006C26.7326 17.2455 26.8978 17.2224 27.0625 17.2329Z" fill="#3558A2"/>
<path d="M62.088 59.5535C60.0367 59.6093 58.0248 58.9961 56.3696 57.8105C54.7144 56.6249 53.5102 54.9345 52.9469 53.0059C51.9702 49.5332 52.9103 46.4344 55.3075 43.7692C57.8105 40.9847 61.0054 39.7476 64.7904 40.0061C66.1194 40.1143 67.4111 40.4908 68.5836 41.112C68.8198 41.2115 69.0113 41.3911 69.1228 41.6177C69.2342 41.8443 69.2581 42.1027 69.19 42.3451C68.7134 45.9466 69.5196 49.5987 71.4732 52.6877C71.9575 53.4594 71.9534 54.0163 71.4162 54.7243C69.0679 57.7992 66.0114 59.4461 62.088 59.5535ZM54.5342 51.3909C54.6278 51.9557 54.6726 52.5325 54.8232 53.0854C54.9675 53.6546 55.2468 54.1825 55.6386 54.6265C56.0305 55.0705 56.5237 55.4181 57.0785 55.6412C57.6333 55.8643 58.234 55.9566 58.8321 55.9107C59.4301 55.8647 60.0087 55.6818 60.5211 55.3767C61.7074 54.6401 62.6867 53.6255 63.37 52.4251C63.4886 52.2505 63.5698 52.0542 63.6087 51.8481C63.6475 51.6419 63.6433 51.4302 63.5961 51.2258C63.5489 51.0213 63.4598 50.8283 63.3342 50.6584C63.2086 50.4885 63.0491 50.3452 62.8653 50.2373C62.5397 50.0026 62.1653 49.8395 61.8153 49.6366C60.7612 49.032 59.7152 48.4154 59.0559 47.3613C58.8809 47.0828 58.7425 46.7884 58.5512 46.5219C58.4647 46.3709 58.3466 46.2394 58.2044 46.136C58.0623 46.0327 57.8995 45.9599 57.7266 45.9223C57.5537 45.8848 57.3746 45.8833 57.2011 45.9181C57.0276 45.9529 56.8636 46.0231 56.7198 46.1241C56.3164 46.3771 55.9825 46.7226 55.7471 47.1306C55.0531 48.4562 54.6406 49.9054 54.5342 51.3909ZM63.9357 47.6715C64.1198 47.6857 64.3049 47.6628 64.4796 47.6043C64.6543 47.5458 64.8149 47.4529 64.9515 47.3314C65.088 47.2099 65.1976 47.0623 65.2735 46.8978C65.3494 46.7332 65.39 46.5552 65.3927 46.3747C65.3636 46.0318 65.2081 45.7109 64.955 45.4717C64.702 45.2324 64.3687 45.0911 64.0171 45.074C63.6659 45.0973 63.334 45.2396 63.0785 45.4763C62.8229 45.7129 62.6598 46.0292 62.6171 46.3708C62.6171 46.7137 62.7556 47.0427 63.0025 47.2863C63.2495 47.5299 63.5849 47.6684 63.9357 47.6715ZM61.6444 43.7971C61.64 43.5079 61.5245 43.2308 61.321 43.0208C61.1175 42.8109 60.8407 42.6833 60.5455 42.6634C59.8333 42.6634 59.1576 43.2282 59.1373 43.7891C59.144 44.0974 59.2699 44.3918 59.4896 44.6132C59.7093 44.8346 60.0065 44.9665 60.3216 44.9825C60.6558 44.9893 60.9799 44.8699 61.2263 44.6491C61.4727 44.4283 61.6224 44.1231 61.6444 43.7971Z" fill="white"/>
<path d="M39.1133 59.9585C41.215 59.9193 43.2702 60.5656 44.9543 61.7953C46.6383 63.0249 47.8554 64.7678 48.4131 66.7487C49.3491 70.293 48.3032 73.3083 45.617 75.7666C43.9957 77.2437 41.9235 78.1602 39.718 78.3757C37.5126 78.5913 35.2958 78.094 33.4073 76.96C32.3118 76.3027 31.3699 75.4277 30.6428 74.3916C29.9156 73.3556 29.4195 72.1817 29.1865 70.9461C28.9535 69.7105 28.989 68.4409 29.2905 67.2196C29.5921 65.9983 30.153 64.8525 30.9369 63.8568C32.7032 61.6013 35.9591 59.8431 39.1133 59.9585ZM43.7367 65.8975C43.7212 65.5255 43.6817 65.1548 43.6187 64.7877C43.4396 63.9245 42.9431 63.5505 42.1698 63.6301C41.3965 63.7096 41.0669 64.1512 41.0221 64.9746C41.0221 65.3326 41.0221 65.6946 41.0221 66.0526C41.0306 66.8912 40.8055 67.7162 40.3709 68.4393C40.2539 68.7044 40.046 68.9213 39.7831 69.0527C39.5201 69.1841 39.2185 69.2218 38.9301 69.1593C38.1231 69.0746 37.3536 68.7822 36.6998 68.3121C36.3785 68.0726 36.032 67.8672 35.6661 67.6994C35.4429 67.6065 35.1955 67.5845 34.9588 67.6366C34.7221 67.6887 34.5082 67.8123 34.3474 67.9898C34.1486 68.1561 34.0154 68.385 33.9708 68.637C33.9262 68.889 33.9731 69.1483 34.1032 69.3701C34.3515 69.7653 34.6651 70.1174 35.0312 70.4123C36.0812 71.2716 37.3388 71.5819 38.6941 71.7808C39.4006 71.9221 40.1343 71.8519 40.7994 71.5794C41.4644 71.3069 42.03 70.8448 42.4222 70.2533C43.3474 68.9863 43.8103 67.4523 43.7367 65.8975ZM33.4765 65.1456C33.4743 65.3158 33.507 65.4847 33.5728 65.6423C33.6385 65.7999 33.7359 65.943 33.8592 66.0632C33.9826 66.1833 34.1293 66.2781 34.2907 66.3419C34.4522 66.4057 34.6251 66.4371 34.7992 66.4345C35.1689 66.4171 35.5176 66.2619 35.7736 66.0006C36.0295 65.7393 36.1732 65.392 36.1749 65.0303C36.1561 64.706 36.0103 64.4012 35.7679 64.179C35.5254 63.9569 35.2048 63.8344 34.8725 63.8369C34.6893 63.818 34.5041 63.8385 34.3298 63.8968C34.1556 63.955 33.9964 64.0498 33.8635 64.1744C33.7306 64.299 33.6271 64.4505 33.5602 64.6182C33.4934 64.786 33.4648 64.966 33.4765 65.1456ZM38.4743 64.1353C38.6391 64.1385 38.8029 64.1092 38.9558 64.0489C39.1087 63.9886 39.2475 63.8987 39.3639 63.7846C39.4802 63.6705 39.5718 63.5345 39.6329 63.3849C39.6941 63.2353 39.7236 63.0751 39.7197 62.914C39.7043 62.5728 39.5624 62.2486 39.3205 62.002C39.0787 61.7554 38.7534 61.6031 38.4052 61.5735C38.0542 61.5878 37.7225 61.734 37.4791 61.9815C37.2357 62.229 37.0994 62.5588 37.0987 62.9021C37.1021 63.0726 37.141 63.2407 37.2128 63.3961C37.2846 63.5515 37.388 63.6911 37.5166 63.8064C37.6451 63.9217 37.7963 64.0102 37.961 64.0668C38.1256 64.1233 38.3002 64.1466 38.4743 64.1353Z" fill="white"/>
<path d="M35.9552 51.9999C32.0562 51.8885 29.2113 50.3014 27.1519 47.3816C25.8232 45.5388 25.1053 43.3418 25.0951 41.0874C25.0849 38.833 25.783 36.6299 27.095 34.7757C27.2538 34.4965 27.4923 34.2686 27.7813 34.1196C28.0704 33.9705 28.3975 33.9069 28.7229 33.9363C29.495 33.9385 30.2653 33.8652 31.0224 33.7175C32.4428 33.5107 33.8713 33.3516 35.2673 33.0135C36.2241 32.7475 37.1449 32.3708 38.0104 31.8917C38.3082 31.7122 38.6535 31.6224 39.0032 31.6338C39.3528 31.6451 39.6913 31.757 39.9762 31.9554C41.5486 32.8463 42.8773 34.0954 43.8496 35.5962C44.8218 37.097 45.4086 38.8053 45.5602 40.5754C45.888 43.1444 45.2296 45.7409 43.7124 47.8629C41.7995 50.5957 39.0687 51.8527 35.9552 51.9999ZM41.1768 42.3336C41.1019 41.8426 40.9862 41.3584 40.8309 40.8857C40.7246 40.6222 40.529 40.4024 40.2769 40.2629C40.0247 40.1234 39.7312 40.0727 39.4453 40.1192C39.1595 40.1658 38.8986 40.3068 38.7064 40.5187C38.5141 40.7306 38.4021 41.0005 38.389 41.2835C38.3564 41.5301 38.4134 41.7926 38.3605 42.0353C38.2191 42.8823 38.0164 43.7184 37.7541 44.5374C37.4895 45.2534 36.9401 45.3847 36.2238 45.0664C35.508 44.7564 34.9442 44.1855 34.6528 43.4753C34.433 42.9462 34.2865 42.3854 34.0952 41.8444C34.0177 41.5247 33.8227 41.244 33.5474 41.0555C33.272 40.867 32.9355 40.784 32.6016 40.8221C32.2676 40.8641 31.9604 41.0224 31.7361 41.2678C31.5119 41.5133 31.3857 41.8296 31.3806 42.1586C31.3754 42.3731 31.407 42.5869 31.4742 42.7911C31.9463 44.5493 32.7928 46.037 34.3801 47.1031C36.5982 48.5829 39.264 47.8987 40.3669 45.512C40.7957 44.5001 41.0686 43.4317 41.1768 42.3416V42.3336ZM31.7428 38.1648C31.7382 38.3454 31.7715 38.5249 31.8407 38.6923C31.9099 38.8598 32.0135 39.0116 32.1451 39.1383C32.2767 39.2651 32.4335 39.3641 32.6058 39.4293C32.7781 39.4945 32.9623 39.5244 33.1469 39.5173C34.0179 39.4934 34.5876 39.0917 34.6528 38.2722C34.6632 38.0834 34.633 37.8945 34.5643 37.7177C34.4956 37.5409 34.3898 37.3801 34.2538 37.2456C34.1177 37.1111 33.9544 37.006 33.7743 36.9368C33.5942 36.8677 33.4013 36.8362 33.208 36.8442C32.8392 36.8459 32.4843 36.9823 32.2132 37.2266C31.9421 37.471 31.7743 37.8057 31.7428 38.1648ZM37.9168 38.9604C38.0911 38.9663 38.2647 38.9378 38.4275 38.8767C38.5902 38.8156 38.7386 38.723 38.864 38.6046C38.9893 38.4861 39.089 38.3443 39.157 38.1874C39.225 38.0305 39.26 37.8619 39.2599 37.6915C39.2176 37.3699 39.0664 37.0714 38.8303 36.8436C38.5943 36.6158 38.2871 36.4718 37.9576 36.4345C37.7831 36.4219 37.6078 36.4446 37.4426 36.5009C37.2774 36.5573 37.1258 36.6462 36.9972 36.7622C36.8687 36.8782 36.7658 37.0187 36.6951 37.1752C36.6243 37.3316 36.5872 37.5006 36.586 37.6716C36.5826 37.8427 36.6148 38.0128 36.6807 38.1714C36.7465 38.3301 36.8446 38.474 36.9691 38.5945C37.0935 38.715 37.2417 38.8096 37.4046 38.8725C37.5675 38.9354 37.7418 38.9653 37.9168 38.9604Z" fill="white"/>
<path d="M61.4203 16.4377C62.8366 19.433 62.739 22.3249 61.0784 25.0816C59.1737 28.24 56.276 29.8192 52.5031 29.6004C50.7404 29.4722 49.0578 28.829 47.6738 27.7544C46.2897 26.6797 45.2682 25.2232 44.7418 23.5739C44.133 21.6821 44.1637 19.649 44.8293 17.7755C45.4949 15.902 46.76 14.2878 48.4373 13.1719C49.0315 12.7741 49.5402 12.5632 50.2362 13.0207C50.9321 13.4781 51.7868 13.502 52.5927 13.4901C53.4385 13.4609 54.2808 13.3678 55.1119 13.2116C55.3426 13.1531 55.5862 13.1651 55.8097 13.2462C56.0331 13.3273 56.2257 13.4736 56.3614 13.6651C56.861 14.3332 57.4223 14.955 58.0382 15.5227C58.4814 15.9355 59.022 16.2349 59.6119 16.3945C60.2019 16.5541 60.823 16.5689 61.4203 16.4377ZM51.9985 27.2256C52.0947 27.2322 52.1912 27.2322 52.2874 27.2256C52.4299 27.1978 52.5723 27.162 52.6944 27.1262C54.5096 26.6807 55.3602 25.2964 56.048 23.7888C56.1509 23.5514 56.1724 23.288 56.1093 23.0377C56.0462 22.7875 55.9019 22.5639 55.698 22.4005C55.5503 22.2633 55.3728 22.1605 55.1787 22.0996C54.9847 22.0388 54.7792 22.0215 54.5774 22.049C54.3755 22.0765 54.1827 22.1482 54.0131 22.2586C53.8436 22.369 53.7016 22.5154 53.5979 22.6869C53.2683 23.1602 52.9997 23.6853 52.6293 24.1269C52.5463 24.2489 52.4352 24.3504 52.3051 24.4232C52.1749 24.4959 52.0292 24.5381 51.8794 24.5462C51.7297 24.5543 51.5801 24.5282 51.4425 24.4699C51.3049 24.4116 51.1831 24.3228 51.0868 24.2104C50.8417 23.9913 50.6402 23.7296 50.4926 23.4387C50.2565 22.9574 50.0856 22.4402 49.8821 21.939C49.7773 21.6487 49.5762 21.4009 49.3107 21.2351C49.0452 21.0693 48.7306 20.9951 48.4169 21.0242C48.0856 21.0758 47.7856 21.2453 47.5744 21.5001C47.3633 21.7549 47.256 22.077 47.2733 22.4045C47.2684 22.6191 47.2944 22.8334 47.3506 23.0409C47.6271 24.0558 48.1272 24.9994 48.8158 25.8056C49.6664 26.7364 50.8223 27.0785 51.9985 27.2256ZM54.7131 17.5196C54.3739 17.5434 54.0571 17.6936 53.8279 17.9391C53.5987 18.1846 53.4747 18.5067 53.4815 18.839C53.4883 19.1713 53.6254 19.4883 53.8644 19.7246C54.1034 19.961 54.4261 20.0987 54.766 20.1092C55.0973 20.1029 55.4146 19.9779 55.6577 19.7579C55.9008 19.5378 56.0528 19.2382 56.0846 18.9159C56.0892 18.5519 55.9486 18.2005 55.6926 17.9361C55.4365 17.6718 55.0852 17.5153 54.7131 17.4998V17.5196ZM51.0217 18.1919C51.0289 17.9365 50.9575 17.6848 50.8168 17.4694C50.6761 17.254 50.4725 17.0848 50.2324 16.9837C49.9922 16.8827 49.7265 16.8544 49.4697 16.9026C49.213 16.9507 48.9768 17.073 48.7919 17.2537C48.6071 17.4344 48.4819 17.6652 48.4327 17.9162C48.3835 18.1671 48.4124 18.4268 48.5158 18.6615C48.6192 18.8962 48.7923 19.0952 49.0126 19.2328C49.233 19.3703 49.4905 19.4401 49.7519 19.433C50.0876 19.419 50.4053 19.2811 50.641 19.047C50.8767 18.813 51.0127 18.5003 51.0217 18.172V18.1919Z" fill="white"/>
<path d="M54.5339 51.3902C54.6533 49.9063 55.0783 48.4612 55.7834 47.1418C56.0188 46.7338 56.3527 46.3883 56.7561 46.1354C56.8999 46.0344 57.0639 45.9642 57.2375 45.9294C57.411 45.8946 57.59 45.896 57.7629 45.9336C57.9358 45.9711 58.0987 46.0439 58.2408 46.1473C58.3829 46.2506 58.5011 46.3821 58.5875 46.5332C58.7788 46.7997 58.9172 47.0941 59.0922 47.3725C59.7515 48.4267 60.7975 49.0432 61.8516 49.6479C62.2016 49.8508 62.576 50.0139 62.9016 50.2486C63.0855 50.3565 63.245 50.4998 63.3706 50.6697C63.4962 50.8396 63.5852 51.0326 63.6324 51.2371C63.6796 51.4415 63.6838 51.6532 63.645 51.8593C63.6061 52.0655 63.5249 52.2618 63.4063 52.4364C62.723 53.6369 61.7437 54.6515 60.5574 55.388C60.0451 55.6931 59.4665 55.876 58.8684 55.922C58.2704 55.9679 57.6696 55.8756 57.1148 55.6525C56.5601 55.4294 56.0668 55.0818 55.675 54.6378C55.2832 54.1938 55.0038 53.6659 54.8595 53.0968C54.6723 52.5319 54.6275 51.9551 54.5339 51.3902ZM57.6718 50.0417C57.3464 50.797 57.2876 51.6368 57.5049 52.4284C57.6799 53.2041 58.4329 53.4667 59.1573 53.0808C59.6693 52.8193 60.0785 52.3997 60.3213 51.8875L57.6718 50.0417Z" fill="#3558A2"/>
<path d="M63.9353 47.6717C63.5845 47.6685 63.2491 47.5301 63.0022 47.2865C62.7552 47.0429 62.6167 46.7139 62.6167 46.371C62.6594 46.0294 62.8226 45.7132 63.0781 45.4765C63.3336 45.2398 63.6655 45.0976 64.0167 45.0742C64.3683 45.0913 64.7016 45.2327 64.9547 45.4719C65.2077 45.7111 65.3632 46.032 65.3924 46.3749C65.3896 46.5554 65.349 46.7334 65.2731 46.8979C65.1972 47.0625 65.0876 47.21 64.9511 47.3315C64.8145 47.453 64.654 47.5459 64.4793 47.6044C64.3046 47.6629 64.1194 47.6858 63.9353 47.6717Z" fill="#3558A2"/>
<path d="M61.6443 43.7976C61.6244 44.125 61.4755 44.4322 61.2289 44.6546C60.9823 44.8771 60.6571 44.9976 60.3216 44.9909C60.0065 44.9749 59.7092 44.843 59.4895 44.6216C59.2699 44.4003 59.144 44.1059 59.1372 43.7976C59.1576 43.2367 59.8332 42.6918 60.5454 42.6719C60.8393 42.6917 61.1149 42.8181 61.3183 43.0264C61.5216 43.2347 61.6379 43.5098 61.6443 43.7976Z" fill="#3558A2"/>
<path d="M43.7365 65.8985C43.8067 67.4462 43.3454 68.9724 42.426 70.2344C42.0338 70.8259 41.4683 71.2881 40.8032 71.5606C40.1381 71.8331 39.4044 71.9033 38.698 71.7619C37.3549 71.563 36.0973 71.2528 35.035 70.3935C34.6689 70.0986 34.3554 69.7465 34.1071 69.3513C33.9769 69.1295 33.9301 68.8701 33.9747 68.6181C34.0193 68.3661 34.1524 68.1373 34.3513 67.971C34.5121 67.7935 34.726 67.6698 34.9626 67.6177C35.1993 67.5656 35.4467 67.5876 35.6699 67.6806C36.0357 67.8484 36.3823 68.0537 36.7037 68.2932C37.3574 68.7633 38.127 69.0557 38.934 69.1405C39.2223 69.203 39.524 69.1653 39.7869 69.0338C40.0499 68.9024 40.2577 68.6856 40.3748 68.4205C40.8093 67.6974 41.0344 66.8723 41.0259 66.0337C41.0259 65.6757 40.9893 65.3137 41.0259 64.9557C41.0707 64.1323 41.4614 63.6867 42.1737 63.6111C42.8859 63.5356 43.4435 63.9055 43.6225 64.7687C43.6851 65.1426 43.7231 65.5199 43.7365 65.8985Z" fill="#3558A2"/>
<path d="M33.4764 65.147C33.4621 64.9653 33.4889 64.7827 33.5551 64.6124C33.6213 64.442 33.7252 64.288 33.8594 64.1615C33.9935 64.0349 34.1546 63.9389 34.3311 63.8803C34.5077 63.8216 34.6953 63.8018 34.8805 63.8223C35.2129 63.8197 35.5335 63.9422 35.7759 64.1644C36.0184 64.3866 36.1641 64.6914 36.1829 65.0157C36.1812 65.3774 36.0376 65.7248 35.7816 65.986C35.5257 66.2473 35.1769 66.4027 34.8072 66.42C34.6338 66.4237 34.4614 66.3935 34.3001 66.3312C34.1388 66.2689 33.9918 66.1757 33.8679 66.0571C33.7439 65.9385 33.6454 65.7969 33.5782 65.6406C33.5109 65.4843 33.4764 65.3165 33.4764 65.147Z" fill="#3558A2"/>
<path d="M38.4743 64.1358C38.3002 64.1472 38.1255 64.1239 37.9609 64.0673C37.7963 64.0108 37.6451 63.9222 37.5165 63.807C37.3879 63.6917 37.2846 63.5522 37.2128 63.3967C37.1409 63.2413 37.1021 63.0732 37.0986 62.9027C37.0994 62.5595 37.2357 62.2297 37.479 61.9822C37.7224 61.7347 38.0542 61.5886 38.4051 61.5742C38.7533 61.6038 39.0786 61.7561 39.3205 62.0027C39.5623 62.2493 39.7042 62.5734 39.7197 62.9147C39.7236 63.0757 39.694 63.2359 39.6329 63.3855C39.5717 63.5351 39.4802 63.6711 39.3638 63.7852C39.2474 63.8993 39.1086 63.9892 38.9557 64.0495C38.8029 64.1097 38.6391 64.1391 38.4743 64.1358Z" fill="#3558A2"/>
<path d="M41.1766 42.341C41.0659 43.4272 40.7916 44.4915 40.3626 45.4994C39.2719 47.8861 36.5939 48.5782 34.3758 47.0905C32.7885 46.0244 31.9339 44.5367 31.4699 42.7785C31.4027 42.5743 31.3711 42.3605 31.3763 42.1461C31.3814 41.817 31.5076 41.5008 31.7318 41.2553C31.9561 41.0098 32.2633 40.8516 32.5973 40.8095C32.9311 40.7714 33.2677 40.8545 33.5431 41.0429C33.8185 41.2314 34.0134 41.5121 34.0909 41.8318C34.2822 42.3728 34.4287 42.9336 34.6485 43.4627C34.94 44.1729 35.5037 44.7439 36.2195 45.0538C36.9277 45.3721 37.4852 45.2408 37.7498 44.5248C38.0121 43.7058 38.2147 42.8697 38.3562 42.0227C38.4091 41.7801 38.3562 41.5176 38.3847 41.2709C38.3978 40.988 38.5099 40.7181 38.7021 40.5062C38.8944 40.2943 39.1552 40.1532 39.441 40.1067C39.7269 40.0601 40.0204 40.1108 40.2726 40.2503C40.5247 40.3898 40.7203 40.6097 40.8266 40.8732C40.9844 41.3522 41.1014 41.8431 41.1766 42.341Z" fill="#3558A2"/>
<path d="M31.7426 38.1637C31.7741 37.8045 31.9419 37.4699 32.213 37.2255C32.4841 36.9811 32.839 36.8447 33.2078 36.843C33.4011 36.835 33.594 36.8665 33.7741 36.9357C33.9542 37.0048 34.1175 37.11 34.2536 37.2445C34.3896 37.3789 34.4954 37.5398 34.5641 37.7166C34.6328 37.8934 34.6629 38.0823 34.6526 38.2711C34.5874 39.0906 34.0177 39.4924 33.1467 39.5162C32.9621 39.5234 32.7779 39.4934 32.6056 39.4282C32.4333 39.363 32.2765 39.264 32.1449 39.1372C32.0133 39.0105 31.9097 38.8586 31.8405 38.6912C31.7713 38.5238 31.738 38.3442 31.7426 38.1637Z" fill="#3558A2"/>
<path d="M37.9166 38.9589C37.7415 38.9638 37.5672 38.9339 37.4043 38.871C37.2414 38.8081 37.0932 38.7135 36.9688 38.593C36.8444 38.4725 36.7462 38.3286 36.6804 38.17C36.6145 38.0113 36.5823 37.8413 36.5857 37.6701C36.5869 37.4991 36.6241 37.3301 36.6948 37.1737C36.7655 37.0173 36.8684 36.8768 36.997 36.7608C37.1255 36.6448 37.2771 36.5559 37.4423 36.4995C37.6075 36.4431 37.7828 36.4205 37.9573 36.433C38.2868 36.4704 38.594 36.6144 38.8301 36.8422C39.0661 37.07 39.2173 37.3685 39.2596 37.69C39.2598 37.8604 39.2247 38.0291 39.1567 38.1859C39.0887 38.3428 38.989 38.4847 38.8637 38.6031C38.7383 38.7215 38.5899 38.8141 38.4272 38.8752C38.2645 38.9363 38.0908 38.9648 37.9166 38.9589Z" fill="#3558A2"/>
<path d="M51.9989 27.2256C50.8227 27.0983 49.6668 26.7562 48.8365 25.7856C48.1479 24.9794 47.6478 24.0359 47.3713 23.021C47.3151 22.8135 47.2891 22.5992 47.294 22.3845C47.2768 22.0571 47.3841 21.7349 47.5952 21.4801C47.8063 21.2253 48.1064 21.0558 48.4377 21.0042C48.7513 20.9751 49.0659 21.0494 49.3314 21.2152C49.5969 21.381 49.798 21.6288 49.9029 21.9191C50.1104 22.4203 50.2773 22.9375 50.5133 23.4188C50.661 23.7097 50.8624 23.9713 51.1075 24.1905C51.2039 24.3028 51.3257 24.3916 51.4633 24.4499C51.6009 24.5082 51.7505 24.5344 51.9002 24.5262C52.0499 24.5181 52.1957 24.476 52.3258 24.4032C52.456 24.3304 52.567 24.229 52.6501 24.107C53.0204 23.6654 53.289 23.1403 53.6187 22.667C53.7224 22.4955 53.8643 22.3491 54.0338 22.2387C54.2034 22.1283 54.3963 22.0566 54.5981 22.0291C54.7999 22.0016 55.0055 22.0189 55.1995 22.0797C55.3935 22.1406 55.571 22.2434 55.7187 22.3805C55.9226 22.544 56.067 22.7676 56.13 23.0178C56.1931 23.268 56.1717 23.5315 56.0688 23.7688C55.381 25.2765 54.5303 26.6607 52.7151 27.1062C52.5727 27.142 52.4302 27.1778 52.3081 27.2057C52.2057 27.2198 52.1023 27.2264 51.9989 27.2256Z" fill="#3558A2"/>
<path d="M54.7133 17.4981C55.0811 17.5135 55.4289 17.6666 55.6842 17.9259C55.9396 18.1851 56.0831 18.5305 56.0848 18.8904C56.0529 19.2127 55.901 19.5124 55.6579 19.7324C55.4148 19.9524 55.0974 20.0775 54.7662 20.0838C54.4263 20.0732 54.1036 19.9355 53.8646 19.6992C53.6255 19.4628 53.4885 19.1457 53.4817 18.8135C53.4749 18.4812 53.5989 18.1591 53.8281 17.9136C54.0573 17.6681 54.3741 17.5179 54.7133 17.4941V17.4981Z" fill="#3558A2"/>
<path d="M51.022 18.1704C51.019 18.4259 50.9376 18.6746 50.7885 18.8844C50.6393 19.0942 50.4292 19.2554 50.1853 19.3473C49.9414 19.4391 49.6749 19.4574 49.4202 19.3996C49.1656 19.3419 48.9346 19.2108 48.757 19.0233C48.5794 18.8359 48.4634 18.6006 48.4241 18.3481C48.3847 18.0955 48.4238 17.8372 48.5362 17.6066C48.6486 17.376 48.8293 17.1836 49.0547 17.0544C49.2802 16.9251 49.5402 16.8649 49.801 16.8816C50.1321 16.9094 50.4408 17.0568 50.6666 17.2952C50.8924 17.5335 51.0191 17.8456 51.022 18.1704Z" fill="#3558A2"/>
<path d="M57.6721 50.043L60.3216 51.8966C60.0788 52.4089 59.6696 52.8284 59.1576 53.0899C58.4332 53.4877 57.6802 53.2132 57.5052 52.4376C57.286 51.6435 57.3448 50.8006 57.6721 50.043Z" fill="#979FBB"/>
</svg>
