<svg width="300" height="300" viewBox="0 0 300 300" fill="none" xmlns="http://www.w3.org/2000/svg">
<g clip-path="url(#clip0_1_8011)">
<path d="M127.503 28.9257C129.553 25.3557 132.353 23.6857 136.573 25.1757C137.023 24.0457 137.443 23.0657 137.813 22.0757C141.243 12.8157 144.643 3.55571 148.083 -5.69429C148.39 -6.63775 148.803 -7.54349 149.313 -8.39429C149.727 -9.05772 150.356 -9.55885 151.095 -9.81372C151.834 -10.0686 152.638 -10.0617 153.373 -9.79429C154.15 -9.5122 154.805 -8.96919 155.227 -8.25794C155.648 -7.54669 155.809 -6.71128 155.683 -5.89429C155.519 -5.00621 155.261 -4.13804 154.913 -3.3043L144.163 26.0157C143.913 26.6957 143.683 27.3757 143.513 27.8457C144.773 29.1557 146.373 30.1757 146.953 31.6157C147.533 33.0557 147.083 34.8957 147.083 36.7457C151.743 39.5457 151.813 39.7457 150.413 45.5157C148.773 52.2957 147.137 59.0724 145.503 65.8457C145.489 66.0121 145.489 66.1793 145.503 66.3457C146.313 66.7057 147.173 67.1557 148.073 67.4957C153.073 69.4057 158.073 71.2557 163.073 73.1757C166.893 74.6457 167.683 76.8857 166.743 80.9357C165.243 87.3657 163.913 93.8457 162.913 100.366C161.783 107.706 161.183 115.126 160.163 122.476C159.823 124.966 160.433 126.576 162.643 127.816C164.78 129.011 166.823 130.369 168.753 131.876C170.779 133.421 172.436 135.399 173.601 137.665C174.767 139.931 175.414 142.429 175.493 144.976C175.625 149.242 175.147 153.505 174.073 157.636C173.373 160.726 174.073 160.636 175.953 161.636C184.783 166.636 193.613 171.636 202.483 176.636C207.133 179.216 208.483 181.856 207.303 187.166C206.563 190.626 205.823 194.086 204.993 197.516C204.838 198.117 204.85 198.749 205.026 199.344C205.202 199.939 205.536 200.476 205.993 200.896C211.883 207.896 216.453 215.686 217.913 224.896C218.93 230.532 218.791 236.315 217.503 241.896C215.003 251.896 208.433 257.786 198.503 259.836C192.323 261.116 186.033 260.636 179.773 260.256C174.163 259.916 168.553 259.386 162.943 259.446C158.368 259.566 153.896 260.838 149.943 263.146C145.783 265.446 143.513 269.066 142.573 273.766C143.263 274.076 143.813 274.356 144.393 274.586C146.676 275.406 148.683 276.848 150.189 278.75C151.694 280.651 152.638 282.936 152.913 285.346C153.29 288.219 153.407 291.121 153.263 294.016C153.073 298.076 152.423 298.646 148.403 299.426C147.983 301.826 147.563 304.316 147.113 306.786C147.012 307.5 146.82 308.199 146.543 308.866C146.239 309.58 145.705 310.173 145.025 310.55C144.346 310.926 143.561 311.066 142.793 310.946C142.02 310.819 141.317 310.42 140.813 309.82C140.308 309.22 140.035 308.459 140.043 307.676C140.113 305.426 140.523 303.176 140.803 300.936C140.903 300.056 141.043 299.186 141.203 298.036L132.923 296.676C132.533 298.466 132.193 300.106 131.823 301.736C131.577 303.158 131.243 304.564 130.823 305.946C130.083 308.066 128.543 308.946 126.633 308.466C125.74 308.246 124.965 307.692 124.468 306.918C123.971 306.144 123.791 305.209 123.963 304.306C124.223 302.306 124.683 300.386 125.033 298.416C125.203 297.536 125.323 296.656 125.453 295.856C121.773 293.256 121.323 292.136 122.873 287.986C123.881 285.272 125.105 282.643 126.533 280.126C128.072 277.396 130.565 275.33 133.533 274.326C134.012 274.221 134.447 273.973 134.783 273.617C135.118 273.26 135.338 272.81 135.413 272.326C138.083 260.476 146.413 255.006 157.613 252.846C163.483 251.706 169.373 252.236 175.263 252.526C181.153 252.816 187.033 253.316 192.913 253.266C195.716 253.156 198.477 252.543 201.063 251.456C206.653 249.236 209.863 244.846 210.833 238.976C212.53 229.95 210.686 220.617 205.683 212.916C204.803 211.566 203.973 210.176 202.823 208.326C202.173 211.086 201.633 213.326 201.113 215.586C200.883 216.586 200.723 217.586 200.493 218.516C199.653 222.226 197.613 223.256 194.113 221.846C187.214 219.079 180.515 215.838 174.063 212.146C162.573 205.576 150.923 199.266 139.443 192.676C130.713 187.676 121.993 182.596 113.523 177.156C104.733 171.506 96.4531 165.156 89.7131 157.006C83.2131 149.156 80.5432 140.106 81.0632 130.006C81.4632 122.386 84.0632 115.296 86.3632 108.166C91.5232 92.1657 97.9732 76.7357 104.283 61.2157C104.811 59.7665 105.481 58.3731 106.283 57.0557C106.892 55.9581 107.824 55.0748 108.953 54.5257C110.743 53.9257 111.463 52.6957 112.153 51.1757C114.993 44.909 117.863 38.6524 120.763 32.4057C122.343 28.8857 123.543 28.2857 127.503 28.9257ZM112.013 61.5457C111.403 62.9257 110.913 63.9857 110.473 65.0657C106.723 74.3957 102.703 83.6257 99.3032 93.0657C95.6332 103.356 92.0332 113.766 89.1832 124.356C86.2832 135.066 88.5731 144.986 96.0831 153.496C102.228 160.326 109.332 166.227 117.173 171.016C128.783 178.276 140.663 185.126 152.533 191.956C163.143 198.066 173.883 203.956 184.603 209.856C187.513 211.456 190.463 213.086 194.143 213.406C196.283 203.556 198.423 193.776 200.553 183.966C199.843 183.526 199.333 183.166 198.783 182.866C193.213 179.866 187.573 176.866 182.063 173.766C175.443 169.996 168.763 166.286 163.223 160.936C157.223 155.086 152.923 148.236 152.223 139.676C151.968 136.236 151.998 132.781 152.313 129.346C152.763 124.026 153.493 118.726 154.163 113.426C155.163 105.606 156.163 97.7857 157.253 89.9957C157.763 86.5257 158.633 83.1157 159.373 79.5057L112.013 61.5457ZM126.693 36.6357C123.693 43.1357 120.803 49.4457 117.793 56.0257L138.503 63.8757C140.203 56.8757 141.833 50.1557 143.503 43.2957L126.693 36.6357ZM145.693 291.386C146.893 285.566 144.883 281.926 140.003 280.876C135.473 279.876 131.743 282.996 130.593 288.756C130.997 288.93 131.415 289.067 131.843 289.166C136.443 289.916 141.073 290.646 145.683 291.356L145.693 291.386ZM166.933 154.466C170.113 145.026 168.343 138.046 159.403 134.816C158.743 142.586 161.883 148.776 166.923 154.466H166.933Z" fill="#3558A2"/>
<path d="M112.014 61.5449L159.364 79.4749C158.624 83.0849 157.754 86.4749 157.244 89.9649C156.114 97.7549 155.154 105.575 154.154 113.395C153.484 118.695 152.754 123.995 152.304 129.315C151.989 132.75 151.959 136.205 152.214 139.645C152.924 148.205 157.214 155.055 163.214 160.905C168.754 166.255 175.434 169.965 182.054 173.735C187.564 176.875 193.204 179.805 198.774 182.835C199.324 183.135 199.834 183.495 200.544 183.935C198.414 193.745 196.274 203.525 194.134 213.375C190.454 213.055 187.504 211.425 184.594 209.825C173.874 203.915 163.134 198.035 152.524 191.925C140.654 185.095 128.774 178.245 117.164 170.985C109.323 166.197 102.218 160.295 96.0736 153.465C88.5636 144.955 86.2737 135.035 89.1737 124.325C92.0237 113.765 95.5837 103.375 99.2937 93.0849C102.694 83.6249 106.714 74.3949 110.464 65.0849C110.914 63.9849 111.404 62.9249 112.014 61.5449ZM129.234 145.175C132.312 145.172 135.264 143.956 137.451 141.79C139.638 139.624 140.882 136.683 140.914 133.605C141.024 126.715 135.424 120.605 128.914 120.605C125.8 120.662 122.832 121.935 120.644 124.151C118.456 126.367 117.221 129.351 117.204 132.465C117.304 139.285 122.854 145.155 129.234 145.175V145.175ZM148.734 105.465C148.764 103.946 148.492 102.436 147.934 101.023C147.375 99.6095 146.541 98.3216 145.481 97.2337C144.42 96.1459 143.153 95.2799 141.754 94.6861C140.356 94.0923 138.853 93.7826 137.334 93.7749C134.27 93.8221 131.347 95.0704 129.194 97.2512C127.041 99.4319 125.831 102.371 125.824 105.435C125.778 106.968 126.041 108.494 126.596 109.923C127.152 111.353 127.988 112.656 129.056 113.756C130.125 114.857 131.403 115.731 132.815 116.328C134.227 116.926 135.745 117.233 137.279 117.233C138.812 117.233 140.33 116.926 141.742 116.328C143.155 115.731 144.433 114.857 145.501 113.756C146.569 112.656 147.406 111.353 147.961 109.923C148.516 108.494 148.779 106.968 148.734 105.435V105.465ZM102.414 132.605C102.334 135.125 103.414 136.605 105.224 137.015C107.034 137.425 108.644 136.385 109.374 134.355C109.494 134.015 109.544 133.655 109.644 133.305C111.494 126.765 113.334 120.225 115.224 113.705C116.224 110.225 117.384 106.785 118.324 103.285C118.604 102.455 118.552 101.55 118.179 100.757C117.806 99.9652 117.141 99.3479 116.324 99.0349C115.515 98.7021 114.611 98.6896 113.793 98.9997C112.976 99.3099 112.308 99.9196 111.924 100.705C111.376 101.647 110.949 102.655 110.654 103.705C107.987 112.832 105.347 121.962 102.734 131.095C102.574 131.695 102.474 132.355 102.414 132.605V132.605Z" fill="#979FBB"/>
<path d="M126.693 36.6348L143.493 43.2948C141.833 50.1548 140.203 56.8648 138.493 63.8748L117.783 56.0248C120.803 49.4448 123.703 43.1348 126.693 36.6348Z" fill="#CBCFDD"/>
<path d="M145.684 291.356C141.074 290.616 136.444 289.886 131.834 289.136C131.406 289.037 130.988 288.9 130.584 288.726C131.734 282.966 135.464 279.876 139.994 280.846C144.874 281.926 146.884 285.566 145.684 291.356Z" fill="white"/>
<path d="M166.923 154.466C161.923 148.776 158.743 142.586 159.393 134.816C168.333 138.046 170.103 145.026 166.923 154.466Z" fill="white"/>
<path d="M129.232 145.176C122.852 145.176 117.302 139.286 117.232 132.446C117.25 129.332 118.485 126.348 120.673 124.132C122.861 121.916 125.829 120.643 128.943 120.586C135.443 120.636 141.043 126.716 140.943 133.586C140.916 136.672 139.67 139.623 137.476 141.795C135.283 143.966 132.319 145.181 129.232 145.176ZM133.512 133.406C133.512 130.306 131.512 127.966 128.772 127.906C126.342 127.856 124.712 129.556 124.632 132.246C124.532 135.396 126.732 137.976 129.492 137.956C131.762 137.936 133.462 136.006 133.512 133.406V133.406Z" fill="#3558A2"/>
<path d="M148.734 105.466C148.689 107.724 147.977 109.919 146.688 111.775C145.398 113.63 143.59 115.063 141.489 115.893C139.388 116.724 137.088 116.914 134.879 116.442C132.669 115.969 130.649 114.854 129.072 113.236C127.495 111.619 126.43 109.571 126.013 107.351C125.596 105.131 125.845 102.836 126.728 100.757C127.611 98.6773 129.089 96.9051 130.976 95.663C132.863 94.4208 135.075 93.7642 137.334 93.7755C138.854 93.7832 140.356 94.0929 141.755 94.6867C143.154 95.2805 144.42 96.1465 145.481 97.2344C146.542 98.3222 147.376 99.6101 147.934 101.023C148.493 102.436 148.765 103.946 148.734 105.466V105.466ZM141.564 105.536C141.507 104.719 141.215 103.937 140.725 103.282C140.235 102.626 139.566 102.126 138.799 101.841C138.032 101.556 137.199 101.498 136.4 101.673C135.601 101.849 134.869 102.251 134.292 102.832C133.716 103.412 133.318 104.147 133.148 104.947C132.978 105.748 133.041 106.58 133.332 107.345C133.622 108.11 134.126 108.776 134.785 109.262C135.443 109.748 136.227 110.034 137.044 110.086C138.238 110.052 139.373 109.562 140.214 108.714C141.056 107.867 141.539 106.729 141.564 105.536V105.536Z" fill="#3558A2"/>
<path d="M102.412 132.607C102.472 132.327 102.572 131.697 102.742 131.087C105.376 121.96 108.016 112.83 110.662 103.697C110.958 102.647 111.384 101.639 111.932 100.697C112.316 99.9113 112.985 99.3016 113.802 98.9914C114.619 98.6813 115.524 98.6938 116.332 99.0266C117.15 99.3396 117.815 99.9569 118.188 100.749C118.561 101.541 118.612 102.447 118.332 103.277C117.392 106.777 116.232 110.217 115.232 113.697C113.342 120.217 111.502 126.757 109.652 133.297C109.552 133.647 109.502 134.007 109.382 134.347C108.652 136.347 107.072 137.347 105.232 137.007C103.392 136.667 102.332 135.127 102.412 132.607Z" fill="#3558A2"/>
<path d="M133.513 133.405C133.463 136.005 131.763 137.935 129.513 137.955C126.753 137.955 124.513 135.395 124.653 132.245C124.733 129.555 126.363 127.855 128.793 127.905C131.543 127.965 133.563 130.355 133.513 133.405Z" fill="white"/>
<path d="M141.564 105.536C141.539 106.73 141.056 107.868 140.214 108.715C139.373 109.562 138.238 110.053 137.044 110.086C135.948 109.963 134.935 109.442 134.198 108.622C133.46 107.802 133.05 106.739 133.044 105.636C132.98 105.044 133.041 104.445 133.222 103.878C133.403 103.311 133.7 102.788 134.095 102.343C134.49 101.897 134.974 101.54 135.515 101.292C136.057 101.045 136.644 100.914 137.239 100.907C137.835 100.9 138.425 101.017 138.972 101.252C139.519 101.486 140.011 101.833 140.416 102.268C140.822 102.704 141.132 103.22 141.326 103.783C141.52 104.346 141.595 104.943 141.544 105.536H141.564Z" fill="white"/>
</g>
<defs>
<clipPath id="clip0_1_8011">
<rect width="300" height="300" fill="white"/>
</clipPath>
</defs>
</svg>
