<svg width="300" height="300" viewBox="0 0 300 300" fill="none" xmlns="http://www.w3.org/2000/svg">
<path d="M226.059 148.085C226.059 187.635 199.709 219.685 163.559 226.375C131.789 232.245 99.4185 216.375 83.5585 187.035C62.4785 148.035 77.4885 99.2846 116.558 79.7746C130.355 72.9271 145.934 70.5197 161.154 72.8833C176.374 75.2469 190.488 82.2654 201.559 92.9746C209.117 100.058 215.18 108.584 219.388 118.049C223.596 127.515 225.864 137.728 226.059 148.085V148.085ZM152.059 79.4746C151.072 81.969 149.961 84.4121 148.728 86.7946C145.628 92.2246 141.378 96.3046 134.588 95.4846C130.448 94.9946 127.848 96.7446 125.008 99.3346C122.314 101.869 119.188 103.901 115.778 105.335C110.928 107.245 106.308 105.085 102.098 102.655C100.178 101.555 99.1984 101.785 97.8584 103.435C92.7919 109.397 88.8206 116.208 86.1284 123.555C84.3284 128.725 83.0485 134.085 81.4285 139.725C91.5085 141.145 95.9085 147.285 96.3085 156.055C96.6685 164.175 99.9285 170.475 105.678 175.845C106.891 177.081 107.995 178.419 108.978 179.845C112.46 184.201 114.55 189.504 114.978 195.065C115.228 199.505 115.188 203.965 114.978 208.405C114.867 208.955 114.943 209.528 115.195 210.03C115.447 210.532 115.86 210.935 116.368 211.175C123.485 215.219 131.24 218.019 139.298 219.455C140.948 219.745 141.428 219.105 141.998 217.695C143.242 214.484 144.685 211.355 146.319 208.325C147.35 206.227 148.958 204.467 150.954 203.25C152.95 202.033 155.251 201.41 157.588 201.455C160.809 201.5 163.916 200.266 166.228 198.025C172.588 192.025 180.008 192.195 187.118 196.945C189.888 198.795 192.438 200.945 195.118 203.015C211.688 191.365 223.898 155.695 217.488 138.385C212.818 139.815 208.248 141.965 203.488 142.495C196.008 143.325 190.978 146.255 189.278 153.915C188.938 155.141 188.35 156.285 187.548 157.275C185.288 160.275 182.268 161.775 178.548 160.655C176.575 160.025 174.697 159.127 172.968 157.985C170.848 156.605 168.968 154.865 166.968 153.335C162.488 149.955 159.678 150.135 155.718 154.025C154.878 154.845 154.128 155.775 153.268 156.585C151.144 158.821 148.872 160.912 146.468 162.845C144.015 164.674 141.323 166.161 138.468 167.265C129.608 170.505 122.378 165.835 121.278 156.475C120.508 150.005 123.119 144.365 125.699 138.775C127.323 135.503 127.796 131.778 127.038 128.205C125.838 122.665 127.748 118.205 132.418 115.315C135.798 113.211 139.4 111.487 143.158 110.175C148.038 108.475 152.568 106.315 156.278 102.705C162.508 96.6446 168.658 90.4946 174.798 84.4346C170.798 81.8746 158.268 79.0946 152.088 79.4746H152.059ZM128.268 152.355C128.338 160.215 131.578 162.475 137.268 159.895C139.787 158.669 142.12 157.093 144.199 155.215C146.739 153.025 148.889 150.405 151.329 148.105C157.169 142.605 163.508 142.105 170.088 146.645C172.478 148.295 174.658 150.225 177.008 151.945C180.598 154.565 181.708 154.305 183.008 150.135C185.778 140.895 192.128 136.615 201.478 135.405C205.678 134.865 209.698 132.835 213.758 131.405C215.628 130.725 215.868 129.405 215.218 127.495C210.647 113.697 201.979 101.62 190.368 92.8746C183.298 87.4746 182.138 87.4946 175.518 93.5946C171.918 96.9046 168.698 100.595 165.278 104.125C159.278 110.255 152.498 115.055 144.098 117.415C141.527 118.287 139.067 119.458 136.768 120.905C135.719 121.384 134.877 122.224 134.394 123.272C133.912 124.32 133.821 125.506 134.138 126.615C135.518 132.385 134.198 137.615 131.678 142.915C130.34 145.985 129.201 149.138 128.268 152.355V152.355ZM81.5785 147.125C79.1285 166.015 94.9485 200.315 107.918 204.515C109.078 194.855 106.598 186.425 99.3985 179.585C98.2885 178.585 97.3985 177.265 96.3285 176.135C92.8754 172.487 90.6694 167.837 90.0285 162.855C89.6885 160.345 89.3885 157.855 89.0285 155.325C88.4385 150.465 86.4085 148.185 81.5685 147.165L81.5785 147.125ZM189.388 207.545C187.388 205.985 185.578 204.465 183.658 203.125C179.658 200.365 175.288 199.195 170.658 203.595C167.872 206.385 164.188 208.1 160.258 208.435C153.978 208.885 149.648 213.435 149.348 219.925C160.998 221.355 179.528 215.665 189.378 207.585L189.388 207.545ZM143.768 79.7146C132.218 79.5146 110.948 88.7146 105.628 96.1546C111.258 99.8446 115.198 99.3946 119.808 94.5046C120.308 93.9746 120.808 93.4346 121.308 92.9346C122.841 91.3132 124.708 90.0455 126.781 89.22C128.853 88.3944 131.081 88.0308 133.308 88.1546C139.178 88.4446 142.458 85.6746 143.768 79.7146Z" fill="#3558A2"/>
<path d="M152.088 79.4745C158.278 79.0945 170.798 81.8745 174.718 84.3745C168.578 90.4345 162.428 96.5845 156.198 102.644C152.488 106.254 147.958 108.415 143.078 110.115C139.319 111.427 135.718 113.151 132.338 115.255C127.668 118.175 125.758 122.604 126.958 128.144C127.715 131.718 127.243 135.443 125.618 138.714C123.038 144.304 120.428 149.944 121.198 156.414C122.298 165.774 129.528 170.414 138.388 167.204C141.243 166.101 143.934 164.614 146.388 162.784C148.791 160.852 151.063 158.76 153.188 156.524C154.048 155.714 154.798 154.784 155.638 153.964C159.638 150.074 162.408 149.894 166.888 153.274C168.888 154.804 170.808 156.544 172.888 157.924C174.616 159.067 176.494 159.965 178.468 160.594C182.228 161.714 185.248 160.234 187.468 157.214C188.269 156.225 188.858 155.081 189.198 153.854C190.898 146.194 195.928 143.265 203.408 142.435C208.168 141.905 212.738 139.754 217.408 138.324C223.818 155.634 211.608 191.324 195.038 202.954C192.378 200.954 189.828 198.735 187.038 196.885C179.928 192.135 172.508 191.944 166.148 197.964C163.835 200.206 160.728 201.439 157.508 201.394C155.171 201.35 152.869 201.973 150.873 203.19C148.877 204.407 147.269 206.167 146.238 208.264C144.604 211.295 143.161 214.424 141.918 217.635C141.348 219.045 140.918 219.684 139.218 219.394C131.159 217.959 123.404 215.159 116.288 211.114C115.779 210.875 115.366 210.472 115.114 209.97C114.862 209.467 114.786 208.895 114.898 208.344C115.078 203.904 115.118 199.445 114.898 195.005C114.47 189.444 112.379 184.141 108.898 179.784C107.914 178.359 106.81 177.021 105.598 175.784C99.8477 170.414 96.5977 164.115 96.2277 155.995C95.8277 147.225 91.4277 141.084 81.3477 139.664C82.9677 134.024 84.2477 128.665 86.0477 123.495C88.7712 116.133 92.78 109.314 97.8877 103.355C99.2277 101.705 100.208 101.474 102.128 102.574C106.338 105.004 110.958 107.165 115.808 105.255C119.218 103.821 122.344 101.789 125.038 99.2545C127.878 96.6645 130.478 94.9145 134.618 95.4045C141.408 96.2245 145.618 92.1445 148.758 86.7145C149.987 84.3581 151.099 81.9417 152.088 79.4745V79.4745ZM143.628 177.794C143.868 183.204 148.148 186.894 152.728 184.794C159.338 181.794 165.368 177.674 169.248 171.214C170.988 168.314 170.768 165.465 168.868 163.385C167.925 162.322 166.682 161.571 165.304 161.232C163.925 160.893 162.475 160.981 161.148 161.484C155.017 163.337 149.697 167.215 146.058 172.484C145.084 174.175 144.27 175.953 143.628 177.794Z" fill="#CBCFDD"/>
<path d="M128.268 152.354C129.189 149.124 130.318 145.958 131.648 142.874C134.168 137.624 135.488 132.344 134.108 126.574C133.79 125.465 133.881 124.279 134.364 123.231C134.846 122.183 135.688 121.344 136.738 120.864C139.036 119.417 141.496 118.246 144.068 117.374C152.468 115.014 159.258 110.214 165.248 104.084C168.668 100.584 171.888 96.8639 175.488 93.5539C182.108 87.4539 183.268 87.4339 190.338 92.8339C201.948 101.579 210.616 113.656 215.188 127.454C215.838 129.454 215.598 130.684 213.728 131.364C209.668 132.834 205.648 134.864 201.448 135.364C192.098 136.574 185.748 140.854 182.978 150.094C181.728 154.264 180.618 154.524 176.978 151.904C174.628 150.184 172.448 148.254 170.058 146.604C163.478 142.064 157.138 142.604 151.298 148.064C148.858 150.364 146.708 152.984 144.168 155.174C142.089 157.052 139.756 158.628 137.238 159.854C131.568 162.514 128.328 160.254 128.268 152.354Z" fill="#979FBB"/>
<path d="M81.5676 147.164C86.4076 148.164 88.4376 150.464 89.0576 155.364C89.3776 157.874 89.6776 160.364 90.0576 162.894C90.6985 167.876 92.9044 172.526 96.3575 176.174C97.3575 177.304 98.3576 178.574 99.4276 179.624C106.628 186.464 109.108 194.894 107.948 204.554C94.9376 200.354 79.1176 166.054 81.5676 147.164Z" fill="#979FBB"/>
<path d="M189.377 207.583C179.527 215.664 160.997 221.304 149.377 219.964C149.677 213.443 154.007 208.963 160.287 208.473C164.216 208.139 167.901 206.424 170.687 203.633C175.317 199.233 179.687 200.403 183.687 203.163C185.567 204.503 187.367 206.023 189.377 207.583Z" fill="white"/>
<path d="M143.768 79.7142C142.458 85.7142 139.178 88.4442 133.278 88.1542C131.05 88.0304 128.823 88.394 126.75 89.2195C124.677 90.0451 122.81 91.3128 121.278 92.9342C120.758 93.4342 120.278 93.9342 119.778 94.5042C115.168 99.3942 111.228 99.8442 105.598 96.1542C110.948 88.6842 132.268 79.5142 143.768 79.7142Z" fill="white"/>
<path d="M143.627 177.795C144.269 175.95 145.083 174.168 146.057 172.475C149.696 167.205 155.017 163.327 161.147 161.475C162.475 160.971 163.924 160.883 165.303 161.222C166.682 161.562 167.925 162.312 168.867 163.375C170.767 165.455 170.987 168.305 169.247 171.205C165.367 177.665 159.337 181.765 152.727 184.785C148.147 186.895 143.867 183.205 143.627 177.795ZM151.627 176.235L152.337 177.155C155.43 174.808 158.514 172.451 161.587 170.085L160.907 169.205L151.627 176.235Z" fill="#3558A2"/>
<path d="M151.648 176.234L160.928 169.234L161.608 170.114C158.528 172.474 155.445 174.831 152.358 177.184L151.648 176.234Z" fill="#979FBB"/>
</svg>
