<svg width="300" height="300" viewBox="0 0 300 300" fill="none" xmlns="http://www.w3.org/2000/svg">
<path d="M103.409 81.3245L90.0793 85.3245C89.3004 85.5742 88.5094 85.7845 87.7093 85.9545C85.7093 86.3545 84.0193 85.8445 83.3693 83.7245C83.219 83.3118 83.1572 82.872 83.1879 82.4338C83.2187 81.9957 83.3413 81.5689 83.5479 81.1812C83.7545 80.7935 84.0404 80.4537 84.3869 80.1838C84.7334 79.9138 85.1328 79.7199 85.5593 79.6145C90.4593 77.9445 95.3793 76.3345 100.359 74.9645C102.529 74.3745 103.199 73.6445 102.789 71.2745C100.849 60.2045 99.1193 49.0945 97.3393 37.9845C96.9593 35.5645 98.1793 33.5545 100.179 33.0945C102.179 32.6345 103.879 33.8745 104.739 36.3645C108.439 46.9845 112.209 57.5745 115.859 68.2045C116.399 69.7745 117.169 69.8445 118.519 69.4145C122.749 68.0645 127.019 66.7945 131.269 65.5045C132.047 65.2534 132.838 65.0464 133.639 64.8845C135.639 64.5445 137.349 65.2345 137.919 67.2945C138.489 69.3545 137.309 70.8545 135.389 71.4945C131.249 72.8645 127.069 74.0745 122.899 75.3545L119.209 76.5545C125.459 87.5545 131.209 98.2445 137.589 108.664C149.999 129.084 166.099 146.664 181.689 164.584C195.969 181.024 210.379 197.354 224.759 213.704C226.619 215.814 228.759 217.704 230.619 219.784C233.459 222.934 232.339 227.154 228.329 228.434C219.169 231.374 209.999 234.274 200.819 237.134C196.819 238.384 196.119 237.534 194.469 233.684C189.739 222.614 182.369 213.684 171.579 207.994C166.524 205.238 160.797 203.956 155.049 204.294C143.469 205.004 134.969 211.004 128.389 220.104C121.809 229.204 118.659 239.694 117.479 250.784C116.889 256.234 116.819 256.444 111.479 257.944C102.129 260.544 92.7294 263.024 83.4094 265.764C80.9444 266.436 78.3155 266.131 76.0693 264.914C74.0693 264.004 73.8293 262.204 74.3393 260.274C75.2593 256.854 76.3394 253.484 77.1494 250.034C82.4794 226.404 87.8493 202.774 92.9793 179.104C95.8693 165.804 98.7493 152.494 100.889 139.104C103.714 120.614 104.606 101.88 103.549 83.2045C103.489 82.7045 103.459 82.2545 103.409 81.3245ZM214.409 213.254C214.344 213.009 214.246 212.774 214.119 212.554C204.249 201.304 194.399 190.024 184.439 178.864C183.977 178.503 183.441 178.247 182.869 178.116C182.297 177.984 181.703 177.981 181.129 178.104C153.356 184.831 125.603 191.644 97.8693 198.544C97.3678 198.726 96.9134 199.019 96.5396 199.399C96.1658 199.78 95.882 200.24 95.7093 200.744C92.3793 214.964 89.1693 229.214 85.9593 243.464C85.8965 244.13 85.8965 244.799 85.9593 245.464C94.1393 243.384 102.029 241.314 109.959 239.414C110.748 239.33 111.488 238.992 112.069 238.451C112.649 237.91 113.039 237.195 113.179 236.414C115.014 229.466 118.028 222.884 122.089 216.954C136.429 195.954 160.629 191.044 180.609 205.514C185.449 209.024 189.319 213.884 193.539 218.224C194.539 219.224 195.209 220.224 196.899 219.614C202.649 217.444 208.449 215.444 214.409 213.254ZM178.199 171.564C177.579 170.694 177.259 170.164 176.859 169.704C169.859 161.514 162.769 153.364 155.859 145.124C155.405 144.468 154.741 143.985 153.976 143.754C153.212 143.523 152.391 143.559 151.649 143.854C136.729 147.714 121.769 151.434 106.849 155.304C106.402 155.484 106 155.761 105.673 156.116C105.346 156.47 105.102 156.894 104.959 157.354C102.569 167.964 100.289 178.604 97.9593 189.244C97.8963 189.91 97.8963 190.579 97.9593 191.244C106.319 189.244 114.429 187.244 122.489 185.154C123.059 185.004 123.489 183.774 123.719 182.974C124.449 179.914 124.539 176.604 125.779 173.784C130.439 163.214 143.049 160.844 150.209 169.154C152.209 171.414 153.279 174.374 154.969 177.334L178.199 171.564ZM138.319 122.494C137.539 121.264 136.999 120.445 136.489 119.615C131.889 112.135 127.169 104.724 122.749 97.1345C119.509 91.5845 116.749 85.7845 113.629 80.1345C113.289 79.5045 112.349 79.1945 111.689 78.7445C111.26 79.4269 110.873 80.1349 110.529 80.8645C110.444 81.3104 110.444 81.7686 110.529 82.2145C110.829 97.1545 111.309 112.104 109.369 126.994C109.323 127.747 109.323 128.502 109.369 129.254L138.319 122.494ZM149.019 137.294C147.159 134.724 145.479 132.514 143.919 130.214C143.616 129.668 143.124 129.25 142.534 129.04C141.945 128.831 141.3 128.843 140.719 129.074C130.559 131.494 120.379 133.784 110.219 136.164C109.509 136.334 108.419 136.854 108.329 137.354C107.709 140.764 107.329 144.224 106.779 148.054L149.019 137.294ZM82.3793 258.604C83.3093 258.394 84.1593 258.244 84.9993 258.014L107.529 251.814C110.709 250.934 111.159 250.134 110.399 246.454C109.781 246.501 109.166 246.588 108.559 246.714C101.369 248.574 94.1793 250.414 87.0093 252.334C82.9693 253.444 82.8093 253.704 82.3793 258.604V258.604ZM147.379 179.224C146.269 173.484 142.519 170.384 138.239 171.334C133.559 172.334 129.959 178.154 131.239 183.114L147.379 179.224ZM223.239 222.714C221.719 219.814 219.929 218.924 216.939 220.014C211.029 222.154 204.939 224.014 198.639 226.014C199.949 227.704 199.639 230.204 202.329 229.354C209.249 227.224 216.119 225.004 223.259 222.714H223.239Z" fill="#3558A2"/>
<path d="M81.9299 127.605C82.5999 129.605 83.2199 131.425 83.7699 133.235C84.0999 134.345 84.7699 135.625 84.4799 136.615C84.1299 137.915 83.2 139.715 82.17 139.995C81.4592 140.041 80.7478 139.914 80.0977 139.622C79.4476 139.331 78.8784 138.886 78.4399 138.325C77.2799 136.555 76.8199 134.325 76.0899 132.325C75.7699 131.415 75.51 130.475 75.17 129.385C74.4 129.635 73.9 129.775 73.4 129.945C71.4 130.665 69.7599 130.265 68.8399 128.275C68.6111 127.87 68.4751 127.419 68.4417 126.955C68.4083 126.492 68.4784 126.026 68.6468 125.593C68.8152 125.159 69.0778 124.769 69.4156 124.449C69.7533 124.129 70.1578 123.889 70.5999 123.745C73.5299 122.745 73.0299 121.035 72.3499 118.915C71.9399 117.635 71.3499 116.155 71.6899 114.915C71.8576 114.22 72.1614 113.565 72.5837 112.988C73.0059 112.412 73.5383 111.924 74.15 111.555C75.8 110.785 77.3799 111.825 78.0099 113.555C78.8199 115.755 79.3999 118.035 80.1299 120.475C82.7399 119.855 85.7999 118.475 86.7199 122.205C87.5199 125.445 84.7399 126.445 81.9299 127.605Z" fill="#3558A2"/>
<path d="M154.931 65.4426C155.531 67.5026 156.451 69.4426 156.581 71.4926C156.756 73.2097 156.313 74.933 155.331 76.3526C153.611 78.2926 150.661 77.0626 149.951 74.3526C149.631 73.1326 149.451 71.8726 149.141 70.6526C148.661 68.7526 148.321 67.0126 145.661 66.5926C143.501 66.2626 142.751 63.1926 144.421 61.5426C146.091 59.8926 145.641 58.4226 145.011 56.7026C144.571 55.5226 143.761 54.2226 143.951 53.1226C144.191 51.7226 144.951 49.9426 146.071 49.2826C147.741 48.2826 149.431 49.2826 150.251 51.1026C151.071 52.9226 151.521 54.6826 152.341 56.3926C152.641 57.0026 153.601 57.8126 154.111 57.7226C156.691 57.2526 158.461 58.0226 159.041 60.6126C159.621 63.2026 157.861 64.3226 155.641 64.9026C155.481 64.9726 155.361 65.1326 154.931 65.4426Z" fill="#3558A2"/>
<path d="M197.09 168.545C196.653 168.592 196.219 168.662 195.79 168.755C194.987 169.047 194.103 169.023 193.317 168.688C192.531 168.353 191.901 167.732 191.556 166.951C191.21 166.169 191.174 165.286 191.455 164.479C191.736 163.672 192.313 163.002 193.07 162.604C194.92 161.604 195.01 160.515 194.31 158.894C194.136 158.477 194.012 158.041 193.94 157.594C193.57 155.414 193.88 153.414 196.35 152.844C198.82 152.274 200.1 153.844 200.65 155.974C201.12 157.824 201.6 159.024 204.08 159.134C206.75 159.244 207.61 162.895 205.39 164.765C203.82 166.085 204.01 167.245 204.51 168.765C205.052 170.303 205.516 171.869 205.9 173.455C206.31 175.345 205.74 176.965 203.79 177.625C201.84 178.285 200.18 177.355 199.41 175.455C198.53 173.295 197.91 171.015 197.09 168.545Z" fill="#3558A2"/>
<path d="M182.19 138.105C181.717 138.092 181.252 137.985 180.822 137.789C180.392 137.593 180.005 137.313 179.686 136.965C179.366 136.617 179.119 136.209 178.96 135.764C178.801 135.319 178.733 134.846 178.76 134.375C178.738 133.902 178.813 133.43 178.981 132.987C179.149 132.545 179.405 132.141 179.735 131.802C180.065 131.463 180.461 131.195 180.899 131.014C181.337 130.834 181.806 130.746 182.28 130.754C184.46 130.904 185.44 132.305 185.55 134.345C185.598 134.817 185.548 135.294 185.402 135.745C185.255 136.197 185.017 136.613 184.7 136.967C184.384 137.321 183.997 137.605 183.565 137.801C183.133 137.997 182.664 138.1 182.19 138.105V138.105Z" fill="#3558A2"/>
<path d="M162.23 125.743C162.249 124.79 162.644 123.882 163.33 123.218C164.016 122.555 164.936 122.19 165.891 122.203C166.34 122.207 166.785 122.301 167.198 122.48C167.611 122.659 167.983 122.918 168.294 123.244C168.605 123.569 168.847 123.954 169.006 124.375C169.165 124.795 169.238 125.244 169.22 125.693C169.146 126.643 168.711 127.528 168.004 128.166C167.297 128.804 166.373 129.147 165.421 129.124C164.565 129.054 163.765 128.671 163.176 128.046C162.587 127.422 162.25 126.602 162.23 125.743Z" fill="#3558A2"/>
<path d="M71.9494 172.263C72.3578 172.274 72.76 172.367 73.1325 172.535C73.5049 172.703 73.8403 172.943 74.1193 173.241C74.3983 173.54 74.6154 173.891 74.7578 174.274C74.9003 174.657 74.9654 175.064 74.9494 175.473C74.9571 175.951 74.8623 176.425 74.6714 176.864C74.4805 177.302 74.1979 177.695 73.8427 178.015C73.4874 178.335 73.0678 178.576 72.6118 178.72C72.1559 178.865 71.6742 178.91 71.1994 178.853C70.7638 178.867 70.3301 178.788 69.9267 178.624C69.5233 178.459 69.1592 178.21 68.8582 177.895C68.5572 177.58 68.326 177.205 68.1797 176.794C68.0335 176.384 67.9755 175.947 68.0094 175.513C67.9594 173.643 69.6094 172.223 71.9494 172.263Z" fill="#3558A2"/>
<path d="M78.3397 162.934C78.7797 160.854 79.8896 159.564 82.0696 159.734C82.5026 159.733 82.931 159.823 83.3267 159.998C83.7225 160.174 84.0767 160.431 84.3664 160.753C84.6561 161.075 84.8748 161.454 85.008 161.866C85.1412 162.278 85.1861 162.713 85.1397 163.144C85.1295 163.619 85.0195 164.087 84.8167 164.517C84.6139 164.947 84.323 165.33 83.9627 165.64C83.6025 165.95 83.181 166.181 82.7257 166.318C82.2703 166.455 81.7912 166.494 81.3196 166.434C80.4643 166.355 79.6738 165.945 79.117 165.291C78.5602 164.637 78.2812 163.791 78.3397 162.934Z" fill="#3558A2"/>
<path d="M79.3195 179.884C79.3232 179.446 79.4149 179.014 79.5892 178.612C79.7635 178.211 80.0169 177.849 80.3342 177.547C80.6515 177.246 81.0262 177.012 81.436 176.858C81.8458 176.705 82.2823 176.635 82.7196 176.654C83.1557 176.602 83.598 176.646 84.0151 176.784C84.4322 176.922 84.8141 177.149 85.1336 177.451C85.4531 177.752 85.7026 178.12 85.8643 178.528C86.0261 178.937 86.0961 179.375 86.0695 179.814C86.0988 180.272 86.0344 180.731 85.8803 181.164C85.7262 181.596 85.4858 181.993 85.1734 182.329C84.8611 182.666 84.4835 182.935 84.0637 183.12C83.6438 183.306 83.1906 183.404 82.7315 183.409C82.2725 183.414 81.8172 183.325 81.3936 183.148C80.97 182.971 80.587 182.71 80.2678 182.38C79.9485 182.05 79.6997 181.659 79.5367 181.23C79.3737 180.8 79.2998 180.343 79.3195 179.884V179.884Z" fill="#3558A2"/>
<path d="M157.68 117.604C157.596 118.471 157.175 119.272 156.508 119.833C155.84 120.394 154.979 120.67 154.11 120.604C153.657 120.611 153.208 120.523 152.792 120.345C152.375 120.168 152.001 119.904 151.693 119.572C151.386 119.24 151.152 118.847 151.006 118.418C150.861 117.989 150.808 117.534 150.85 117.084C150.892 116.214 151.274 115.397 151.914 114.807C152.554 114.217 153.4 113.904 154.27 113.934C154.743 113.925 155.212 114.015 155.647 114.2C156.083 114.385 156.474 114.659 156.796 115.006C157.118 115.352 157.363 115.763 157.515 116.21C157.668 116.658 157.724 117.133 157.68 117.604V117.604Z" fill="#3558A2"/>
<path d="M146.36 95.6837C146.342 96.5254 145.99 97.3254 145.383 97.9084C144.776 98.4914 143.962 98.8098 143.12 98.7937C142.668 98.8366 142.211 98.7852 141.78 98.643C141.348 98.5007 140.951 98.2707 140.613 97.9672C140.275 97.6637 140.003 97.2935 139.815 96.8799C139.627 96.4662 139.527 96.0181 139.52 95.5637C139.497 95.13 139.563 94.6961 139.715 94.2893C139.867 93.8825 140.102 93.5116 140.404 93.1998C140.707 92.888 141.07 92.6421 141.472 92.4776C141.874 92.3131 142.306 92.2334 142.74 92.2437C143.209 92.2087 143.681 92.2723 144.124 92.4303C144.567 92.5884 144.972 92.8375 145.313 93.1615C145.654 93.4855 145.923 93.8773 146.103 94.3117C146.284 94.7461 146.371 95.2135 146.36 95.6837Z" fill="#3558A2"/>
<path d="M81.7395 206.744C79.4495 206.584 78.1795 205.484 78.0195 203.394C77.992 202.943 78.062 202.491 78.2248 202.069C78.3876 201.647 78.6393 201.265 78.9628 200.949C79.2864 200.633 79.6741 200.391 80.0997 200.238C80.5253 200.085 80.9788 200.026 81.4294 200.064C81.8835 200.042 82.3371 200.116 82.7603 200.282C83.1835 200.448 83.5667 200.702 83.8844 201.027C84.202 201.352 84.4469 201.741 84.603 202.168C84.759 202.595 84.8226 203.051 84.7895 203.504C84.8195 205.564 83.4695 206.444 81.7395 206.744Z" fill="#3558A2"/>
<path d="M93.1995 104.744C92.7875 104.732 92.3821 104.638 92.0069 104.468C91.6317 104.297 91.2944 104.053 91.0148 103.751C90.7353 103.448 90.5191 103.092 90.3791 102.704C90.2391 102.317 90.178 101.905 90.1995 101.494C90.1792 101.061 90.2441 100.63 90.3907 100.223C90.5372 99.8158 90.7624 99.4417 91.0535 99.1218C91.3446 98.8019 91.696 98.5425 92.0873 98.3583C92.4787 98.1742 92.9025 98.0689 93.3345 98.0486C93.7666 98.0282 94.1985 98.0931 94.6054 98.2397C95.0124 98.3862 95.3865 98.6115 95.7064 98.9026C96.0263 99.1937 96.2856 99.545 96.4698 99.9363C96.6539 100.328 96.7592 100.751 96.7796 101.184C96.8059 101.66 96.731 102.136 96.5601 102.581C96.3892 103.026 96.1261 103.43 95.788 103.766C95.4499 104.103 95.0444 104.364 94.5983 104.532C94.1522 104.7 93.6755 104.772 93.1995 104.744V104.744Z" fill="#3558A2"/>
<path d="M161.739 95.0027C161.469 97.8827 160.449 99.1827 158.399 99.2227C157.963 99.272 157.521 99.2225 157.107 99.0776C156.692 98.9327 156.316 98.6963 156.006 98.386C155.695 98.0756 155.459 97.6992 155.314 97.2849C155.169 96.8705 155.12 96.4288 155.169 95.9927C155.169 93.9927 156.509 92.5727 158.469 92.8927C159.809 93.1127 160.929 94.4427 161.739 95.0027Z" fill="#3558A2"/>
<path d="M84.4706 95.5631C84.2506 97.5631 83.2506 98.8231 81.2006 98.8231C80.7674 98.8551 80.3324 98.7927 79.9257 98.6401C79.519 98.4875 79.1503 98.2484 78.8451 97.9394C78.5398 97.6304 78.3054 97.2587 78.1578 96.8501C78.0103 96.4416 77.9532 96.0059 77.9906 95.5731C77.9482 95.1362 78.0022 94.6952 78.1488 94.2814C78.2954 93.8676 78.531 93.491 78.839 93.1782C79.147 92.8654 79.52 92.6241 79.9315 92.4711C80.343 92.3182 80.783 92.2574 81.2206 92.2931C83.2606 92.2831 84.2806 93.5631 84.4706 95.5631Z" fill="#3558A2"/>
<path d="M168.049 110.552C168.369 108.552 169.449 107.352 171.479 107.482C172.305 107.574 173.065 107.98 173.602 108.615C174.138 109.25 174.411 110.067 174.364 110.898C174.316 111.728 173.952 112.508 173.347 113.078C172.741 113.649 171.94 113.965 171.109 113.962C169.099 113.822 168.119 112.522 168.049 110.552Z" fill="#3558A2"/>
<path d="M144.659 217.083C143.539 217.803 142.479 218.983 141.279 219.143C140.894 219.21 140.499 219.18 140.129 219.055C139.759 218.931 139.427 218.715 139.161 218.429C138.896 218.143 138.706 217.795 138.61 217.416C138.513 217.038 138.513 216.642 138.609 216.263C138.821 215.642 139.183 215.083 139.663 214.635C140.142 214.186 140.725 213.863 141.359 213.693C142.419 213.633 143.569 215.013 144.679 215.753C144.669 216.203 144.669 216.643 144.659 217.083Z" fill="#3558A2"/>
<path d="M214.41 213.255C208.41 215.395 202.65 217.445 196.89 219.585C195.2 220.215 194.53 219.215 193.53 218.195C189.31 213.855 185.439 208.995 180.599 205.485C160.599 191.015 136.419 195.915 122.079 216.925C118.018 222.854 115.005 229.436 113.17 236.385C113.029 237.165 112.64 237.88 112.059 238.421C111.479 238.962 110.738 239.3 109.949 239.385C102.019 241.285 94.1294 243.385 85.9494 245.435C85.8866 244.769 85.8866 244.1 85.9494 243.435C89.1594 229.185 92.3694 214.935 95.6994 200.715C95.8722 200.21 96.156 199.75 96.5298 199.369C96.9036 198.989 97.3579 198.697 97.8595 198.515C125.586 191.621 153.339 184.808 181.119 178.075C181.693 177.951 182.287 177.954 182.859 178.086C183.431 178.217 183.967 178.473 184.429 178.835C194.429 189.995 204.239 201.275 214.109 212.525C214.243 212.753 214.344 212.999 214.41 213.255ZM128.65 205.105V203.865C127.46 203.025 126.34 201.645 125.05 201.455C123.05 201.165 121.809 202.585 121.859 204.635C121.909 206.685 123.219 208.045 125.199 207.635C126.439 207.355 127.49 205.985 128.65 205.105Z" fill="white"/>
<path d="M178.2 171.563L154.95 177.313C153.26 174.313 152.14 171.393 150.19 169.133C143.03 160.823 130.42 163.193 125.76 173.763C124.52 176.583 124.43 179.893 123.7 182.953C123.51 183.753 123.04 184.953 122.47 185.133C114.41 187.233 106.3 189.183 97.9399 191.223C97.8768 190.558 97.8768 189.888 97.9399 189.223C100.22 178.583 102.5 167.943 104.94 157.333C105.082 156.872 105.326 156.449 105.653 156.094C105.98 155.74 106.382 155.463 106.83 155.283C121.75 151.413 136.71 147.693 151.63 143.833C152.372 143.537 153.192 143.502 153.957 143.732C154.722 143.963 155.385 144.446 155.84 145.103C162.84 153.343 169.84 161.493 176.84 169.683C177.26 170.163 177.58 170.693 178.2 171.563ZM112.3 172.633C114.13 172.433 115.67 171.523 115.72 169.333C115.758 168.872 115.695 168.408 115.535 167.974C115.376 167.54 115.124 167.146 114.796 166.82C114.469 166.493 114.074 166.242 113.639 166.084C113.205 165.925 112.741 165.864 112.28 165.903C111.822 165.855 111.359 165.904 110.922 166.049C110.485 166.193 110.083 166.428 109.744 166.739C109.404 167.05 109.135 167.43 108.953 167.853C108.771 168.276 108.682 168.733 108.69 169.193C108.54 171.093 110.1 172.613 112.3 172.633ZM121.69 159.633C121.644 160.105 121.697 160.582 121.845 161.033C121.993 161.484 122.233 161.899 122.55 162.253C122.866 162.606 123.253 162.89 123.685 163.086C124.117 163.282 124.585 163.387 125.06 163.393C125.951 163.393 126.806 163.039 127.436 162.409C128.066 161.779 128.42 160.924 128.42 160.033C128.42 159.142 128.066 158.287 127.436 157.657C126.806 157.027 125.951 156.673 125.06 156.673C124.226 156.643 123.414 156.938 122.794 157.496C122.175 158.054 121.796 158.831 121.74 159.663L121.69 159.633Z" fill="white"/>
<path d="M138.32 122.494L109.32 129.264C109.274 128.511 109.274 127.757 109.32 127.004C111.26 112.114 110.78 97.1639 110.48 82.2239C110.394 81.778 110.394 81.3198 110.48 80.8739C110.823 80.1443 111.21 79.4364 111.64 78.7539C112.3 79.2039 113.24 79.5139 113.58 80.1439C116.67 85.7839 119.46 91.5839 122.7 97.1439C127.12 104.734 131.84 112.144 136.44 119.624C137 120.444 137.54 121.264 138.32 122.494ZM119.44 113.444C117.05 113.494 115.32 115.144 115.54 117.054C115.55 117.487 115.647 117.914 115.826 118.308C116.005 118.702 116.262 119.056 116.582 119.349C116.901 119.641 117.277 119.866 117.685 120.01C118.094 120.153 118.527 120.212 118.96 120.184C119.435 120.205 119.91 120.125 120.352 119.95C120.795 119.774 121.195 119.508 121.528 119.167C121.86 118.826 122.117 118.419 122.281 117.972C122.445 117.525 122.513 117.049 122.48 116.574C122.486 116.169 122.413 115.766 122.264 115.389C122.114 115.012 121.892 114.669 121.61 114.378C121.327 114.087 120.99 113.855 120.618 113.695C120.245 113.534 119.845 113.449 119.44 113.444Z" fill="white"/>
<path d="M149.02 137.294L106.74 148.054C107.27 144.224 107.67 140.764 108.29 137.354C108.38 136.854 109.47 136.354 110.18 136.164C120.34 133.784 130.52 131.494 140.68 129.074C141.261 128.842 141.906 128.83 142.495 129.04C143.085 129.25 143.577 129.667 143.88 130.214C145.48 132.514 147.16 134.724 149.02 137.294Z" fill="#979FBB"/>
<path d="M147.399 179.223L131.229 183.113C129.979 178.113 133.579 172.363 138.229 171.333C142.539 170.383 146.289 173.443 147.399 179.223Z" fill="#979FBB"/>
<path d="M223.26 222.712C216.12 225.002 209.26 227.222 202.35 229.392C199.67 230.242 199.97 227.742 198.66 226.052C205.01 223.972 211.05 222.152 216.96 220.052C219.95 218.922 221.74 219.812 223.26 222.712Z" fill="#EAECF1"/>
<path d="M128.65 205.103C127.49 205.983 126.44 207.353 125.16 207.623C123.16 208.043 121.88 206.623 121.82 204.623C121.76 202.623 123.06 201.153 125.01 201.443C126.3 201.633 127.42 203.013 128.61 203.853L128.65 205.103Z" fill="#3558A2"/>
<path d="M112.3 172.635C110.1 172.635 108.54 171.095 108.69 169.195C108.681 168.734 108.771 168.277 108.953 167.854C109.134 167.431 109.404 167.052 109.743 166.741C110.083 166.43 110.484 166.194 110.922 166.05C111.359 165.906 111.822 165.856 112.28 165.905C112.741 165.865 113.204 165.927 113.639 166.085C114.074 166.243 114.468 166.495 114.796 166.821C115.123 167.148 115.376 167.542 115.535 167.976C115.695 168.41 115.758 168.874 115.72 169.335C115.67 171.525 114.13 172.445 112.3 172.635Z" fill="#3558A2"/>
<path d="M121.741 159.664C121.854 158.811 122.29 158.033 122.958 157.491C123.627 156.949 124.478 156.683 125.337 156.748C126.195 156.813 126.996 157.205 127.575 157.842C128.154 158.479 128.467 159.314 128.451 160.174C128.449 160.609 128.361 161.038 128.192 161.438C128.023 161.837 127.775 162.199 127.464 162.502C127.153 162.805 126.784 163.042 126.38 163.201C125.976 163.359 125.544 163.435 125.111 163.424C124.636 163.418 124.168 163.314 123.736 163.118C123.304 162.921 122.917 162.637 122.6 162.284C122.284 161.931 122.044 161.515 121.896 161.064C121.748 160.614 121.695 160.137 121.741 159.664V159.664Z" fill="#3558A2"/>
<path d="M119.439 113.443C120.251 113.464 121.021 113.805 121.583 114.391C122.145 114.977 122.453 115.762 122.439 116.573C122.472 117.048 122.404 117.525 122.24 117.972C122.076 118.418 121.82 118.825 121.487 119.166C121.155 119.507 120.754 119.774 120.312 119.949C119.869 120.124 119.395 120.204 118.919 120.183C118.487 120.212 118.053 120.153 117.645 120.009C117.236 119.865 116.861 119.641 116.541 119.348C116.222 119.056 115.965 118.702 115.786 118.307C115.606 117.913 115.509 117.486 115.499 117.053C115.319 115.093 117.049 113.443 119.439 113.443Z" fill="#3558A2"/>
<path d="M103.409 81.3245L90.0793 85.3245C89.3004 85.5742 88.5094 85.7845 87.7093 85.9545C85.7093 86.3545 84.0193 85.8445 83.3693 83.7245C83.219 83.3118 83.1572 82.872 83.1879 82.4338C83.2187 81.9957 83.3413 81.5689 83.5479 81.1812C83.7545 80.7935 84.0404 80.4537 84.3869 80.1838C84.7334 79.9138 85.1328 79.7199 85.5593 79.6145C90.4593 77.9445 95.3793 76.3345 100.359 74.9645C102.529 74.3745 103.199 73.6445 102.789 71.2745C100.849 60.2045 99.1193 49.0945 97.3393 37.9845C96.9593 35.5645 98.1793 33.5545 100.179 33.0945C102.179 32.6345 103.879 33.8745 104.739 36.3645C108.439 46.9845 112.209 57.5745 115.859 68.2045C116.399 69.7745 117.169 69.8445 118.519 69.4145C122.749 68.0645 127.019 66.7945 131.269 65.5045C132.047 65.2534 132.838 65.0464 133.639 64.8845C135.639 64.5445 137.349 65.2345 137.919 67.2945C138.489 69.3545 137.309 70.8545 135.389 71.4945C131.249 72.8645 127.069 74.0745 122.899 75.3545L119.209 76.5545C125.459 87.5545 131.209 98.2445 137.589 108.664C149.999 129.084 166.099 146.664 181.689 164.584C195.969 181.024 210.379 197.354 224.759 213.704C226.619 215.814 228.759 217.704 230.619 219.784C233.459 222.934 232.339 227.154 228.329 228.434C219.169 231.374 209.999 234.274 200.819 237.134C196.819 238.384 196.119 237.534 194.469 233.684C189.739 222.614 182.369 213.684 171.579 207.994C166.524 205.238 160.797 203.956 155.049 204.294C143.469 205.004 134.969 211.004 128.389 220.104C121.809 229.204 118.659 239.694 117.479 250.784C116.889 256.234 116.819 256.444 111.479 257.944C102.129 260.544 92.7294 263.024 83.4094 265.764C80.9444 266.436 78.3155 266.131 76.0693 264.914C74.0693 264.004 73.8293 262.204 74.3393 260.274C75.2593 256.854 76.3394 253.484 77.1494 250.034C82.4794 226.404 87.8493 202.774 92.9793 179.104C95.8693 165.804 98.7493 152.494 100.889 139.104C103.714 120.614 104.606 101.88 103.549 83.2045C103.489 82.7045 103.459 82.2545 103.409 81.3245ZM214.409 213.254C214.344 213.009 214.246 212.774 214.119 212.554C204.249 201.304 194.399 190.024 184.439 178.864C183.977 178.503 183.441 178.247 182.869 178.116C182.297 177.984 181.703 177.981 181.129 178.104C153.356 184.831 125.603 191.644 97.8693 198.544C97.3678 198.726 96.9134 199.019 96.5396 199.399C96.1658 199.78 95.882 200.24 95.7093 200.744C92.3793 214.964 89.1693 229.214 85.9593 243.464C85.8965 244.13 85.8965 244.799 85.9593 245.464C94.1393 243.384 102.029 241.314 109.959 239.414C110.748 239.33 111.488 238.992 112.069 238.451C112.649 237.91 113.039 237.195 113.179 236.414C115.014 229.466 118.028 222.884 122.089 216.954C136.429 195.954 160.629 191.044 180.609 205.514C185.449 209.024 189.319 213.884 193.539 218.224C194.539 219.224 195.209 220.224 196.899 219.614C202.649 217.444 208.449 215.444 214.409 213.254ZM178.199 171.564C177.579 170.694 177.259 170.164 176.859 169.704C169.859 161.514 162.769 153.364 155.859 145.124C155.405 144.468 154.741 143.985 153.976 143.754C153.212 143.523 152.391 143.559 151.649 143.854C136.729 147.714 121.769 151.434 106.849 155.304C106.402 155.484 106 155.761 105.673 156.116C105.346 156.47 105.102 156.894 104.959 157.354C102.569 167.964 100.289 178.604 97.9593 189.244C97.8963 189.91 97.8963 190.579 97.9593 191.244C106.319 189.244 114.429 187.244 122.489 185.154C123.059 185.004 123.489 183.774 123.719 182.974C124.449 179.914 124.539 176.604 125.779 173.784C130.439 163.214 143.049 160.844 150.209 169.154C152.209 171.414 153.279 174.374 154.969 177.334L178.199 171.564ZM138.319 122.494C137.539 121.264 136.999 120.445 136.489 119.615C131.889 112.135 127.169 104.724 122.749 97.1345C119.509 91.5845 116.749 85.7845 113.629 80.1345C113.289 79.5045 112.349 79.1945 111.689 78.7445C111.26 79.4269 110.873 80.1349 110.529 80.8645C110.444 81.3104 110.444 81.7686 110.529 82.2145C110.829 97.1545 111.309 112.104 109.369 126.994C109.323 127.747 109.323 128.502 109.369 129.254L138.319 122.494ZM149.019 137.294C147.159 134.724 145.479 132.514 143.919 130.214C143.616 129.668 143.124 129.25 142.534 129.04C141.945 128.831 141.3 128.843 140.719 129.074C130.559 131.494 120.379 133.784 110.219 136.164C109.509 136.334 108.419 136.854 108.329 137.354C107.709 140.764 107.329 144.224 106.779 148.054L149.019 137.294ZM82.3793 258.604C83.3093 258.394 84.1593 258.244 84.9993 258.014L107.529 251.814C110.709 250.934 111.159 250.134 110.399 246.454C109.781 246.501 109.166 246.588 108.559 246.714C101.369 248.574 94.1793 250.414 87.0093 252.334C82.9693 253.444 82.8093 253.704 82.3793 258.604V258.604ZM147.379 179.224C146.269 173.484 142.519 170.384 138.239 171.334C133.559 172.334 129.959 178.154 131.239 183.114L147.379 179.224ZM223.239 222.714C221.719 219.814 219.929 218.924 216.939 220.014C211.029 222.154 204.939 224.014 198.639 226.014C199.949 227.704 199.639 230.204 202.329 229.354C209.249 227.224 216.119 225.004 223.259 222.714H223.239Z" fill="#3558A2"/>
<path d="M81.9299 127.605C82.5999 129.605 83.2199 131.425 83.7699 133.235C84.0999 134.345 84.7699 135.625 84.4799 136.615C84.1299 137.915 83.2 139.715 82.17 139.995C81.4592 140.041 80.7478 139.914 80.0977 139.622C79.4476 139.331 78.8784 138.886 78.4399 138.325C77.2799 136.555 76.8199 134.325 76.0899 132.325C75.7699 131.415 75.51 130.475 75.17 129.385C74.4 129.635 73.9 129.775 73.4 129.945C71.4 130.665 69.7599 130.265 68.8399 128.275C68.6111 127.87 68.4751 127.419 68.4417 126.955C68.4083 126.492 68.4784 126.026 68.6468 125.593C68.8152 125.159 69.0778 124.769 69.4156 124.449C69.7533 124.129 70.1578 123.889 70.5999 123.745C73.5299 122.745 73.0299 121.035 72.3499 118.915C71.9399 117.635 71.3499 116.155 71.6899 114.915C71.8576 114.22 72.1614 113.565 72.5837 112.988C73.0059 112.412 73.5383 111.924 74.15 111.555C75.8 110.785 77.3799 111.825 78.0099 113.555C78.8199 115.755 79.3999 118.035 80.1299 120.475C82.7399 119.855 85.7999 118.475 86.7199 122.205C87.5199 125.445 84.7399 126.445 81.9299 127.605Z" fill="#3558A2"/>
<path d="M154.931 65.4426C155.531 67.5026 156.451 69.4426 156.581 71.4926C156.756 73.2097 156.313 74.933 155.331 76.3526C153.611 78.2926 150.661 77.0626 149.951 74.3526C149.631 73.1326 149.451 71.8726 149.141 70.6526C148.661 68.7526 148.321 67.0126 145.661 66.5926C143.501 66.2626 142.751 63.1926 144.421 61.5426C146.091 59.8926 145.641 58.4226 145.011 56.7026C144.571 55.5226 143.761 54.2226 143.951 53.1226C144.191 51.7226 144.951 49.9426 146.071 49.2826C147.741 48.2826 149.431 49.2826 150.251 51.1026C151.071 52.9226 151.521 54.6826 152.341 56.3926C152.641 57.0026 153.601 57.8126 154.111 57.7226C156.691 57.2526 158.461 58.0226 159.041 60.6126C159.621 63.2026 157.861 64.3226 155.641 64.9026C155.481 64.9726 155.361 65.1326 154.931 65.4426Z" fill="#3558A2"/>
<path d="M197.09 168.545C196.653 168.592 196.219 168.662 195.79 168.755C194.987 169.047 194.103 169.023 193.317 168.688C192.531 168.353 191.901 167.732 191.556 166.951C191.21 166.169 191.174 165.286 191.455 164.479C191.736 163.672 192.313 163.002 193.07 162.604C194.92 161.604 195.01 160.515 194.31 158.894C194.136 158.477 194.012 158.041 193.94 157.594C193.57 155.414 193.88 153.414 196.35 152.844C198.82 152.274 200.1 153.844 200.65 155.974C201.12 157.824 201.6 159.024 204.08 159.134C206.75 159.244 207.61 162.895 205.39 164.765C203.82 166.085 204.01 167.245 204.51 168.765C205.052 170.303 205.516 171.869 205.9 173.455C206.31 175.345 205.74 176.965 203.79 177.625C201.84 178.285 200.18 177.355 199.41 175.455C198.53 173.295 197.91 171.015 197.09 168.545Z" fill="#3558A2"/>
<path d="M182.19 138.105C181.717 138.092 181.252 137.985 180.822 137.789C180.392 137.593 180.005 137.313 179.686 136.965C179.366 136.617 179.119 136.209 178.96 135.764C178.801 135.319 178.733 134.846 178.76 134.375C178.738 133.902 178.813 133.43 178.981 132.987C179.149 132.545 179.405 132.141 179.735 131.802C180.065 131.463 180.461 131.195 180.899 131.014C181.337 130.834 181.806 130.746 182.28 130.754C184.46 130.904 185.44 132.305 185.55 134.345C185.598 134.817 185.548 135.294 185.402 135.745C185.255 136.197 185.017 136.613 184.7 136.967C184.384 137.321 183.997 137.605 183.565 137.801C183.133 137.997 182.664 138.1 182.19 138.105V138.105Z" fill="#3558A2"/>
<path d="M162.23 125.743C162.249 124.79 162.644 123.882 163.33 123.218C164.016 122.555 164.936 122.19 165.891 122.203C166.34 122.207 166.785 122.301 167.198 122.48C167.611 122.659 167.983 122.918 168.294 123.244C168.605 123.569 168.847 123.954 169.006 124.375C169.165 124.795 169.238 125.244 169.22 125.693C169.146 126.643 168.711 127.528 168.004 128.166C167.297 128.804 166.373 129.147 165.421 129.124C164.565 129.054 163.765 128.671 163.176 128.046C162.587 127.422 162.25 126.602 162.23 125.743Z" fill="#3558A2"/>
<path d="M71.9494 172.263C72.3578 172.274 72.76 172.367 73.1325 172.535C73.5049 172.703 73.8403 172.943 74.1193 173.241C74.3983 173.54 74.6154 173.891 74.7578 174.274C74.9003 174.657 74.9654 175.064 74.9494 175.473C74.9571 175.951 74.8623 176.425 74.6714 176.864C74.4805 177.302 74.1979 177.695 73.8427 178.015C73.4874 178.335 73.0678 178.576 72.6118 178.72C72.1559 178.865 71.6742 178.91 71.1994 178.853C70.7638 178.867 70.3301 178.788 69.9267 178.624C69.5233 178.459 69.1592 178.21 68.8582 177.895C68.5572 177.58 68.326 177.205 68.1797 176.794C68.0335 176.384 67.9755 175.947 68.0094 175.513C67.9594 173.643 69.6094 172.223 71.9494 172.263Z" fill="#3558A2"/>
<path d="M78.3397 162.934C78.7797 160.854 79.8896 159.564 82.0696 159.734C82.5026 159.733 82.931 159.823 83.3267 159.998C83.7225 160.174 84.0767 160.431 84.3664 160.753C84.6561 161.075 84.8748 161.454 85.008 161.866C85.1412 162.278 85.1861 162.713 85.1397 163.144C85.1295 163.619 85.0195 164.087 84.8167 164.517C84.6139 164.947 84.323 165.33 83.9627 165.64C83.6025 165.95 83.181 166.181 82.7257 166.318C82.2703 166.455 81.7912 166.494 81.3196 166.434C80.4643 166.355 79.6738 165.945 79.117 165.291C78.5602 164.637 78.2812 163.791 78.3397 162.934Z" fill="#3558A2"/>
<path d="M79.3195 179.884C79.3232 179.446 79.4149 179.014 79.5892 178.612C79.7635 178.211 80.0169 177.849 80.3342 177.547C80.6515 177.246 81.0262 177.012 81.436 176.858C81.8458 176.705 82.2823 176.635 82.7196 176.654C83.1557 176.602 83.598 176.646 84.0151 176.784C84.4322 176.922 84.8141 177.149 85.1336 177.451C85.4531 177.752 85.7026 178.12 85.8643 178.528C86.0261 178.937 86.0961 179.375 86.0695 179.814C86.0988 180.272 86.0344 180.731 85.8803 181.164C85.7262 181.596 85.4858 181.993 85.1734 182.329C84.8611 182.666 84.4835 182.935 84.0637 183.12C83.6438 183.306 83.1906 183.404 82.7315 183.409C82.2725 183.414 81.8172 183.325 81.3936 183.148C80.97 182.971 80.587 182.71 80.2678 182.38C79.9485 182.05 79.6997 181.659 79.5367 181.23C79.3737 180.8 79.2998 180.343 79.3195 179.884V179.884Z" fill="#3558A2"/>
<path d="M157.68 117.604C157.596 118.471 157.175 119.272 156.508 119.833C155.84 120.394 154.979 120.67 154.11 120.604C153.657 120.611 153.208 120.523 152.792 120.345C152.375 120.168 152.001 119.904 151.693 119.572C151.386 119.24 151.152 118.847 151.006 118.418C150.861 117.989 150.808 117.534 150.85 117.084C150.892 116.214 151.274 115.397 151.914 114.807C152.554 114.217 153.4 113.904 154.27 113.934C154.743 113.925 155.212 114.015 155.647 114.2C156.083 114.385 156.474 114.659 156.796 115.006C157.118 115.352 157.363 115.763 157.515 116.21C157.668 116.658 157.724 117.133 157.68 117.604V117.604Z" fill="#3558A2"/>
<path d="M146.36 95.6837C146.342 96.5254 145.99 97.3254 145.383 97.9084C144.776 98.4914 143.962 98.8098 143.12 98.7937C142.668 98.8366 142.211 98.7852 141.78 98.643C141.348 98.5007 140.951 98.2707 140.613 97.9672C140.275 97.6637 140.003 97.2935 139.815 96.8799C139.627 96.4662 139.527 96.0181 139.52 95.5637C139.497 95.13 139.563 94.6961 139.715 94.2893C139.867 93.8825 140.102 93.5116 140.404 93.1998C140.707 92.888 141.07 92.6421 141.472 92.4776C141.874 92.3131 142.306 92.2334 142.74 92.2437C143.209 92.2087 143.681 92.2723 144.124 92.4303C144.567 92.5884 144.972 92.8375 145.313 93.1615C145.654 93.4855 145.923 93.8773 146.103 94.3117C146.284 94.7461 146.371 95.2135 146.36 95.6837Z" fill="#3558A2"/>
<path d="M81.7395 206.744C79.4495 206.584 78.1795 205.484 78.0195 203.394C77.992 202.943 78.062 202.491 78.2248 202.069C78.3876 201.647 78.6393 201.265 78.9628 200.949C79.2864 200.633 79.6741 200.391 80.0997 200.238C80.5253 200.085 80.9788 200.026 81.4294 200.064C81.8835 200.042 82.3371 200.116 82.7603 200.282C83.1835 200.448 83.5667 200.702 83.8844 201.027C84.202 201.352 84.4469 201.741 84.603 202.168C84.759 202.595 84.8226 203.051 84.7895 203.504C84.8195 205.564 83.4695 206.444 81.7395 206.744Z" fill="#3558A2"/>
<path d="M93.1995 104.744C92.7875 104.732 92.3821 104.638 92.0069 104.468C91.6317 104.297 91.2944 104.053 91.0148 103.751C90.7353 103.448 90.5191 103.092 90.3791 102.704C90.2391 102.317 90.178 101.905 90.1995 101.494C90.1792 101.061 90.2441 100.63 90.3907 100.223C90.5372 99.8158 90.7624 99.4417 91.0535 99.1218C91.3446 98.8019 91.696 98.5425 92.0873 98.3583C92.4787 98.1742 92.9025 98.0689 93.3345 98.0486C93.7666 98.0282 94.1985 98.0931 94.6054 98.2397C95.0124 98.3862 95.3865 98.6115 95.7064 98.9026C96.0263 99.1937 96.2856 99.545 96.4698 99.9363C96.6539 100.328 96.7592 100.751 96.7796 101.184C96.8059 101.66 96.731 102.136 96.5601 102.581C96.3892 103.026 96.1261 103.43 95.788 103.766C95.4499 104.103 95.0444 104.364 94.5983 104.532C94.1522 104.7 93.6755 104.772 93.1995 104.744V104.744Z" fill="#3558A2"/>
<path d="M161.739 95.0027C161.469 97.8827 160.449 99.1827 158.399 99.2227C157.963 99.272 157.521 99.2225 157.107 99.0776C156.692 98.9327 156.316 98.6963 156.006 98.386C155.695 98.0756 155.459 97.6992 155.314 97.2849C155.169 96.8705 155.12 96.4288 155.169 95.9927C155.169 93.9927 156.509 92.5727 158.469 92.8927C159.809 93.1127 160.929 94.4427 161.739 95.0027Z" fill="#3558A2"/>
<path d="M84.4706 95.5631C84.2506 97.5631 83.2506 98.8231 81.2006 98.8231C80.7674 98.8551 80.3324 98.7927 79.9257 98.6401C79.519 98.4875 79.1503 98.2484 78.8451 97.9394C78.5398 97.6304 78.3054 97.2587 78.1578 96.8501C78.0103 96.4416 77.9532 96.0059 77.9906 95.5731C77.9482 95.1362 78.0022 94.6952 78.1488 94.2814C78.2954 93.8676 78.531 93.491 78.839 93.1782C79.147 92.8654 79.52 92.6241 79.9315 92.4711C80.343 92.3182 80.783 92.2574 81.2206 92.2931C83.2606 92.2831 84.2806 93.5631 84.4706 95.5631Z" fill="#3558A2"/>
<path d="M168.049 110.552C168.369 108.552 169.449 107.352 171.479 107.482C172.305 107.574 173.065 107.98 173.602 108.615C174.138 109.25 174.411 110.067 174.364 110.898C174.316 111.728 173.952 112.508 173.347 113.078C172.741 113.649 171.94 113.965 171.109 113.962C169.099 113.822 168.119 112.522 168.049 110.552Z" fill="#3558A2"/>
<path d="M144.659 217.083C143.539 217.803 142.479 218.983 141.279 219.143C140.894 219.21 140.499 219.18 140.129 219.055C139.759 218.931 139.427 218.715 139.161 218.429C138.896 218.143 138.706 217.795 138.61 217.416C138.513 217.038 138.513 216.642 138.609 216.263C138.821 215.642 139.183 215.083 139.663 214.635C140.142 214.186 140.725 213.863 141.359 213.693C142.419 213.633 143.569 215.013 144.679 215.753C144.669 216.203 144.669 216.643 144.659 217.083Z" fill="#3558A2"/>
<path d="M214.41 213.255C208.41 215.395 202.65 217.445 196.89 219.585C195.2 220.215 194.53 219.215 193.53 218.195C189.31 213.855 185.439 208.995 180.599 205.485C160.599 191.015 136.419 195.915 122.079 216.925C118.018 222.854 115.005 229.436 113.17 236.385C113.029 237.165 112.64 237.88 112.059 238.421C111.479 238.962 110.738 239.3 109.949 239.385C102.019 241.285 94.1294 243.385 85.9494 245.435C85.8866 244.769 85.8866 244.1 85.9494 243.435C89.1594 229.185 92.3694 214.935 95.6994 200.715C95.8722 200.21 96.156 199.75 96.5298 199.369C96.9036 198.989 97.3579 198.697 97.8595 198.515C125.586 191.621 153.339 184.808 181.119 178.075C181.693 177.951 182.287 177.954 182.859 178.086C183.431 178.217 183.967 178.473 184.429 178.835C194.429 189.995 204.239 201.275 214.109 212.525C214.243 212.753 214.344 212.999 214.41 213.255ZM128.65 205.105V203.865C127.46 203.025 126.34 201.645 125.05 201.455C123.05 201.165 121.809 202.585 121.859 204.635C121.909 206.685 123.219 208.045 125.199 207.635C126.439 207.355 127.49 205.985 128.65 205.105Z" fill="white"/>
<path d="M178.2 171.563L154.95 177.313C153.26 174.313 152.14 171.393 150.19 169.133C143.03 160.823 130.42 163.193 125.76 173.763C124.52 176.583 124.43 179.893 123.7 182.953C123.51 183.753 123.04 184.953 122.47 185.133C114.41 187.233 106.3 189.183 97.9399 191.223C97.8768 190.558 97.8768 189.888 97.9399 189.223C100.22 178.583 102.5 167.943 104.94 157.333C105.082 156.872 105.326 156.449 105.653 156.094C105.98 155.74 106.382 155.463 106.83 155.283C121.75 151.413 136.71 147.693 151.63 143.833C152.372 143.537 153.192 143.502 153.957 143.732C154.722 143.963 155.385 144.446 155.84 145.103C162.84 153.343 169.84 161.493 176.84 169.683C177.26 170.163 177.58 170.693 178.2 171.563ZM112.3 172.633C114.13 172.433 115.67 171.523 115.72 169.333C115.758 168.872 115.695 168.408 115.535 167.974C115.376 167.54 115.124 167.146 114.796 166.82C114.469 166.493 114.074 166.242 113.639 166.084C113.205 165.925 112.741 165.864 112.28 165.903C111.822 165.855 111.359 165.904 110.922 166.049C110.485 166.193 110.083 166.428 109.744 166.739C109.404 167.05 109.135 167.43 108.953 167.853C108.771 168.276 108.682 168.733 108.69 169.193C108.54 171.093 110.1 172.613 112.3 172.633ZM121.69 159.633C121.644 160.105 121.697 160.582 121.845 161.033C121.993 161.484 122.233 161.899 122.55 162.253C122.866 162.606 123.253 162.89 123.685 163.086C124.117 163.282 124.585 163.387 125.06 163.393C125.951 163.393 126.806 163.039 127.436 162.409C128.066 161.779 128.42 160.924 128.42 160.033C128.42 159.142 128.066 158.287 127.436 157.657C126.806 157.027 125.951 156.673 125.06 156.673C124.226 156.643 123.414 156.938 122.794 157.496C122.175 158.054 121.796 158.831 121.74 159.663L121.69 159.633Z" fill="white"/>
<path d="M138.32 122.494L109.32 129.264C109.274 128.511 109.274 127.757 109.32 127.004C111.26 112.114 110.78 97.1639 110.48 82.2239C110.394 81.778 110.394 81.3198 110.48 80.8739C110.823 80.1443 111.21 79.4364 111.64 78.7539C112.3 79.2039 113.24 79.5139 113.58 80.1439C116.67 85.7839 119.46 91.5839 122.7 97.1439C127.12 104.734 131.84 112.144 136.44 119.624C137 120.444 137.54 121.264 138.32 122.494ZM119.44 113.444C117.05 113.494 115.32 115.144 115.54 117.054C115.55 117.487 115.647 117.914 115.826 118.308C116.005 118.702 116.262 119.056 116.582 119.349C116.901 119.641 117.277 119.866 117.685 120.01C118.094 120.153 118.527 120.212 118.96 120.184C119.435 120.205 119.91 120.125 120.352 119.95C120.795 119.774 121.195 119.508 121.528 119.167C121.86 118.826 122.117 118.419 122.281 117.972C122.445 117.525 122.513 117.049 122.48 116.574C122.486 116.169 122.413 115.766 122.264 115.389C122.114 115.012 121.892 114.669 121.61 114.378C121.327 114.087 120.99 113.855 120.618 113.695C120.245 113.534 119.845 113.449 119.44 113.444Z" fill="white"/>
<path d="M149.02 137.294L106.74 148.054C107.27 144.224 107.67 140.764 108.29 137.354C108.38 136.854 109.47 136.354 110.18 136.164C120.34 133.784 130.52 131.494 140.68 129.074C141.261 128.842 141.906 128.83 142.495 129.04C143.085 129.25 143.577 129.667 143.88 130.214C145.48 132.514 147.16 134.724 149.02 137.294Z" fill="#979FBB"/>
<path d="M147.399 179.223L131.229 183.113C129.979 178.113 133.579 172.363 138.229 171.333C142.539 170.383 146.289 173.443 147.399 179.223Z" fill="#979FBB"/>
<path d="M223.26 222.712C216.12 225.002 209.26 227.222 202.35 229.392C199.67 230.242 199.97 227.742 198.66 226.052C205.01 223.972 211.05 222.152 216.96 220.052C219.95 218.922 221.74 219.812 223.26 222.712Z" fill="#EAECF1"/>
<path d="M128.65 205.103C127.49 205.983 126.44 207.353 125.16 207.623C123.16 208.043 121.88 206.623 121.82 204.623C121.76 202.623 123.06 201.153 125.01 201.443C126.3 201.633 127.42 203.013 128.61 203.853L128.65 205.103Z" fill="#3558A2"/>
<path d="M112.3 172.635C110.1 172.635 108.54 171.095 108.69 169.195C108.681 168.734 108.771 168.277 108.953 167.854C109.134 167.431 109.404 167.052 109.743 166.741C110.083 166.43 110.484 166.194 110.922 166.05C111.359 165.906 111.822 165.856 112.28 165.905C112.741 165.865 113.204 165.927 113.639 166.085C114.074 166.243 114.468 166.495 114.796 166.821C115.123 167.148 115.376 167.542 115.535 167.976C115.695 168.41 115.758 168.874 115.72 169.335C115.67 171.525 114.13 172.445 112.3 172.635Z" fill="#3558A2"/>
<path d="M121.741 159.664C121.854 158.811 122.29 158.033 122.958 157.491C123.627 156.949 124.478 156.683 125.337 156.748C126.195 156.813 126.996 157.205 127.575 157.842C128.154 158.479 128.467 159.314 128.451 160.174C128.449 160.609 128.361 161.038 128.192 161.438C128.023 161.837 127.775 162.199 127.464 162.502C127.153 162.805 126.784 163.042 126.38 163.201C125.976 163.359 125.544 163.435 125.111 163.424C124.636 163.418 124.168 163.314 123.736 163.118C123.304 162.921 122.917 162.637 122.6 162.284C122.284 161.931 122.044 161.515 121.896 161.064C121.748 160.614 121.695 160.137 121.741 159.664V159.664Z" fill="#3558A2"/>
<path d="M119.439 113.443C120.251 113.464 121.021 113.805 121.583 114.391C122.145 114.977 122.453 115.762 122.439 116.573C122.472 117.048 122.404 117.525 122.24 117.972C122.076 118.418 121.82 118.825 121.487 119.166C121.155 119.507 120.754 119.774 120.312 119.949C119.869 120.124 119.395 120.204 118.919 120.183C118.487 120.212 118.053 120.153 117.645 120.009C117.236 119.865 116.861 119.641 116.541 119.348C116.222 119.056 115.965 118.702 115.786 118.307C115.606 117.913 115.509 117.486 115.499 117.053C115.319 115.093 117.049 113.443 119.439 113.443Z" fill="#3558A2"/>
</svg>
