<svg width="300" height="300" viewBox="0 0 300 300" fill="none" xmlns="http://www.w3.org/2000/svg">
<path d="M111.452 146.205C107.512 143.455 103.262 141.205 99.9421 138.045C84.7021 123.355 87.0322 96.9347 104.412 84.8747C119.352 74.5147 140.312 80.7847 147.922 98.2347C153.922 112.115 151.982 125.145 142.292 136.895L140.932 138.515C141.484 138.704 142.053 138.835 142.632 138.905C170.492 139.015 192.292 151.295 209.632 172.355C212.452 175.907 215.053 179.627 217.422 183.495C219.962 187.495 218.752 190.435 214.242 191.735C167.329 205.235 120.412 218.725 73.4922 232.205C67.9922 233.785 63.7422 230.435 64.0122 224.735C65.1922 199.415 73.8622 177.325 92.3522 159.535C97.8158 154.328 104.036 149.979 110.802 146.635C111.032 146.513 111.25 146.369 111.452 146.205V146.205ZM125.452 153.815C123.822 157.375 122.452 160.605 120.882 163.815C119.022 167.635 117.412 168.595 113.302 167.925C108.912 167.275 104.569 166.337 100.302 165.115C99.4146 164.743 98.4294 164.673 97.4985 164.917C96.5677 165.161 95.7431 165.705 95.1522 166.465C81.8122 180.165 74.4522 196.685 71.7622 215.465C71.3022 218.715 71.1422 222.015 70.7622 225.715C73.7622 224.895 76.2122 224.245 78.6322 223.575C96.4522 218.645 96.3922 218.575 108.112 204.165C118.258 191.576 126.496 177.562 132.562 162.575C132.942 161.655 132.902 159.915 132.312 159.345C130.139 157.381 127.862 155.535 125.492 153.815H125.452ZM96.6222 113.145C96.8722 115.205 96.9822 117.305 97.4022 119.325C97.8184 121.182 98.387 123.001 99.1022 124.765C104.102 137.545 118.562 143.435 130.162 137.445C147.002 128.745 149.232 103.265 134.082 91.7147C132.909 91.0168 131.515 90.7915 130.182 91.0847C126.822 91.7647 123.592 93.2247 120.182 93.6047C112.832 94.4447 106.872 97.6047 101.362 102.465C99.8008 103.756 98.5626 105.393 97.7466 107.248C96.9305 109.102 96.5593 111.121 96.6622 113.145H96.6222ZM147.622 203.665L210.292 185.585C203.982 173.135 182.762 154.375 173.292 152.905C167.012 170.585 157.882 186.965 147.622 203.665ZM167.142 149.865C161.007 147.645 154.57 146.367 148.052 146.075C147.648 146.152 147.268 146.32 146.939 146.566C146.609 146.812 146.341 147.129 146.152 147.495C145.032 149.865 144.042 152.315 143.152 154.785C136.052 174.375 126.662 192.695 113.312 208.845C111.832 210.625 110.422 212.455 108.522 214.845C110.202 214.415 111.152 214.195 112.082 213.925C117.322 212.435 122.482 210.555 127.802 209.515C134.862 208.125 139.492 203.725 142.892 198.025C150.462 185.325 158.172 172.675 163.452 158.765C164.532 155.895 165.792 153.095 167.142 149.865V149.865ZM104.612 158.195L104.832 159.135C107.712 159.725 110.572 160.355 113.462 160.845C113.759 160.835 114.049 160.755 114.308 160.611C114.567 160.466 114.788 160.262 114.952 160.015C116.282 157.215 117.482 154.355 118.722 151.515L117.992 150.775L104.612 158.195ZM139.062 145.965L129.752 147.335L129.582 148.095L136.212 153.335L139.062 145.965Z" fill="#3558A2"/>
<path d="M217.233 79.505C217.433 82.765 217.563 86.025 217.843 89.265C218.493 96.745 221.753 100.265 229.243 101.595C230.403 101.815 231.573 101.965 232.733 102.175C234.733 102.555 236.173 103.595 236.263 105.715C236.353 107.835 235.023 108.985 233.003 109.445C230.713 109.955 228.403 110.445 226.143 111.075C220.483 112.655 217.563 116.405 217.343 122.305C217.143 127.825 216.96 133.352 216.793 138.885C216.693 142.265 215.713 143.885 213.583 144.075C211.453 144.265 209.513 142.265 209.143 139.075C208.703 135.385 208.613 131.645 208.033 127.985C207.431 123.872 206.559 119.803 205.423 115.805C203.973 110.905 200.583 108.075 195.233 108.005C194.422 107.945 193.622 107.78 192.853 107.515C190.613 106.885 189.033 105.705 189.573 103.055C189.983 100.975 192.473 99.315 194.743 99.515C201.743 100.155 207.743 96.135 209.173 89.295C209.983 85.345 209.963 81.225 210.173 77.165C210.303 75.095 209.903 72.935 210.333 70.935C210.583 69.775 211.903 68.135 212.903 68.015C214.073 67.865 215.723 68.865 216.603 69.855C217.323 70.675 217.343 72.225 217.413 73.465C217.533 75.465 217.413 77.465 217.413 79.465L217.233 79.505ZM206.363 104.135L212.213 112.905L218.373 106.535L212.263 99.535L206.363 104.135Z" fill="#3558A2"/>
<path d="M96.6622 113.144C96.5688 111.114 96.9525 109.091 97.7827 107.236C98.6128 105.381 99.8661 103.747 101.442 102.464C106.952 97.6244 112.912 94.4644 120.262 93.6044C123.632 93.2244 126.862 91.7644 130.262 91.0844C131.595 90.7912 132.989 91.0165 134.162 91.7144C149.312 103.264 147.082 128.714 130.242 137.444C118.642 143.444 104.182 137.544 99.1821 124.764C98.4669 123.001 97.8984 121.181 97.4821 119.324C97.0221 117.304 96.9122 115.204 96.6622 113.144ZM119.662 124.354C122.472 123.354 125.262 122.584 127.842 121.354C128.584 120.967 129.151 120.312 129.427 119.521C129.702 118.731 129.666 117.865 129.326 117.1C128.986 116.335 128.367 115.729 127.595 115.405C126.823 115.08 125.957 115.062 125.172 115.354C121.852 116.534 118.672 117.354 115.172 115.734C114.788 115.577 114.376 115.5 113.961 115.51C113.546 115.52 113.138 115.616 112.762 115.792C112.386 115.968 112.051 116.219 111.777 116.531C111.503 116.843 111.297 117.209 111.172 117.604C110.975 117.972 110.857 118.377 110.826 118.793C110.794 119.21 110.85 119.628 110.989 120.021C111.128 120.415 111.348 120.775 111.635 121.078C111.921 121.382 112.268 121.622 112.652 121.784C114.832 122.844 117.232 123.484 119.672 124.354H119.662ZM109.342 107.734C109.532 109.804 110.552 111.084 112.612 111.074C113.07 111.111 113.53 111.049 113.962 110.892C114.393 110.735 114.786 110.486 115.112 110.164C115.439 109.841 115.692 109.451 115.854 109.022C116.016 108.592 116.084 108.133 116.052 107.674C116.097 107.219 116.042 106.759 115.89 106.327C115.739 105.895 115.494 105.502 115.173 105.174C114.853 104.847 114.465 104.595 114.036 104.434C113.607 104.273 113.149 104.209 112.692 104.244C110.522 104.384 109.542 105.734 109.352 107.734H109.342ZM129.922 106.314C129.952 105.852 129.887 105.388 129.732 104.951C129.577 104.514 129.334 104.114 129.018 103.774C128.703 103.434 128.322 103.163 127.898 102.975C127.473 102.788 127.016 102.689 126.552 102.684C126.114 102.665 125.677 102.736 125.268 102.893C124.859 103.051 124.487 103.291 124.175 103.599C123.864 103.907 123.619 104.276 123.457 104.683C123.294 105.09 123.218 105.526 123.232 105.964C123.213 106.414 123.286 106.863 123.447 107.283C123.608 107.703 123.854 108.086 124.169 108.407C124.484 108.729 124.861 108.982 125.278 109.152C125.695 109.322 126.142 109.404 126.592 109.394C127.016 109.42 127.44 109.36 127.84 109.218C128.24 109.075 128.606 108.854 128.918 108.566C129.23 108.278 129.481 107.931 129.655 107.544C129.829 107.157 129.923 106.739 129.932 106.314H129.922Z" fill="white"/>
<path d="M147.623 203.664C157.883 186.934 167.013 170.584 173.303 152.904C182.763 154.374 203.983 173.134 210.303 185.584L147.623 203.664Z" fill="white"/>
<path d="M167.142 149.864C165.792 153.094 164.532 155.864 163.442 158.754C158.162 172.664 150.442 185.314 142.882 198.014C139.482 203.714 134.882 208.114 127.792 209.504C122.472 210.504 117.312 212.424 112.072 213.914C111.142 214.184 110.192 214.404 108.512 214.834C110.412 212.454 111.822 210.624 113.302 208.834C126.652 192.684 136.042 174.364 143.142 154.774C144.042 152.304 145.032 149.854 146.142 147.484C146.33 147.119 146.599 146.802 146.928 146.556C147.257 146.31 147.638 146.142 148.042 146.064C154.564 146.359 161.004 147.64 167.142 149.864V149.864Z" fill="#EAECF1"/>
<path d="M206.332 104.135L212.232 99.5449L218.342 106.545L212.182 112.915L206.332 104.135Z" fill="white"/>
<path d="M122.233 123.494C120.58 124.039 118.796 124.039 117.143 123.494C115.623 123.029 114.134 122.471 112.683 121.824C112.298 121.662 111.952 121.422 111.665 121.118C111.379 120.814 111.159 120.454 111.02 120.061C110.88 119.668 110.825 119.25 110.856 118.833C110.888 118.417 111.006 118.012 111.203 117.644C111.328 117.249 111.534 116.883 111.807 116.571C112.081 116.259 112.416 116.007 112.792 115.832C113.168 115.656 113.576 115.56 113.991 115.55C114.406 115.54 114.819 115.617 115.203 115.774C118.693 117.384 121.873 116.574 125.203 115.394C125.987 115.102 126.854 115.12 127.625 115.444C128.397 115.769 129.016 116.375 129.356 117.14C129.697 117.905 129.733 118.771 129.457 119.561C129.181 120.351 128.615 121.007 127.873 121.394C126.035 122.204 124.152 122.906 122.233 123.494V123.494Z" fill="#3558A2"/>
<path d="M109.354 107.736C109.544 105.736 110.523 104.386 112.703 104.246C113.16 104.21 113.619 104.275 114.047 104.435C114.476 104.596 114.864 104.849 115.185 105.176C115.505 105.503 115.75 105.896 115.902 106.328C116.054 106.76 116.109 107.22 116.063 107.676C116.095 108.134 116.028 108.594 115.865 109.023C115.703 109.453 115.45 109.842 115.124 110.165C114.797 110.488 114.404 110.737 113.973 110.894C113.542 111.051 113.081 111.113 112.624 111.076C110.564 111.086 109.544 109.806 109.354 107.736Z" fill="#3558A2"/>
<path d="M129.933 106.315C129.914 106.729 129.813 107.136 129.636 107.512C129.459 107.887 129.209 108.224 128.902 108.503C128.594 108.782 128.235 108.997 127.843 109.136C127.452 109.276 127.038 109.336 126.623 109.315C126.178 109.328 125.734 109.251 125.319 109.088C124.904 108.925 124.527 108.68 124.21 108.366C123.893 108.053 123.643 107.679 123.475 107.266C123.307 106.853 123.225 106.41 123.233 105.965C123.226 105.533 123.307 105.104 123.471 104.704C123.635 104.304 123.879 103.942 124.188 103.64C124.497 103.338 124.864 103.101 125.267 102.946C125.671 102.79 126.101 102.718 126.533 102.735C126.995 102.735 127.451 102.83 127.875 103.012C128.299 103.195 128.682 103.462 129 103.796C129.318 104.131 129.564 104.527 129.725 104.96C129.885 105.393 129.956 105.854 129.933 106.315Z" fill="#3558A2"/>
<path d="M111.452 146.205C107.512 143.455 103.262 141.205 99.9421 138.045C84.7021 123.355 87.0322 96.9347 104.412 84.8747C119.352 74.5147 140.312 80.7847 147.922 98.2347C153.922 112.115 151.982 125.145 142.292 136.895L140.932 138.515C141.484 138.704 142.053 138.835 142.632 138.905C170.492 139.015 192.292 151.295 209.632 172.355C212.452 175.907 215.053 179.627 217.422 183.495C219.962 187.495 218.752 190.435 214.242 191.735C167.329 205.235 120.412 218.725 73.4922 232.205C67.9922 233.785 63.7422 230.435 64.0122 224.735C65.1922 199.415 73.8622 177.325 92.3522 159.535C97.8158 154.328 104.036 149.979 110.802 146.635C111.032 146.513 111.25 146.369 111.452 146.205V146.205ZM125.452 153.815C123.822 157.375 122.452 160.605 120.882 163.815C119.022 167.635 117.412 168.595 113.302 167.925C108.912 167.275 104.569 166.337 100.302 165.115C99.4146 164.743 98.4294 164.673 97.4985 164.917C96.5677 165.161 95.7431 165.705 95.1522 166.465C81.8122 180.165 74.4522 196.685 71.7622 215.465C71.3022 218.715 71.1422 222.015 70.7622 225.715C73.7622 224.895 76.2122 224.245 78.6322 223.575C96.4522 218.645 96.3922 218.575 108.112 204.165C118.258 191.576 126.496 177.562 132.562 162.575C132.942 161.655 132.902 159.915 132.312 159.345C130.139 157.381 127.862 155.535 125.492 153.815H125.452ZM96.6222 113.145C96.8722 115.205 96.9822 117.305 97.4022 119.325C97.8184 121.182 98.387 123.001 99.1022 124.765C104.102 137.545 118.562 143.435 130.162 137.445C147.002 128.745 149.232 103.265 134.082 91.7147C132.909 91.0168 131.515 90.7915 130.182 91.0847C126.822 91.7647 123.592 93.2247 120.182 93.6047C112.832 94.4447 106.872 97.6047 101.362 102.465C99.8008 103.756 98.5626 105.393 97.7466 107.248C96.9305 109.102 96.5593 111.121 96.6622 113.145H96.6222ZM147.622 203.665L210.292 185.585C203.982 173.135 182.762 154.375 173.292 152.905C167.012 170.585 157.882 186.965 147.622 203.665ZM167.142 149.865C161.007 147.645 154.57 146.367 148.052 146.075C147.648 146.152 147.268 146.32 146.939 146.566C146.609 146.812 146.341 147.129 146.152 147.495C145.032 149.865 144.042 152.315 143.152 154.785C136.052 174.375 126.662 192.695 113.312 208.845C111.832 210.625 110.422 212.455 108.522 214.845C110.202 214.415 111.152 214.195 112.082 213.925C117.322 212.435 122.482 210.555 127.802 209.515C134.862 208.125 139.492 203.725 142.892 198.025C150.462 185.325 158.172 172.675 163.452 158.765C164.532 155.895 165.792 153.095 167.142 149.865V149.865ZM104.612 158.195L104.832 159.135C107.712 159.725 110.572 160.355 113.462 160.845C113.759 160.835 114.049 160.755 114.308 160.611C114.567 160.466 114.788 160.262 114.952 160.015C116.282 157.215 117.482 154.355 118.722 151.515L117.992 150.775L104.612 158.195ZM139.062 145.965L129.752 147.335L129.582 148.095L136.212 153.335L139.062 145.965Z" fill="#3558A2"/>
<path d="M217.233 79.505C217.433 82.765 217.563 86.025 217.843 89.265C218.493 96.745 221.753 100.265 229.243 101.595C230.403 101.815 231.573 101.965 232.733 102.175C234.733 102.555 236.173 103.595 236.263 105.715C236.353 107.835 235.023 108.985 233.003 109.445C230.713 109.955 228.403 110.445 226.143 111.075C220.483 112.655 217.563 116.405 217.343 122.305C217.143 127.825 216.96 133.352 216.793 138.885C216.693 142.265 215.713 143.885 213.583 144.075C211.453 144.265 209.513 142.265 209.143 139.075C208.703 135.385 208.613 131.645 208.033 127.985C207.431 123.872 206.559 119.803 205.423 115.805C203.973 110.905 200.583 108.075 195.233 108.005C194.422 107.945 193.622 107.78 192.853 107.515C190.613 106.885 189.033 105.705 189.573 103.055C189.983 100.975 192.473 99.315 194.743 99.515C201.743 100.155 207.743 96.135 209.173 89.295C209.983 85.345 209.963 81.225 210.173 77.165C210.303 75.095 209.903 72.935 210.333 70.935C210.583 69.775 211.903 68.135 212.903 68.015C214.073 67.865 215.723 68.865 216.603 69.855C217.323 70.675 217.343 72.225 217.413 73.465C217.533 75.465 217.413 77.465 217.413 79.465L217.233 79.505ZM206.363 104.135L212.213 112.905L218.373 106.535L212.263 99.535L206.363 104.135Z" fill="#3558A2"/>
<path d="M96.6622 113.144C96.5688 111.114 96.9525 109.091 97.7827 107.236C98.6128 105.381 99.8661 103.747 101.442 102.464C106.952 97.6244 112.912 94.4644 120.262 93.6044C123.632 93.2244 126.862 91.7644 130.262 91.0844C131.595 90.7912 132.989 91.0165 134.162 91.7144C149.312 103.264 147.082 128.714 130.242 137.444C118.642 143.444 104.182 137.544 99.1821 124.764C98.4669 123.001 97.8984 121.181 97.4821 119.324C97.0221 117.304 96.9122 115.204 96.6622 113.144ZM119.662 124.354C122.472 123.354 125.262 122.584 127.842 121.354C128.584 120.967 129.151 120.312 129.427 119.521C129.702 118.731 129.666 117.865 129.326 117.1C128.986 116.335 128.367 115.729 127.595 115.405C126.823 115.08 125.957 115.062 125.172 115.354C121.852 116.534 118.672 117.354 115.172 115.734C114.788 115.577 114.376 115.5 113.961 115.51C113.546 115.52 113.138 115.616 112.762 115.792C112.386 115.968 112.051 116.219 111.777 116.531C111.503 116.843 111.297 117.209 111.172 117.604C110.975 117.972 110.857 118.377 110.826 118.793C110.794 119.21 110.85 119.628 110.989 120.021C111.128 120.415 111.348 120.775 111.635 121.078C111.921 121.382 112.268 121.622 112.652 121.784C114.832 122.844 117.232 123.484 119.672 124.354H119.662ZM109.342 107.734C109.532 109.804 110.552 111.084 112.612 111.074C113.07 111.111 113.53 111.049 113.962 110.892C114.393 110.735 114.786 110.486 115.112 110.164C115.439 109.841 115.692 109.451 115.854 109.022C116.016 108.592 116.084 108.133 116.052 107.674C116.097 107.219 116.042 106.759 115.89 106.327C115.739 105.895 115.494 105.502 115.173 105.174C114.853 104.847 114.465 104.595 114.036 104.434C113.607 104.273 113.149 104.209 112.692 104.244C110.522 104.384 109.542 105.734 109.352 107.734H109.342ZM129.922 106.314C129.952 105.852 129.887 105.388 129.732 104.951C129.577 104.514 129.334 104.114 129.018 103.774C128.703 103.434 128.322 103.163 127.898 102.975C127.473 102.788 127.016 102.689 126.552 102.684C126.114 102.665 125.677 102.736 125.268 102.893C124.859 103.051 124.487 103.291 124.175 103.599C123.864 103.907 123.619 104.276 123.457 104.683C123.294 105.09 123.218 105.526 123.232 105.964C123.213 106.414 123.286 106.863 123.447 107.283C123.608 107.703 123.854 108.086 124.169 108.407C124.484 108.729 124.861 108.982 125.278 109.152C125.695 109.322 126.142 109.404 126.592 109.394C127.016 109.42 127.44 109.36 127.84 109.218C128.24 109.075 128.606 108.854 128.918 108.566C129.23 108.278 129.481 107.931 129.655 107.544C129.829 107.157 129.923 106.739 129.932 106.314H129.922Z" fill="white"/>
<path d="M147.623 203.664C157.883 186.934 167.013 170.584 173.303 152.904C182.763 154.374 203.983 173.134 210.303 185.584L147.623 203.664Z" fill="white"/>
<path d="M167.142 149.864C165.792 153.094 164.532 155.864 163.442 158.754C158.162 172.664 150.442 185.314 142.882 198.014C139.482 203.714 134.882 208.114 127.792 209.504C122.472 210.504 117.312 212.424 112.072 213.914C111.142 214.184 110.192 214.404 108.512 214.834C110.412 212.454 111.822 210.624 113.302 208.834C126.652 192.684 136.042 174.364 143.142 154.774C144.042 152.304 145.032 149.854 146.142 147.484C146.33 147.119 146.599 146.802 146.928 146.556C147.257 146.31 147.638 146.142 148.042 146.064C154.564 146.359 161.004 147.64 167.142 149.864V149.864Z" fill="#EAECF1"/>
<path d="M206.332 104.135L212.232 99.5449L218.342 106.545L212.182 112.915L206.332 104.135Z" fill="white"/>
<path d="M122.233 123.494C120.58 124.039 118.796 124.039 117.143 123.494C115.623 123.029 114.134 122.471 112.683 121.824C112.298 121.662 111.952 121.422 111.665 121.118C111.379 120.814 111.159 120.454 111.02 120.061C110.88 119.668 110.825 119.25 110.856 118.833C110.888 118.417 111.006 118.012 111.203 117.644C111.328 117.249 111.534 116.883 111.807 116.571C112.081 116.259 112.416 116.007 112.792 115.832C113.168 115.656 113.576 115.56 113.991 115.55C114.406 115.54 114.819 115.617 115.203 115.774C118.693 117.384 121.873 116.574 125.203 115.394C125.987 115.102 126.854 115.12 127.625 115.444C128.397 115.769 129.016 116.375 129.356 117.14C129.697 117.905 129.733 118.771 129.457 119.561C129.181 120.351 128.615 121.007 127.873 121.394C126.035 122.204 124.152 122.906 122.233 123.494V123.494Z" fill="#3558A2"/>
<path d="M109.354 107.736C109.544 105.736 110.523 104.386 112.703 104.246C113.16 104.21 113.619 104.275 114.047 104.435C114.476 104.596 114.864 104.849 115.185 105.176C115.505 105.503 115.75 105.896 115.902 106.328C116.054 106.76 116.109 107.22 116.063 107.676C116.095 108.134 116.028 108.594 115.865 109.023C115.703 109.453 115.45 109.842 115.124 110.165C114.797 110.488 114.404 110.737 113.973 110.894C113.542 111.051 113.081 111.113 112.624 111.076C110.564 111.086 109.544 109.806 109.354 107.736Z" fill="#3558A2"/>
<path d="M129.933 106.315C129.914 106.729 129.813 107.136 129.636 107.512C129.459 107.887 129.209 108.224 128.902 108.503C128.594 108.782 128.235 108.997 127.843 109.136C127.452 109.276 127.038 109.336 126.623 109.315C126.178 109.328 125.734 109.251 125.319 109.088C124.904 108.925 124.527 108.68 124.21 108.366C123.893 108.053 123.643 107.679 123.475 107.266C123.307 106.853 123.225 106.41 123.233 105.965C123.226 105.533 123.307 105.104 123.471 104.704C123.635 104.304 123.879 103.942 124.188 103.64C124.497 103.338 124.864 103.101 125.267 102.946C125.671 102.79 126.101 102.718 126.533 102.735C126.995 102.735 127.451 102.83 127.875 103.012C128.299 103.195 128.682 103.462 129 103.796C129.318 104.131 129.564 104.527 129.725 104.96C129.885 105.393 129.956 105.854 129.933 106.315Z" fill="#3558A2"/>
</svg>
