<svg width="300" height="300" viewBox="0 0 300 300" fill="none" xmlns="http://www.w3.org/2000/svg">
<path d="M121.609 138.382C119.799 138.662 118.289 138.932 116.769 139.132C116.059 139.26 115.335 139.283 114.619 139.202C113.797 139.115 113.03 138.745 112.45 138.156C111.87 137.567 111.513 136.795 111.439 135.972C111.375 135.151 111.586 134.332 112.038 133.644C112.491 132.956 113.159 132.438 113.939 132.172C115.776 131.683 117.638 131.299 119.519 131.022C131.932 128.855 144.339 126.695 156.739 124.542C158.739 124.202 160.659 123.842 162.629 123.542C165.179 123.142 167.159 124.412 167.569 126.652C167.979 128.892 166.399 130.562 163.779 131.022C162.279 131.282 160.779 131.512 159.019 131.802C159.319 134.412 159.549 136.802 159.869 139.232C161.929 154.692 163.999 170.152 166.079 185.612C166.422 187.115 166.599 188.651 166.609 190.192C166.429 192.422 167.509 193.972 168.709 195.592C183.449 215.499 198.179 235.409 212.899 255.322C214.679 257.732 216.489 260.122 218.209 262.572C218.809 263.364 219.244 264.269 219.489 265.232C219.562 265.725 219.528 266.229 219.39 266.708C219.252 267.187 219.013 267.631 218.689 268.01C218.365 268.389 217.963 268.694 217.511 268.905C217.059 269.116 216.567 269.227 216.069 269.232C210.139 269.112 204.369 270.442 198.539 271.152C190.432 272.145 182.332 273.172 174.239 274.232C168.309 275.012 162.399 275.862 156.479 276.662C149.479 277.602 142.479 278.535 135.479 279.462C125.679 280.729 115.872 281.985 106.059 283.232C104.169 283.472 102.289 283.762 100.449 282.872C97.9888 281.682 97.1088 279.942 97.9388 277.322C98.4788 275.602 99.2288 273.942 99.9388 272.262C109.779 247.515 119.605 222.762 129.419 198.002C129.848 196.732 129.965 195.377 129.759 194.052C129.029 188.672 128.109 183.312 127.329 177.942C125.599 165.942 123.919 153.942 122.219 141.872C122.019 140.832 121.829 139.772 121.609 138.382ZM208.439 262.182C208.019 261.492 207.829 261.092 207.569 260.742C197.862 247.615 188.162 234.482 178.469 221.342C178.169 220.842 177.713 220.453 177.171 220.237C176.629 220.02 176.031 219.987 175.469 220.142C169.829 221.002 164.179 221.742 158.539 222.542C148.489 223.982 138.449 225.482 128.389 226.862C127.594 226.877 126.824 227.142 126.189 227.619C125.553 228.097 125.084 228.763 124.849 229.522C119.919 242.172 114.849 254.772 109.849 267.392C108.849 269.972 107.849 272.582 106.669 275.642L208.439 262.182ZM151.439 133.112L129.139 137.112C129.419 139.302 129.619 141.192 129.899 143.062C130.179 144.932 130.559 146.922 130.899 148.872C134.349 148.352 137.469 147.772 140.609 147.452C141.103 147.357 141.611 147.363 142.102 147.469C142.594 147.574 143.059 147.778 143.471 148.067C143.882 148.356 144.231 148.725 144.497 149.152C144.763 149.579 144.941 150.055 145.019 150.552C145.309 152.472 143.909 154.282 141.629 154.792C140.389 155.072 139.119 155.202 137.869 155.412L131.869 156.412L132.869 163.412C133.789 163.352 134.489 163.302 135.199 163.272C136.829 163.182 138.459 162.992 140.089 163.042C140.973 163.055 141.822 163.393 142.473 163.992C143.124 164.591 143.532 165.409 143.619 166.289C143.705 167.17 143.465 168.051 142.943 168.765C142.421 169.48 141.654 169.977 140.789 170.162C139.549 170.414 138.292 170.571 137.029 170.632C136.029 170.722 135.099 170.732 133.899 170.792L134.899 177.892C136.119 177.742 137.109 177.632 138.079 177.492C140.859 177.092 143.629 176.602 146.409 176.282C149.409 175.942 151.639 178.232 150.969 180.832C150.746 181.627 150.282 182.334 149.641 182.855C149 183.376 148.213 183.686 147.389 183.742C145.869 184.022 144.329 184.162 142.809 184.382C140.519 184.722 138.239 185.092 135.919 185.452C136.449 188.842 137.019 191.872 137.359 194.922C137.49 196.176 137.339 197.443 136.919 198.632C134.729 204.632 132.409 210.492 130.149 216.422C129.849 217.202 129.599 218.012 129.219 219.112L172.029 212.942C171.349 211.942 170.899 211.162 170.389 210.462C167.159 206.072 163.909 201.702 160.679 197.322C159.784 196.287 159.242 194.995 159.129 193.632C159.049 191.282 158.869 188.932 158.559 186.632C156.599 171.705 154.599 156.785 152.559 141.872C152.259 138.992 151.839 136.142 151.419 133.112H151.439Z" fill="#3558A2"/>
<path d="M155.949 78.3322C156.723 81.3444 157.317 84.3998 157.729 87.4823C158.289 94.8323 155.439 101.482 149.199 104.682C147.254 105.675 145.127 106.264 142.948 106.414C140.769 106.563 138.582 106.27 136.519 105.552C133.949 104.742 131.519 103.552 129.319 102.672C127.619 104.222 125.969 105.782 124.259 107.262C119.059 111.742 113.099 113.932 106.179 113.012C102.156 112.427 98.4249 110.57 95.5319 107.713C92.6389 104.856 90.7354 101.148 90.0994 97.1323C89.3616 92.5467 89.8941 87.8465 91.6393 83.5422C91.9693 82.7022 92.2893 81.8623 92.6393 80.8823C92.3333 80.5682 91.9985 80.2836 91.6393 80.0322C80.3593 73.0322 77.3594 57.5322 85.9894 45.9622C91.1594 39.0222 98.0493 35.4722 107.899 34.9622L109.119 32.4122C111.739 26.8922 115.309 22.2022 120.589 18.9322C128.879 13.8122 138.389 15.5022 144.339 23.1822C147.024 26.6401 148.748 30.7448 149.339 35.0822C149.449 35.8822 149.589 36.6822 149.739 37.5922C151.449 38.2022 153.159 38.7722 154.829 39.4222C158.736 40.9709 162.138 43.5701 164.659 46.9322C167.24 50.2558 168.672 54.3279 168.739 58.5354C168.806 62.743 167.504 66.8585 165.029 70.2623C163.069 73.1068 160.517 75.4945 157.549 77.2623C156.949 77.6123 156.409 78.0422 155.949 78.3322ZM108.069 42.5322C100.239 42.5322 93.7894 46.4322 90.4694 53.1622C86.8394 60.5422 88.3893 70.5822 97.7693 74.7022C98.4397 74.9781 99.0743 75.3341 99.6593 75.7623C100.611 76.399 101.279 77.3812 101.519 78.501C101.76 79.6209 101.556 80.7905 100.949 81.7623C100.609 82.4023 100.189 83.0023 99.8394 83.6323C97.7833 87.2042 96.9873 91.3636 97.5794 95.4423C98.3594 101.192 102.189 105.042 107.929 105.622C111.106 105.814 114.26 104.984 116.929 103.252C119.712 101.518 122.048 99.1549 123.749 96.3523C125.809 93.2023 128.509 92.7923 131.659 94.8223C133.365 96.0066 135.188 97.0119 137.099 97.8223C144.919 100.822 150.599 96.6723 150.099 88.3422C149.845 85.2651 149.025 82.2614 147.679 79.4822C146.319 76.4222 147.069 74.2522 149.979 72.6722C150.731 72.358 151.46 71.9904 152.159 71.5723C154.141 70.3148 155.993 68.8644 157.689 67.2422C158.888 65.9628 159.804 64.4445 160.375 62.7868C160.947 61.1291 161.162 59.3694 161.006 57.6228C160.85 55.8763 160.327 54.1824 159.471 52.652C158.615 51.1216 157.446 49.7893 156.039 48.7422C153.97 47.1287 151.585 45.967 149.039 45.3322C147.989 45.0622 146.949 44.7222 145.899 44.4622C144.859 44.2818 143.916 43.7372 143.24 42.9256C142.564 42.114 142.199 41.0884 142.209 40.0322C142.199 39.125 142.101 38.2209 141.919 37.3322C141.471 34.9418 140.802 32.5984 139.919 30.3321C136.589 23.1421 129.689 21.4621 123.259 26.0921C122.748 26.4685 122.261 26.8759 121.799 27.3122C118.775 30.0851 116.486 33.566 115.139 37.4422C113.399 42.5322 113.399 42.5322 108.089 42.5322H108.069Z" fill="#3558A2"/>
<path d="M208.439 262.232L106.699 275.692C107.879 272.632 108.849 270.022 109.879 267.442C114.879 254.822 119.959 242.222 124.879 229.572C125.115 228.813 125.583 228.147 126.219 227.669C126.855 227.192 127.624 226.927 128.419 226.912C138.479 225.532 148.519 224.032 158.569 222.592C164.209 221.792 169.859 221.052 175.499 220.192C176.062 220.037 176.66 220.07 177.201 220.287C177.743 220.503 178.199 220.892 178.499 221.392C188.173 234.552 197.873 247.685 207.599 260.792C207.829 261.092 208.019 261.492 208.439 262.232Z" fill="#979FBB"/>
<path d="M108.089 42.5319C113.399 42.5319 113.399 42.5319 115.239 37.4619C116.6 33.5805 118.906 30.0991 121.949 27.3319C122.411 26.8957 122.898 26.4882 123.409 26.1119C129.839 21.4819 136.739 23.1119 140.069 30.3519C140.952 32.6182 141.621 34.9616 142.069 37.3519C142.251 38.2407 142.349 39.1448 142.359 40.0519C142.349 41.1081 142.714 42.1337 143.39 42.9453C144.066 43.7569 145.009 44.3016 146.049 44.4819C147.049 44.7419 148.139 45.0819 149.189 45.3519C151.735 45.9868 154.12 47.1485 156.189 48.7619C157.596 49.809 158.765 51.1413 159.621 52.6717C160.477 54.2021 161 55.896 161.156 57.6425C161.312 59.389 161.097 61.1488 160.525 62.8065C159.954 64.4642 159.038 65.9825 157.839 67.2619C156.143 68.8841 154.291 70.3344 152.309 71.5918C151.61 72.01 150.881 72.3776 150.129 72.6919C147.219 74.2719 146.469 76.4419 147.829 79.5019C149.175 82.281 149.995 85.2847 150.249 88.3618C150.719 96.6918 145.039 100.882 137.249 97.8418C135.338 97.0314 133.515 96.0261 131.809 94.8418C128.659 92.8418 125.959 93.2218 123.899 96.3718C122.198 99.1745 119.862 101.538 117.079 103.272C114.41 105.003 111.256 105.834 108.079 105.642C102.339 105.062 98.5094 101.212 97.7294 95.4618C97.1373 91.3831 97.9333 87.2237 99.9894 83.6518C100.339 83.0218 100.759 82.4218 101.099 81.7818C101.706 80.81 101.91 79.6405 101.669 78.5207C101.428 77.4008 100.761 76.4186 99.8094 75.7818C99.2244 75.3537 98.5897 74.9978 97.9193 74.7218C88.5393 70.6018 86.9894 60.5619 90.6194 53.1819C93.8094 46.4319 100.259 42.5319 108.089 42.5319Z" fill="#FCFCFD"/>
</svg>
