<svg width="300" height="300" viewBox="0 0 300 300" fill="none" xmlns="http://www.w3.org/2000/svg">
<path d="M107.607 193.281L120.317 183.921L178.567 140.921C179.837 139.981 181.087 139.161 182.777 139.331C183.319 139.354 183.858 139.244 184.347 139.011C190.617 136.271 195.627 138.481 200.007 143.011C203.118 146.35 205.39 150.381 206.637 154.771C210.337 166.621 210.637 178.501 206.637 190.351C205.4 194.266 203.195 197.805 200.227 200.641C199.232 201.57 198.111 202.354 196.897 202.971C195.307 203.771 193.737 204.381 192.707 206.091C192.197 206.931 190.757 207.331 189.707 207.681C178.06 211.401 166.394 215.094 154.707 218.761L125.197 228.111C124.88 228.25 124.573 228.411 124.277 228.591C124.197 229.451 124.057 230.421 124.017 231.391C123.787 238.391 123.547 245.391 123.367 252.341C123.341 253.322 123.473 254.301 123.757 255.241C124.687 258.301 123.337 260.491 120.077 260.671C118.072 260.695 116.068 260.588 114.077 260.351L80.1671 257.751L53.0571 255.621L26.2271 253.521C20.2271 253.041 14.3171 252.521 8.35711 252.021C5.12711 251.751 3.35705 250.131 3.04705 246.921C2.94963 246.018 3.00374 245.106 3.20709 244.221C7.57709 226.221 15.4871 210.221 28.7571 197.031C37.4371 188.431 47.4771 182.081 59.4971 179.411C77.4971 175.411 93.2571 179.871 106.697 192.491C106.927 192.731 107.197 192.941 107.607 193.281ZM89.6071 189.671C88.7771 189.261 88.3971 189.041 87.9871 188.871C79.3147 185.211 69.6787 184.509 60.5671 186.871C50.5071 189.381 42.0671 194.691 34.6771 201.751C24.1571 211.821 17.1771 224.091 12.6771 237.851C11.9871 239.971 11.4271 242.141 10.8071 244.291C14.2871 245.211 44.4171 247.351 46.2371 246.941C46.7071 242.191 46.9171 237.471 47.6771 232.841C49.165 223.207 53.0508 214.101 58.9771 206.361C64.9071 198.671 72.3371 193.071 81.9771 190.781C84.3471 190.221 86.827 190.071 89.647 189.671H89.6071ZM147.967 172.881C146.767 173.741 145.967 174.301 145.157 174.881C139.697 178.921 134.234 182.968 128.767 187.021C116.367 196.181 103.974 205.351 91.5871 214.531C90.6239 215.173 89.8668 216.079 89.407 217.141C88.8153 218.942 88.4787 220.817 88.407 222.711C88.327 225.501 89.7371 227.711 91.7471 229.581C92.0601 229.91 92.4655 230.137 92.91 230.232C93.3544 230.327 93.8171 230.284 94.2371 230.111C95.8571 229.551 97.4971 229.021 99.1271 228.501L157.127 210.071C157.847 209.841 158.547 209.531 159.377 209.221C151.477 198.441 148.597 186.281 148.007 172.881H147.967ZM98.8671 199.651C93.6381 197.396 87.7958 196.994 82.3071 198.511C74.7771 200.571 69.1371 205.261 64.5971 211.381C56.8671 221.781 53.9871 233.661 54.2271 246.441C54.2813 246.955 54.3783 247.463 54.517 247.961C65.107 249.321 113.167 252.751 115.677 252.281C115.827 245.281 116.517 238.281 116.347 230.871C109.137 233.221 102.347 235.341 95.5771 237.691C94.7541 238.049 93.8635 238.226 92.9661 238.209C92.0687 238.191 91.1857 237.981 90.3771 237.591C86.4709 235.753 83.4485 232.446 81.9671 228.391C80.3771 224.211 80.8071 220.031 81.7471 215.811C82.04 214.341 82.6358 212.947 83.4966 211.72C84.3575 210.492 85.4645 209.457 86.7471 208.681C89.3471 207.021 91.7471 205.081 94.2271 203.241C95.6571 202.171 97.067 201.061 98.907 199.651H98.8671ZM202.177 172.651C201.667 168.891 201.367 165.101 200.607 161.391C199.809 156.91 197.989 152.674 195.287 149.011C191.457 144.011 187.187 144.111 183.757 149.391C182.571 151.212 181.632 153.182 180.967 155.251C177.848 165.199 178.037 175.89 181.507 185.721C182.53 188.926 184.236 191.87 186.507 194.351C189.667 197.741 193.037 197.641 195.967 194.031C196.984 192.755 197.843 191.362 198.527 189.881C201.157 184.531 201.957 178.691 202.217 172.691L202.177 172.651ZM183.177 201.791C181.6 200.21 180.114 198.541 178.727 196.791C177.444 194.927 176.348 192.941 175.457 190.861C171.107 180.861 170.457 170.381 172.057 159.691C172.307 158.111 172.647 156.551 173.057 154.371C171.837 155.201 171.057 155.671 170.397 156.191C166.667 158.931 163.077 161.871 159.197 164.371C156.667 166.001 155.857 168.231 155.537 170.901C155.477 171.351 155.537 171.811 155.537 172.261C155.127 180.771 157.417 188.771 160.537 196.531C162.143 200.373 164.429 203.893 167.287 206.921L183.177 201.791Z" fill="#3558A2"/>
<path d="M245.677 117.891C234.757 136.511 208.937 136.401 201.387 114.471C197.267 113.831 193.147 113.271 189.067 112.471C187.199 112.134 185.383 111.553 183.667 110.741C182.118 110.012 180.723 108.994 179.557 107.741C176.297 103.971 176.477 99.9706 179.807 96.2506C181.639 94.2231 183.954 92.6922 186.537 91.8006C192.687 89.5906 198.977 89.8006 205.537 90.6006C211.277 82.9506 218.937 78.4306 228.797 79.5206C238.797 80.6406 244.877 87.1106 248.267 96.3406C251.267 96.6306 254.097 96.8706 256.977 97.2006C260.791 97.5707 264.418 99.0284 267.427 101.401C270.577 103.941 271.707 107.401 270.087 110.531C269.239 112.019 268.112 113.33 266.767 114.391C263.697 116.921 259.937 117.691 256.087 117.851C252.667 118.011 249.227 117.891 245.677 117.891ZM240.677 110.291C242.077 104.951 241.987 100.291 239.847 95.7206C238.397 92.5138 235.861 89.9217 232.687 88.4015C229.513 86.8812 225.904 86.5303 222.497 87.4106C215.367 89.2306 211.147 94.1306 208.927 100.931C208.185 103.044 207.982 105.309 208.337 107.521L240.677 110.291ZM209.817 115.191C213.227 121.071 217.817 124.041 224.207 123.921C229.007 123.831 234.597 120.761 235.967 117.521L209.817 115.191ZM201.817 97.7706C197.377 97.4706 193.057 97.4706 188.887 99.0306C187.23 99.504 185.806 100.572 184.887 102.031C186.767 104.761 193.887 106.711 200.307 106.341C200.827 103.531 201.287 100.731 201.827 97.7706H201.817ZM263.097 107.541C258.877 104.241 254.187 104.331 249.407 104.181C249.157 106.281 248.917 108.181 248.687 110.181C254.137 111.141 260.107 110.141 263.077 107.531L263.097 107.541Z" fill="#3558A2"/>
<path d="M240.586 171.851C240.666 161.771 243.586 153.721 249.996 147.211C259.346 137.761 273.396 136.211 284.506 144.031C286.206 145.241 287.676 146.731 287.046 149.031C286.783 150.098 286.193 151.057 285.36 151.773C284.527 152.49 283.491 152.93 282.396 153.031C280.342 153.27 278.326 153.767 276.396 154.511C270.826 156.991 266.996 161.031 266.556 167.421C266.355 169.895 267.104 172.353 268.652 174.295C270.199 176.236 272.429 177.515 274.886 177.871C277.392 178.35 279.973 178.267 282.442 177.627C284.912 176.987 287.208 175.807 289.166 174.171C289.516 173.891 289.856 173.581 290.166 173.271C291.556 172.041 293.106 171.351 294.896 172.271C295.716 172.673 296.413 173.289 296.911 174.055C297.409 174.821 297.691 175.708 297.726 176.621C297.77 177.165 297.743 177.713 297.646 178.251C295.316 189.851 289.216 198.541 277.726 202.371C266.896 205.981 257.496 202.771 249.726 194.721C243.842 188.562 240.567 180.368 240.586 171.851V171.851ZM273.116 147.431V146.761C271.084 146.588 269.043 146.554 267.006 146.661C264.011 146.971 261.132 147.989 258.608 149.63C256.083 151.271 253.985 153.489 252.486 156.101C246.646 165.651 246.606 175.491 251.996 185.281C254.299 189.45 257.932 192.728 262.316 194.591C265.283 196.007 268.594 196.542 271.856 196.131C278.606 195.131 283.506 191.461 286.966 185.701C287.247 185.083 287.477 184.445 287.656 183.791L284.996 184.651C280.921 185.992 276.542 186.099 272.406 184.961C264.046 182.661 258.406 175.801 258.956 166.901C259.376 160.121 262.726 154.901 267.956 150.821C269.576 149.531 271.386 148.531 273.116 147.431Z" fill="#3558A2"/>
<path d="M258.166 62.0597C256.166 62.7497 254.636 63.3897 253.016 63.8297C252.143 64.1226 251.19 64.0628 250.361 63.663C249.531 63.2632 248.891 62.5551 248.576 61.6897C248.218 60.8412 248.192 59.8889 248.503 59.0219C248.814 58.1549 249.44 57.4366 250.256 57.0097C250.971 56.6156 251.717 56.2812 252.486 56.0097C253.236 55.6997 254.006 55.4397 254.776 55.1697C254.946 53.9897 254.016 53.5197 253.486 52.8597C252.486 51.6597 251.376 50.5897 250.486 49.3397C250.019 48.7142 249.782 47.946 249.817 47.1658C249.851 46.3855 250.155 45.6413 250.676 45.0597C251.199 44.4818 251.895 44.09 252.661 43.9438C253.426 43.7976 254.218 43.905 254.916 44.2497C255.706 44.6866 256.45 45.2026 257.136 45.7897C257.696 46.2097 258.206 46.6897 258.956 47.3297C259.096 46.0497 259.166 45.0797 259.316 44.1197C259.806 41.1197 261.396 39.7097 263.736 40.0497C265.826 40.3497 267.086 42.3397 266.886 45.0497C266.796 46.2197 266.686 47.3797 266.556 48.9197C267.556 48.5297 268.216 48.2297 268.936 47.9897C270.615 47.325 272.339 46.7835 274.096 46.3697C275.045 46.1687 276.036 46.3413 276.861 46.8516C277.686 47.3619 278.282 48.1707 278.526 49.1097C279.036 51.1797 278.026 52.9197 275.626 53.5997C273.055 54.3491 270.596 55.4423 268.316 56.8497C268.557 57.4344 268.855 57.9938 269.206 58.5197C270.606 60.1997 272.056 61.8197 273.476 63.5197C274.031 64.117 274.527 64.7667 274.956 65.4597C275.326 66.1427 275.467 66.9266 275.357 67.6955C275.247 68.4644 274.893 69.1777 274.346 69.7298C273.827 70.3105 273.122 70.692 272.351 70.8088C271.581 70.9257 270.794 70.7704 270.126 70.3698C269.29 69.8347 268.527 69.1926 267.856 68.4598C267.156 67.7698 266.526 67.0098 265.766 66.1698C265.526 66.8598 265.366 67.3697 265.166 67.8597C264.296 69.9097 262.776 70.8598 260.976 70.5498C260.065 70.2764 259.272 69.7028 258.727 68.9222C258.183 68.1416 257.918 67.1998 257.976 66.2498C258.116 64.9498 258.086 63.7097 258.166 62.0597Z" fill="#3558A2"/>
<path d="M226.197 65.2598C223.607 65.6398 221.017 66.1498 218.407 66.3698C216.083 66.6507 213.735 66.6675 211.407 66.4198C207.717 65.8898 205.027 63.5298 202.827 60.6398C201.897 59.4198 201.147 58.0498 200.237 56.8098C198.657 54.6499 196.787 52.8099 194.017 52.3099C192.964 52.0702 191.87 52.0702 190.817 52.3099C188.057 53.1499 185.387 54.2299 182.657 55.1699C181.607 55.6616 180.474 55.9532 179.317 56.0298C178.619 55.9969 177.95 55.7397 177.41 55.2966C176.869 54.8535 176.486 54.248 176.317 53.5699C176.051 52.8305 176.045 52.0227 176.3 51.2793C176.554 50.536 177.054 49.9014 177.717 49.4799C179.529 48.2781 181.463 47.2724 183.487 46.4799C185.544 45.7768 187.65 45.2253 189.787 44.8299C191.921 44.3309 194.144 44.355 196.266 44.9C198.388 45.4449 200.348 46.4947 201.977 47.9599C203.861 49.7691 205.606 51.7179 207.197 53.7899C207.538 54.216 207.837 54.6749 208.087 55.1599C210.147 58.6998 213.267 59.6998 217.087 59.0598C219.857 58.6098 222.627 58.0598 225.407 57.9098C226.933 57.8785 228.448 58.1787 229.847 58.7899C230.653 59.1274 231.31 59.7434 231.7 60.5255C232.089 61.3076 232.184 62.2035 231.967 63.0498C231.497 64.8198 230.177 65.7198 228.047 65.6998C227.417 65.6998 226.777 65.5798 226.147 65.5098L226.197 65.2598Z" fill="#3558A2"/>
<path d="M229.417 152.13C229.417 154.84 227.567 156.78 225.117 156.7C224.158 156.684 223.244 156.289 222.575 155.601C221.906 154.914 221.536 153.989 221.547 153.03C221.547 150.58 223.617 148.19 225.777 148.18C226.783 148.221 227.732 148.661 228.415 149.401C229.097 150.142 229.458 151.123 229.417 152.13V152.13Z" fill="#3558A2"/>
<path d="M175.306 123.811C175.271 124.946 174.822 126.028 174.042 126.854C173.262 127.68 172.207 128.191 171.076 128.291C168.926 128.351 167.476 126.861 167.376 124.491C167.272 123.941 167.285 123.376 167.413 122.831C167.541 122.287 167.782 121.775 168.121 121.33C168.459 120.884 168.887 120.514 169.377 120.245C169.866 119.975 170.408 119.81 170.965 119.763C171.522 119.715 172.083 119.785 172.612 119.967C173.141 120.15 173.625 120.441 174.034 120.822C174.444 121.204 174.768 121.667 174.987 122.182C175.206 122.696 175.315 123.251 175.306 123.811Z" fill="#3558A2"/>
<path d="M278.017 121.041C278.056 119.993 278.49 118.998 279.232 118.256C279.974 117.515 280.968 117.081 282.017 117.041C283.099 117.061 284.129 117.51 284.88 118.289C285.631 119.068 286.041 120.114 286.022 121.196C286.002 122.278 285.553 123.308 284.774 124.059C283.994 124.81 282.949 125.221 281.867 125.201C280.821 125.116 279.844 124.641 279.131 123.871C278.419 123.1 278.021 122.091 278.017 121.041V121.041Z" fill="#3558A2"/>
<path d="M89.6464 189.672C86.8164 190.072 84.3464 190.222 81.9864 190.782C72.3864 193.072 64.9864 198.672 58.9864 206.362C53.0601 214.102 49.1743 223.208 47.6864 232.842C46.9264 237.472 46.6865 242.192 46.2465 246.942C44.4265 247.352 14.2464 245.212 10.8164 244.292C11.4364 242.142 11.9964 239.972 12.6864 237.852C17.1764 224.092 24.1564 211.852 34.6864 201.752C42.0764 194.692 50.5164 189.382 60.5764 186.872C69.6881 184.509 79.324 185.212 87.9965 188.872C88.4365 189.042 88.8264 189.262 89.6464 189.672Z" fill="#EAECF1"/>
<path d="M148.006 172.881C148.596 186.281 151.476 198.441 159.386 209.231C158.556 209.541 157.856 209.851 157.136 210.081L99.1364 228.511C97.5064 229.031 95.8664 229.511 94.2464 230.121C93.8264 230.294 93.3637 230.336 92.9192 230.242C92.4748 230.147 92.0694 229.92 91.7564 229.591C89.7564 227.731 88.3363 225.511 88.4163 222.721C88.4879 220.827 88.8245 218.952 89.4163 217.151C89.8761 216.089 90.6332 215.182 91.5964 214.541C103.97 205.341 116.363 196.171 128.776 187.031C134.243 182.991 139.706 178.944 145.166 174.891C145.996 174.301 146.826 173.741 148.006 172.881Z" fill="#EAECF1"/>
<path d="M98.9068 199.65C97.0668 201.06 95.6569 202.17 94.2169 203.24C91.7469 205.08 89.3369 207.02 86.7369 208.68C85.4542 209.456 84.3472 210.491 83.4864 211.718C82.6256 212.946 82.0298 214.339 81.7369 215.81C80.7969 220.03 80.3669 224.21 81.9569 228.39C83.4382 232.445 86.4607 235.751 90.3669 237.59C91.1755 237.979 92.0585 238.19 92.9559 238.207C93.8533 238.224 94.7439 238.048 95.5668 237.69C102.307 235.34 109.127 233.22 116.337 230.87C116.507 238.31 115.817 245.31 115.667 252.28C113.157 252.75 65.0969 249.28 54.5069 247.96C54.3681 247.462 54.2711 246.953 54.2169 246.44C53.9769 233.66 56.8569 221.78 64.5869 211.38C69.1269 205.26 74.7668 200.57 82.2968 198.51C87.8011 196.981 93.663 197.383 98.9068 199.65V199.65Z" fill="#979FBB"/>
<path d="M202.217 172.69C201.957 178.69 201.157 184.49 198.597 189.92C197.913 191.401 197.053 192.795 196.037 194.07C193.107 197.68 189.737 197.78 186.577 194.39C184.305 191.909 182.599 188.965 181.577 185.76C178.107 175.929 177.917 165.238 181.037 155.29C181.702 153.222 182.64 151.251 183.827 149.43C187.257 144.15 191.527 144.09 195.357 149.05C198.058 152.713 199.879 156.949 200.677 161.43C201.407 165.14 201.707 168.93 202.217 172.69Z" fill="#979FBB"/>
<path d="M183.267 201.83L167.267 206.95C164.409 203.922 162.122 200.402 160.517 196.56C157.427 188.8 155.137 180.8 155.517 172.29C155.517 171.84 155.517 171.38 155.517 170.93C155.837 168.26 156.647 166.03 159.177 164.4C163.057 161.9 166.647 158.96 170.377 156.22C171.077 155.7 171.817 155.22 173.037 154.4C172.627 156.58 172.287 158.14 172.037 159.72C170.397 170.41 171.037 180.86 175.437 190.89C176.328 192.97 177.424 194.957 178.707 196.82C180.129 198.577 181.652 200.25 183.267 201.83V201.83Z" fill="#FAFAFB"/>
<path d="M240.707 110.29L208.367 107.53C208.012 105.319 208.215 103.054 208.957 100.94C211.177 94.1402 215.397 89.2402 222.527 87.4202C225.935 86.5399 229.544 86.8909 232.718 88.4111C235.892 89.9314 238.427 92.5234 239.877 95.7302C242.017 100.26 242.107 104.95 240.707 110.29Z" fill="#FAFAFB"/>
<path d="M209.826 115.191L235.976 117.521C234.606 120.761 228.976 123.831 224.216 123.921C217.826 124.041 213.256 121.071 209.826 115.191Z" fill="#F4F4F7"/>
<path d="M273.117 147.43C271.387 148.55 269.577 149.56 267.957 150.82C262.697 154.9 259.347 160.12 258.957 166.9C258.407 175.8 264.047 182.66 272.407 184.96C276.542 186.099 280.922 185.991 284.997 184.65L287.657 183.79C287.478 184.444 287.248 185.083 286.967 185.7C283.507 191.46 278.607 195.16 271.857 196.13C268.595 196.541 265.284 196.007 262.317 194.59C257.933 192.728 254.3 189.45 251.997 185.28C246.607 175.49 246.647 165.65 252.487 156.1C253.986 153.489 256.084 151.271 258.609 149.63C261.133 147.988 264.012 146.971 267.007 146.66C269.043 146.554 271.085 146.587 273.117 146.76V147.43Z" fill="#F8F8FA"/>
</svg>
