<svg width="300" height="300" viewBox="0 0 300 300" fill="none" xmlns="http://www.w3.org/2000/svg">
<path d="M175.272 176.927C172.522 176.657 170.182 176.477 167.862 176.177C165.867 175.993 163.947 175.323 162.272 174.224C160.596 173.126 159.216 171.633 158.252 169.876C156.172 166.236 156.572 160.747 162.072 158.307C163.676 157.55 165.421 157.14 167.194 157.102C168.967 157.064 170.727 157.399 172.362 158.087C173.952 158.737 175.462 159.576 177.362 160.486C176.962 158.276 176.772 156.237 176.212 154.307C175.332 151.307 176.212 148.787 178.352 146.537C175.952 139.717 173.556 132.897 171.162 126.077C169.162 120.357 167.162 114.633 165.162 108.907C164.862 108.149 164.618 107.37 164.432 106.577C164.279 105.723 164.42 104.843 164.833 104.08C165.245 103.317 165.904 102.716 166.702 102.377C167.482 102.1 168.333 102.103 169.111 102.386C169.888 102.669 170.543 103.214 170.962 103.927C171.531 104.957 171.994 106.042 172.342 107.167C174.002 111.857 175.622 116.557 177.272 121.247C177.502 121.917 177.782 122.577 178.102 123.387C190.572 118.217 203.252 113.967 215.632 108.507C213.892 104.207 212.232 100.117 210.632 96.0166C210.232 95.0166 209.812 94.0167 209.502 92.9567C209.187 92.0579 209.217 91.0741 209.587 90.1963C209.956 89.3185 210.639 88.6094 211.502 88.2067C212.37 87.8997 213.322 87.9358 214.164 88.3075C215.006 88.6793 215.674 89.3586 216.032 90.2067C217.392 93.0667 218.562 96.0167 219.762 98.9467C223.049 106.987 226.322 115.033 229.582 123.087C229.852 123.757 230.152 124.407 230.502 125.217C233.882 124.647 235.752 126.617 236.962 129.367C238.962 133.927 240.962 138.487 242.742 143.137C245.272 149.431 247.351 155.897 248.962 162.486C249.584 165.036 250.006 167.631 250.222 170.246C250.552 175.496 248.562 180.007 245.162 183.917C243.114 186.238 240.719 188.228 238.062 189.817C232.952 192.907 227.922 196.187 222.622 198.947C217.502 201.617 212.092 203.767 206.792 206.077C203.972 207.317 201.102 208.437 198.242 209.587C193.197 211.66 187.747 212.566 182.302 212.236C179.84 212.142 177.443 211.417 175.342 210.13C173.24 208.843 171.505 207.037 170.302 204.886C168.536 202.116 167.544 198.923 167.43 195.64C167.316 192.357 168.083 189.103 169.652 186.216C170.512 184.516 171.582 182.937 172.572 181.317C173.342 179.947 174.232 178.587 175.272 176.927ZM239.342 156.627C238.522 151.787 232.392 136.097 230.462 133.887C214.682 139.957 199.462 147.387 183.182 152.567C184.052 155.167 183.852 157.757 185.182 160.116L190.032 157.947C193.512 156.397 196.962 154.787 200.462 153.327C201.335 152.928 202.327 152.879 203.235 153.189C204.143 153.5 204.897 154.147 205.342 154.997C206.172 156.777 205.502 158.697 203.522 159.827C202.432 160.447 201.242 160.917 200.082 161.447L185.512 168.126V170.687L187.712 169.966C192.412 168.366 197.112 166.727 201.842 165.177C203.292 164.671 204.795 164.335 206.322 164.177C207.1 164.077 207.888 164.269 208.532 164.716C209.177 165.163 209.633 165.833 209.812 166.596C210.002 167.303 209.967 168.052 209.712 168.738C209.458 169.424 208.997 170.014 208.392 170.427C207.63 170.919 206.806 171.309 205.942 171.587C198.422 174.177 190.882 176.727 183.362 179.327C182.771 179.498 182.248 179.847 181.862 180.327C179.942 183.3 178.069 186.3 176.242 189.327C175.126 191.247 174.686 193.486 174.992 195.687C175.371 195.69 175.75 195.657 176.122 195.587C178.032 194.997 179.932 194.406 181.812 193.766C192.298 190.258 202.503 185.962 212.342 180.917C215.462 179.307 218.252 177.206 221.342 175.596C222.637 174.907 223.657 173.796 224.232 172.447C224.992 170.807 225.712 169.127 226.622 167.567C229.622 162.567 232.942 158.017 239.172 156.817C239.242 156.807 239.282 156.697 239.342 156.627V156.627ZM185.132 143.727C187.932 143.357 219.572 130.727 223.682 128.417C221.962 124.137 220.382 119.777 218.362 115.567L180.362 130.297C182.012 134.957 183.602 139.367 185.132 143.727ZM241.242 163.726C239.627 163.845 238.113 164.557 236.992 165.726C234.753 167.867 233.021 170.481 231.922 173.376C229.922 178.836 225.762 182.187 220.862 184.807C218.702 185.957 216.532 187.076 214.332 188.156C210.192 190.156 206.092 192.336 201.842 194.106C196.582 196.306 191.182 198.176 185.842 200.156C183.412 201.066 180.962 201.906 178.282 202.856C179.044 203.607 179.952 204.192 180.95 204.578C181.948 204.963 183.014 205.139 184.082 205.096C187.894 205.098 191.667 204.34 195.182 202.866C204.119 199.441 212.848 195.495 221.322 191.047C225.472 188.817 229.522 186.407 233.522 183.927C235.453 182.741 237.247 181.346 238.872 179.766C240.915 177.688 242.245 175.015 242.671 172.133C243.097 169.25 242.596 166.307 241.242 163.726V163.726ZM175.522 168.937C173.162 166.537 170.732 164.937 167.712 164.507C167.14 164.382 166.543 164.44 166.006 164.671C165.468 164.902 165.015 165.296 164.712 165.797C164.812 166.433 165.1 167.025 165.538 167.497C165.976 167.969 166.545 168.299 167.172 168.447C169.871 169.303 172.741 169.471 175.522 168.937V168.937Z" fill="#3558A2"/>
<path d="M67.0129 132.026C67.1029 130.576 67.1329 129.406 67.2429 128.246C67.3153 126.787 67.7827 125.374 68.5952 124.16C69.4076 122.945 70.5346 121.974 71.8559 121.35C73.1772 120.726 74.6431 120.472 76.0974 120.616C77.5516 120.759 78.9395 121.296 80.1129 122.167C84.3229 125.247 86.9629 129.086 86.7929 134.496C86.7929 135.206 86.7929 135.927 86.7929 137.317C88.3329 135.257 89.4529 133.687 90.6429 132.177C91.3663 131.135 92.2087 130.182 93.1529 129.337C94.017 128.557 95.0854 128.04 96.2329 127.846C97.7329 127.746 98.2329 126.936 98.7629 125.846C101.156 120.56 103.553 115.276 105.953 109.997C107.599 106.363 109.266 102.737 110.953 99.1165C111.276 98.3647 111.675 97.6476 112.143 96.9765C112.576 96.3884 113.19 95.9585 113.891 95.7526C114.591 95.5467 115.34 95.5763 116.023 95.8366C116.658 96.0991 117.187 96.5665 117.526 97.1645C117.865 97.7625 117.994 98.4567 117.893 99.1365C117.657 100.379 117.271 101.588 116.743 102.737C115.173 106.386 113.533 110.017 111.823 113.876C121.453 118.346 130.963 122.717 140.983 126.526C141.353 125.841 141.687 125.137 141.983 124.417C143.463 120.037 144.913 115.647 146.393 111.267C146.683 110.312 147.058 109.385 147.513 108.497C147.856 107.796 148.427 107.233 149.132 106.899C149.836 106.565 150.633 106.48 151.393 106.657C152.191 106.878 152.878 107.386 153.323 108.084C153.768 108.782 153.939 109.62 153.803 110.437C153.692 111.241 153.487 112.03 153.193 112.787C150.153 121.807 147.11 130.806 144.063 139.786C143.923 140.206 143.833 140.647 143.693 141.187C143.935 141.433 144.207 141.648 144.503 141.827C145.306 142.175 145.967 142.784 146.381 143.556C146.795 144.327 146.936 145.215 146.783 146.077C146.532 148.597 146.03 151.086 145.283 153.506C142.623 161.116 139.813 168.666 136.913 176.196C135.604 179.577 134.122 182.888 132.473 186.116C130.576 189.847 128.03 193.209 124.953 196.046C122.018 198.651 118.359 200.298 114.463 200.766C109.693 201.556 105.043 200.766 100.463 199.946C88.2377 197.771 76.2706 194.336 64.7529 189.696C60.7945 188.084 57.1698 185.752 54.063 182.816C48.063 177.316 47.7429 170.746 51.2829 163.816C53.3878 159.648 56.9446 156.394 61.2829 154.666C61.8629 154.426 62.4229 154.136 62.9829 153.856C63.0429 153.856 63.0629 153.706 63.1629 153.476C62.4229 153.166 61.683 152.856 60.943 152.566C57.5795 151.345 54.7633 148.962 53.0029 145.846C51.946 144.08 51.4266 142.045 51.5083 139.988C51.59 137.931 52.2692 135.943 53.4629 134.266C55.3829 131.266 59.7829 129.827 63.3729 130.786C64.5029 131.126 65.5929 131.566 67.0129 132.026ZM139.413 147.906C137.243 147.536 135.223 147.166 133.193 146.846C124.873 145.549 116.674 143.562 108.683 140.906C105.245 139.758 102.011 138.071 99.1029 135.906C98.6129 135.536 98.1029 135.206 97.4129 134.726C95.2655 137.222 93.3383 139.898 91.6529 142.726C92.0892 143.133 92.5574 143.504 93.0529 143.837C97.3729 146.127 101.713 148.386 106.053 150.666C106.877 151.029 107.665 151.471 108.403 151.986C108.913 152.375 109.286 152.916 109.466 153.532C109.646 154.147 109.624 154.804 109.403 155.406C109.239 156.027 108.88 156.578 108.38 156.979C107.88 157.38 107.264 157.611 106.623 157.636C105.725 157.683 104.826 157.561 103.973 157.276C102.597 156.787 101.26 156.195 99.9729 155.506C96.3029 153.506 92.6629 151.506 88.9729 149.506C88.5129 149.256 87.9728 149.066 87.3328 148.766L84.2429 152.446C85.1429 153.176 85.8529 153.856 86.6629 154.386C90.0029 156.556 93.3829 158.686 96.7429 160.826C97.6862 161.369 98.5946 161.97 99.4628 162.626C99.8533 162.907 100.179 163.269 100.417 163.687C100.655 164.105 100.801 164.569 100.843 165.049C100.886 165.528 100.825 166.01 100.664 166.464C100.504 166.917 100.248 167.331 99.9129 167.676C99.3323 168.268 98.5564 168.627 97.7301 168.688C96.9038 168.748 96.0837 168.506 95.4229 168.006C90.6529 165.006 85.9429 162.006 81.2329 158.916C80.3743 158.295 79.5498 157.627 78.7629 156.916C76.1629 157.626 73.9029 158.216 71.6529 158.856C68.8629 159.636 66.0628 160.356 63.3328 161.296C61.2383 162.074 59.4572 163.518 58.2629 165.406C59.1729 165.786 59.8129 166.086 60.4729 166.316C63.2029 167.316 65.9329 168.316 68.6829 169.196C74.7829 171.196 80.8896 173.196 87.0029 175.196C91.2129 176.576 95.4229 177.976 99.6629 179.306C102.325 180.223 105.17 180.481 107.953 180.056C110.443 179.616 112.953 179.116 115.423 178.706C119.183 178.086 122.953 177.546 126.703 178.846C127.103 178.936 127.513 178.973 127.923 178.956C130.473 175.216 138.893 152.416 139.423 147.936L139.413 147.906ZM56.1029 172.436C56.0127 173.265 56.1238 174.103 56.4267 174.879C56.7296 175.656 57.2154 176.348 57.8429 176.896C60.8463 180.08 64.5809 182.483 68.7229 183.896C80.1329 188.076 91.7229 191.766 103.723 193.486C107.393 194.016 111.073 194.486 114.813 193.716C116.906 193.189 118.848 192.182 120.485 190.774C122.122 189.366 123.408 187.597 124.243 185.606C122.771 184.878 121.089 184.69 119.493 185.076C116.363 185.556 113.253 186.076 110.143 186.716C106.498 187.467 102.727 187.337 99.1429 186.336C95.9229 185.416 92.7229 184.406 89.5529 183.336C85.3429 181.926 81.1729 180.386 76.9629 178.976C72.3329 177.416 67.6729 175.976 63.0329 174.416C61.2229 173.816 59.4429 173.166 57.6229 172.586C57.1249 172.495 56.619 172.455 56.1129 172.466L56.1029 172.436ZM104.183 130.616C108.333 134.386 130.813 140.866 136.643 140.006C137.31 137.866 138.036 135.656 138.823 133.376L108.823 120.246L104.183 130.616ZM72.7529 148.026C70.2574 144.545 67.3458 141.382 64.0828 138.606C63.6654 138.256 63.1877 137.985 62.6729 137.807C60.0029 136.807 58.0529 138.336 58.5529 141.136C58.7172 141.923 59.0592 142.662 59.5529 143.296C60.5599 144.717 62.0029 145.77 63.6629 146.296C65.6629 146.856 67.6629 147.356 69.6629 147.796C70.6875 147.934 71.7193 148.011 72.7529 148.026ZM78.573 143.346C79.4337 140.219 79.8709 136.99 79.8729 133.746C79.8729 131.046 78.2129 129.426 76.2629 128.026C76.0711 127.854 75.8331 127.741 75.5781 127.701C75.323 127.661 75.062 127.696 74.8266 127.802C74.5913 127.908 74.3918 128.08 74.2526 128.298C74.1135 128.515 74.0407 128.768 74.0429 129.026C73.8579 130.088 73.8579 131.174 74.0429 132.236C74.7829 136.026 76.403 139.427 78.573 143.327V143.346Z" fill="#3558A2"/>
<path d="M239.343 156.626C239.283 156.696 239.243 156.807 239.173 156.827C232.943 158.027 229.573 162.577 226.623 167.577C225.713 169.137 224.993 170.817 224.233 172.457C223.658 173.806 222.638 174.917 221.343 175.606C218.253 177.216 215.463 179.317 212.343 180.927C202.505 185.972 192.299 190.268 181.813 193.776C179.933 194.416 178.033 195.006 176.123 195.596C175.751 195.667 175.372 195.7 174.993 195.697C174.687 193.496 175.127 191.257 176.243 189.337C178.063 186.317 179.937 183.317 181.863 180.337C182.249 179.857 182.773 179.508 183.363 179.337C190.883 176.737 198.423 174.186 205.943 171.596C206.807 171.319 207.631 170.929 208.393 170.437C208.998 170.024 209.459 169.434 209.714 168.748C209.968 168.062 210.003 167.313 209.813 166.606C209.634 165.843 209.178 165.173 208.534 164.726C207.889 164.279 207.102 164.087 206.323 164.187C204.796 164.345 203.293 164.681 201.843 165.187C197.113 166.737 192.413 168.376 187.713 169.976L185.513 170.697V168.136L200.083 161.457C201.243 160.927 202.433 160.457 203.523 159.837C205.523 158.707 206.173 156.836 205.343 155.006C204.898 154.157 204.144 153.51 203.236 153.199C202.328 152.889 201.336 152.938 200.463 153.337C196.963 154.797 193.463 156.407 190.033 157.957L185.183 160.126C183.853 157.766 184.053 155.177 183.183 152.577C199.463 147.397 214.683 139.966 230.463 133.896C232.393 136.096 238.523 151.786 239.343 156.626Z" fill="#979FBB"/>
<path d="M185.132 143.726C183.602 139.366 182.052 134.956 180.402 130.296L218.402 115.566C220.402 119.776 222.002 124.136 223.722 128.416C219.572 130.776 187.932 143.356 185.132 143.726Z" fill="white"/>
<path d="M241.243 163.727C242.603 166.311 243.106 169.261 242.678 172.15C242.25 175.039 240.914 177.717 238.863 179.797C237.238 181.376 235.444 182.771 233.513 183.957C229.513 186.437 225.513 188.847 221.313 191.077C212.839 195.525 204.111 199.472 195.173 202.897C191.658 204.37 187.885 205.128 184.073 205.127C183.005 205.17 181.939 204.993 180.941 204.608C179.944 204.223 179.036 203.637 178.273 202.887C180.953 201.937 183.403 201.097 185.833 200.187C191.183 198.187 196.583 196.337 201.833 194.137C206.083 192.367 210.183 190.207 214.323 188.187C216.523 187.107 218.693 185.987 220.853 184.837C225.753 182.217 229.853 178.837 231.913 173.407C233.012 170.511 234.745 167.897 236.983 165.757C238.102 164.574 239.621 163.85 241.243 163.727Z" fill="white"/>
<path d="M175.524 168.937C172.733 169.477 169.852 169.309 167.144 168.447C166.517 168.3 165.948 167.97 165.51 167.498C165.071 167.026 164.784 166.434 164.684 165.797C164.987 165.297 165.439 164.903 165.977 164.672C166.515 164.441 167.111 164.383 167.684 164.507C170.734 164.927 173.164 166.537 175.524 168.937Z" fill="white"/>
<path d="M139.423 147.937C138.893 152.417 130.423 175.217 128.033 179.007C127.623 179.024 127.213 178.987 126.813 178.897C123.063 177.597 119.293 178.137 115.533 178.757C113.033 179.167 110.533 179.667 108.063 180.107C105.28 180.532 102.435 180.274 99.7731 179.357C95.5331 178.027 91.323 176.627 87.113 175.247C81.0064 173.247 74.8998 171.247 68.7931 169.247C66.0431 168.327 63.313 167.337 60.583 166.367C59.923 166.137 59.283 165.837 58.373 165.457C59.5673 163.569 61.3486 162.125 63.4431 161.347C66.1731 160.407 68.9731 159.687 71.7631 158.907C74.0131 158.267 76.273 157.677 78.873 156.967C79.6599 157.678 80.4844 158.345 81.343 158.967C86.053 162.027 90.7631 165.087 95.5331 168.057C96.1938 168.557 97.0139 168.799 97.8402 168.739C98.6665 168.678 99.4425 168.318 100.023 167.727C100.358 167.382 100.614 166.968 100.775 166.515C100.935 166.061 100.996 165.579 100.953 165.099C100.911 164.62 100.765 164.156 100.527 163.738C100.289 163.32 99.9636 162.958 99.5731 162.677C98.7048 162.021 97.7963 161.42 96.853 160.877C93.493 158.737 90.1131 156.607 86.7731 154.437C85.9631 153.907 85.253 153.227 84.353 152.497L87.4431 148.817C88.1131 149.117 88.623 149.307 89.083 149.557C92.743 151.557 96.383 153.557 100.083 155.557C101.37 156.246 102.707 156.838 104.083 157.327C104.936 157.612 105.835 157.734 106.733 157.687C107.374 157.662 107.99 157.431 108.49 157.03C108.99 156.629 109.349 156.078 109.513 155.457C109.734 154.855 109.756 154.198 109.576 153.583C109.396 152.967 109.023 152.426 108.513 152.037C107.775 151.522 106.988 151.08 106.163 150.717C101.823 148.437 97.4831 146.177 93.1631 143.887C92.6676 143.555 92.1994 143.184 91.7631 142.777C93.4484 139.949 95.3756 137.273 97.5231 134.777C98.2131 135.257 98.723 135.587 99.213 135.957C102.121 138.122 105.355 139.809 108.793 140.957C116.784 143.613 124.983 145.6 133.303 146.897C135.233 147.197 137.253 147.567 139.423 147.937Z" fill="#979FBB"/>
<path d="M56.1134 172.467C56.6242 172.468 57.1336 172.522 57.6335 172.627C59.4535 173.207 61.2335 173.857 63.0435 174.457C67.6835 175.977 72.3434 177.457 76.9734 179.017C81.1834 180.427 85.3535 182.017 89.5635 183.377C92.7335 184.447 95.9335 185.457 99.1535 186.377C102.738 187.377 106.509 187.507 110.153 186.757C113.263 186.157 116.373 185.597 119.503 185.117C121.1 184.731 122.781 184.918 124.253 185.647C123.419 187.638 122.132 189.407 120.495 190.815C118.859 192.222 116.917 193.229 114.824 193.757C111.084 194.517 107.403 194.057 103.733 193.527C91.6634 191.807 80.1134 188.117 68.7334 183.937C64.5915 182.523 60.8569 180.12 57.8534 176.937C57.2245 176.387 56.7378 175.694 56.4348 174.915C56.1319 174.137 56.0216 173.297 56.1134 172.467V172.467Z" fill="white"/>
<path d="M104.193 130.647L108.853 120.277L138.853 133.407C138.107 135.687 137.38 137.897 136.673 140.037C130.823 140.897 108.343 134.417 104.193 130.647Z" fill="white"/>
<path d="M72.7529 148.027C71.749 148.001 70.7473 147.918 69.7529 147.777C67.7529 147.337 65.7529 146.837 63.7529 146.277C62.0929 145.751 60.6499 144.698 59.6429 143.277C59.1492 142.643 58.8072 141.904 58.6429 141.117C58.1429 138.317 60.0929 136.767 62.7629 137.787C63.2777 137.966 63.7555 138.237 64.173 138.588C67.4055 141.374 70.2866 144.544 72.7529 148.027V148.027Z" fill="white"/>
<path d="M78.5723 143.328C76.4023 139.428 74.7821 135.998 74.0821 132.208C73.8971 131.146 73.8971 130.06 74.0821 128.998C74.0799 128.74 74.1528 128.487 74.292 128.269C74.4311 128.052 74.6306 127.88 74.866 127.774C75.1013 127.668 75.3624 127.632 75.6174 127.672C75.8725 127.712 76.1104 127.825 76.3022 127.998C78.3022 129.398 79.9222 130.998 79.9122 133.718C79.8981 136.967 79.4474 140.199 78.5723 143.328V143.328Z" fill="white"/>
</svg>
