<svg width="300" height="300" viewBox="0 0 300 300" fill="none" xmlns="http://www.w3.org/2000/svg">
<path d="M106.602 222.432C108.102 218.122 109.392 214.362 110.702 210.612C117.952 189.732 125.242 168.872 132.422 147.972C132.643 147.118 133.098 146.342 133.735 145.733C134.373 145.123 135.168 144.704 136.032 144.522C154.252 139.422 172.455 134.269 190.642 129.062C191.522 128.846 192.39 128.582 193.242 128.272C194.265 127.895 195.198 127.308 195.98 126.549C196.762 125.789 197.376 124.874 197.782 123.862C198.718 121.603 199.769 119.393 200.932 117.242C202.522 114.242 204.822 111.942 208.362 111.432C215.882 110.332 223.408 109.292 230.942 108.312C232.122 108.195 233.313 108.333 234.435 108.718C235.556 109.103 236.582 109.725 237.442 110.542C238.529 111.489 239.239 112.795 239.442 114.222C240.05 118.09 239.935 122.037 239.102 125.862C236.852 138.432 234.422 150.962 232.042 163.512C230.862 169.732 229.542 175.932 228.442 182.172C228.352 183.222 227.921 184.215 227.215 184.998C226.509 185.782 225.567 186.313 224.532 186.512C201.032 193.592 177.532 200.842 154.122 208.042C139.322 212.582 124.515 217.112 109.702 221.632C108.912 221.892 108.052 222.062 106.602 222.432ZM228.962 114.182C228.692 114.162 228.421 114.162 228.152 114.182C224.662 114.712 221.152 115.242 217.692 115.802C215.268 116.107 212.862 116.534 210.482 117.082C210.007 117.161 209.555 117.336 209.151 117.598C208.748 117.859 208.403 118.201 208.137 118.601C207.872 119.002 207.692 119.453 207.608 119.926C207.525 120.399 207.539 120.885 207.652 121.352C208.032 123.132 209.542 124.232 211.752 124.122C213.094 124.015 214.429 123.835 215.752 123.582C220.312 122.862 224.872 122.172 229.412 121.372C231.862 120.942 233.132 119.372 232.952 117.372C232.772 115.372 231.332 114.182 228.962 114.182Z" fill="white"/>
<path d="M147.65 133.623L136.209 136.854C135.849 135.994 135.509 135.273 135.209 134.523C132.336 126.323 129.47 118.113 126.61 109.893C126.368 109.115 126.06 108.359 125.69 107.633C125.3 106.851 124.637 106.238 123.826 105.912C123.015 105.586 122.112 105.569 121.29 105.864C120.489 106.204 119.829 106.809 119.42 107.577C119.011 108.344 118.876 109.229 119.04 110.083C119.253 110.963 119.53 111.825 119.87 112.663C122.65 120.663 125.42 128.773 128.24 136.803C128.72 138.173 129 139.224 127.74 140.484C126.916 141.56 126.327 142.796 126.01 144.114C122.33 154.634 118.66 165.113 115.08 175.703C114.46 177.523 113.599 178.563 111.599 178.923C108.699 179.453 105.85 180.344 102.89 181.104C93.1395 156.244 83.2995 131.723 77.2695 105.623L200.62 75.8535L212.37 103.043C210.7 103.403 209.37 103.793 207.95 104.043C201.38 105.043 196.89 108.693 194.04 114.573C193.26 116.203 192.29 117.763 191.65 119.453C191.444 120.197 190.996 120.85 190.376 121.308C189.756 121.767 189 122.005 188.23 121.984C187.85 121.124 187.41 120.163 187.02 119.183C184.02 111.523 180.95 103.853 177.88 96.1835C177.51 95.1659 177.009 94.2011 176.39 93.3135C175.917 92.725 175.266 92.3061 174.534 92.1201C173.803 91.9341 173.03 91.9909 172.334 92.2821C171.637 92.5733 171.055 93.0831 170.673 93.7345C170.292 94.3859 170.133 95.1436 170.22 95.8934C170.393 96.874 170.682 97.8308 171.08 98.7435C174.36 107.084 177.66 115.423 181.08 124.073L173.08 126.474C172.65 125.564 172.19 124.713 171.84 123.823C168.669 115.623 165.53 107.414 162.35 99.2235C162.056 98.3665 161.649 97.5525 161.14 96.8035C160.705 96.2128 160.095 95.7741 159.397 95.5497C158.698 95.3253 157.947 95.3266 157.25 95.5535C156.55 95.7763 155.945 96.2253 155.528 96.83C155.112 97.4346 154.908 98.1605 154.95 98.8934C155.036 100.155 155.316 101.397 155.78 102.573C158.78 110.573 161.9 118.463 164.97 126.413L165.73 128.484L154.95 131.583C154.5 130.583 154.12 129.743 153.8 128.923C150.7 120.923 147.62 112.863 144.5 104.833C144.138 103.814 143.651 102.843 143.05 101.943C142.609 101.358 141.994 100.927 141.293 100.713C140.593 100.499 139.842 100.513 139.15 100.753C138.445 100.967 137.836 101.416 137.424 102.027C137.012 102.637 136.823 103.37 136.89 104.104C136.989 105.271 137.262 106.417 137.7 107.503C140.7 115.503 143.8 123.414 146.85 131.364C147.11 131.984 147.31 132.653 147.65 133.623ZM117.65 155.984C117.55 155.341 117.406 154.706 117.219 154.083C115.079 148.223 112.923 142.373 110.75 136.533C110.497 135.857 110.132 135.228 109.67 134.673C109.207 134.106 108.574 133.702 107.865 133.522C107.155 133.342 106.407 133.395 105.729 133.673C105.08 133.899 104.522 134.331 104.141 134.904C103.76 135.476 103.577 136.157 103.62 136.844C103.62 137.655 103.748 138.462 104 139.234C106.066 145.014 108.176 150.78 110.33 156.533C110.585 157.21 110.943 157.844 111.39 158.413C111.832 158.999 112.451 159.426 113.156 159.631C113.86 159.837 114.612 159.809 115.3 159.553C116.011 159.276 116.618 158.782 117.034 158.142C117.45 157.501 117.655 156.747 117.62 155.984H117.65ZM183.72 92.5535C183.711 92.9527 183.765 93.3509 183.88 93.7335C185.19 96.9835 186.42 100.283 187.93 103.453C188.121 103.868 188.394 104.24 188.731 104.547C189.069 104.855 189.464 105.092 189.895 105.245C190.325 105.398 190.782 105.463 191.237 105.437C191.693 105.411 192.139 105.294 192.55 105.094C193.378 104.707 194.028 104.019 194.368 103.17C194.708 102.321 194.712 101.375 194.38 100.523C193.56 98.1434 192.55 95.8234 191.57 93.5234C191.171 92.4267 190.64 91.3825 189.99 90.4135C189.584 89.8033 188.983 89.3492 188.285 89.1257C187.587 88.9022 186.834 88.9226 186.15 89.1835C185.428 89.3995 184.797 89.8459 184.352 90.4545C183.908 91.063 183.675 91.8002 183.69 92.5535H183.72Z" fill="white"/>
<path d="M61.3906 148.402L80.6406 143.752C81.0506 144.752 81.4906 145.752 81.8606 146.692C86.5739 159.039 91.2806 171.392 95.9806 183.752C96.1806 184.262 96.3607 184.752 96.5707 185.272C98.0107 188.772 99.4906 189.552 103.121 188.672C105.651 188.072 108.121 187.422 111.241 186.672C107.451 197.592 103.821 208.032 100.241 218.482L99.6606 218.622C86.8706 195.312 74.2106 171.972 61.3906 148.402Z" fill="#979FBB"/>
<path d="M228.959 114.181C231.329 114.181 232.799 115.341 232.959 117.321C233.119 119.301 231.869 120.941 229.419 121.321C224.879 122.121 220.319 122.811 215.759 123.531C214.437 123.784 213.101 123.964 211.759 124.071C209.549 124.181 208.039 123.071 207.659 121.301C207.547 120.834 207.532 120.348 207.616 119.875C207.699 119.402 207.88 118.951 208.145 118.55C208.411 118.15 208.756 117.808 209.159 117.547C209.562 117.285 210.015 117.11 210.489 117.031C212.869 116.483 215.276 116.056 217.699 115.751C221.179 115.191 224.699 114.661 228.159 114.131C228.427 114.128 228.694 114.145 228.959 114.181V114.181Z" fill="#3558A2"/>
<path d="M117.62 155.982C117.651 156.747 117.441 157.502 117.019 158.141C116.597 158.78 115.986 159.27 115.27 159.542C114.582 159.798 113.831 159.826 113.126 159.62C112.422 159.415 111.802 158.988 111.36 158.402C110.913 157.833 110.556 157.199 110.3 156.522C108.16 150.776 106.05 145.009 103.97 139.222C103.718 138.451 103.59 137.644 103.59 136.832C103.548 136.146 103.731 135.465 104.112 134.892C104.493 134.32 105.051 133.888 105.7 133.662C106.377 133.384 107.126 133.331 107.835 133.511C108.545 133.691 109.178 134.095 109.64 134.662C110.102 135.217 110.467 135.846 110.72 136.522C112.9 142.362 115.057 148.212 117.19 154.072C117.377 154.698 117.521 155.337 117.62 155.982V155.982Z" fill="#3558A2"/>
<path d="M183.689 92.5512C183.666 91.7966 183.892 91.0556 184.331 90.4414C184.77 89.8273 185.398 89.374 186.119 89.1512C186.804 88.8902 187.557 88.8699 188.254 89.0934C188.952 89.3169 189.553 89.771 189.959 90.3811C190.609 91.3501 191.14 92.3945 191.539 93.4912C192.539 95.8212 193.539 98.1412 194.349 100.491C194.681 101.343 194.677 102.289 194.337 103.138C193.997 103.986 193.347 104.674 192.519 105.061C192.109 105.262 191.663 105.378 191.207 105.404C190.751 105.43 190.295 105.365 189.864 105.212C189.434 105.06 189.038 104.823 188.701 104.515C188.363 104.207 188.091 103.835 187.899 103.421C186.389 100.251 185.159 96.9512 183.849 93.7012C183.738 93.3281 183.684 92.9404 183.689 92.5512V92.5512Z" fill="#3558A2"/>
<path d="M104.92 230.833L245.24 133.893L234.42 189.093L104.92 230.833Z" fill="#EAECF1"/>
<path d="M78.2902 136.402C77.0602 132.112 75.8501 127.852 74.6101 123.602C72.9601 117.952 71.2901 112.312 69.6101 106.662C69.3801 105.872 69.1501 105.092 69.0001 104.292C68.7743 103.444 68.8649 102.543 69.255 101.757C69.6452 100.972 70.3082 100.355 71.1201 100.022C72.2558 99.4576 73.4495 99.0184 74.6802 98.7121C107.18 90.8521 139.68 83.0088 172.18 75.1821C181.6 72.9154 191.02 70.6355 200.44 68.3421C203.89 67.5021 205.25 68.1021 206.66 71.3421C210.66 80.5621 214.66 89.7921 218.66 99.0321C219.05 99.9421 219.47 100.832 219.95 101.882C222.67 101.602 225.37 101.432 228.04 101.042C230.782 100.581 233.594 100.776 236.246 101.61C238.898 102.445 241.316 103.895 243.3 105.842C245.96 108.302 246.69 111.522 246.95 114.942C247.46 121.352 246.41 127.622 245.24 133.862C242.38 149.002 239.487 164.132 236.56 179.252C235.92 182.542 235.13 185.802 234.41 189.072C234.273 189.878 233.9 190.626 233.34 191.222C232.78 191.818 232.056 192.235 231.26 192.422C220.73 195.422 210.26 198.522 199.73 201.722C168.11 211.362 136.504 221.055 104.91 230.802C101.19 231.952 98.8102 231.882 95.7602 226.802C92.2202 220.902 89.1002 214.732 85.7602 208.682C75.0935 189.082 64.4268 169.482 53.7602 149.882C53.2098 148.943 52.7318 147.964 52.3302 146.952C51.3302 144.292 52.6702 142.412 55.4202 141.832C62.7702 140.282 70.0802 138.582 77.4202 136.932C77.73 136.79 78.022 136.612 78.2902 136.402ZM106.6 222.402C108.05 222.032 108.91 221.862 109.75 221.602C124.557 217.082 139.364 212.552 154.17 208.012C177.63 200.812 201.08 193.562 224.58 186.482C225.615 186.291 226.56 185.768 227.271 184.992C227.981 184.216 228.42 183.23 228.52 182.182C229.62 175.942 230.94 169.742 232.12 163.522C234.5 150.972 236.93 138.442 239.18 125.872C240.02 122.03 240.135 118.066 239.52 114.182C239.317 112.755 238.607 111.449 237.52 110.502C236.661 109.685 235.635 109.063 234.513 108.678C233.392 108.293 232.2 108.155 231.02 108.272C223.487 109.252 215.96 110.292 208.44 111.392C204.9 111.902 202.6 114.182 201.01 117.202C199.848 119.353 198.796 121.563 197.86 123.822C197.454 124.834 196.84 125.749 196.058 126.509C195.276 127.269 194.343 127.856 193.32 128.232C192.468 128.542 191.6 128.806 190.72 129.022C172.52 134.189 154.317 139.342 136.11 144.482C135.247 144.664 134.452 145.084 133.814 145.693C133.176 146.303 132.721 147.078 132.5 147.932C125.32 168.832 118.03 189.692 110.78 210.572C109.39 214.362 108.1 218.122 106.6 222.432V222.402ZM147.65 133.592C147.31 132.592 147.11 131.952 146.85 131.292C143.85 123.292 140.72 115.402 137.7 107.432C137.263 106.345 136.99 105.199 136.89 104.032C136.824 103.299 137.013 102.565 137.424 101.955C137.836 101.345 138.446 100.895 139.15 100.682C139.842 100.442 140.593 100.428 141.294 100.642C141.995 100.855 142.61 101.286 143.05 101.872C143.652 102.771 144.139 103.742 144.5 104.762C147.62 112.762 150.7 120.822 153.8 128.852C154.12 129.672 154.5 130.462 154.95 131.512L165.73 128.412L164.97 126.342C161.9 118.342 158.8 110.462 155.78 102.502C155.317 101.325 155.037 100.084 154.95 98.8221C154.909 98.0891 155.112 97.3633 155.529 96.7586C155.945 96.154 156.551 95.705 157.25 95.4821C157.948 95.2553 158.699 95.254 159.397 95.4784C160.096 95.7027 160.705 96.1414 161.14 96.7321C161.65 97.4812 162.057 98.295 162.35 99.1521C165.53 107.342 168.67 115.552 171.84 123.752C172.19 124.642 172.65 125.492 173.08 126.402L181.08 124.002C177.67 115.352 174.37 107.002 171.08 98.6721C170.682 97.7593 170.393 96.8027 170.22 95.8221C170.133 95.0723 170.292 94.3145 170.674 93.663C171.055 93.0116 171.638 92.502 172.334 92.2108C173.031 91.9196 173.803 91.8626 174.535 92.0487C175.266 92.2347 175.917 92.6536 176.39 93.2421C177.01 94.1297 177.511 95.0946 177.88 96.1121C180.95 103.772 183.97 111.442 187.02 119.112C187.41 120.112 187.85 121.052 188.23 121.912C189.001 121.933 189.757 121.695 190.376 121.237C190.996 120.778 191.445 120.125 191.65 119.382C192.29 117.692 193.26 116.132 194.04 114.502C196.89 108.622 201.38 104.942 207.95 103.972C209.34 103.772 210.7 103.382 212.37 102.972L200.62 75.7821L77.2702 105.552C83.2702 131.652 93.1402 156.172 102.89 181.032C105.89 180.272 108.7 179.382 111.6 178.852C113.6 178.492 114.46 177.452 115.08 175.632C118.66 165.082 122.33 154.562 126.01 144.042C126.327 142.725 126.916 141.488 127.74 140.412C129 139.152 128.74 138.102 128.24 136.732C125.42 128.732 122.65 120.642 119.87 112.592C119.531 111.754 119.253 110.891 119.04 110.012C118.877 109.157 119.011 108.273 119.421 107.505C119.83 106.737 120.49 106.133 121.29 105.792C122.113 105.497 123.016 105.515 123.827 105.841C124.638 106.167 125.301 106.78 125.69 107.562C126.061 108.288 126.369 109.044 126.61 109.822C129.477 118.035 132.343 126.245 135.21 134.452C135.47 135.202 135.81 135.922 136.21 136.782L147.65 133.592ZM61.3902 148.372C74.2102 171.942 86.8701 195.282 99.6201 218.562L100.2 218.422C103.82 207.972 107.45 197.532 111.2 186.612C108.12 187.392 105.61 188.042 103.08 188.612C99.4502 189.492 97.9702 188.712 96.5302 185.212C96.3202 184.712 96.1402 184.212 95.9402 183.692C91.2402 171.345 86.5335 158.992 81.8202 146.632C81.4502 145.632 81.0101 144.632 80.6001 143.692L61.3902 148.372Z" fill="#3558A2"/>
</svg>
