<svg width="300" height="300" viewBox="0 0 300 300" fill="none" xmlns="http://www.w3.org/2000/svg">
<path d="M130.581 213.742C129.991 210.742 129.421 208.032 128.901 205.292C127.775 199.698 127.249 193.999 127.331 188.292C127.411 184.212 127.591 180.132 127.801 176.062C128.413 166.462 127.639 156.822 125.501 147.442C124.501 143.382 123.641 139.312 124.061 135.092C124.227 131.994 125.38 129.029 127.351 126.632C128.653 125.099 130.401 124.008 132.351 123.512C133.721 123.132 135.174 123.166 136.525 123.611C137.876 124.056 139.065 124.892 139.941 126.012C141.812 128.022 142.951 130.605 143.171 133.342C143.361 137.232 143.541 141.122 143.641 145.012C143.639 149.454 144.293 153.872 145.581 158.122C146.741 161.632 147.661 165.222 148.701 168.772C149.508 171.469 149.872 174.279 149.781 177.092C149.661 180.622 149.451 184.152 149.231 187.682C148.831 194.252 149.231 200.682 151.631 206.942C152.111 208.192 152.441 209.512 152.871 210.942C153.301 211.042 153.74 211.099 154.181 211.112C158.501 210.782 162.861 210.632 167.181 209.992C170.868 209.572 174.582 209.434 178.291 209.582C179.351 209.582 180.501 209.742 181.451 208.582C179.666 204.703 176.437 201.674 172.451 200.142C172.179 200.176 171.913 200.247 171.661 200.352C167.311 203.072 162.951 201.952 158.661 200.292C157.988 200 157.436 199.484 157.099 198.832C156.762 198.179 156.66 197.431 156.811 196.712C156.971 196.052 157.33 195.457 157.84 195.008C158.35 194.559 158.986 194.278 159.661 194.202C160.101 194.132 160.541 194.132 161.361 194.072C159.821 192.742 158.521 191.642 157.251 190.502C156.751 190.106 156.35 189.599 156.079 189.021C155.808 188.443 155.675 187.81 155.691 187.172C155.69 186.651 155.819 186.137 156.066 185.678C156.312 185.218 156.669 184.827 157.105 184.54C157.54 184.252 158.04 184.077 158.559 184.031C159.078 183.984 159.601 184.067 160.081 184.272C161.003 184.653 161.86 185.176 162.621 185.822C166.173 188.958 170.23 191.47 174.621 193.252C176.031 193.832 177.351 194.612 179.031 195.462C178.515 193.191 177.757 190.982 176.771 188.872C174.901 185.042 172.931 181.262 171.081 177.432C170.856 176.945 170.517 176.52 170.092 176.192C169.667 175.865 169.169 175.645 168.641 175.552C163.321 174.142 159.641 170.642 157.111 165.892C156.613 164.943 156.233 163.935 155.981 162.892C155.787 162.097 155.882 161.258 156.248 160.526C156.614 159.794 157.228 159.215 157.981 158.892C158.735 158.565 159.587 158.546 160.355 158.842C161.122 159.138 161.742 159.723 162.081 160.472C162.281 160.972 162.561 161.472 162.791 161.932C163.654 163.764 164.919 165.377 166.491 166.652C166.505 166.101 166.475 165.549 166.401 165.002C165.296 160.609 164.626 156.117 164.401 151.592C164.281 149.062 164.031 146.532 163.931 144.002C163.908 143.191 164.054 142.384 164.361 141.632C164.62 141.027 165.061 140.516 165.622 140.171C166.183 139.826 166.837 139.663 167.495 139.704C168.153 139.746 168.781 139.99 169.294 140.404C169.807 140.817 170.18 141.379 170.361 142.012C170.731 143.682 170.901 145.392 171.191 147.342C172.375 145.407 173.354 143.352 174.111 141.212C174.318 140.526 174.579 139.858 174.891 139.212C175.22 138.552 175.777 138.033 176.459 137.751C177.141 137.47 177.902 137.446 178.601 137.682C179.233 137.809 179.801 138.154 180.205 138.656C180.609 139.159 180.823 139.788 180.811 140.432C180.909 141.513 180.787 142.601 180.451 143.632C178.531 148.532 176.551 153.422 172.841 157.312C172.53 157.633 172.314 158.034 172.217 158.47C172.12 158.906 172.146 159.36 172.291 159.782C173.225 164.59 174.747 169.265 176.821 173.702C178.011 176.252 179.261 178.772 180.501 181.292C180.742 181.704 181.005 182.101 181.291 182.482C182.851 177.362 184.291 172.482 185.981 167.072C183.841 163.912 183.821 159.732 184.131 155.552C184.336 153.487 184.731 151.445 185.311 149.452C185.607 148.598 186.093 147.823 186.731 147.182C187.167 146.709 187.743 146.389 188.375 146.268C189.007 146.147 189.661 146.233 190.241 146.512C190.87 146.704 191.413 147.107 191.778 147.654C192.143 148.202 192.306 148.858 192.241 149.512C192.09 150.946 191.832 152.367 191.471 153.762C190.981 155.642 191.201 157.502 191.091 159.832C193.766 157.267 195.842 154.143 197.171 150.682C198.281 147.912 199.341 145.122 200.521 142.382C200.893 141.561 201.4 140.807 202.021 140.152C202.491 139.648 203.115 139.314 203.795 139.202C204.475 139.09 205.174 139.206 205.781 139.532C206.38 139.77 206.881 140.204 207.201 140.764C207.521 141.324 207.641 141.976 207.541 142.612C207.481 143.402 207.291 144.172 207.101 145.282L211.341 141.602C211.751 141.252 212.131 140.842 212.571 140.532C213.156 140.109 213.862 139.888 214.584 139.902C215.306 139.917 216.003 140.166 216.571 140.612C217.16 141.051 217.567 141.69 217.716 142.409C217.866 143.127 217.746 143.876 217.381 144.512C216.66 145.765 215.756 146.904 214.701 147.892C211.491 150.842 208.181 153.672 203.701 154.692C203.455 154.791 203.231 154.937 203.043 155.122C202.854 155.308 202.704 155.529 202.601 155.772C201.07 158.865 199.111 161.727 196.781 164.272C193.223 168.414 190.703 173.343 189.431 178.652C188.781 181.372 188.111 184.102 187.521 186.832C187.358 187.863 187.251 188.901 187.201 189.942C190.581 186.942 193.581 184.042 196.871 181.502C200.161 178.962 203.731 176.802 207.381 174.342C207.194 173.552 207.057 172.75 206.971 171.942C206.671 167.092 208.181 162.652 210.231 158.382C210.642 157.611 211.336 157.028 212.167 156.756C212.999 156.484 213.903 156.544 214.691 156.922C215.409 157.316 215.973 157.942 216.287 158.698C216.602 159.455 216.649 160.296 216.421 161.082C216.121 162.212 215.661 163.302 215.321 164.432C214.829 165.969 214.455 167.54 214.201 169.132C215.414 168.397 216.441 167.391 217.201 166.192C219.031 163.702 220.811 161.192 222.571 158.662C222.845 158.192 223.214 157.783 223.655 157.463C224.096 157.142 224.598 156.918 225.131 156.802C225.684 156.667 226.263 156.684 226.808 156.851C227.352 157.018 227.841 157.329 228.223 157.751C228.605 158.174 228.866 158.691 228.978 159.249C229.091 159.807 229.05 160.385 228.861 160.922C228.698 161.532 228.435 162.11 228.081 162.632C226.081 165.542 224.151 168.522 221.971 171.302C219.057 174.92 215.458 177.927 211.381 180.152C208.321 181.882 205.311 183.712 201.931 185.702C206.101 186.632 209.781 187.552 213.511 188.272C215.679 188.519 217.874 188.301 219.951 187.632C220.732 187.414 221.532 187.274 222.341 187.212C223.07 187.107 223.812 187.268 224.432 187.664C225.053 188.061 225.51 188.667 225.721 189.372C225.97 190.012 226.007 190.715 225.827 191.377C225.647 192.039 225.259 192.627 224.721 193.052C224.331 193.422 223.862 193.698 223.351 193.862C219.711 195.072 216.021 195.862 212.171 195.092C208.901 194.432 205.621 193.792 202.361 193.092C199.963 192.596 197.485 192.63 195.101 193.192C194.308 193.334 193.554 193.64 192.886 194.089C192.218 194.538 191.651 195.122 191.221 195.802C193.459 196.127 195.733 196.127 197.971 195.802C198.68 195.658 199.398 195.568 200.121 195.532C201.087 195.48 202.036 195.807 202.765 196.444C203.493 197.081 203.944 197.978 204.021 198.942C203.998 199.812 203.663 200.644 203.078 201.286C202.492 201.929 201.694 202.339 200.831 202.442C199.05 202.767 197.249 202.967 195.441 203.042C193.011 203.142 190.571 203.042 187.871 203.042C187.891 203.842 187.954 204.64 188.061 205.432C188.222 206.176 188.422 206.91 188.661 207.632L201.351 206.302L215.101 204.812C216.901 204.612 218.691 204.392 220.491 204.242C223.381 203.992 226.271 203.822 229.161 203.562C232.401 203.272 235.631 202.902 238.871 202.562C239.868 202.462 240.871 202.442 241.871 202.502C242.463 202.536 243.035 202.731 243.525 203.066C244.015 203.401 244.404 203.863 244.651 204.402C245.651 206.402 245.921 208.402 244.521 210.292C241.66 214.388 238.166 218.003 234.171 221.002C227.971 225.522 221.111 228.742 214.171 231.922C209.409 234.146 204.831 236.744 200.481 239.692C195.52 243.043 190.059 245.584 184.301 247.222C182.283 247.697 180.235 248.031 178.171 248.222C177.171 248.352 176.171 248.222 175.171 248.322C167.281 248.733 159.383 247.672 151.881 245.192C146.449 243.461 140.841 242.337 135.161 241.842C132.359 241.72 129.552 241.878 126.781 242.312C123.371 242.702 119.991 243.312 116.601 243.832C113.041 244.412 109.481 245.042 105.921 245.652C97.0674 247.206 87.9751 246.696 79.3509 244.162C71.9633 241.923 65.1197 238.177 59.2509 233.162C58.1895 232.307 57.2417 231.319 56.4308 230.222C55.9504 229.64 55.6218 228.947 55.4744 228.207C55.3271 227.466 55.3656 226.7 55.5865 225.978C55.8074 225.256 56.2038 224.6 56.7403 224.068C57.2768 223.537 57.9366 223.147 58.6608 222.932C59.777 222.553 60.93 222.291 62.1009 222.152C68.9009 221.222 75.7208 220.332 82.5308 219.442C84.9308 219.132 87.3308 218.882 89.6908 218.602C87.1908 210.382 84.7509 202.362 82.2509 194.162C81.5609 194.382 81.0709 194.502 80.5909 194.692C77.4242 195.823 74.0478 196.243 70.7009 195.922C68.1609 195.762 66.0108 194.532 63.9408 193.252C58.2008 189.702 55.0709 184.582 55.0009 177.772C54.9209 169.972 60.1909 164.562 66.5009 162.772C69.3477 161.832 72.3495 161.452 75.3409 161.652C75.7659 161.655 76.1905 161.625 76.6109 161.562C76.6109 159.072 76.7108 156.652 76.6908 154.222C76.7125 151.775 77.1557 149.35 78.0009 147.052C78.3888 145.941 78.938 144.894 79.6309 143.942C80.1775 143.219 80.8652 142.613 81.6525 142.162C82.4398 141.712 83.3103 141.425 84.2114 141.321C85.1124 141.216 86.0253 141.295 86.8949 141.553C87.7646 141.811 88.5728 142.243 89.2708 142.822C90.7554 144.027 91.9588 145.542 92.7966 147.261C93.6343 148.98 94.0863 150.861 94.1209 152.772C94.2509 156.122 94.1209 159.482 94.1209 163.122L99.3909 165.122C100.821 163.482 102.091 161.972 103.391 160.502C103.99 159.82 104.661 159.203 105.391 158.662C105.918 158.224 106.541 157.915 107.209 157.759C107.877 157.604 108.572 157.606 109.239 157.766C109.906 157.926 110.527 158.24 111.051 158.682C111.576 159.124 111.99 159.682 112.261 160.312C113.122 162.105 113.773 163.991 114.201 165.932C115.361 171.212 116.401 176.532 117.391 181.852C117.614 183.291 117.698 184.748 117.641 186.202C117.641 189.282 115.011 190.922 112.141 189.712C111.488 189.361 110.88 188.932 110.331 188.432C109.391 187.732 108.491 186.962 107.551 186.252C106.241 185.252 104.901 184.352 103.401 183.252L98.2609 187.752C102.292 197.476 107.08 206.868 112.581 215.842C118.611 215.122 124.631 214.732 130.581 213.742ZM235.381 209.912L225.181 210.742C223.551 210.882 221.931 211.002 220.311 211.182C216.011 211.662 211.701 212.182 207.391 212.662C202.891 213.112 198.391 213.462 193.881 213.882C192.001 214.052 190.111 214.312 188.231 214.522C183.921 215.012 179.621 215.522 175.301 215.972C172.701 216.252 170.071 216.382 167.461 216.652C162.971 217.112 158.461 217.652 154.001 218.132C148.791 218.712 143.581 219.282 138.381 219.882C132.281 220.582 126.181 221.322 120.081 222.022C118.011 222.262 115.941 222.412 113.871 222.642C109.651 223.132 105.441 223.642 101.221 224.132C96.0109 224.732 90.7909 225.272 85.5909 225.892C79.8409 226.582 74.1109 227.312 68.3709 228.042C67.3709 228.172 66.3709 228.412 65.0009 228.662C69.016 232.123 73.6704 234.763 78.7009 236.432C87.3574 239.51 96.679 240.217 105.701 238.482C109.331 237.782 112.991 237.242 116.701 236.652C119.991 236.132 123.291 235.542 126.601 235.182C129.557 234.749 132.546 234.588 135.531 234.702C141.392 235.186 147.187 236.282 152.821 237.972C158.821 239.762 164.821 241.442 171.181 241.212C173.181 241.139 175.181 241.116 177.181 241.142C179.717 241.138 182.23 240.66 184.591 239.732C189.176 238.063 193.541 235.843 197.591 233.122C201.946 230.177 206.542 227.604 211.331 225.432C217.901 222.432 224.521 219.432 230.331 214.942C232.021 213.552 234.021 212.432 235.381 209.912ZM145.471 211.992C145.365 211.086 145.184 210.19 144.931 209.312C142.671 203.09 141.701 196.472 142.081 189.862C142.271 185.522 142.551 181.182 142.651 176.862C142.688 175.24 142.513 173.62 142.131 172.042C141.201 168.282 140.201 164.522 139.021 160.832C137.514 156.378 136.711 151.715 136.641 147.012C136.641 144.562 136.641 142.112 136.521 139.672C136.441 137.672 136.291 135.672 136.071 133.722C136.034 133.036 135.817 132.371 135.441 131.795C135.065 131.219 134.544 130.753 133.931 130.442C131.871 131.522 131.331 133.392 131.141 135.442C130.933 138.335 131.21 141.242 131.961 144.042C134.202 152.725 135.211 161.679 134.961 170.642C134.811 173.982 134.661 177.322 134.491 180.642C134.053 189.24 134.599 197.859 136.121 206.332C136.511 208.492 136.631 210.792 137.951 212.912L145.471 211.992ZM84.8809 148.192C84.3913 149.686 84.0299 151.218 83.8008 152.772C83.3326 160.1 83.7287 167.457 84.9809 174.692C86.6009 183.402 88.9809 191.942 91.3409 200.482C92.9009 206.092 95.2209 211.532 95.3409 217.482C98.4321 217.628 101.524 217.218 104.471 216.272C104.351 215.95 104.211 215.636 104.051 215.332C100.221 209.382 97.2909 202.932 94.2409 196.582C89.4018 186.919 86.9142 176.249 86.9809 165.442C87.0509 161.542 87.0409 157.642 86.9809 153.752C87.0107 151.7 86.2601 149.713 84.8809 148.192V148.192ZM76.9408 168.712C73.6152 168.159 70.2005 168.583 67.1109 169.932C65.9293 170.395 64.8774 171.137 64.045 172.095C63.2126 173.053 62.6245 174.198 62.3309 175.432C61.1009 180.432 63.3309 184.352 67.3309 186.992C68.5008 187.84 69.8424 188.42 71.2609 188.692C74.4246 189.248 77.6805 188.553 80.3409 186.752C79.6809 183.832 78.9508 180.962 78.4008 178.052C77.8508 175.142 77.4508 172.042 76.9408 168.712ZM106.941 167.112L104.741 169.872C102.741 172.482 101.401 172.872 98.1608 171.932C96.9208 171.562 95.6608 171.232 94.1608 170.812C94.4608 172.672 94.6809 174.182 94.9709 175.672C95.2609 177.162 95.5809 178.592 95.9709 180.402C96.9709 179.532 97.6608 178.972 98.2808 178.342C101.761 174.842 104.221 174.682 107.961 177.762C108.326 178.034 108.707 178.285 109.101 178.512C109.451 176.432 108.191 169.812 106.901 167.112H106.941Z" fill="#3558A2"/>
<path d="M201.061 103.823L206.361 99.0433C208.451 97.1533 210.511 95.2333 212.601 93.3633C213.128 92.862 213.72 92.4347 214.361 92.0933C214.869 91.7833 215.451 91.6138 216.046 91.6022C216.641 91.5906 217.228 91.7372 217.748 92.0271C218.268 92.317 218.701 92.7398 219.004 93.2521C219.307 93.7645 219.468 94.3481 219.471 94.9433C219.671 97.1033 219.831 99.2733 219.851 101.453C219.931 108.803 219.941 116.163 219.971 123.513C220.011 124.514 219.991 125.515 219.911 126.513C219.611 129.333 217.551 130.683 214.911 129.743C213.903 129.329 212.939 128.817 212.031 128.213C208.461 126.083 204.901 123.913 201.661 121.953C196.191 122.833 191.021 123.623 185.871 124.503C180.209 125.341 174.464 125.465 168.771 124.873C161.231 124.243 153.681 123.313 146.481 120.623C142.341 119.073 138.481 117.093 135.481 113.803C132.951 111.033 131.731 107.863 132.841 104.083C133.403 102.345 134.418 100.789 135.781 99.5733C138.968 96.5839 142.886 94.4868 147.141 93.4933C151.994 92.3121 157.011 91.9571 161.981 92.4433C166.373 92.9088 170.72 93.7248 174.981 94.8833C183.666 97.0786 192.134 100.057 200.281 103.783C200.538 103.832 200.801 103.846 201.061 103.823ZM212.391 103.153C211.661 103.793 210.981 104.353 210.331 104.943C208.921 106.223 207.491 107.483 206.121 108.803C203.321 111.523 200.061 111.583 196.821 110.053C188.618 106.254 180.056 103.286 171.261 101.193C164.541 99.5133 157.751 98.6133 150.851 99.9333C147.271 100.613 143.851 101.633 141.111 104.323C138.981 106.443 138.901 107.773 141.301 109.663C142.999 111.016 144.852 112.16 146.821 113.073C154.001 116.363 161.761 117.223 169.491 117.883C179.242 118.57 189.039 117.652 198.491 115.163C199.088 114.964 199.712 114.859 200.341 114.853C202.872 114.972 205.322 115.785 207.421 117.203C209.021 118.333 210.771 119.203 212.541 120.293C213.041 117.603 212.901 105.353 212.391 103.153V103.153Z" fill="#3558A2"/>
<path d="M151.451 79.7329C153.521 79.7329 154.701 81.0229 154.701 83.2329C154.701 85.4429 153.371 86.9529 151.271 86.9229C149.171 86.8929 148.161 85.4829 147.971 83.3729C147.942 82.9009 148.011 82.428 148.174 81.9838C148.336 81.5397 148.589 81.134 148.916 80.7922C149.242 80.4503 149.636 80.1798 150.073 79.9975C150.509 79.8152 150.978 79.7251 151.451 79.7329V79.7329Z" fill="#3558A2"/>
<path d="M70.9121 138.122C70.4594 138.143 70.0072 138.071 69.5832 137.911C69.1591 137.751 68.7721 137.506 68.4456 137.192C68.1191 136.877 67.8601 136.5 67.6841 136.082C67.5082 135.664 67.419 135.215 67.4221 134.762C67.3765 134.288 67.4295 133.81 67.578 133.358C67.7265 132.906 67.9673 132.49 68.2849 132.136C68.6026 131.781 68.9903 131.497 69.4236 131.3C69.8569 131.103 70.3263 130.998 70.8021 130.992C71.7171 131.024 72.5848 131.407 73.2257 132.061C73.8667 132.714 74.232 133.589 74.2461 134.505C74.2602 135.42 73.9221 136.306 73.3017 136.979C72.6812 137.653 71.8257 138.062 70.9121 138.122V138.122Z" fill="#3558A2"/>
<path d="M147.212 52.0025C147.664 51.9851 148.116 52.0582 148.539 52.2176C148.963 52.3769 149.351 52.6192 149.679 52.9303C150.008 53.2414 150.272 53.615 150.454 54.0292C150.637 54.4434 150.735 54.8899 150.742 55.3425C150.753 55.8021 150.673 56.2593 150.506 56.688C150.34 57.1167 150.091 57.5084 149.774 57.8408C149.456 58.1732 149.076 58.4399 148.655 58.6255C148.235 58.8111 147.782 58.912 147.322 58.9225C146.863 58.933 146.405 58.8529 145.977 58.6867C145.548 58.5205 145.156 58.2715 144.824 57.954C144.491 57.6364 144.225 57.2564 144.039 56.8358C143.854 56.4152 143.753 55.9621 143.742 55.5025C143.755 54.5834 144.124 53.705 144.771 53.0522C145.418 52.3994 146.293 52.0231 147.212 52.0025Z" fill="#3558A2"/>
<path d="M61.3822 148.293C61.3453 147.842 61.4008 147.388 61.5452 146.959C61.6897 146.53 61.9202 146.135 62.2225 145.798C62.5248 145.461 62.8926 145.19 63.3034 145C63.7143 144.81 64.1596 144.705 64.6121 144.693C65.0655 144.698 65.5133 144.794 65.9292 144.975C66.345 145.155 66.7206 145.418 67.0336 145.746C67.3467 146.074 67.591 146.461 67.7521 146.885C67.9133 147.308 67.9881 147.76 67.9721 148.213C68.0016 148.661 67.9396 149.109 67.79 149.532C67.6404 149.954 67.4063 150.342 67.1019 150.671C66.7975 151 66.4292 151.264 66.0196 151.446C65.61 151.628 65.1676 151.725 64.7193 151.73C64.2711 151.736 63.8264 151.65 63.4124 151.478C62.9985 151.306 62.624 151.051 62.3117 150.729C61.9994 150.408 61.756 150.026 61.5961 149.607C61.4363 149.188 61.3635 148.741 61.3822 148.293V148.293Z" fill="#3558A2"/>
<path d="M160.59 68.9627C160.605 69.4161 160.53 69.868 160.369 70.2922C160.208 70.7165 159.965 71.1048 159.654 71.4347C159.343 71.7647 158.969 72.0298 158.555 72.2148C158.14 72.3998 157.694 72.501 157.24 72.5126C156.325 72.4435 155.472 72.0226 154.861 71.3384C154.249 70.6542 153.927 69.7597 153.96 68.8427C153.923 68.4117 153.98 67.9778 154.126 67.5708C154.273 67.1638 154.505 66.7932 154.808 66.4845C155.111 66.1758 155.477 65.9362 155.882 65.7823C156.286 65.6284 156.719 65.5637 157.15 65.5927C157.603 65.5642 158.058 65.6314 158.483 65.7897C158.909 65.9481 159.296 66.1941 159.621 66.5119C159.945 66.8296 160.199 67.212 160.366 67.6342C160.533 68.0564 160.609 68.509 160.59 68.9627Z" fill="#3558A2"/>
<path d="M71.7605 122.094C71.7875 122.543 71.7238 122.992 71.5732 123.416C71.4226 123.84 71.1882 124.229 70.884 124.56C70.5797 124.892 70.2119 125.158 69.8024 125.344C69.3929 125.531 68.9502 125.632 68.5005 125.644C68.0492 125.69 67.5931 125.636 67.1652 125.485C66.7374 125.333 66.3483 125.089 66.0261 124.77C65.7038 124.451 65.4563 124.064 65.3014 123.637C65.1466 123.211 65.0883 122.755 65.1305 122.304C65.0936 121.852 65.1544 121.398 65.309 120.972C65.4636 120.546 65.7082 120.158 66.0262 119.836C66.3442 119.513 66.728 119.263 67.1515 119.102C67.5751 118.941 68.0285 118.873 68.4805 118.904C68.9069 118.891 69.3315 118.965 69.7289 119.12C70.1264 119.275 70.4888 119.508 70.7946 119.805C71.1004 120.103 71.3434 120.459 71.5093 120.852C71.6752 121.245 71.7607 121.667 71.7605 122.094V122.094Z" fill="#3558A2"/>
<path d="M235.382 209.914C234.022 212.404 232.022 213.554 230.252 214.914C224.482 219.414 217.862 222.374 211.252 225.404C206.466 227.579 201.873 230.155 197.522 233.104C193.471 235.825 189.106 238.044 184.522 239.714C182.161 240.641 179.648 241.119 177.112 241.124C175.112 241.124 173.112 241.147 171.112 241.194C164.752 241.424 158.742 239.744 152.752 237.954C147.118 236.264 141.323 235.168 135.462 234.684C132.477 234.57 129.487 234.73 126.532 235.164C123.222 235.524 119.922 236.114 116.632 236.634C112.972 237.224 109.312 237.764 105.632 238.464C96.6098 240.199 87.2882 239.491 78.6317 236.414C73.6012 234.744 68.9467 232.104 64.9316 228.644C66.2616 228.394 67.2716 228.154 68.3016 228.024C74.0416 227.294 79.7716 226.564 85.5216 225.874C90.7216 225.254 95.9416 224.714 101.152 224.114C105.372 223.634 109.582 223.114 113.802 222.624C115.872 222.394 117.942 222.244 120.012 222.004C126.112 221.304 132.212 220.564 138.312 219.864C143.512 219.264 148.722 218.694 153.932 218.114C158.412 217.604 162.932 217.114 167.392 216.634C170.002 216.364 172.632 216.234 175.232 215.954C179.552 215.504 183.852 214.954 188.162 214.504C190.042 214.294 191.932 214.034 193.812 213.864C198.322 213.444 202.812 213.094 207.322 212.644C211.632 212.204 215.942 211.644 220.242 211.164C221.862 210.984 223.482 210.864 225.112 210.724L235.382 209.914Z" fill="#EAECF1"/>
<path d="M145.472 211.992L137.932 212.892C136.612 210.772 136.492 208.472 136.102 206.312C134.58 197.839 134.033 189.219 134.472 180.622C134.642 177.272 134.792 173.932 134.942 170.622C135.192 161.658 134.182 152.704 131.942 144.022C131.191 141.221 130.914 138.314 131.122 135.422C131.312 133.422 131.852 131.522 133.912 130.422C134.525 130.732 135.046 131.199 135.422 131.775C135.798 132.35 136.015 133.015 136.052 133.702C136.272 135.702 136.422 137.702 136.502 139.652C136.602 142.092 136.612 144.542 136.622 146.992C136.692 151.694 137.495 156.357 139.002 160.812C140.182 164.502 141.182 168.262 142.112 172.022C142.494 173.599 142.669 175.219 142.632 176.842C142.532 181.192 142.252 185.532 142.062 189.842C141.682 196.451 142.652 203.069 144.912 209.292C145.173 210.175 145.36 211.078 145.472 211.992Z" fill="#979FBB"/>
<path d="M84.8821 148.193C86.2796 149.695 87.0551 151.672 87.052 153.723C87.052 157.613 87.052 161.513 87.052 165.413C86.9853 176.22 89.4729 186.89 94.312 196.553C97.312 202.903 100.312 209.353 104.122 215.303C104.282 215.607 104.422 215.921 104.542 216.243C101.569 217.192 98.4486 217.595 95.332 217.433C95.182 211.513 92.862 206.073 91.332 200.433C88.952 191.893 86.592 183.353 84.972 174.643C83.7198 167.408 83.3237 160.051 83.792 152.723C84.0271 151.185 84.3918 149.67 84.8821 148.193Z" fill="white"/>
<path d="M76.9412 168.714C77.4512 172.044 77.8411 175.074 78.4011 178.084C78.9611 181.094 79.6812 183.864 80.3412 186.784C77.6808 188.584 74.425 189.279 71.2612 188.724C69.8427 188.451 68.5012 187.871 67.3312 187.024C63.3312 184.384 61.1412 180.454 62.3312 175.464C62.6165 174.228 63.1966 173.079 64.022 172.116C64.8474 171.153 65.8935 170.404 67.0712 169.934C70.1727 168.576 73.6025 168.152 76.9412 168.714V168.714ZM73.5012 176.504C73.5012 174.504 72.5612 173.504 70.5912 173.414C68.4379 173.354 67.3545 174.354 67.3412 176.414C67.3412 178.414 68.4611 179.544 70.5511 179.534C72.4711 179.554 73.4812 178.504 73.5012 176.504V176.504Z" fill="#979FBB"/>
<path d="M106.901 167.113C108.191 169.813 109.451 176.403 109.061 178.513C108.667 178.285 108.286 178.035 107.921 177.763C104.181 174.683 101.721 174.843 98.2411 178.343C97.6211 178.973 96.921 179.533 95.931 180.403C95.551 178.593 95.211 177.143 94.931 175.673C94.651 174.203 94.4211 172.673 94.1211 170.813C95.6111 171.233 96.8711 171.563 98.1211 171.933C101.361 172.933 102.671 172.483 104.701 169.873L106.901 167.113Z" fill="#979FBB"/>
<path d="M212.391 103.154C212.901 105.354 213.041 117.604 212.591 120.294C210.821 119.244 209.071 118.294 207.471 117.204C205.371 115.786 202.922 114.973 200.391 114.854C199.762 114.86 199.137 114.964 198.541 115.164C189.088 117.652 179.291 118.571 169.541 117.884C161.811 117.224 154.051 116.364 146.871 113.074C144.902 112.161 143.048 111.016 141.351 109.664C138.951 107.774 139.031 106.444 141.161 104.324C143.871 101.634 147.321 100.614 150.901 99.9341C157.801 98.6141 164.591 99.5141 171.311 101.194C180.105 103.287 188.668 106.255 196.871 110.054C200.111 111.584 203.371 111.524 206.171 108.804C207.541 107.484 208.971 106.224 210.381 104.944C210.981 104.354 211.661 103.794 212.391 103.154ZM153.061 109.254C153.488 109.265 153.913 109.189 154.31 109.031C154.707 108.872 155.067 108.635 155.369 108.333C155.671 108.03 155.909 107.67 156.067 107.273C156.226 106.876 156.302 106.451 156.291 106.024C156.296 105.597 156.217 105.173 156.057 104.777C155.898 104.38 155.662 104.019 155.363 103.714C155.064 103.409 154.707 103.167 154.314 103C153.92 102.834 153.498 102.747 153.071 102.744C152.222 102.833 151.43 103.21 150.826 103.812C150.221 104.415 149.842 105.206 149.751 106.054C149.772 106.915 150.131 107.734 150.75 108.332C151.369 108.931 152.199 109.262 153.061 109.254ZM166.061 107.384C166.092 106.982 166.041 106.577 165.909 106.195C165.777 105.814 165.569 105.463 165.296 105.166C165.022 104.868 164.691 104.63 164.322 104.467C163.953 104.303 163.554 104.217 163.151 104.214C162.751 104.148 162.341 104.171 161.951 104.281C161.561 104.391 161.2 104.585 160.893 104.851C160.587 105.116 160.343 105.446 160.178 105.816C160.013 106.187 159.932 106.589 159.941 106.994C159.867 107.42 159.891 107.857 160.011 108.272C160.131 108.687 160.343 109.07 160.631 109.391C160.92 109.712 161.278 109.964 161.678 110.128C162.078 110.291 162.509 110.362 162.941 110.334C163.732 110.346 164.497 110.05 165.075 109.509C165.653 108.968 165.999 108.225 166.041 107.434L166.061 107.384Z" fill="white"/>
<path d="M73.5011 176.503C73.5011 178.503 72.5011 179.553 70.5012 179.563C68.4112 179.563 67.2811 178.463 67.2911 176.443C67.3011 174.423 68.3911 173.353 70.5411 173.443C72.5611 173.433 73.5111 174.483 73.5011 176.503Z" fill="#3558A2"/>
<path d="M153.06 109.252C152.199 109.26 151.368 108.929 150.749 108.331C150.13 107.732 149.771 106.913 149.75 106.052C149.841 105.204 150.221 104.413 150.825 103.81C151.429 103.208 152.221 102.831 153.07 102.742C153.497 102.745 153.92 102.832 154.313 102.998C154.706 103.165 155.063 103.407 155.362 103.712C155.662 104.017 155.898 104.378 156.057 104.775C156.216 105.171 156.295 105.595 156.29 106.022C156.301 106.449 156.225 106.874 156.067 107.271C155.908 107.668 155.671 108.028 155.368 108.331C155.066 108.633 154.706 108.87 154.309 109.029C153.912 109.187 153.487 109.263 153.06 109.252Z" fill="#3558A2"/>
<path d="M166.041 107.434C166.013 108.244 165.664 109.009 165.071 109.562C164.479 110.115 163.691 110.411 162.881 110.384C162.45 110.411 162.018 110.34 161.618 110.177C161.219 110.014 160.861 109.762 160.572 109.441C160.283 109.119 160.071 108.736 159.952 108.321C159.832 107.906 159.808 107.469 159.881 107.044C159.873 106.638 159.954 106.236 160.119 105.866C160.283 105.495 160.528 105.166 160.834 104.9C161.14 104.635 161.502 104.44 161.892 104.33C162.282 104.22 162.691 104.197 163.091 104.264C163.498 104.261 163.902 104.343 164.275 104.504C164.649 104.665 164.985 104.903 165.263 105.201C165.54 105.499 165.752 105.851 165.886 106.235C166.02 106.62 166.073 107.028 166.041 107.434V107.434Z" fill="#3558A2"/>
</svg>
