<svg width="300" height="300" viewBox="0 0 300 300" fill="none" xmlns="http://www.w3.org/2000/svg">
<path d="M234.269 153.821C235.209 154.281 236.029 154.651 236.839 155.061C242.259 157.821 245.219 162.211 245.229 168.321C245.229 173.321 245.039 178.321 244.739 183.321C244.139 193.271 248.519 201.261 254.679 208.461C258.769 213.241 258.979 215.781 254.209 219.871C246.089 226.871 237.309 232.641 226.399 234.521C215.482 236.424 204.243 234.386 194.689 228.771C190.319 226.311 185.809 224.771 180.929 226.371C178.67 227.186 176.62 228.494 174.929 230.201C173.264 232.003 171.814 233.993 170.609 236.131C168.139 240.011 164.369 242.131 160.319 243.841C159.012 244.386 157.594 244.615 156.181 244.509C154.769 244.403 153.401 243.965 152.189 243.231C150.825 242.508 149.578 241.584 148.489 240.491C143.389 235.061 136.929 233.061 129.739 232.371C116.811 231.012 104.269 227.157 92.8093 221.021C89.9473 219.438 87.265 217.55 84.8093 215.391C81.9493 213.021 81.6394 211.061 82.9994 207.651C84.5694 203.651 86.2393 199.771 87.6893 195.771C87.8086 195.314 87.822 194.836 87.7284 194.373C87.6348 193.91 87.4368 193.475 87.1494 193.101C82.5894 188.431 82.5494 188.461 76.8994 191.551C61.6327 199.931 46.356 208.307 31.0693 216.681C27.4293 218.681 25.7994 218.101 23.9794 214.361C22.786 211.914 21.6127 209.457 20.4593 206.991C17.9793 201.781 18.4593 200.381 23.4593 197.681C39.4593 189.071 55.3594 180.421 71.3594 171.901C73.3594 170.821 73.8994 169.721 73.6194 167.491C71.6194 152.191 76.6194 139.491 88.2594 129.391C89.0313 128.876 89.6001 128.108 89.8683 127.219C90.1365 126.331 90.0873 125.377 89.7294 124.521C87.7994 117.691 84.3993 112.151 77.7893 108.781C73.9513 106.723 70.2473 104.426 66.6993 101.901C61.3955 98.4544 57.454 93.2722 55.5493 87.2407C55.1735 86.0606 55.1067 84.8038 55.3553 83.5905C55.6039 82.3772 56.1597 81.2479 56.9693 80.3107C62.3993 73.0707 70.3194 71.1107 78.4994 71.6807C84.9694 72.1407 91.3393 74.4807 97.6793 76.2507C103.399 77.8407 103.809 77.8507 106.919 72.8607C108.399 70.4807 109.619 67.8607 111.249 65.6407C114.159 61.6407 117.249 60.9307 121.659 63.1807C123.659 64.1807 125.659 65.4207 127.599 66.5007C131.389 68.5607 134.929 68.2507 138.199 65.5007C139.528 64.3991 140.735 63.1588 141.799 61.8007C146.193 56.2118 151.806 51.7004 158.209 48.6107C165.385 44.8177 171.399 39.1499 175.609 32.2107C177.339 29.4907 180.349 29.2107 182.699 31.7607C187.269 36.7607 191.999 41.7007 196.119 47.0807C202.462 55.5611 211.228 61.9178 221.259 65.3107C228.259 67.7307 234.769 71.4607 241.599 74.3807C249.909 77.9307 258.279 81.3807 266.729 84.6107C271.449 86.4207 272.599 88.1407 270.949 93.0307C267.183 104.177 263.363 115.311 259.489 126.431C257.819 131.231 254.119 134.431 249.979 136.911C243.284 140.991 237.847 146.844 234.269 153.821V153.821ZM94.3994 198.431C93.1194 201.711 92.0694 204.901 90.6394 207.911C89.7194 209.851 90.2794 210.821 91.8694 211.911C102.729 219.151 114.869 222.701 127.589 224.911C133.009 225.861 138.589 226.581 143.659 228.511C147.409 229.941 150.549 233.081 153.809 235.651C155.659 237.111 157.399 237.871 159.389 236.241C161.57 234.537 163.638 232.693 165.579 230.721C166.962 229.04 168.241 227.277 169.409 225.441C172.259 221.561 176.149 219.591 180.869 218.831C186.657 217.891 192.589 219.078 197.569 222.171C209.739 229.371 222.409 229.951 235.089 224.171C240.419 221.751 245.089 217.761 250.299 214.281C238.919 202.511 235.919 188.941 238.129 173.821C238.315 171.652 238.231 169.469 237.879 167.321C237.509 163.971 235.409 161.971 232.309 160.981C231.189 160.621 229.999 160.521 228.859 160.231C225.139 159.231 223.859 156.441 225.859 153.231C231.329 144.401 237.099 135.861 246.549 130.581C248.346 129.602 249.916 128.254 251.155 126.625C252.394 124.996 253.275 123.124 253.739 121.131C255.269 115.281 257.369 109.561 259.339 103.831C260.749 99.7307 262.339 95.7107 263.919 91.5307C259.919 90.0407 255.919 88.8107 252.109 87.1207C241.859 82.5307 231.719 77.7107 221.499 73.0507C216.639 70.8407 211.559 69.0507 206.859 66.5907C198.689 62.2807 193.279 54.9907 187.689 47.9207C185.319 44.9207 182.559 42.2207 180.299 39.7407C175.189 44.3407 171.069 49.4107 165.779 52.4807C157.499 57.2907 150.019 62.6607 143.909 70.0707C140.809 73.8207 136.369 75.1607 131.419 74.9907C127.279 74.8507 124.039 72.7307 120.659 70.8107C117.439 68.9807 117.509 69.0607 115.529 72.2607C113.549 75.4607 111.429 78.6607 109.169 81.7007C108.241 83.0194 106.906 83.9968 105.369 84.4828C103.831 84.9688 102.177 84.9364 100.659 84.3907C95.9926 83.0574 91.326 81.6374 86.6593 80.1307C80.2949 78.0652 73.3989 78.367 67.2394 80.9807C62.7694 82.7807 61.6593 85.5207 64.5393 89.2507C66.6853 92.0352 69.1905 94.5234 71.9894 96.6507C75.3676 99.1009 78.9167 101.306 82.6094 103.251C87.282 105.711 91.0608 109.581 93.4093 114.311C94.8193 117.221 96.0093 120.241 97.3093 123.221C121.229 113.221 141.669 124.831 150.559 138.221C155.571 145.757 158.038 154.7 157.601 163.74C157.164 172.78 153.845 181.443 148.129 188.461C137.679 201.311 117.099 209.901 94.3994 198.431V198.431ZM115.399 196.531C134.759 196.591 150.479 181.191 150.519 162.131C150.575 152.812 146.938 143.85 140.403 137.207C133.868 130.563 124.968 126.778 115.649 126.681C111.015 126.587 106.408 127.418 102.097 129.123C97.7864 130.828 93.8584 133.375 90.5419 136.613C87.2253 139.852 84.5866 143.719 82.7796 147.988C80.9727 152.257 80.0335 156.843 80.0169 161.479C80.0004 166.114 80.9067 170.707 82.6831 174.989C84.4595 179.27 87.0704 183.156 90.3636 186.418C93.6569 189.681 97.5666 192.255 101.865 193.991C106.163 195.728 110.764 196.591 115.399 196.531V196.531ZM29.6993 209.211L78.5294 182.311L76.0793 177.311L27.0793 203.801L29.6993 209.211Z" fill="#3558A2"/>
<path d="M281.328 247.312C280.378 252.722 279.858 258.312 278.328 263.702C276.438 270.312 270.328 272.142 264.748 268.032C255.838 261.482 252.058 252.422 253.748 241.622C254.258 238.432 256.968 235.462 259.088 232.712C262.228 228.632 265.638 224.712 269.088 220.962C270.364 219.59 271.962 218.559 273.738 217.962C274.178 217.806 274.649 217.754 275.112 217.812C275.576 217.87 276.02 218.035 276.408 218.294C276.796 218.553 277.119 218.9 277.35 219.305C277.581 219.711 277.714 220.166 277.738 220.632C279.058 229.442 280.148 238.242 281.328 247.312ZM270.328 262.892C274.668 259.112 273.918 235.712 272.088 231.182C270.348 232.562 268.338 234.252 266.238 235.822C261.168 239.592 259.338 244.482 261.018 250.602C261.638 253.185 262.788 255.611 264.394 257.726C266 259.842 268.027 261.601 270.348 262.892H270.328Z" fill="#3558A2"/>
<path d="M94.3985 198.431C117.099 209.901 137.679 201.281 148.129 188.491C153.844 181.473 157.163 172.81 157.6 163.77C158.037 154.73 155.57 145.788 150.558 138.251C141.668 124.851 121.228 113.251 97.3085 123.251C96.0085 120.251 94.8184 117.251 93.4084 114.341C91.0571 109.581 87.2589 105.689 82.5585 103.221C78.8658 101.277 75.3167 99.0711 71.9385 96.6209C69.1396 94.4937 66.6346 92.0054 64.4885 89.2209C61.6085 85.4909 62.7185 82.7509 67.1885 80.9509C73.348 78.3372 80.2442 78.0354 86.6085 80.1009C91.2752 81.5809 95.9418 83.0009 100.609 84.3609C102.126 84.9067 103.78 84.939 105.318 84.453C106.855 83.967 108.191 82.9896 109.119 81.6709C111.379 78.6709 113.479 75.4509 115.479 72.2309C117.479 69.0109 117.389 68.9509 120.609 70.7809C123.989 72.7009 127.229 74.7809 131.369 74.9609C136.319 75.1309 140.759 73.7909 143.859 70.0409C149.969 62.6309 157.449 57.2609 165.729 52.4509C171.019 49.3809 175.139 44.3109 180.249 39.7109C182.509 42.1909 185.249 44.8909 187.639 47.8909C193.229 54.9609 198.638 62.2509 206.808 66.5609C211.508 69.0409 216.588 70.8109 221.448 73.0209C231.668 77.6809 241.808 82.5009 252.058 87.0909C255.848 88.7809 259.839 90.0109 263.869 91.5009C262.309 95.6809 260.698 99.7009 259.288 103.801C257.288 109.531 255.218 115.251 253.688 121.101C253.224 123.094 252.344 124.966 251.104 126.595C249.865 128.224 248.296 129.572 246.499 130.551C237.049 135.831 231.278 144.371 225.808 153.201C223.808 156.451 225.118 159.271 228.808 160.201C229.948 160.491 231.139 160.591 232.259 160.951C235.359 161.951 237.458 163.951 237.828 167.291C238.18 169.439 238.264 171.622 238.078 173.791C235.868 188.911 238.869 202.481 250.249 214.251C244.989 217.731 240.368 221.721 235.038 224.141C222.358 229.891 209.689 229.311 197.519 222.141C192.538 219.048 186.606 217.861 180.818 218.801C176.098 219.561 172.209 221.531 169.359 225.411C168.19 227.247 166.911 229.011 165.529 230.691C163.587 232.664 161.52 234.507 159.338 236.211C157.338 237.841 155.609 237.081 153.759 235.621C150.499 233.051 147.359 229.911 143.609 228.481C138.539 226.551 132.958 225.831 127.538 224.881C114.848 222.661 102.678 219.111 91.8185 211.881C90.2285 210.831 89.6685 209.881 90.5885 207.881C92.0685 204.901 93.1185 201.711 94.3985 198.431ZM161.109 128.191C164.299 127.741 165.359 126.191 165.279 123.921C165.019 116.791 168.118 111.361 173.538 107.021C175.148 105.731 176.538 104.241 176.038 101.951C175.538 99.6609 173.599 98.8409 171.599 98.5109C166.669 97.6909 163.948 94.3909 161.818 90.2909C161.278 89.2909 160.818 87.8709 159.918 87.4109C158.418 86.6409 156.379 85.8109 154.989 86.2709C153.859 86.6509 152.678 88.9009 152.688 90.2709C152.688 96.0809 150.958 100.671 145.688 103.761C145.147 104.188 144.714 104.736 144.423 105.361C144.133 105.987 143.995 106.672 144.019 107.361C144.179 108.461 145.588 109.521 146.658 110.361C147.451 110.807 148.34 111.054 149.249 111.081C152.509 111.531 154.368 113.421 155.338 116.491C156.267 119.609 157.358 122.677 158.609 125.681C159.149 126.811 160.479 127.581 161.109 128.191ZM172.639 191.851C176.759 190.751 178.248 189.491 177.908 187.311C177.398 184.091 174.818 184.311 172.058 184.311C172.058 182.631 172.148 181.101 172.058 179.601C171.868 176.821 170.518 175.281 168.458 175.291C166.398 175.301 165.029 176.921 164.869 179.621C164.769 181.231 164.869 182.851 164.869 184.451C161.279 184.931 159.919 185.751 159.869 187.721C159.719 191.341 162.679 191.621 165.229 192.291C165.289 193.101 165.339 193.821 165.379 194.531C165.419 195.241 165.379 196.181 165.519 196.981C165.959 199.551 167.518 201.051 169.668 200.751C172.208 200.391 172.668 198.501 172.668 196.341C172.638 194.851 172.639 193.311 172.639 191.851ZM112.428 98.6009C112.298 98.0809 112.199 97.7409 112.139 97.3909C111.769 95.3909 110.868 93.8609 108.708 93.7709C106.708 93.6809 105.708 94.9109 105.088 96.7709C104.878 97.4709 103.959 98.0209 103.259 98.4909C101.189 99.9109 100.618 102.751 102.688 103.941C105.028 105.281 105.169 107.241 105.899 109.311C106.191 109.956 106.638 110.52 107.199 110.952C107.761 111.385 108.42 111.673 109.119 111.791C110.229 111.791 111.548 110.351 112.338 109.231C112.878 108.461 112.658 107.161 112.788 106.071C114.998 105.381 117.458 104.851 117.218 101.821C116.968 99.1209 114.828 98.7809 112.428 98.6009Z" fill="white"/>
<path opacity="0.5" d="M115.369 196.531C110.734 196.591 106.133 195.728 101.834 193.992C97.5362 192.255 93.6265 189.681 90.3332 186.419C87.04 183.156 84.4291 179.271 82.6527 174.989C80.8763 170.707 79.97 166.114 79.9866 161.479C80.0031 156.843 80.9423 152.257 82.7492 147.988C84.5562 143.719 87.1949 139.853 90.5115 136.614C93.828 133.375 97.756 130.829 102.067 129.123C106.377 127.418 110.984 126.588 115.619 126.681C124.937 126.779 133.838 130.563 140.373 137.207C146.908 143.85 150.545 152.812 150.489 162.131C150.449 181.191 134.729 196.591 115.369 196.531Z" fill="#3558A2"/>
<path opacity="0.5" d="M29.6688 209.211L27.0488 203.881L76.0488 177.391L78.4989 182.391L29.6688 209.211Z" fill="#3558A2"/>
<path d="M270.349 262.892C268.031 261.598 266.007 259.838 264.405 257.723C262.802 255.607 261.656 253.183 261.038 250.602C259.358 244.482 261.189 239.602 266.259 235.822C268.359 234.252 270.369 232.562 272.109 231.182C273.969 235.712 274.689 259.112 270.349 262.892Z" fill="white"/>
<path d="M161.109 128.191C160.479 127.581 159.109 126.811 158.649 125.681C157.399 122.677 156.308 119.609 155.379 116.491C154.379 113.421 152.549 111.491 149.289 111.081C148.38 111.054 147.492 110.807 146.699 110.361C145.629 109.561 144.219 108.501 144.059 107.361C144.035 106.672 144.174 105.987 144.464 105.361C144.754 104.736 145.188 104.187 145.729 103.761C150.959 100.671 152.729 96.0807 152.729 90.2707C152.729 88.8607 153.899 86.6107 155.029 86.2707C156.419 85.8107 158.459 86.6407 159.959 87.4107C160.859 87.8707 161.319 89.2607 161.859 90.2907C163.989 94.3907 166.709 97.6907 171.639 98.5107C173.639 98.8407 175.579 99.6107 176.079 101.951C176.579 104.291 175.189 105.731 173.579 107.021C168.159 111.361 165.059 116.791 165.319 123.921C165.359 126.191 164.299 127.741 161.109 128.191ZM155.329 105.191L156.379 104.261L161.379 110.061L165.379 104.511L158.639 99.0607C157.559 101.141 156.449 103.171 155.329 105.201V105.191Z" fill="#3558A2"/>
<path d="M172.64 191.851C172.64 193.331 172.64 194.851 172.64 196.371C172.64 198.531 172.15 200.421 169.64 200.781C167.54 201.081 165.929 199.581 165.489 197.011C165.359 196.211 165.399 195.381 165.349 194.561C165.299 193.741 165.259 193.131 165.199 192.321C162.649 191.651 159.689 191.371 159.839 187.751C159.919 185.751 161.279 184.961 164.839 184.481C164.839 182.881 164.759 181.261 164.839 179.651C164.999 176.951 166.389 175.341 168.429 175.321C170.469 175.301 171.84 176.851 172.03 179.631C172.14 181.131 172.03 182.631 172.03 184.341C174.79 184.341 177.369 184.091 177.879 187.341C178.249 189.491 176.76 190.751 172.64 191.851Z" fill="#3558A2"/>
<path d="M112.429 98.601C114.829 98.781 117.009 99.121 117.219 101.851C117.459 104.851 114.999 105.411 112.789 106.101C112.659 107.191 112.879 108.491 112.339 109.261C111.549 110.381 110.229 111.811 109.119 111.821C108.42 111.703 107.762 111.415 107.2 110.982C106.639 110.55 106.192 109.986 105.899 109.341C105.169 107.271 105.029 105.341 102.689 103.971C100.619 102.781 101.189 99.971 103.259 98.521C103.959 98.051 104.879 97.521 105.089 96.801C105.659 94.911 106.729 93.681 108.709 93.801C110.869 93.891 111.769 95.471 112.139 97.421C112.199 97.741 112.299 98.081 112.429 98.601Z" fill="#3558A2"/>
<path d="M114.309 187.311C110.806 187.363 107.327 186.721 104.073 185.422C100.82 184.122 97.8562 182.19 95.3539 179.738C92.8516 177.286 90.8601 174.362 89.4946 171.136C88.1292 167.909 87.4169 164.444 87.3988 160.941C87.3188 146.161 99.9187 133.811 115.059 133.811C130.199 133.811 141.789 145.311 141.819 160.181C141.804 163.771 141.08 167.324 139.688 170.634C138.296 173.944 136.263 176.946 133.706 179.467C131.15 181.988 128.119 183.979 124.791 185.325C121.462 186.672 117.899 187.346 114.309 187.311V187.311ZM119.199 178.961C118.309 178.581 117.419 178.221 116.549 177.821C112.709 176.051 111.369 172.441 113.549 168.821C114.269 167.788 114.666 166.564 114.689 165.305C114.712 164.046 114.36 162.809 113.679 161.751C112.219 159.277 111.469 156.449 111.511 153.577C111.554 150.705 112.387 147.9 113.919 145.471C114.729 144.091 115.469 142.661 116.389 140.971C111.668 140.705 106.997 142.048 103.139 144.781C102.452 145.135 101.909 145.716 101.603 146.425C101.297 147.134 101.246 147.928 101.459 148.671C101.795 150.531 102.273 152.363 102.889 154.151C105.629 160.671 104.889 167.151 102.589 173.491C101.879 175.431 102.399 176.431 104.109 177.371C108.859 179.971 113.769 180.901 119.199 178.941V178.961ZM127.489 175.081C137.489 166.881 136.879 151.581 126.369 144.541C125.669 144.071 124.369 143.611 123.809 143.941C120.099 146.161 117.859 153.661 119.879 157.761C122.119 162.311 123.139 166.761 120.429 171.471L127.489 175.081ZM95.8688 156.471L94.6987 156.561L95.4788 167.961L96.5687 167.891C97.2792 166.045 97.5844 164.068 97.4636 162.094C97.3429 160.12 96.7989 158.196 95.8688 156.451V156.471Z" fill="#3558A2"/>
<path d="M155.328 105.2C156.448 103.2 157.558 101.14 158.688 99.0703L165.428 104.52L161.428 110.07L155.328 105.2Z" fill="white"/>
<path d="M119.199 178.942C113.769 180.942 108.859 179.942 104.129 177.402C102.419 176.462 101.899 175.462 102.609 173.522C104.949 167.142 105.609 160.702 102.909 154.182C102.293 152.394 101.815 150.562 101.479 148.702C101.266 147.959 101.317 147.166 101.623 146.456C101.93 145.747 102.472 145.166 103.159 144.812C107.017 142.079 111.689 140.736 116.409 141.002C115.489 142.692 114.749 144.122 113.939 145.502C112.407 147.931 111.574 150.736 111.532 153.608C111.49 156.48 112.239 159.308 113.699 161.782C114.381 162.84 114.732 164.078 114.709 165.337C114.686 166.595 114.289 167.819 113.569 168.852C111.369 172.422 112.709 176.032 116.569 177.852C117.419 178.202 118.309 178.562 119.199 178.942Z" fill="#CBCFDD"/>
<path d="M127.489 175.061L120.429 171.451C123.139 166.731 122.119 162.291 119.879 157.74C117.879 153.64 120.099 146.14 123.809 143.92C124.359 143.59 125.669 144.05 126.369 144.52C136.879 151.561 137.519 166.861 127.489 175.061Z" fill="#CBCFDD"/>
<path d="M95.8693 156.451C96.7965 158.194 97.3387 160.115 97.4595 162.085C97.5802 164.055 97.2766 166.028 96.5692 167.871L95.4792 167.941L94.6992 156.541L95.8693 156.451Z" fill="#CBCFDD"/>
</svg>
