<svg width="300" height="300" viewBox="0 0 300 300" fill="none" xmlns="http://www.w3.org/2000/svg">
<path d="M85.4406 120.815C86.2964 116.134 86.2964 111.337 85.4406 106.655C85.188 105.23 85.124 103.778 85.2506 102.335C85.6006 98.9054 87.9506 97.4854 91.2506 98.4954C94.2506 99.4354 97.2506 100.395 100.351 101.195C101.888 101.617 103.501 101.69 105.07 101.408C106.64 101.126 108.126 100.496 109.421 99.5654C113.351 97.0305 116.174 93.0997 117.321 88.5654C118.561 83.7354 119.741 78.8954 121.151 74.1154C122.035 71.3539 123.087 68.6489 124.301 66.0154C125.601 62.9911 127.861 60.4785 130.731 58.8654C131.493 58.3735 132.367 58.0809 133.272 58.0145C134.177 57.9481 135.084 58.11 135.911 58.4854C138.161 59.4854 140.401 60.4854 142.591 61.4854C149.198 64.9011 156.16 67.5837 163.351 69.4854C168.611 70.7754 173.971 70.7754 179.351 70.8254C184.914 70.7064 190.381 72.2981 195.011 75.3854C196.511 76.3854 198.011 77.3855 199.621 78.2755C203.811 80.8477 208.728 81.9785 213.621 81.4954C216.621 81.2054 219.531 80.7754 222.481 80.3854C223.474 80.1983 224.501 80.4001 225.35 80.9492C226.199 81.4983 226.804 82.3526 227.041 83.3354C227.212 83.9435 227.289 84.5741 227.271 85.2054C227.071 94.5354 226.821 103.875 226.621 113.205C226.553 116.68 225.115 119.987 222.621 122.405C218.141 127.025 218.531 135.135 223.561 139.115C228.128 142.734 231.553 147.596 233.421 153.115C234.661 156.625 235.901 160.115 237.251 163.585C239.21 168.789 242.381 173.451 246.501 177.185C247.111 177.725 247.701 178.295 248.271 178.875C251.011 181.695 251.541 183.875 249.341 187.165C243.341 196.075 236.421 204.055 225.751 207.645C221.551 209.065 217.371 210.645 213.131 211.885C203.061 214.955 196.831 221.605 194.131 231.715C193.521 233.985 192.801 236.235 192.001 238.445C190.801 241.825 188.721 242.935 185.431 241.585C181.431 239.935 177.231 239.365 173.021 238.795C171.399 238.57 169.753 238.6 168.141 238.885C163.467 239.69 158.67 239.378 154.141 237.975C152.401 237.485 150.671 236.975 148.931 236.455C144.244 234.915 139.172 235.017 134.551 236.745C131.331 238.038 127.81 238.385 124.401 237.745C121.651 237.205 118.871 236.745 116.181 235.945C113.071 235.055 112.041 233.075 112.801 229.945C114.822 221.386 116.086 212.666 116.581 203.885C117.177 195.026 114.733 186.227 109.651 178.945C103.001 169.205 94.0406 162.065 84.0905 156.085C77.2594 152.12 70.0876 148.774 62.6606 146.085C58.7606 144.615 54.9305 142.965 51.0905 141.355C50.7021 141.219 50.3446 141.007 50.0383 140.731C49.732 140.456 49.4829 140.123 49.3055 139.752C49.1281 139.38 49.0257 138.977 49.0042 138.566C48.9828 138.155 49.0428 137.743 49.1806 137.355C49.4594 136.407 49.9559 135.538 50.6306 134.815C58.0906 127.345 66.7206 122.205 77.5606 121.565C80.1206 121.425 82.7206 121.075 85.4406 120.815ZM57.9106 137.365C59.0806 137.855 59.9706 138.245 60.9106 138.605C66.2906 140.775 71.7506 142.765 77.0406 145.135C89.1621 150.369 100.101 157.999 109.201 167.565C119.011 178.065 124.281 190.325 123.201 204.865C122.811 210.285 121.991 215.665 121.291 221.055C120.921 223.985 120.401 226.885 119.941 229.805C124.681 231.485 129.121 231.735 133.691 229.935C135.661 229.29 137.709 228.91 139.781 228.805C145.241 228.235 150.371 229.805 155.511 231.315C158.451 232.205 161.461 233.215 164.581 232.575C171.361 231.175 177.911 232.365 184.431 234.085C184.931 234.215 185.431 234.255 185.991 234.345C186.921 231.635 187.781 229.065 188.661 226.505C191.921 217.015 198.111 210.305 207.561 206.775C211.891 205.165 216.231 203.515 220.671 202.265C230.741 199.425 237.391 192.485 243.061 184.265C243.141 184.145 243.061 183.915 243.061 183.735L243.471 183.335C242.776 182.903 242.108 182.428 241.471 181.915C236.517 177.34 232.744 171.634 230.471 165.285C229.471 162.485 228.331 159.695 227.401 156.855C225.681 151.645 223.001 147.185 218.491 143.855C215.522 141.529 213.589 138.127 213.111 134.385C211.981 127.925 212.991 122.095 217.911 117.385C218.533 116.789 219.019 116.064 219.333 115.261C219.647 114.458 219.783 113.596 219.731 112.735C219.731 110.565 219.871 108.385 219.921 106.205C220.054 100.405 220.167 94.6054 220.261 88.8054C220.261 88.5654 220.051 88.3254 219.921 88.0554C213.161 88.9054 206.441 88.9854 200.111 86.1654C196.757 84.5736 193.528 82.7318 190.451 80.6555C187.276 78.6883 183.615 77.6491 179.881 77.6555C177.611 77.6555 175.341 77.5654 173.071 77.5654C167.985 77.4935 162.935 76.7023 158.071 75.2155C151.659 73.235 145.444 70.6709 139.501 67.5554C137.421 66.5554 135.311 65.5554 132.801 64.3154C131.271 67.6154 129.571 70.5354 128.551 73.6654C126.751 79.1754 125.301 84.7954 123.841 90.3954C122.596 95.2641 119.912 99.6446 116.141 102.965C110.961 107.635 105.031 109.675 98.0705 107.825C96.2605 107.345 94.4305 106.955 92.4505 106.475C92.4505 107.055 92.4505 107.395 92.4505 107.725C93.0226 112.601 92.9385 117.532 92.2005 122.385C91.6005 126.115 90.2806 127.385 86.5006 127.695C82.7206 128.005 78.9006 128.255 75.1306 128.805C68.6283 129.761 62.5981 132.759 57.9106 137.365V137.365Z" fill="#3558A2"/>
<path d="M57.9102 137.364C62.5948 132.723 68.6375 129.696 75.1602 128.724C78.9302 128.174 82.7402 127.964 86.5302 127.614C90.3202 127.264 91.6301 126.034 92.2301 122.304C92.9681 117.451 93.0521 112.52 92.4801 107.644C92.4801 107.314 92.4801 106.974 92.4801 106.394C94.4801 106.874 96.2901 107.264 98.1001 107.744C105.1 109.594 110.99 107.554 116.17 102.884C119.942 99.5635 122.625 95.1831 123.87 90.3144C125.33 84.7144 126.78 79.0944 128.58 73.5844C129.58 70.4544 131.3 67.5844 132.83 64.2344C135.34 65.4444 137.45 66.4244 139.53 67.4744C145.473 70.5898 151.689 73.1539 158.1 75.1344C162.964 76.6213 168.014 77.4124 173.1 77.4844C175.37 77.4844 177.64 77.4844 179.91 77.5744C183.644 77.568 187.306 78.6072 190.48 80.5744C193.557 82.6508 196.786 84.4926 200.14 86.0844C206.47 88.9044 213.14 88.8244 219.95 87.9744C220.08 88.2444 220.29 88.4844 220.29 88.7244C220.19 94.5244 220.077 100.324 219.95 106.124C219.95 108.304 219.74 110.484 219.76 112.654C219.812 113.515 219.677 114.377 219.362 115.18C219.048 115.983 218.563 116.708 217.94 117.304C213.02 122.034 212.01 127.864 213.14 134.304C213.618 138.046 215.551 141.448 218.52 143.774C223.03 147.124 225.71 151.584 227.43 156.774C228.36 159.614 229.43 162.404 230.5 165.204C232.773 171.553 236.547 177.259 241.5 181.834C242.138 182.347 242.806 182.822 243.5 183.254L243.09 183.654C243.09 183.834 243.16 184.064 243.09 184.184C237.42 192.424 230.77 199.364 220.7 202.184C216.26 203.434 211.92 205.084 207.59 206.694C198.14 210.224 191.95 216.934 188.69 226.424C187.81 228.984 186.95 231.554 186.02 234.264C185.47 234.174 184.96 234.134 184.46 234.004C177.94 232.284 171.39 231.094 164.61 232.494C161.49 233.134 158.48 232.124 155.54 231.234C150.4 229.684 145.27 228.154 139.81 228.724C137.739 228.829 135.691 229.209 133.72 229.854C129.15 231.654 124.72 231.404 119.97 229.724C120.43 226.804 120.97 223.904 121.32 220.974C122.02 215.584 122.84 210.204 123.23 204.784C124.23 190.244 119 177.984 109.23 167.484C100.131 157.918 89.1916 150.288 77.0701 145.054C71.7801 142.684 66.3202 140.694 60.9402 138.524C59.9702 138.244 59.0802 137.814 57.9102 137.364ZM156.45 204.214L157.19 204.074C157.62 204.944 158.08 205.794 158.46 206.684C159.31 208.684 160.04 210.744 160.99 212.684C161.308 213.509 161.941 214.174 162.75 214.532C163.558 214.89 164.475 214.913 165.3 214.594C166.125 214.276 166.79 213.643 167.148 212.835C167.506 212.027 167.528 211.109 167.21 210.284C166.834 209.074 166.383 207.888 165.86 206.734C165.24 205.244 164.57 203.734 164.16 202.824C165.36 200.964 166.71 199.614 167.16 198.004C167.61 196.394 167.1 194.534 167 192.644C167.39 192.874 167.62 193.004 167.84 193.154C169.84 194.554 171.44 194.614 172.71 193.324C173.98 192.034 173.94 190.424 172.71 188.584C172.529 188.269 172.314 187.974 172.07 187.704C169.13 184.764 166.2 181.804 163.21 178.904C161.47 177.224 159.63 175.664 157.95 174.154C160.24 167.104 158.76 161.994 153.79 159.054C151.708 157.811 149.258 157.331 146.861 157.696C144.464 158.061 142.268 159.248 140.65 161.054C139.036 162.808 138.079 165.065 137.94 167.444C137.832 169.265 138.161 171.084 138.9 172.751C139.64 174.418 140.768 175.883 142.19 177.024C141.24 179.194 140.26 181.024 139.61 183.024C138.01 187.914 136.46 192.824 135.12 197.784C134.982 198.176 134.927 198.593 134.959 199.007C134.99 199.421 135.108 199.825 135.303 200.191C135.499 200.558 135.768 200.88 136.095 201.137C136.421 201.394 136.798 201.58 137.2 201.684C138.033 201.949 138.936 201.877 139.717 201.485C140.498 201.092 141.095 200.411 141.38 199.584C141.85 198.524 142.13 197.374 142.57 196.054C144.65 199.454 144.48 204.324 149.5 205.274C149.65 206.544 149.82 207.704 149.92 208.874C150.13 211.314 150.23 213.764 150.5 216.194C150.77 218.624 152.15 219.914 154.11 219.804C156.07 219.694 157.26 218.214 157.18 215.804C157.09 213.184 156.83 210.564 156.65 207.934C156.63 206.664 156.52 205.434 156.45 204.214ZM176.1 150.814C176.16 151.644 176.19 152.094 176.21 152.544C176.37 155.804 176.5 159.064 176.68 162.324C176.644 163.016 176.842 163.699 177.241 164.265C177.64 164.831 178.217 165.246 178.88 165.444C179.387 165.577 179.917 165.601 180.434 165.515C180.951 165.429 181.444 165.234 181.88 164.944C182.68 164.119 183.144 163.024 183.18 161.874C183.24 158.524 183.03 155.174 182.92 151.814C182.92 151.054 182.41 150.054 183.57 149.814C184.73 149.574 184.75 150.594 184.99 151.334C185.87 153.994 186.75 156.664 187.66 159.334C188.3 161.214 189.66 162.164 191.29 161.944C192.158 161.823 192.942 161.364 193.474 160.667C194.005 159.971 194.241 159.093 194.13 158.224C193.973 156.976 193.678 155.748 193.25 154.564C192.53 152.244 191.73 149.954 190.93 147.564C193.8 145.564 193.84 142.774 193.3 139.864C193.04 138.434 192.88 136.994 192.57 135.574C192.285 134.777 192.308 133.902 192.636 133.121C192.963 132.34 193.571 131.71 194.34 131.354C198.12 129.054 199.44 125.124 200.05 120.994C200.223 120.179 200.078 119.329 199.645 118.617C199.212 117.905 198.523 117.386 197.72 117.164C196.872 116.994 195.99 117.149 195.25 117.597C194.509 118.045 193.963 118.754 193.72 119.584C193.32 120.584 193.15 121.694 192.72 122.694C192.29 123.694 191.62 124.834 190.99 126.044L184.73 119.504C185.03 118.774 185.24 118.284 185.43 117.784C188.14 110.414 183.63 103.784 175.86 103.644C173.94 103.615 172.06 104.201 170.497 105.317C168.933 106.432 167.767 108.019 167.17 109.844C165.89 113.984 166.02 117.954 169.31 121.224C170.31 122.224 170.09 123.044 169.56 124.124C168.897 125.503 168.312 126.919 167.81 128.364C166.23 132.704 164.73 137.064 163.11 141.364C162.31 143.524 162.65 145.144 164.32 146.094C165.99 147.044 168.02 146.454 169.23 144.564C169.65 143.894 169.96 143.134 170.42 142.214C171.97 145.444 171.19 149.984 176.1 150.814ZM123.92 123.234C122.69 121.764 121.81 120.794 121.04 119.744C120.4 118.874 120.04 117.814 119.3 116.994C118.803 116.362 118.092 115.932 117.3 115.787C116.509 115.642 115.692 115.791 115.002 116.207C114.313 116.622 113.799 117.275 113.558 118.042C113.316 118.81 113.363 119.639 113.69 120.374C115.62 124.864 118.41 128.614 123.45 129.864C124.154 129.971 124.799 130.317 125.278 130.843C125.757 131.369 126.04 132.044 126.08 132.754C126.247 133.923 126.616 135.053 127.17 136.094C127.72 137.213 128.572 138.155 129.63 138.814C130.158 139.04 130.61 139.413 130.933 139.888C131.256 140.363 131.435 140.92 131.45 141.494C131.795 143.914 132.265 146.314 132.86 148.684C132.945 149.111 133.115 149.516 133.36 149.876C133.605 150.236 133.919 150.543 134.285 150.779C134.65 151.015 135.06 151.175 135.488 151.25C135.917 151.325 136.356 151.313 136.78 151.214C137.577 150.999 138.273 150.508 138.743 149.829C139.213 149.15 139.428 148.327 139.35 147.504C139.241 146.423 139.057 145.35 138.8 144.294C138.57 143.034 138.31 141.784 138.06 140.534C138.667 140.855 139.157 141.359 139.46 141.974C140.14 143.254 140.72 144.594 141.46 145.844C142.53 147.684 144.16 148.304 145.8 147.594C146.586 147.219 147.204 146.565 147.533 145.759C147.862 144.952 147.879 144.052 147.58 143.234C147.316 142.364 146.964 141.523 146.53 140.724C145.53 138.894 144.53 137.094 143.44 135.104C145.94 133.104 145.99 130.524 144.95 127.544L146.69 128.154C147.321 128.432 148.028 128.485 148.693 128.303C149.357 128.12 149.939 127.715 150.34 127.154C150.793 126.586 151.039 125.881 151.039 125.154C151.039 124.428 150.793 123.723 150.34 123.154C149.77 122.354 149.098 121.631 148.34 121.004C145.682 118.566 142.496 116.776 139.03 115.774C139.15 114.844 139.23 114.054 139.37 113.274C139.716 111.62 139.621 109.904 139.094 108.298C138.568 106.692 137.628 105.253 136.37 104.124C134.605 102.452 132.266 101.52 129.835 101.52C127.404 101.52 125.065 102.452 123.3 104.124C121.391 105.919 120.263 108.392 120.158 111.01C120.054 113.628 120.981 116.183 122.74 118.124C123.91 119.414 124.48 120.694 123.92 123.224V123.234ZM207.2 169.874C207.214 169.4 207.131 168.929 206.957 168.488C206.783 168.047 206.521 167.646 206.187 167.309C205.853 166.972 205.454 166.707 205.015 166.529C204.575 166.351 204.104 166.265 203.63 166.274C201.63 166.334 200.29 168.004 200.31 170.424C200.31 172.544 201.64 174.004 203.53 174.034C204.049 174.015 204.559 173.89 205.029 173.667C205.498 173.444 205.917 173.128 206.261 172.737C206.604 172.347 206.864 171.891 207.026 171.398C207.187 170.904 207.247 170.382 207.2 169.864V169.874ZM193.53 182.744C193.08 182.758 192.636 182.863 192.227 183.052C191.818 183.241 191.451 183.511 191.148 183.845C190.846 184.179 190.614 184.571 190.466 184.997C190.319 185.423 190.259 185.875 190.29 186.324C190.27 186.797 190.346 187.269 190.514 187.712C190.682 188.154 190.939 188.558 191.269 188.897C191.598 189.237 191.993 189.506 192.43 189.688C192.867 189.87 193.337 189.96 193.81 189.954C194.239 189.945 194.662 189.848 195.052 189.669C195.443 189.489 195.792 189.232 196.079 188.912C196.366 188.593 196.584 188.218 196.72 187.81C196.856 187.403 196.907 186.972 196.87 186.544C196.917 186.072 196.866 185.594 196.721 185.142C196.576 184.69 196.339 184.272 196.026 183.915C195.713 183.558 195.33 183.269 194.901 183.066C194.471 182.863 194.005 182.75 193.53 182.734V182.744ZM150.53 98.8244C150.956 98.853 151.384 98.7943 151.787 98.6519C152.19 98.5094 152.559 98.2863 152.873 97.9961C153.187 97.7059 153.438 97.3547 153.611 96.9641C153.784 96.5735 153.876 96.1516 153.88 95.7244C153.909 95.3021 153.854 94.8784 153.718 94.4774C153.583 94.0764 153.37 93.706 153.091 93.3875C152.813 93.0689 152.474 92.8084 152.094 92.6208C151.715 92.4333 151.302 92.3223 150.88 92.2944C150.431 92.2701 149.982 92.3365 149.559 92.4896C149.136 92.6427 148.749 92.8793 148.419 93.1854C148.09 93.4915 147.825 93.8607 147.642 94.2712C147.458 94.6816 147.359 95.1248 147.35 95.5744C147.341 95.9957 147.416 96.4146 147.57 96.8067C147.725 97.1988 147.956 97.556 148.25 97.8577C148.544 98.1594 148.896 98.3994 149.284 98.5637C149.672 98.7279 150.089 98.8132 150.51 98.8144L150.53 98.8244Z" fill="#EAECF1"/>
<path d="M156.45 204.214C156.52 205.434 156.6 206.664 156.68 207.894C156.86 210.524 157.12 213.144 157.21 215.764C157.29 218.224 156.09 219.694 154.14 219.764C152.19 219.834 150.8 218.584 150.53 216.154C150.26 213.724 150.16 211.274 149.95 208.834C149.85 207.664 149.68 206.504 149.53 205.234C144.53 204.234 144.68 199.414 142.6 196.014C142.16 197.334 141.88 198.484 141.41 199.544C141.125 200.371 140.528 201.052 139.748 201.445C138.967 201.837 138.063 201.909 137.23 201.644C136.828 201.541 136.452 201.354 136.125 201.097C135.799 200.84 135.529 200.518 135.333 200.151C135.138 199.785 135.021 199.382 134.989 198.967C134.958 198.553 135.012 198.136 135.15 197.744C136.49 192.744 138.04 187.874 139.64 182.984C140.29 180.984 141.27 179.184 142.22 176.984C140.798 175.843 139.67 174.378 138.93 172.711C138.191 171.044 137.862 169.225 137.97 167.404C138.109 165.025 139.066 162.768 140.68 161.014C142.298 159.208 144.494 158.021 146.891 157.656C149.289 157.291 151.738 157.771 153.82 159.014C158.82 161.954 160.27 167.014 157.98 174.114C159.66 175.624 161.5 177.184 163.24 178.864C166.24 181.764 169.16 184.724 172.1 187.664C172.345 187.934 172.559 188.229 172.74 188.544C173.92 190.384 173.89 192.054 172.74 193.284C171.59 194.514 169.87 194.514 167.87 193.114C167.65 192.964 167.42 192.834 167.03 192.604C167.13 194.494 167.62 196.354 167.19 197.964C166.76 199.574 165.41 200.964 164.19 202.784C164.6 203.784 165.27 205.204 165.89 206.694C166.414 207.849 166.865 209.034 167.24 210.244C167.559 211.069 167.536 211.987 167.178 212.795C166.82 213.603 166.155 214.236 165.33 214.554C164.505 214.873 163.588 214.85 162.78 214.492C161.971 214.134 161.339 213.469 161.02 212.644C160.07 210.644 159.34 208.644 158.49 206.644C158.11 205.754 157.65 204.904 157.22 204.034L156.45 204.214ZM160.53 196.154C159.78 192.754 159.13 189.774 158.53 186.794C158.017 184.017 156.465 181.539 154.19 179.864C151.79 178.084 149.66 178.504 148.03 181.064C147.544 181.762 147.222 182.561 147.089 183.401C146.955 184.241 147.014 185.1 147.26 185.914C148.15 189.124 149.02 192.344 149.94 195.544C150.21 196.464 150.64 197.334 151.04 198.354L160.53 196.154ZM148.53 164.544C148.031 164.521 147.531 164.603 147.065 164.785C146.599 164.967 146.176 165.244 145.824 165.599C145.471 165.954 145.197 166.38 145.019 166.847C144.841 167.315 144.763 167.815 144.79 168.314C144.79 169.375 145.212 170.393 145.962 171.143C146.712 171.893 147.73 172.314 148.79 172.314C149.267 172.307 149.738 172.205 150.175 172.015C150.612 171.826 151.008 171.552 151.34 171.209C151.671 170.866 151.932 170.462 152.107 170.018C152.282 169.575 152.368 169.101 152.36 168.624C152.394 168.102 152.321 167.579 152.145 167.087C151.97 166.594 151.695 166.143 151.338 165.76C150.981 165.378 150.549 165.073 150.07 164.864C149.591 164.655 149.073 164.546 148.55 164.544H148.53Z" fill="#3558A2"/>
<path d="M176.101 150.815C171.191 149.995 171.971 145.455 170.381 142.155C169.921 143.075 169.611 143.835 169.191 144.505C167.981 146.395 165.961 147.005 164.281 146.035C162.601 145.065 162.281 143.465 163.071 141.305C164.691 136.985 166.191 132.625 167.771 128.305C168.273 126.859 168.858 125.444 169.521 124.065C170.051 122.985 170.271 122.165 169.271 121.165C165.981 117.895 165.851 113.925 167.131 109.785C167.729 107.96 168.894 106.373 170.458 105.258C172.021 104.142 173.901 103.556 175.821 103.585C183.591 103.695 188.101 110.355 185.391 117.725C185.201 118.225 184.991 118.725 184.691 119.445L190.951 125.985C191.581 124.775 192.211 123.735 192.681 122.635C193.151 121.535 193.261 120.535 193.681 119.525C193.925 118.694 194.47 117.985 195.211 117.537C195.951 117.089 196.833 116.935 197.681 117.105C198.485 117.326 199.173 117.846 199.606 118.558C200.039 119.27 200.184 120.12 200.011 120.935C199.401 125.065 198.081 128.995 194.301 131.295C193.532 131.65 192.924 132.28 192.597 133.061C192.269 133.842 192.246 134.718 192.531 135.515C192.841 136.935 193.001 138.375 193.261 139.805C193.801 142.715 193.761 145.455 190.891 147.505C191.691 149.905 192.491 152.195 193.211 154.505C193.639 155.689 193.934 156.916 194.091 158.165C194.202 159.034 193.967 159.912 193.435 160.608C192.903 161.304 192.119 161.763 191.251 161.885C189.621 162.105 188.251 161.155 187.621 159.275C186.711 156.625 185.831 153.955 184.951 151.275C184.711 150.535 184.741 149.455 183.531 149.755C182.321 150.055 182.861 151.045 182.881 151.755C182.991 155.115 183.201 158.465 183.141 161.815C183.105 162.964 182.642 164.059 181.841 164.885C181.405 165.175 180.912 165.369 180.395 165.456C179.878 165.542 179.348 165.518 178.841 165.385C178.178 165.187 177.601 164.771 177.202 164.205C176.803 163.64 176.605 162.956 176.641 162.265C176.461 159.005 176.331 155.745 176.171 152.485C176.191 152.085 176.161 151.635 176.101 150.815ZM186.721 142.075C186.121 138.445 185.401 135.265 185.141 132.075C184.831 128.315 182.011 126.515 179.651 124.385C179.441 124.14 179.17 123.955 178.865 123.851C178.56 123.746 178.232 123.724 177.916 123.789C177.6 123.853 177.307 124 177.067 124.216C176.827 124.432 176.649 124.708 176.551 125.015C175.661 127.355 174.551 129.675 175.471 132.345C175.805 133.662 176.062 134.998 176.241 136.345C176.781 138.775 177.381 141.185 178.001 143.815L186.721 142.075ZM173.331 113.745C173.271 115.745 174.331 117.205 175.891 117.265C176.802 117.209 177.661 116.817 178.3 116.165C178.939 115.513 179.313 114.647 179.351 113.735C179.385 113.283 179.322 112.83 179.165 112.404C179.009 111.979 178.763 111.593 178.445 111.271C178.126 110.948 177.743 110.698 177.319 110.537C176.896 110.375 176.443 110.307 175.991 110.335C174.361 110.305 173.391 111.555 173.331 113.735V113.745Z" fill="#3558A2"/>
<path d="M123.92 123.224C124.48 120.694 123.92 119.414 122.68 118.064C120.921 116.122 119.994 113.567 120.099 110.949C120.203 108.331 121.331 105.859 123.24 104.064C125.005 102.391 127.344 101.459 129.775 101.459C132.207 101.459 134.546 102.391 136.31 104.064C137.569 105.192 138.508 106.631 139.035 108.237C139.561 109.843 139.656 111.559 139.31 113.214C139.17 113.994 139.09 114.784 138.97 115.714C142.436 116.715 145.622 118.505 148.28 120.944C149.038 121.57 149.71 122.293 150.28 123.094C150.733 123.662 150.98 124.367 150.98 125.094C150.98 125.82 150.733 126.525 150.28 127.094C149.879 127.654 149.298 128.06 148.633 128.242C147.968 128.424 147.261 128.372 146.63 128.094L144.89 127.484C145.89 130.484 145.89 133.094 143.38 135.044C144.47 137.044 145.5 138.834 146.47 140.664C146.904 141.463 147.256 142.304 147.52 143.174C147.819 143.992 147.803 144.892 147.473 145.698C147.144 146.504 146.526 147.159 145.74 147.534C144.1 148.244 142.47 147.624 141.4 145.784C140.68 144.534 140.1 143.194 139.4 141.914C139.097 141.298 138.607 140.794 138 140.474C138.25 141.724 138.51 142.974 138.74 144.234C138.997 145.29 139.181 146.362 139.29 147.444C139.369 148.266 139.154 149.089 138.683 149.768C138.213 150.447 137.518 150.938 136.72 151.154C136.296 151.252 135.857 151.264 135.429 151.189C135 151.114 134.591 150.954 134.225 150.718C133.86 150.482 133.545 150.175 133.3 149.815C133.056 149.456 132.886 149.05 132.8 148.624C132.206 146.253 131.735 143.853 131.39 141.434C131.369 140.877 131.194 140.336 130.883 139.873C130.572 139.411 130.138 139.044 129.63 138.814C128.576 138.137 127.734 137.177 127.2 136.044C126.646 135.002 126.277 133.872 126.11 132.704C126.07 131.993 125.787 131.318 125.308 130.792C124.829 130.266 124.184 129.92 123.48 129.814C118.48 128.564 115.65 124.814 113.72 120.324C113.393 119.589 113.346 118.759 113.588 117.992C113.83 117.224 114.343 116.571 115.033 116.156C115.722 115.741 116.539 115.592 117.33 115.737C118.122 115.882 118.833 116.311 119.33 116.944C120.03 117.764 120.43 118.824 121.07 119.694C121.81 120.814 122.69 121.754 123.92 123.224ZM130.92 121.444L132.86 132.174L138.64 130.064L134.07 120.504L130.92 121.444ZM132.6 111.444C132.624 111.039 132.563 110.634 132.422 110.254C132.281 109.873 132.063 109.527 131.781 109.235C131.499 108.944 131.16 108.714 130.784 108.561C130.409 108.407 130.006 108.333 129.6 108.344C128.871 108.422 128.2 108.776 127.724 109.334C127.247 109.892 127.003 110.611 127.04 111.344C127.005 111.748 127.052 112.154 127.178 112.539C127.304 112.925 127.506 113.28 127.774 113.585C128.041 113.89 128.367 114.137 128.733 114.312C129.098 114.487 129.495 114.586 129.9 114.604C130.682 114.535 131.406 114.162 131.916 113.566C132.427 112.97 132.683 112.197 132.63 111.414L132.6 111.444Z" fill="#3558A2"/>
<path d="M207.2 169.864C207.246 170.381 207.185 170.902 207.023 171.395C206.861 171.887 206.6 172.342 206.257 172.731C205.914 173.12 205.495 173.435 205.026 173.658C204.558 173.88 204.049 174.005 203.531 174.025C201.641 174.025 200.341 172.535 200.311 170.414C200.311 167.994 201.62 166.324 203.63 166.264C204.105 166.255 204.576 166.341 205.015 166.519C205.455 166.697 205.853 166.963 206.187 167.299C206.521 167.636 206.783 168.037 206.957 168.478C207.131 168.919 207.214 169.391 207.2 169.864V169.864Z" fill="#3558A2"/>
<path d="M193.531 182.734C194.005 182.75 194.471 182.862 194.899 183.065C195.328 183.267 195.71 183.556 196.023 183.912C196.336 184.268 196.573 184.684 196.719 185.135C196.865 185.586 196.917 186.063 196.871 186.534C196.908 186.962 196.857 187.393 196.721 187.8C196.585 188.208 196.367 188.583 196.08 188.902C195.793 189.222 195.444 189.479 195.054 189.659C194.663 189.838 194.241 189.935 193.811 189.945C193.338 189.95 192.868 189.86 192.431 189.678C191.994 189.496 191.599 189.227 191.27 188.887C190.94 188.548 190.683 188.144 190.515 187.702C190.347 187.259 190.271 186.787 190.291 186.314C190.26 185.865 190.32 185.413 190.467 184.987C190.615 184.561 190.847 184.169 191.149 183.835C191.452 183.501 191.819 183.231 192.228 183.042C192.637 182.853 193.081 182.748 193.531 182.734V182.734Z" fill="#3558A2"/>
<path d="M150.51 98.8144C150.082 98.8226 149.657 98.744 149.26 98.5834C148.863 98.4227 148.503 98.1833 148.201 97.8796C147.899 97.5758 147.662 97.2141 147.504 96.8162C147.345 96.4182 147.269 95.9924 147.28 95.5643C147.289 95.1147 147.388 94.6715 147.572 94.261C147.755 93.8506 148.02 93.4813 148.349 93.1752C148.679 92.8692 149.066 92.6325 149.489 92.4794C149.912 92.3263 150.361 92.2599 150.81 92.2842C151.233 92.3121 151.645 92.4231 152.025 92.6107C152.404 92.7982 152.743 93.0588 153.021 93.3773C153.3 93.6959 153.513 94.0663 153.648 94.4673C153.784 94.8683 153.839 95.2921 153.81 95.7143C153.806 96.1371 153.715 96.5546 153.545 96.9417C153.375 97.3288 153.129 97.6775 152.82 97.967C152.512 98.2565 152.149 98.4808 151.752 98.6264C151.355 98.772 150.933 98.836 150.51 98.8144V98.8144Z" fill="#3558A2"/>
<path d="M160.53 196.154L151 198.354C150.6 197.354 150.17 196.464 149.9 195.544C148.98 192.344 148.11 189.124 147.22 185.914C146.973 185.1 146.915 184.241 147.048 183.401C147.182 182.561 147.503 181.762 147.99 181.064C149.62 178.504 151.75 178.064 154.15 179.864C156.425 181.539 157.977 184.016 158.49 186.794C159.13 189.814 159.78 192.754 160.53 196.154Z" fill="white"/>
<path d="M148.55 164.544C149.071 164.547 149.587 164.657 150.064 164.866C150.542 165.075 150.971 165.38 151.327 165.761C151.683 166.142 151.957 166.591 152.133 167.082C152.309 167.573 152.383 168.094 152.35 168.614C152.358 169.091 152.272 169.565 152.097 170.008C151.922 170.452 151.661 170.856 151.33 171.199C150.998 171.542 150.602 171.816 150.165 172.005C149.727 172.195 149.257 172.297 148.78 172.304C147.719 172.304 146.702 171.883 145.952 171.133C145.202 170.383 144.78 169.365 144.78 168.304C144.754 167.803 144.834 167.302 145.014 166.833C145.195 166.364 145.472 165.939 145.827 165.584C146.183 165.23 146.609 164.954 147.078 164.775C147.547 164.596 148.049 164.517 148.55 164.544V164.544Z" fill="white"/>
<path d="M186.721 142.066L178.001 143.776C177.381 141.146 176.781 138.776 176.241 136.306C176.062 134.958 175.804 133.623 175.471 132.306C174.551 129.636 175.661 127.306 176.551 124.976C176.648 124.668 176.826 124.392 177.066 124.177C177.306 123.961 177.599 123.813 177.915 123.749C178.232 123.685 178.559 123.706 178.864 123.811C179.169 123.916 179.441 124.101 179.651 124.346C182.011 126.476 184.831 128.276 185.141 132.036C185.401 135.256 186.121 138.436 186.721 142.066Z" fill="white"/>
<path d="M173.331 113.735C173.391 111.555 174.331 110.305 175.991 110.325C176.443 110.296 176.896 110.365 177.319 110.526C177.742 110.688 178.126 110.938 178.444 111.26C178.763 111.582 179.008 111.969 179.165 112.394C179.321 112.819 179.384 113.273 179.351 113.725C179.313 114.637 178.938 115.503 178.299 116.155C177.66 116.807 176.802 117.198 175.891 117.255C174.301 117.195 173.271 115.815 173.331 113.735Z" fill="white"/>
<path d="M130.9 121.446L134.05 120.506L138.62 130.066L132.84 132.176L130.9 121.446Z" fill="white"/>
<path d="M132.63 111.415C132.662 112.182 132.399 112.931 131.895 113.51C131.391 114.088 130.684 114.451 129.92 114.525C129.515 114.508 129.118 114.408 128.753 114.233C128.387 114.058 128.061 113.811 127.794 113.506C127.526 113.202 127.324 112.846 127.198 112.461C127.072 112.075 127.025 111.669 127.06 111.265C127.023 110.533 127.267 109.813 127.743 109.256C128.219 108.698 128.891 108.343 129.62 108.265C130.031 108.253 130.44 108.327 130.82 108.483C131.2 108.638 131.543 108.872 131.827 109.169C132.111 109.466 132.329 109.82 132.467 110.207C132.606 110.594 132.661 111.005 132.63 111.415Z" fill="white"/>
<path d="M85.4406 120.815C86.2964 116.134 86.2964 111.337 85.4406 106.655C85.188 105.23 85.124 103.778 85.2506 102.335C85.6006 98.9054 87.9506 97.4854 91.2506 98.4954C94.2506 99.4354 97.2506 100.395 100.351 101.195C101.888 101.617 103.501 101.69 105.07 101.408C106.64 101.126 108.126 100.496 109.421 99.5654C113.351 97.0305 116.174 93.0997 117.321 88.5654C118.561 83.7354 119.741 78.8954 121.151 74.1154C122.035 71.3539 123.087 68.6489 124.301 66.0154C125.601 62.9911 127.861 60.4785 130.731 58.8654C131.493 58.3735 132.367 58.0809 133.272 58.0145C134.177 57.9481 135.084 58.11 135.911 58.4854C138.161 59.4854 140.401 60.4854 142.591 61.4854C149.198 64.9011 156.16 67.5837 163.351 69.4854C168.611 70.7754 173.971 70.7754 179.351 70.8254C184.914 70.7064 190.381 72.2981 195.011 75.3854C196.511 76.3854 198.011 77.3855 199.621 78.2755C203.811 80.8477 208.728 81.9785 213.621 81.4954C216.621 81.2054 219.531 80.7754 222.481 80.3854C223.474 80.1983 224.501 80.4001 225.35 80.9492C226.199 81.4983 226.804 82.3526 227.041 83.3354C227.212 83.9435 227.289 84.5741 227.271 85.2054C227.071 94.5354 226.821 103.875 226.621 113.205C226.553 116.68 225.115 119.987 222.621 122.405C218.141 127.025 218.531 135.135 223.561 139.115C228.128 142.734 231.553 147.596 233.421 153.115C234.661 156.625 235.901 160.115 237.251 163.585C239.21 168.789 242.381 173.451 246.501 177.185C247.111 177.725 247.701 178.295 248.271 178.875C251.011 181.695 251.541 183.875 249.341 187.165C243.341 196.075 236.421 204.055 225.751 207.645C221.551 209.065 217.371 210.645 213.131 211.885C203.061 214.955 196.831 221.605 194.131 231.715C193.521 233.985 192.801 236.235 192.001 238.445C190.801 241.825 188.721 242.935 185.431 241.585C181.431 239.935 177.231 239.365 173.021 238.795C171.399 238.57 169.753 238.6 168.141 238.885C163.467 239.69 158.67 239.378 154.141 237.975C152.401 237.485 150.671 236.975 148.931 236.455C144.244 234.915 139.172 235.017 134.551 236.745C131.331 238.038 127.81 238.385 124.401 237.745C121.651 237.205 118.871 236.745 116.181 235.945C113.071 235.055 112.041 233.075 112.801 229.945C114.822 221.386 116.086 212.666 116.581 203.885C117.177 195.026 114.733 186.227 109.651 178.945C103.001 169.205 94.0406 162.065 84.0905 156.085C77.2594 152.12 70.0876 148.774 62.6606 146.085C58.7606 144.615 54.9305 142.965 51.0905 141.355C50.7021 141.219 50.3446 141.007 50.0383 140.731C49.732 140.456 49.4829 140.123 49.3055 139.752C49.1281 139.38 49.0257 138.977 49.0042 138.566C48.9828 138.155 49.0428 137.743 49.1806 137.355C49.4594 136.407 49.9559 135.538 50.6306 134.815C58.0906 127.345 66.7206 122.205 77.5606 121.565C80.1206 121.425 82.7206 121.075 85.4406 120.815ZM57.9106 137.365C59.0806 137.855 59.9706 138.245 60.9106 138.605C66.2906 140.775 71.7506 142.765 77.0406 145.135C89.1621 150.369 100.101 157.999 109.201 167.565C119.011 178.065 124.281 190.325 123.201 204.865C122.811 210.285 121.991 215.665 121.291 221.055C120.921 223.985 120.401 226.885 119.941 229.805C124.681 231.485 129.121 231.735 133.691 229.935C135.661 229.29 137.709 228.91 139.781 228.805C145.241 228.235 150.371 229.805 155.511 231.315C158.451 232.205 161.461 233.215 164.581 232.575C171.361 231.175 177.911 232.365 184.431 234.085C184.931 234.215 185.431 234.255 185.991 234.345C186.921 231.635 187.781 229.065 188.661 226.505C191.921 217.015 198.111 210.305 207.561 206.775C211.891 205.165 216.231 203.515 220.671 202.265C230.741 199.425 237.391 192.485 243.061 184.265C243.141 184.145 243.061 183.915 243.061 183.735L243.471 183.335C242.776 182.903 242.108 182.428 241.471 181.915C236.517 177.34 232.744 171.634 230.471 165.285C229.471 162.485 228.331 159.695 227.401 156.855C225.681 151.645 223.001 147.185 218.491 143.855C215.522 141.529 213.589 138.127 213.111 134.385C211.981 127.925 212.991 122.095 217.911 117.385C218.533 116.789 219.019 116.064 219.333 115.261C219.647 114.458 219.783 113.596 219.731 112.735C219.731 110.565 219.871 108.385 219.921 106.205C220.054 100.405 220.167 94.6054 220.261 88.8054C220.261 88.5654 220.051 88.3254 219.921 88.0554C213.161 88.9054 206.441 88.9854 200.111 86.1654C196.757 84.5736 193.528 82.7318 190.451 80.6555C187.276 78.6883 183.615 77.6491 179.881 77.6555C177.611 77.6555 175.341 77.5654 173.071 77.5654C167.985 77.4935 162.935 76.7023 158.071 75.2155C151.659 73.235 145.444 70.6709 139.501 67.5554C137.421 66.5554 135.311 65.5554 132.801 64.3154C131.271 67.6154 129.571 70.5354 128.551 73.6654C126.751 79.1754 125.301 84.7954 123.841 90.3954C122.596 95.2641 119.912 99.6446 116.141 102.965C110.961 107.635 105.031 109.675 98.0705 107.825C96.2605 107.345 94.4305 106.955 92.4505 106.475C92.4505 107.055 92.4505 107.395 92.4505 107.725C93.0226 112.601 92.9385 117.532 92.2005 122.385C91.6005 126.115 90.2806 127.385 86.5006 127.695C82.7206 128.005 78.9006 128.255 75.1306 128.805C68.6283 129.761 62.5981 132.759 57.9106 137.365V137.365Z" fill="#3558A2"/>
<path d="M57.9102 137.364C62.5948 132.723 68.6375 129.696 75.1602 128.724C78.9302 128.174 82.7402 127.964 86.5302 127.614C90.3202 127.264 91.6301 126.034 92.2301 122.304C92.9681 117.451 93.0521 112.52 92.4801 107.644C92.4801 107.314 92.4801 106.974 92.4801 106.394C94.4801 106.874 96.2901 107.264 98.1001 107.744C105.1 109.594 110.99 107.554 116.17 102.884C119.942 99.5635 122.625 95.1831 123.87 90.3144C125.33 84.7144 126.78 79.0944 128.58 73.5844C129.58 70.4544 131.3 67.5844 132.83 64.2344C135.34 65.4444 137.45 66.4244 139.53 67.4744C145.473 70.5898 151.689 73.1539 158.1 75.1344C162.964 76.6213 168.014 77.4124 173.1 77.4844C175.37 77.4844 177.64 77.4844 179.91 77.5744C183.644 77.568 187.306 78.6072 190.48 80.5744C193.557 82.6508 196.786 84.4926 200.14 86.0844C206.47 88.9044 213.14 88.8244 219.95 87.9744C220.08 88.2444 220.29 88.4844 220.29 88.7244C220.19 94.5244 220.077 100.324 219.95 106.124C219.95 108.304 219.74 110.484 219.76 112.654C219.812 113.515 219.677 114.377 219.362 115.18C219.048 115.983 218.563 116.708 217.94 117.304C213.02 122.034 212.01 127.864 213.14 134.304C213.618 138.046 215.551 141.448 218.52 143.774C223.03 147.124 225.71 151.584 227.43 156.774C228.36 159.614 229.43 162.404 230.5 165.204C232.773 171.553 236.547 177.259 241.5 181.834C242.138 182.347 242.806 182.822 243.5 183.254L243.09 183.654C243.09 183.834 243.16 184.064 243.09 184.184C237.42 192.424 230.77 199.364 220.7 202.184C216.26 203.434 211.92 205.084 207.59 206.694C198.14 210.224 191.95 216.934 188.69 226.424C187.81 228.984 186.95 231.554 186.02 234.264C185.47 234.174 184.96 234.134 184.46 234.004C177.94 232.284 171.39 231.094 164.61 232.494C161.49 233.134 158.48 232.124 155.54 231.234C150.4 229.684 145.27 228.154 139.81 228.724C137.739 228.829 135.691 229.209 133.72 229.854C129.15 231.654 124.72 231.404 119.97 229.724C120.43 226.804 120.97 223.904 121.32 220.974C122.02 215.584 122.84 210.204 123.23 204.784C124.23 190.244 119 177.984 109.23 167.484C100.131 157.918 89.1916 150.288 77.0701 145.054C71.7801 142.684 66.3202 140.694 60.9402 138.524C59.9702 138.244 59.0802 137.814 57.9102 137.364ZM156.45 204.214L157.19 204.074C157.62 204.944 158.08 205.794 158.46 206.684C159.31 208.684 160.04 210.744 160.99 212.684C161.308 213.509 161.941 214.174 162.75 214.532C163.558 214.89 164.475 214.913 165.3 214.594C166.125 214.276 166.79 213.643 167.148 212.835C167.506 212.027 167.528 211.109 167.21 210.284C166.834 209.074 166.383 207.888 165.86 206.734C165.24 205.244 164.57 203.734 164.16 202.824C165.36 200.964 166.71 199.614 167.16 198.004C167.61 196.394 167.1 194.534 167 192.644C167.39 192.874 167.62 193.004 167.84 193.154C169.84 194.554 171.44 194.614 172.71 193.324C173.98 192.034 173.94 190.424 172.71 188.584C172.529 188.269 172.314 187.974 172.07 187.704C169.13 184.764 166.2 181.804 163.21 178.904C161.47 177.224 159.63 175.664 157.95 174.154C160.24 167.104 158.76 161.994 153.79 159.054C151.708 157.811 149.258 157.331 146.861 157.696C144.464 158.061 142.268 159.248 140.65 161.054C139.036 162.808 138.079 165.065 137.94 167.444C137.832 169.265 138.161 171.084 138.9 172.751C139.64 174.418 140.768 175.883 142.19 177.024C141.24 179.194 140.26 181.024 139.61 183.024C138.01 187.914 136.46 192.824 135.12 197.784C134.982 198.176 134.927 198.593 134.959 199.007C134.99 199.421 135.108 199.825 135.303 200.191C135.499 200.558 135.768 200.88 136.095 201.137C136.421 201.394 136.798 201.58 137.2 201.684C138.033 201.949 138.936 201.877 139.717 201.485C140.498 201.092 141.095 200.411 141.38 199.584C141.85 198.524 142.13 197.374 142.57 196.054C144.65 199.454 144.48 204.324 149.5 205.274C149.65 206.544 149.82 207.704 149.92 208.874C150.13 211.314 150.23 213.764 150.5 216.194C150.77 218.624 152.15 219.914 154.11 219.804C156.07 219.694 157.26 218.214 157.18 215.804C157.09 213.184 156.83 210.564 156.65 207.934C156.63 206.664 156.52 205.434 156.45 204.214ZM176.1 150.814C176.16 151.644 176.19 152.094 176.21 152.544C176.37 155.804 176.5 159.064 176.68 162.324C176.644 163.016 176.842 163.699 177.241 164.265C177.64 164.831 178.217 165.246 178.88 165.444C179.387 165.577 179.917 165.601 180.434 165.515C180.951 165.429 181.444 165.234 181.88 164.944C182.68 164.119 183.144 163.024 183.18 161.874C183.24 158.524 183.03 155.174 182.92 151.814C182.92 151.054 182.41 150.054 183.57 149.814C184.73 149.574 184.75 150.594 184.99 151.334C185.87 153.994 186.75 156.664 187.66 159.334C188.3 161.214 189.66 162.164 191.29 161.944C192.158 161.823 192.942 161.364 193.474 160.667C194.005 159.971 194.241 159.093 194.13 158.224C193.973 156.976 193.678 155.748 193.25 154.564C192.53 152.244 191.73 149.954 190.93 147.564C193.8 145.564 193.84 142.774 193.3 139.864C193.04 138.434 192.88 136.994 192.57 135.574C192.285 134.777 192.308 133.902 192.636 133.121C192.963 132.34 193.571 131.71 194.34 131.354C198.12 129.054 199.44 125.124 200.05 120.994C200.223 120.179 200.078 119.329 199.645 118.617C199.212 117.905 198.523 117.386 197.72 117.164C196.872 116.994 195.99 117.149 195.25 117.597C194.509 118.045 193.963 118.754 193.72 119.584C193.32 120.584 193.15 121.694 192.72 122.694C192.29 123.694 191.62 124.834 190.99 126.044L184.73 119.504C185.03 118.774 185.24 118.284 185.43 117.784C188.14 110.414 183.63 103.784 175.86 103.644C173.94 103.615 172.06 104.201 170.497 105.317C168.933 106.432 167.767 108.019 167.17 109.844C165.89 113.984 166.02 117.954 169.31 121.224C170.31 122.224 170.09 123.044 169.56 124.124C168.897 125.503 168.312 126.919 167.81 128.364C166.23 132.704 164.73 137.064 163.11 141.364C162.31 143.524 162.65 145.144 164.32 146.094C165.99 147.044 168.02 146.454 169.23 144.564C169.65 143.894 169.96 143.134 170.42 142.214C171.97 145.444 171.19 149.984 176.1 150.814ZM123.92 123.234C122.69 121.764 121.81 120.794 121.04 119.744C120.4 118.874 120.04 117.814 119.3 116.994C118.803 116.362 118.092 115.932 117.3 115.787C116.509 115.642 115.692 115.791 115.002 116.207C114.313 116.622 113.799 117.275 113.558 118.042C113.316 118.81 113.363 119.639 113.69 120.374C115.62 124.864 118.41 128.614 123.45 129.864C124.154 129.971 124.799 130.317 125.278 130.843C125.757 131.369 126.04 132.044 126.08 132.754C126.247 133.923 126.616 135.053 127.17 136.094C127.72 137.213 128.572 138.155 129.63 138.814C130.158 139.04 130.61 139.413 130.933 139.888C131.256 140.363 131.435 140.92 131.45 141.494C131.795 143.914 132.265 146.314 132.86 148.684C132.945 149.111 133.115 149.516 133.36 149.876C133.605 150.236 133.919 150.543 134.285 150.779C134.65 151.015 135.06 151.175 135.488 151.25C135.917 151.325 136.356 151.313 136.78 151.214C137.577 150.999 138.273 150.508 138.743 149.829C139.213 149.15 139.428 148.327 139.35 147.504C139.241 146.423 139.057 145.35 138.8 144.294C138.57 143.034 138.31 141.784 138.06 140.534C138.667 140.855 139.157 141.359 139.46 141.974C140.14 143.254 140.72 144.594 141.46 145.844C142.53 147.684 144.16 148.304 145.8 147.594C146.586 147.219 147.204 146.565 147.533 145.759C147.862 144.952 147.879 144.052 147.58 143.234C147.316 142.364 146.964 141.523 146.53 140.724C145.53 138.894 144.53 137.094 143.44 135.104C145.94 133.104 145.99 130.524 144.95 127.544L146.69 128.154C147.321 128.432 148.028 128.485 148.693 128.303C149.357 128.12 149.939 127.715 150.34 127.154C150.793 126.586 151.039 125.881 151.039 125.154C151.039 124.428 150.793 123.723 150.34 123.154C149.77 122.354 149.098 121.631 148.34 121.004C145.682 118.566 142.496 116.776 139.03 115.774C139.15 114.844 139.23 114.054 139.37 113.274C139.716 111.62 139.621 109.904 139.094 108.298C138.568 106.692 137.628 105.253 136.37 104.124C134.605 102.452 132.266 101.52 129.835 101.52C127.404 101.52 125.065 102.452 123.3 104.124C121.391 105.919 120.263 108.392 120.158 111.01C120.054 113.628 120.981 116.183 122.74 118.124C123.91 119.414 124.48 120.694 123.92 123.224V123.234ZM207.2 169.874C207.214 169.4 207.131 168.929 206.957 168.488C206.783 168.047 206.521 167.646 206.187 167.309C205.853 166.972 205.454 166.707 205.015 166.529C204.575 166.351 204.104 166.265 203.63 166.274C201.63 166.334 200.29 168.004 200.31 170.424C200.31 172.544 201.64 174.004 203.53 174.034C204.049 174.015 204.559 173.89 205.029 173.667C205.498 173.444 205.917 173.128 206.261 172.737C206.604 172.347 206.864 171.891 207.026 171.398C207.187 170.904 207.247 170.382 207.2 169.864V169.874ZM193.53 182.744C193.08 182.758 192.636 182.863 192.227 183.052C191.818 183.241 191.451 183.511 191.148 183.845C190.846 184.179 190.614 184.571 190.466 184.997C190.319 185.423 190.259 185.875 190.29 186.324C190.27 186.797 190.346 187.269 190.514 187.712C190.682 188.154 190.939 188.558 191.269 188.897C191.598 189.237 191.993 189.506 192.43 189.688C192.867 189.87 193.337 189.96 193.81 189.954C194.239 189.945 194.662 189.848 195.052 189.669C195.443 189.489 195.792 189.232 196.079 188.912C196.366 188.593 196.584 188.218 196.72 187.81C196.856 187.403 196.907 186.972 196.87 186.544C196.917 186.072 196.866 185.594 196.721 185.142C196.576 184.69 196.339 184.272 196.026 183.915C195.713 183.558 195.33 183.269 194.901 183.066C194.471 182.863 194.005 182.75 193.53 182.734V182.744ZM150.53 98.8244C150.956 98.853 151.384 98.7943 151.787 98.6519C152.19 98.5094 152.559 98.2863 152.873 97.9961C153.187 97.7059 153.438 97.3547 153.611 96.9641C153.784 96.5735 153.876 96.1516 153.88 95.7244C153.909 95.3021 153.854 94.8784 153.718 94.4774C153.583 94.0764 153.37 93.706 153.091 93.3875C152.813 93.0689 152.474 92.8084 152.094 92.6208C151.715 92.4333 151.302 92.3223 150.88 92.2944C150.431 92.2701 149.982 92.3365 149.559 92.4896C149.136 92.6427 148.749 92.8793 148.419 93.1854C148.09 93.4915 147.825 93.8607 147.642 94.2712C147.458 94.6816 147.359 95.1248 147.35 95.5744C147.341 95.9957 147.416 96.4146 147.57 96.8067C147.725 97.1988 147.956 97.556 148.25 97.8577C148.544 98.1594 148.896 98.3994 149.284 98.5637C149.672 98.7279 150.089 98.8132 150.51 98.8144L150.53 98.8244Z" fill="#EAECF1"/>
<path d="M156.45 204.214C156.52 205.434 156.6 206.664 156.68 207.894C156.86 210.524 157.12 213.144 157.21 215.764C157.29 218.224 156.09 219.694 154.14 219.764C152.19 219.834 150.8 218.584 150.53 216.154C150.26 213.724 150.16 211.274 149.95 208.834C149.85 207.664 149.68 206.504 149.53 205.234C144.53 204.234 144.68 199.414 142.6 196.014C142.16 197.334 141.88 198.484 141.41 199.544C141.125 200.371 140.528 201.052 139.748 201.445C138.967 201.837 138.063 201.909 137.23 201.644C136.828 201.541 136.452 201.354 136.125 201.097C135.799 200.84 135.529 200.518 135.333 200.151C135.138 199.785 135.021 199.382 134.989 198.967C134.958 198.553 135.012 198.136 135.15 197.744C136.49 192.744 138.04 187.874 139.64 182.984C140.29 180.984 141.27 179.184 142.22 176.984C140.798 175.843 139.67 174.378 138.93 172.711C138.191 171.044 137.862 169.225 137.97 167.404C138.109 165.025 139.066 162.768 140.68 161.014C142.298 159.208 144.494 158.021 146.891 157.656C149.289 157.291 151.738 157.771 153.82 159.014C158.82 161.954 160.27 167.014 157.98 174.114C159.66 175.624 161.5 177.184 163.24 178.864C166.24 181.764 169.16 184.724 172.1 187.664C172.345 187.934 172.559 188.229 172.74 188.544C173.92 190.384 173.89 192.054 172.74 193.284C171.59 194.514 169.87 194.514 167.87 193.114C167.65 192.964 167.42 192.834 167.03 192.604C167.13 194.494 167.62 196.354 167.19 197.964C166.76 199.574 165.41 200.964 164.19 202.784C164.6 203.784 165.27 205.204 165.89 206.694C166.414 207.849 166.865 209.034 167.24 210.244C167.559 211.069 167.536 211.987 167.178 212.795C166.82 213.603 166.155 214.236 165.33 214.554C164.505 214.873 163.588 214.85 162.78 214.492C161.971 214.134 161.339 213.469 161.02 212.644C160.07 210.644 159.34 208.644 158.49 206.644C158.11 205.754 157.65 204.904 157.22 204.034L156.45 204.214ZM160.53 196.154C159.78 192.754 159.13 189.774 158.53 186.794C158.017 184.017 156.465 181.539 154.19 179.864C151.79 178.084 149.66 178.504 148.03 181.064C147.544 181.762 147.222 182.561 147.089 183.401C146.955 184.241 147.014 185.1 147.26 185.914C148.15 189.124 149.02 192.344 149.94 195.544C150.21 196.464 150.64 197.334 151.04 198.354L160.53 196.154ZM148.53 164.544C148.031 164.521 147.531 164.603 147.065 164.785C146.599 164.967 146.176 165.244 145.824 165.599C145.471 165.954 145.197 166.38 145.019 166.847C144.841 167.315 144.763 167.815 144.79 168.314C144.79 169.375 145.212 170.393 145.962 171.143C146.712 171.893 147.73 172.314 148.79 172.314C149.267 172.307 149.738 172.205 150.175 172.015C150.612 171.826 151.008 171.552 151.34 171.209C151.671 170.866 151.932 170.462 152.107 170.018C152.282 169.575 152.368 169.101 152.36 168.624C152.394 168.102 152.321 167.579 152.145 167.087C151.97 166.594 151.695 166.143 151.338 165.76C150.981 165.378 150.549 165.073 150.07 164.864C149.591 164.655 149.073 164.546 148.55 164.544H148.53Z" fill="#3558A2"/>
<path d="M176.101 150.815C171.191 149.995 171.971 145.455 170.381 142.155C169.921 143.075 169.611 143.835 169.191 144.505C167.981 146.395 165.961 147.005 164.281 146.035C162.601 145.065 162.281 143.465 163.071 141.305C164.691 136.985 166.191 132.625 167.771 128.305C168.273 126.859 168.858 125.444 169.521 124.065C170.051 122.985 170.271 122.165 169.271 121.165C165.981 117.895 165.851 113.925 167.131 109.785C167.729 107.96 168.894 106.373 170.458 105.258C172.021 104.142 173.901 103.556 175.821 103.585C183.591 103.695 188.101 110.355 185.391 117.725C185.201 118.225 184.991 118.725 184.691 119.445L190.951 125.985C191.581 124.775 192.211 123.735 192.681 122.635C193.151 121.535 193.261 120.535 193.681 119.525C193.925 118.694 194.47 117.985 195.211 117.537C195.951 117.089 196.833 116.935 197.681 117.105C198.485 117.326 199.173 117.846 199.606 118.558C200.039 119.27 200.184 120.12 200.011 120.935C199.401 125.065 198.081 128.995 194.301 131.295C193.532 131.65 192.924 132.28 192.597 133.061C192.269 133.842 192.246 134.718 192.531 135.515C192.841 136.935 193.001 138.375 193.261 139.805C193.801 142.715 193.761 145.455 190.891 147.505C191.691 149.905 192.491 152.195 193.211 154.505C193.639 155.689 193.934 156.916 194.091 158.165C194.202 159.034 193.967 159.912 193.435 160.608C192.903 161.304 192.119 161.763 191.251 161.885C189.621 162.105 188.251 161.155 187.621 159.275C186.711 156.625 185.831 153.955 184.951 151.275C184.711 150.535 184.741 149.455 183.531 149.755C182.321 150.055 182.861 151.045 182.881 151.755C182.991 155.115 183.201 158.465 183.141 161.815C183.105 162.964 182.642 164.059 181.841 164.885C181.405 165.175 180.912 165.369 180.395 165.456C179.878 165.542 179.348 165.518 178.841 165.385C178.178 165.187 177.601 164.771 177.202 164.205C176.803 163.64 176.605 162.956 176.641 162.265C176.461 159.005 176.331 155.745 176.171 152.485C176.191 152.085 176.161 151.635 176.101 150.815ZM186.721 142.075C186.121 138.445 185.401 135.265 185.141 132.075C184.831 128.315 182.011 126.515 179.651 124.385C179.441 124.14 179.17 123.955 178.865 123.851C178.56 123.746 178.232 123.724 177.916 123.789C177.6 123.853 177.307 124 177.067 124.216C176.827 124.432 176.649 124.708 176.551 125.015C175.661 127.355 174.551 129.675 175.471 132.345C175.805 133.662 176.062 134.998 176.241 136.345C176.781 138.775 177.381 141.185 178.001 143.815L186.721 142.075ZM173.331 113.745C173.271 115.745 174.331 117.205 175.891 117.265C176.802 117.209 177.661 116.817 178.3 116.165C178.939 115.513 179.313 114.647 179.351 113.735C179.385 113.283 179.322 112.83 179.165 112.404C179.009 111.979 178.763 111.593 178.445 111.271C178.126 110.948 177.743 110.698 177.319 110.537C176.896 110.375 176.443 110.307 175.991 110.335C174.361 110.305 173.391 111.555 173.331 113.735V113.745Z" fill="#3558A2"/>
<path d="M123.92 123.224C124.48 120.694 123.92 119.414 122.68 118.064C120.921 116.122 119.994 113.567 120.099 110.949C120.203 108.331 121.331 105.859 123.24 104.064C125.005 102.391 127.344 101.459 129.775 101.459C132.207 101.459 134.546 102.391 136.31 104.064C137.569 105.192 138.508 106.631 139.035 108.237C139.561 109.843 139.656 111.559 139.31 113.214C139.17 113.994 139.09 114.784 138.97 115.714C142.436 116.715 145.622 118.505 148.28 120.944C149.038 121.57 149.71 122.293 150.28 123.094C150.733 123.662 150.98 124.367 150.98 125.094C150.98 125.82 150.733 126.525 150.28 127.094C149.879 127.654 149.298 128.06 148.633 128.242C147.968 128.424 147.261 128.372 146.63 128.094L144.89 127.484C145.89 130.484 145.89 133.094 143.38 135.044C144.47 137.044 145.5 138.834 146.47 140.664C146.904 141.463 147.256 142.304 147.52 143.174C147.819 143.992 147.803 144.892 147.473 145.698C147.144 146.504 146.526 147.159 145.74 147.534C144.1 148.244 142.47 147.624 141.4 145.784C140.68 144.534 140.1 143.194 139.4 141.914C139.097 141.298 138.607 140.794 138 140.474C138.25 141.724 138.51 142.974 138.74 144.234C138.997 145.29 139.181 146.362 139.29 147.444C139.369 148.266 139.154 149.089 138.683 149.768C138.213 150.447 137.518 150.938 136.72 151.154C136.296 151.252 135.857 151.264 135.429 151.189C135 151.114 134.591 150.954 134.225 150.718C133.86 150.482 133.545 150.175 133.3 149.815C133.056 149.456 132.886 149.05 132.8 148.624C132.206 146.253 131.735 143.853 131.39 141.434C131.369 140.877 131.194 140.336 130.883 139.873C130.572 139.411 130.138 139.044 129.63 138.814C128.576 138.137 127.734 137.177 127.2 136.044C126.646 135.002 126.277 133.872 126.11 132.704C126.07 131.993 125.787 131.318 125.308 130.792C124.829 130.266 124.184 129.92 123.48 129.814C118.48 128.564 115.65 124.814 113.72 120.324C113.393 119.589 113.346 118.759 113.588 117.992C113.83 117.224 114.343 116.571 115.033 116.156C115.722 115.741 116.539 115.592 117.33 115.737C118.122 115.882 118.833 116.311 119.33 116.944C120.03 117.764 120.43 118.824 121.07 119.694C121.81 120.814 122.69 121.754 123.92 123.224ZM130.92 121.444L132.86 132.174L138.64 130.064L134.07 120.504L130.92 121.444ZM132.6 111.444C132.624 111.039 132.563 110.634 132.422 110.254C132.281 109.873 132.063 109.527 131.781 109.235C131.499 108.944 131.16 108.714 130.784 108.561C130.409 108.407 130.006 108.333 129.6 108.344C128.871 108.422 128.2 108.776 127.724 109.334C127.247 109.892 127.003 110.611 127.04 111.344C127.005 111.748 127.052 112.154 127.178 112.539C127.304 112.925 127.506 113.28 127.774 113.585C128.041 113.89 128.367 114.137 128.733 114.312C129.098 114.487 129.495 114.586 129.9 114.604C130.682 114.535 131.406 114.162 131.916 113.566C132.427 112.97 132.683 112.197 132.63 111.414L132.6 111.444Z" fill="#3558A2"/>
<path d="M207.2 169.864C207.246 170.381 207.185 170.902 207.023 171.395C206.861 171.887 206.6 172.342 206.257 172.731C205.914 173.12 205.495 173.435 205.026 173.658C204.558 173.88 204.049 174.005 203.531 174.025C201.641 174.025 200.341 172.535 200.311 170.414C200.311 167.994 201.62 166.324 203.63 166.264C204.105 166.255 204.576 166.341 205.015 166.519C205.455 166.697 205.853 166.963 206.187 167.299C206.521 167.636 206.783 168.037 206.957 168.478C207.131 168.919 207.214 169.391 207.2 169.864V169.864Z" fill="#3558A2"/>
<path d="M193.531 182.734C194.005 182.75 194.471 182.862 194.899 183.065C195.328 183.267 195.71 183.556 196.023 183.912C196.336 184.268 196.573 184.684 196.719 185.135C196.865 185.586 196.917 186.063 196.871 186.534C196.908 186.962 196.857 187.393 196.721 187.8C196.585 188.208 196.367 188.583 196.08 188.902C195.793 189.222 195.444 189.479 195.054 189.659C194.663 189.838 194.241 189.935 193.811 189.945C193.338 189.95 192.868 189.86 192.431 189.678C191.994 189.496 191.599 189.227 191.27 188.887C190.94 188.548 190.683 188.144 190.515 187.702C190.347 187.259 190.271 186.787 190.291 186.314C190.26 185.865 190.32 185.413 190.467 184.987C190.615 184.561 190.847 184.169 191.149 183.835C191.452 183.501 191.819 183.231 192.228 183.042C192.637 182.853 193.081 182.748 193.531 182.734V182.734Z" fill="#3558A2"/>
<path d="M150.51 98.8144C150.082 98.8226 149.657 98.744 149.26 98.5834C148.863 98.4227 148.503 98.1833 148.201 97.8796C147.899 97.5758 147.662 97.2141 147.504 96.8162C147.345 96.4182 147.269 95.9924 147.28 95.5643C147.289 95.1147 147.388 94.6715 147.572 94.261C147.755 93.8506 148.02 93.4813 148.349 93.1752C148.679 92.8692 149.066 92.6325 149.489 92.4794C149.912 92.3263 150.361 92.2599 150.81 92.2842C151.233 92.3121 151.645 92.4231 152.025 92.6107C152.404 92.7982 152.743 93.0588 153.021 93.3773C153.3 93.6959 153.513 94.0663 153.648 94.4673C153.784 94.8683 153.839 95.2921 153.81 95.7143C153.806 96.1371 153.715 96.5546 153.545 96.9417C153.375 97.3288 153.129 97.6775 152.82 97.967C152.512 98.2565 152.149 98.4808 151.752 98.6264C151.355 98.772 150.933 98.836 150.51 98.8144V98.8144Z" fill="#3558A2"/>
<path d="M160.53 196.154L151 198.354C150.6 197.354 150.17 196.464 149.9 195.544C148.98 192.344 148.11 189.124 147.22 185.914C146.973 185.1 146.915 184.241 147.048 183.401C147.182 182.561 147.503 181.762 147.99 181.064C149.62 178.504 151.75 178.064 154.15 179.864C156.425 181.539 157.977 184.016 158.49 186.794C159.13 189.814 159.78 192.754 160.53 196.154Z" fill="white"/>
<path d="M148.55 164.544C149.071 164.547 149.587 164.657 150.064 164.866C150.542 165.075 150.971 165.38 151.327 165.761C151.683 166.142 151.957 166.591 152.133 167.082C152.309 167.573 152.383 168.094 152.35 168.614C152.358 169.091 152.272 169.565 152.097 170.008C151.922 170.452 151.661 170.856 151.33 171.199C150.998 171.542 150.602 171.816 150.165 172.005C149.727 172.195 149.257 172.297 148.78 172.304C147.719 172.304 146.702 171.883 145.952 171.133C145.202 170.383 144.78 169.365 144.78 168.304C144.754 167.803 144.834 167.302 145.014 166.833C145.195 166.364 145.472 165.939 145.827 165.584C146.183 165.23 146.609 164.954 147.078 164.775C147.547 164.596 148.049 164.517 148.55 164.544V164.544Z" fill="white"/>
<path d="M186.721 142.066L178.001 143.776C177.381 141.146 176.781 138.776 176.241 136.306C176.062 134.958 175.804 133.623 175.471 132.306C174.551 129.636 175.661 127.306 176.551 124.976C176.648 124.668 176.826 124.392 177.066 124.177C177.306 123.961 177.599 123.813 177.915 123.749C178.232 123.685 178.559 123.706 178.864 123.811C179.169 123.916 179.441 124.101 179.651 124.346C182.011 126.476 184.831 128.276 185.141 132.036C185.401 135.256 186.121 138.436 186.721 142.066Z" fill="white"/>
<path d="M173.331 113.735C173.391 111.555 174.331 110.305 175.991 110.325C176.443 110.296 176.896 110.365 177.319 110.526C177.742 110.688 178.126 110.938 178.444 111.26C178.763 111.582 179.008 111.969 179.165 112.394C179.321 112.819 179.384 113.273 179.351 113.725C179.313 114.637 178.938 115.503 178.299 116.155C177.66 116.807 176.802 117.198 175.891 117.255C174.301 117.195 173.271 115.815 173.331 113.735Z" fill="white"/>
<path d="M130.9 121.446L134.05 120.506L138.62 130.066L132.84 132.176L130.9 121.446Z" fill="white"/>
<path d="M132.63 111.415C132.662 112.182 132.399 112.931 131.895 113.51C131.391 114.088 130.684 114.451 129.92 114.525C129.515 114.508 129.118 114.408 128.753 114.233C128.387 114.058 128.061 113.811 127.794 113.506C127.526 113.202 127.324 112.846 127.198 112.461C127.072 112.075 127.025 111.669 127.06 111.265C127.023 110.533 127.267 109.813 127.743 109.256C128.219 108.698 128.891 108.343 129.62 108.265C130.031 108.253 130.44 108.327 130.82 108.483C131.2 108.638 131.543 108.872 131.827 109.169C132.111 109.466 132.329 109.82 132.467 110.207C132.606 110.594 132.661 111.005 132.63 111.415Z" fill="white"/>
</svg>
