<svg width="300" height="300" viewBox="0 0 300 300" fill="none" xmlns="http://www.w3.org/2000/svg">
<path d="M108.211 92.5193C106.861 91.5893 106.071 90.9993 105.211 90.5193C100.445 87.3549 96.1123 83.5832 92.3211 79.2993C90.323 77.1744 88.8683 74.5979 88.0811 71.7893C87.6151 70.1255 87.5106 68.3813 87.7744 66.6737C88.0383 64.9662 88.6646 63.3348 89.6111 61.8893C90.2832 60.7447 91.2001 59.763 92.2962 59.0144C93.3923 58.2658 94.6404 57.7689 95.9511 57.5593C101.551 56.5593 106.501 57.8893 110.021 62.5593C111.698 65.0329 113.208 67.6152 114.541 70.2893C115.011 71.1293 115.391 72.0293 116.131 73.5393L119.801 61.0993C119.801 60.9293 119.801 60.7393 119.861 60.5593C120.321 58.0993 122.111 56.6593 124.201 57.0693C126.291 57.4793 127.661 59.6293 127.071 62.0693C126.703 63.7651 126.225 65.4353 125.641 67.0693C123.201 73.6393 121.941 80.4993 120.501 87.3193C120.329 88.3689 120.216 89.4272 120.161 90.4893C132.421 93.7493 139.331 101.389 140.411 114.269L142.471 113.269C148.471 110.439 154.831 108.359 161.541 108.269C165.681 108.219 169.831 108.979 173.971 109.399C174.861 109.489 175.741 109.699 176.671 109.859C177.951 108.319 179.191 106.859 180.381 105.409C184.311 100.559 189.381 97.0093 194.381 93.4093C198.501 90.4593 202.931 87.9393 207.211 85.2193C208.211 84.5893 209.151 83.8893 210.131 83.2193C211.801 82.1293 213.351 82.2193 214.611 83.3793C215.261 83.9681 215.657 84.7865 215.715 85.6616C215.773 86.5368 215.488 87.4001 214.921 88.0693C213.908 89.2196 212.724 90.2078 211.411 90.9993C209.261 92.3593 206.991 93.5093 204.801 94.7793C204.111 95.1793 203.511 95.6993 202.801 96.2493C206.981 96.7193 210.921 97.1393 214.871 97.6093C223.422 98.7101 231.813 100.815 239.871 103.879C243.341 105.159 244.241 108.059 242.001 111.039C237.441 117.119 231.521 120.949 223.731 121.579C211.351 122.579 200.301 118.899 190.101 112.159C188.901 111.359 187.731 110.539 186.361 109.609L183.761 112.609L187.421 114.609C196.421 119.359 202.011 126.889 204.991 136.499C207.691 145.239 206.481 153.499 201.991 161.379C199.461 165.789 196.991 170.229 192.911 173.519C191.651 174.519 190.371 175.519 189.031 176.619C188.991 176.951 188.991 177.287 189.031 177.619C191.961 190.509 189.611 202.619 183.551 214.149C177.381 225.899 167.551 233.729 155.961 239.519C151.577 241.515 146.875 242.717 142.071 243.069C136.566 243.704 131.012 243.785 125.491 243.309C117.519 242.546 109.855 239.841 103.171 235.429C97.6133 231.804 92.5393 227.486 88.0711 222.579C83.4229 217.557 79.919 211.587 77.8011 205.079C77.6253 204.399 77.2882 203.771 76.8181 203.249C76.3481 202.727 75.7592 202.326 75.1011 202.079C73.4511 201.33 71.9345 200.317 70.6111 199.079C67.9111 196.659 65.311 194.079 62.771 191.539C59.271 187.989 57.511 183.539 56.641 178.729C55.5864 172.81 55.8355 166.732 57.371 160.919C59.371 153.199 63.731 146.919 69.641 141.719C71.341 140.219 73.021 138.719 74.781 137.249C78.6379 134.047 81.8166 130.106 84.131 125.659C86.931 120.379 89.6511 115.029 91.9611 109.519C95.1711 101.909 99.4811 95.5793 108.211 92.5193ZM129.921 236.629C133.441 236.459 136.981 236.409 140.501 236.089C146.588 235.685 152.472 233.741 157.601 230.439C159.481 229.169 161.391 227.949 163.231 226.619C171.902 220.469 178.202 211.533 181.081 201.299C181.795 198.673 182.323 196 182.661 193.299C183.451 187.849 183.391 182.419 181.221 177.299C180.001 174.379 178.521 171.559 177.031 168.759C176.569 167.981 175.867 167.374 175.031 167.029C172.534 165.971 169.972 165.073 167.361 164.339C165.69 163.975 163.974 163.871 162.271 164.029C156.271 164.409 150.541 166.219 144.741 167.599C139.005 169.112 132.931 168.701 127.451 166.429C123.861 164.919 120.271 163.429 116.761 161.729C112.704 159.901 108.29 159.002 103.841 159.099C101.932 159.104 100.052 159.571 98.3611 160.459C93.8396 162.862 90.1174 166.532 87.651 171.019C82.081 180.419 81.3911 190.549 84.0511 200.949C85.9657 208.199 89.853 214.776 95.281 219.949C104.941 229.439 115.701 236.539 129.921 236.629V236.629ZM132.111 160.549C132.237 159.964 132.307 159.368 132.321 158.769C131.981 154.109 131.071 149.629 128.581 145.559C126.221 141.686 123.961 137.756 121.801 133.769C120.7 131.689 119.79 129.514 119.081 127.269C118.785 126.442 118.815 125.534 119.164 124.728C119.513 123.922 120.155 123.279 120.961 122.929C122.691 122.189 124.451 122.869 125.561 124.719C125.797 125.109 125.995 125.521 126.151 125.949C128.031 130.999 130.961 135.489 133.671 140.099C133.966 140.499 134.301 140.868 134.671 141.199C137.461 138.379 137.531 138.089 136.261 134.669C136.131 134.329 135.971 133.999 135.871 133.669C135.211 131.419 134.491 129.179 133.871 126.899C132.914 122.366 132.578 117.723 132.871 113.099C133.028 110.627 132.29 108.182 130.791 106.209C128.832 103.847 126.66 101.672 124.301 99.7093C123.106 98.8991 121.735 98.3881 120.301 98.2193C115.521 97.2993 111.151 98.5993 107.031 100.939C102.911 103.279 100.811 107.359 98.9211 111.539C96.5611 116.739 94.1811 121.929 91.5811 127.009C88.5426 133.231 84.2292 138.744 78.9211 143.189C77.3711 144.439 75.921 145.779 74.381 147.099C65.051 155.279 61.7511 165.599 63.7011 177.709C64.1627 181.061 65.6751 184.181 68.021 186.619C69.661 188.309 71.2911 190.019 72.9611 191.679C73.6511 192.359 74.4511 192.929 75.5611 193.839C75.5611 191.899 75.5611 190.459 75.5611 189.019C75.7411 176.779 80.1611 166.389 89.1911 158.089C92.5947 154.757 97.0168 152.663 101.751 152.139C107.732 151.577 113.757 152.583 119.231 155.059C122.291 156.409 125.321 157.849 128.391 159.199C129.571 159.689 130.801 160.059 132.111 160.549V160.549ZM143.231 132.549C146.491 130.309 149.511 128.149 152.621 126.129C156.424 123.593 160.947 122.358 165.511 122.609C173.111 123.009 177.371 129.609 174.511 136.609C173.505 139.207 171.992 141.578 170.061 143.585C168.129 145.592 165.818 147.194 163.261 148.299C160.401 149.579 157.391 150.489 154.331 151.609L156.521 157.609L157.791 157.419C161.191 156.879 164.601 156.119 168.021 157.149C171.155 158.025 174.236 159.077 177.251 160.299C178.91 160.925 180.42 161.889 181.686 163.13C182.951 164.371 183.944 165.863 184.601 167.509C184.97 168.335 185.398 169.134 185.881 169.899C186.671 169.289 187.171 168.899 187.661 168.519C191.381 165.519 193.731 161.519 195.881 157.469C198.321 152.849 199.881 148.059 198.881 142.609C196.881 131.349 190.881 123.459 180.271 119.129C176.981 121.939 174.031 120.949 173.331 116.859C163.571 113.739 150.441 115.749 140.511 122.859C140.878 126.227 141.797 129.511 143.231 132.579V132.549ZM192.131 104.829C192.701 105.319 193.011 105.619 193.351 105.879C199.031 110.199 205.611 112.469 212.441 114.069C216.802 115.029 221.32 115.029 225.681 114.069C228.79 113.514 231.602 111.877 233.621 109.449L232.201 108.969C226.539 107.043 220.701 105.68 214.771 104.899C210.011 104.319 205.211 103.899 200.411 103.819C197.613 103.711 194.816 104.062 192.131 104.859V104.829ZM140.801 145.119C143.081 145.119 144.801 145.209 146.491 145.119C151.568 144.963 156.55 143.704 161.091 141.429C164.11 139.906 166.476 137.341 167.751 134.209C168.831 131.479 167.871 129.999 165.001 129.819C162.566 129.679 160.14 130.226 158.001 131.399C151.531 134.759 146.301 139.589 140.801 145.119ZM111.391 85.8593C111.502 85.5354 111.576 85.1999 111.611 84.8593C110.722 78.5437 108.354 72.5273 104.701 67.2993C103.768 66.0821 102.499 65.1644 101.051 64.6593C99.3811 64.0593 97.4011 63.8293 95.9811 65.4093C95.3071 66.0979 94.873 66.9853 94.7433 67.9401C94.6136 68.8948 94.7951 69.8659 95.261 70.7093C95.8085 71.9473 96.5476 73.0913 97.4511 74.0993C100.261 76.9093 103.151 79.6593 106.161 82.2593C107.82 83.5681 109.56 84.7705 111.371 85.8593H111.391ZM147.021 152.229C145.541 152.369 144.201 152.469 142.861 152.619C141.521 152.769 140.191 152.149 138.981 153.029C139.281 155.799 139.561 158.459 139.881 161.379L149.341 159.159C148.511 156.729 147.801 154.609 147.001 152.229H147.021Z" fill="#3558A2"/>
<path d="M129.921 236.629C115.701 236.539 104.921 229.439 95.3211 219.929C89.893 214.756 86.0057 208.179 84.0911 200.929C81.4311 190.529 82.0911 180.399 87.6911 170.999C90.1574 166.512 93.8795 162.842 98.401 160.439C100.091 159.551 101.971 159.085 103.881 159.079C108.33 158.982 112.744 159.881 116.801 161.709C120.311 163.399 123.901 164.899 127.491 166.409C132.971 168.681 139.045 169.092 144.781 167.579C150.581 166.199 156.311 164.389 162.311 164.009C164.014 163.851 165.73 163.955 167.401 164.319C170.012 165.053 172.574 165.951 175.071 167.009C175.907 167.354 176.609 167.961 177.071 168.739C178.561 171.539 180.071 174.359 181.261 177.279C183.431 182.439 183.491 187.869 182.701 193.279C182.363 195.98 181.835 198.653 181.121 201.279C178.234 211.498 171.935 220.42 163.271 226.559C161.431 227.889 159.521 229.109 157.641 230.379C152.512 233.681 146.628 235.625 140.541 236.029C136.981 236.409 133.441 236.459 129.921 236.629Z" fill="white"/>
<path d="M132.112 160.55C130.772 160.06 129.572 159.69 128.432 159.18C125.362 157.83 122.332 156.39 119.272 155.04C113.798 152.564 107.774 151.558 101.792 152.12C97.0581 152.644 92.636 154.739 89.2324 158.07C80.2324 166.37 75.7823 176.76 75.6023 189C75.6023 190.44 75.6023 191.88 75.6023 193.82C74.4923 192.91 73.6923 192.34 73.0023 191.66C71.3323 190 69.7023 188.29 68.0623 186.6C65.7164 184.162 64.2039 181.043 63.7422 177.69C61.7422 165.58 65.0923 155.26 74.4223 147.08C75.9223 145.76 77.4223 144.42 78.9623 143.17C84.2704 138.725 88.5838 133.212 91.6222 126.99C94.2222 121.91 96.6223 116.72 98.9623 111.52C100.852 107.34 102.872 103.3 107.072 100.92C111.272 98.5404 115.562 97.2804 120.342 98.2004C121.776 98.3692 123.148 98.8802 124.342 99.6905C126.701 101.653 128.874 103.829 130.832 106.19C132.331 108.163 133.069 110.608 132.912 113.08C132.619 117.705 132.955 122.347 133.912 126.88C134.482 129.16 135.202 131.4 135.912 133.65C136.012 134 136.172 134.33 136.302 134.65C137.572 138.07 137.502 138.36 134.712 141.18C134.343 140.849 134.007 140.48 133.712 140.08C131.002 135.47 128.072 130.98 126.192 125.93C126.036 125.502 125.839 125.09 125.602 124.7C124.492 122.85 122.732 122.17 121.002 122.91C120.197 123.26 119.554 123.903 119.205 124.709C118.856 125.515 118.826 126.424 119.122 127.25C119.831 129.495 120.741 131.67 121.842 133.75C123.996 137.75 126.256 141.68 128.622 145.54C131.112 149.61 132.022 154.09 132.362 158.75C132.336 159.357 132.253 159.96 132.112 160.55Z" fill="#979FBB"/>
<path d="M143.23 132.58C141.788 129.519 140.859 126.242 140.48 122.88C150.41 115.76 163.54 113.75 173.3 116.88C174 120.97 176.95 121.96 180.24 119.15C190.81 123.48 196.83 131.37 198.85 142.63C199.85 148.08 198.32 152.87 195.85 157.49C193.7 161.58 191.35 165.59 187.63 168.54C187.14 168.93 186.63 169.31 185.85 169.92C185.367 169.154 184.94 168.356 184.57 167.53C183.913 165.883 182.92 164.392 181.655 163.15C180.389 161.909 178.879 160.945 177.22 160.32C174.206 159.097 171.124 158.045 167.99 157.17C164.57 156.17 161.16 156.9 157.76 157.44L156.49 157.63L154.3 151.63C157.36 150.51 160.37 149.63 163.23 148.32C165.782 147.224 168.092 145.632 170.025 143.638C171.957 141.643 173.475 139.285 174.49 136.7C177.34 129.63 173.08 123.07 165.49 122.7C160.926 122.448 156.404 123.684 152.6 126.22C149.51 128.18 146.49 130.3 143.23 132.58Z" fill="#EAECF1"/>
<path d="M192.131 104.859C194.815 104.059 197.612 103.704 200.411 103.809C205.211 103.929 210.011 104.309 214.771 104.889C220.701 105.67 226.539 107.033 232.201 108.959L233.621 109.439C231.602 111.867 228.79 113.504 225.681 114.059C221.32 115.019 216.802 115.019 212.441 114.059C205.611 112.459 199.031 110.189 193.351 105.869C193.011 105.649 192.701 105.349 192.131 104.859Z" fill="#979FBB"/>
<path d="M140.801 145.121C146.321 139.591 151.551 134.761 157.951 131.381C160.09 130.208 162.515 129.66 164.951 129.801C167.821 129.981 168.781 131.461 167.701 134.191C166.426 137.323 164.06 139.888 161.041 141.411C156.499 143.686 151.518 144.945 146.441 145.101C144.801 145.211 143.061 145.121 140.801 145.121Z" fill="#979FBB"/>
<path d="M111.372 85.8606C109.562 84.7847 107.822 83.5957 106.162 82.3006C103.162 79.7006 100.262 76.9506 97.4517 74.1406C96.5482 73.1326 95.8091 71.9886 95.2616 70.7506C94.7957 69.9072 94.6142 68.9361 94.7439 67.9813C94.8736 67.0266 95.3077 66.1391 95.9817 65.4506C97.4017 63.8705 99.3816 64.1005 101.052 64.7005C102.5 65.2056 103.769 66.1233 104.702 67.3406C108.338 72.5499 110.698 78.5411 111.592 84.8306C111.559 85.1814 111.485 85.5271 111.372 85.8606V85.8606Z" fill="#979FBB"/>
<path d="M147.001 152.23C147.801 154.61 148.511 156.73 149.321 159.16L139.861 161.38C139.541 158.46 139.261 155.8 138.961 153.03C140.171 152.15 141.551 152.78 142.841 152.62C144.131 152.46 145.521 152.37 147.001 152.23Z" fill="#979FBB"/>
</svg>
