<svg width="300" height="300" viewBox="0 0 300 300" fill="none" xmlns="http://www.w3.org/2000/svg">
<path d="M136.263 88.0163C137.16 83.5839 137.278 79.0294 136.613 74.5564C136.544 73.8347 136.544 73.108 136.613 72.3863C136.843 69.3863 138.143 68.0763 141.083 68.0063C143.163 67.9563 145.253 68.2163 147.343 68.2763L179.483 69.0963C183.563 69.1963 184.953 70.8363 184.553 74.9663C184.203 78.5663 183.893 82.1663 183.553 85.9664C185.223 86.5764 186.793 87.0263 188.253 87.7064C191.793 89.3364 195.343 90.9564 198.773 92.8164C199.347 93.2378 200.058 93.4284 200.765 93.3507C201.473 93.2729 202.125 92.9323 202.593 92.3964C204.963 90.2864 207.443 88.2963 209.933 86.3263C212.933 83.9963 214.773 84.0864 217.273 86.8064C225.473 95.7997 233.647 104.8 241.793 113.806C244.273 116.556 244.143 118.416 241.443 121.086C239.053 123.446 236.583 125.726 234.153 128.086C233.493 128.716 232.893 129.396 232.233 130.016C230.493 131.636 230.233 133.396 230.753 135.797C232.307 142.343 232.766 149.1 232.113 155.797C231.903 157.937 232.303 159.177 234.313 160.417C237.332 162.434 240.197 164.674 242.883 167.117C244.943 168.847 245.173 170.377 243.813 172.927C240.483 179.177 237.063 185.367 233.663 191.577C231.143 196.197 228.613 200.81 226.073 205.417C225.723 206.057 225.373 206.697 224.963 207.297C223.393 209.587 221.683 210.147 219.103 208.987C214.653 206.987 210.253 204.827 205.543 202.597C203.643 203.787 201.463 205.257 199.183 206.527C196.82 207.879 194.375 209.085 191.863 210.137C191.089 210.373 190.41 210.851 189.926 211.5C189.442 212.15 189.179 212.937 189.173 213.747C188.863 217.747 188.423 221.667 188.103 225.637C187.553 232.457 186.503 233.357 179.653 232.887C166.32 231.973 153.01 231.073 139.723 230.187C138.273 230.087 136.833 229.897 135.383 229.757C132.083 229.457 130.553 227.757 131.013 224.547C131.663 219.967 132.383 215.397 133.333 210.877C133.693 209.177 133.333 208.467 131.833 207.717C125.832 204.649 120.344 200.668 115.564 195.917C115.114 195.35 114.474 194.965 113.763 194.833C113.052 194.701 112.317 194.83 111.694 195.197C108.534 196.577 105.323 197.847 102.113 199.087C98.3334 200.537 96.4734 199.797 95.0034 196.087C90.3368 184.373 85.7268 172.647 81.1735 160.907C79.8635 157.557 80.5735 155.807 83.8135 154.307C87.0535 152.807 90.2635 151.427 93.5235 150.047C94.0751 149.862 94.5499 149.5 94.8738 149.017C95.1977 148.534 95.3524 147.957 95.3135 147.377C95.3725 144.473 95.623 141.577 96.0635 138.706C96.3079 137.782 96.2132 136.802 95.7968 135.941C95.3804 135.081 94.6698 134.398 93.7935 134.016L86.9734 130.016C86.3534 129.646 85.7134 129.306 85.0934 128.916C82.2234 127.076 81.6234 125.306 83.0934 122.256C86.1634 115.986 89.3434 109.766 92.4834 103.526C94.5934 99.3064 96.6834 95.0764 98.8534 90.8864C100.673 87.3563 102.193 86.7963 105.913 88.3263C110.773 90.3264 115.613 92.3264 120.403 94.5364C121.098 94.9304 121.891 95.1172 122.689 95.0747C123.486 95.0322 124.255 94.7621 124.903 94.2964C128.513 92.1364 132.323 90.1964 136.263 88.0163ZM177.263 76.2464L144.003 75.3164C144.003 79.6764 143.683 83.7564 144.113 87.7464C144.453 90.9764 142.393 93.5064 139.513 94.8764C135.539 96.6426 131.702 98.7016 128.033 101.036C125.033 103.036 122.324 103.476 119.194 101.856C118.624 101.566 118.043 101.326 117.453 101.076L104.533 95.6864C99.7935 105.126 95.1435 114.396 90.5335 123.566C94.2635 126.036 97.6734 128.407 101.203 130.567C102.201 131.113 102.999 131.963 103.481 132.993C103.963 134.023 104.104 135.181 103.883 136.297C103.363 141.157 102.994 146.037 102.574 150.897C102.567 151.854 102.279 152.788 101.746 153.583C101.212 154.377 100.457 154.998 99.5735 155.367C97.2435 156.367 94.9235 157.367 92.5735 158.367C91.2835 158.937 90.0135 159.557 88.5735 160.217C92.7635 170.847 96.8334 181.217 100.973 191.667C104.773 190.177 108.334 188.857 111.824 187.377C114.824 186.127 116.323 186.377 118.583 188.757C124.413 194.847 130.933 199.977 138.913 203.017C139.651 203.276 140.283 203.771 140.712 204.425C141.14 205.08 141.341 205.857 141.283 206.637C141.245 207.646 141.115 208.651 140.893 209.637C140.113 213.887 139.303 218.137 138.433 222.817L180.773 225.647C180.893 224.647 180.983 224.177 181.033 223.647C181.493 219.327 181.963 215.017 182.383 210.647C182.733 207.017 183.863 204.207 188.283 204.557C193.463 202.347 198.633 200.117 202.703 196.027C203.286 195.323 204.092 194.841 204.987 194.659C205.882 194.477 206.812 194.607 207.623 195.027C208.693 195.507 209.623 196.237 210.683 196.797C213.683 198.407 216.683 199.987 219.883 201.677C225.593 191.277 231.063 181.297 236.693 171.057C233.553 168.747 230.693 166.517 227.693 164.517C225.243 162.867 223.863 160.627 224.693 158.147C226.133 153.857 225.763 149.487 225.263 145.147C224.634 141.128 223.766 137.151 222.663 133.236C222.387 132.32 222.374 131.344 222.627 130.421C222.88 129.497 223.388 128.664 224.093 128.016C227.093 125.016 230.093 122.016 233.093 118.956C233.703 118.336 234.283 117.686 234.953 116.956L213.233 93.0164L202.513 101.066C200.703 102.416 199.383 102.386 197.593 100.986C196.648 100.148 195.645 99.3767 194.593 98.6764C189.736 95.8375 184.506 93.6933 179.053 92.3064C178.273 92.1411 177.572 91.7156 177.065 91.0997C176.558 90.4838 176.276 89.714 176.263 88.9164C176.263 86.7564 176.423 84.5864 176.603 82.4364C176.733 80.5564 176.993 78.6764 177.263 76.2464Z" fill="#3558A2"/>
<path d="M48.0521 98.9171C47.8205 102.321 48.8931 105.685 51.0521 108.327C54.2621 112.267 57.2621 116.387 61.7621 119.027C62.222 119.32 62.6539 119.655 63.0521 120.027C65.8921 122.467 66.052 125.027 63.372 127.707C62.8695 128.23 62.3168 128.702 61.722 129.117C52.552 135.577 47.5621 144.657 45.2721 155.417C44.8221 157.537 44.5621 159.697 44.1821 161.837C44.078 162.551 43.8969 163.252 43.6421 163.927C43.3538 164.698 42.814 165.349 42.1099 165.776C41.4059 166.202 40.5788 166.379 39.762 166.277C38.9498 166.137 38.2059 165.734 37.6443 165.131C37.0826 164.528 36.7341 163.757 36.6521 162.937C36.4021 160.777 36.332 158.597 36.102 156.437C35.542 151.307 35.1021 146.157 34.3121 141.067C33.4421 135.577 30.732 131.437 24.882 130.067C23.7314 129.81 22.6258 129.382 21.602 128.797C18.232 126.797 18.1321 123.357 21.3221 121.137C21.9821 120.667 22.7621 120.357 23.4121 119.867C27.1221 117.127 30.912 114.477 34.472 111.557C37.872 108.777 39.2921 104.857 39.9021 100.617C39.9145 99.4415 40.0757 98.2721 40.382 97.137C40.8736 95.8093 41.7045 94.6336 42.7921 93.7271C44.9821 92.1771 47.682 93.6171 47.992 96.2971C48.0569 97.1688 48.077 98.0433 48.0521 98.9171V98.9171ZM30.262 124.347C38.012 127.737 40.5721 134.207 42.0421 141.577C45.2421 134.507 50.4221 129.167 55.7821 124.407L43.8921 111.407C40.6021 116.767 35.612 120.377 30.262 124.347Z" fill="#3558A2"/>
<path d="M265.123 149.177C265.393 144.677 265.893 140.177 265.873 135.687C265.875 127.15 264.559 118.663 261.973 110.527C261.189 108.314 260.236 106.164 259.123 104.097C258.023 101.887 258.243 99.8471 259.893 98.7471C261.543 97.6471 263.603 98.1871 265.083 100.157C267.533 103.417 268.703 107.267 269.673 111.157C272.313 121.577 273.893 132.157 272.673 142.937C272.443 144.997 272.453 147.087 272.343 149.487C273.093 148.797 273.623 148.257 274.223 147.787C274.834 147.236 275.618 146.914 276.44 146.876C277.263 146.837 278.073 147.085 278.733 147.577C279.419 148.048 279.895 148.768 280.057 149.585C280.22 150.401 280.057 151.249 279.603 151.947C277.946 154.542 276.101 157.012 274.083 159.337C272.678 160.885 271.09 162.255 269.353 163.417C266.443 165.417 263.353 164.797 261.833 161.617C260.073 157.947 258.633 154.117 257.213 150.297C256.901 149.531 256.888 148.676 257.174 147.901C257.461 147.126 258.028 146.486 258.763 146.107C259.541 145.716 260.434 145.619 261.279 145.832C262.123 146.045 262.863 146.554 263.363 147.267C263.843 147.897 264.203 148.597 264.623 149.267L265.123 149.177Z" fill="#3558A2"/>
<path d="M177.262 76.2485C176.982 78.6785 176.722 80.5585 176.582 82.4485C176.402 84.5985 176.262 86.7685 176.242 88.9285C176.243 89.7536 176.534 90.5522 177.064 91.1846C177.594 91.817 178.33 92.2431 179.142 92.3884C184.594 93.7753 189.825 95.9196 194.682 98.7585C195.734 99.4587 196.736 100.231 197.682 101.068C199.472 102.468 200.792 102.498 202.602 101.148L213.322 93.0984L235.042 117.038C234.372 117.768 233.792 118.418 233.182 119.038C230.182 122.038 227.182 125.098 224.182 128.098C223.477 128.746 222.969 129.579 222.716 130.503C222.463 131.426 222.475 132.402 222.752 133.318C223.854 137.233 224.723 141.21 225.352 145.228C225.852 149.518 226.222 153.888 224.782 158.228C223.952 160.708 225.332 162.948 227.782 164.598C230.782 166.598 233.622 168.828 236.782 171.138C231.152 181.378 225.682 191.358 219.972 201.758C216.782 200.068 213.762 198.488 210.772 196.878C209.772 196.318 208.772 195.588 207.712 195.108C206.901 194.688 205.971 194.558 205.076 194.74C204.181 194.922 203.375 195.405 202.792 196.108C198.722 200.198 193.552 202.428 188.372 204.638C183.952 204.288 182.822 207.098 182.472 210.728C182.052 215.048 181.582 219.358 181.122 223.728C181.122 224.258 180.982 224.728 180.862 225.728L138.522 222.898C139.392 218.218 140.202 213.968 140.982 209.718C141.203 208.732 141.334 207.728 141.372 206.718C141.429 205.939 141.229 205.161 140.8 204.507C140.372 203.853 139.74 203.358 139.002 203.098C131.002 200.098 124.502 194.928 118.672 188.838C116.412 186.488 114.862 186.208 111.912 187.458C108.422 188.938 104.912 190.258 101.062 191.748C96.9221 181.268 92.8521 170.928 88.6621 160.298C90.0721 159.638 91.3421 159.018 92.6621 158.448C94.9821 157.448 97.3021 156.448 99.6621 155.448C100.545 155.08 101.301 154.459 101.834 153.665C102.368 152.87 102.656 151.936 102.662 150.978C103.082 146.118 103.452 141.238 103.972 136.378C104.193 135.263 104.052 134.105 103.57 133.075C103.088 132.045 102.29 131.195 101.292 130.648C97.7621 128.468 94.3521 126.098 90.6221 123.648C95.2321 114.478 99.8821 105.208 104.622 95.7684L117.542 101.158C118.132 101.408 118.712 101.648 119.282 101.938C122.412 103.558 125.122 103.158 128.122 101.118C131.791 98.7836 135.628 96.7246 139.602 94.9584C142.482 93.5884 144.542 91.0584 144.202 87.8284C143.772 83.8284 144.092 79.7584 144.092 75.3984L177.262 76.2485ZM162.882 192.248C169.994 192.301 177.024 190.724 183.432 187.638C191.883 183.653 198.811 177.032 203.175 168.771C207.539 160.51 209.103 151.055 207.632 141.828C204.852 124.568 192.432 110.828 174.082 106.578C162.909 103.898 151.133 105.658 141.232 111.488C133.614 115.767 127.472 122.255 123.618 130.096C119.763 137.937 118.377 146.763 119.642 155.408C122.982 176.698 141.132 192.028 162.892 192.248H162.882Z" fill="white"/>
<path d="M30.2637 124.347C35.6037 120.347 40.5937 116.767 43.8937 111.438L55.7837 124.437C50.4237 129.197 45.2437 134.537 42.0437 141.607C40.5837 134.207 38.0237 127.737 30.2637 124.347Z" fill="white"/>
<path d="M162.893 192.247C141.133 192.027 122.983 176.697 119.653 155.407C118.39 146.76 119.779 137.933 123.637 130.091C127.495 122.25 133.641 115.763 141.263 111.487C151.163 105.657 162.94 103.897 174.113 106.577C192.463 110.807 204.883 124.577 207.663 141.827C209.134 151.054 207.57 160.508 203.205 168.77C198.841 177.031 191.913 183.652 183.463 187.637C177.048 190.726 170.012 192.303 162.893 192.247V192.247ZM200.773 148.377C201.073 134.907 193.043 120.587 175.933 114.467C167.373 111.407 158.433 111.937 149.813 115.317C128.703 123.597 119.653 148.477 131.393 167.317C139.903 180.947 152.763 186.577 168.643 184.527C187.893 182.007 201.203 165.287 200.773 148.377V148.377Z" fill="#3558A2"/>
<path d="M200.774 148.378C201.204 165.288 187.894 182.008 168.644 184.498C152.764 186.498 139.904 180.918 131.394 167.288C119.654 148.478 128.704 123.598 149.814 115.288C158.434 111.908 167.374 111.378 175.934 114.438C193.044 120.588 201.074 134.918 200.774 148.378ZM178.434 147.618C178.514 139.948 173.304 132.618 163.374 132.358C154.484 132.158 146.734 140.358 146.754 149.458C146.73 151.46 147.104 153.446 147.853 155.303C148.603 157.159 149.714 158.849 151.121 160.273C152.528 161.697 154.204 162.827 156.052 163.599C157.899 164.371 159.881 164.768 161.884 164.768C170.844 164.768 178.464 156.918 178.434 147.618Z" fill="#979FBB"/>
<path d="M178.433 147.617C178.433 156.867 170.843 164.767 161.883 164.767C159.881 164.767 157.899 164.37 156.051 163.598C154.204 162.827 152.528 161.696 151.12 160.272C149.713 158.848 148.602 157.159 147.853 155.302C147.103 153.446 146.729 151.459 146.753 149.457C146.753 140.317 154.483 132.157 163.373 132.357C173.263 132.587 178.513 139.917 178.433 147.617ZM161.833 157.447C164.34 157.35 166.715 156.298 168.471 154.505C170.226 152.712 171.229 150.316 171.273 147.807C171.349 146.397 171.044 144.992 170.388 143.74C169.732 142.489 168.751 141.438 167.548 140.698C166.345 139.957 164.965 139.555 163.552 139.534C162.14 139.513 160.748 139.873 159.523 140.577C157.928 141.36 156.57 142.553 155.589 144.035C154.609 145.517 154.04 147.233 153.943 149.007C153.855 150.091 153.995 151.182 154.353 152.209C154.711 153.236 155.28 154.177 156.022 154.971C156.765 155.766 157.666 156.396 158.666 156.823C159.667 157.249 160.745 157.462 161.833 157.447V157.447Z" fill="#3558A2"/>
</svg>
