<svg width="300" height="300" viewBox="0 0 300 300" fill="none" xmlns="http://www.w3.org/2000/svg">
<path d="M120.872 123.498C120.042 114.668 119.232 106.088 118.432 97.498C118.092 93.798 117.712 90.0981 117.492 86.3781C117.272 82.6581 118.342 81.3781 121.932 80.7481C127.832 79.7481 133.755 78.8614 139.702 78.088C143.022 77.648 144.532 78.8381 145.452 82.0881C145.742 83.0881 145.982 84.1881 146.272 85.2281C146.272 85.3681 146.522 85.4681 146.882 85.7881C147.652 85.4581 148.542 85.0581 149.452 84.7181C160.072 80.7181 169.932 81.5781 178.612 89.4681C181.062 91.6981 181.282 93.218 179.882 96.248C179.162 97.808 178.422 99.3681 177.682 100.928C175.342 105.928 173.502 106.538 168.812 103.808C166.236 102.231 163.219 101.53 160.212 101.808C156.412 102.158 153.372 103.938 150.422 106.378C151.112 110.028 151.782 113.568 152.422 117.118C152.826 117.382 153.255 117.606 153.702 117.788C161.492 120.348 167.412 125.398 172.552 131.588C177.731 138.033 181.84 145.269 184.722 153.018C187.84 161.149 190.183 169.557 191.722 178.128C193.302 186.408 194.722 194.708 196.212 203.008C196.32 203.633 196.384 204.264 196.402 204.898C196.522 207.898 195.472 209.288 192.512 209.808C188.942 210.438 185.352 210.988 181.762 211.548L153.332 216.078L116.752 221.738C116.122 221.83 115.488 221.887 114.852 221.908C110.012 222.048 108.162 220.368 107.312 215.608C104.792 201.468 104.152 187.138 103.162 172.848C102.695 164.958 103.239 157.04 104.782 149.288C106.572 139.768 110.962 131.718 118.552 125.538C119.332 124.948 120.032 124.258 120.872 123.498ZM188.802 202.968C188.142 198.588 187.802 194.618 186.932 190.748C185.242 182.748 183.482 174.748 181.452 166.888C178.232 154.358 173.132 142.768 164.032 133.208C156.212 124.978 146.762 121.778 135.852 124.698C123.432 128.018 115.562 136.298 112.572 148.868C111.088 154.96 110.415 161.22 110.572 167.488C110.742 173.198 111.142 178.898 111.492 184.598C111.881 193.645 112.806 202.661 114.262 211.598C114.432 212.538 114.712 213.458 114.982 214.498L188.802 202.968ZM144.402 115.738C144.012 113.488 143.622 111.008 143.152 108.548C142.682 106.088 142.082 103.398 141.552 100.828C141.022 98.2581 140.642 95.8281 140.012 93.3781C139.382 90.9281 139.492 88.2081 138.182 85.8681L126.102 87.7081C125.856 87.7876 125.626 87.9094 125.422 88.0681C125.082 91.0681 127.712 117.248 128.422 118.748L144.402 115.738ZM171.502 96.5481C171.822 95.7781 172.142 94.9981 172.422 94.2981C166.422 88.3581 153.852 88.5581 148.032 94.6781L148.782 97.8481C160.592 93.4981 161.982 93.4181 171.502 96.5181V96.5481Z" fill="#3558A2"/>
<path d="M188.802 202.968L114.942 214.528C114.672 213.528 114.392 212.528 114.222 211.628C112.766 202.691 111.841 193.675 111.452 184.628C111.102 178.928 110.702 173.228 110.532 167.518C110.375 161.25 111.048 154.99 112.532 148.898C115.532 136.328 123.392 128.048 135.812 124.728C146.722 121.808 156.172 125.008 163.992 133.238C173.092 142.798 178.192 154.388 181.412 166.918C183.412 174.818 185.202 182.798 186.892 190.778C187.752 194.618 188.142 198.588 188.802 202.968ZM150.742 192.548C150.472 190.788 150.302 188.548 149.742 186.318C147.742 178.318 151.242 167.318 159.492 162.388C160.512 161.802 161.445 161.075 162.262 160.228C162.742 159.767 163.096 159.19 163.289 158.553C163.483 157.916 163.511 157.24 163.37 156.589C163.228 155.939 162.923 155.335 162.482 154.836C162.041 154.337 161.48 153.959 160.852 153.738C159.837 153.341 158.79 153.03 157.722 152.808C153.897 151.862 150.504 149.653 148.092 146.538C146.06 143.852 144.572 140.795 143.712 137.538C143.302 136.164 142.682 134.862 141.872 133.678C141.439 133.022 140.8 132.529 140.056 132.277C139.311 132.025 138.504 132.029 137.762 132.288C136.977 132.548 136.301 133.061 135.839 133.747C135.377 134.433 135.157 135.253 135.212 136.078C135.212 137.708 135.542 139.328 135.672 140.948C135.919 142.939 136.046 144.942 136.052 146.948C135.862 152.268 133.722 156.388 128.522 158.518C127.682 158.865 126.908 159.352 126.232 159.958C125.716 160.377 125.322 160.927 125.091 161.551C124.861 162.175 124.804 162.85 124.924 163.504C125.045 164.158 125.34 164.767 125.778 165.267C126.215 165.768 126.78 166.141 127.412 166.348C128.256 166.682 129.147 166.884 130.052 166.948C134.902 167.278 137.702 170.108 138.932 174.498C140.372 179.638 141.512 184.858 142.772 190.048C143.01 191.561 143.344 193.058 143.772 194.528C144.018 195.372 144.578 196.088 145.338 196.529C146.097 196.971 146.998 197.103 147.852 196.898C149.672 196.488 150.702 195.088 150.742 192.548Z" fill="white"/>
<path d="M144.401 115.737L128.401 118.737C127.691 117.237 125.061 91.0874 125.401 88.0574C125.605 87.8988 125.835 87.7769 126.081 87.6974L138.161 85.8574C139.471 88.1974 139.361 90.8574 139.991 93.3674C140.621 95.8774 140.991 98.3674 141.531 100.817C142.071 103.267 142.641 105.957 143.131 108.537C143.621 111.117 144.011 113.457 144.401 115.737Z" fill="#979FBB"/>
<path d="M171.501 96.5187C161.981 93.4187 160.591 93.5187 148.781 97.8187L148.031 94.6487C153.851 88.5287 166.371 88.3287 172.421 94.2687C172.141 94.9687 171.821 95.7387 171.501 96.5187Z" fill="white"/>
<path d="M150.743 192.548C150.743 195.088 149.673 196.488 147.923 196.868C147.068 197.072 146.168 196.94 145.409 196.499C144.649 196.058 144.088 195.341 143.843 194.498C143.415 193.027 143.081 191.531 142.843 190.018C141.583 184.828 140.443 179.608 139.003 174.468C137.773 170.078 135.003 167.248 130.123 166.918C129.217 166.854 128.327 166.651 127.483 166.318C126.851 166.111 126.286 165.737 125.848 165.237C125.411 164.736 125.116 164.127 124.995 163.473C124.874 162.819 124.932 162.145 125.162 161.521C125.392 160.897 125.786 160.346 126.303 159.928C126.979 159.321 127.753 158.834 128.593 158.488C133.793 156.358 135.933 152.238 136.123 146.918C136.117 144.912 135.99 142.908 135.743 140.918C135.613 139.298 135.283 137.678 135.283 136.048C135.228 135.223 135.448 134.403 135.91 133.717C136.371 133.031 137.048 132.517 137.833 132.258C138.575 131.999 139.382 131.995 140.126 132.247C140.871 132.498 141.51 132.991 141.943 133.648C142.752 134.831 143.373 136.133 143.783 137.508C144.643 140.764 146.131 143.821 148.163 146.508C150.575 149.623 153.968 151.832 157.793 152.778C158.86 152.999 159.907 153.31 160.923 153.708C161.551 153.928 162.112 154.306 162.553 154.805C162.993 155.305 163.299 155.908 163.44 156.559C163.582 157.209 163.554 157.885 163.36 158.522C163.166 159.159 162.813 159.736 162.333 160.198C161.516 161.044 160.583 161.772 159.563 162.358C151.313 167.358 147.843 178.288 149.813 186.288C150.333 188.508 150.473 190.788 150.743 192.548ZM143.083 152.678L138.453 161.238C140.453 163.378 142.503 165.598 144.533 167.768L151.323 158.828L143.083 152.678Z" fill="#3558A2"/>
<path d="M143.081 152.678L151.321 158.828L144.531 167.738C142.531 165.568 140.441 163.348 138.451 161.208L143.081 152.678Z" fill="#EAECF1"/>
</svg>
