<svg width="300" height="300" viewBox="0 0 300 300" fill="none" xmlns="http://www.w3.org/2000/svg">
<path d="M143.548 102.004C144.55 105.347 146.7 108.229 149.618 110.144C151.488 111.414 153.458 112.564 155.448 113.654C156.165 114.034 156.967 114.223 157.778 114.204C163.778 113.904 168.778 116.424 173.098 120.204C176.608 123.112 179.476 126.718 181.518 130.794C181.876 131.513 182.399 132.137 183.043 132.617C183.688 133.096 184.436 133.417 185.228 133.554C189.668 134.804 194.038 136.334 198.358 137.934C201.058 138.934 203.658 140.254 206.268 141.484C206.861 141.728 207.375 142.13 207.754 142.647C208.133 143.164 208.363 143.775 208.418 144.414C208.505 145.18 208.361 145.956 208.005 146.64C207.649 147.324 207.096 147.886 206.418 148.254C204.628 149.434 202.918 150.734 200.718 152.304C201.878 152.644 202.428 152.864 202.998 152.964C207.973 153.656 212.612 155.87 216.278 159.304C219.807 162.449 222.726 166.219 224.888 170.424C226.982 174.791 228.043 179.581 227.988 184.424C227.998 185.148 227.938 185.871 227.808 186.584C227.018 190.524 224.108 191.894 220.488 190.044C218.425 188.934 216.305 187.933 214.138 187.044C214.597 188.396 215.356 189.627 216.358 190.644C218.358 193.084 220.428 195.524 222.578 197.864C224.728 200.204 224.928 202.784 223.508 205.614C220.447 211.501 216.759 217.04 212.508 222.134C209.258 226.134 205.598 229.834 202.118 233.654C201.198 234.654 200.228 235.654 199.358 236.654C198.975 237.164 198.468 237.569 197.886 237.83C197.303 238.09 196.664 238.199 196.028 238.144C195.21 238.141 194.393 238.068 193.588 237.924C185.928 235.924 178.508 233.514 171.768 229.124C165.328 225.03 159.402 220.179 154.118 214.674C152.118 212.564 150.958 210.284 151.198 207.354L152.448 191.954C151.168 192.894 149.898 193.804 148.648 194.744C147.568 195.564 146.548 196.474 145.438 197.264C141.438 200.114 138.948 199.734 135.968 195.794L133.438 197.924C133.828 199.734 134.298 201.474 134.578 203.254C135.273 206.752 134.809 210.382 133.258 213.594C130.898 218.144 127.068 220.294 122.068 220.594C120.828 220.654 119.578 220.594 118.248 220.594C117.988 221.684 117.798 222.844 117.438 223.944C116.741 226.317 115.235 228.371 113.182 229.75C111.129 231.129 108.658 231.746 106.198 231.494C103.753 231.141 101.493 229.988 99.7727 228.215C98.0521 226.442 96.9674 224.149 96.6878 221.694C96.5478 220.431 96.5478 219.157 96.6878 217.894C96.9172 216.584 97.2209 215.289 97.5977 214.014C94.7993 213.054 92.3276 211.325 90.4654 209.026C88.6032 206.728 87.4258 203.951 87.0678 201.014C86.0678 194.914 88.0678 189.554 92.1878 184.894C91.7678 184.574 91.4278 184.294 91.0578 184.044C89.2338 182.846 87.6727 181.289 86.4693 179.468C85.2659 177.648 84.4454 175.602 84.0578 173.454C83.9387 172.667 83.6333 171.92 83.1672 171.274C82.7011 170.629 82.0876 170.104 81.3778 169.744C79.0504 168.483 77.072 166.665 75.62 164.452C74.1679 162.239 73.2876 159.701 73.0578 157.064C72.7741 153.841 73.5399 150.613 75.2412 147.861C76.9424 145.109 79.4879 142.981 82.4978 141.794C82.6572 141.71 82.8052 141.606 82.9378 141.484C83.6778 125.104 98.7978 117.664 110.168 123.994C110.448 123.344 110.738 122.724 110.988 122.084C113.328 116.084 117.508 112.154 123.988 110.894C127.228 110.254 130.068 111.024 133.088 112.494C136.469 114.088 139.156 116.856 140.648 120.284C140.788 120.584 140.938 120.884 141.098 121.214L147.098 116.654C141.915 113.614 138.093 108.705 136.418 102.934C124.708 103.124 115.888 98.104 109.748 88.444C107.408 88.934 105.198 89.374 102.998 89.844C100.499 90.339 97.9269 90.339 95.4278 89.844C93.7378 89.544 92.0178 89.464 90.3078 89.254C89.4395 89.195 88.624 88.8154 88.0197 88.189C87.4155 87.5625 87.0655 86.7339 87.0378 85.864C87.0088 84.9461 87.3327 84.0521 87.9428 83.3657C88.5529 82.6794 89.4029 82.2529 90.3178 82.174C91.6751 82.1042 93.0356 82.2049 94.3677 82.474C98.4688 83.356 102.736 83.0473 106.668 81.5841C106.578 80.7241 106.578 79.834 106.408 78.984C105.783 75.7461 106.196 72.3935 107.588 69.4041C108.396 67.5895 109.536 65.9414 110.948 64.544C112.055 63.3161 113.528 62.4771 115.149 62.1512C116.769 61.8252 118.452 62.0296 119.948 62.734C123.148 64.134 124.708 66.824 125.028 70.224C125.438 74.394 123.728 77.8641 121.098 80.9041C119.738 82.4641 118.098 83.784 116.558 85.254C118.358 90.104 126.928 96.094 134.308 95.514C134.383 92.8204 134.607 90.1331 134.978 87.4641C135.379 85.2626 136.302 83.1893 137.67 81.418C139.037 79.6468 140.809 78.2292 142.838 77.284C149.458 73.934 157.118 77.884 159.978 82.174C161.728 84.804 161.638 87.6541 160.648 90.5241C159.675 93.1921 157.851 95.4658 155.458 96.994C152.656 98.8492 149.587 100.266 146.358 101.194L143.548 102.004ZM142.408 190.224C143.208 189.724 143.668 189.474 144.088 189.154C146.478 187.354 148.828 185.504 151.238 183.724C152.378 182.831 153.6 182.048 154.888 181.384C155.475 181.075 156.129 180.914 156.792 180.916C157.456 180.918 158.109 181.083 158.694 181.396C159.279 181.708 159.779 182.16 160.149 182.71C160.519 183.261 160.749 183.894 160.818 184.554C160.899 185.452 160.855 186.358 160.688 187.244C159.988 192.534 159.158 197.804 158.548 203.114C158.257 204.822 158.414 206.576 159.005 208.204C159.596 209.833 160.599 211.28 161.918 212.404C168.273 218.503 175.587 223.517 183.568 227.244C186.103 228.437 188.797 229.256 191.568 229.674C190.468 226.304 189.488 223.304 188.498 220.304C186.768 215.064 184.798 209.894 183.338 204.584C180.561 194.644 178.601 184.493 177.478 174.234C177.028 169.914 176.418 165.594 176.268 161.234C176.068 155.624 176.268 150.004 176.268 144.384C176.268 143.434 176.268 142.484 176.268 141.484C171.598 142.404 160.188 149.484 156.948 153.394C158.188 153.594 159.448 153.744 160.678 154.024C161.45 154.158 162.158 154.536 162.698 155.103C163.239 155.67 163.582 156.396 163.678 157.174C163.761 157.901 163.626 158.637 163.292 159.288C162.957 159.94 162.437 160.478 161.798 160.834C161.268 161.185 160.717 161.503 160.148 161.784C158.938 162.404 157.708 162.984 156.498 163.614C151.498 166.254 147.198 169.694 145.208 175.234C144.01 178.46 143.008 181.756 142.208 185.104C141.828 186.624 142.288 188.314 142.408 190.224ZM183.908 140.614C183.738 140.903 183.603 141.212 183.508 141.534C183.418 142.344 183.348 143.154 183.338 143.974C183.248 152.974 182.978 161.894 184.268 170.854C185.268 178.014 186.048 185.224 187.678 192.294C189.378 199.604 190.948 206.944 193.678 213.984C195.158 217.774 196.348 221.674 197.678 225.514C197.848 226.004 198.068 226.514 198.368 227.224C205.757 219.911 212.055 211.572 217.068 202.464C216.298 201.574 215.698 200.894 215.128 200.204C211.728 196.074 208.318 191.944 204.938 187.804C204.35 187.167 203.91 186.409 203.649 185.583C203.388 184.756 203.312 183.883 203.428 183.024C203.494 182.114 203.917 181.267 204.604 180.666C205.291 180.065 206.187 179.759 207.098 179.814C208.098 179.814 209.098 179.764 210.098 179.664C212.719 179.341 215.38 179.707 217.818 180.724C218.608 181.054 219.438 181.274 220.578 181.664C220.388 180.344 220.338 179.364 220.108 178.414C218.6 172.071 214.731 166.542 209.288 162.954C207.757 161.809 206.009 160.989 204.15 160.545C202.291 160.102 200.36 160.043 198.478 160.374C196.685 160.681 194.86 160.758 193.048 160.604C189.528 160.404 187.558 157.504 188.488 154.114C189.126 151.813 190.627 149.847 192.678 148.624L197.418 145.624C192.968 143.584 188.758 141.514 183.908 140.614ZM145.908 127.024C147.768 127.507 149.504 128.381 150.999 129.588C152.494 130.795 153.714 132.307 154.578 134.024C156.578 137.664 155.508 141.374 154.508 145.194C161.508 141.114 167.508 135.954 175.658 134.144C173.366 130.189 170.244 126.777 166.508 124.144C164.674 122.789 162.546 121.887 160.297 121.512C158.048 121.137 155.742 121.298 153.568 121.984C150.511 122.726 147.806 124.508 145.918 127.024H145.908ZM101.578 128.874C96.7178 128.614 91.1578 133.084 90.4178 139.124C89.5678 145.994 95.6878 151.434 102.258 149.304C104.46 148.695 106.427 147.435 107.902 145.691C109.378 143.946 110.293 141.797 110.528 139.524C111.448 133.214 107.028 128.634 101.588 128.874H101.578ZM99.7878 179.524C101.256 179.182 102.689 178.703 104.068 178.094C105.311 177.35 106.382 176.352 107.213 175.166C108.044 173.98 108.616 172.631 108.891 171.209C109.165 169.787 109.137 168.323 108.807 166.913C108.478 165.502 107.854 164.177 106.978 163.024C104.258 159.614 98.5978 158.684 95.2478 161.374C92.7378 163.374 90.8678 166.004 90.7778 169.374C90.6578 175.884 95.4878 179.564 99.7978 179.524H99.7878ZM125.788 136.724C127.39 136.774 128.961 136.273 130.238 135.304C131.737 134.333 132.942 132.969 133.721 131.361C134.5 129.753 134.824 127.963 134.658 126.184C134.018 119.264 128.658 115.764 122.388 118.814C117.448 121.234 115.638 128.294 118.578 132.934C119.325 134.17 120.397 135.176 121.678 135.845C122.958 136.513 124.397 136.817 125.838 136.724H125.788ZM110.788 195.724C110.505 194.381 110.103 193.066 109.588 191.794C109.139 190.746 108.448 189.819 107.573 189.089C106.697 188.358 105.661 187.846 104.55 187.592C103.438 187.338 102.282 187.351 101.177 187.63C100.071 187.908 99.0468 188.444 98.1878 189.194C96.2328 190.766 94.8542 192.942 94.2679 195.381C93.6816 197.82 93.9208 200.385 94.9478 202.674C95.4063 203.794 96.1327 204.784 97.0634 205.558C97.9941 206.331 99.1006 206.864 100.286 207.11C101.471 207.356 102.698 207.307 103.859 206.968C105.021 206.629 106.082 206.009 106.948 205.164C109.658 202.824 110.748 199.864 110.888 195.684L110.788 195.724ZM134.788 155.314C134.862 154.087 134.679 152.858 134.25 151.706C133.821 150.554 133.156 149.504 132.298 148.624C127.358 143.404 120.808 144.814 118.108 151.144C117.265 153.173 117.2 155.441 117.928 157.514C119.648 162.834 124.818 165.224 128.628 164.004C130.43 163.353 131.993 162.17 133.107 160.611C134.222 159.051 134.836 157.19 134.868 155.274L134.788 155.314ZM116.118 181.654C116.218 186.304 117.818 189.594 121.258 191.854C125.948 194.944 130.558 192.474 131.988 187.854C132.632 185.528 132.516 183.058 131.659 180.802C130.801 178.546 129.245 176.624 127.218 175.314C123.938 173.314 118.978 173.474 116.878 178.554C116.556 179.55 116.328 180.575 116.198 181.614L116.118 181.654ZM114.788 207.894C115.549 209.173 116.377 210.411 117.268 211.604C117.843 212.278 118.594 212.78 119.438 213.054C123.708 214.334 127.308 211.794 127.638 207.304C127.746 205.099 127.37 202.898 126.538 200.854L118.118 198.854L114.788 207.894ZM142.028 94.824C145.857 94.2506 149.455 92.6351 152.428 90.1541C153.076 89.5198 153.539 88.7212 153.768 87.844C153.949 87.1713 153.863 86.4547 153.528 85.844C151.928 83.354 147.438 82.574 144.988 84.254C142.038 86.244 140.658 90.904 142.108 94.784L142.028 94.824ZM148.418 139.344C149.028 137.104 145.588 133.854 143.118 133.924C141.588 133.924 137.618 137.314 137.588 138.844C137.588 141.224 140.698 145.094 143.398 145.144C145.938 145.154 148.378 142.304 148.498 139.304L148.418 139.344ZM89.4978 155.644C88.1778 153.644 86.9178 151.644 85.5878 149.794C85.4761 149.565 85.3098 149.368 85.1037 149.219C84.8976 149.07 84.6581 148.974 84.4061 148.939C84.1541 148.905 83.8975 148.933 83.6589 149.021C83.4203 149.109 83.207 149.254 83.0378 149.444C82.4798 149.907 81.9856 150.441 81.5678 151.034C80.9248 151.993 80.4851 153.073 80.2762 154.208C80.0673 155.343 80.0935 156.509 80.3531 157.634C80.6127 158.759 81.1003 159.818 81.7857 160.747C82.4711 161.676 83.3397 162.454 84.3378 163.034L89.4978 155.644ZM103.498 219.724C103.675 220.537 103.912 221.336 104.208 222.114C104.444 222.789 104.894 223.369 105.488 223.766C106.083 224.164 106.79 224.357 107.504 224.318C108.218 224.278 108.9 224.008 109.447 223.547C109.994 223.087 110.377 222.461 110.538 221.764C110.832 221.001 110.942 220.18 110.858 219.366C110.775 218.553 110.501 217.771 110.058 217.084C108.488 214.564 105.778 214.574 104.308 217.194C103.976 217.997 103.725 218.831 103.558 219.684L103.498 219.724ZM113.718 78.064C115.602 76.6466 116.999 74.6795 117.718 72.434C118.118 71.154 118.128 69.9241 116.608 69.3141C115.263 70.2695 114.262 71.6324 113.753 73.2011C113.243 74.7697 113.252 76.4608 113.778 78.0241L113.718 78.064Z" fill="#3558A2"/>
<path d="M142.408 190.224C142.288 188.314 141.828 186.624 142.168 185.124C142.968 181.777 143.97 178.481 145.168 175.254C147.168 169.714 151.428 166.254 156.458 163.634C157.668 163.004 158.898 162.424 160.108 161.804C160.677 161.523 161.229 161.205 161.758 160.854C162.397 160.497 162.917 159.96 163.252 159.308C163.586 158.657 163.721 157.921 163.638 157.194C163.542 156.416 163.199 155.69 162.658 155.123C162.118 154.556 161.41 154.178 160.638 154.044C159.408 153.764 158.148 153.614 156.908 153.414C160.148 149.534 171.558 142.414 176.228 141.504C176.228 142.504 176.228 143.504 176.228 144.404C176.228 150.024 176.028 155.644 176.228 161.254C176.378 165.594 176.988 169.914 177.438 174.254C178.561 184.513 180.521 194.664 183.298 204.604C184.758 209.914 186.728 215.084 188.458 220.324C189.458 223.324 190.458 226.324 191.528 229.694C188.758 229.276 186.063 228.458 183.528 227.264C175.547 223.537 168.233 218.524 161.878 212.424C160.56 211.3 159.556 209.853 158.965 208.224C158.374 206.596 158.217 204.842 158.508 203.134C159.118 197.824 159.948 192.554 160.648 187.264C160.815 186.378 160.859 185.472 160.778 184.574C160.709 183.914 160.479 183.281 160.109 182.731C159.739 182.18 159.239 181.729 158.654 181.416C158.069 181.103 157.416 180.938 156.752 180.936C156.089 180.934 155.435 181.095 154.848 181.404C153.56 182.068 152.338 182.851 151.198 183.744C148.788 185.524 146.438 187.374 144.048 189.174C143.658 189.474 143.208 189.724 142.408 190.224Z" fill="#EAECF1"/>
<path d="M183.909 140.615C188.759 141.515 192.969 143.615 197.419 145.615L192.679 148.615C190.628 149.838 189.127 151.804 188.489 154.105C187.559 157.495 189.489 160.395 193.049 160.595C194.861 160.749 196.686 160.672 198.479 160.365C200.361 160.035 202.292 160.093 204.151 160.537C206.01 160.98 207.759 161.8 209.289 162.945C214.732 166.534 218.601 172.063 220.109 178.405C220.339 179.405 220.389 180.335 220.579 181.655C219.439 181.265 218.579 181.045 217.819 180.715C215.381 179.698 212.721 179.333 210.099 179.655C209.099 179.755 208.099 179.785 207.099 179.805C206.188 179.75 205.292 180.056 204.605 180.657C203.918 181.258 203.496 182.105 203.429 183.015C203.314 183.874 203.389 184.748 203.65 185.574C203.911 186.4 204.351 187.159 204.939 187.795C208.319 191.935 211.729 196.065 215.129 200.195C215.699 200.885 216.299 201.565 217.069 202.455C212.056 211.563 205.758 219.902 198.369 227.215C198.069 226.465 197.849 225.995 197.679 225.505C196.349 221.665 195.159 217.765 193.679 213.975C190.939 206.975 189.369 199.595 187.679 192.285C186.049 185.215 185.309 178.005 184.269 170.845C182.979 161.845 183.269 152.935 183.339 143.965C183.339 143.145 183.419 142.335 183.509 141.525C183.605 141.207 183.74 140.901 183.909 140.615V140.615Z" fill="#EAECF1"/>
<path d="M101.588 128.874C107.028 128.634 111.448 133.214 110.588 139.524C110.353 141.797 109.438 143.946 107.962 145.691C106.487 147.435 104.52 148.695 102.318 149.304C95.7478 151.434 89.6277 145.994 90.4777 139.124C91.1677 133.084 96.7278 128.614 101.588 128.874Z" fill="#979FBB"/>
<path d="M99.7978 179.525C95.4878 179.525 90.6178 175.885 90.7978 169.425C90.8878 166.005 92.7978 163.425 95.2678 161.425C98.6178 158.735 104.268 159.665 106.998 163.075C107.874 164.228 108.498 165.553 108.827 166.963C109.157 168.374 109.185 169.838 108.911 171.26C108.636 172.682 108.064 174.031 107.233 175.217C106.402 176.403 105.331 177.401 104.088 178.145C102.704 178.737 101.268 179.2 99.7978 179.525V179.525Z" fill="#979FBB"/>
<path d="M125.838 136.723C124.405 136.807 122.977 136.498 121.706 135.831C120.436 135.163 119.371 134.161 118.628 132.933C115.688 128.293 117.498 121.233 122.438 118.813C128.688 115.763 134.068 119.263 134.708 126.183C134.875 127.962 134.551 129.753 133.772 131.361C132.992 132.968 131.788 134.332 130.288 135.303C129.011 136.272 127.44 136.773 125.838 136.723Z" fill="#979FBB"/>
<path d="M110.889 195.684C110.749 199.864 109.629 202.824 107.029 205.124C106.163 205.969 105.102 206.588 103.941 206.928C102.779 207.267 101.552 207.316 100.367 207.07C99.1819 206.824 98.0755 206.291 97.1448 205.518C96.2141 204.744 95.4876 203.754 95.0291 202.634C94.002 200.345 93.7629 197.78 94.3492 195.341C94.9355 192.902 96.3141 190.726 98.2691 189.154C99.1281 188.404 100.152 187.868 101.258 187.59C102.364 187.312 103.519 187.299 104.631 187.552C105.743 187.806 106.779 188.318 107.654 189.049C108.53 189.779 109.22 190.706 109.669 191.754C110.191 193.025 110.599 194.341 110.889 195.684V195.684Z" fill="#979FBB"/>
<path d="M134.868 155.274C134.834 157.174 134.228 159.02 133.129 160.57C132.031 162.12 130.49 163.303 128.708 163.964C124.898 165.184 119.708 162.794 118.008 157.474C117.281 155.401 117.345 153.133 118.188 151.104C120.888 144.774 127.438 143.364 132.378 148.584C133.237 149.464 133.902 150.514 134.33 151.666C134.759 152.818 134.942 154.047 134.868 155.274V155.274Z" fill="#979FBB"/>
<path d="M116.199 181.614C116.351 180.549 116.606 179.5 116.959 178.484C119.059 173.404 124.019 173.244 127.299 175.244C129.326 176.554 130.882 178.476 131.74 180.732C132.598 182.988 132.713 185.458 132.069 187.784C130.639 192.434 126.069 194.904 121.339 191.784C117.899 189.554 116.299 186.264 116.199 181.614Z" fill="#979FBB"/>
<path d="M114.869 207.853L118.199 198.783L126.619 200.783C127.452 202.827 127.827 205.029 127.719 207.233C127.389 211.723 123.789 214.233 119.519 212.983C118.676 212.71 117.925 212.208 117.349 211.533C116.459 210.35 115.631 209.122 114.869 207.853V207.853Z" fill="#979FBB"/>
<path d="M148.498 139.304C148.378 142.304 145.938 145.154 143.498 145.104C140.798 145.054 137.638 141.184 137.688 138.804C137.688 137.274 141.688 133.924 143.218 133.884C145.658 133.814 149.108 137.064 148.498 139.304Z" fill="#979FBB"/>
<path d="M89.5797 155.605L84.4197 163.045C83.4216 162.465 82.553 161.687 81.8676 160.758C81.1822 159.829 80.6946 158.77 80.435 157.645C80.1753 156.52 80.1493 155.354 80.3582 154.219C80.5671 153.084 81.0066 152.003 81.6497 151.045C82.0674 150.452 82.5617 149.918 83.1197 149.455C83.2888 149.265 83.5021 149.119 83.7408 149.031C83.9794 148.943 84.236 148.915 84.4879 148.95C84.7399 148.985 84.9796 149.081 85.1857 149.23C85.3918 149.379 85.558 149.576 85.6697 149.805C86.9997 151.655 88.2597 153.615 89.5797 155.605Z" fill="#979FBB"/>
<path d="M103.559 219.685C103.742 218.816 104.014 217.968 104.369 217.155C105.839 214.535 108.549 214.525 110.119 217.045C110.561 217.732 110.836 218.514 110.919 219.327C111.003 220.14 110.893 220.962 110.599 221.725C110.438 222.421 110.055 223.047 109.508 223.508C108.961 223.968 108.279 224.239 107.565 224.278C106.851 224.318 106.143 224.124 105.549 223.727C104.954 223.329 104.505 222.749 104.269 222.075C103.973 221.297 103.736 220.498 103.559 219.685V219.685Z" fill="#979FBB"/>
</svg>
