<svg width="300" height="300" viewBox="0 0 300 300" fill="none" xmlns="http://www.w3.org/2000/svg">
<path d="M38.8053 142.029C38.8053 138.613 38.7345 135.729 38.8053 132.836C38.8965 132.204 39.1229 131.598 39.469 131.061C43.3097 123.489 47.1593 115.923 51.0177 108.363C51.1405 108.067 51.2979 107.787 51.4867 107.528C53.1681 105.47 54.1416 104.982 56.4159 106.144C58.545 107.08 60.409 108.531 61.8407 110.368C65.1328 115.098 68.6106 119.703 72.0177 124.344C72.3893 124.859 72.8142 125.32 73.2124 125.808C83.3098 119.801 92.9026 113.154 103.584 108.283C103.204 107.156 102.903 106.339 102.637 105.514C101.612 102.683 101.378 99.6248 101.962 96.6702C102.545 93.7157 103.923 90.9773 105.947 88.7516C107.467 86.8707 109.463 85.4335 111.726 84.5899C112.137 84.4633 112.509 84.234 112.808 83.9236C113.107 83.6132 113.322 83.2318 113.434 82.8151C115.142 77.2158 119.319 74.3762 124.699 73.2493C127.475 72.7528 130.333 73.0008 132.982 73.9681C133.743 74.2166 134.504 74.4561 135.274 74.6247C135.791 74.747 136.325 74.7681 136.85 74.6868C139.647 74.2922 142.492 74.9355 144.85 76.496C147.208 78.0565 148.917 80.4267 149.655 83.1612C150.549 86.6382 150.383 90.3043 149.177 93.6854C150.362 93.6517 151.545 93.545 152.717 93.366C155.305 92.8512 157.969 92.8512 160.558 93.366C162.327 93.7032 164.204 93.721 166.027 93.9428C167.681 94.138 169.327 94.4397 170.982 94.6526C171.926 94.8145 172.885 94.8711 173.841 94.8213C178.428 94.3917 182.965 93.527 187.389 92.239C193.69 90.3312 200.018 88.5121 206.354 86.7018C210.223 85.4917 214.201 84.6625 218.23 84.226C219.177 84.1462 220.106 83.8889 221.053 83.809C224.929 83.4629 228.442 84.8561 231.885 86.3291C234.784 87.4808 237.523 89.0018 240.035 90.8547C240.443 91.1241 240.872 91.3586 241.319 91.5557C246.088 86.3646 250.796 81.2178 255.478 76.0888C256.018 75.4737 256.61 74.9067 257.248 74.394C257.924 73.813 258.797 73.5162 259.686 73.5658C260.575 73.6154 261.41 74.0075 262.018 74.6602C263.894 76.8697 265.867 78.9817 267.743 81.1735C269.929 83.738 272.053 86.3469 274.221 88.9291C276.956 92.1858 279.726 95.4158 282.416 98.6902C283.359 99.8017 283.857 101.225 283.814 102.683C283.726 108.726 283.814 114.769 283.681 120.812C283.602 124.566 283.248 128.32 283.08 132.082C283.113 132.615 283.274 133.133 283.549 133.59C284.916 136.128 286.007 138.806 286.805 141.577C287.72 144.883 288.333 148.266 288.637 151.684C288.832 153.025 288.953 154.376 289 155.73C288.835 160.305 287.484 164.758 285.08 168.65C281.457 174.251 276.953 179.225 271.743 183.381C264.726 189.246 256.425 192.476 247.956 195.449C244.313 196.618 240.738 197.989 237.248 199.558C231.972 202.07 227.006 205.191 222.451 208.857C217.683 212.886 212.673 216.62 207.451 220.038C202.655 223.046 197.54 225.291 191.885 225.806C188.454 226.131 184.996 226.047 181.584 225.558C173.381 224.368 165.513 221.857 157.504 219.887C148.956 217.793 140.46 215.45 131.894 213.472C127.408 212.428 122.871 211.623 118.301 211.058C115.042 210.677 111.741 210.909 108.566 211.741C101 213.631 93.416 215.442 85.8408 217.252C82.7434 217.997 79.646 218.769 76.5133 219.319C71.9821 220.286 67.2802 220.082 62.8496 218.725C60.3883 217.934 58.2269 216.407 56.6549 214.35C53.6092 210.419 50.8583 206.266 48.4248 201.927C45.2883 196.088 40.5377 191.281 34.7434 188.084C32.0885 186.655 29.4336 185.093 26.7788 183.647C26.3097 183.39 25.6814 183.434 25.1859 183.221C20.3892 181.344 16.1837 178.208 13.0089 174.143C11.7479 172.564 11.0418 170.611 11 168.588C11 165.793 11.5752 162.971 13.7168 160.886C16.6549 158.029 19.6283 155.207 22.6903 152.492C25.0885 150.371 27.3629 148.055 30.2213 146.546C32.3894 145.375 34.646 144.283 36.8053 143.147C37.5576 142.73 38.292 142.313 38.8053 142.029ZM118.575 167.461C119.133 169.068 119.46 170.283 118.894 171.579C118.751 172.126 118.715 172.695 118.788 173.256C118.742 177.984 118.408 182.705 117.788 187.392C117.478 190.054 116.018 191.669 113.124 191.988C111.611 192.157 110.106 192.361 108.593 192.414C103.071 192.61 97.5487 192.831 92.0177 192.849C89.4956 192.849 86.9115 192.583 85.1416 190.471C78.5664 194.153 70.5929 207.42 70.1947 213.268C71.8488 213.181 73.4971 213.006 75.1327 212.744C81.115 211.475 87.0973 210.171 93.0442 208.742C99.4513 207.216 105.681 204.908 112.319 204.429C113.902 204.214 115.502 204.149 117.097 204.234C121.195 204.749 125.301 205.299 129.336 206.16C135.841 207.535 142.319 209.097 148.805 210.712C157.496 212.895 166.142 215.237 174.823 217.447C179.68 218.782 184.711 219.362 189.743 219.169C193.411 218.968 196.996 218.008 200.274 216.347C205.074 213.782 209.599 210.731 213.779 207.242C217.869 203.77 222.192 200.583 226.717 197.703C231.803 194.542 237.222 191.956 242.876 189.992C247.301 188.554 251.593 186.939 255.841 185.156C260.44 183.273 264.696 180.637 268.434 177.356C272.176 174.202 275.525 170.605 278.407 166.645C280.947 162.936 282.584 158.881 282.239 154.302C282.035 151.693 281.469 149.102 281.053 146.511C280.212 142.132 278.59 137.942 276.265 134.141C270.354 133.945 264.513 133.715 258.673 133.564C255.133 133.475 251.593 133.564 248.053 133.457C244.044 133.369 240.089 133.218 236.044 133.04C233.938 132.943 233.018 132.153 232.611 130.068C232.369 128.899 232.233 127.711 232.203 126.518C232.133 120.963 232.115 115.399 232.071 109.844C232.071 109.197 232.071 108.558 232.071 107.91C231.965 106.135 231.761 104.36 231.761 102.648C231.761 100.571 232.487 98.8677 234.717 98.211C235.143 98.0864 235.532 97.8598 235.851 97.5506C236.171 97.2414 236.41 96.8589 236.549 96.4363C233.661 94.3967 230.527 92.7329 227.221 91.4848C224.784 90.4325 222.101 90.0881 219.478 90.4909C215.947 91.0072 212.455 91.7631 209.027 92.7537C201.947 94.8833 194.867 96.8888 187.788 98.8943C182.207 100.602 176.377 101.34 170.549 101.077C170.08 101.077 169.611 101.077 169.133 101.077C168.443 101.965 167.832 102.852 167.177 103.633C164.315 107.181 162.128 111.227 160.726 115.568C157.938 123.714 154.982 131.807 150.655 139.314C148.089 143.751 145.796 148.347 142.283 152.154C140.039 154.78 137.494 157.13 134.699 159.156C131.478 161.303 127.947 162.749 124.487 164.391C122.513 165.323 120.62 166.388 118.575 167.461ZM63.5398 211.83C65.0539 205.75 67.7616 200.033 71.5044 195.014C73.4779 192.29 75.3983 189.504 78.2036 187.525C80.0266 186.247 81.8938 185.031 83.708 183.807C83.4868 179.547 83.2478 175.235 83.0266 170.931C82.9955 168.831 83.6138 166.773 84.7965 165.039C85.7522 163.468 86.9027 162.004 87.7699 160.389C90.5664 155.145 94.5753 150.903 98.6549 146.688C100.77 144.496 103.168 144.638 105.115 147.283C105.496 147.797 105.832 148.347 106.186 148.88C108.788 152.826 111.392 156.772 114 160.717C114.31 161.179 114.699 161.605 114.885 161.844C118.221 160.185 121.345 158.366 124.619 157.061C130.584 154.728 135.106 150.708 138.929 145.739C139.786 144.683 140.572 143.571 141.283 142.411C142.965 139.5 144.566 136.545 146.177 133.599C148.982 128.47 150.903 122.951 152.947 117.52C153.991 114.76 154.867 111.939 155.965 109.206C157.407 105.867 159.386 102.788 161.823 100.092C157.813 99.3753 153.698 99.5113 149.743 100.492C149.584 101.814 149.513 103.012 149.283 104.174C148.531 108.052 146.168 111.007 143.46 113.634C142.946 114.065 142.538 114.61 142.268 115.226C141.998 115.841 141.873 116.511 141.903 117.183C141.903 122.907 141.903 128.621 141.814 134.345C141.814 135.454 141.513 136.554 141.425 137.663C141.292 139.385 140.089 140.157 138.717 140.698C137.884 140.977 137.024 141.161 136.15 141.248C131.664 141.887 127.168 142.5 122.673 143.13C121.592 143.274 120.496 143.009 119.6 142.385C118.705 141.761 118.074 140.824 117.832 139.758C117.619 138.666 117.469 137.548 117.336 136.439C116.817 131.913 116.307 127.388 115.805 122.862C115.637 121.434 115.451 120.005 115.31 118.567C115.248 117.875 115.088 117.236 114.301 117.156C112.071 116.836 110.001 115.814 108.389 114.237C108.118 113.936 107.747 113.744 107.346 113.695C106.945 113.646 106.539 113.744 106.203 113.971C105.726 114.255 105.212 114.477 104.717 114.752C98.823 117.964 92.9557 121.221 87.3186 124.885C83.3717 127.45 79.354 129.863 75.5133 132.233C75.2832 135.179 75.0266 137.894 74.8584 140.61C74.6372 144.292 74.4956 147.984 74.2832 151.666C74.1681 153.663 73.9911 155.65 73.8319 157.647C73.6018 160.425 72.3186 161.605 69.4867 161.667H69.0089C61.1328 161.667 53.2567 161.605 45.3806 161.534C44.3473 161.523 43.3213 161.359 42.3363 161.046C41.7131 160.865 41.1628 160.491 40.7639 159.978C40.365 159.465 40.1379 158.839 40.1151 158.188C39.9381 155.952 39.7876 153.752 39.6283 151.48C39.5753 150.699 39.531 149.909 39.4867 149.084C36.5081 150.156 33.736 151.735 31.292 153.752C27.7522 156.857 24.1593 159.963 20.6726 163.131C19.7961 163.957 19.0127 164.876 18.3363 165.873C17.8011 166.578 17.5339 167.451 17.5826 168.336C17.6312 169.22 17.9925 170.059 18.6018 170.7C18.9115 171.073 19.2655 171.401 19.6018 171.747C22.3539 174.448 25.6232 176.561 29.2124 177.959C32.1315 179.234 34.9846 180.656 37.7611 182.218C44.3033 185.861 49.752 191.196 53.5398 197.667C55.7611 201.288 57.7168 205.05 60.3363 208.414C61.3083 209.628 62.3799 210.759 63.5398 211.794V211.83ZM137.832 110.12C138.389 109.507 139.283 108.469 140.221 107.457C141.539 106.154 142.45 104.494 142.843 102.681C143.236 100.867 143.094 98.9778 142.434 97.2438C142.078 96.3524 141.911 95.3964 141.945 94.4369C141.978 93.4773 142.211 92.5353 142.628 91.6711C143.664 89.6834 143.513 87.6158 143.363 85.5482C143.291 84.5409 142.891 83.5854 142.224 82.8286C141.557 82.0718 140.661 81.5557 139.673 81.3598C138.965 81.2003 138.23 81.2003 137.522 81.3598C135.645 81.6995 133.71 81.4581 131.973 80.6677C130.167 80.02 128.252 79.7366 126.336 79.8336C124.897 79.8883 123.506 80.368 122.338 81.2126C121.17 82.0573 120.276 83.2291 119.77 84.581C119.601 85.0296 119.462 85.4891 119.354 85.9565C119.194 87.0385 118.706 88.0448 117.955 88.8387C117.205 89.6326 116.228 90.1754 115.159 90.3933C112.867 90.9435 111.478 92.6028 110.088 94.2356C108.557 96.0103 108.265 98.3974 108.319 100.571C108.351 103.322 109.434 105.955 111.345 107.928C112.222 108.962 113.336 109.766 114.593 110.27C116.894 110.936 119.319 111.052 121.673 110.608C122.551 110.475 123.443 110.448 124.327 110.528C126 110.581 127.681 110.803 129.345 110.741C131.991 110.59 134.62 110.306 137.832 110.084V110.12ZM276.442 127.246C276.611 125.79 276.876 124.459 276.894 123.128C276.991 117.653 277.009 112.178 277.044 106.703C277.005 106.129 276.934 105.557 276.832 104.991H267.097C263.965 104.991 260.832 104.99 257.699 104.937C254.566 104.884 251.31 104.627 248.115 104.582C244.92 104.538 241.743 104.378 238.451 104.582C238.451 105.372 238.451 106.011 238.451 106.641C238.566 109.206 238.752 111.761 238.805 114.317C238.885 117.786 238.805 121.247 238.885 124.708C238.885 125.329 238.965 125.941 239.018 126.74C251.549 126.438 263.938 127.485 276.442 127.21V127.246ZM68.7699 136.119C65.7699 135.889 63.1505 135.631 60.531 135.489C56.2124 135.259 51.8938 135.108 47.5752 134.913C47.1859 134.913 46.7965 134.771 46.3982 134.735C46 134.7 45.6903 134.735 45.2036 134.735C45.6372 141.524 46.0885 148.108 46.4868 154.745L67.239 155.1C67.4132 154.262 67.5432 153.415 67.6283 152.562C67.8495 148.88 68.0177 145.197 68.2035 141.515C68.2035 141.195 68.2566 140.876 68.292 140.556C68.4425 139.092 68.6018 137.664 68.7699 136.084V136.119ZM112.212 172.262C105.513 172.262 99.2567 172.262 93.0089 172.262C91.8851 172.371 90.7722 172.573 89.6814 172.866C89.885 175.013 90.0797 177.001 90.2567 178.988C90.4337 180.976 90.6195 182.964 90.7876 184.951C90.78 185.113 90.8061 185.274 90.8644 185.424C90.9228 185.575 91.012 185.711 91.1263 185.825C91.2406 185.939 91.3773 186.027 91.5278 186.085C91.6783 186.142 91.8392 186.167 92 186.158C92.3983 186.158 92.7965 186.158 93.2035 186.158C98.3186 185.99 103.434 185.848 108.549 185.626C109.538 185.51 110.518 185.317 111.478 185.049C111.726 180.745 111.965 176.601 112.212 172.227V172.262ZM259.451 81.7502C255.487 85.4949 246 96.0458 245.159 97.7229C254.451 98.5127 263.743 98.2198 273.416 98.3884L259.451 81.7502ZM135.195 116.943C132.823 117.139 130.69 117.405 128.557 117.449C126.425 117.494 124.319 117.289 121.982 117.192C122.513 123.643 123.425 129.775 124.239 136.084L135.195 134.46V116.943ZM67.3009 129.216L55.8673 113.518L48.3363 128.195C54.708 128.373 60.8496 129.225 67.3009 129.162V129.216ZM109.027 165.367C106.372 161.276 103.938 157.461 101.301 153.831C97.416 157.026 94.9115 161.01 92.5753 165.367H109.027Z" fill="#3558A2"/>
<path d="M118.422 167.172C120.465 166.097 122.341 165.049 124.269 164.134C127.728 162.491 131.257 161.043 134.477 158.894C137.27 156.866 139.815 154.514 142.058 151.886C145.596 148.075 147.861 143.474 150.426 139.033C154.752 131.519 157.706 123.419 160.492 115.265C161.894 110.919 164.08 106.87 166.941 103.318C167.596 102.519 168.206 101.666 168.896 100.76C169.374 100.76 169.842 100.76 170.311 100.76C176.137 101.024 181.965 100.285 187.543 98.5753C194.62 96.5679 201.696 94.5605 208.773 92.4288C212.2 91.4373 215.69 90.6806 219.22 90.1638C221.842 89.7606 224.524 90.1053 226.96 91.1586C230.264 92.408 233.397 94.0734 236.283 96.1149C236.145 96.538 235.905 96.9208 235.586 97.2303C235.267 97.5398 234.878 97.7666 234.452 97.8913C232.223 98.5131 231.498 100.218 231.498 102.332C231.498 104.109 231.701 105.885 231.807 107.599C231.807 108.248 231.807 108.887 231.807 109.536C231.807 115.096 231.869 120.665 231.94 126.225C231.97 127.419 232.106 128.608 232.347 129.778C232.754 131.865 233.674 132.656 235.779 132.754C239.777 132.931 243.74 133.082 247.783 133.171C251.321 133.251 254.86 133.171 258.398 133.278C264.236 133.429 270.074 133.66 275.983 133.855C278.307 137.66 279.928 141.854 280.769 146.237C281.185 148.83 281.751 151.424 281.954 154.035C282.299 158.618 280.663 162.678 278.124 166.39C275.243 170.354 271.896 173.954 268.155 177.111C264.419 180.396 260.165 183.034 255.567 184.918C251.321 186.695 246.987 188.32 242.608 189.759C236.957 191.725 231.539 194.314 226.456 197.478C221.933 200.361 217.612 203.551 213.523 207.026C209.345 210.519 204.822 213.572 200.024 216.139C196.748 217.802 193.164 218.763 189.498 218.964C184.468 219.157 179.438 218.576 174.584 217.24C165.906 215.029 157.264 212.684 148.577 210.499C142.12 208.882 135.645 207.319 129.116 205.942C125.083 205.054 120.978 204.53 116.883 204.015C115.288 203.93 113.689 203.995 112.106 204.21C105.472 204.69 99.2442 206.999 92.8398 208.527C86.8954 209.957 80.9157 211.263 74.9359 212.533C73.301 212.795 71.6534 212.97 70 213.057C70.3981 207.204 78.368 193.925 84.9405 190.239C86.7096 192.353 89.2926 192.628 91.8137 192.619C97.3423 192.619 102.862 192.379 108.382 192.184C109.894 192.131 111.398 191.926 112.911 191.758C115.83 191.438 117.263 189.848 117.573 187.157C118.193 182.465 118.527 177.74 118.572 173.007C118.499 172.446 118.535 171.876 118.678 171.329C119.298 169.996 118.979 168.78 118.422 167.172ZM158.024 188.853V188.951C160.333 188.764 162.633 188.542 164.942 188.4C168.056 188.205 171.134 188.054 174.283 187.921C178.759 187.725 183.244 187.556 187.72 187.37C191.482 187.21 195.239 187.041 198.989 186.864C199.308 186.85 199.625 186.806 199.936 186.73C200.816 186.595 201.615 186.135 202.176 185.44C202.737 184.746 203.02 183.866 202.97 182.973C203.147 177.99 203.297 173.007 203.457 168.025C203.43 167.622 203.43 167.219 203.457 166.817C203.529 166.111 203.675 165.414 203.89 164.738C204.668 162.686 204.377 161.185 202.678 159.844C200.316 157.926 197.919 156.06 195.522 154.177L180.599 142.471C179.529 141.627 178.441 140.81 177.37 139.966C174.902 138.003 172.832 138.287 170.886 140.472C170.612 140.774 170.32 141.05 170.002 141.36C166.381 145.126 162.757 148.892 159.13 152.658C156.945 154.915 154.813 157.224 152.522 159.365C151.619 160.159 150.916 161.156 150.47 162.275C150.024 163.394 149.848 164.604 149.957 165.804C150.134 169.011 150.284 172.217 150.373 175.432C150.453 178.168 150.373 180.913 150.47 183.657C150.495 184.613 150.64 185.562 150.904 186.482C151.07 187.196 151.482 187.828 152.069 188.265C152.655 188.703 153.377 188.917 154.106 188.871C155.45 188.898 156.742 188.853 158.024 188.853V188.853ZM189.153 129.618H188.949C189.126 132.665 189.268 135.703 189.489 138.74C189.533 139.46 189.803 140.147 190.261 140.703C190.719 141.259 191.341 141.654 192.037 141.831C193.204 142.071 194.386 142.231 195.575 142.311C198.919 142.533 202.271 142.693 205.615 142.879H206.34C210.224 143.181 214.116 143.51 218.008 143.768C221.007 143.963 221.767 142.053 222.183 140.081C222.44 138.508 222.618 136.922 222.714 135.33C223.023 132.39 223.404 129.458 223.598 126.518C223.917 122.557 223.731 118.729 221.201 115.291C218.839 112.076 216.778 108.63 214.585 105.29C213.886 104.233 213.196 103.141 212.4 102.155C212.021 101.58 211.445 101.164 210.782 100.986C210.119 100.808 209.414 100.879 208.799 101.187C207.784 101.616 206.825 102.168 205.942 102.83C203.89 104.5 201.873 106.205 199.971 108.035C196.663 111.206 193.425 114.439 190.241 117.716C189.766 118.205 189.405 118.792 189.184 119.437C188.962 120.082 188.885 120.768 188.958 121.447C189.179 124.174 189.109 126.909 189.153 129.618ZM226.907 154.826C225.792 154.896 224.686 155.059 223.598 155.314C220.06 156.407 218.105 159.027 217.035 162.42C216.15 165.156 216.433 168.007 216.593 170.805C216.663 171.959 217.017 173.327 218.238 173.851C219.777 174.517 221.237 175.574 223.174 174.926C224.483 174.554 225.839 174.378 227.199 174.402C235.691 174.189 244.2 174.588 252.683 173.789C255.541 173.523 258.407 173.301 261.22 172.777C262.217 172.627 263.15 172.193 263.908 171.525C264.666 170.857 265.216 169.984 265.492 169.01C266.619 165.827 266.806 162.385 266.032 159.098C265.456 156.586 264.208 154.28 262.423 152.428C259.654 149.656 256.337 149.061 252.692 149.923C250.597 150.397 248.624 151.304 246.898 152.587C239.486 146.441 231.639 148.2 226.907 154.826V154.826Z" fill="#979FBB"/>
<path d="M63.858 212C62.7062 210.943 61.6453 209.79 60.6865 208.554C58.0361 205.197 56.1191 201.467 53.9016 197.826C50.1153 191.379 44.6763 186.066 38.1498 182.439C35.378 180.879 32.5297 179.459 29.6156 178.186C26.0326 176.791 22.7688 174.681 20.0214 171.985C19.6857 171.64 19.3323 171.312 19.0231 170.94C18.4149 170.3 18.0542 169.463 18.0056 168.58C17.9571 167.696 18.2238 166.825 18.7581 166.121C19.4334 165.126 20.2155 164.208 21.0904 163.384C24.6242 160.221 28.158 157.121 31.6918 154.02C34.1316 152.007 36.899 150.431 39.8725 149.361C39.8725 150.184 39.9608 150.973 40.0138 151.752C40.1728 153.985 40.323 156.182 40.4997 158.449C40.5225 159.099 40.7493 159.724 41.1475 160.236C41.5457 160.748 42.095 161.121 42.7172 161.302C43.7005 161.614 44.7247 161.779 45.7562 161.789C53.6189 161.86 61.4815 161.887 69.3442 161.922H69.8213C72.6483 161.86 73.9293 160.682 74.159 157.909C74.318 155.916 74.4947 153.931 74.6096 151.938C74.8216 148.262 74.963 144.577 75.1839 140.9C75.3517 138.19 75.6079 135.479 75.8376 132.538C79.6452 130.173 83.6826 127.763 87.6227 125.203C93.2503 121.544 99.1076 118.293 104.991 115.086C105.486 114.812 105.998 114.59 106.475 114.307C106.81 114.081 107.215 113.983 107.616 114.032C108.017 114.08 108.386 114.273 108.658 114.573C110.267 116.147 112.333 117.168 114.559 117.487C115.345 117.567 115.504 118.205 115.566 118.896C115.707 120.331 115.893 121.757 116.061 123.183C116.561 127.701 117.071 132.219 117.589 136.737C117.722 137.844 117.872 138.96 118.084 140.05C118.326 141.114 118.955 142.05 119.849 142.673C120.743 143.295 121.837 143.561 122.916 143.416C127.404 142.787 131.892 142.176 136.371 141.538C137.243 141.451 138.102 141.267 138.933 140.989C140.303 140.449 141.504 139.678 141.637 137.959C141.725 136.852 142.016 135.754 142.025 134.646C142.096 128.932 142.14 123.227 142.114 117.514C142.084 116.843 142.208 116.174 142.478 115.56C142.748 114.945 143.155 114.401 143.668 113.97C146.372 111.313 148.731 108.398 149.482 104.527C149.711 103.366 149.782 102.17 149.941 100.851C153.888 99.872 157.997 99.7361 162 100.452C159.567 103.143 157.592 106.217 156.152 109.55C155.056 112.278 154.182 115.095 153.139 117.85C151.098 123.289 149.181 128.782 146.381 133.902C144.773 136.843 143.174 139.793 141.495 142.699C140.786 143.857 140.001 144.966 139.145 146.021C135.329 150.982 130.814 154.995 124.86 157.324C121.547 158.627 118.429 160.443 115.142 162.099C114.93 161.833 114.541 161.435 114.259 160.974C111.655 157.041 109.055 153.102 106.458 149.157C106.104 148.625 105.769 148.076 105.389 147.562C103.445 144.905 101.051 144.781 98.9396 146.969C94.8669 151.176 90.865 155.411 88.0733 160.646C87.1899 162.259 86.0591 163.72 85.1049 165.288C83.9243 167.019 83.3071 169.074 83.338 171.171C83.5589 175.467 83.7974 179.772 84.0183 184.024C82.2072 185.247 80.3431 186.46 78.5232 187.736C75.7227 189.712 73.8056 192.493 71.8356 195.213C68.0897 200.221 65.3776 205.928 63.858 212V212Z" fill="#979FBB"/>
<path d="M138.34 110.274C135.144 110.514 132.529 110.78 129.914 110.868C128.259 110.93 126.586 110.709 124.922 110.655C124.041 110.576 123.154 110.603 122.28 110.735C119.938 111.179 117.526 111.064 115.237 110.398C113.986 109.894 112.877 109.091 112.005 108.057C110.119 106.092 109.048 103.475 109.012 100.742C108.933 98.5692 109.223 96.2104 110.773 94.4104C112.155 92.7788 113.537 91.1206 115.818 90.5708C116.881 90.3531 117.853 89.8107 118.599 89.0174C119.346 88.2241 119.832 87.2184 119.991 86.1371C120.098 85.6701 120.236 85.2109 120.405 84.7626C120.909 83.4116 121.798 82.2407 122.96 81.3966C124.122 80.5526 125.506 80.0732 126.938 80.0186C128.844 79.9216 130.75 80.2048 132.546 80.8521C134.274 81.6419 136.2 81.8832 138.067 81.5437C138.771 81.3843 139.502 81.3843 140.206 81.5437C141.189 81.7395 142.081 82.2552 142.744 83.0114C143.408 83.7677 143.806 84.7226 143.878 85.7291C144.063 87.7952 144.177 89.8614 143.147 91.8477C142.732 92.7113 142.5 93.6526 142.467 94.6115C142.434 95.5703 142.599 96.5257 142.953 97.4164C143.61 99.1492 143.752 101.037 143.361 102.85C142.97 104.662 142.064 106.321 140.752 107.623C139.828 108.625 138.894 109.662 138.34 110.274Z" fill="#CBCFDD"/>
<path d="M276.425 126.953C264.113 127.23 251.914 126.175 239.558 126.479C239.505 125.674 239.436 125.056 239.427 124.43C239.427 120.94 239.427 117.451 239.349 113.952C239.296 111.375 239.113 108.798 239 106.212C239 105.577 239 104.933 239 104.137C242.241 103.886 245.378 104.038 248.515 104.137C251.652 104.235 254.806 104.414 257.952 104.494C261.098 104.575 264.121 104.494 267.206 104.548H276.791C276.892 105.119 276.962 105.696 277 106.275C277 111.796 276.948 117.316 276.852 122.837C276.852 124.143 276.59 125.486 276.425 126.953Z" fill="white"/>
<path d="M69 136.36C68.8288 137.911 68.6665 139.314 68.5133 140.717C68.5133 141.031 68.4412 141.344 68.4232 141.658C68.2339 145.275 68.0627 148.891 67.8374 152.508C67.7506 153.345 67.6183 154.177 67.4409 155L46.3068 154.652C45.8742 148.133 45.4056 141.667 45 135C45.4957 135 45.9012 135 46.2167 135C46.5321 135 47.0188 135.157 47.4153 135.174C51.8134 135.366 56.2114 135.514 60.6095 135.741C63.2771 135.88 65.9448 136.133 69 136.36Z" fill="white"/>
<path d="M113 172.004C112.747 176.39 112.503 180.545 112.25 184.886C111.27 185.155 110.27 185.348 109.26 185.464C104.038 185.687 98.817 185.829 93.5954 185.998C93.1799 185.998 92.7734 185.998 92.3668 185.998C92.2027 186.007 92.0385 185.982 91.8848 185.925C91.7312 185.867 91.5916 185.778 91.4749 185.664C91.3583 185.55 91.2672 185.413 91.2076 185.262C91.1481 185.111 91.1214 184.95 91.1292 184.788C90.9546 182.795 90.7739 180.803 90.5872 178.81C90.4065 176.817 90.2078 174.824 90 172.671C91.1135 172.378 92.2495 172.175 93.3967 172.066C99.7746 171.977 106.161 172.004 113 172.004Z" fill="white"/>
<path d="M259.668 82L274 99C264.009 98.8273 254.536 99.1273 245 98.3182C245.863 96.6454 255.599 85.8546 259.668 82Z" fill="white"/>
<path d="M135 117V134.38L124.228 136C123.424 129.74 122.481 123.674 122 117.255C124.306 117.352 126.368 117.546 128.491 117.511C130.614 117.475 132.659 117.194 135 117Z" fill="white"/>
<path d="M67 128.997C60.5366 129.056 54.3836 128.242 48 128.022L55.545 114L67 128.997Z" fill="white"/>
<path d="M109 165H93C95.2722 160.854 97.7079 157.055 101.486 154C104.043 157.452 106.375 161.091 109 165Z" fill="white"/>
<path d="M158.129 188.919C156.832 188.919 155.525 188.919 154.228 188.919C153.491 188.966 152.761 188.749 152.168 188.305C151.574 187.861 151.157 187.221 150.989 186.496C150.723 185.564 150.575 184.602 150.551 183.633C150.47 180.85 150.551 178.067 150.452 175.294C150.363 172.034 150.211 168.783 150.032 165.532C149.922 164.315 150.099 163.089 150.55 161.954C151.001 160.819 151.713 159.808 152.626 159.003C154.944 156.832 157.1 154.5 159.31 152.204C162.985 148.391 166.65 144.573 170.307 140.749C170.593 140.46 170.889 140.181 171.202 139.848C173.17 137.633 175.264 137.345 177.76 139.335C178.843 140.235 179.944 141.019 181.026 141.874L196.121 153.744C198.546 155.653 200.971 157.544 203.36 159.489C205.078 160.894 205.373 162.371 204.586 164.451C204.368 165.136 204.221 165.843 204.147 166.558C204.12 166.966 204.12 167.375 204.147 167.783C203.986 172.835 203.834 177.887 203.655 182.939C203.705 183.845 203.419 184.736 202.852 185.441C202.284 186.145 201.477 186.611 200.586 186.749C200.272 186.825 199.951 186.87 199.629 186.884C195.829 187.064 192.029 187.235 188.229 187.397C183.702 187.586 179.165 187.757 174.638 187.955C171.488 188.09 168.374 188.244 165.189 188.442C162.854 188.586 160.527 188.811 158.192 189L158.129 188.919ZM197.231 166.333C194.922 166.486 192.918 166.711 190.914 166.729C181.966 166.811 173.018 166.801 164.133 166.901C161.744 166.901 159.346 167.216 156.841 167.387C156.841 168.287 156.841 169.125 156.841 169.926C156.972 173.42 157.115 176.915 157.27 180.409C157.27 180.949 157.387 181.489 157.476 182.21C160.67 181.994 163.739 181.76 166.782 181.589C170.253 181.39 173.725 181.222 177.197 181.084C182.565 180.877 187.862 180.724 193.204 180.49C194.537 180.427 195.888 180.148 197.231 179.967V166.333ZM174.933 145.729L161.27 159.831C161.27 159.831 161.27 159.993 161.27 160.074C161.32 160.191 161.377 160.306 161.44 160.417C161.995 160.417 162.63 160.417 163.229 160.417C167.184 160.291 171.139 160.092 175.094 160.029C180.042 159.948 184.936 159.975 189.929 159.957H192.283L192.417 159.561C186.672 155.004 180.901 150.456 174.933 145.729Z" fill="#3558A2"/>
<path d="M189.196 129.757C189.196 127.041 189.196 124.316 189.027 121.609C188.953 120.929 189.031 120.241 189.254 119.594C189.477 118.948 189.84 118.359 190.318 117.869C193.54 114.583 196.797 111.342 200.108 108.163C202.022 106.329 204.051 104.601 206.116 102.945C207.004 102.281 207.97 101.728 208.991 101.297C209.609 100.989 210.319 100.918 210.986 101.096C211.653 101.275 212.232 101.692 212.614 102.268C213.415 103.256 214.109 104.352 214.812 105.411C217.028 108.76 219.093 112.215 221.47 115.438C224.015 118.884 224.202 122.722 223.882 126.693C223.642 129.641 223.259 132.579 222.992 135.527C222.895 137.123 222.717 138.713 222.458 140.291C222.039 142.268 221.274 144.182 218.257 143.986C214.34 143.728 210.424 143.398 206.517 143.096H205.787C202.423 142.909 199.049 142.748 195.685 142.526C194.489 142.446 193.299 142.285 192.125 142.045C191.424 141.867 190.798 141.471 190.338 140.914C189.877 140.357 189.605 139.668 189.561 138.946C189.339 135.901 189.196 132.855 189.018 129.801L189.196 129.757ZM195.916 135.687C199.476 136.025 202.761 136.524 206.098 136.578C209.436 136.631 212.747 137.237 216.032 137.147C216.423 133.479 216.779 130.077 217.171 126.462C213.611 125.865 210.122 125.714 206.632 125.42C203.143 125.126 199.565 124.414 195.952 124.592L195.916 135.687ZM209.267 109.116C206.882 110.79 200.58 116.72 199.761 118.083C202.431 118.323 205.039 118.653 207.665 118.759C210.291 118.866 213.005 119.766 215.889 119.071L209.267 109.116Z" fill="#3558A2"/>
<path d="M227.474 154.97C232.199 148.415 240.034 146.676 247.427 152.703C249.15 151.434 251.12 150.536 253.212 150.067C256.86 149.188 260.172 149.803 262.928 152.545C264.711 154.377 265.957 156.658 266.532 159.143C267.305 162.395 267.118 165.8 265.993 168.948C265.717 169.911 265.168 170.775 264.411 171.436C263.654 172.096 262.722 172.526 261.727 172.673C258.918 173.192 256.056 173.411 253.203 173.675C244.733 174.466 236.236 174.07 227.757 174.281C226.399 174.257 225.045 174.432 223.738 174.8C221.803 175.441 220.346 174.395 218.809 173.736C217.59 173.218 217.237 171.865 217.166 170.723C217.007 167.955 216.742 165.135 217.608 162.429C218.677 159.09 220.664 156.498 224.162 155.4C225.252 155.165 226.36 155.021 227.474 154.97V154.97ZM223.87 168.149C225.637 167.964 227.129 167.674 228.631 167.665C236.951 167.595 245.272 167.665 253.583 167.077C255.35 166.945 257.116 166.76 258.812 166.585C259.091 166.575 259.358 166.47 259.569 166.288C259.779 166.105 259.921 165.857 259.969 165.583C260.344 164.328 260.447 163.009 260.274 161.711C260.1 160.414 259.653 159.167 258.962 158.053C258.688 157.568 258.287 157.165 257.802 156.887C257.317 156.609 256.766 156.465 256.206 156.472C254.519 156.424 252.864 156.94 251.507 157.939C250.447 158.633 249.361 159.292 248.266 159.943C247.883 160.148 247.46 160.269 247.025 160.298C246.591 160.327 246.156 160.263 245.749 160.109C244.539 159.682 243.504 158.874 242.798 157.807C242.284 157.151 241.631 156.616 240.886 156.24C240.14 155.864 239.32 155.655 238.484 155.63C237.648 155.605 236.817 155.763 236.05 156.094C235.283 156.425 234.598 156.92 234.045 157.544C233.435 158.276 232.866 159.042 232.341 159.837C230.777 162.139 230.044 162.473 227.165 161.884C225.787 161.621 225.398 161.884 224.603 163.044C223.649 164.538 223.667 166.154 223.87 168.131V168.149Z" fill="#3558A2"/>
<path d="M197 167V179.886C195.644 180.056 194.342 180.319 193.012 180.379C187.696 180.599 182.441 180.744 177.159 180.939C173.721 181.075 170.283 181.233 166.845 181.414C163.814 181.575 160.793 181.796 157.629 182C157.541 181.287 157.452 180.778 157.425 180.302C157.278 177.009 157.136 173.715 157 170.421C157 169.666 157 168.901 157 168.027C159.481 167.866 161.856 167.594 164.222 167.569C173.083 167.475 181.945 167.484 190.744 167.407C192.747 167.357 194.732 167.144 197 167Z" fill="white"/>
<path d="M174.581 146C180.521 150.828 186.265 155.473 192 160.126L191.866 160.531H189.524C184.6 160.531 179.684 160.531 174.759 160.604C170.823 160.669 166.887 160.871 162.95 161C162.318 161 161.686 161 161.169 161C161.107 160.887 161.05 160.77 161 160.651C161 160.568 161 160.448 161 160.402L174.581 146Z" fill="white"/>
<path d="M196 136.346V124.031C199.612 123.833 203.047 124.625 206.57 124.952C210.094 125.279 213.477 125.447 217 126.11C216.612 130.139 216.26 133.921 215.872 137.99C212.622 138.089 209.336 137.445 206.042 137.356C202.747 137.267 199.471 136.723 196 136.346Z" fill="white"/>
<path d="M209.43 109L216 118.745C213.113 119.424 210.481 118.544 207.841 118.439C205.201 118.335 202.64 118.012 200 117.777C200.812 116.4 207.064 110.595 209.43 109Z" fill="white"/>
<path d="M224.11 168C223.911 166.105 223.893 164.556 224.832 163.108C225.579 161.963 225.996 161.744 227.351 161.996C230.184 162.527 230.905 162.24 232.443 160.034C232.959 159.272 233.519 158.539 234.119 157.837C234.663 157.239 235.337 156.764 236.091 156.447C236.846 156.13 237.664 155.978 238.486 156.002C239.308 156.027 240.114 156.226 240.848 156.587C241.581 156.947 242.224 157.46 242.73 158.089C243.423 159.111 244.442 159.886 245.632 160.295C246.032 160.442 246.46 160.504 246.888 160.476C247.315 160.449 247.731 160.332 248.108 160.135C249.185 159.512 250.254 158.881 251.296 158.215C252.631 157.258 254.259 156.763 255.918 156.809C256.469 156.803 257.011 156.94 257.488 157.207C257.965 157.473 258.359 157.86 258.629 158.325C259.309 159.392 259.749 160.587 259.92 161.831C260.09 163.074 259.988 164.339 259.62 165.541C259.572 165.803 259.433 166.042 259.226 166.217C259.019 166.391 258.756 166.492 258.482 166.501C256.744 166.67 255.058 166.846 253.338 166.973C245.162 167.579 236.978 167.469 228.794 167.537C227.316 167.587 225.839 167.823 224.11 168Z" fill="#CBCFDD"/>
</svg>
