<svg width="300" height="300" viewBox="0 0 300 300" fill="none" xmlns="http://www.w3.org/2000/svg">
<path d="M235.563 172.536C239.776 184.956 243.966 197.326 248.133 209.646C252.3 221.966 256.5 234.3 260.733 246.646C262.072 250.032 262.255 253.766 261.253 257.266C260.473 259.766 260.073 262.386 259.253 264.886C258.153 268.496 256.153 269.886 252.453 268.976C247.623 267.846 242.873 266.336 238.103 264.896C235.643 264.156 234.433 262.156 233.383 259.946C226.583 245.586 221.133 230.706 215.803 215.756C212.353 206.116 208.443 196.646 204.743 187.096C203.99 185.35 203.342 183.56 202.803 181.736C202.596 180.861 202.152 180.059 201.518 179.42C200.885 178.781 200.087 178.33 199.213 178.116C187.213 173.946 179.993 165.546 177.463 153.166C175.343 142.786 180.293 130.946 189.033 125.016C190.803 123.816 192.563 123.236 194.613 124.316C195.562 124.781 196.333 125.544 196.808 126.489C197.283 127.433 197.436 128.507 197.243 129.546C196.863 132.966 196.433 136.386 195.803 139.766C195.343 142.206 195.703 144.056 197.803 145.686C200.129 147.554 202.343 149.557 204.433 151.686C204.827 152.17 205.368 152.513 205.974 152.662C206.58 152.812 207.219 152.761 207.793 152.516C211.126 151.356 214.493 150.293 217.893 149.326C218.511 149.226 219.08 148.932 219.519 148.486C219.958 148.04 220.243 147.466 220.333 146.846C221.123 143.216 222.013 139.596 223.033 136.036C223.222 135.441 223.246 134.805 223.102 134.198C222.957 133.59 222.65 133.033 222.213 132.586C219.963 129.856 217.773 127.066 215.573 124.306C215.162 123.821 214.788 123.307 214.453 122.766C213.063 120.246 214.173 117.566 217.003 117.236C219.061 116.922 221.162 117.055 223.163 117.627C233.113 121.117 245.413 130.796 246.013 147.836C246.283 155.416 243.543 162.226 238.953 168.256C237.973 169.706 236.833 170.996 235.563 172.536ZM252.733 261.886C253.463 258.886 254.123 256.416 254.593 253.886C254.824 252.858 254.793 251.789 254.503 250.776C246.263 226.426 237.923 202.106 229.723 177.776C227.723 171.776 226.273 172.086 232.053 165.456C237.603 159.086 239.973 151.726 238.223 143.266C237.153 138.066 233.523 132.446 229.713 130.086C231.123 133.186 231.183 133.486 230.433 136.556C229.263 141.306 227.973 146.026 226.883 150.786C226.706 151.909 226.202 152.955 225.433 153.793C224.665 154.631 223.666 155.223 222.563 155.496C217.563 157.006 212.563 158.496 207.563 160.176C206.54 160.578 205.42 160.661 204.35 160.415C203.279 160.169 202.307 159.604 201.563 158.796C198.123 155.566 194.703 152.306 191.093 149.276C189.843 148.363 188.91 147.081 188.426 145.61C187.941 144.139 187.93 142.554 188.393 141.076C188.753 139.23 188.997 137.363 189.123 135.486L188.323 135.266C187.186 137.391 186.185 139.586 185.323 141.836C181.683 153.566 188.493 166.586 200.453 171.016C202.143 171.646 203.773 172.446 205.453 173.016C207.453 173.736 208.383 175.256 209.003 177.166C209.893 179.926 210.853 182.666 211.903 185.366C214.783 192.796 217.903 200.146 220.633 207.636C226.573 223.896 231.983 240.356 239.633 255.926C240.083 256.856 240.633 258.106 241.503 258.396C245.133 259.736 248.793 260.706 252.733 261.886Z" fill="#3558A2"/>
<path d="M60.6934 76.6663C57.1534 75.8063 53.8534 74.8463 50.4934 74.2263C47.8834 73.7463 46.4933 71.3863 47.1833 68.7163C49.8533 57.7163 52.3933 46.7163 55.0333 35.7163C56.0333 31.6063 58.1234 30.3563 62.2434 31.2963C73.9834 33.9863 85.7034 36.7264 97.4534 39.3764C100.293 40.0164 101.953 41.4563 103.393 44.2063C107.233 51.5863 111.143 59.0863 118.803 63.4763C120.05 64.204 121.351 64.8359 122.693 65.3663C125.303 66.3663 126.443 67.9363 125.843 70.5763C124.63 75.9696 123.297 81.3296 121.843 86.6563C121.083 89.4663 119.153 90.3463 116.093 89.6563L92.8334 84.1963C92.5834 84.1363 92.3134 84.1163 91.7434 84.0463C90.7434 88.2463 89.7434 92.4463 88.8334 96.6463C82.8334 123.026 76.8334 149.406 70.8334 175.786C69.9834 179.556 68.7434 180.626 64.9934 180.276C57.5067 179.556 50.03 178.723 42.5633 177.776C38.4733 177.256 37.3634 175.436 38.3234 171.336C40.4934 162.086 42.7133 152.846 44.9133 143.606C50.0333 122.126 55.1533 100.65 60.2733 79.1763C60.5233 78.3763 60.5734 77.5863 60.6934 76.6663ZM67.9133 78.3163C60.5433 109.316 53.2433 140.046 45.9133 170.946L64.2234 172.946C71.1134 142.596 77.9133 112.556 84.7733 82.3063L67.9133 78.3163ZM118.243 71.6163C117.043 70.8863 116.113 70.3264 115.243 69.7464C111.063 67.1164 107.183 64.1163 104.443 59.9363C101.913 56.0763 99.5133 52.1162 97.1833 48.1362C96.9266 47.6166 96.5511 47.1649 96.0873 46.8174C95.6234 46.4699 95.0841 46.2365 94.5133 46.1362C88.3233 44.7862 82.1634 43.3162 75.9934 41.8862L61.7334 38.5863C59.4234 48.4063 57.1734 58.0263 54.8734 67.8263L115.723 82.0563L118.243 71.6163Z" fill="#3558A2"/>
<path d="M141.992 121.395C141.332 123.555 140.692 125.525 140.132 127.515C138.062 134.745 136.032 141.985 133.972 149.225C133.764 150.013 133.51 150.787 133.212 151.545C132.152 154.035 130.472 155.245 127.852 154.635C124.603 153.852 121.427 152.788 118.362 151.455C115.652 150.305 114.512 147.935 114.992 144.985C115.992 138.725 117.072 132.475 118.132 126.235C118.672 123.115 119.252 120.015 119.872 116.605C118.212 116.195 116.662 115.835 115.122 115.425C110.832 114.295 109.992 112.835 111.122 108.515C111.902 105.515 112.632 102.516 113.482 99.5955C114.332 96.6755 116.192 95.4755 119.252 96.1855C130.352 98.7855 141.442 101.419 152.522 104.086C156.202 104.966 157.212 106.535 156.442 110.165C155.802 113.165 155.062 116.165 154.242 119.165C153.422 122.165 152.112 122.975 149.022 122.635C147.492 122.465 146.022 122.045 144.492 121.775C143.722 121.585 142.932 121.515 141.992 121.395ZM148.932 110.595L119.802 103.706C119.342 105.705 118.982 107.205 118.602 108.835L147.822 115.075L148.932 110.595ZM127.042 118.025C126.752 119.805 126.542 121.115 126.292 122.715L133.292 124.635L134.812 119.725L127.042 118.025ZM124.042 133.755L130.232 135.555L131.382 131.635L124.932 129.945L124.042 133.755ZM122.202 145.435L127.022 146.975L128.292 142.505L122.922 141.015L122.202 145.435Z" fill="#3558A2"/>
<path d="M166.223 152.187C167.623 157.937 168.963 163.457 170.303 168.987C170.513 169.867 170.763 170.747 170.883 171.637C171.173 173.787 170.333 175.507 168.253 176.147C164.974 177.182 161.634 178.014 158.253 178.637C155.553 179.107 154.163 177.857 153.253 174.767C151.763 169.647 150.333 164.507 148.873 159.377C148.703 158.767 148.473 158.187 148.193 157.377C146.743 157.377 145.303 157.487 143.883 157.377C141.413 157.157 140.083 155.627 140.343 153.167C140.903 147.987 142.643 143.317 146.663 139.727C149.423 137.193 153.043 135.803 156.79 135.839C160.537 135.874 164.131 137.332 166.843 139.917C168.222 141.23 169.511 142.633 170.703 144.117C173.013 146.987 172.193 149.867 168.703 151.277C168.043 151.557 167.323 151.817 166.223 152.187ZM163.223 170.187C161.873 164.727 160.613 159.607 159.303 154.277L155.303 155.387L159.763 170.987L163.223 170.187ZM148.823 149.437C153.393 148.197 157.823 147.437 162.093 145.517C157.733 141.187 151.323 143.067 148.793 149.387L148.823 149.437Z" fill="#3558A2"/>
<path d="M252.733 261.886C248.793 260.706 245.132 259.736 241.572 258.466C240.752 258.176 240.153 256.926 239.703 255.996C232.033 240.426 226.623 223.996 220.703 207.706C217.963 200.216 214.853 192.866 211.973 185.436C210.923 182.736 209.972 179.996 209.072 177.236C208.452 175.326 207.532 173.806 205.522 173.086C203.832 172.466 202.202 171.666 200.522 171.086C188.522 166.656 181.752 153.636 185.392 141.906C186.254 139.656 187.256 137.461 188.392 135.336L189.192 135.556C189.066 137.433 188.822 139.3 188.463 141.146C187.999 142.624 188.011 144.209 188.495 145.68C188.979 147.151 189.912 148.433 191.162 149.346C194.772 152.346 198.163 155.636 201.633 158.866C202.377 159.674 203.348 160.238 204.419 160.485C205.49 160.731 206.61 160.648 207.633 160.246C212.633 158.586 217.633 157.076 222.633 155.566C223.736 155.293 224.734 154.7 225.503 153.863C226.271 153.025 226.775 151.979 226.953 150.856C228.043 146.096 229.333 141.376 230.503 136.626C231.253 133.556 231.192 133.256 229.782 130.156C233.592 132.516 237.222 138.156 238.292 143.336C240.042 151.796 237.673 159.156 232.123 165.526C226.343 172.156 227.762 171.846 229.792 177.846C237.992 202.206 246.332 226.526 254.572 250.846C254.862 251.859 254.893 252.928 254.662 253.956C254.122 256.416 253.463 258.816 252.733 261.886ZM248.983 248.786C248.923 247.745 248.482 246.762 247.745 246.024C247.007 245.287 246.024 244.846 244.983 244.786C244.028 244.812 243.121 245.213 242.459 245.901C241.797 246.59 241.432 247.511 241.442 248.466C241.379 248.982 241.423 249.505 241.571 250.002C241.719 250.5 241.968 250.962 242.302 251.359C242.637 251.756 243.051 252.079 243.516 252.309C243.982 252.538 244.49 252.67 245.009 252.694C245.527 252.718 246.045 252.635 246.53 252.449C247.015 252.264 247.457 251.98 247.827 251.616C248.197 251.252 248.489 250.816 248.682 250.334C248.876 249.852 248.968 249.335 248.952 248.816L248.983 248.786Z" fill="#CBCFDD"/>
<path d="M67.9126 78.3164L84.7527 82.3164C77.8927 112.566 71.0926 142.606 64.2026 172.956L45.8926 170.956C53.2426 140.046 60.5426 109.316 67.9126 78.3164Z" fill="white"/>
<path d="M118.242 71.6162L115.682 82.0862L54.832 67.8162C57.132 58.0162 59.382 48.3962 61.692 38.5762L75.952 41.8762C82.122 43.3062 88.282 44.7762 94.4721 46.1262C95.0429 46.2265 95.582 46.4598 96.0459 46.8073C96.5098 47.1547 96.8853 47.6066 97.142 48.1262C99.472 52.1262 101.872 56.0661 104.402 59.9261C107.142 64.1061 111.022 67.1062 115.202 69.7362C116.112 70.3262 117.042 70.8862 118.242 71.6162ZM92.2421 65.4462C92.2635 64.9937 92.1948 64.5414 92.04 64.1157C91.8853 63.69 91.6475 63.2993 91.3405 62.9662C91.0334 62.6331 90.6633 62.3644 90.2516 62.1755C89.8399 61.9867 89.3947 61.8816 88.942 61.8662C87.9386 61.8715 86.9782 62.2745 86.2715 62.9868C85.5648 63.6992 85.1693 64.6627 85.172 65.6661C85.1663 66.1438 85.2573 66.6177 85.4396 67.0593C85.6219 67.5009 85.8917 67.901 86.2327 68.2356C86.5737 68.5702 86.9788 68.8323 87.4238 69.0061C87.8688 69.1799 88.3444 69.2618 88.8219 69.2469C89.2994 69.2321 89.769 69.1207 90.2023 68.9196C90.6356 68.7184 91.0237 68.4317 91.3433 68.0765C91.6628 67.7214 91.9072 67.3053 92.0616 66.8533C92.2161 66.4012 92.2775 65.9226 92.2421 65.4462V65.4462ZM75.812 61.1561C75.831 60.702 75.7574 60.2489 75.5957 59.8241C75.434 59.3993 75.1875 59.0119 74.8713 58.6854C74.5551 58.3589 74.1758 58.1002 73.7565 57.9249C73.3371 57.7497 72.8865 57.6617 72.432 57.6661C71.4735 57.6365 70.5423 57.9885 69.843 58.6447C69.1437 59.3009 68.7334 60.2077 68.702 61.1661C68.6775 61.6411 68.7503 62.116 68.9159 62.5618C69.0815 63.0075 69.3365 63.4147 69.6652 63.7584C69.9939 64.1021 70.3893 64.375 70.8273 64.5603C71.2652 64.7456 71.7365 64.8395 72.212 64.8362C73.1692 64.8004 74.0762 64.3988 74.746 63.7141C75.4158 63.0294 75.7973 62.1138 75.812 61.1561Z" fill="#979FBB"/>
<path d="M148.933 110.597L147.823 115.077L118.604 108.837C118.984 107.207 119.343 105.687 119.803 103.707L148.933 110.597Z" fill="#979FBB"/>
<path d="M127.042 118.027L134.852 119.727L133.332 124.637L126.332 122.717C126.542 121.117 126.752 119.817 127.042 118.027Z" fill="#979FBB"/>
<path d="M124.023 133.757L124.913 129.947L131.364 131.637L130.214 135.557L124.023 133.757Z" fill="#979FBB"/>
<path d="M122.184 145.438L122.904 141.018L128.274 142.508L127.004 146.978L122.184 145.438Z" fill="#979FBB"/>
<path d="M163.194 170.136L159.724 170.937L155.264 155.337L159.264 154.227C160.584 159.557 161.844 164.676 163.194 170.136Z" fill="#979FBB"/>
<path d="M148.793 149.386C151.283 143.066 157.733 141.187 162.063 145.466C157.793 147.356 153.323 148.146 148.793 149.386Z" fill="#979FBB"/>
<path d="M248.984 248.817C248.999 249.336 248.907 249.853 248.713 250.334C248.52 250.816 248.229 251.253 247.858 251.617C247.488 251.981 247.047 252.264 246.562 252.45C246.077 252.635 245.559 252.718 245.04 252.694C244.521 252.67 244.013 252.539 243.547 252.309C243.082 252.08 242.668 251.756 242.334 251.359C241.999 250.962 241.75 250.501 241.602 250.003C241.454 249.505 241.41 248.982 241.474 248.467C241.463 247.512 241.828 246.591 242.49 245.902C243.152 245.214 244.059 244.813 245.014 244.787C246.055 244.855 247.034 245.302 247.767 246.046C248.499 246.789 248.932 247.775 248.984 248.817Z" fill="#3558A2"/>
<path d="M92.2422 65.4471C92.2776 65.9235 92.2162 66.4022 92.0618 66.8542C91.9073 67.3063 91.6629 67.7224 91.3434 68.0775C91.0238 68.4326 90.6357 68.7194 90.2024 68.9205C89.7691 69.1217 89.2995 69.2331 88.822 69.2479C88.3445 69.2628 87.8689 69.1809 87.424 69.0071C86.979 68.8333 86.5738 68.5711 86.2328 68.2366C85.8918 67.902 85.622 67.5019 85.4397 67.0603C85.2574 66.6187 85.1664 66.1448 85.1721 65.6671C85.1695 64.6637 85.5649 63.7001 86.2716 62.9878C86.9783 62.2754 87.9387 61.8725 88.9422 61.8672C89.3949 61.8826 89.84 61.9877 90.2517 62.1765C90.6635 62.3654 91.0336 62.6341 91.3406 62.9672C91.6476 63.3002 91.8854 63.691 92.0402 64.1167C92.1949 64.5424 92.2637 64.9947 92.2422 65.4471V65.4471Z" fill="#3558A2"/>
<path d="M75.8119 61.1577C75.7972 62.1154 75.4157 63.031 74.7459 63.7156C74.0761 64.4003 73.1691 64.8019 72.2119 64.8377C71.7364 64.841 71.2651 64.7471 70.8272 64.5618C70.3892 64.3765 69.9937 64.1036 69.6651 63.7599C69.3364 63.4163 69.0814 63.0091 68.9158 62.5633C68.7502 62.1175 68.6774 61.6426 68.7019 61.1677C68.7332 60.2092 69.1436 59.3024 69.8429 58.6462C70.5422 57.9901 71.4734 57.6381 72.4319 57.6677C72.8864 57.6633 73.337 57.7513 73.7564 57.9265C74.1757 58.1018 74.555 58.3605 74.8712 58.687C75.1874 59.0135 75.4339 59.4009 75.5956 59.8257C75.7573 60.2504 75.8309 60.7036 75.8119 61.1577V61.1577Z" fill="#3558A2"/>
</svg>
