<svg width="300" height="300" viewBox="0 0 300 300" fill="none" xmlns="http://www.w3.org/2000/svg">
<path d="M172.576 185.122C170.896 184.692 169.296 184.382 167.766 183.852C166.041 183.29 164.368 182.58 162.766 181.732C159.946 180.182 158.586 177.512 157.926 174.502C157.789 173.602 157.861 172.683 158.136 171.816C158.412 170.949 158.884 170.157 159.516 169.502C160.756 167.962 162.176 166.562 163.646 164.962C163.086 164.742 162.476 164.452 161.836 164.262C158.758 163.416 155.96 161.77 153.726 159.492C152.525 158.25 151.65 156.732 151.176 155.072C150.612 153.475 150.602 151.736 151.146 150.132C151.69 148.529 152.757 147.155 154.176 146.232C155.266 145.432 156.406 144.692 157.476 143.952C155.476 143.262 153.476 142.682 151.566 141.952C150.5 141.461 149.493 140.85 148.566 140.132C142.846 136.062 143.846 127.392 148.186 123.982C151.272 121.742 154.763 120.123 158.466 119.212C163.516 117.781 168.688 116.82 173.916 116.342C175.066 116.222 176.196 115.902 177.626 115.612C177.333 114.808 176.999 114.021 176.626 113.252C175.049 110.391 173.932 107.3 173.316 104.092C172.436 99.7017 172.786 95.5117 175.516 91.6317C178.246 87.7517 184.806 85.4116 189.846 87.9816C193.783 90.0433 197.528 92.4529 201.036 95.1817C205.769 98.8738 211.322 101.371 217.226 102.462C218.021 102.635 218.832 102.736 219.646 102.762C224.736 102.762 229.816 102.852 234.896 102.702C237.323 102.542 239.74 102.248 242.136 101.822C242.902 101.694 243.689 101.82 244.377 102.181C245.065 102.542 245.616 103.118 245.946 103.822C246.251 104.575 246.473 105.36 246.606 106.162C248.566 115.915 250.512 125.665 252.446 135.412C254.646 146.498 256.832 157.585 259.006 168.672C259.566 171.532 259.006 172.952 256.286 174.152C253.566 175.352 250.536 176.322 247.636 177.342C245.416 178.122 243.136 178.742 240.956 179.602C233.466 182.602 225.956 185.512 218.546 188.702C213.726 190.782 209.126 193.362 204.366 195.572C198.568 198.365 192.434 200.398 186.116 201.622C183.087 202.28 179.943 202.173 176.966 201.312C173.116 200.082 170.586 197.582 170.016 193.442C169.814 191.445 170.199 189.432 171.126 187.652C171.556 186.762 172.066 186.012 172.576 185.122ZM252.266 168.702C248.326 148.702 244.426 129.002 240.496 109.122C239.396 109.122 238.496 109.122 237.616 109.122C232.996 109.282 228.376 109.582 223.746 109.582C220.21 109.615 216.685 109.194 213.256 108.332C207.038 106.627 201.213 103.726 196.106 99.7916C193.252 97.71 190.284 95.7903 187.216 94.0416C185.136 92.8216 183.216 93.2717 181.526 94.9517C180.921 95.5061 180.433 96.1754 180.089 96.9205C179.746 97.6657 179.554 98.4717 179.526 99.2916C179.396 102.462 180.436 105.352 181.626 108.192C182.326 109.862 183.256 111.432 183.946 113.102C184.294 113.845 184.49 114.651 184.521 115.471C184.552 116.291 184.418 117.109 184.127 117.877C183.836 118.645 183.394 119.346 182.827 119.939C182.26 120.533 181.579 121.006 180.826 121.332C179.934 121.774 178.985 122.09 178.006 122.272C175.696 122.692 173.366 123.052 171.006 123.332C166.225 123.869 161.525 124.973 157.006 126.622C155.9 127.029 154.824 127.513 153.786 128.072C152.98 128.397 152.294 128.962 151.82 129.69C151.346 130.418 151.107 131.273 151.136 132.142C151.196 134.142 152.556 135.012 154.036 135.732C155.173 136.286 156.371 136.705 157.606 136.982C163.989 138.398 170.58 138.625 177.046 137.652C177.764 137.547 178.491 137.516 179.216 137.562C179.947 137.57 180.654 137.828 181.218 138.294C181.782 138.76 182.169 139.405 182.316 140.122C182.463 140.838 182.374 141.583 182.063 142.245C181.751 142.907 181.232 143.45 180.586 143.792C179.848 144.136 179.073 144.391 178.276 144.552C176.426 144.982 174.556 145.312 172.706 145.752C168.386 146.752 164.086 147.892 160.206 150.172C159.126 150.802 157.916 151.312 157.336 152.682C157.622 154 158.421 155.151 159.556 155.882C161.168 157.074 163.038 157.869 165.016 158.202C170.346 159.202 175.676 158.512 181.016 157.982C183.436 157.732 185.816 157.062 188.216 156.682C190.406 156.332 192.136 157.312 192.586 159.002C193.096 160.932 192.116 162.502 189.806 163.252C188.516 163.662 187.186 163.952 185.866 164.252C180.19 165.422 174.665 167.23 169.396 169.642C167.813 170.343 166.421 171.413 165.336 172.762C165.155 172.937 165.012 173.148 164.918 173.381C164.823 173.614 164.779 173.865 164.787 174.117C164.796 174.368 164.857 174.615 164.967 174.842C165.077 175.068 165.233 175.269 165.426 175.432C165.867 175.886 166.385 176.258 166.956 176.532C169.067 177.593 171.368 178.226 173.726 178.392C178.794 178.659 183.87 178.039 188.726 176.562C192.196 175.562 195.626 174.372 199.106 173.382C200.223 173.031 201.399 172.905 202.566 173.012C203.065 173.082 203.538 173.277 203.941 173.578C204.345 173.88 204.667 174.278 204.876 174.736C205.085 175.195 205.175 175.698 205.139 176.201C205.102 176.703 204.939 177.189 204.666 177.612C204.335 178.154 203.899 178.626 203.384 178.998C202.869 179.371 202.285 179.637 201.666 179.782C197.876 180.982 194.076 182.182 190.266 183.312C186.456 184.442 182.976 185.552 179.856 187.832C178.886 188.501 178.02 189.31 177.286 190.232C176.973 190.596 176.759 191.035 176.663 191.505C176.567 191.976 176.592 192.463 176.736 192.921C176.88 193.379 177.138 193.793 177.486 194.124C177.834 194.454 178.261 194.691 178.726 194.812C180.704 195.54 182.864 195.611 184.886 195.012C189.146 193.822 193.376 192.512 197.586 191.132C199.39 190.529 201.137 189.766 202.806 188.852C212.459 183.846 222.415 179.447 232.616 175.682C237.708 173.546 242.916 171.696 248.216 170.142C249.536 169.822 250.696 169.282 252.266 168.702V168.702Z" fill="#3558A2"/>
<path d="M105.864 142.441C108.514 142.161 110.864 141.961 113.134 141.671C117.999 140.983 122.954 141.296 127.694 142.591C131.042 143.522 134.02 145.464 136.224 148.151C137.499 149.761 138.226 151.736 138.3 153.788C138.374 155.841 137.79 157.863 136.634 159.561C135.054 161.802 133.007 163.675 130.634 165.051L128.144 166.581C130.764 167.721 133.354 168.741 135.844 169.971C137.847 170.869 139.556 172.314 140.774 174.141C143.064 177.821 142.954 181.141 140.774 184.331C137.974 188.461 133.864 190.611 129.244 192.001C128.734 192.161 128.244 192.271 127.674 192.411C127.324 192.501 126.984 192.621 126.484 192.761C128.094 193.841 129.704 194.761 131.114 195.901C132.648 197.017 133.998 198.366 135.114 199.901C137.184 203.261 136.904 206.551 134.254 209.711C132.982 211.261 131.4 212.528 129.609 213.428C127.817 214.329 125.857 214.844 123.854 214.941C122.85 214.956 121.848 215.032 120.854 215.171C118.524 215.621 118.004 216.671 118.854 218.841C119.342 219.909 119.76 221.008 120.104 222.131C120.607 223.886 120.524 225.757 119.867 227.461C119.21 229.165 118.015 230.607 116.464 231.571C115.179 232.413 113.758 233.025 112.264 233.381C106.264 234.631 100.264 234.691 94.4339 232.381C86.5239 229.221 78.5238 226.311 70.5838 223.221C62.4497 220.147 54.1461 217.543 45.7138 215.421C45.0138 215.231 44.3038 215.101 43.6038 214.901C41.0838 214.171 39.9239 212.771 40.0039 210.171C40.1039 208.27 40.3143 206.377 40.6339 204.501C42.0605 194.841 43.5072 185.174 44.9738 175.501C46.1638 167.631 47.4239 159.781 48.6339 151.911C48.8839 150.301 49.0439 148.681 49.2939 147.071C49.6739 144.561 50.7538 143.511 53.2238 143.471C61.3438 143.321 68.1339 139.901 74.0739 134.721C77.8339 131.451 81.2439 127.791 84.7739 124.271C88.7739 120.271 93.0439 116.841 98.6639 115.641C100.791 115.191 102.977 115.1 105.134 115.371C108.844 115.841 111.774 119.041 112.484 122.831C113.076 126.708 112.407 130.673 110.574 134.141C109.654 136.141 108.404 137.911 107.304 139.791L105.864 142.441ZM55.8639 150.261C55.7439 150.451 55.5839 150.591 55.5539 150.761C54.9339 154.761 54.3138 158.761 53.7138 162.821C53.0472 167.107 52.4106 171.401 51.8039 175.701C51.1973 180.001 50.5639 184.201 49.9039 188.301C49.2439 192.681 48.5039 197.061 47.9039 201.451C47.5939 203.931 46.7539 206.371 47.1739 208.921C47.6139 209.101 47.9439 209.261 48.2839 209.361C52.8239 210.601 57.4539 211.581 61.8839 213.121C69.5039 215.761 77.0139 218.691 84.5239 221.611C90.8739 224.071 97.2239 226.441 104.034 227.271C106.366 227.657 108.754 227.534 111.034 226.911C113.704 226.071 114.334 224.731 113.104 222.191C111.456 218.607 108.543 215.758 104.924 214.191C102.354 213.061 99.6938 212.191 97.0838 211.131C96.0473 210.767 95.0436 210.315 94.0838 209.781C93.2801 209.338 92.667 208.616 92.3609 207.752C92.0549 206.887 92.0773 205.94 92.4239 205.091C93.0639 203.651 94.8939 203.011 96.9139 203.601C97.8639 203.881 98.764 204.341 99.704 204.691C107.18 207.523 115.158 208.789 123.144 208.411C125.155 208.266 127.059 207.445 128.544 206.081C128.83 205.889 129.067 205.633 129.235 205.333C129.404 205.033 129.499 204.697 129.514 204.354C129.528 204.01 129.462 203.667 129.319 203.354C129.177 203.041 128.963 202.766 128.694 202.551C128.179 202.043 127.62 201.581 127.024 201.171C124.573 199.283 121.797 197.86 118.834 196.971C113.834 195.571 108.834 194.311 103.894 192.971C103.189 192.81 102.494 192.606 101.814 192.361C101.139 192.088 100.566 191.612 100.174 191C99.7817 190.387 99.5895 189.667 99.6239 188.941C99.7161 188.165 100.082 187.448 100.656 186.918C101.23 186.389 101.974 186.081 102.754 186.051C104.115 185.974 105.48 186.017 106.834 186.181C113.152 186.897 119.536 186.816 125.834 185.941C128.814 185.528 131.602 184.228 133.834 182.211C136.224 180.111 136.084 177.871 133.314 176.301C131.303 175.073 129.128 174.137 126.854 173.521C122.634 172.521 118.324 171.951 114.034 171.321C111.894 171.001 109.694 171.011 107.534 170.781C105.374 170.551 103.924 168.961 104.304 166.931C104.395 166.202 104.738 165.527 105.273 165.024C105.807 164.52 106.501 164.218 107.234 164.171C110.024 163.831 112.814 163.531 115.594 163.171C119.472 162.775 123.222 161.558 126.594 159.601C128.183 158.568 129.603 157.296 130.804 155.831C131.984 154.441 131.744 153.301 130.494 151.961C129.115 150.515 127.364 149.477 125.434 148.961C120.224 147.451 115.014 148.141 109.784 148.731C107.006 149.126 104.208 149.373 101.404 149.471C97.4039 149.471 95.5239 146.241 97.324 142.731C97.904 141.601 98.6839 140.591 99.3739 139.521C100.984 137.001 102.674 134.521 104.194 131.951C105.372 129.999 105.987 127.76 105.974 125.481C105.974 122.841 104.774 121.591 102.094 121.851C100.392 122.047 98.7304 122.498 97.1639 123.191C94.0939 124.481 91.7739 126.791 89.4439 129.111C85.7139 132.821 82.0739 136.651 78.0639 140.041C71.8239 145.311 64.8238 149.211 56.4638 150.041C56.2709 150.097 56.0835 150.17 55.9039 150.261H55.8639Z" fill="#3558A2"/>
<path d="M125.245 75.2721C126.549 72.4167 128.444 69.8706 130.805 67.8021C132.501 66.2761 134.629 65.3151 136.895 65.0521C143.085 64.4821 146.765 68.6721 148.005 73.7021C149.005 77.702 148.495 81.642 147.765 85.572C146.235 93.802 143.205 101.572 140.075 109.292C138.615 112.902 137.135 116.502 135.855 120.172C134.955 122.752 132.755 123.672 130.635 124.552C129.235 125.132 127.865 124.272 126.815 123.112C124.495 120.562 122.105 118.112 119.815 115.512C113.167 108.271 108.04 99.7697 104.735 90.512C103.415 86.732 102.385 82.912 102.735 78.832C102.903 76.6499 103.615 74.5445 104.804 72.7072C105.993 70.8699 107.623 69.3591 109.545 68.3121C112.975 66.2521 117.105 66.8621 120.335 69.8221C122.045 71.4421 123.485 73.3121 125.245 75.2721ZM130.075 116.542C130.385 115.832 130.575 115.442 130.725 115.042C131.725 112.512 132.645 109.962 133.655 107.442C136.345 100.712 139.105 94.002 140.655 86.902C141.485 83.112 142.345 79.292 141.505 75.362C141.428 74.5883 141.145 73.8493 140.686 73.2216C140.227 72.5939 139.609 72.1003 138.895 71.792C137.245 71.192 135.895 72.0521 134.745 73.1521C132.713 75.1182 131.269 77.6113 130.575 80.3521C129.839 82.8754 129.478 85.4935 129.505 88.122C129.496 88.8744 129.225 89.6001 128.737 90.1731C128.249 90.746 127.576 91.1299 126.834 91.2583C126.093 91.3866 125.33 91.2511 124.678 90.8755C124.026 90.4999 123.526 89.9078 123.265 89.202C123.098 88.6921 122.967 88.1707 122.875 87.642C122.038 83.8235 120.391 80.2292 118.045 77.1021C117.176 76.0684 116.193 75.1359 115.115 74.322C114.686 73.9615 114.134 73.781 113.575 73.8183C113.016 73.8555 112.492 74.1078 112.115 74.5221C111.256 75.1931 110.554 76.0438 110.058 77.0145C109.563 77.9853 109.285 79.0527 109.245 80.142C109.26 82.1365 109.598 84.1153 110.245 86.002C113.795 98.0019 120.885 107.682 130.075 116.542V116.542Z" fill="#3558A2"/>
<path d="M252.264 168.702C250.694 169.282 249.535 169.812 248.325 170.132C243.025 171.687 237.817 173.536 232.724 175.672C222.524 179.431 212.568 183.823 202.915 188.822C201.246 189.736 199.499 190.5 197.695 191.102C193.485 192.482 189.254 193.792 184.994 194.982C182.973 195.581 180.813 195.511 178.834 194.782C178.37 194.662 177.943 194.425 177.595 194.094C177.247 193.763 176.989 193.349 176.845 192.891C176.701 192.433 176.675 191.946 176.772 191.476C176.868 191.005 177.082 190.567 177.394 190.202C178.129 189.28 178.995 188.472 179.964 187.802C183.084 185.522 186.714 184.372 190.374 183.282C194.034 182.192 197.984 180.952 201.774 179.752C202.394 179.608 202.978 179.341 203.493 178.969C204.008 178.596 204.443 178.125 204.774 177.582C205.048 177.159 205.211 176.674 205.248 176.171C205.284 175.669 205.194 175.165 204.985 174.707C204.775 174.248 204.454 173.85 204.05 173.549C203.647 173.247 203.173 173.052 202.675 172.982C201.508 172.876 200.332 173.002 199.214 173.352C195.734 174.352 192.304 175.512 188.834 176.532C183.979 178.01 178.903 178.629 173.834 178.362C171.477 178.196 169.176 177.564 167.065 176.502C166.494 176.228 165.976 175.856 165.534 175.402C165.342 175.24 165.186 175.039 165.076 174.812C164.966 174.586 164.905 174.339 164.896 174.087C164.888 173.835 164.932 173.585 165.027 173.351C165.121 173.118 165.263 172.907 165.445 172.732C166.53 171.383 167.922 170.314 169.504 169.612C174.774 167.2 180.299 165.392 185.974 164.222C187.294 163.932 188.625 163.642 189.915 163.222C192.225 162.472 193.205 160.902 192.695 158.972C192.245 157.282 190.515 156.302 188.325 156.652C185.925 157.032 183.544 157.652 181.124 157.952C175.814 158.482 170.484 159.162 165.124 158.172C163.147 157.839 161.277 157.044 159.664 155.852C158.53 155.122 157.731 153.971 157.445 152.652C158.025 151.282 159.235 150.772 160.315 150.142C164.195 147.862 168.495 146.742 172.815 145.722C174.665 145.282 176.534 144.952 178.384 144.522C179.182 144.361 179.957 144.106 180.695 143.762C181.341 143.42 181.859 142.877 182.171 142.215C182.483 141.554 182.572 140.809 182.425 140.092C182.278 139.375 181.891 138.73 181.327 138.264C180.763 137.799 180.056 137.54 179.325 137.532C178.6 137.487 177.873 137.517 177.154 137.622C170.688 138.596 164.098 138.369 157.714 136.952C156.48 136.675 155.282 136.256 154.144 135.702C152.664 134.982 151.304 134.092 151.244 132.112C151.216 131.244 151.455 130.388 151.929 129.66C152.403 128.932 153.089 128.367 153.894 128.042C154.933 127.484 156.008 126.999 157.114 126.592C161.634 124.944 166.334 123.839 171.114 123.302C173.444 123.022 175.774 122.662 178.114 122.242C179.093 122.061 180.043 121.744 180.935 121.302C181.688 120.977 182.369 120.503 182.936 119.91C183.503 119.316 183.945 118.615 184.236 117.847C184.527 117.08 184.661 116.261 184.63 115.441C184.599 114.621 184.403 113.815 184.055 113.072C183.365 111.402 182.434 109.832 181.734 108.162C180.544 105.322 179.504 102.432 179.634 99.2619C179.663 98.442 179.855 97.6359 180.198 96.8908C180.541 96.1456 181.03 95.4763 181.634 94.9219C183.344 93.2419 185.245 92.7919 187.325 94.0119C190.393 95.7606 193.361 97.6803 196.214 99.7619C201.321 103.697 207.147 106.597 213.364 108.302C216.793 109.165 220.319 109.585 223.854 109.552C228.484 109.552 233.104 109.252 237.724 109.092C238.614 109.092 239.504 109.092 240.604 109.092C244.424 129.002 248.324 148.722 252.264 168.702Z" fill="white"/>
<path d="M55.9038 150.262C56.1365 150.151 56.3815 150.067 56.6338 150.012C64.9938 149.182 71.9938 145.282 78.2338 140.012C82.2338 136.622 85.8838 132.793 89.6138 129.083C91.9438 126.763 94.2637 124.453 97.3338 123.163C98.9002 122.47 100.562 122.018 102.264 121.823C104.944 121.563 106.114 122.823 106.144 125.453C106.157 127.732 105.541 129.971 104.364 131.922C102.844 134.502 101.154 136.922 99.5438 139.492C98.8538 140.562 98.0738 141.572 97.4938 142.702C95.6938 146.212 97.5839 149.452 101.574 149.442C104.378 149.345 107.176 149.098 109.954 148.702C115.184 148.112 120.394 147.422 125.604 148.932C127.534 149.448 129.285 150.486 130.664 151.932C131.914 153.272 132.154 154.412 130.974 155.802C129.773 157.268 128.353 158.54 126.764 159.572C123.392 161.53 119.642 162.747 115.764 163.142C112.984 163.522 110.194 163.822 107.404 164.142C106.671 164.19 105.977 164.492 105.443 164.996C104.908 165.499 104.565 166.174 104.474 166.902C104.094 168.902 105.414 170.502 107.704 170.752C109.994 171.002 112.064 170.972 114.204 171.292C118.494 171.922 122.804 172.522 127.024 173.492C129.298 174.109 131.473 175.045 133.484 176.272C136.254 177.842 136.394 180.082 134.004 182.182C131.772 184.2 128.984 185.5 126.004 185.912C119.706 186.788 113.322 186.869 107.004 186.152C105.65 185.989 104.285 185.946 102.924 186.022C102.143 186.053 101.4 186.36 100.826 186.89C100.252 187.42 99.8861 188.137 99.7938 188.912C99.7594 189.639 99.9517 190.359 100.344 190.971C100.736 191.584 101.309 192.06 101.984 192.332C102.664 192.578 103.359 192.781 104.064 192.942C109.064 194.262 114.064 195.522 119.004 196.942C121.967 197.831 124.743 199.255 127.194 201.142C127.79 201.553 128.349 202.014 128.864 202.522C129.132 202.737 129.347 203.013 129.489 203.326C129.632 203.639 129.698 203.982 129.684 204.325C129.669 204.669 129.574 205.005 129.405 205.305C129.237 205.605 129 205.861 128.714 206.052C127.228 207.416 125.325 208.238 123.314 208.382C115.328 208.761 107.35 207.495 99.8738 204.662C98.9338 204.312 98.0338 203.852 97.0837 203.572C95.0837 202.982 93.2338 203.622 92.5938 205.062C92.2472 205.912 92.2248 206.859 92.5309 207.723C92.837 208.588 93.4501 209.31 94.2538 209.752C95.2136 210.287 96.2172 210.739 97.2538 211.102C99.8638 212.102 102.524 213.032 105.094 214.162C108.713 215.73 111.626 218.579 113.274 222.162C114.504 224.702 113.874 226.042 111.204 226.882C108.924 227.506 106.536 227.629 104.204 227.242C97.3939 226.412 91.0439 224.042 84.6939 221.582C77.1839 218.662 69.6938 215.732 62.0538 213.092C57.6238 211.552 52.9939 210.572 48.4539 209.332C48.1139 209.232 47.7838 209.072 47.3438 208.892C46.9238 206.342 47.7639 203.892 48.0739 201.422C48.6239 197.032 49.3639 192.652 50.0739 188.272C50.7072 184.072 51.3404 179.872 51.9738 175.672C52.6071 171.472 53.2438 167.179 53.8838 162.792C54.4838 158.792 55.1038 154.792 55.7238 150.732C55.6438 150.592 55.7838 150.452 55.9038 150.262Z" fill="white"/>
<path d="M130.074 116.542C120.884 107.682 113.794 98.0016 110.234 86.0016C109.587 84.115 109.25 82.1361 109.234 80.1417C109.274 79.0524 109.552 77.9849 110.048 77.0142C110.543 76.0434 111.245 75.1927 112.104 74.5217C112.482 74.1074 113.005 73.8552 113.564 73.8179C114.123 73.7806 114.675 73.9611 115.104 74.3217C116.182 75.1355 117.165 76.068 118.034 77.1017C120.38 80.2288 122.027 83.8231 122.864 87.6417C122.957 88.1704 123.087 88.6918 123.254 89.2017C123.515 89.9075 124.015 90.4996 124.667 90.8752C125.319 91.2508 126.082 91.3863 126.824 91.2579C127.565 91.1296 128.238 90.7456 128.726 90.1727C129.214 89.5998 129.486 88.8741 129.494 88.1216C129.467 85.4931 129.828 82.875 130.564 80.3517C131.259 77.611 132.703 75.1178 134.734 73.1517C135.914 72.0517 137.234 71.1516 138.884 71.7916C139.598 72.0999 140.217 72.5935 140.676 73.2212C141.135 73.8489 141.417 74.5879 141.494 75.3616C142.334 79.2916 141.494 83.1117 140.644 86.9017C139.084 94.0017 136.324 100.712 133.644 107.442C132.644 109.962 131.644 112.512 130.714 115.042C130.574 115.442 130.384 115.822 130.074 116.542Z" fill="#979FBB"/>
</svg>
