<svg width="300" height="300" viewBox="0 0 300 300" fill="none" xmlns="http://www.w3.org/2000/svg">
<path d="M112.291 178.609C112.881 179.399 113.021 179.759 113.291 179.919C117.091 182.139 118.221 185.809 118.551 189.819C118.811 193.079 118.851 196.349 119.001 199.609C119.009 200.333 119.072 201.055 119.191 201.769C119.701 204.369 119.191 205.659 117.021 207.009C115.556 207.934 113.902 208.517 112.182 208.716C110.461 208.916 108.718 208.725 107.081 208.159C105.965 207.785 104.881 207.32 103.841 206.769C100.711 205.149 99.0808 202.709 99.6208 199.029C100.161 195.349 100.561 191.479 101.141 187.729C101.523 184.914 102.917 182.333 105.061 180.469C106.551 179.169 106.011 176.129 104.261 175.219C100.641 173.339 97.0108 171.479 93.3808 169.609C92.9802 169.407 92.5659 169.233 92.1409 169.089C89.2109 168.089 88.7109 167.499 88.5709 164.429C88.2109 156.629 87.8909 148.829 87.5709 141.039C87.5709 140.409 87.4909 139.779 87.4309 138.819C84.5609 138.249 81.6608 137.649 78.7608 137.099C72.7608 135.979 66.8308 134.899 60.8708 133.779C58.4308 133.319 57.3209 132.219 57.0709 130.169C56.7509 127.479 57.4809 125.989 59.9409 124.959C63.7909 123.339 67.6709 121.819 71.5709 120.349C96.8309 110.809 122.091 101.279 147.351 91.759C149.487 90.8215 151.903 90.7497 154.091 91.559C157.171 92.659 160.691 92.5591 164.021 92.9291C169.961 93.5991 175.911 94.2391 181.851 94.9291L198.851 96.7891L216.151 98.6691L233.991 100.669C235.801 100.869 237.611 101.009 239.391 101.299C240.174 101.34 240.922 101.634 241.523 102.137C242.123 102.64 242.544 103.326 242.721 104.089C243.071 105.739 242.171 106.779 240.881 107.689C239.346 108.654 238.067 109.975 237.151 111.539C236.486 112.502 235.555 113.249 234.471 113.689C231.301 115.259 228.061 116.689 224.861 118.189C223.971 118.609 223.101 119.079 222.121 119.579C222.931 123.949 223.711 128.219 224.521 132.469C225.331 136.719 226.121 140.829 226.941 144.999C227.265 146.376 227.207 147.815 226.774 149.161C226.34 150.508 225.547 151.71 224.481 152.639C219.533 157.45 214.157 161.802 208.421 165.639C206.761 166.729 205.241 168.039 203.541 169.079C202.251 169.869 200.751 170.329 199.401 171.079C187.736 177.385 175.035 181.547 161.901 183.369C146.293 185.561 130.393 184.256 115.351 179.549C114.531 179.169 113.691 178.979 112.291 178.609ZM120.091 137.129L120.401 137.779C120.726 137.91 121.06 138.017 121.401 138.099L146.251 142.649C154.641 144.179 151.581 144.549 158.931 141.159C182.264 130.412 205.551 119.619 228.791 108.779C229.601 108.409 230.381 107.969 231.171 107.559C227.994 106.837 224.774 106.322 221.531 106.019C214.141 105.219 206.751 104.469 199.361 103.659C191.791 102.829 184.231 101.959 176.661 101.109C168.381 100.179 160.081 99.3191 151.811 98.2991C150.577 98.113 149.316 98.2508 148.151 98.699C122.904 108.239 97.6442 117.766 72.3708 127.279C71.7408 127.519 71.1208 127.819 70.3708 128.159C70.8108 128.459 71.0008 128.689 71.2308 128.739L109.691 135.919C110.338 136.072 111.015 136.045 111.648 135.841C112.281 135.636 112.846 135.262 113.281 134.759C115.842 132.064 118.666 129.632 121.711 127.499C129.711 122.309 137.891 117.499 146.011 112.499C146.788 112.033 147.622 111.666 148.491 111.409C149.221 111.116 150.035 111.103 150.774 111.375C151.512 111.646 152.124 112.182 152.491 112.879C152.861 113.57 152.956 114.375 152.758 115.134C152.559 115.892 152.082 116.548 151.421 116.969C150.332 117.781 149.197 118.529 148.021 119.209C140.911 123.589 133.761 127.909 126.701 132.349C124.321 133.769 122.251 135.529 120.091 137.129ZM192.161 133.319C190.891 133.889 190.061 134.239 189.241 134.619L157.651 149.259C155.491 150.259 153.281 151.039 150.841 150.589C140.788 148.696 130.738 146.809 120.691 144.929C118.771 144.569 116.831 144.299 114.691 143.929C113.951 146.769 113.171 149.269 112.691 151.819C111.551 157.379 111.691 162.999 112.071 168.619C112.231 171.069 112.171 171.079 114.441 171.879C123.174 174.957 132.304 176.769 141.551 177.259C156.994 178.131 172.433 175.466 186.691 169.469C190.431 167.899 194.041 166.029 197.691 164.289C195.791 153.839 194.001 143.739 192.161 133.319ZM105.081 168.219C104.611 159.219 105.161 150.819 108.081 142.579C103.401 141.809 99.1509 140.679 94.8409 140.299C94.6609 140.729 94.5309 140.899 94.5409 141.049C94.7609 147.859 94.9708 154.659 95.2408 161.469C95.2455 161.774 95.3117 162.074 95.4354 162.353C95.5591 162.631 95.7379 162.882 95.9609 163.089C98.7809 164.779 101.701 166.349 105.081 168.219ZM207.081 126.369C208.351 135.959 210.081 145.149 211.681 154.869C214.431 152.439 216.681 150.379 219.051 148.379C219.513 148.026 219.857 147.539 220.035 146.985C220.214 146.431 220.219 145.836 220.051 145.279C218.931 139.789 217.951 134.279 216.911 128.749C216.531 126.749 216.131 124.749 215.681 122.359L207.081 126.369ZM112.321 201.949C112.031 197.199 111.811 192.949 111.461 188.759C111.371 187.629 111.081 186.109 109.661 186.079C108.241 186.049 107.991 187.649 107.811 188.709C107.271 191.822 106.864 194.949 106.591 198.089C106.371 200.659 106.721 201.089 109.151 201.659C110.203 201.83 111.265 201.927 112.331 201.949H112.321ZM203.971 160.289C205.621 159.089 205.191 157.979 204.971 156.959C204.144 151.699 203.301 146.439 202.441 141.179C201.821 137.369 201.171 133.559 200.531 129.729C198.531 130.389 198.531 130.409 198.811 132.299C200.031 139.299 201.221 146.359 202.471 153.379C202.921 155.559 203.411 157.709 203.981 160.289H203.971Z" fill="#3558A2"/>
<path d="M120.091 137.13C122.251 135.53 124.321 133.77 126.601 132.33C133.661 127.89 140.811 123.57 147.921 119.19C149.097 118.51 150.232 117.762 151.321 116.95C151.991 116.532 152.476 115.874 152.678 115.111C152.881 114.347 152.785 113.536 152.411 112.84C152.044 112.144 151.433 111.608 150.694 111.336C149.955 111.065 149.141 111.077 148.411 111.37C147.542 111.628 146.708 111.994 145.931 112.46C137.811 117.46 129.611 122.29 121.631 127.46C118.586 129.594 115.762 132.026 113.201 134.72C112.766 135.223 112.201 135.597 111.568 135.802C110.935 136.006 110.258 136.033 109.611 135.88L71.151 128.7C70.921 128.7 70.731 128.42 70.291 128.12C71.091 127.78 71.711 127.48 72.291 127.24C97.551 117.72 122.811 108.194 148.071 98.6602C149.236 98.2119 150.497 98.0741 151.731 98.2602C160.001 99.2602 168.301 100.14 176.581 101.07C184.151 101.92 191.711 102.79 199.281 103.62C206.671 104.43 214.061 105.18 221.451 105.98C224.694 106.283 227.915 106.798 231.091 107.52C230.301 107.93 229.521 108.37 228.711 108.74C205.431 119.547 182.144 130.34 158.851 141.12C151.501 144.51 154.561 144.12 146.171 142.61L121.411 138.1C121.07 138.018 120.736 137.911 120.411 137.78L120.091 137.13Z" fill="#979FBB"/>
<path d="M192.162 133.32C194.002 143.74 195.792 153.87 197.642 164.32C193.962 166.06 190.352 167.93 186.642 169.5C172.384 175.498 156.946 178.162 141.502 177.29C132.255 176.8 123.126 174.988 114.392 171.91C112.122 171.11 112.182 171.1 112.022 168.65C111.652 163.03 111.502 157.41 112.642 151.85C113.162 149.3 113.942 146.85 114.642 143.96C116.822 144.3 118.762 144.57 120.642 144.96C130.696 146.827 140.746 148.714 150.792 150.62C153.232 151.07 155.442 150.29 157.602 149.29L189.193 134.65C190.063 134.24 190.892 133.89 192.162 133.32Z" fill="#EAECF1"/>
<path d="M105.082 168.221C101.702 166.351 98.782 164.781 95.922 163.091C95.699 162.883 95.5202 162.633 95.3965 162.354C95.2728 162.076 95.2067 161.775 95.202 161.471C94.932 154.661 94.722 147.861 94.502 141.051C94.502 140.901 94.622 140.731 94.802 140.301C99.112 140.681 103.362 141.811 108.042 142.581C105.162 150.841 104.612 159.171 105.082 168.221Z" fill="#EAECF1"/>
<path d="M207.092 126.371L215.702 122.371C216.152 124.731 216.552 126.741 216.932 128.761C217.932 134.271 218.932 139.761 220.072 145.291C220.24 145.848 220.235 146.443 220.056 146.997C219.877 147.551 219.534 148.037 219.072 148.391C216.742 150.391 214.452 152.451 211.702 154.881C210.102 145.151 208.412 135.961 207.092 126.371Z" fill="#EAECF1"/>
<path d="M112.331 201.951C111.268 201.928 110.209 201.831 109.161 201.661C106.731 201.041 106.381 200.661 106.601 198.091C106.867 194.951 107.274 191.824 107.821 188.711C108.001 187.65 108.211 186.05 109.671 186.08C111.131 186.11 111.381 187.63 111.471 188.76C111.821 192.97 112.041 197.2 112.331 201.951Z" fill="white"/>
<path d="M203.981 160.29C203.431 157.71 202.921 155.56 202.531 153.38C201.281 146.38 200.091 139.38 198.871 132.3C198.541 130.41 198.541 130.39 200.591 129.73C201.231 133.56 201.881 137.37 202.501 141.18C203.361 146.44 204.204 151.7 205.031 156.96C205.201 157.98 205.631 159.09 203.981 160.29Z" fill="white"/>
</svg>
