<svg width="300" height="300" viewBox="0 0 300 300" fill="none" xmlns="http://www.w3.org/2000/svg">
<path d="M173.838 116.248C176.088 115.388 177.838 114.698 179.628 114.038C194.298 108.508 206.938 112.358 218.318 122.338C231.228 133.648 231.658 155.648 220.148 170.088C214.828 176.768 208.028 181.498 200.618 185.438C184.708 193.898 167.228 197.888 150.078 202.728C143.758 204.508 137.078 205.118 130.538 206.008C126.148 206.598 123.028 204.518 120.828 200.568C113.388 187.198 109.968 172.428 105.658 157.948C101.968 145.518 99.418 133.038 99.848 119.998C100.428 102.508 111.068 87.7778 126.428 82.4778C143.148 76.6878 169.288 88.2478 172.788 111.268C173.028 112.838 173.448 114.388 173.838 116.248ZM170.298 159.158C170.848 158.94 171.377 158.673 171.878 158.358C176.518 154.828 180.958 155.108 185.508 158.668C191.348 163.248 197.418 167.548 203.228 172.158C205.008 173.568 206.398 173.848 207.878 172.158C211.008 168.678 214.688 165.488 216.988 161.508C222.308 152.288 223.248 142.278 217.578 133.008C211.758 123.508 202.648 118.778 191.298 118.818C185.078 118.818 179.758 121.688 174.298 123.988C170.048 125.768 167.648 124.538 166.938 119.988C166.558 117.568 166.098 115.168 165.698 112.758C163.268 98.3478 151.448 90.0278 138.918 88.3778C127.148 86.8278 114.358 95.4378 109.698 108.018C105.908 118.248 106.988 128.718 108.578 139.168C108.776 139.843 109.204 140.427 109.788 140.818C114.788 144.608 115.308 144.608 120.288 140.818C122.168 139.388 123.958 137.818 125.768 136.348C129.618 133.168 133.408 129.918 137.318 126.828C139.128 125.408 141.228 124.268 143.598 125.578C145.968 126.888 146.148 129.348 146.078 131.778C146.081 132.321 146.035 132.863 145.938 133.398C144.838 139.078 143.738 144.768 142.578 150.398C142.038 153.048 141.358 155.668 140.738 158.298C144.738 155.358 148.138 152.128 151.678 149.038C155.978 145.268 160.208 141.398 164.778 138.038C168.508 135.268 172.288 137.418 172.518 142.038C172.543 142.673 172.513 143.308 172.428 143.938C171.758 148.998 171.018 153.988 170.298 159.158ZM198.818 178.598C198.878 178.188 198.948 177.788 199.008 177.378C192.598 172.848 186.218 168.268 179.748 163.838C179.322 163.661 178.862 163.582 178.402 163.606C177.942 163.631 177.493 163.758 177.088 163.978C174.478 165.428 172.088 167.378 169.398 168.568C167.631 169.3 165.668 169.413 163.828 168.888C161.828 168.218 161.768 165.888 161.968 163.958C162.028 163.328 162.168 162.708 162.268 162.078L164.518 148.158C159.378 152.078 154.788 156.318 150.088 160.428C146.818 163.288 143.468 166.068 140.018 168.708C138.188 170.108 136.018 170.518 133.938 169.038C131.858 167.558 131.768 165.578 132.228 163.398C133.128 159.158 134.048 154.914 134.988 150.668C136.058 145.848 137.158 141.038 138.238 136.218C137.114 136.52 136.083 137.097 135.238 137.898C132.048 140.598 128.998 143.468 125.668 145.968C121.518 149.098 117.668 153.528 111.238 150.298C112.448 154.728 113.488 158.558 114.558 162.378C117.858 174.158 121.118 185.938 127.168 196.708C127.848 197.928 128.318 199.108 130.168 198.808C135.348 197.968 140.688 197.738 145.728 196.368C158.568 192.868 171.328 189.038 184.008 184.978C189.058 183.348 193.868 180.788 198.818 178.598Z" fill="#3558A2"/>
<path d="M210.689 206.667C208.419 206.667 206.949 205.817 206.499 203.757C206.049 201.697 206.859 200.037 208.739 199.677C216.859 198.127 221.349 192.017 226.129 186.247C226.799 185.283 227.52 184.355 228.289 183.467C229.659 182.127 231.529 181.557 232.859 183.057C233.749 184.057 234.539 186.397 233.989 187.267C228.629 195.817 222.259 203.367 212.099 206.487C211.636 206.595 211.164 206.655 210.689 206.667Z" fill="#3558A2"/>
<path d="M221.468 218.077C218.818 218.177 217.358 217.447 216.858 215.477C216.718 215.062 216.663 214.622 216.697 214.185C216.731 213.748 216.853 213.323 217.056 212.934C217.259 212.545 217.538 212.202 217.877 211.924C218.216 211.646 218.608 211.439 219.028 211.317C225.601 209.102 231.2 204.673 234.868 198.787C235.097 198.414 235.399 198.091 235.756 197.837C236.113 197.583 236.518 197.405 236.945 197.311C237.373 197.218 237.815 197.212 238.245 197.293C238.676 197.375 239.085 197.543 239.448 197.787C239.845 197.971 240.2 198.234 240.492 198.56C240.784 198.886 241.005 199.268 241.144 199.683C241.283 200.097 241.335 200.536 241.298 200.972C241.261 201.408 241.135 201.831 240.928 202.217C240.141 203.837 239.179 205.366 238.058 206.777C234.433 211.454 229.634 215.087 224.148 217.307C223.269 217.61 222.374 217.867 221.468 218.077V218.077Z" fill="#3558A2"/>
<path d="M78.1984 128.368C77.9584 125.758 77.3885 123.128 77.5585 120.538C77.7893 116.867 78.3584 113.225 79.2585 109.658C79.8449 108.171 80.9746 106.963 82.4185 106.278C82.9953 106.123 83.6019 106.116 84.1823 106.257C84.7626 106.399 85.2979 106.685 85.7384 107.088C86.1379 107.597 86.4151 108.191 86.5486 108.823C86.6821 109.456 86.6684 110.111 86.5085 110.738C84.4285 115.458 84.7284 120.238 85.3684 125.138C85.5834 127.112 85.5431 129.105 85.2484 131.068C84.9584 133.338 83.5385 134.728 81.1385 134.418C78.7385 134.108 78.1384 132.418 78.0884 130.268C78.0884 129.638 78.0884 129.008 78.0884 128.368H78.1984Z" fill="#3558A2"/>
<path d="M59 117.027C59.4188 114.26 59.983 111.516 60.6901 108.807C61.5401 106.107 63.63 104.987 65.61 105.757C68.13 106.757 68.17 108.757 67.61 110.957C66.32 115.827 66.24 120.537 68.66 125.167C68.9076 125.657 69.0482 126.193 69.0724 126.74C69.0966 127.288 69.0039 127.834 68.8005 128.343C68.5971 128.852 68.2876 129.312 67.8927 129.692C67.4978 130.072 67.0264 130.364 66.51 130.547C66.0055 130.765 65.4592 130.869 64.9099 130.852C64.3607 130.834 63.8219 130.696 63.3322 130.447C62.8424 130.198 62.4136 129.844 62.0762 129.41C61.7388 128.976 61.5011 128.474 61.38 127.937C60.35 124.307 59.76 120.577 59 117.027Z" fill="#3558A2"/>
<path d="M170.3 159.158C171.02 153.988 171.71 148.998 172.39 143.998C172.474 143.368 172.504 142.733 172.48 142.098C172.25 137.478 168.48 135.328 164.74 138.098C160.17 141.498 155.94 145.368 151.64 149.098C148.1 152.188 144.639 155.418 140.699 158.358C141.319 155.728 142 153.108 142.54 150.458C143.7 144.788 144.8 139.098 145.9 133.458C145.996 132.924 146.043 132.381 146.04 131.838C146.11 129.408 145.98 126.988 143.56 125.638C141.14 124.288 139.09 125.468 137.28 126.888C133.37 129.978 129.58 133.228 125.73 136.408C123.92 137.908 122.13 139.408 120.25 140.878C115.25 144.698 114.8 144.698 109.75 140.878C109.165 140.487 108.737 139.903 108.54 139.228C106.95 128.778 105.87 118.308 109.66 108.078C114.32 95.498 127.11 86.888 138.88 88.438C151.41 90.088 163.23 98.438 165.66 112.818C166.06 115.228 166.52 117.628 166.9 120.048C167.61 124.548 170.01 125.778 174.26 124.048C179.76 121.748 185.08 118.898 191.26 118.878C202.61 118.878 211.72 123.568 217.54 133.068C223.21 142.338 222.27 152.348 216.95 161.568C214.65 165.568 210.95 168.738 207.84 172.218C206.36 173.868 204.97 173.588 203.19 172.218C197.38 167.608 191.31 163.308 185.47 158.728C180.92 155.168 176.47 154.888 171.84 158.418C171.349 158.71 170.834 158.958 170.3 159.158V159.158Z" fill="#979FBB"/>
<path d="M198.82 178.597C193.82 180.757 189.06 183.347 183.95 184.977C171.27 189.037 158.51 192.867 145.67 196.367C140.67 197.737 135.29 197.967 130.11 198.807C128.28 199.107 127.81 197.927 127.11 196.707C121.11 185.937 117.8 174.157 114.5 162.377C113.43 158.557 112.39 154.727 111.18 150.297C117.62 153.527 121.46 149.097 125.61 145.967C128.94 143.467 131.99 140.597 135.18 137.897C136.024 137.096 137.056 136.519 138.18 136.217C137.1 141.037 136 145.847 134.93 150.667C133.99 154.907 133.07 159.15 132.17 163.397C131.71 165.577 131.95 167.637 133.88 169.037C135.81 170.437 138.13 170.107 139.96 168.707C143.41 166.067 146.76 163.287 150.03 160.427C154.73 156.317 159.32 152.077 164.46 148.157L162.21 162.077C162.11 162.707 161.97 163.327 161.91 163.957C161.71 165.957 161.72 168.217 163.77 168.887C165.609 169.412 167.572 169.299 169.34 168.567C172.05 167.377 174.42 165.427 177.03 163.977C177.435 163.757 177.883 163.63 178.344 163.605C178.804 163.581 179.264 163.66 179.69 163.837C186.16 168.267 192.54 172.837 198.95 177.377C198.95 177.787 198.88 178.187 198.82 178.597Z" fill="#979FBB"/>
</svg>
