<svg width="300" height="300" viewBox="0 0 300 300" fill="none" xmlns="http://www.w3.org/2000/svg">
<path d="M149.175 225.562C154.235 229.512 158.655 233.132 163.245 236.562C174.485 244.862 185.795 253.052 197.085 261.292C198.128 261.993 199.13 262.755 200.085 263.572C200.673 264.007 201.127 264.599 201.394 265.28C201.661 265.961 201.73 266.703 201.595 267.422C201.486 267.935 201.268 268.419 200.954 268.84C200.641 269.261 200.239 269.608 199.778 269.859C199.317 270.109 198.806 270.256 198.283 270.289C197.759 270.322 197.234 270.241 196.745 270.052C196.074 269.781 195.445 269.417 194.875 268.972C183.195 260.492 171.495 252.062 159.875 243.502C153.825 239.032 147.935 234.322 141.975 229.732C141.395 229.282 140.765 228.912 140.195 228.462C139.803 228.155 139.345 227.942 138.858 227.842C138.37 227.741 137.866 227.755 137.385 227.882C130.718 229.215 124.051 230.529 117.385 231.822L87.2947 237.562C84.4447 238.112 81.6146 238.712 78.7646 239.232C75.3046 239.872 73.3446 238.522 72.7646 235.162C71.8646 230.162 70.9347 225.162 70.0847 220.162C68.0847 208.102 66.0846 196.042 63.9946 183.992C62.1046 172.922 60.1047 161.872 58.1947 150.812C56.8447 142.952 55.5547 135.092 54.1947 127.232C53.8147 125.002 53.3447 122.782 53.0647 120.532C52.9045 119.13 53.0426 117.711 53.4701 116.367C53.8975 115.022 54.6045 113.784 55.5446 112.732C63.398 103.105 71.2447 93.4719 79.0847 83.8319C85.918 75.4719 92.7546 67.1386 99.5946 58.8319C106.261 50.6786 112.901 42.5152 119.515 34.3419C119.975 33.7819 120.425 33.2119 120.915 32.6719C123.545 29.7319 126.425 29.1719 129.855 31.2219C137.255 35.6319 144.605 40.1419 151.965 44.6119L194.075 70.1619C201.215 74.5019 208.285 78.9319 215.465 83.1619C216.545 83.7394 217.496 84.5312 218.259 85.489C219.023 86.4467 219.583 87.5502 219.905 88.7319C220.905 92.4919 221.705 96.3119 222.465 100.122C223.365 104.562 224.105 109.022 224.965 113.472C226.685 122.362 228.445 131.242 230.175 140.132C231.701 147.952 233.218 155.775 234.725 163.602C236.851 174.629 238.975 185.655 241.095 196.682C241.325 197.842 241.555 198.992 241.805 200.142C242.805 204.812 241.125 207.442 236.415 208.382C226.735 210.302 217.035 212.152 207.345 214.052C204.685 214.572 202.035 215.152 199.005 215.792C199.855 216.392 200.385 216.792 201.005 217.162L239.175 239.162C241.375 240.432 243.535 241.762 245.695 243.102C246.284 243.441 246.776 243.925 247.126 244.508C247.476 245.09 247.672 245.753 247.695 246.432C247.738 246.973 247.652 247.518 247.445 248.02C247.237 248.522 246.914 248.968 246.502 249.322C246.09 249.676 245.6 249.927 245.072 250.056C244.544 250.184 243.993 250.186 243.465 250.062C242.501 249.805 241.582 249.407 240.735 248.882C224.335 239.389 207.938 229.889 191.545 220.382C191.315 220.242 191.065 220.132 190.835 219.982C189.756 219.25 188.531 218.76 187.245 218.548C185.959 218.335 184.641 218.405 183.385 218.752C174.385 220.752 165.275 222.392 156.205 224.162C154.115 224.652 151.985 225.002 149.175 225.562ZM132.865 221.562C132.625 219.282 132.315 217.232 132.205 215.172C131.773 208.65 132.156 202.099 133.345 195.672C134.405 190.432 136.265 185.572 139.875 181.512C144.225 176.612 149.875 174.212 156.215 173.122C161.1 172.303 166.111 173.457 170.145 176.332C173.123 178.425 175.684 181.057 177.695 184.092C181.985 190.232 183.975 197.292 186.105 204.312C186.755 206.442 187.345 208.592 187.975 210.782C194.975 209.442 201.775 208.152 208.525 206.782C209.048 206.597 209.546 206.345 210.005 206.032C202.475 170.032 194.855 134.032 187.225 97.9319C153.495 104.042 120.085 110.092 86.6747 116.162C86.214 116.3 85.7709 116.491 85.3546 116.732C92.4746 153.342 99.5746 189.862 106.725 226.652C115.525 225.022 124.095 223.492 132.865 221.562V221.562ZM64.8646 113.102L205.435 87.6319C205.968 87.5382 206.495 87.4147 207.015 87.2619C207.247 87.1529 207.462 87.0115 207.655 86.8419C204.445 84.5719 128.055 37.8419 125.985 37.5119C105.851 62.1786 85.6613 86.9352 65.4146 111.782C65.181 112.198 64.99 112.637 64.8446 113.092L64.8646 113.102ZM60.3047 121.572C60.6247 123.572 60.9447 125.572 61.3047 127.632C63.1847 138.885 65.068 150.132 66.9547 161.372C68.1647 168.512 69.4246 175.642 70.6646 182.772L75.0747 208.192C76.3247 215.412 77.5547 222.632 78.8247 229.852C79.0112 230.618 79.2518 231.37 79.5447 232.102L100.295 227.982C98.8447 220.362 97.4546 212.982 96.0346 205.642C94.6146 198.302 93.2046 191.072 91.7846 183.792C90.3646 176.512 88.9047 169.042 87.4547 161.672C86.0047 154.302 84.6146 147.102 83.1546 139.822C81.6946 132.542 80.4646 125.112 78.7346 117.822C70.3846 118.892 62.3846 120.492 60.2846 121.562L60.3047 121.572ZM234.875 201.502C234.875 200.782 234.875 200.502 234.785 200.252C232.505 188.339 230.225 176.425 227.945 164.512C225.385 151.179 222.815 137.845 220.235 124.512C218.445 115.182 216.675 105.842 214.815 96.5119C214.595 95.4319 214.705 94.1319 213.815 93.3819C213.545 93.2819 213.455 93.2219 213.375 93.2319C207.225 94.3119 201.075 95.3919 194.935 96.5119C194.545 96.5819 194.205 96.9519 193.835 97.1819C196.365 109.262 198.835 121.182 201.365 133.182C203.895 145.182 206.295 157.122 208.955 169.042C211.615 180.962 213.725 192.952 216.665 205.042C222.925 204.102 228.795 202.782 234.855 201.492L234.875 201.502ZM181.035 212.132C180.915 211.512 180.875 211.132 180.775 210.842C179.775 207.192 178.775 203.502 177.565 199.912C176.125 195.732 174.665 191.542 171.965 187.912C169.965 185.182 167.775 182.642 164.685 181.112C161.065 179.322 157.405 179.582 153.595 180.752C151.19 181.429 148.955 182.606 147.037 184.207C145.119 185.808 143.56 187.797 142.465 190.042C140.325 194.262 139.785 198.852 139.235 203.442C138.685 208.032 139.145 212.442 139.295 216.972C139.433 218.078 139.661 219.172 139.975 220.242C153.825 217.562 167.375 214.942 181.015 212.122L181.035 212.132Z" fill="#3558A2"/>
<path d="M132.865 221.562C124.095 223.502 115.505 225.032 106.725 226.702C99.5755 189.912 92.4755 153.392 85.3555 116.782C85.7718 116.542 86.2149 116.35 86.6755 116.212C120.086 110.142 153.495 104.092 187.225 97.9824C194.855 134.102 202.476 170.032 210.006 206.082C209.547 206.395 209.049 206.647 208.526 206.832C201.776 208.152 195.015 209.442 187.975 210.832C187.345 208.642 186.755 206.492 186.105 204.362C183.975 197.362 181.986 190.282 177.696 184.142C175.685 181.108 173.124 178.476 170.146 176.382C166.111 173.508 161.101 172.353 156.215 173.172C149.825 174.262 144.215 176.662 139.875 181.562C136.265 185.622 134.405 190.482 133.345 195.722C132.157 202.15 131.774 208.7 132.206 215.222C132.316 217.222 132.625 219.272 132.865 221.562ZM172.995 140.972C172.988 136.485 172.016 132.051 170.146 127.972C167.297 121.613 162.149 116.566 155.735 113.842C151.466 112.038 146.788 111.419 142.196 112.052C135.901 112.696 130.107 115.771 126.046 120.622C123.234 123.786 121.187 127.552 120.061 131.632C118.936 135.712 118.763 139.995 119.556 144.152C121.446 155.022 127.336 162.782 137.706 166.712C146.326 169.972 154.596 168.622 161.916 163.202C169.236 157.782 172.675 149.952 172.995 140.962V140.972Z" fill="#EAECF1"/>
<path d="M64.8457 113.092C64.9841 112.635 65.1684 112.192 65.3958 111.772C85.6091 86.972 105.799 62.2153 125.966 37.502C128.036 37.802 204.426 84.562 207.636 86.832C207.443 87.0015 207.228 87.143 206.996 87.252C206.476 87.4048 205.949 87.5283 205.416 87.622L64.8457 113.092ZM127.786 59.282C127.866 56.432 126.586 55.282 124.416 55.422C123.833 55.4939 123.276 55.7038 122.791 56.0342C122.306 56.3647 121.906 56.8062 121.626 57.322C116.906 63.8553 112.159 70.3653 107.386 76.852C105.566 79.332 103.606 81.712 101.806 84.202C101.278 84.839 101.009 85.6508 101.052 86.4768C101.094 87.3028 101.446 88.0826 102.036 88.662C102.705 89.2141 103.559 89.4905 104.425 89.4348C105.291 89.379 106.103 88.9954 106.696 88.362C107.605 87.4742 108.441 86.5144 109.196 85.492C113.086 80.152 116.926 74.772 120.806 69.432C122.726 66.792 124.746 64.232 126.636 61.582C127.096 60.8564 127.482 60.0857 127.786 59.282V59.282ZM137.646 67.182C137.706 64.182 135.536 62.672 133.256 63.782C132.367 64.2206 131.598 64.8693 131.016 65.672C127.382 70.732 123.806 75.832 120.286 80.972C119.786 81.6357 119.565 82.4689 119.672 83.2932C119.778 84.1174 120.203 84.8672 120.856 85.382C122.066 86.382 123.856 86.292 125.266 84.932C126.01 84.1567 126.68 83.313 127.266 82.412C130.479 77.9453 133.669 73.4586 136.836 68.952C137.18 68.3987 137.452 67.8039 137.646 67.182V67.182ZM142.936 83.962C143.627 83.7555 144.262 83.3967 144.796 82.912C146.796 80.272 148.796 77.572 150.586 74.762C150.82 74.4504 150.987 74.0936 151.077 73.7142C151.166 73.3348 151.176 72.9409 151.105 72.5575C151.035 72.1741 150.886 71.8095 150.667 71.4867C150.449 71.1639 150.166 70.8899 149.836 70.682C149.551 70.4164 149.213 70.2138 148.845 70.0875C148.477 69.9612 148.086 69.9139 147.698 69.9488C147.31 69.9837 146.934 70.1 146.594 70.2901C146.255 70.4802 145.958 70.7398 145.726 71.052C143.606 73.612 141.726 76.392 139.816 79.102C139.637 79.4112 139.515 79.7499 139.456 80.102C138.946 82.202 140.286 83.932 142.936 83.962V83.962Z" fill="#979FBB"/>
<path d="M60.2852 121.562C62.3852 120.492 70.3852 118.892 78.6952 117.852C80.4252 125.102 81.6351 132.492 83.1151 139.852C84.5951 147.212 85.9852 154.422 87.4152 161.702C88.8452 168.982 90.3051 176.442 91.7451 183.822C93.1851 191.202 94.5951 198.382 95.9951 205.672C97.3951 212.962 98.8051 220.392 100.255 228.012L79.5251 232.092C79.2323 231.36 78.9917 230.608 78.8052 229.842C77.5352 222.622 76.3052 215.402 75.0552 208.182L70.6451 182.762C69.4051 175.632 68.1452 168.502 66.9352 161.362C65.0352 150.122 63.1518 138.875 61.2852 127.622C60.9252 125.562 60.6052 123.562 60.2852 121.562Z" fill="white"/>
<path d="M234.854 201.491C228.794 202.781 222.924 204.101 216.654 205.031C213.714 192.961 211.604 180.941 208.944 169.031C206.284 157.121 203.864 145.131 201.354 133.171C198.844 121.211 196.354 109.251 193.824 97.1707C194.194 96.9407 194.534 96.5707 194.924 96.5007C201.064 95.3807 207.214 94.3007 213.364 93.2207C213.444 93.2207 213.534 93.2207 213.804 93.3707C214.684 94.1207 214.574 95.3707 214.804 96.5007C216.664 105.821 218.434 115.161 220.224 124.501C222.797 137.834 225.368 151.167 227.934 164.501C230.221 176.414 232.501 188.327 234.774 200.241C234.814 200.501 234.804 200.771 234.854 201.491Z" fill="white"/>
<path d="M181.016 212.121C167.376 214.941 153.826 217.581 139.956 220.221C139.642 219.151 139.414 218.058 139.276 216.951C139.126 212.441 138.676 207.951 139.216 203.421C139.756 198.891 140.306 194.241 142.446 190.021C143.542 187.776 145.1 185.788 147.018 184.187C148.936 182.586 151.171 181.408 153.576 180.731C157.386 179.561 161.046 179.301 164.666 181.091C167.756 182.621 169.916 185.161 171.946 187.891C174.646 191.531 176.106 195.721 177.546 199.891C178.776 203.481 179.706 207.171 180.756 210.821C180.856 211.161 180.896 211.501 181.016 212.121ZM164.296 200.031C164.337 200.934 164.7 201.792 165.317 202.452C165.935 203.112 166.768 203.53 167.666 203.631C168.578 203.603 169.448 203.234 170.103 202.598C170.758 201.961 171.151 201.103 171.206 200.191C171.137 199.288 170.753 198.439 170.12 197.791C169.487 197.144 168.646 196.74 167.746 196.651C167.293 196.629 166.84 196.701 166.416 196.862C165.992 197.023 165.606 197.27 165.282 197.587C164.958 197.904 164.703 198.285 164.533 198.706C164.364 199.127 164.283 199.578 164.296 200.031V200.031Z" fill="#979FBB"/>
<path d="M172.995 140.961C172.675 149.961 169.285 157.671 161.915 163.151C154.545 168.631 146.325 169.921 137.705 166.661C127.335 162.731 121.445 154.971 119.555 144.101C118.763 139.944 118.936 135.66 120.061 131.58C121.186 127.501 123.234 123.734 126.045 120.571C130.106 115.719 135.901 112.644 142.195 112.001C146.787 111.368 151.465 111.986 155.735 113.791C162.149 116.515 167.296 121.562 170.145 127.921C172.022 132.012 172.994 136.46 172.995 140.961V140.961ZM165.995 140.471C166.011 136.836 165.141 133.253 163.461 130.03C161.782 126.806 159.343 124.041 156.355 121.971C152.893 119.595 148.773 118.364 144.575 118.451C140.363 118.631 136.355 120.312 133.275 123.191C123.335 131.831 123.875 147.421 133.275 155.991C135.564 158.216 138.376 159.828 141.452 160.679C144.528 161.53 147.769 161.593 150.875 160.861C159.525 158.981 166.345 149.961 165.975 140.471H165.995Z" fill="#3558A2"/>
<path d="M127.785 59.2803C127.481 60.084 127.096 60.8547 126.635 61.5803C124.745 64.2303 122.725 66.7903 120.805 69.4303C116.925 74.7703 113.085 80.1503 109.195 85.4903C108.441 86.5127 107.605 87.4725 106.695 88.3603C106.102 88.9937 105.29 89.3773 104.425 89.4331C103.559 89.4888 102.704 89.2125 102.035 88.6603C101.445 88.081 101.094 87.3011 101.051 86.4751C101.009 85.6491 101.278 84.8373 101.805 84.2003C103.605 81.7103 105.565 79.3303 107.385 76.8503C112.159 70.3569 116.905 63.8469 121.625 57.3203C121.906 56.8045 122.305 56.363 122.79 56.0325C123.276 55.7021 123.833 55.4922 124.415 55.4203C126.585 55.2503 127.865 56.4303 127.785 59.2803Z" fill="#3558A2"/>
<path d="M137.646 67.1803C137.462 67.8007 137.199 68.3954 136.866 68.9503C133.706 73.4636 130.516 77.9503 127.296 82.4103C126.71 83.3113 126.04 84.155 125.296 84.9303C123.846 86.2903 122.096 86.4103 120.886 85.3803C120.234 84.8655 119.809 84.1157 119.702 83.2915C119.595 82.4672 119.816 81.634 120.316 80.9703C123.829 75.8303 127.406 70.7303 131.046 65.6703C131.628 64.8676 132.397 64.2189 133.286 63.7803C135.526 62.6703 137.706 64.1803 137.646 67.1803Z" fill="#3558A2"/>
<path d="M142.936 83.9616C140.286 83.9616 138.936 82.2016 139.456 80.1116C139.515 79.7595 139.637 79.4208 139.816 79.1116C141.756 76.4016 143.606 73.6216 145.726 71.0616C145.958 70.7494 146.254 70.4898 146.594 70.2997C146.934 70.1096 147.31 69.9933 147.698 69.9584C148.086 69.9235 148.477 69.9708 148.845 70.0971C149.213 70.2234 149.551 70.426 149.836 70.6916C150.165 70.8995 150.449 71.1735 150.667 71.4963C150.886 71.8191 151.035 72.1838 151.105 72.5671C151.176 72.9505 151.166 73.3444 151.076 73.7238C150.987 74.1032 150.82 74.46 150.586 74.7716C148.796 77.5816 146.826 80.2816 144.796 82.9216C144.261 83.4027 143.626 83.758 142.936 83.9616V83.9616Z" fill="#3558A2"/>
<path d="M164.294 200.03C164.281 199.577 164.362 199.126 164.532 198.705C164.702 198.285 164.957 197.904 165.281 197.586C165.604 197.269 165.991 197.022 166.415 196.861C166.839 196.7 167.291 196.628 167.744 196.65C168.645 196.74 169.486 197.143 170.119 197.791C170.751 198.438 171.136 199.288 171.204 200.191C171.15 201.102 170.756 201.961 170.101 202.597C169.446 203.234 168.577 203.602 167.664 203.631C166.766 203.529 165.934 203.111 165.316 202.451C164.698 201.792 164.336 200.933 164.294 200.03V200.03Z" fill="#3558A2"/>
<path d="M165.976 140.472C166.346 149.962 159.506 158.982 150.826 160.862C147.719 161.593 144.478 161.531 141.402 160.68C138.326 159.828 135.514 158.216 133.226 155.992C123.856 147.422 123.316 131.832 133.226 123.192C136.305 120.313 140.314 118.631 144.526 118.452C148.724 118.365 152.843 119.596 156.306 121.972C159.299 124.038 161.744 126.802 163.429 130.026C165.113 133.249 165.988 136.834 165.976 140.472V140.472ZM146.526 151.352C151.146 151.482 155.286 147.352 156.306 144.352C156.502 143.755 156.547 143.119 156.436 142.502C155.856 139.822 152.776 139.002 150.696 140.982C149.916 141.732 149.336 142.682 148.566 143.442C147.426 144.562 146.716 144.662 145.426 143.922C144.806 143.562 144.296 143.032 143.706 142.622C143.006 142.055 142.253 141.559 141.456 141.142C140.797 140.83 140.054 140.744 139.341 140.898C138.629 141.051 137.987 141.436 137.516 141.992C137.068 142.622 136.839 143.381 136.863 144.153C136.886 144.926 137.161 145.67 137.646 146.272C138.539 147.292 139.527 148.226 140.596 149.062C142.224 150.526 144.335 151.341 146.526 151.352V151.352ZM135.836 135.102C135.766 137.582 137.206 138.452 139.086 138.682C140.696 138.882 142.376 137.082 142.406 135.392C142.435 134.474 142.101 133.583 141.475 132.912C140.849 132.241 139.983 131.845 139.066 131.812C138.637 131.811 138.212 131.897 137.817 132.063C137.422 132.229 137.064 132.473 136.764 132.779C136.464 133.086 136.228 133.449 136.07 133.848C135.913 134.247 135.836 134.673 135.846 135.102H135.836ZM147.836 133.242C147.832 134.105 148.162 134.936 148.756 135.562C149.35 136.188 150.163 136.56 151.026 136.602C151.893 136.612 152.729 136.278 153.35 135.672C153.97 135.066 154.325 134.239 154.336 133.372C154.346 132.504 154.012 131.668 153.406 131.048C152.8 130.427 151.973 130.072 151.106 130.062C150.679 130.036 150.252 130.1 149.852 130.25C149.452 130.4 149.087 130.633 148.783 130.933C148.478 131.232 148.24 131.593 148.084 131.991C147.928 132.388 147.857 132.815 147.876 133.242H147.836Z" fill="white"/>
<path d="M146.524 151.352C144.332 151.339 142.221 150.52 140.594 149.052C139.525 148.216 138.538 147.282 137.644 146.262C137.159 145.66 136.884 144.916 136.861 144.144C136.838 143.371 137.067 142.612 137.514 141.982C137.986 141.426 138.627 141.042 139.34 140.888C140.052 140.734 140.795 140.82 141.454 141.132C142.251 141.55 143.005 142.045 143.704 142.612C144.294 143.022 144.804 143.552 145.424 143.912C146.714 144.652 147.424 144.552 148.564 143.432C149.334 142.672 149.914 141.722 150.694 140.972C152.774 138.972 155.854 139.812 156.434 142.492C156.545 143.11 156.501 143.746 156.304 144.342C155.294 147.392 151.154 151.482 146.524 151.352Z" fill="#3558A2"/>
<path d="M135.846 135.101C135.837 134.671 135.914 134.244 136.072 133.844C136.23 133.445 136.467 133.081 136.768 132.775C137.069 132.468 137.428 132.225 137.825 132.059C138.221 131.894 138.647 131.809 139.076 131.811C139.993 131.844 140.859 132.24 141.485 132.911C142.111 133.582 142.446 134.473 142.416 135.391C142.416 137.081 140.706 138.881 139.096 138.681C137.216 138.451 135.776 137.561 135.846 135.101Z" fill="#3558A2"/>
<path d="M147.874 133.241C147.855 132.81 147.927 132.381 148.085 131.98C148.244 131.579 148.486 131.217 148.795 130.916C149.104 130.616 149.473 130.384 149.878 130.237C150.283 130.089 150.714 130.029 151.144 130.061C151.574 130.066 151.998 130.156 152.393 130.325C152.787 130.494 153.145 130.74 153.445 131.047C153.745 131.354 153.981 131.718 154.141 132.116C154.3 132.515 154.379 132.941 154.374 133.371C154.369 133.8 154.279 134.225 154.11 134.619C153.941 135.014 153.696 135.371 153.388 135.671C153.081 135.971 152.717 136.208 152.319 136.367C151.92 136.527 151.494 136.606 151.064 136.601C150.202 136.56 149.389 136.187 148.795 135.561C148.2 134.935 147.871 134.104 147.874 133.241V133.241Z" fill="#3558A2"/>
</svg>
