<svg width="300" height="300" viewBox="0 0 300 300" fill="none" xmlns="http://www.w3.org/2000/svg">
<path d="M124.147 80.926C125.927 97.9259 127.667 114.716 129.447 131.786L133.677 131.526C147.447 130.696 161.207 129.526 174.987 129.156C182.335 129.13 189.673 129.706 196.927 130.876C205.347 132.056 212.437 136.466 218.737 141.956C224.407 146.896 229.817 152.146 235.147 157.456C236.147 158.456 237.147 160.716 236.707 161.826C236.283 162.568 235.708 163.212 235.019 163.717C234.33 164.222 233.542 164.576 232.707 164.756C228.958 165.445 225.171 165.909 221.367 166.146C219.477 166.316 218.587 166.896 218.837 168.996C219.837 176.836 220.547 184.696 221.557 192.516C221.667 193.396 222.807 194.326 223.687 194.876C228.257 197.736 230.627 201.936 230.377 207.166C230.127 212.396 226.727 215.686 221.867 217.386C214.567 219.946 207.637 213.586 209.177 205.456C209.657 202.936 211.537 200.706 212.667 198.296C213.227 197.337 213.542 196.255 213.587 195.146C212.977 188.146 212.187 181.246 211.477 174.296C211.257 172.146 211.097 169.986 210.897 167.736L133.437 172.406C134.724 186.532 136 200.562 137.267 214.496C141.047 214.496 144.487 214.366 147.897 214.496C148.81 214.499 149.711 214.705 150.534 215.099C151.357 215.493 152.082 216.066 152.657 216.776C153.231 217.485 153.641 218.313 153.855 219.201C154.07 220.088 154.084 221.012 153.897 221.906C153.667 223.156 152.357 224.906 151.317 225.106C150.087 225.306 148.317 224.306 147.317 223.276C146.507 222.416 146.187 221.556 144.697 221.666C137.367 222.236 130.027 222.596 122.697 223.186C121.487 223.276 120.367 224.186 119.157 224.636C117.947 225.086 116.247 225.996 115.297 225.566C114.677 225.185 114.143 224.678 113.73 224.079C113.316 223.48 113.033 222.801 112.897 222.086C112.437 219.396 113.957 217.316 116.727 216.666C119.213 216.172 121.728 215.838 124.257 215.666C126.037 215.476 127.847 215.446 129.927 215.336C129.737 213.276 129.567 211.496 129.397 209.716C128.327 198.346 127.187 186.966 126.227 175.586C126.047 173.376 125.317 172.916 123.227 173.096C114.097 173.876 104.957 174.476 95.817 175.156C95.187 175.156 94.5769 175.336 93.7469 175.466C93.7469 176.466 93.6769 177.466 93.7469 178.406C94.3269 185.406 95.0669 192.316 95.4769 199.296C95.4995 200.673 95.8238 202.029 96.4267 203.268C97.0297 204.506 97.8967 205.598 98.9669 206.466C100.416 207.724 101.518 209.333 102.168 211.138C102.818 212.944 102.994 214.886 102.679 216.78C102.364 218.673 101.568 220.453 100.369 221.951C99.1692 223.449 97.6054 224.615 95.8269 225.336C90.4869 227.556 85.337 225.706 82.677 220.606C80.017 215.506 81.3869 208.766 85.9469 206.106C86.6796 205.781 87.2785 205.214 87.6427 204.501C88.0069 203.787 88.1142 202.969 87.9469 202.186C87.3169 194.326 86.697 186.446 86.177 178.576C86.047 176.576 85.1769 176.416 83.5369 176.646C80.4878 177.102 77.4169 177.399 74.3369 177.536C67.3369 177.766 66.4669 175.836 65.0369 168.596C64.4469 165.596 64.9469 162.446 64.8269 159.366C64.2369 143.586 63.5969 127.816 63.0169 112.046C62.9567 110.503 63.0573 108.958 63.317 107.436C63.457 106.069 64.0226 104.781 64.934 103.753C65.8455 102.725 67.0568 102.009 68.3969 101.706C70.6708 101.081 72.9777 100.584 75.307 100.216C79.597 99.656 81.4369 101.216 81.7269 105.496C82.4069 115.996 82.9869 126.496 83.6269 137.016C83.9869 143.016 84.3869 149.016 84.7869 154.946C84.8956 155.443 85.0427 155.931 85.2269 156.406C86.3569 154.826 87.2269 153.646 88.1069 152.406C95.1069 141.976 105.657 137.336 117.107 134.146C122.237 132.716 122.267 132.806 121.477 127.516C121.397 126.986 121.267 126.516 121.087 125.596C118.377 125.876 115.687 126.066 113.027 126.456C105.847 127.456 101.477 124.936 100.497 117.916C99.7081 111.454 99.3739 104.945 99.4969 98.4359C99.4498 96.8161 99.9591 95.229 100.94 93.939C101.921 92.6489 103.314 91.7338 104.887 91.346C108.947 90.166 113.057 89.216 117.377 88.106L116.177 81.936C114.177 82.046 112.407 82.206 110.617 82.226C108.517 82.226 107.087 81.226 106.877 79.096C106.797 78.6419 106.814 78.1762 106.925 77.7288C107.036 77.2814 107.239 76.8621 107.521 76.4977C107.804 76.1334 108.159 75.8321 108.565 75.6131C108.971 75.3941 109.417 75.2623 109.877 75.226C116.047 74.386 122.247 73.676 128.437 73.056C128.894 72.9721 129.364 72.9826 129.817 73.0869C130.27 73.1911 130.697 73.3871 131.072 73.6624C131.446 73.9378 131.761 74.2867 131.995 74.688C132.23 75.0894 132.381 75.5345 132.437 75.996C132.542 76.4451 132.552 76.9109 132.468 77.3643C132.385 77.8177 132.208 78.2489 131.95 78.6309C131.692 79.013 131.357 79.3377 130.968 79.5846C130.579 79.8316 130.143 79.9954 129.687 80.066C127.857 80.4506 126.008 80.7377 124.147 80.926V80.926ZM223.047 157.846C219.957 154.606 217.347 151.496 214.357 148.846C207.807 142.966 200.357 139.076 191.357 138.176C181.257 137.08 171.076 136.922 160.947 137.706C151.647 138.506 142.307 138.966 132.947 139.536C130.797 139.666 129.757 140.216 130.107 142.826C130.947 148.926 131.507 155.076 131.947 161.216C132.107 163.576 132.847 164.216 135.247 164.076C161.667 162.296 188.097 160.636 214.517 158.896C217.307 158.686 220.037 158.206 223.047 157.846V157.846ZM88.7369 167.566L124.947 165.006C124.127 156.866 123.347 149.176 122.577 141.496C109.377 141.686 90.2569 156.446 88.7369 167.566V167.566ZM118.467 96.4259C114.777 95.9384 111.025 96.5579 107.687 98.2059C107.338 98.4714 107.055 98.8149 106.862 99.2091C106.67 99.6033 106.572 100.037 106.577 100.476C106.817 105.966 107.137 111.476 107.667 116.936C107.747 117.776 109.077 119.156 109.807 119.136C113.357 119.066 116.907 118.596 120.627 118.246C119.877 110.686 119.177 103.686 118.467 96.4259V96.4259ZM77.4669 169.426C76.3269 148.866 75.2169 128.686 74.0969 108.426C70.9769 109.016 70.8369 109.076 70.8269 111.426C70.8269 115.426 70.8269 119.426 70.9569 123.426C71.5469 138.006 72.2069 152.586 72.8469 167.166C72.8469 167.956 72.977 168.736 73.067 169.726L77.4669 169.426ZM218.827 210.686C220.117 209.166 221.767 208.026 222.077 206.606C222.387 205.186 221.137 203.736 220.497 202.056C216.587 205.416 216.257 206.746 218.827 210.686ZM89.567 216.216C89.867 216.486 90.6769 217.876 91.6269 217.976C92.034 218.054 92.4542 218.029 92.8494 217.904C93.2447 217.78 93.6028 217.558 93.8914 217.261C94.1801 216.963 94.3901 216.599 94.5028 216.2C94.6154 215.801 94.6272 215.38 94.5369 214.976C94.3569 213.976 93.257 212.356 92.427 212.256C90.727 212.066 89.257 213.046 89.567 216.216Z" fill="#3558A2"/>
<path d="M223.047 157.846C220.047 158.206 217.307 158.676 214.547 158.846C188.127 160.586 161.697 162.246 135.277 164.026C132.877 164.186 132.137 163.526 131.977 161.166C131.537 155.026 130.977 148.876 130.137 142.776C129.787 140.166 130.827 139.616 132.977 139.486C142.297 138.916 151.637 138.486 160.977 137.656C171.106 136.872 181.287 137.029 191.387 138.126C200.387 139.026 207.847 142.916 214.387 148.796C217.347 151.496 219.957 154.606 223.047 157.846Z" fill="white"/>
<path d="M88.7363 167.566C90.2263 156.446 109.376 141.666 122.576 141.496C123.346 149.176 124.126 156.866 124.946 165.006L88.7363 167.566Z" fill="white"/>
<path d="M118.466 96.4256C119.176 103.646 119.876 110.656 120.626 118.246C116.906 118.596 113.356 119.066 109.806 119.136C109.076 119.136 107.746 117.776 107.666 116.936C107.136 111.466 106.816 105.936 106.576 100.476C106.571 100.037 106.669 99.603 106.862 99.2088C107.055 98.8146 107.337 98.471 107.686 98.2056C111.024 96.5576 114.776 95.938 118.466 96.4256V96.4256Z" fill="#979FBB"/>
<path d="M77.4367 169.426L73.0366 169.646C72.9466 168.646 72.8467 167.876 72.8167 167.086C72.1767 152.506 71.5166 137.926 70.9266 123.346C70.7666 119.346 70.7666 115.346 70.7966 111.346C70.7966 109.036 70.9467 108.976 74.0667 108.346C75.1867 128.686 76.2567 148.866 77.4367 169.426Z" fill="#979FBB"/>
<path d="M218.826 210.687C216.286 206.747 216.586 205.417 220.496 202.057C221.136 203.737 222.346 205.337 222.076 206.607C221.806 207.877 220.116 209.167 218.826 210.687Z" fill="white"/>
<path d="M89.5661 216.215C89.2961 213.045 90.7261 212.065 92.4261 212.275C93.2561 212.375 94.3561 213.955 94.5361 214.995C94.6264 215.4 94.6146 215.82 94.5019 216.219C94.3892 216.618 94.1792 216.983 93.8906 217.28C93.602 217.578 93.2439 217.799 92.8486 217.924C92.4533 218.048 92.0332 218.073 91.6261 217.995C90.6761 217.875 89.8661 216.485 89.5661 216.215Z" fill="white"/>
</svg>
