<svg width="300" height="300" viewBox="0 0 300 300" fill="none" xmlns="http://www.w3.org/2000/svg">
<path d="M122.088 87.328C122.678 85.048 123.188 83.0381 123.708 81.0381C124.008 79.8981 124.288 78.7481 124.708 77.6281C125.818 74.3881 127.878 73.1281 131.218 73.8781C136.438 75.0481 141.638 76.3681 146.848 77.5981C147.608 77.7881 148.398 77.8881 149.408 78.0681L152.608 65.2681C153.068 63.4181 153.498 61.5581 154.008 59.7281C154.838 56.7281 156.388 55.6681 159.428 56.0881C162.308 56.4881 165.158 57.0881 168.018 57.5481C172.398 58.3181 176.788 59.0581 181.158 59.8681C184.878 60.5581 186.158 62.3281 185.418 66.0381C184.418 71.5681 183.298 77.0381 182.238 82.6181C182.118 83.2281 182.068 83.8581 181.928 84.838C184.798 85.658 187.638 86.498 190.498 87.278C193.558 88.108 196.648 88.8681 199.718 89.6981C204.718 91.0681 206.298 93.5781 205.278 98.808C204.688 101.808 203.898 104.808 203.208 107.808C203.048 108.508 202.948 109.208 202.758 110.208C205.548 110.978 208.228 111.748 210.918 112.458C224.438 116.018 237.918 119.528 251.468 123.188C253.174 123.76 254.766 124.63 256.168 125.758C257.778 126.928 257.688 128.708 257.248 130.488C256.178 134.798 255.138 139.118 254.068 143.438C249.401 162.271 244.755 181.108 240.128 199.948C238.988 204.608 238.128 209.328 237.008 214.008C236.691 215.331 236.222 216.613 235.608 217.828C235.172 218.685 234.448 219.361 233.562 219.736C232.677 220.111 231.687 220.161 230.768 219.878C217.841 216.998 204.911 214.114 191.978 211.228C185.245 209.734 178.505 208.264 171.758 206.818C171.068 206.668 170.368 206.608 169.328 206.458C169.328 207.888 169.328 209.128 169.328 210.358C169.775 218.611 170.235 226.858 170.708 235.098C170.708 235.738 170.708 236.378 170.808 236.998C171.568 242.228 168.418 244.278 163.088 243.058C155.568 241.348 148.158 239.128 140.718 237.108C127.318 233.478 113.918 229.808 100.518 226.188C94.9081 224.678 93.9682 222.108 97.2782 217.388C102.278 210.268 107.218 203.088 112.168 195.918C112.544 195.304 112.878 194.666 113.168 194.008C109.008 193.008 105.068 192.008 101.168 191.008C83.7015 186.795 66.2348 182.585 48.7682 178.378C46.5682 177.848 44.3681 177.378 43.0881 175.088C42.5892 174.335 42.2518 173.487 42.0969 172.597C41.942 171.707 41.9731 170.795 42.1882 169.918C43.3782 165.438 44.4882 160.918 45.6582 156.468C51.2182 135.135 56.7881 113.801 62.3681 92.468C63.6081 87.738 64.8081 82.988 66.0981 78.2681C66.3967 77.134 66.8653 76.0518 67.4881 75.0581C67.8839 74.4363 68.4817 73.9697 69.181 73.7366C69.8803 73.5035 70.6385 73.5181 71.3282 73.7781C81.5682 76.5681 91.7882 79.3781 102.038 82.1281C108.168 83.7781 114.318 85.3381 120.468 86.9281C120.798 87.0881 121.238 87.158 122.088 87.328ZM120.198 94.638L72.7082 82.2881L49.6081 170.758C50.7381 171.088 51.6082 171.368 52.4382 171.578L75.1882 177.108C88.3282 180.295 101.471 183.468 114.618 186.628C115.772 186.843 116.937 186.993 118.108 187.078C119.748 180.708 121.358 174.668 122.858 168.608C124.358 162.548 126.198 156.608 127.308 150.498C126.178 150.128 125.398 149.918 124.648 149.618C123.772 149.342 123.031 148.75 122.569 147.956C122.106 147.163 121.956 146.226 122.148 145.328C122.35 144.426 122.895 143.639 123.668 143.133C124.441 142.627 125.381 142.442 126.288 142.618C127.639 142.809 128.975 143.09 130.288 143.458C141.575 146.191 152.868 148.931 164.168 151.678C169.638 153.018 175.108 154.348 180.538 155.808C183.088 156.488 184.208 158.348 183.668 160.418C183.168 162.328 181.338 163.258 178.868 162.888C177.868 162.728 176.788 162.608 175.588 162.448L167.898 198.308C188.568 202.918 208.898 207.438 229.138 211.798C230.308 209.008 249.538 132.298 248.958 130.238C233.058 126.068 217.078 121.738 200.958 117.668C200.568 118.858 200.348 119.668 200.058 120.398C198.698 124.048 196.978 125.038 193.168 124.208C189.538 123.408 185.928 122.478 182.308 121.628C180.118 121.108 177.918 120.628 175.518 120.078C175.168 121.218 174.858 122.148 174.618 123.078C173.618 127.208 172.618 131.358 171.528 135.478C170.648 138.828 169.028 139.888 165.738 139.108C157.958 137.268 150.198 135.365 142.458 133.398C139.318 132.598 138.208 130.718 138.778 127.488C139.138 125.428 139.608 123.388 140.028 121.348C140.738 117.988 141.448 114.638 142.198 111.038C139.388 110.178 136.808 109.388 134.198 108.618C130.548 107.528 126.848 106.618 123.248 105.348C119.188 103.928 118.318 102.088 119.328 98.028C119.638 97.018 119.878 95.978 120.198 94.638V94.638ZM193.378 116.568C194.948 109.918 196.378 103.678 197.958 97.208C196.528 96.758 195.348 96.348 194.148 96.018C188.548 94.478 182.928 93.018 177.348 91.398C174.278 90.508 173.438 88.9981 174.018 85.8681C174.738 81.9381 175.538 78.0381 176.288 74.1181C176.728 71.8181 177.138 69.5181 177.618 66.8981C171.838 65.7181 166.308 64.6881 160.618 63.8981C160.208 65.3681 159.868 66.4881 159.618 67.6281C158.448 72.3881 157.338 77.1581 156.138 81.8981C155.308 85.188 153.778 86.328 150.438 85.898C148.288 85.5813 146.158 85.1405 144.058 84.578C139.928 83.578 135.808 82.578 131.308 81.578C129.828 87.398 128.408 92.958 126.968 98.578C127.798 98.888 128.278 99.098 128.788 99.248C134.098 100.808 139.398 102.378 144.718 103.888C148.718 105.028 150.358 107.028 149.638 112.128C149.638 112.488 149.508 112.838 149.428 113.198C148.608 117.008 147.768 120.808 146.968 124.628C146.876 125.361 146.843 126.1 146.868 126.838C153.028 128.188 158.868 130.098 164.978 131.038C165.228 130.218 165.418 129.718 165.548 129.198C166.668 124.718 167.698 120.198 168.928 115.748C169.848 112.398 171.658 111.438 175.088 112.208C177.388 112.728 179.678 113.318 181.978 113.858C185.648 114.788 189.348 115.638 193.378 116.568V116.568ZM161.558 205.018L121.898 195.018C116.268 203.188 110.548 211.158 104.898 219.728L163.178 235.528C162.658 225.038 162.148 215.128 161.558 205.018V205.018ZM168.428 160.408L154.278 156.998C151.278 169.188 148.358 181.058 145.598 193.228L160.598 196.968L168.428 160.408ZM138.348 191.348C141.238 179.048 144.278 167.268 146.988 155.178L134.718 152.238C131.598 164.418 128.458 176.148 125.558 188.178L138.348 191.348Z" fill="#3558A2"/>
<path d="M120.198 94.6386C119.878 95.9786 119.638 97.0186 119.378 98.0486C118.378 102.109 119.238 103.949 123.298 105.369C126.898 106.629 130.598 107.549 134.248 108.639C136.838 109.409 139.418 110.199 142.248 111.059C141.498 114.659 140.788 118.059 140.078 121.369C139.658 123.369 139.188 125.449 138.828 127.509C138.258 130.739 139.368 132.619 142.508 133.419C150.262 135.379 158.022 137.282 165.788 139.129C169.078 139.909 170.698 138.849 171.578 135.499C172.668 131.379 173.638 127.229 174.668 123.099C174.908 122.149 175.218 121.219 175.568 120.099C177.968 120.649 180.168 121.099 182.358 121.649C185.978 122.499 189.588 123.429 193.218 124.229C197.028 125.059 198.748 124.069 200.108 120.419C200.398 119.659 200.618 118.879 201.008 117.689C217.088 121.759 233.068 126.089 249.008 130.259C249.588 132.319 230.358 209.029 229.188 211.819C208.928 207.459 188.618 202.939 167.948 198.329L175.638 162.469C176.838 162.629 177.878 162.749 178.918 162.909C181.388 163.279 183.218 162.349 183.718 160.439C184.258 158.369 183.138 156.509 180.588 155.829C175.158 154.369 169.688 153.039 164.218 151.699C152.931 148.939 141.638 146.199 130.338 143.479C129.025 143.11 127.689 142.83 126.338 142.639C125.431 142.463 124.491 142.647 123.718 143.153C122.945 143.659 122.4 144.447 122.198 145.349C122.007 146.247 122.156 147.184 122.619 147.977C123.081 148.77 123.822 149.363 124.698 149.639C125.448 149.939 126.228 150.149 127.358 150.519C126.248 156.679 124.358 162.619 122.908 168.629C121.458 174.639 119.798 180.729 118.158 187.099C116.987 187.014 115.822 186.863 114.668 186.649C101.515 183.495 88.3715 180.322 75.2382 177.129L52.4882 171.599C51.6282 171.389 50.7882 171.109 49.6582 170.779L72.7582 82.3086L120.198 94.6386ZM195.438 152.949C195.667 153.063 195.905 153.159 196.148 153.239C205.718 156.089 215.278 158.989 224.878 161.749C227.668 162.549 229.398 161.399 230.108 158.519C231.228 153.939 232.288 149.349 233.248 144.729C234.038 140.919 232.888 139.209 229.038 138.169C221.938 136.249 214.831 134.355 207.718 132.489C205.365 131.806 202.979 131.245 200.568 130.809C197.668 130.359 195.738 131.639 194.978 134.359C193.908 138.199 192.978 142.079 191.978 145.949C191.148 149.309 192.808 151.359 195.438 152.949ZM78.3481 125.879C78.654 126.014 78.968 126.131 79.2882 126.229C88.5882 128.599 97.8782 131.009 107.198 133.289C110.278 134.049 112.608 132.599 113.388 129.519C114.388 125.519 115.318 121.409 116.038 117.309C116.778 113.049 115.348 111.169 111.038 110.029C106.728 108.889 102.478 107.699 98.1882 106.529C93.4782 105.249 88.7682 103.929 84.0282 102.719C80.7182 101.859 78.9582 102.829 78.0282 106.039C76.8582 110.219 75.7981 114.439 74.7181 118.639C73.9581 121.919 75.3981 124.089 78.3481 125.879ZM106.348 160.309C106.448 159.979 106.648 159.469 106.768 158.939C107.768 154.439 108.848 149.939 109.838 145.419C110.338 143.109 109.288 141.419 106.838 140.689C104.668 140.049 102.438 139.589 100.238 139.059C92.8382 137.259 85.4382 135.439 78.0282 133.679C74.0882 132.739 71.7182 134.189 70.6882 138.069C70.2382 139.729 69.7882 141.399 69.4082 143.069C68.728 145.603 68.1905 148.174 67.7982 150.769C67.4382 153.889 68.5681 155.289 71.5981 156.059C76.0781 157.199 80.5982 158.289 85.0682 159.389C90.0682 160.619 95.0682 161.869 100.128 163.049C103.198 163.799 105.058 162.969 106.308 160.309H106.348ZM188.058 184.419C188.778 184.629 189.718 184.969 190.678 185.199L208.678 189.469C211.768 190.189 214.848 190.969 217.948 191.609C220.788 192.209 222.748 191.149 223.258 188.779C224.198 184.439 225.118 180.099 225.928 175.779C226.618 172.079 225.288 170.149 221.638 169.209C214.178 167.289 206.728 165.349 199.268 163.459C197.083 162.871 194.866 162.407 192.628 162.069C190.298 161.759 188.628 162.569 188.038 164.589C186.656 169.178 185.504 173.834 184.588 178.539C184.148 180.969 185.568 182.989 188.058 184.419Z" fill="white"/>
<path d="M193.377 116.569C189.377 115.639 185.647 114.789 181.957 113.919C179.657 113.379 177.367 112.789 175.067 112.269C171.637 111.499 169.827 112.459 168.907 115.809C167.677 120.269 166.647 124.809 165.527 129.259C165.397 129.779 165.207 130.259 164.957 131.099C158.827 130.159 152.957 128.249 146.847 126.899C146.822 126.161 146.855 125.422 146.947 124.689C147.747 120.869 148.587 117.069 149.407 113.259C149.487 112.899 149.567 112.549 149.617 112.189C150.337 107.089 148.717 105.089 144.697 103.949C139.377 102.439 134.077 100.869 128.767 99.3089C128.257 99.1589 127.767 98.9488 126.947 98.6389C128.387 92.9889 129.807 87.4289 131.287 81.6389C135.787 82.7089 139.907 83.7089 144.037 84.6389C146.137 85.2014 148.267 85.6421 150.417 85.9589C153.757 86.3389 155.287 85.1989 156.117 81.9589C157.317 77.2189 158.427 72.449 159.597 67.689C159.867 66.549 160.207 65.429 160.597 63.959C166.287 64.729 171.817 65.759 177.597 66.959C177.117 69.579 176.707 71.879 176.267 74.179C175.517 78.099 174.717 81.999 173.997 85.9289C173.417 89.0589 174.257 90.5689 177.327 91.4589C182.907 93.0889 188.527 94.5389 194.127 96.0789C195.327 96.4089 196.507 96.8189 197.937 97.2689C196.427 103.679 194.947 109.919 193.377 116.569Z" fill="#979FBB"/>
<path d="M161.557 205.018C162.107 215.128 162.657 225.018 163.227 235.518L104.947 219.718C110.547 211.148 116.267 203.178 121.947 195.008L161.557 205.018ZM153.827 210.338C154.04 209.912 154.163 209.447 154.191 208.972C154.218 208.496 154.149 208.02 153.987 207.573C153.825 207.125 153.575 206.714 153.25 206.366C152.925 206.018 152.533 205.74 152.097 205.548C151.643 205.338 151.151 205.222 150.651 205.207C150.151 205.191 149.652 205.276 149.186 205.457C148.719 205.638 148.294 205.911 147.935 206.26C147.576 206.609 147.291 207.027 147.097 207.488C146.729 208.322 146.692 209.266 146.992 210.127C147.293 210.989 147.909 211.704 148.717 212.128C149.638 212.524 150.675 212.56 151.621 212.229C152.567 211.897 153.355 211.222 153.827 210.338V210.338ZM122.437 209.628C122.025 209.4 121.572 209.258 121.104 209.208C120.636 209.159 120.162 209.204 119.712 209.34C119.261 209.476 118.842 209.7 118.48 210.001C118.118 210.301 117.819 210.671 117.602 211.088C117.384 211.506 117.253 211.962 117.214 212.432C117.176 212.901 117.232 213.373 117.379 213.82C117.525 214.267 117.76 214.68 118.069 215.035C118.378 215.391 118.755 215.68 119.177 215.888C120.021 216.339 121.008 216.441 121.927 216.172C122.845 215.903 123.621 215.284 124.087 214.448C124.3 214.024 124.426 213.562 124.458 213.088C124.49 212.615 124.427 212.14 124.273 211.692C124.12 211.243 123.878 210.829 123.563 210.475C123.248 210.12 122.865 209.833 122.437 209.628V209.628ZM138.557 211.358C137.717 210.925 136.738 210.845 135.838 211.134C134.938 211.422 134.189 212.057 133.757 212.898C133.325 213.738 133.244 214.716 133.533 215.617C133.822 216.517 134.456 217.265 135.297 217.698C136.138 218.13 137.116 218.211 138.016 217.922C138.916 217.633 139.665 216.998 140.097 216.158C140.529 215.317 140.61 214.339 140.321 213.439C140.032 212.539 139.398 211.79 138.557 211.358V211.358ZM126.357 206.808C126.761 207.004 127.2 207.119 127.649 207.145C128.098 207.171 128.547 207.108 128.971 206.959C129.395 206.81 129.785 206.579 130.119 206.278C130.453 205.978 130.725 205.614 130.917 205.208C131.117 204.803 131.231 204.361 131.252 203.91C131.273 203.459 131.201 203.008 131.041 202.586C130.881 202.164 130.635 201.779 130.32 201.456C130.004 201.133 129.625 200.878 129.207 200.708C128.406 200.377 127.507 200.368 126.699 200.683C125.891 200.997 125.236 201.611 124.869 202.397C124.502 203.182 124.452 204.079 124.729 204.9C125.006 205.722 125.589 206.405 126.357 206.808V206.808ZM153.597 218.498C152.826 218.105 151.934 218.023 151.104 218.269C150.274 218.514 149.57 219.069 149.137 219.818C148.719 220.575 148.615 221.466 148.849 222.299C149.083 223.132 149.636 223.839 150.387 224.268C150.77 224.511 151.202 224.67 151.652 224.732C152.102 224.795 152.56 224.76 152.995 224.63C153.43 224.5 153.832 224.278 154.174 223.979C154.516 223.681 154.79 223.312 154.977 222.898C155.182 222.52 155.31 222.104 155.351 221.676C155.393 221.248 155.348 220.816 155.219 220.405C155.09 219.995 154.88 219.615 154.602 219.287C154.323 218.959 153.982 218.691 153.597 218.498V218.498Z" fill="#979FBB"/>
<path d="M168.427 160.418L160.557 196.978L145.557 193.238C148.317 181.068 151.287 169.238 154.237 157.008L168.427 160.418Z" fill="#EAECF1"/>
<path d="M138.347 191.348L125.557 188.178C128.457 176.178 131.557 164.418 134.717 152.238L146.987 155.178C144.277 167.268 141.237 179.048 138.347 191.348Z" fill="#EAECF1"/>
<path d="M195.438 152.949C192.808 151.359 191.157 149.309 191.987 145.949C192.987 142.079 193.907 138.199 194.987 134.359C195.747 131.639 197.678 130.359 200.578 130.809C202.988 131.246 205.375 131.807 207.727 132.489C214.841 134.356 221.948 136.249 229.048 138.169C232.898 139.169 234.047 140.919 233.257 144.729C232.257 149.349 231.257 153.939 230.117 158.519C229.407 161.399 227.677 162.519 224.887 161.749C215.287 158.989 205.727 156.089 196.157 153.239C195.911 153.16 195.67 153.064 195.438 152.949V152.949ZM214.767 150.949L223.678 153.619C224.348 150.559 224.928 147.889 225.578 144.939L216.857 142.719C216.147 145.689 215.477 148.179 214.767 150.979V150.949ZM207.517 148.819C208.267 146.019 208.928 143.539 209.678 140.749L201.578 138.699C200.868 141.519 200.268 143.919 199.578 146.479L207.517 148.819Z" fill="#3558A2"/>
<path d="M78.3482 125.88C75.3482 124.09 73.9583 121.88 74.7983 118.64C75.8783 114.44 76.9382 110.22 78.1082 106.04C79.0082 102.83 80.7682 101.86 84.1082 102.72C88.8482 103.93 93.5582 105.25 98.2682 106.53C102.558 107.7 106.828 108.89 111.118 110.03C115.408 111.17 116.808 113.03 116.118 117.31C115.398 121.41 114.478 125.48 113.468 129.52C112.688 132.6 110.358 134.05 107.278 133.29C97.9583 131.01 88.6682 128.6 79.3682 126.23C79.0209 126.136 78.6801 126.019 78.3482 125.88ZM106.698 125.5C107.328 122.5 107.888 119.84 108.478 117.01L99.9083 114.75C99.1183 117.75 98.4183 120.39 97.6583 123.29L106.698 125.5ZM90.3183 121.42C91.2833 118.588 92.0288 115.686 92.5483 112.74L84.5483 110.66C83.7883 113.81 83.1383 116.54 82.4383 119.44L90.3183 121.42Z" fill="#3558A2"/>
<path d="M106.309 160.309C105.059 162.969 103.198 163.799 100.098 163.059C95.0985 161.879 90.0985 160.629 85.0385 159.399C80.5485 158.299 76.0386 157.209 71.5686 156.069C68.5686 155.299 67.4085 153.899 67.7685 150.779C68.1608 148.184 68.6983 145.614 69.3785 143.079C69.7585 141.399 70.2085 139.729 70.6585 138.079C71.6585 134.199 74.0585 132.749 77.9985 133.689C85.4085 135.449 92.8086 137.269 100.209 139.069C102.409 139.599 104.639 140.069 106.809 140.699C109.249 141.419 110.299 143.119 109.809 145.429C108.809 149.939 107.808 154.429 106.738 158.949C106.608 159.469 106.409 159.979 106.309 160.309ZM99.8485 155.419C100.488 152.419 101.069 149.879 101.679 147.079L93.0185 145.009C92.2385 147.899 91.5586 150.449 90.8286 153.189L99.8485 155.419ZM85.7685 143.199L77.5786 141.359L75.5786 149.549L83.5786 151.359L85.7685 143.199Z" fill="#3558A2"/>
<path d="M188.059 184.418C185.569 183.008 184.119 180.988 184.579 178.498C185.495 173.793 186.646 169.138 188.029 164.548C188.619 162.548 190.289 161.718 192.619 162.028C194.856 162.366 197.073 162.83 199.259 163.418C206.719 165.308 214.169 167.248 221.629 169.168C225.279 170.108 226.629 172.038 225.919 175.738C225.109 180.098 224.189 184.438 223.249 188.738C222.739 191.108 220.779 192.168 217.939 191.568C214.839 190.928 211.759 190.148 208.669 189.428L190.669 185.158C189.719 184.948 188.779 184.608 188.059 184.418ZM216.489 183.568C217.281 181.076 217.817 178.509 218.089 175.908L209.579 173.838C208.849 176.538 208.229 178.838 207.579 181.468L216.489 183.568ZM200.259 179.768L202.309 171.878L194.219 169.878C193.539 172.648 192.939 175.058 192.219 177.798L200.259 179.768Z" fill="#3558A2"/>
<path d="M153.827 210.338C153.355 211.218 152.571 211.889 151.629 212.22C150.687 212.552 149.655 212.519 148.737 212.128C147.929 211.704 147.312 210.989 147.012 210.128C146.711 209.266 146.749 208.323 147.117 207.488C147.311 207.027 147.596 206.609 147.955 206.261C148.314 205.912 148.739 205.639 149.205 205.458C149.672 205.277 150.17 205.191 150.67 205.207C151.17 205.222 151.662 205.338 152.117 205.548C152.551 205.742 152.941 206.022 153.263 206.371C153.586 206.72 153.835 207.13 153.995 207.578C154.155 208.025 154.222 208.501 154.193 208.975C154.164 209.449 154.04 209.913 153.827 210.338V210.338Z" fill="#3558A2"/>
<path d="M122.438 209.628C122.866 209.833 123.248 210.121 123.564 210.476C123.879 210.83 124.12 211.244 124.274 211.692C124.428 212.141 124.49 212.616 124.458 213.089C124.426 213.562 124.3 214.024 124.088 214.448C123.622 215.284 122.846 215.904 121.927 216.173C121.009 216.442 120.022 216.34 119.178 215.888C118.755 215.681 118.379 215.391 118.07 215.036C117.761 214.681 117.526 214.268 117.379 213.821C117.232 213.373 117.177 212.901 117.215 212.432C117.253 211.963 117.385 211.506 117.602 211.089C117.82 210.672 118.118 210.302 118.481 210.001C118.843 209.701 119.262 209.476 119.712 209.34C120.163 209.204 120.636 209.16 121.104 209.209C121.572 209.258 122.026 209.401 122.438 209.628V209.628Z" fill="#3558A2"/>
<path d="M138.558 211.359C139.399 211.792 140.033 212.54 140.322 213.441C140.611 214.341 140.53 215.319 140.098 216.16C139.665 217 138.917 217.635 138.017 217.924C137.117 218.213 136.139 218.132 135.298 217.7C134.457 217.267 133.822 216.519 133.534 215.619C133.245 214.718 133.326 213.74 133.758 212.899C134.19 212.059 134.939 211.424 135.839 211.135C136.739 210.846 137.717 210.927 138.558 211.359V211.359Z" fill="#3558A2"/>
<path d="M126.358 206.808C125.59 206.405 125.007 205.722 124.73 204.9C124.452 204.079 124.503 203.182 124.87 202.397C125.237 201.611 125.892 200.997 126.7 200.683C127.508 200.368 128.407 200.377 129.208 200.708C129.626 200.878 130.005 201.133 130.32 201.456C130.636 201.779 130.881 202.164 131.042 202.586C131.202 203.008 131.274 203.459 131.253 203.91C131.231 204.361 131.118 204.803 130.918 205.208C130.725 205.614 130.454 205.978 130.12 206.278C129.786 206.579 129.396 206.81 128.972 206.959C128.548 207.108 128.098 207.171 127.65 207.145C127.201 207.119 126.762 207.004 126.358 206.808V206.808Z" fill="#3558A2"/>
<path d="M153.599 218.499C153.984 218.692 154.325 218.96 154.604 219.288C154.882 219.616 155.092 219.996 155.221 220.407C155.35 220.817 155.395 221.249 155.353 221.677C155.312 222.106 155.184 222.521 154.979 222.899C154.792 223.313 154.518 223.682 154.176 223.981C153.834 224.28 153.432 224.502 152.997 224.632C152.562 224.761 152.104 224.796 151.654 224.734C151.204 224.671 150.773 224.513 150.389 224.269C149.638 223.84 149.085 223.133 148.851 222.3C148.617 221.468 148.721 220.576 149.139 219.819C149.572 219.07 150.276 218.515 151.106 218.27C151.936 218.024 152.828 218.106 153.599 218.499V218.499Z" fill="#3558A2"/>
<path d="M214.768 150.978C215.478 148.178 216.118 145.688 216.858 142.748L225.578 144.968C224.928 147.968 224.348 150.588 223.678 153.648L214.768 150.978Z" fill="white"/>
<path d="M207.517 148.848L199.627 146.508C200.267 143.948 200.867 141.508 201.627 138.729L209.727 140.778C208.927 143.568 208.267 146.048 207.517 148.848Z" fill="white"/>
<path d="M106.697 125.498L97.6973 123.288C98.4573 120.388 99.1573 117.738 99.9473 114.748L108.517 117.008C107.887 119.838 107.327 122.508 106.697 125.498Z" fill="white"/>
<path d="M90.3186 121.419L82.4785 119.419C83.1785 116.519 83.8285 113.789 84.5885 110.639L92.5885 112.719C92.057 115.673 91.2981 118.582 90.3186 121.419V121.419Z" fill="white"/>
<path d="M99.8477 155.418L90.8477 153.188C91.5777 150.448 92.2577 147.898 93.0377 145.008L101.698 147.078C101.068 149.848 100.488 152.418 99.8477 155.418Z" fill="white"/>
<path d="M85.7681 143.168L83.5781 151.328L75.5781 149.518L77.5781 141.328L85.7681 143.168Z" fill="white"/>
<path d="M216.488 183.548L207.488 181.448C208.188 178.828 208.808 176.518 209.488 173.818L217.998 175.888C217.756 178.486 217.25 181.053 216.488 183.548V183.548Z" fill="white"/>
<path d="M200.258 179.748L192.258 177.748C192.938 175.008 193.538 172.598 194.258 169.828L202.348 171.828L200.258 179.748Z" fill="white"/>
</svg>
