<svg width="300" height="300" viewBox="0 0 300 300" fill="none" xmlns="http://www.w3.org/2000/svg">
<path d="M163.845 110.393C163.845 109.253 163.915 108.393 163.995 107.483C164.155 105.593 164.275 103.703 164.535 101.833C164.683 101.027 165.089 100.29 165.691 99.735C166.293 99.1794 167.06 98.8348 167.875 98.7528C168.328 98.7276 168.782 98.7276 169.235 98.7528C175.135 98.7528 181.035 98.7528 186.945 98.8828C188.026 98.8541 189.101 99.0446 190.105 99.4428C190.935 99.8198 191.634 100.434 192.115 101.208C192.595 101.983 192.836 102.882 192.805 103.793C192.959 107.413 193.165 111.023 193.425 114.623C193.825 120.123 194.295 125.623 194.765 131.473L203.605 137.473C203.897 137.683 204.201 137.877 204.515 138.053C207.435 139.653 208.515 142.173 208.675 145.423C208.775 148.023 209.305 150.593 209.605 153.183C209.825 155.063 210.005 156.943 210.175 158.833C210.395 161.253 210.555 163.683 210.805 166.113C211.095 168.883 211.465 171.643 211.805 174.413C212.025 176.413 212.222 178.386 212.395 180.333C212.625 182.933 212.775 185.553 213.035 188.153C213.295 190.753 213.685 193.503 214.035 196.153C214.255 198.153 214.465 200.093 214.645 202.073C214.865 204.673 215.005 207.293 215.265 209.893C215.525 212.493 215.905 215.253 216.205 217.893C216.445 219.953 216.655 222.013 216.835 224.073C217.065 226.683 217.235 229.293 217.455 231.903C217.615 233.783 217.915 235.663 217.975 237.553C218.075 240.753 216.795 242.183 213.605 242.553C210.025 242.973 206.435 243.293 202.865 243.723C198.935 244.193 195.025 244.723 191.095 245.243C188.855 245.513 186.605 245.623 184.365 245.893C180.525 246.353 176.705 246.893 172.875 247.393C171.085 247.623 169.295 247.813 167.505 247.993C163.505 248.393 159.605 248.723 155.665 249.183C151.925 249.623 148.195 250.183 144.445 250.673C142.295 250.943 140.135 251.073 137.985 251.323C135.485 251.613 132.985 251.953 130.495 252.273C128.805 252.483 127.105 252.713 125.405 252.893C121.465 253.303 117.515 253.623 113.575 254.083C109.825 254.523 106.095 255.083 102.355 255.583C100.295 255.843 98.2253 255.973 96.1653 256.213C93.5753 256.513 91.0053 256.933 88.4053 257.213C86.7788 257.344 85.1467 257.391 83.5154 257.353C83.0246 257.326 82.5455 257.192 82.1119 256.961C81.6783 256.729 81.3007 256.406 81.0054 256.013C79.7237 254.599 78.8978 252.833 78.6354 250.943C78.1354 248.013 77.8453 245.053 77.4253 242.113C76.9453 238.733 76.4253 235.363 75.9153 231.983C75.4753 228.983 75.1153 225.913 74.6753 222.883C74.2353 219.853 73.6754 216.673 73.2454 213.553C72.8054 210.623 72.4154 207.683 71.9854 204.743C71.4754 201.273 70.9853 197.813 70.4353 194.333C70.0053 191.333 69.6553 188.263 69.2153 185.243C68.7753 182.223 68.2154 179.023 67.7754 175.913C67.3354 172.803 66.9354 169.853 66.5154 166.823C66.4054 166.023 66.2454 165.233 66.1054 164.433C65.855 163.374 65.8315 162.274 66.0366 161.205C66.2417 160.137 66.6707 159.124 67.2953 158.233C69.2953 155.533 71.1853 152.803 73.1853 150.123C80.052 140.929 86.9353 131.749 93.8353 122.583C99.7087 114.783 105.599 106.999 111.505 99.2328C114.445 95.3428 117.415 91.4628 120.325 87.5428C120.847 86.8118 121.579 86.2568 122.424 85.9514C123.269 85.646 124.186 85.6046 125.055 85.8327C127.702 86.3492 130.196 87.4643 132.345 89.0928C142.345 95.9827 152.505 102.783 162.605 109.603C162.865 109.863 163.245 110.053 163.845 110.393ZM155.845 241.393C155.465 239.083 155.035 236.973 154.795 234.843C154.335 230.843 153.985 226.773 153.575 222.733C153.375 220.733 153.165 218.763 152.945 216.823C152.625 214.143 152.295 211.473 151.945 208.823C151.595 206.173 151.225 203.483 150.945 200.823C150.655 197.773 150.385 194.703 150.285 191.643C150.205 189.353 150.995 188.333 153.215 187.643C154.858 187.183 156.528 186.829 158.215 186.583C163.795 185.653 169.375 184.763 174.955 183.863L191.705 181.153C193.875 180.803 196.015 181.603 196.855 183.323C197.277 184.313 197.544 185.362 197.645 186.433C197.925 188.433 198.035 190.373 198.315 192.333C198.765 195.533 199.315 198.713 199.795 201.913C200.265 205.393 200.585 208.913 200.995 212.373C201.185 213.983 201.395 215.583 201.615 217.193C202.105 220.653 202.615 224.113 203.125 227.583C203.525 230.403 203.915 233.233 204.325 236.133L210.215 235.363C210.005 232.753 209.835 230.253 209.575 227.753C209.295 225.073 208.905 222.403 208.635 219.753C208.365 217.103 208.215 214.543 207.995 211.933C207.825 209.933 207.625 207.933 207.405 206.013C207.105 203.343 206.725 200.673 206.405 198.013C206.085 195.353 205.985 192.803 205.755 190.193C205.585 188.193 205.395 186.193 205.165 184.283C204.875 181.783 204.475 179.283 204.235 176.793C203.955 174.013 203.815 171.213 203.575 168.423C203.425 166.633 203.225 164.843 203.015 163.053C202.705 160.373 202.345 157.703 202.015 155.053C201.755 152.743 201.555 150.423 201.315 147.983C200.649 147.941 199.981 147.941 199.315 147.983C195.575 148.473 191.835 148.983 188.085 149.493C184.335 150.003 180.735 150.233 177.085 150.693C171.905 151.333 166.745 152.073 161.575 152.693C157.115 153.263 152.645 153.783 148.175 154.323C143.705 154.863 139.065 155.443 134.505 155.963C129.225 156.563 123.945 157.113 118.655 157.693C116.955 157.883 115.255 158.063 113.555 158.293C109.815 158.783 106.085 159.293 102.335 159.793C98.5853 160.293 94.8053 160.563 91.0453 161.003C86.6653 161.503 82.2953 162.053 77.9253 162.613C76.4253 162.803 74.9253 163.093 73.4053 163.343C77.6053 192.193 81.7854 220.923 85.9854 249.803C87.0454 249.743 87.9853 249.733 88.8253 249.633C91.1353 249.343 93.4454 248.983 95.7654 248.713C98.0854 248.443 100.255 248.313 102.495 248.083C104.285 247.893 106.075 247.673 107.855 247.453C110.175 247.153 112.485 246.793 114.795 246.523C116.945 246.273 119.105 246.143 121.255 245.883C123.665 245.593 126.055 245.193 128.465 244.883C130.695 244.623 132.955 244.483 135.195 244.253C136.985 244.063 138.765 243.853 140.555 243.623C142.865 243.323 145.175 242.963 147.495 242.693C149.815 242.423 152.165 242.263 154.495 242.013C154.975 241.888 155.431 241.685 155.845 241.413V241.393ZM79.0254 154.693C79.2906 154.797 79.5708 154.858 79.8554 154.873C83.3454 154.463 86.8553 154.013 90.3053 153.593C91.8253 153.413 93.3654 153.343 94.8854 153.143C98.4454 152.683 101.995 152.143 105.565 151.693C109.325 151.233 113.095 150.893 116.855 150.483C118.645 150.293 120.425 150.063 122.215 149.833C124.445 149.543 126.665 149.203 128.895 148.933C130.895 148.683 133.025 148.543 135.075 148.273C138.825 147.803 142.555 147.273 146.305 146.783C150.055 146.293 153.835 146.033 157.585 145.573C162.765 144.933 167.915 144.153 173.095 143.573C178.275 142.993 183.655 142.413 188.935 141.823C190.545 141.653 192.165 141.483 193.765 141.243C194.201 141.095 194.614 140.89 194.995 140.633C183.255 132.683 171.685 124.823 160.095 117.023C148.505 109.223 137.035 101.273 125.095 93.4728L79.0254 154.693ZM162.775 240.923L196.575 236.983C196.641 235.964 196.641 234.942 196.575 233.923C196.115 230.553 195.575 227.193 195.085 223.813C194.595 220.433 194.335 216.813 193.855 213.373C193.235 208.743 192.465 204.143 191.855 199.523C191.385 196.153 191.025 192.773 190.595 189.303C190.223 189.23 189.844 189.197 189.465 189.203L158.035 194.253C158.005 194.819 158.005 195.386 158.035 195.953C158.535 199.953 159.115 203.953 159.555 207.953C160.015 212.243 160.345 216.553 160.735 220.863C160.915 222.863 161.125 224.803 161.325 226.773L162.325 236.423L162.775 240.923ZM171.095 115.413L186.975 126.143C186.725 124.243 186.465 122.833 186.375 121.413C186.115 117.413 185.915 113.473 185.715 109.503C185.834 108.365 185.5 107.226 184.785 106.333H178.385C176.155 106.333 173.925 106.203 171.725 106.333C171.465 109.533 171.315 112.403 171.095 115.433V115.413Z" fill="#3558A2"/>
<path d="M169.616 55.7626C171.239 51.1719 174.402 47.2849 178.566 44.7625C180.399 43.5042 182.478 42.6486 184.665 42.2522C186.852 41.8557 189.099 41.9274 191.256 42.4625C196.716 43.8625 199.996 47.7525 201.506 53.0325C202.609 56.9673 202.536 61.1387 201.296 65.0326C201.136 65.5426 201.026 66.0326 200.906 66.5526C201.039 66.8124 201.203 67.0543 201.396 67.2726C203.878 69.4122 205.533 72.3516 206.076 75.5826C206.976 79.7526 205.726 83.2326 203.266 86.4126C200.865 89.4042 197.482 91.4484 193.716 92.1827C190.644 92.9427 187.451 93.0874 184.323 92.6086C181.194 92.1298 178.191 91.0368 175.486 89.3926C174.331 88.6869 173.139 88.0427 171.916 87.4626C171.099 87.0999 170.227 86.8736 169.336 86.7926C165.649 86.3911 162.142 84.987 159.196 82.7326C156.766 81.097 154.854 78.7999 153.686 76.1126C152.107 72.3259 151.898 68.1067 153.096 64.1826C153.721 62.0473 154.921 60.1249 156.565 58.6258C158.208 57.1266 160.233 56.1084 162.416 55.6825C164.786 55.109 167.261 55.1365 169.616 55.7626V55.7626ZM187.616 85.2527C189.95 85.3706 192.279 84.9532 194.426 84.0326C200.486 81.2126 199.816 75.2226 195.776 72.4126C195.182 71.9918 194.617 71.5307 194.086 71.0326C192.736 69.7926 191.986 68.3826 192.806 66.5026C193.296 65.3526 193.706 64.1626 194.126 62.9725C195.296 59.6025 195.386 56.2725 193.436 53.1225C192.326 51.3325 191.046 49.7125 188.676 49.5225C186.525 49.3796 184.386 49.9451 182.586 51.1325C180.969 52.0403 179.573 53.2946 178.497 54.8057C177.422 56.3168 176.694 58.0471 176.366 59.8726C175.836 62.6726 174.746 64.2226 171.306 63.8726C170.153 63.7152 169.018 63.4473 167.916 63.0726C164.016 61.9026 160.846 63.6826 159.916 67.6326C159.55 69.5893 159.867 71.6126 160.816 73.3626C162.066 76.0326 164.596 77.4226 166.966 78.9126C167.383 79.0892 167.837 79.1547 168.286 79.1026C171.641 79.1336 174.912 80.1565 177.686 82.0426C180.736 83.9826 184.006 85.5427 187.586 85.2527H187.616Z" fill="#3558A2"/>
<path d="M240.815 108.243C243.375 110.083 245.865 112.013 248.495 113.723C249.888 114.556 251.371 115.227 252.915 115.723C254.345 116.233 255.625 116.933 255.995 118.463C256.261 119.244 256.273 120.088 256.03 120.877C255.788 121.665 255.303 122.356 254.645 122.853C253.555 123.663 252.535 124.563 251.435 125.353C248.737 127.259 246.448 129.685 244.703 132.49C242.958 135.295 241.792 138.421 241.275 141.683C240.37 146.001 239.821 150.386 239.635 154.793C239.581 155.325 239.453 155.847 239.255 156.343C238.525 158.633 237.085 159.773 235.255 159.533C234.266 159.382 233.36 158.893 232.691 158.149C232.022 157.405 231.631 156.453 231.585 155.453C231.395 153.203 231.175 150.953 231.075 148.703C230.682 142.417 229.759 136.174 228.315 130.043C227.725 127.393 226.475 125.573 223.515 125.433C223.08 125.331 222.652 125.197 222.235 125.033C221.471 124.895 220.769 124.52 220.229 123.961C219.69 123.402 219.34 122.688 219.229 121.919C219.118 121.15 219.253 120.366 219.613 119.677C219.973 118.989 220.54 118.431 221.235 118.083C222.545 117.293 223.895 116.573 225.165 115.713C229.701 112.666 233.118 108.221 234.895 103.053C235.646 100.927 235.986 98.6767 235.895 96.4232C235.812 95.4377 235.924 94.4453 236.225 93.5032C236.541 92.6417 237.167 91.9292 237.981 91.5055C238.795 91.0819 239.738 90.9776 240.625 91.2132C241.447 91.4668 242.164 91.9781 242.672 92.6716C243.18 93.365 243.451 94.2037 243.445 95.0632C243.667 99.0381 242.983 103.011 241.445 106.683C241.265 107.123 241.065 107.623 240.815 108.243ZM236.585 131.503C238.722 127.331 241.626 123.599 245.145 120.503L237.355 114.983L231.505 120.823C234.905 123.383 235.265 127.603 236.585 131.503Z" fill="#3558A2"/>
<path d="M64.1458 87.702L75.1458 91.952C75.4858 92.082 75.8358 92.162 76.1458 92.312C76.7418 92.5324 77.2796 92.8858 77.7185 93.3454C78.1573 93.8049 78.4856 94.3584 78.6784 94.9639C78.8712 95.5693 78.9234 96.2108 78.8311 96.8394C78.7388 97.4681 78.5045 98.0674 78.1458 98.5919C77.0758 100.262 75.8258 101.822 74.6058 103.382C71.938 106.795 70.3564 110.93 70.0658 115.252C69.7658 118.602 69.6857 121.922 69.6857 125.252C69.6528 126.064 69.7438 126.877 69.9558 127.662C70.0786 128.189 70.0932 128.735 69.9986 129.268C69.9041 129.801 69.7023 130.309 69.4057 130.762C69.1531 131.403 68.7122 131.953 68.1409 132.338C67.5697 132.724 66.895 132.927 66.2058 132.922C65.43 132.905 64.6769 132.657 64.0427 132.21C63.4085 131.763 62.9222 131.137 62.6458 130.412C62.3376 129.566 62.1524 128.68 62.0958 127.782C61.7858 122.952 60.1858 118.502 58.2758 114.122C56.6258 110.362 53.5558 108.892 49.7058 108.562C48.5388 108.524 47.3791 108.363 46.2458 108.082C42.7158 107.082 41.9258 103.812 44.5658 101.242C45.5658 100.242 46.8358 99.462 47.9558 98.552C53.0458 94.442 56.4458 89.402 57.2758 82.702C57.5558 80.352 57.5458 78.032 57.7358 75.702C57.7516 74.7192 57.9766 73.751 58.3958 72.862C58.6979 72.2733 59.1615 71.7829 59.7324 71.4483C60.3033 71.1137 60.9577 70.9489 61.619 70.973C62.2802 70.9972 62.9208 71.2093 63.4658 71.5846C64.0107 71.9599 64.4374 72.4828 64.6958 73.092C65.0412 73.8208 65.2254 74.6155 65.2358 75.422C65.3539 78.8446 65.0176 82.2678 64.2358 85.602C64.159 86.2992 64.1289 87.0008 64.1458 87.702V87.702ZM69.4658 97.9219C66.4658 96.822 63.9257 94.8719 60.7957 95.6019C59.0157 97.8119 57.3358 99.8919 55.6258 102.032C57.0658 102.862 58.5358 103.572 59.8258 104.502C61.1158 105.432 62.3458 106.682 63.7158 107.892C65.0407 104.261 66.9863 100.887 69.4658 97.9219V97.9219Z" fill="#3558A2"/>
<path d="M155.845 241.413C155.476 241.668 155.072 241.867 154.645 242.003C152.315 242.253 149.975 242.423 147.645 242.683C145.315 242.943 143.015 243.313 140.705 243.613C138.915 243.843 137.135 244.053 135.345 244.243C133.105 244.473 130.845 244.613 128.615 244.873C126.205 245.163 123.815 245.563 121.405 245.873C119.255 246.133 117.095 246.263 114.945 246.513C112.635 246.783 110.325 247.143 108.005 247.443C106.225 247.663 104.435 247.883 102.645 248.073C100.405 248.303 98.1547 248.453 95.9147 248.703C93.6747 248.953 91.2847 249.333 88.9747 249.623C88.0947 249.723 87.1948 249.733 86.1348 249.793C81.9348 220.913 77.7547 192.183 73.5547 163.333C75.0847 163.083 76.5547 162.793 78.0747 162.603C82.4447 162.043 86.8147 161.493 91.1947 160.993C94.9547 160.553 98.7247 160.233 102.485 159.783C106.245 159.333 109.965 158.783 113.705 158.283C115.405 158.053 117.105 157.873 118.805 157.683C124.095 157.103 129.375 156.553 134.655 155.953C139.215 155.433 143.775 154.863 148.325 154.313C152.875 153.763 157.265 153.253 161.725 152.683C166.895 152.013 172.055 151.273 177.235 150.683C180.895 150.223 184.585 149.923 188.235 149.483C191.885 149.043 195.725 148.483 199.465 147.973C200.131 147.931 200.799 147.931 201.465 147.973C201.705 150.413 201.905 152.733 202.165 155.043C202.465 157.723 202.825 160.393 203.165 163.043C203.375 164.833 203.575 166.623 203.725 168.413C203.965 171.203 204.105 174.003 204.385 176.783C204.625 179.283 205.025 181.783 205.315 184.273C205.545 186.273 205.735 188.213 205.905 190.183C206.135 192.793 206.285 195.403 206.555 198.003C206.825 200.603 207.205 203.363 207.555 206.003C207.775 208.003 207.975 210.003 208.145 211.923C208.365 214.533 208.525 217.143 208.785 219.743C209.045 222.343 209.445 225.093 209.725 227.743C209.985 230.243 210.155 232.743 210.365 235.353L204.475 236.123C204.065 233.223 203.675 230.393 203.275 227.573C202.775 224.103 202.275 220.643 201.765 217.183C201.545 215.573 201.335 213.973 201.145 212.363C200.735 208.873 200.415 205.363 199.945 201.903C199.515 198.703 198.945 195.523 198.465 192.323C198.185 190.323 198.075 188.383 197.795 186.423C197.693 185.352 197.426 184.303 197.005 183.313C196.165 181.593 194.005 180.793 191.855 181.143L175.105 183.853C169.525 184.753 163.945 185.643 158.365 186.573C156.677 186.819 155.007 187.173 153.365 187.633C151.145 188.283 150.365 189.303 150.435 191.633C150.535 194.693 150.805 197.763 151.095 200.813C151.355 203.503 151.745 206.173 152.095 208.813C152.445 211.453 152.745 214.163 153.095 216.813C153.315 218.813 153.525 220.783 153.725 222.723C154.135 226.723 154.485 230.803 154.945 234.833C155.035 236.993 155.465 239.103 155.845 241.413ZM113.975 165.193C112.875 165.323 111.685 165.343 110.545 165.593C105.466 166.751 100.988 169.729 97.9547 173.963C96.7644 175.652 95.8716 177.533 95.3147 179.523C93.5447 185.163 93.4547 191.063 93.2247 196.883C93.0147 202.113 93.4647 207.373 93.5747 212.613C93.5786 213.156 93.709 213.691 93.9554 214.176C94.2019 214.66 94.5577 215.08 94.9947 215.403C95.8304 216.107 96.9038 216.465 97.9947 216.403C101.595 216.203 105.215 216.103 108.815 215.763C112.565 215.403 116.285 214.513 120.035 214.373C124.465 214.203 128.845 213.663 133.225 213.143C133.77 213.129 134.306 213.006 134.804 212.783C135.301 212.559 135.749 212.239 136.121 211.841C136.493 211.442 136.783 210.974 136.972 210.463C137.162 209.952 137.247 209.408 137.225 208.863C137.225 207.253 136.865 205.643 136.735 204.033C136.345 199.273 135.945 194.513 135.635 189.743C135.397 184.591 133.903 179.576 131.285 175.133C127.365 168.693 121.525 165.573 113.975 165.193V165.193Z" fill="white"/>
<path d="M79.0254 154.711L125.145 93.4414C137.035 101.241 148.515 109.191 160.145 116.991C171.775 124.791 183.305 132.651 195.045 140.601C194.664 140.859 194.251 141.064 193.815 141.211C192.215 141.451 190.595 141.621 188.985 141.791C183.705 142.381 178.415 142.901 173.145 143.541C167.875 144.181 162.815 144.951 157.635 145.541C153.885 146.001 150.105 146.291 146.355 146.751C142.605 147.211 138.875 147.751 135.125 148.241C133.125 148.511 130.995 148.651 128.945 148.901C126.715 149.171 124.495 149.511 122.265 149.801C120.475 150.031 118.695 150.261 116.905 150.451C113.145 150.861 109.375 151.201 105.615 151.661C102.045 152.091 98.4953 152.661 94.9353 153.111C93.4153 153.311 91.8753 153.381 90.3553 153.561C86.8753 153.981 83.3553 154.431 79.9053 154.841C79.6067 154.848 79.3093 154.804 79.0254 154.711V154.711Z" fill="#979FBB"/>
<path d="M162.775 240.922L162.305 236.442L161.305 226.792C161.105 224.792 160.895 222.852 160.715 220.882C160.325 216.572 159.995 212.261 159.535 207.971C159.095 203.971 158.535 199.971 158.015 195.971C157.985 195.405 157.985 194.838 158.015 194.271L189.465 189.221C189.844 189.215 190.223 189.249 190.595 189.321C191.025 192.791 191.385 196.171 191.855 199.541C192.495 204.161 193.265 208.761 193.855 213.391C194.335 216.861 194.625 220.392 195.085 223.832C195.545 227.272 196.085 230.572 196.575 233.942C196.64 234.961 196.64 235.983 196.575 237.002L162.775 240.922ZM183.365 214.542C183.39 215.253 183.467 215.961 183.595 216.662C183.828 217.796 184.208 218.895 184.725 219.932C185.725 221.582 186.615 221.612 188.725 221.352C189.436 221.198 190.07 220.798 190.513 220.221C190.956 219.644 191.18 218.928 191.145 218.202C191.153 215.427 190.926 212.657 190.465 209.921C189.815 206.861 188.235 205.691 185.795 206.281C184.577 206.54 183.339 206.697 182.095 206.751C181.094 206.785 180.141 207.184 179.414 207.873C178.688 208.562 178.24 209.494 178.155 210.491C178.179 211.479 178.567 212.422 179.244 213.14C179.922 213.858 180.841 214.3 181.825 214.382L183.365 214.542Z" fill="#CBCFDD"/>
<path d="M171.096 115.431C171.316 112.431 171.506 109.531 171.726 106.371C173.926 106.221 176.156 106.371 178.386 106.371H184.786C185.5 107.265 185.835 108.403 185.716 109.541C185.916 113.541 186.116 117.481 186.376 121.451C186.466 122.871 186.726 124.281 186.976 126.181L171.096 115.431Z" fill="white"/>
<path d="M187.587 85.2525C184.007 85.5425 180.737 83.9825 177.657 82.0925C174.882 80.2064 171.611 79.1834 168.257 79.1525C167.808 79.2045 167.353 79.139 166.937 78.9625C164.567 77.4725 162.037 76.0825 160.787 73.4125C159.838 71.6624 159.52 69.6392 159.887 67.6825C160.817 63.6825 163.987 61.9525 167.887 63.1225C168.988 63.4972 170.124 63.7651 171.277 63.9225C174.717 64.2225 175.807 62.6725 176.337 59.9225C176.664 58.097 177.392 56.3667 178.468 54.8556C179.543 53.3446 180.939 52.0902 182.557 51.1825C184.356 49.995 186.495 49.4296 188.647 49.5725C191.017 49.7625 192.297 51.3825 193.407 53.1725C195.407 56.3225 195.267 59.6524 194.097 63.0224C193.677 64.2124 193.267 65.4025 192.777 66.5525C191.957 68.4325 192.707 69.8424 194.057 71.0824C194.588 71.5806 195.152 72.0417 195.747 72.4625C199.747 75.2724 200.457 81.2624 194.397 84.0824C192.245 84.986 189.916 85.3862 187.587 85.2525V85.2525Z" fill="white"/>
<path d="M236.586 131.502C235.266 127.602 234.906 123.382 231.506 120.862L237.356 115.021L245.146 120.542C241.631 123.626 238.727 127.344 236.586 131.502V131.502Z" fill="white"/>
<path d="M69.465 97.9229C66.9825 100.897 65.0368 104.281 63.715 107.923C62.345 106.713 61.1649 105.513 59.8249 104.533C58.4849 103.553 57.065 102.893 55.625 102.063C57.335 99.9229 59.0149 97.8429 60.7949 95.6329C63.9249 94.8229 66.465 96.7729 69.465 97.9229Z" fill="white"/>
<path d="M113.975 165.191C121.525 165.571 127.365 168.691 131.275 175.191C133.894 179.634 135.387 184.65 135.625 189.801C135.935 194.571 136.335 199.331 136.725 204.091C136.855 205.701 137.205 207.311 137.215 208.921C137.238 209.466 137.152 210.01 136.963 210.521C136.773 211.032 136.484 211.501 136.112 211.899C135.739 212.297 135.291 212.618 134.794 212.841C134.297 213.065 133.76 213.187 133.215 213.201C128.835 213.721 124.455 214.261 120.025 214.431C116.275 214.571 112.555 215.431 108.805 215.821C105.205 216.161 101.585 216.261 97.9853 216.461C96.8943 216.523 95.821 216.165 94.9853 215.461C94.5483 215.138 94.1925 214.718 93.946 214.234C93.6995 213.75 93.5691 213.215 93.5653 212.671C93.4553 207.431 93.0053 202.171 93.2153 196.941C93.4453 191.121 93.5352 185.221 95.3052 179.581C95.8621 177.591 96.755 175.711 97.9453 174.021C100.979 169.787 105.457 166.81 110.535 165.651C111.685 165.341 112.875 165.321 113.975 165.191ZM117.035 173.191C117.035 174.581 117.035 175.641 117.035 176.711C117.229 184.771 117.415 192.835 117.595 200.901C117.595 202.441 117.595 203.991 117.695 205.531C117.809 206.106 117.987 206.666 118.225 207.201C122.045 206.131 125.875 207.371 129.475 205.841C129.328 205.248 129.215 204.647 129.135 204.041C128.745 199.181 128.335 194.331 128.025 189.461C127.754 184.927 126.17 180.57 123.465 176.921C121.945 174.921 119.705 174.011 117.035 173.191ZM109.525 173.851C105.445 175.971 103.005 178.631 102.165 182.851C101.441 186.736 100.983 190.665 100.795 194.611C100.555 198.681 100.735 202.771 100.735 206.861C100.735 207.471 100.805 208.071 100.855 208.861C102.545 208.701 104.055 208.571 105.555 208.411C107.055 208.251 108.635 208.751 110.065 207.651C110.065 206.731 110.065 205.831 110.065 204.941C109.885 197.331 109.685 189.731 109.535 182.131C109.465 179.471 109.525 176.851 109.525 173.851Z" fill="#3558A2"/>
<path d="M183.366 214.563L181.826 214.363C180.842 214.282 179.923 213.839 179.246 213.121C178.568 212.403 178.18 211.46 178.156 210.473C178.241 209.475 178.689 208.544 179.416 207.854C180.142 207.165 181.096 206.766 182.096 206.733C183.341 206.679 184.578 206.521 185.796 206.263C188.236 205.673 189.796 206.843 190.466 209.903C190.933 212.652 191.163 215.435 191.156 218.223C191.192 218.949 190.968 219.665 190.524 220.242C190.081 220.819 189.448 221.22 188.736 221.373C186.616 221.633 185.736 221.603 184.736 219.953C184.219 218.917 183.839 217.817 183.606 216.683C183.475 215.983 183.395 215.274 183.366 214.563V214.563Z" fill="#3558A2"/>
<path d="M117.036 173.191C119.706 174.011 121.946 174.881 123.436 176.941C126.148 180.582 127.742 184.931 128.026 189.461C128.336 194.331 128.746 199.181 129.136 204.041C129.216 204.647 129.329 205.248 129.476 205.841C125.876 207.371 122.046 206.131 118.226 207.201C117.988 206.666 117.81 206.106 117.696 205.531C117.606 203.991 117.636 202.441 117.596 200.901C117.416 192.841 117.23 184.778 117.036 176.711C117.016 175.641 117.036 174.581 117.036 173.191Z" fill="#CBCFDD"/>
<path d="M109.525 173.852C109.525 176.852 109.525 179.472 109.525 182.082C109.675 189.682 109.875 197.282 110.055 204.892C110.055 205.782 110.055 206.682 110.055 207.602C108.625 208.702 107.055 208.202 105.545 208.362C104.035 208.522 102.545 208.652 100.845 208.812C100.795 208.062 100.725 207.462 100.725 206.812C100.725 202.722 100.545 198.632 100.785 194.562C100.973 190.615 101.431 186.686 102.155 182.802C103.005 178.632 105.465 175.972 109.525 173.852Z" fill="#CBCFDD"/>
</svg>
