<svg width="300" height="300" viewBox="0 0 300 300" fill="none" xmlns="http://www.w3.org/2000/svg">
<path d="M192.11 86.7097C195.45 84.8197 198.42 83.0697 201.45 81.4297C207.36 78.2197 213.31 75.0897 219.22 71.8797C222 70.3797 224.38 70.8797 226.84 72.7597C233.636 78.0466 239.193 84.7569 243.12 92.4197C245.696 97.5051 247.589 102.908 248.75 108.49C249.679 112.488 250.222 116.567 250.37 120.67C250.37 122.85 250.79 125.03 250.71 127.2C250.576 132.062 250.142 136.911 249.41 141.72C248.927 145.106 248.181 148.449 247.18 151.72C246.982 152.443 246.638 153.119 246.168 153.703C245.699 154.288 245.114 154.77 244.45 155.12C241.35 156.79 238.3 158.58 235.21 160.29C221.023 168.15 206.827 176 192.62 183.84C181.74 189.84 170.82 195.79 159.93 201.84C146.11 209.46 132.29 217.093 118.47 224.74C116.47 225.82 114.6 227.04 112.14 226.95C111.03 226.95 109.9 227.58 108.77 227.86C104.77 228.86 100.92 228.18 97.0898 227.16C91.1004 225.449 85.5071 222.574 80.6298 218.7C71.3404 211.538 63.6323 202.533 57.9898 192.25C53.7399 184.72 50.7982 176.524 49.2898 168.01C48.7597 165.1 48.959 162.104 49.8698 159.29C50.9075 156.196 52.1126 153.162 53.4798 150.2C54.0386 149.265 54.8451 148.504 55.8098 148C60.0398 145.42 64.3198 142.91 68.5898 140.4C76.6965 135.64 84.8098 130.883 92.9298 126.13C101.256 121.243 109.59 116.343 117.93 111.43L160.06 86.6497L178.54 75.8397C178.906 75.6299 179.283 75.4397 179.67 75.2697C181.74 74.2697 183.18 74.7197 184.49 76.4997C186.95 79.8497 189.47 83.1897 192.11 86.7097ZM221.84 77.7797C218.84 79.3997 216.21 80.7797 213.57 82.2997C208.65 85.0397 203.72 87.7497 198.84 90.5597C190.32 95.4597 181.84 100.43 173.34 105.36L145.67 121.42C137.97 125.88 130.3 130.42 122.55 134.79C114.55 139.29 106.55 143.73 98.8898 148.71C97.6098 149.54 96.3598 150.42 94.9598 151.37C96.4598 152.23 97.7398 152.87 98.9098 153.67C103.065 156.56 106.618 160.232 109.37 164.48C113.98 171.608 117.328 179.476 119.27 187.74C120.27 191.69 120.65 195.8 121.27 199.84C121.282 200.176 121.248 200.512 121.17 200.84C121.08 201.67 120.97 202.5 120.91 203.33C120.7 206.33 120.53 209.33 120.29 212.33C120.23 213.22 119.99 214.1 119.78 215.33C121.198 214.952 122.585 214.468 123.93 213.88C129.25 211.01 134.5 208.02 139.8 205.11C147.53 200.86 155.27 196.65 163 192.4C177.667 184.36 192.333 176.313 207 168.26C216.88 162.85 226.77 157.49 236.66 152.09C238.19 151.25 239.66 150.35 241.04 149.58C241.25 148.35 241.38 147.36 241.58 146.38C242.814 140.733 243.533 134.986 243.73 129.21C243.828 125.682 243.711 122.153 243.38 118.64C242.796 112.479 241.386 106.425 239.19 100.64C236.375 93.113 231.802 86.3686 225.85 80.9697C224.63 79.8597 223.25 78.8897 221.85 77.7797H221.84ZM179.76 83.2397C178.76 83.7597 177.96 84.1597 177.18 84.6197C167.12 90.5397 157.06 96.463 147 102.39C135 109.443 122.973 116.486 110.92 123.52C98.8665 130.553 86.8665 137.623 74.9198 144.73C70.3598 147.42 65.7898 150.08 61.2598 152.8C60.4654 153.245 59.7817 153.864 59.2598 154.61C57.8019 156.919 56.8355 159.504 56.4208 162.204C56.0062 164.903 56.1522 167.659 56.8498 170.3C58.5501 177.485 61.3246 184.372 65.0798 190.73C70.0052 199.183 76.4859 206.627 84.1798 212.67C89.5098 216.84 95.2998 220.18 102.18 221.11C105.169 221.636 108.248 221.139 110.92 219.7C113.011 215.26 114.107 210.417 114.13 205.51C113.57 205.82 113.28 205.96 113 206.13C109.92 208.01 106.83 209.88 103.77 211.8C102.731 212.527 101.476 212.88 100.21 212.8C99.7302 212.786 99.261 212.657 98.8416 212.424C98.4221 212.191 98.0647 211.861 97.7992 211.461C97.5337 211.061 97.368 210.604 97.3159 210.127C97.2638 209.65 97.3269 209.167 97.4998 208.72C97.8797 207.596 98.6886 206.669 99.7498 206.14L107.04 201.65L113.88 197.41C113.67 192.363 112.374 187.42 110.08 182.92C109.948 182.935 109.817 182.962 109.69 183L99.7898 189C97.1298 190.61 94.4898 192.24 91.7898 193.84C90.3798 194.69 88.8898 195.22 87.3198 194.22C85.2182 192.987 83.308 191.455 81.6498 189.67C79.5255 187.274 77.7666 184.579 76.4298 181.67C76.1684 181.197 75.8708 180.746 75.5398 180.32C74.3998 181.07 73.4698 181.8 72.4398 182.32C71.8386 182.62 71.1586 182.724 70.4951 182.618C69.8316 182.512 69.2179 182.202 68.7398 181.73C67.1898 180.28 67.2898 178.06 69.1398 176.44C70.5898 175.18 72.1398 174.07 73.6998 172.9C73.6998 172.72 73.7498 172.56 73.7498 172.39C73.7418 172.138 73.7185 171.888 73.6798 171.64C72.8145 167.227 73.7003 162.651 76.1498 158.88C78.7691 154.863 82.17 151.415 86.1498 148.74C87.3898 147.88 88.6998 147.1 89.9798 146.31C96.1898 142.45 102.32 138.46 108.62 134.78C119.79 128.26 131.09 121.96 142.31 115.52C156.223 107.52 170.123 99.4997 184.01 91.4597C184.56 91.1397 185.07 90.7497 185.77 90.2797L179.76 83.2397ZM89.7298 187.04L107.79 176.04C106.99 174.39 106.33 172.85 105.51 171.39C104.69 169.93 103.73 168.62 102.8 167.2C101.44 167.77 100.24 168.35 98.9798 168.78C98.1201 169.091 97.2142 169.257 96.2998 169.27C95.5825 169.239 94.9019 168.944 94.3887 168.442C93.8755 167.94 93.566 167.266 93.5198 166.55C93.4252 165.793 93.5666 165.026 93.9246 164.353C94.2826 163.68 94.8397 163.134 95.5198 162.79C96.1998 162.39 96.9298 162.06 98.0098 161.51C96.5121 160.378 94.9531 159.33 93.3398 158.37C91.6619 157.591 89.775 157.385 87.9686 157.783C86.1623 158.18 84.5361 159.159 83.3398 160.57C82.0663 162.138 81.1602 163.971 80.6878 165.935C80.2154 167.899 80.1887 169.944 80.6098 171.92C81.4464 176.389 83.3466 180.59 86.1498 184.17C86.9926 185.496 88.2517 186.506 89.7298 187.04Z" fill="#324980"/>
<path d="M221.85 77.7793C223.26 78.8893 224.64 79.8593 225.85 80.9693C231.785 86.3602 236.348 93.09 239.16 100.599C241.356 106.385 242.765 112.439 243.35 118.599C243.681 122.112 243.798 125.642 243.7 129.169C243.503 134.946 242.784 140.693 241.55 146.339C241.35 147.339 241.22 148.339 241.01 149.539C239.66 150.309 238.16 151.209 236.63 152.049C226.74 157.449 216.85 162.809 206.97 168.219C192.303 176.259 177.636 184.306 162.97 192.359C155.24 196.609 147.5 200.819 139.77 205.069C134.47 207.979 129.22 210.969 123.9 213.839C122.555 214.427 121.168 214.912 119.75 215.289C119.96 214.099 120.2 213.219 120.26 212.289C120.5 209.289 120.67 206.289 120.88 203.289C120.94 202.459 121.05 201.629 121.14 200.799C121.218 200.472 121.251 200.136 121.24 199.799C120.59 195.799 120.24 191.649 119.24 187.699C117.298 179.436 113.949 171.567 109.34 164.439C106.588 160.191 103.035 156.52 98.8797 153.629C97.7097 152.829 96.4297 152.189 94.9297 151.329C96.3297 150.329 97.5797 149.499 98.8597 148.669C106.55 143.669 114.55 139.249 122.52 134.749C130.27 130.369 137.94 125.839 145.64 121.379L173.31 105.319C181.81 100.389 190.31 95.4193 198.81 90.5193C203.69 87.7093 208.62 84.9993 213.54 82.2593C216.21 80.8293 218.85 79.3993 221.85 77.7793ZM136.85 187.609C137.649 187.397 138.434 187.133 139.2 186.819C140.41 186.239 141.55 185.529 142.73 184.889C151.143 180.316 159.553 175.746 167.96 171.179C181.82 163.619 195.673 156.049 209.52 148.469C216.3 144.763 223.076 141.049 229.85 137.329C230.511 136.968 231.128 136.531 231.69 136.029C232.156 135.593 232.476 135.024 232.607 134.4C232.737 133.775 232.672 133.125 232.42 132.539C232.256 131.921 231.889 131.375 231.377 130.99C230.866 130.606 230.24 130.405 229.6 130.419C228.683 130.402 227.775 130.601 226.95 130.999C219.48 134.999 212.04 139.079 204.6 143.149L164.38 165.149C155.02 170.259 145.64 175.329 136.3 180.469C135.423 180.952 134.646 181.597 134.01 182.369C133.633 182.833 133.403 183.398 133.349 183.993C133.296 184.589 133.421 185.186 133.71 185.709C133.973 186.312 134.416 186.818 134.978 187.158C135.54 187.498 136.194 187.656 136.85 187.609ZM146.1 196.309C147.1 195.889 148.1 195.569 149.1 195.059C155.353 191.613 161.59 188.146 167.81 184.659C178.723 178.546 189.633 172.433 200.54 166.319C208.006 162.133 215.483 157.959 222.97 153.799C224.14 153.149 225.34 152.529 226.48 151.799C228.53 150.539 229.28 148.379 228.32 146.689C227.36 144.999 225.32 144.689 223.21 145.689C222.98 145.799 222.76 145.919 222.54 146.049L204.95 155.869C194.343 161.829 183.73 167.786 173.11 173.739C164.03 178.819 154.92 183.859 145.85 188.969C144.898 189.502 144.051 190.203 143.35 191.039C142.965 191.494 142.741 192.061 142.71 192.656C142.679 193.25 142.844 193.838 143.18 194.329C143.467 194.88 143.887 195.349 144.402 195.695C144.918 196.041 145.512 196.252 146.13 196.309H146.1ZM221.45 124.879C221.445 124.357 221.324 123.842 221.096 123.372C220.867 122.902 220.537 122.489 220.13 122.163C219.722 121.836 219.246 121.604 218.738 121.485C218.229 121.365 217.7 121.359 217.19 121.469C216.399 121.727 215.635 122.062 214.91 122.469C208.023 126.143 201.14 129.809 194.26 133.469L159.85 151.879C159.105 152.264 158.386 152.698 157.7 153.179C157.091 153.626 156.637 154.251 156.4 154.968C156.164 155.685 156.156 156.458 156.38 157.179C156.634 157.858 157.119 158.424 157.75 158.779C158.382 159.135 159.118 159.255 159.83 159.119C160.978 158.923 162.084 158.531 163.1 157.959C172.66 152.886 182.206 147.789 191.74 142.669C200.626 137.943 209.513 133.216 218.4 128.489C219.058 128.124 219.684 127.703 220.27 127.229C220.628 126.947 220.922 126.591 221.13 126.186C221.339 125.78 221.458 125.335 221.48 124.879H221.45ZM141.14 152.579C142.015 152.281 142.87 151.927 143.7 151.519C149.28 148.429 154.83 145.289 160.4 142.169C169.066 137.329 177.703 132.489 186.31 127.649C187.354 127.103 188.356 126.482 189.31 125.789C189.998 125.314 190.483 124.598 190.669 123.782C190.855 122.967 190.728 122.111 190.313 121.384C189.898 120.658 189.226 120.113 188.429 119.859C187.632 119.604 186.769 119.658 186.01 120.009C185.32 120.295 184.652 120.629 184.01 121.009L160.93 133.919C154.35 137.619 147.77 141.329 141.19 145.049C140.183 145.631 139.229 146.3 138.34 147.049C137.21 148.049 137.34 149.349 137.66 150.579C137.85 151.659 139.41 152.529 141.17 152.579H141.14ZM214.34 93.5193C213.935 93.5727 213.543 93.6945 213.18 93.8793C210.18 95.7893 207.05 97.6393 204.12 99.7293C203.473 100.217 203.041 100.938 202.916 101.739C202.791 102.539 202.982 103.357 203.45 104.019C203.895 104.739 204.591 105.269 205.404 105.505C206.216 105.742 207.088 105.668 207.85 105.299C208.317 105.109 208.768 104.882 209.2 104.619C211.56 103.179 213.893 101.736 216.2 100.289C216.485 100.112 216.753 99.9076 217 99.6793C217.56 99.2993 217.983 98.7483 218.204 98.1086C218.426 97.4688 218.435 96.7745 218.23 96.1293C217.931 95.3514 217.4 94.684 216.71 94.2173C216.02 93.7505 215.203 93.5069 214.37 93.5193H214.34Z" fill="white"/>
<path d="M179.758 83.2383L185.818 90.2983C185.118 90.7683 184.608 91.1583 184.058 91.4783C170.158 99.4783 156.258 107.498 142.358 115.538C131.138 121.978 119.838 128.278 108.668 134.798C102.368 138.478 96.2383 142.468 90.0283 146.328C88.7483 147.118 87.4382 147.898 86.1982 148.758C82.2184 151.433 78.8176 154.882 76.1982 158.898C73.7488 162.669 72.863 167.246 73.7283 171.658C73.7669 171.907 73.7903 172.157 73.7983 172.408C73.7983 172.578 73.7983 172.738 73.7483 172.918C72.2183 174.088 70.6383 175.198 69.1883 176.458C67.3383 178.078 67.1883 180.298 68.7883 181.748C69.2664 182.22 69.8801 182.531 70.5436 182.637C71.2071 182.743 71.8871 182.638 72.4883 182.338C73.4883 181.798 74.4883 181.068 75.5883 180.338C75.9192 180.765 76.2168 181.216 76.4783 181.688C77.815 184.597 79.5739 187.293 81.6982 189.688C83.3564 191.473 85.2667 193.006 87.3683 194.238C88.9383 195.238 90.4283 194.708 91.8383 193.858C94.5083 192.258 97.1483 190.628 99.8383 189.018L109.738 183.018C109.866 182.981 109.996 182.954 110.128 182.938C112.422 187.439 113.718 192.381 113.928 197.428L107.088 201.668L99.7983 206.158C98.737 206.687 97.9281 207.615 97.5483 208.738C97.3753 209.186 97.3123 209.668 97.3644 210.145C97.4165 210.622 97.5822 211.08 97.8477 211.479C98.1131 211.879 98.4706 212.209 98.89 212.442C99.3095 212.675 99.7786 212.804 100.258 212.818C101.524 212.898 102.779 212.546 103.818 211.818C106.878 209.898 109.968 208.028 113.048 206.148C113.328 205.978 113.618 205.838 114.178 205.528C114.155 210.436 113.06 215.279 110.968 219.718C108.296 221.158 105.217 221.655 102.228 221.128C95.3383 220.198 89.5483 216.858 84.2283 212.688C76.5344 206.646 70.0537 199.201 65.1283 190.748C61.3539 184.388 58.5623 177.493 56.8483 170.298C56.1404 167.662 55.9829 164.909 56.3854 162.21C56.788 159.51 57.7421 156.923 59.1883 154.608C59.7102 153.862 60.3939 153.243 61.1883 152.798C65.7183 150.078 70.2883 147.418 74.8483 144.728C86.8483 137.662 98.8483 130.592 110.848 123.518C122.848 116.445 134.875 109.402 146.928 102.388C157.002 96.4816 167.062 90.5583 177.108 84.6183C177.958 84.1583 178.788 83.7583 179.758 83.2383Z" fill="white"/>
<path d="M89.73 187.04C88.2526 186.515 86.9903 185.517 86.14 184.2C83.3368 180.62 81.4366 176.419 80.6 171.95C80.1789 169.974 80.2055 167.929 80.6779 165.965C81.1503 164.001 82.0565 162.168 83.33 160.6C84.5263 159.189 86.1524 158.21 87.9588 157.813C89.7652 157.415 91.6521 157.621 93.33 158.4C94.9432 159.36 96.5023 160.408 98 161.54C96.92 162.09 96.1899 162.42 95.5099 162.82C94.8299 163.164 94.2727 163.71 93.9147 164.383C93.5567 165.056 93.4154 165.823 93.5099 166.58C93.5562 167.296 93.8657 167.97 94.3788 168.472C94.892 168.974 95.5727 169.269 96.29 169.3C97.2044 169.287 98.1103 169.122 98.97 168.81C100.23 168.38 101.43 167.81 102.79 167.23C103.72 168.65 104.69 169.99 105.5 171.42C106.31 172.85 106.98 174.42 107.78 176.07L89.73 187.04Z" fill="#CBCFDD"/>
<path d="M136.85 187.61C136.198 187.659 135.547 187.506 134.985 187.171C134.423 186.837 133.978 186.337 133.71 185.74C133.422 185.217 133.296 184.619 133.35 184.024C133.403 183.429 133.633 182.864 134.01 182.4C134.646 181.628 135.424 180.983 136.3 180.5C145.64 175.36 155.02 170.29 164.38 165.18L204.6 143.18C212.04 139.11 219.48 135.04 226.95 131.03C227.776 130.632 228.684 130.433 229.6 130.45C230.24 130.436 230.866 130.637 231.378 131.021C231.889 131.406 232.256 131.952 232.42 132.57C232.672 133.156 232.738 133.806 232.607 134.431C232.476 135.055 232.156 135.624 231.69 136.06C231.128 136.562 230.511 136.999 229.85 137.36C223.083 141.094 216.307 144.807 209.52 148.5C195.667 156.067 181.813 163.637 167.96 171.21C159.56 175.79 151.15 180.36 142.73 184.92C141.55 185.56 140.41 186.27 139.2 186.85C138.434 187.154 137.649 187.408 136.85 187.61Z" fill="#324980"/>
<path d="M146.128 196.309C145.508 196.25 144.913 196.036 144.398 195.687C143.882 195.337 143.463 194.864 143.178 194.309C142.843 193.818 142.678 193.23 142.709 192.636C142.739 192.041 142.964 191.474 143.348 191.019C144.057 190.216 144.904 189.545 145.848 189.039C154.918 183.929 164.028 178.889 173.108 173.809C183.728 167.869 194.342 161.913 204.948 155.939L222.538 146.119C222.758 145.989 222.978 145.869 223.208 145.759C225.338 144.759 227.398 145.139 228.318 146.759C229.238 148.379 228.528 150.609 226.478 151.869C225.338 152.579 224.138 153.199 222.968 153.869C215.488 158.043 208.012 162.216 200.538 166.389C189.625 172.489 178.715 178.603 167.808 184.729C161.575 188.209 155.338 191.676 149.098 195.129C148.148 195.569 147.118 195.889 146.128 196.309Z" fill="#324980"/>
<path d="M221.479 124.879C221.464 125.341 221.35 125.794 221.142 126.206C220.935 126.619 220.641 126.982 220.279 127.269C219.693 127.742 219.068 128.164 218.409 128.529C209.529 133.269 200.642 137.996 191.749 142.709C182.209 147.809 172.662 152.906 163.109 157.999C162.094 158.571 160.987 158.963 159.839 159.159C159.127 159.295 158.391 159.174 157.76 158.819C157.128 158.464 156.643 157.897 156.389 157.219C156.166 156.498 156.173 155.725 156.409 155.008C156.646 154.291 157.1 153.666 157.709 153.219C158.395 152.738 159.114 152.304 159.859 151.919L194.289 133.589C201.176 129.922 208.059 126.256 214.939 122.589C215.664 122.182 216.428 121.847 217.219 121.589C217.72 121.481 218.239 121.483 218.739 121.596C219.239 121.71 219.708 121.931 220.114 122.244C220.519 122.557 220.852 122.955 221.088 123.411C221.323 123.866 221.457 124.367 221.479 124.879Z" fill="#324980"/>
<path d="M141.17 152.579C139.41 152.579 137.89 151.659 137.66 150.629C137.39 149.399 137.21 148.059 138.34 147.099C139.229 146.35 140.183 145.681 141.19 145.099C147.756 141.366 154.336 137.656 160.93 133.969L184.01 121.039C184.652 120.659 185.32 120.325 186.01 120.039C186.769 119.688 187.632 119.634 188.429 119.889C189.226 120.144 189.898 120.688 190.313 121.414C190.728 122.141 190.855 122.997 190.669 123.812C190.483 124.628 189.998 125.344 189.31 125.819C188.357 126.512 187.354 127.134 186.31 127.679C177.683 132.526 169.046 137.366 160.4 142.199C154.83 145.319 149.28 148.459 143.7 151.549C142.879 151.946 142.034 152.29 141.17 152.579Z" fill="#324980"/>
<path d="M214.37 93.518C215.217 93.4889 216.051 93.7247 216.758 94.1926C217.464 94.6604 218.007 95.337 218.31 96.128C218.515 96.7733 218.506 97.4675 218.285 98.1073C218.063 98.747 217.64 99.298 217.08 99.678C216.833 99.9064 216.566 100.111 216.28 100.288C213.94 101.735 211.607 103.178 209.28 104.618C208.849 104.88 208.397 105.108 207.93 105.298C207.168 105.667 206.297 105.74 205.484 105.504C204.671 105.267 203.975 104.738 203.53 104.018C203.063 103.356 202.871 102.538 202.996 101.737C203.121 100.937 203.553 100.216 204.2 99.728C207.13 97.638 210.2 95.788 213.26 93.878C213.608 93.6985 213.983 93.5769 214.37 93.518Z" fill="#324980"/>
</svg>
