<svg width="300" height="300" viewBox="0 0 300 300" fill="none" xmlns="http://www.w3.org/2000/svg">
<path d="M97.5651 197.034C94.1551 195.854 91.155 194.904 88.225 193.784C80.8452 191.104 74.3211 186.49 69.335 180.424C64.755 174.724 63.185 168.364 65.725 161.304C66.5108 158.987 67.4358 156.72 68.4951 154.514C70.4951 150.454 72.695 146.514 74.845 142.514C79.205 134.454 83.5051 126.354 86.5551 117.694C89.6051 109.034 92.3751 100.154 93.6851 90.9644C94.0751 88.1844 94.1151 85.3544 94.3751 82.5644C94.7351 78.5644 95.025 74.6144 95.595 70.6744C95.965 68.1444 97.4851 66.0344 98.7751 63.8244C101.115 59.8244 104.975 58.9244 109.005 58.2044C116.005 56.9544 122.755 58.3243 129.345 60.4843C140.7 64.0656 151.38 69.5135 160.945 76.6043C162.315 77.6043 163.805 78.5243 165.175 79.6043C170.405 83.6043 173.175 88.8544 172.985 95.5444C172.844 99.3779 171.578 103.085 169.345 106.204C166.745 109.924 163.935 113.484 161.215 117.114L158.685 120.484C159.125 120.654 159.345 120.834 159.545 120.814C164.245 120.384 167.835 122.554 170.775 125.814C172.684 127.882 174.327 130.179 175.665 132.654C178.048 137.416 182.224 141.038 187.275 142.724C195.205 145.554 203.095 148.514 211.025 151.374C226.105 156.824 241.395 161.744 256.025 168.374C262.305 171.194 268.675 173.944 274.025 178.444C275.585 179.683 276.903 181.199 277.915 182.914C280.785 188.234 277.625 193.914 271.575 194.314C268.951 194.483 266.317 194.227 263.775 193.554C256.008 191.414 248.288 189.101 240.615 186.614C225.535 181.694 210.495 176.674 195.495 171.554C188.495 169.144 181.575 166.344 174.605 163.744C172.995 163.144 171.365 162.584 169.715 162.124C166.995 161.314 164.086 161.395 161.415 162.354C159.965 162.874 158.515 163.354 157.045 163.844C152.945 165.134 148.875 165.774 144.615 162.524C144.615 164.254 144.615 165.454 144.615 166.644C144.445 171.804 144.445 176.984 143.995 182.114C143.755 184.784 142.725 187.384 141.995 189.994C140.205 196.554 135.565 199.864 129.145 200.994C126.485 201.434 123.765 201.514 121.025 201.994C124.895 202.774 128.765 203.565 132.645 204.325C140.735 205.905 148.815 207.524 156.925 209.004C159.595 209.484 162.265 209.654 164.775 210.914C167.064 212.023 169.066 213.645 170.625 215.654C174.155 220.234 175.885 225.484 176.775 231.144C177.485 235.624 176.975 240.035 176.465 244.425C175.845 249.815 174.825 255.164 173.975 260.524C173.975 260.704 173.975 260.895 173.905 261.065C172.985 265.515 171.525 266.445 167.015 265.695C142.615 261.635 118.425 256.425 94.1151 251.845C78.7817 248.958 63.4783 246.025 48.205 243.045C42.955 242.045 37.7451 240.804 32.5251 239.654C29.5251 238.984 28.1851 237.104 28.2551 233.654C28.2405 233.565 28.2405 233.474 28.2551 233.384C30.5051 224.444 30.715 215.044 34.455 206.384C36.4068 201.971 39.2894 198.031 42.9051 194.835C48.3151 189.925 54.6251 188.774 61.6551 190.254C73.0051 192.634 84.3851 194.864 95.7551 197.144C96.3604 197.16 96.9661 197.124 97.5651 197.034ZM167.335 258.504C169.195 250.064 170.585 241.664 170.135 233.104C169.936 228.731 168.553 224.494 166.135 220.845C165.364 219.615 164.342 218.563 163.135 217.757C161.929 216.95 160.566 216.407 159.135 216.164C145.075 213.484 131.035 210.734 116.985 208.014L70.3051 199.014C68.3051 198.634 66.3851 198.324 64.4351 197.884C62.4851 197.444 60.6751 197.165 58.8051 196.715C54.0651 195.595 49.9651 197.275 46.4451 200.715C41.2251 205.795 39.1951 212.294 37.8051 219.114C37.0151 223.014 36.395 226.954 35.725 230.874C35.615 231.554 35.6351 232.255 35.5751 233.095C76.5751 242.095 117.905 248.985 158.875 257.475C161.585 257.995 164.395 258.144 167.335 258.504ZM99.335 98.5044L152.015 117.914C153.595 115.854 155.215 113.794 156.785 111.694C159.185 108.504 161.705 105.394 163.885 102.054C168.045 95.6544 166.625 88.8444 160.425 84.4444C159.315 83.6544 158.145 82.9544 157.065 82.1344C148.172 75.5189 138.253 70.4076 127.705 67.0043C122.585 65.1497 117.142 64.3537 111.705 64.6644C106.865 65.0244 102.855 67.7844 102.065 72.9744C101.855 74.3144 101.655 75.6544 101.555 76.9744C101.175 81.8544 100.895 86.7343 100.465 91.6143C100.205 93.9843 99.7151 96.2844 99.3751 98.4544L99.335 98.5044ZM81.6551 143.914C78.7951 149.504 75.9451 154.914 73.3251 160.324C72.469 162.235 71.8802 164.254 71.5751 166.324C70.7751 170.984 73.0451 174.614 76.0151 177.814C79.8756 181.945 84.6208 185.148 89.8951 187.184C97.3654 189.978 105.088 192.044 112.955 193.354C117.228 194.244 121.593 194.62 125.955 194.475C131.805 194.165 134.225 192.184 135.955 186.694C137.701 180.768 138.378 174.578 137.955 168.414C137.825 165.154 137.745 165.204 134.615 164.064C122.015 159.464 109.405 154.864 96.835 150.154C91.885 148.254 87.0151 146.104 81.6551 143.914ZM137.415 157.824C138.095 151.534 138.945 145.694 141.045 140.164C143.145 134.634 145.495 129.374 147.795 123.844C131.205 117.364 114.625 110.924 97.4451 105.354C94.5975 116.628 90.4145 127.522 84.985 137.804C102.255 145.284 119.565 151.734 137.415 157.824ZM272.125 186.975C271.745 184.975 270.435 184.114 269.225 183.204C263.755 179.054 257.495 176.374 251.225 173.664C235.845 166.964 219.865 161.894 204.125 156.174C196.125 153.274 188.225 150.114 180.325 146.944C177.456 145.745 174.986 143.754 173.205 141.204C171.935 139.444 170.885 137.524 169.635 135.754C168.223 133.667 166.69 131.663 165.045 129.754C164.337 128.853 163.372 128.187 162.278 127.845C161.183 127.502 160.011 127.498 158.915 127.834C157.603 128.228 156.267 128.535 154.915 128.754C154.24 128.838 153.603 129.116 153.083 129.554C152.563 129.993 152.182 130.573 151.985 131.224C150.155 135.944 148.345 140.674 146.435 145.354C145.125 148.544 145.585 151.494 147.045 154.494C148.655 157.784 150.195 158.604 153.795 157.594C155.885 156.994 157.955 156.314 160.005 155.594C163.012 154.516 166.267 154.335 169.375 155.074C171.668 155.613 173.928 156.281 176.145 157.074C185.845 160.614 195.445 164.434 205.145 167.804C218.245 172.314 231.435 176.564 244.625 180.804C251.625 183.044 258.625 185.054 265.705 187.054C267.788 187.78 270.06 187.752 272.125 186.975V186.975Z" fill="#3558A2"/>
<path d="M234.115 80.2549C233.638 81.0907 233.049 81.8578 232.365 82.5349C231.213 83.4159 229.949 84.139 228.605 84.685C218.755 88.835 208.895 92.925 199.025 97.025C198.359 97.3114 197.66 97.5162 196.945 97.635C196.223 97.7492 195.483 97.627 194.836 97.2863C194.189 96.9457 193.67 96.405 193.355 95.745C193.062 95.0704 193.014 94.3148 193.218 93.6084C193.423 92.9019 193.867 92.2889 194.475 91.8749C195.377 91.273 196.347 90.7796 197.365 90.405C205.065 87.215 212.785 84.0849 220.465 80.8649C223.215 79.7049 225.875 78.3349 228.565 77.0449C229.735 76.4849 230.885 76.0449 232.195 76.6249C233.505 77.2049 234.125 78.2249 234.115 80.2549Z" fill="#3558A2"/>
<path d="M186.014 84.8139C183.014 84.8139 181.414 82.4039 182.454 80.1739C182.964 79.2147 183.607 78.3326 184.364 77.5539C191.764 69.3239 199.024 60.9839 205.664 52.1139C206.147 51.4625 206.727 50.8892 207.384 50.414C207.953 49.9928 208.645 49.7725 209.353 49.7879C210.06 49.8032 210.742 50.0533 211.292 50.4988C211.841 50.9443 212.227 51.5598 212.389 52.2487C212.551 52.9375 212.479 53.6605 212.184 54.304C211.811 55.1295 211.327 55.9 210.744 56.594C204.804 63.7806 198.841 70.9605 192.854 78.1339C191.404 79.8739 189.954 81.6238 188.364 83.2338C187.65 83.8561 186.86 84.387 186.014 84.8139V84.8139Z" fill="#3558A2"/>
<path d="M181.085 39.4544C180.725 41.7944 180.335 44.3943 179.935 46.9843C178.865 53.9842 177.825 60.9842 176.695 67.9142C176.503 69.1625 176.094 70.3674 175.485 71.4742C175.127 72.223 174.492 72.8032 173.714 73.0924C172.936 73.3816 172.076 73.3571 171.315 73.0241C169.735 72.3341 169.185 71.0241 169.505 69.0242C170.855 60.7142 172.165 52.3943 173.505 44.0844C173.805 42.2044 174.015 40.3144 174.375 38.4544C174.865 35.9945 176.285 34.7744 178.155 35.0344C180.025 35.2944 181.145 36.8245 181.085 39.4544Z" fill="#3558A2"/>
<path d="M44.3443 114.244C44.4243 116.144 43.9244 117.184 42.7944 117.804C42.243 118.132 41.6065 118.289 40.9655 118.256C40.3246 118.222 39.7082 117.998 39.1944 117.614C38.6895 117.235 38.2473 116.78 37.8843 116.264C32.7177 109.264 27.561 102.264 22.4144 95.2637C22.023 94.7546 21.6877 94.2047 21.4144 93.6237C20.6444 91.8637 20.9643 90.3537 22.2343 89.4937C23.6743 88.4937 25.2344 88.8136 26.5644 90.3536C27.8944 91.8936 29.1243 93.4137 30.3343 94.9937C34.6143 100.627 38.871 106.27 43.1043 111.924C43.595 112.653 44.0105 113.43 44.3443 114.244V114.244Z" fill="#3558A2"/>
<path d="M59.5554 102.625C59.5554 104.335 59.0954 105.375 57.9454 105.995C57.3971 106.334 56.7526 106.483 56.1111 106.42C55.4697 106.357 54.8669 106.085 54.3953 105.645C53.794 105.097 53.2722 104.468 52.8453 103.775C48.7719 97.2218 44.7253 90.6619 40.7053 84.0952C40.3187 83.4668 40.0067 82.7957 39.7753 82.0952C39.4947 81.4669 39.4526 80.7579 39.6569 80.1008C39.8612 79.4437 40.2979 78.8835 40.8853 78.5251C41.544 78.196 42.2928 78.0931 43.0158 78.2323C43.7388 78.3715 44.3959 78.745 44.8853 79.2951C45.0523 79.5088 45.2059 79.7326 45.3453 79.9652C49.7919 86.8052 54.2287 93.6551 58.6553 100.515C59.0138 101.192 59.3148 101.898 59.5554 102.625V102.625Z" fill="#3558A2"/>
<path d="M71.6654 90.8443C71.6654 93.1743 70.8154 94.4843 69.3054 94.8443C68.5496 95.019 67.7559 94.9124 67.073 94.5442C66.3901 94.1761 65.8648 93.5718 65.5953 92.8443C64.4153 90.0143 63.4354 87.0942 62.3254 84.2342C60.9554 80.6942 59.5454 77.1743 58.1254 73.6643C57.3354 71.6643 57.6953 70.0943 59.2153 69.1343C60.002 68.6593 60.9449 68.5157 61.8373 68.7351C62.7296 68.9544 63.4985 69.5188 63.9753 70.3043C64.5451 71.1208 65.0057 72.0083 65.3453 72.9443C67.2753 78.1043 69.1554 83.2843 71.0254 88.4643C71.2785 89.2464 71.4921 90.0407 71.6654 90.8443V90.8443Z" fill="#3558A2"/>
<path d="M167.334 258.504C164.394 258.144 161.584 257.994 158.864 257.434C117.864 248.944 76.6145 242.054 35.5645 233.054C35.6245 232.214 35.5644 231.514 35.7144 230.834C36.3844 226.914 37.0044 222.974 37.7944 219.074C39.1844 212.254 41.2144 205.754 46.4344 200.674C49.9544 197.244 54.0544 195.564 58.7944 196.674C60.6644 197.124 62.5544 197.434 64.4244 197.844C66.2944 198.254 68.3444 198.594 70.2944 198.974L116.974 207.974C130.974 210.694 145.064 213.444 159.124 216.124C160.555 216.367 161.918 216.909 163.125 217.716C164.331 218.522 165.353 219.575 166.124 220.804C168.543 224.453 169.925 228.691 170.124 233.064C170.584 241.664 169.194 250.064 167.334 258.504Z" fill="#979FBB"/>
<path d="M99.375 98.4537C99.715 96.2837 100.205 93.9836 100.375 91.6736C100.805 86.7936 101.085 81.9136 101.465 77.0337C101.565 75.6837 101.765 74.3437 101.975 73.0337C102.765 67.8437 106.775 65.0837 111.615 64.7237C117.052 64.4131 122.495 65.2091 127.615 67.0637C138.163 70.467 148.082 75.5782 156.975 82.1937C158.055 83.0137 159.225 83.7136 160.335 84.5036C166.535 88.9036 167.955 95.7136 163.795 102.114C161.615 105.454 159.095 108.564 156.695 111.754C155.125 113.854 153.505 115.914 151.925 117.974L99.375 98.4537Z" fill="#EAECF1"/>
<path d="M81.6547 143.914C86.9947 146.104 91.8847 148.254 96.8747 150.124C109.445 154.834 122.055 159.434 134.655 164.034C137.785 165.174 137.865 165.124 137.995 168.384C138.418 174.548 137.74 180.738 135.995 186.664C134.225 192.154 131.805 194.134 125.995 194.444C121.632 194.589 117.268 194.213 112.995 193.324C105.127 192.014 97.4051 189.947 89.9348 187.154C84.6604 185.118 79.9153 181.915 76.0547 177.784C73.0547 174.584 70.8147 170.954 71.6147 166.294C71.9197 164.223 72.5086 162.204 73.3647 160.294C75.9447 154.914 78.7947 149.504 81.6547 143.914Z" fill="#EAECF1"/>
<path d="M137.414 157.825C119.564 151.735 102.254 145.285 84.9844 137.825C90.4138 127.543 94.5968 116.649 97.4445 105.375C114.624 110.945 131.204 117.375 147.794 123.865C145.494 129.395 143.114 134.735 141.044 140.185C138.974 145.635 138.094 151.535 137.414 157.825Z" fill="white"/>
<path d="M272.125 186.973C270.09 187.694 267.869 187.694 265.835 186.973C258.835 184.973 251.735 182.973 244.755 180.723C231.565 176.503 218.375 172.253 205.275 167.723C195.525 164.353 185.925 160.533 176.275 156.993C174.058 156.2 171.797 155.532 169.505 154.993C166.397 154.254 163.141 154.434 160.135 155.513C158.135 156.223 156.015 156.903 153.925 157.513C150.325 158.513 148.785 157.703 147.175 154.413C145.715 151.413 145.255 148.413 146.565 145.273C148.475 140.593 150.285 135.863 152.115 131.143C152.311 130.492 152.693 129.912 153.213 129.473C153.733 129.035 154.37 128.757 155.045 128.673C156.397 128.454 157.733 128.146 159.045 127.753C160.141 127.417 161.313 127.421 162.407 127.764C163.501 128.106 164.466 128.772 165.175 129.673C166.82 131.582 168.353 133.586 169.765 135.673C171.015 137.443 172.065 139.363 173.335 141.123C175.116 143.673 177.585 145.663 180.455 146.863C188.355 150.033 196.255 153.193 204.255 156.093C219.995 161.813 235.975 166.883 251.355 173.583C257.585 176.293 263.845 178.973 269.355 183.123C270.435 184.113 271.745 184.993 272.125 186.973Z" fill="#EAECF1"/>
</svg>
