<svg width="300" height="300" viewBox="0 0 300 300" fill="none" xmlns="http://www.w3.org/2000/svg">
<path d="M198.028 88.2334C200.608 91.1134 202.828 93.6134 205.028 96.0934C211.115 102.827 217.218 109.547 223.338 116.253C223.859 116.872 224.494 117.384 225.208 117.763C226.025 118.078 226.72 118.643 227.195 119.378C227.669 120.113 227.898 120.98 227.848 121.853C227.568 126.093 227.248 130.353 226.548 134.533C226.028 137.603 223.728 139.533 220.938 140.773C217.618 142.203 214.248 143.553 210.838 144.773C206.058 146.463 201.258 148.103 196.398 149.543C194.529 150.163 192.522 150.234 190.615 149.746C188.707 149.259 186.98 148.234 185.638 146.793C183.448 144.623 181.028 142.693 178.738 140.613C176.048 138.173 175.938 136.123 177.438 132.873C178.207 130.854 178.689 128.737 178.868 126.583C180.318 116.723 181.708 106.853 183.098 96.9934C183.278 95.7434 183.378 94.4734 183.558 92.7734C172.068 96.2134 160.838 99.7734 149.308 103.373C158.958 134.193 168.548 164.843 178.238 195.803C179.368 195.473 180.378 195.193 181.378 194.883C186.568 193.253 191.758 191.503 197.238 191.263C206.538 190.853 215.538 191.923 223.498 197.373C225.218 198.553 226.958 199.703 228.728 200.803C229.273 201.09 229.741 201.504 230.091 202.01C230.442 202.516 230.665 203.099 230.742 203.71C230.818 204.321 230.746 204.941 230.531 205.518C230.317 206.095 229.965 206.611 229.508 207.023C228.314 208.259 226.823 209.168 225.178 209.663L178.288 224.573L146.678 234.643C145.988 234.863 145.308 235.153 144.608 235.313C141.668 235.973 139.508 234.143 139.838 231.113C140.342 226.238 141.61 221.473 143.598 216.993C145.898 211.883 149.808 208.153 154.488 205.123C159.168 202.093 164.488 200.343 169.668 198.523L171.778 197.803L142.778 105.343L109.078 115.783C109.928 116.663 110.568 117.373 111.258 118.043C120.358 126.913 129.408 135.843 138.628 144.593C139.694 145.506 140.523 146.663 141.045 147.966C141.568 149.268 141.767 150.677 141.628 152.073C141.274 155.865 140.713 159.633 139.948 163.363C139.238 166.733 136.808 168.843 133.668 170.013C130.018 171.373 126.318 172.603 122.598 173.773C118.878 174.943 115.308 175.953 111.598 176.953C110.104 177.339 108.583 177.61 107.048 177.763C105.463 177.959 103.854 177.766 102.361 177.2C100.867 176.633 99.5344 175.711 98.478 174.513C96.418 172.343 94.2081 170.303 92.0781 168.203C89.3681 165.523 88.258 162.543 89.298 158.613C92.658 145.923 95.788 133.163 98.998 120.433C99.088 120.093 99.138 119.733 99.248 119.113C98.6355 119.164 98.0273 119.257 97.428 119.393C94.048 120.393 90.718 121.653 87.298 122.513C84.672 123.158 81.9955 123.576 79.298 123.763C74.858 124.073 69.918 119.003 69.058 114.643C68.9134 113.877 69.0411 113.083 69.419 112.4C69.7969 111.718 70.4013 111.188 71.128 110.903C71.813 110.638 72.5673 110.612 73.2693 110.827C73.9714 111.043 74.5803 111.489 74.998 112.093C75.528 112.813 75.8481 113.683 76.3281 114.453C77.8081 116.843 79.118 117.453 81.758 116.693C87.258 115.153 92.818 113.793 98.178 111.873C100.928 110.873 103.428 109.263 106.508 109.433L139.508 99.1934C139.897 99.0214 140.275 98.8243 140.638 98.6034C139.128 93.7434 137.638 88.9234 136.148 84.1034C135.608 82.3734 135.048 80.6534 134.558 78.9134C134.335 78.2247 134.214 77.5072 134.198 76.7834C134.196 76.0971 134.415 75.4284 134.824 74.8767C135.232 74.325 135.807 73.9197 136.464 73.7209C137.121 73.5221 137.825 73.5406 138.47 73.7734C139.116 74.0062 139.669 74.4411 140.048 75.0134C140.543 75.8756 140.93 76.796 141.198 77.7534C143.018 83.4434 144.798 89.1534 146.598 94.8434C146.768 95.3534 146.978 95.8434 147.228 96.5234C147.84 96.4519 148.448 96.345 149.048 96.2034C160.308 92.7234 171.558 89.2034 182.818 85.7534C183.437 85.6089 184.021 85.3426 184.536 84.97C185.051 84.5974 185.487 84.1261 185.818 83.5834C186.02 83.1704 186.301 82.8012 186.645 82.4971C186.99 82.193 187.391 81.9599 187.826 81.8113C188.26 81.6626 188.72 81.6013 189.179 81.6308C189.638 81.6604 190.086 81.7802 190.498 81.9834C192.039 82.5528 193.737 82.5242 195.258 81.9034C199.128 80.5934 203.028 79.4234 206.888 78.1034C207.987 77.6878 209.029 77.1333 209.988 76.4534C210.686 76.017 211.256 75.4047 211.642 74.678C212.029 73.9513 212.217 73.1358 212.188 72.3134C212.188 71.0434 212.108 69.7734 212.188 68.5034C212.278 66.5034 213.348 65.2334 214.988 65.0134C215.808 64.9417 216.627 65.1595 217.303 65.629C217.979 66.0985 218.469 66.79 218.688 67.5834C219.414 69.9831 219.445 72.5391 218.78 74.9562C218.115 77.3733 216.779 79.553 214.928 81.2434C212.711 83.1289 210.121 84.5259 207.328 85.3434C204.378 86.1734 201.478 87.1534 198.028 88.2334ZM220.538 203.963L220.598 203.303C218.428 202.223 216.308 201.053 214.088 200.083C211.148 198.803 207.988 198.553 204.828 198.173C200.508 197.541 196.104 197.821 191.898 198.993C183.138 201.623 174.358 204.223 165.738 207.243C162.181 208.612 158.819 210.441 155.738 212.683C150.848 216.043 148.578 221.093 147.668 227.193L220.538 203.963ZM184.998 137.083C187.108 138.933 188.818 140.393 190.488 141.893C191.056 142.478 191.783 142.884 192.579 143.061C193.375 143.239 194.205 143.181 194.968 142.893C199.168 141.483 203.408 140.193 207.588 138.743C210.658 137.673 213.678 136.443 216.698 135.243C218.038 134.713 219.578 134.243 219.998 132.673C220.768 130.287 221.023 127.765 220.748 125.273L184.998 137.083ZM134.808 154.393L98.188 164.573C99.948 166.313 101.358 167.573 102.578 168.963C103.314 169.894 104.327 170.566 105.471 170.881C106.615 171.196 107.83 171.137 108.938 170.713C113.108 169.483 117.298 168.333 121.458 167.063C124.458 166.143 127.458 165.063 130.458 164.063C131.878 163.583 133.188 162.883 133.528 161.263C134.028 159.233 134.278 157.183 134.768 154.393H134.808ZM190.298 99.0434H189.688C188.228 109.183 186.688 119.303 185.368 129.813L199.368 125.173C196.238 116.293 193.248 107.663 190.258 99.0434H190.298ZM111.028 153.953C110.288 149.333 104.958 131.163 103.838 129.473C101.478 138.843 99.138 148.103 96.658 157.913L111.028 153.953ZM111.498 127.653L110.998 127.913L117.838 152.083L132.388 148.013L111.498 127.653ZM197.888 98.2934L197.398 98.6834C200.208 106.743 203.008 114.793 205.898 123.063L216.958 119.363L197.888 98.2934Z" fill="#3558A2"/>
<path d="M220.498 203.963L147.648 227.193C148.558 221.093 150.828 216.043 155.718 212.683C158.8 210.441 162.162 208.612 165.718 207.243C174.338 204.243 183.118 201.623 191.878 198.993C196.084 197.821 200.488 197.541 204.808 198.173C207.968 198.553 211.128 198.803 214.068 200.083C216.288 201.083 218.408 202.223 220.578 203.303L220.498 203.963Z" fill="#979FBB"/>
<path d="M184.959 137.084L220.709 125.314C220.984 127.806 220.729 130.328 219.959 132.714C219.539 134.294 217.959 134.714 216.659 135.284C213.659 136.484 210.659 137.714 207.549 138.784C203.369 140.234 199.129 141.524 194.929 142.934C194.166 143.222 193.336 143.28 192.54 143.103C191.744 142.925 191.017 142.519 190.449 141.934C188.779 140.394 187.029 138.934 184.959 137.084Z" fill="#EAECF1"/>
<path d="M134.769 154.395C134.279 157.185 133.979 159.235 133.549 161.255C133.209 162.875 131.899 163.575 130.479 164.055C127.479 165.055 124.479 166.125 121.479 167.055C117.319 168.325 113.129 169.475 108.959 170.705C107.851 171.128 106.636 171.187 105.492 170.872C104.348 170.557 103.334 169.886 102.599 168.955C101.379 167.555 99.969 166.305 98.209 164.565L134.769 154.395Z" fill="#EAECF1"/>
</svg>
