<svg width="300" height="300" viewBox="0 0 300 300" fill="none" xmlns="http://www.w3.org/2000/svg">
<path d="M189.834 96.2774C192.224 97.4774 194.474 98.4474 196.564 99.6874C201.222 102.283 204.74 106.528 206.424 111.587C209.884 122.417 202.104 130.267 194.544 132.587C192.235 133.332 189.766 133.433 187.403 132.88C185.04 132.327 182.873 131.14 181.134 129.447C174.214 123.217 171.934 115.557 174.364 106.547C174.714 105.237 175.164 103.967 175.704 102.217C173.904 102.487 172.354 102.667 170.814 102.947C160.654 104.807 152.234 109.947 144.754 116.827C139.933 121.386 135.667 126.498 132.044 132.057C130.344 134.587 130.414 134.757 133.044 136.457L189.224 172.457C194.164 175.627 194.474 176.927 191.474 181.867L154.344 243.108C153.634 244.268 152.924 245.428 152.174 246.568C150.084 249.788 148.234 250.188 144.864 248.198C144.164 247.778 143.474 247.348 142.784 246.918L41.7842 182.918C36.5642 179.618 31.3441 176.327 26.1441 172.987C22.5341 170.667 22.1441 168.877 24.4041 165.357C38.1575 144.197 51.9209 123.047 65.6942 101.907C66.0442 101.367 66.4042 100.847 66.7842 100.337C68.9142 97.5274 71.3041 97.0173 74.3741 98.8673C77.0141 100.457 79.5842 102.177 82.1842 103.867L121.634 129.137C122.454 129.667 123.314 130.137 124.284 130.747C124.764 130.037 125.164 129.457 125.544 128.867C131.994 118.957 139.694 110.257 149.764 103.807C158.254 98.2976 168.097 95.2322 178.214 94.9474C179.361 94.9938 180.492 94.6637 181.434 94.0074C188.592 87.2422 197.196 82.1948 206.594 79.2473C215.594 76.2973 224.884 74.1473 234.074 71.7173C238.344 70.5973 242.664 69.6573 246.834 68.7173C246.834 68.1473 246.954 67.9473 246.894 67.8273C244.824 63.9273 245.154 62.6473 248.894 60.2573C252.634 57.8673 256.524 55.3573 260.364 52.9373C264.784 50.1273 265.644 50.2573 269.084 54.0973C273.394 52.0973 275.144 52.6173 276.964 56.3473C278.434 59.3473 277.844 60.9873 274.964 62.5273C275.124 64.1073 275.764 65.7473 275.294 66.9673C274.824 68.1873 273.384 69.2773 272.164 70.1073C268.244 72.7273 264.234 75.2273 260.234 77.7174C256.444 80.0774 255.154 79.8173 252.504 76.2973C251.894 75.4773 251.404 74.7273 250.114 75.0473C240.984 77.3473 231.844 79.5873 222.704 81.8573C215.924 83.5373 209.204 85.4473 202.924 88.5673C199.364 90.3373 195.924 92.4174 192.494 94.4174C191.575 94.9888 190.687 95.6097 189.834 96.2774V96.2774ZM106.044 205.778L55.3941 173.668L50.9042 180.177L101.534 212.238L106.044 205.778ZM107.734 216.158L147.144 241.158L151.144 234.438L112.144 209.707C110.634 211.917 109.274 213.918 107.734 216.158ZM39.6141 155.087L67.2541 172.597C69.1841 169.597 70.9541 166.887 72.8441 163.967L45.2842 146.387L39.6141 155.087ZM200.064 115.557C199.611 114.126 199.039 112.734 198.354 111.397C196.395 108.086 193.344 105.561 189.724 104.257C183.574 101.897 183.654 101.257 181.344 108.257C179.344 114.257 181.124 119.477 185.704 123.767C186.966 125.099 188.701 125.882 190.534 125.947C194.114 125.957 200.174 121.877 200.064 115.557V115.557ZM169.314 204.558L144.204 188.757L139.324 197.908L163.884 213.608L169.314 204.558ZM134.974 203.728L130.254 212.587L154.944 228.238L160.094 219.788L134.974 203.728ZM74.8942 145.187L54.5141 132.247L49.2842 140.247L70.3841 153.727L74.8942 145.187ZM66.9941 113.117L88.8042 126.767L93.5142 119.627L71.7942 105.737C70.1542 108.197 68.6841 110.457 66.9941 113.067V113.117ZM141.514 150.327L120.414 136.837L115.984 143.717L137.064 156.897L141.514 150.327ZM107.304 197.978L124.154 208.648L128.814 199.718L112.814 189.478C110.884 192.388 109.184 195.008 107.274 197.978H107.304ZM99.6542 123.497L95.0142 130.587L109.824 139.847C111.364 137.447 112.754 135.267 114.264 132.847C109.354 129.747 104.664 126.737 99.6241 123.497H99.6542ZM163.514 181.968C162.054 184.588 160.694 186.967 159.254 189.577L173.154 198.307L177.674 190.817L163.514 181.968ZM169.024 167.967L165.024 174.387L181.454 184.658L185.264 178.357L169.024 167.967ZM104.514 175.627C106.274 172.477 107.794 169.737 109.404 166.837L97.6642 159.457L92.0041 167.637L104.514 175.627ZM143.144 160.757L158.804 170.537L162.804 164.057L147.204 154.057C145.864 156.387 144.614 158.387 143.184 160.757H143.144ZM106.584 185.567L95.2241 178.327L89.7441 186.887L101.104 194.078L106.584 185.567ZM35.6441 161.177L31.2641 167.817L44.7141 176.247L49.1141 169.717L35.6441 161.177ZM58.3841 126.177L70.9641 134.077C72.5841 131.567 74.0242 129.337 75.5442 126.967L63.0141 119.147L58.3841 126.177ZM99.9042 142.177L95.1842 149.287L107.394 156.967L112.094 149.807L99.9042 142.177ZM89.1341 174.387L78.9442 167.887C77.0142 170.887 75.2642 173.607 73.3942 176.507L83.6041 182.968L89.1341 174.387ZM81.8042 130.857L77.2041 137.977L89.0642 145.457L93.7441 138.347L81.8042 130.857ZM76.4442 157.687L85.9442 163.747L91.5742 155.607L81.0342 148.977L76.4442 157.687ZM110.654 179.538L119.654 185.307C121.444 182.187 123.044 179.407 124.744 176.467L115.644 170.747L110.654 179.538ZM142.164 168.627L132.704 162.737L128.624 170.337L137.624 176.007L142.164 168.627ZM143.754 179.857L152.834 185.577L157.324 178.127L148.214 172.427L143.754 179.857ZM125.754 189.228L133.024 193.867C134.794 190.787 136.444 187.948 138.174 184.957L130.784 180.317L125.754 189.228ZM113.514 160.837L122.444 166.457L126.554 158.887L118.244 153.707L113.514 160.837ZM263.674 59.2573L253.994 65.3973L257.584 70.7473L267.124 64.6473C265.934 62.7373 264.874 61.0973 263.704 59.2573H263.674Z" fill="#3558A2"/>
<path d="M106.044 205.776L101.534 212.236L50.9043 180.176L55.3943 173.666L106.044 205.776Z" fill="white"/>
<path d="M107.734 216.158C109.274 213.918 110.634 211.918 112.174 209.658L151.174 234.388L147.174 241.108L107.734 216.158Z" fill="white"/>
<path d="M39.6133 155.087L45.2833 146.367L72.8433 163.967C70.9533 166.887 69.1833 169.607 67.2533 172.597L39.6133 155.087Z" fill="white"/>
<path d="M169.314 204.507L163.884 213.557L139.324 197.857L144.204 188.707L169.314 204.507Z" fill="white"/>
<path d="M134.974 203.678L160.094 219.738L154.944 228.188L130.254 212.538L134.974 203.678Z" fill="white"/>
<path d="M74.8942 145.137L70.3441 153.767L49.2441 140.287L54.4741 132.287L74.8942 145.137Z" fill="white"/>
<path d="M66.9941 113.068C68.6841 110.458 70.1542 108.198 71.7942 105.688L93.5142 119.578L88.8042 126.718L66.9941 113.068Z" fill="white"/>
<path d="M141.514 150.328L137.064 156.898L115.984 143.718L120.414 136.838L141.514 150.328Z" fill="white"/>
<path d="M107.273 197.978C109.183 194.978 110.883 192.358 112.743 189.479L128.743 199.718L124.083 208.648L107.273 197.978Z" fill="white"/>
<path d="M99.6244 123.498C104.624 126.738 109.354 129.748 114.234 132.898C112.724 135.268 111.334 137.448 109.794 139.898L94.9844 130.638L99.6244 123.498Z" fill="white"/>
<path d="M163.514 181.967L177.674 190.817L173.154 198.307L159.254 189.577C160.644 186.997 162.004 184.587 163.514 181.967Z" fill="white"/>
<path d="M168.973 167.947L185.183 178.387L181.373 184.687L164.943 174.387L168.973 167.947Z" fill="white"/>
<path d="M104.514 175.627L92.0039 167.627L97.6639 159.447L109.404 166.827C107.834 169.737 106.314 172.477 104.514 175.627Z" fill="white"/>
<path d="M143.184 160.757C144.614 158.407 145.864 156.347 147.274 154.047L162.874 164.047L158.874 170.527L143.184 160.757Z" fill="white"/>
<path d="M106.623 185.566L101.143 194.076L89.7832 186.886L95.2632 178.326L106.623 185.566Z" fill="white"/>
<path d="M35.6847 161.178L49.1547 169.718L44.7546 176.248L31.3047 167.818L35.6847 161.178Z" fill="white"/>
<path d="M58.4238 126.166L63.0538 119.166L75.5837 126.986C74.0637 129.356 72.5838 131.586 71.0038 134.096L58.4238 126.166Z" fill="white"/>
<path d="M99.9447 142.207L112.135 149.837L107.435 156.997L95.2246 149.317L99.9447 142.207Z" fill="white"/>
<path d="M89.1345 174.387L83.6045 182.967L73.3945 176.507C75.2645 173.607 77.0146 170.897 78.9446 167.887L89.1345 174.387Z" fill="white"/>
<path d="M81.8052 130.848L93.7451 138.338L89.0652 145.447L77.2051 137.968L81.8052 130.848Z" fill="white"/>
<path d="M76.4434 157.677L81.0333 148.967L91.5734 155.597L85.9434 163.737L76.4434 157.677Z" fill="white"/>
<path d="M110.654 179.526L115.654 170.736L124.754 176.456C123.054 179.396 121.454 182.176 119.664 185.296L110.654 179.526Z" fill="white"/>
<path d="M142.165 168.617L137.625 175.997L128.625 170.327L132.705 162.727L142.165 168.617Z" fill="white"/>
<path d="M143.754 179.848L148.214 172.418L157.324 178.118L152.834 185.568L143.754 179.848Z" fill="white"/>
<path d="M125.805 189.217L130.805 180.307L138.195 184.947C136.465 187.947 134.815 190.777 133.045 193.857L125.805 189.217Z" fill="white"/>
<path d="M113.514 160.837L118.244 153.707L126.554 158.887L122.444 166.457L113.514 160.837Z" fill="white"/>
<path d="M263.703 59.2559C264.873 61.0959 265.933 62.7359 267.153 64.6459L257.613 70.7458L254.023 65.3959L263.703 59.2559Z" fill="#979FBB"/>
</svg>
