<svg width="300" height="300" viewBox="0 0 300 300" fill="none" xmlns="http://www.w3.org/2000/svg">
<path d="M144 179.328C144.808 177.286 145.695 178.155 146.575 178.351C147.455 178.546 148.163 178.351 149 178.351C147.941 184.193 145.996 184.541 144 179.328Z" fill="white"/>
<path d="M96.8773 187.976C94.8277 189.758 93.1478 191.259 91.4358 192.719C89.7237 194.18 87.9394 194.694 85.8094 193.827C84.2019 193.177 82.5944 192.639 80.8422 192.013C80.0384 192.816 79.1462 193.618 78.3746 194.469C77.8043 195.136 77.0462 195.616 76.199 195.847C75.3517 196.077 74.4546 196.047 73.6244 195.761C72.6438 195.521 71.6552 195.304 70.6826 195.031C67.4676 194.108 64.2525 193.57 60.9972 192.808C59.6615 192.48 58.3653 192.009 57.1312 191.403C56.705 191.197 56.3246 190.907 56.0121 190.552C55.6997 190.196 55.4616 189.782 55.3118 189.333C55.162 188.885 55.1036 188.41 55.14 187.939C55.1764 187.467 55.3068 187.008 55.5236 186.587C56.1694 185.546 56.8725 184.541 57.6295 183.577C59.4527 181.034 61.5378 178.688 63.8506 176.578C65.5948 174.844 67.8695 174.267 70.0959 173.777C75.0941 172.659 80.0217 171.246 84.853 169.547C91.2831 167.292 97.7855 165.012 104.224 162.652C107.439 161.456 110.654 160.06 113.869 158.767C114.11 158.691 114.325 158.548 114.489 158.355C114.653 158.162 114.758 157.926 114.793 157.676C114.986 156.544 115.259 155.428 115.533 154.152C115.149 154.048 114.756 153.987 114.359 153.968C111.599 154.094 108.838 153.766 106.185 152.996C102.513 152.072 99.0925 150.344 96.1699 147.94C94.6564 146.806 93.3044 145.472 92.1511 143.975C91.8774 143.581 91.5188 143.253 91.1015 143.015C90.6842 142.778 90.2189 142.636 89.7398 142.602C87.5793 142.351 85.4331 141.99 83.3097 141.519C82.9348 141.405 82.5389 141.377 82.1519 141.438C81.7648 141.5 81.3966 141.648 81.0752 141.872C80.0035 142.589 78.9319 143.322 77.8602 144.071C75.8909 145.46 73.8414 145.676 71.7757 144.368C69.9994 143.252 68.2231 142.129 66.4307 141.029C65.4501 140.427 64.4374 139.865 63.4407 139.279C63.1296 139.085 62.7615 139.004 62.3975 139.047C62.0335 139.091 61.6954 139.258 61.4393 139.52C60.6356 140.186 59.8317 140.804 59.0842 141.462C56.9864 143.212 54.7359 143.742 52.2683 142.265C51.2315 141.631 50.275 141.406 49.3265 142.409C49.1417 142.61 48.7961 142.666 48.5871 142.851C46.2643 144.898 43.7645 144.368 41.2809 143.292C39.6733 142.61 38.1623 141.775 36.5306 140.973C35.124 141.607 33.6371 142.177 32.2626 142.939C30.5104 143.902 28.9351 143.324 27.5687 142.369C24.6591 140.339 21.8378 138.171 19.0648 135.948C18.3306 135.264 17.7333 134.447 17.3046 133.54C16.5732 132.192 17.3046 130.916 17.9717 129.872C19.515 127.512 21.2431 125.265 22.9631 123.026C23.7669 121.942 25.1011 121.621 26.3871 121.348C26.671 121.297 26.9587 121.27 27.2472 121.268C31.7322 121.083 36.2091 120.955 40.6861 120.714C44.303 120.529 47.92 120.208 51.5209 119.951C51.6656 119.951 51.8182 119.951 51.9629 119.951C56.1746 119.775 60.3863 119.614 64.6061 119.43C67.9819 119.285 71.3604 119.127 74.7416 118.956C77.1314 118.833 79.5213 118.694 81.9112 118.539C84.0733 118.386 86.2434 118.186 88.6065 117.985C92.6253 110.288 98.8867 105.215 107.64 103.537C116.216 101.932 123.972 103.939 130.764 109.364C143.994 101.017 159.282 101.956 170.06 111.443C171.957 110.881 173.798 110.279 175.686 109.798C180.268 108.602 184.431 109.718 188.281 112.246C191.555 114.466 194.009 117.697 195.266 121.444C195.66 122.52 195.805 122.624 196.874 122.375C198.36 122.091 199.888 122.091 201.375 122.375C205.273 122.873 208.609 124.671 212.097 126.3C213.41 126.916 214.717 127.547 216.019 128.195C216.556 128.481 217.16 128.616 217.768 128.585C218.376 128.554 218.963 128.358 219.467 128.018C221.589 126.926 223.774 125.961 226.01 125.128C230.889 123.098 235.768 121.115 240.647 119.06C243.588 117.84 246.498 116.548 249.488 115.4C250.368 115.072 251.319 114.984 252.245 115.144C254.656 115.609 257.011 116.275 259.398 116.861L268.24 119.012L272.259 119.975L279.179 121.693C279.526 121.796 279.867 121.919 280.2 122.062C282.611 122.865 283.415 124.35 282.804 126.782C282.193 129.214 281.671 131.405 281.092 133.709C279.286 140.981 277.475 148.253 275.659 155.525C275.265 157.13 274.975 158.735 274.614 160.389C274.506 160.809 274.372 161.222 274.212 161.625C274.002 162.364 273.542 163.008 272.911 163.448C272.279 163.887 271.515 164.093 270.748 164.033C269.954 163.992 269.164 163.895 268.384 163.744C266.319 163.407 264.253 163.062 262.196 162.692C260.419 162.371 258.651 162.01 256.883 161.681C253.901 161.135 250.911 160.614 247.937 160.076C246.377 159.787 244.826 159.418 243.275 159.113C242.575 158.939 241.858 158.84 241.137 158.816C240.554 158.839 239.973 158.73 239.438 158.496C238.903 158.263 238.429 157.911 238.05 157.467C236.387 155.645 234.699 153.831 233.067 151.977C231.435 150.123 230.069 148.429 228.534 146.68C226.999 144.93 225.198 143.028 223.559 141.181C222.12 139.576 220.761 137.842 219.299 136.229C218.821 135.596 218.167 135.119 217.418 134.857C214.564 134.375 212.137 132.922 209.597 131.742C208.15 131.068 206.768 130.233 205.289 129.647C203.143 128.797 200.957 127.962 198.57 128.203C197.829 128.318 197.097 128.476 196.375 128.676C195.571 139.761 185.838 149.585 173.669 147.009C173.235 147.498 172.769 148.044 172.27 148.614C170.615 150.348 169.112 152.282 167.239 153.735C166.741 154.078 166.361 154.565 166.149 155.13C165.938 155.696 165.906 156.313 166.057 156.897C166.21 158.182 166.379 159.474 166.467 160.766C166.645 164.84 165.717 168.886 163.783 172.477C162.312 175.482 160.249 178.161 157.717 180.353C155.186 182.544 152.238 184.203 149.05 185.231C146.741 186.108 144.285 186.53 141.816 186.475C140.457 186.403 139.107 186.531 137.749 186.515C135.865 186.409 134.024 185.918 132.339 185.07C130.627 184.308 128.891 183.609 127.332 182.951C125.025 184.131 122.927 185.239 120.789 186.282C119.723 186.814 118.535 187.055 117.345 186.982C116.156 186.909 115.006 186.523 114.014 185.865C112.711 185.062 111.369 184.42 109.866 183.609C109.416 184.179 109.062 184.669 108.644 185.159C107.897 186.13 107.198 187.149 106.394 188.072C105.875 188.687 105.181 189.13 104.404 189.341C103.627 189.552 102.804 189.521 102.046 189.252C100.229 188.69 98.4687 188.337 96.8773 187.976ZM74.5648 139.087C75.7784 138.244 76.9278 137.353 78.1736 136.606C79.9339 135.547 81.7344 134.865 83.9367 135.531C85.8334 135.975 87.7553 136.304 89.6917 136.518C90.825 136.719 91.9341 137.064 93.0674 137.256C93.7422 137.383 94.3826 137.651 94.9463 138.043C95.5101 138.434 95.9846 138.94 96.3387 139.528C97.9167 141.717 99.9411 143.547 102.279 144.898C106.382 147.301 111.148 148.328 115.878 147.827C117.574 147.699 119.198 147.322 119.961 145.5C120.047 145.334 120.146 145.175 120.259 145.026C119.407 142.739 118.418 140.563 118.169 138.147C118.09 137.659 117.843 137.213 117.47 136.887C116.377 135.993 115.514 134.849 114.955 133.553C114.396 132.258 114.155 130.846 114.255 129.439C114.282 127.948 114.66 126.485 115.358 125.167C116.056 123.85 117.055 122.715 118.273 121.854C119.438 120.829 120.96 120.304 122.509 120.393C124.318 120.642 126.343 120.393 127.766 121.998C130.587 123.13 131.343 125.65 131.737 128.251C132.339 132.264 129.261 137.329 125.306 138.252C124.953 138.394 124.621 138.583 124.318 138.814L124.985 140.323C126.834 139.392 128.521 138.396 130.314 137.666C130.991 137.425 131.598 137.022 132.084 136.494C132.57 135.965 132.92 135.326 133.103 134.632C134.288 130.965 134.338 127.027 133.248 123.331C132.338 119.901 130.292 116.88 127.444 114.758C127.005 114.499 126.628 114.146 126.343 113.723C125.9 112.973 125.238 112.377 124.446 112.013C121.17 110.131 117.485 109.068 113.708 108.915C111.457 108.81 109.205 109.112 107.061 109.806C101.314 111.524 96.7888 114.839 94.3293 120.441C93.9348 121.531 93.2125 122.472 92.2614 123.136C91.3103 123.8 90.1768 124.154 89.0164 124.149C86.4122 124.286 83.8 124.438 81.1878 124.567C78.0692 124.735 74.9505 124.88 71.8319 125.04L64.2284 125.466L56.6167 125.891C54.2054 126.019 51.7941 126.26 49.4471 126.244C47.7914 126.244 46.1597 126.421 44.512 126.429C42.8643 126.437 41.0478 126.686 39.3117 126.774C35.976 126.95 32.6324 127.095 29.2968 127.255L27.4963 127.336C26.7649 128.138 26.0978 128.829 25.5191 129.567C24.7878 130.317 24.257 131.239 23.9758 132.248L30.6149 137.064C31.8125 136.486 32.8735 136.028 33.8943 135.459C34.5497 135.068 35.2906 134.844 36.0527 134.805C36.8147 134.766 37.5747 134.913 38.2667 135.234C40.3726 136.189 42.4865 137.128 44.7371 138.131C45.1952 137.858 45.7579 137.537 46.3446 137.2C47.2127 136.679 48.0647 136.125 48.9488 135.595C49.4457 135.287 50.012 135.108 50.5961 135.074C51.1801 135.04 51.7633 135.153 52.2925 135.402C53.265 135.852 54.2295 136.325 55.2664 136.823C55.5396 136.606 55.7969 136.358 56.0701 136.157C57.5491 135.113 59.0039 134.03 60.523 133.059C60.9036 132.773 61.3531 132.593 61.826 132.536C62.2989 132.48 62.7783 132.549 63.2156 132.738C64.2411 133.059 65.2498 133.431 66.2378 133.853C68.9786 135.523 71.6551 137.256 74.5648 139.079V139.087ZM87.642 188.217C89.4183 186.611 91.1786 185.167 92.7138 183.537C93.3715 182.805 94.231 182.282 95.1846 182.035C96.1382 181.788 97.1436 181.828 98.0749 182.149C99.2644 182.446 100.486 182.566 101.668 182.951C101.828 183.025 102.002 183.066 102.179 183.07C102.356 183.074 102.532 183.041 102.696 182.974C102.86 182.907 103.008 182.807 103.131 182.68C103.254 182.553 103.35 182.402 103.412 182.237C104.015 181.169 104.738 180.166 105.429 179.155C106.852 177.076 108.773 176.675 110.694 177.549C112.398 178.336 114.075 179.173 115.725 180.062C116.265 180.434 116.898 180.651 117.554 180.686C118.209 180.721 118.862 180.575 119.439 180.262C120.121 180.017 120.767 179.682 121.36 179.267C122.807 177.758 124.84 177.598 126.608 176.859C127.127 176.68 127.678 176.619 128.223 176.678C128.768 176.738 129.292 176.918 129.759 177.204C131.471 178.148 133.256 178.953 135.096 179.612C136.649 180.164 138.273 180.488 139.919 180.575C144.521 180.796 149.051 179.373 152.699 176.562C155.711 174.359 157.995 171.306 159.257 167.797C159.964 165.517 160.332 163.145 160.35 160.758C160.519 155.982 158.743 151.929 155.753 148.429C151.606 143.525 145.955 141.639 139.726 141.43C137.773 141.421 135.83 141.708 133.963 142.281C131.644 142.858 129.509 144.013 127.758 145.636C130.362 149.417 133.883 151.672 138.134 153.342C138.689 152.699 139.187 152.081 139.742 151.503C140.579 150.642 141.589 149.966 142.705 149.519C143.821 149.073 145.019 148.865 146.22 148.911C148.564 148.879 150.832 149.74 152.562 151.319C154.273 152.9 155.457 154.968 155.954 157.242C156.278 158.28 156.361 159.378 156.195 160.453C155.271 164.274 153.181 167.019 149.114 168.142C147.847 168.464 146.529 168.532 145.236 168.343C143.943 168.153 142.7 167.71 141.579 167.038C140.458 166.367 139.482 165.48 138.706 164.43C137.93 163.379 137.369 162.186 137.057 160.919C136.964 160.319 136.703 159.757 136.303 159.3C135.903 158.842 135.382 158.507 134.799 158.334C131.456 157.093 128.416 155.153 125.885 152.643C125.154 151.937 124.446 151.215 123.755 150.516C122.729 152.298 121.889 154.181 121.247 156.135C120.629 158.198 120.982 160.309 120.596 162.556C118.273 163.463 115.902 164.314 113.588 165.301C105.944 168.576 98.1231 171.353 90.2784 174.13C84.125 176.402 77.8252 178.258 71.422 179.684C69.0077 180.234 66.8464 181.573 65.2813 183.489C64.5445 184.291 63.8522 185.132 63.2076 186.009C63.0585 186.339 62.9688 186.692 62.9424 187.053L74.5808 189.83C75.2399 189.196 75.899 188.618 76.5019 187.992C78.9131 185.447 81.1074 185.48 83.792 186.692C84.9976 187.173 86.2194 187.639 87.642 188.217ZM135.281 114.036C135.442 114.357 135.53 114.55 135.643 114.734C135.908 115.16 136.197 115.537 136.447 116.01C139.895 121.629 141.076 127.609 139.388 134.062C139.332 134.55 139.332 135.043 139.388 135.531C149.966 135.322 157.594 140.218 163.276 148.766C165.184 147.775 166.741 146.223 167.737 144.32C165.546 142.666 163.738 140.559 162.438 138.143C161.138 135.727 160.377 133.059 160.206 130.322C159.716 124.551 161.878 119.807 165.197 115.416C158.59 108.377 143.375 107.711 135.265 114.036H135.281ZM252.582 121.637C249.777 132.208 247.069 142.747 244.336 153.358L268.963 157.756C271.423 147.683 273.882 137.626 276.382 127.376C268.971 125.185 261.392 123.764 254.005 121.645C253.528 121.584 253.044 121.581 252.566 121.637H252.582ZM245.831 123.844C243.789 124.101 225.56 131.734 224.226 132.826C229.048 138.311 233.887 143.785 238.742 149.248C239.007 149.031 239.192 148.967 239.224 148.855C241.394 140.62 243.572 132.336 245.815 123.844H245.831ZM174.248 116.083C174.42 116.543 174.624 116.991 174.858 117.423C177.591 121.541 178.395 126.204 178.62 131.004C178.656 133.825 178.188 136.63 177.238 139.287C176.955 139.851 176.875 140.494 177.013 141.109C182.446 142.161 189.511 136.462 189.961 129.639C188.482 129.342 187.261 128.684 186.987 126.983C186.666 124.952 188.096 124.197 189.616 123.547C188.386 119.855 186.175 117.126 182.575 115.954C179.87 114.985 176.905 115.031 174.232 116.083H174.248ZM170.775 139.111C171.769 137.353 172.354 135.394 172.487 133.38C173.054 129.041 172.163 124.638 169.956 120.858C169.756 120.599 169.524 120.367 169.264 120.168C166.987 122.895 165.869 126.404 166.148 129.943C166.428 133.483 168.083 136.773 170.759 139.111H170.775ZM143.737 161.047C145.979 162.973 148.165 162.845 149.363 160.702C148.423 160.702 147.522 160.758 146.638 160.702C145.754 160.646 144.629 160.292 143.721 161.047H143.737ZM124.905 127.231C124.406 128.323 123.964 129.366 123.474 130.394C123.385 130.541 123.327 130.704 123.304 130.874C123.28 131.044 123.292 131.217 123.338 131.382C123.384 131.548 123.463 131.702 123.571 131.836C123.678 131.969 123.812 132.08 123.964 132.16C125.965 130.924 126.311 129.142 124.888 127.231H124.905Z" fill="#3558A2"/>
<path d="M74.5721 139.084C71.6639 137.265 68.9485 135.534 66.2411 133.923C65.2536 133.501 64.2454 133.129 63.2204 132.809C62.7834 132.62 62.3043 132.551 61.8316 132.607C61.359 132.664 60.9096 132.844 60.5292 133.129C59.0108 134.099 57.5567 135.181 56.0785 136.223C55.7893 136.423 55.5322 136.672 55.2751 136.888C54.2388 136.391 53.2748 135.918 52.3027 135.469C51.7738 135.221 51.1909 135.108 50.6071 135.142C50.0233 135.175 49.4573 135.354 48.9606 135.662C48.0769 136.159 47.2254 136.712 46.3577 137.265C45.8034 137.601 45.2411 137.922 44.751 138.195C42.5016 137.193 40.3888 136.255 38.2839 135.301C37.5922 134.981 36.8325 134.834 36.0708 134.873C35.3092 134.912 34.5687 135.136 33.9136 135.526C32.8933 136.071 31.8328 136.527 30.6358 137.129L24 132.32C24.2811 131.312 24.8115 130.392 25.5425 129.643C26.1209 128.905 26.7876 128.232 27.5187 127.414L29.3183 127.334C32.6523 127.174 35.9943 127.03 39.3283 126.853C41.0635 126.765 42.7908 126.517 44.526 126.509C46.2613 126.501 47.8038 126.316 49.4587 126.324C51.8688 126.324 54.279 126.1 56.6248 125.972L64.2327 125.547L71.8325 125.122C74.9496 124.962 78.0667 124.818 81.1838 124.649C83.7947 124.521 86.4057 124.369 89.0086 124.233C90.1684 124.237 91.3013 123.884 92.252 123.221C93.2026 122.558 93.9246 121.618 94.3189 120.53C96.7773 114.919 101.3 111.625 107.044 109.91C109.187 109.217 111.438 108.916 113.688 109.02C117.464 109.173 121.146 110.234 124.421 112.114C125.213 112.477 125.874 113.073 126.317 113.821C126.602 114.243 126.978 114.597 127.418 114.855C130.264 116.973 132.309 119.99 133.218 123.415C134.308 127.106 134.258 131.038 133.073 134.7C132.891 135.393 132.541 136.031 132.055 136.559C131.57 137.087 130.962 137.489 130.286 137.73C128.494 138.459 126.807 139.453 124.959 140.383L124.293 138.876C124.595 138.646 124.928 138.457 125.281 138.315C129.217 137.393 132.294 132.336 131.708 128.328C131.314 125.731 130.559 123.215 127.739 122.085C126.317 120.482 124.293 120.722 122.485 120.482C120.936 120.393 119.415 120.917 118.251 121.94C117.033 122.8 116.035 123.934 115.337 125.249C114.639 126.565 114.262 128.026 114.234 129.514C114.135 130.92 114.375 132.329 114.934 133.623C115.494 134.917 116.355 136.059 117.448 136.952C117.821 137.277 118.068 137.723 118.147 138.211C118.396 140.615 119.384 142.795 120.236 145.079C120.123 145.228 120.024 145.386 119.938 145.552C119.135 147.372 117.528 147.748 115.857 147.877C111.129 148.376 106.365 147.351 102.264 144.951C99.9279 143.602 97.9046 141.775 96.3274 139.589C95.9734 139.002 95.4991 138.497 94.9356 138.106C94.3721 137.715 93.7321 137.448 93.0576 137.321C91.9248 137.129 90.8162 136.784 89.6835 136.584C87.748 136.37 85.8272 136.041 83.9313 135.598C81.7301 134.932 79.9145 135.598 78.1711 136.672C76.934 137.353 75.7851 138.219 74.5721 139.084Z" fill="#979FBB"/>
<path d="M87.5454 188.407C86.1449 187.822 84.9284 187.359 83.76 186.823C81.087 185.596 78.9581 185.563 76.5012 188.139C75.9009 188.773 75.2448 189.358 74.5885 190L63 187.188C63.0263 186.823 63.1158 186.466 63.2642 186.132C63.906 185.244 64.5953 184.392 65.3289 183.58C66.8872 181.64 69.0393 180.285 71.4433 179.729C77.8189 178.285 84.0915 176.406 90.2184 174.106C98.0214 171.31 105.808 168.499 113.427 165.167C115.732 164.167 118.093 163.306 120.406 162.388C120.79 160.113 120.406 157.975 121.054 155.887C121.693 153.909 122.529 152.003 123.551 150.199C124.239 150.906 124.944 151.637 125.672 152.352C128.193 154.893 131.219 156.857 134.547 158.114C135.128 158.289 135.647 158.628 136.045 159.091C136.443 159.554 136.703 160.123 136.796 160.73C137.107 162.013 137.665 163.222 138.437 164.285C139.21 165.348 140.182 166.246 141.298 166.926C142.414 167.605 143.652 168.054 144.94 168.246C146.227 168.438 147.54 168.369 148.801 168.044C152.85 166.906 154.931 164.127 155.852 160.259C156.016 159.171 155.934 158.059 155.611 157.008C155.117 154.706 153.938 152.612 152.234 151.011C150.511 149.413 148.253 148.541 145.92 148.574C144.723 148.528 143.531 148.737 142.42 149.19C141.308 149.642 140.303 150.326 139.469 151.198C138.925 151.783 138.429 152.409 137.869 153.059C133.635 151.369 130.13 149.086 127.537 145.258C129.281 143.615 131.406 142.446 133.715 141.862C135.574 141.281 137.509 140.991 139.453 141C145.656 141.212 151.282 143.121 155.411 148.086C158.365 151.637 160.157 155.733 159.989 160.568C159.971 162.984 159.604 165.385 158.901 167.694C157.644 171.247 155.37 174.337 152.37 176.568C148.739 179.414 144.228 180.854 139.645 180.631C138.007 180.543 136.389 180.214 134.843 179.656C133.011 178.989 131.234 178.173 129.529 177.218C129.065 176.928 128.542 176.746 128 176.685C127.457 176.625 126.908 176.687 126.392 176.868C124.632 177.616 122.607 177.778 121.166 179.306C120.576 179.727 119.932 180.066 119.254 180.314C118.679 180.63 118.029 180.779 117.377 180.743C116.724 180.707 116.094 180.488 115.556 180.111C113.913 179.206 112.243 178.358 110.546 177.567C108.633 176.665 106.721 177.072 105.304 179.192C104.616 180.216 103.896 181.232 103.295 182.313C103.234 182.48 103.138 182.633 103.016 182.761C102.893 182.89 102.745 182.991 102.582 183.059C102.419 183.127 102.244 183.16 102.068 183.156C101.892 183.152 101.719 183.111 101.559 183.036C100.39 182.687 99.1579 182.565 97.9814 182.223C97.0541 181.899 96.0531 181.859 95.1036 182.109C94.1541 182.359 93.2983 182.888 92.6434 183.629C91.0508 185.319 89.2981 186.766 87.5454 188.407Z" fill="#CBCFDD"/>
<path d="M252.235 122.043C252.706 121.986 253.183 121.986 253.655 122.043C261.031 124.153 268.6 125.567 276 127.749C273.504 137.955 271.048 147.97 268.592 158L244 153.62C246.729 143.062 249.434 132.569 252.235 122.043ZM269.419 139.226C269.447 138.72 269.447 138.213 269.419 137.708C269.261 135.909 268.624 134.184 267.573 132.712C267.198 132.216 266.669 131.857 266.069 131.689C265.468 131.521 264.829 131.555 264.25 131.785C263.693 131.969 263.214 132.334 262.89 132.821C262.565 133.307 262.414 133.888 262.46 134.471C262.538 135.252 262.733 136.017 263.038 136.741C263.889 139.042 263.359 143.03 260.582 144.589C260.197 144.795 259.831 145.036 259.49 145.308C259.041 145.732 258.717 146.271 258.553 146.865C258.389 147.46 258.391 148.088 258.559 148.681C258.798 149.211 259.195 149.654 259.696 149.951C260.198 150.247 260.779 150.381 261.36 150.335C262.149 150.301 262.92 150.091 263.616 149.72C267.516 147.338 269.234 143.678 269.419 139.226V139.226ZM251.488 144.021C251.448 144.472 251.5 144.926 251.641 145.356C251.782 145.786 252.01 146.183 252.311 146.523C252.611 146.862 252.978 147.137 253.388 147.331C253.799 147.525 254.245 147.633 254.699 147.65C255.486 147.61 256.227 147.27 256.77 146.701C257.313 146.132 257.616 145.378 257.616 144.593C257.616 143.808 257.313 143.053 256.77 142.484C256.227 141.916 255.486 141.576 254.699 141.536C252.885 141.544 251.593 142.431 251.488 144.006V144.021ZM257.588 138.139C259.258 138.139 260.397 136.916 260.453 135.046C260.453 133.743 258.937 132.185 257.516 132.097C256.095 132.009 254.635 133.568 254.594 135.054C254.562 136.397 256.151 138.403 257.588 138.123V138.139Z" fill="white"/>
<path d="M246 124C243.717 132.357 241.498 140.485 239.272 148.613C239.272 148.724 239.051 148.787 238.781 149C233.87 143.613 228.943 138.226 224 132.839C225.359 131.765 243.921 124.253 246 124Z" fill="#CBCFDD"/>
<path d="M124.953 127C126.675 128.938 126.257 130.746 123.814 132C123.63 131.919 123.468 131.807 123.338 131.671C123.207 131.535 123.111 131.379 123.056 131.211C123 131.044 122.986 130.868 123.014 130.696C123.043 130.523 123.113 130.357 123.22 130.208C123.814 129.182 124.349 128.107 124.953 127Z" fill="white"/>
<path d="M269.983 138.74C269.798 143.248 268.083 146.948 264.179 149.368C263.483 149.744 262.714 149.957 261.926 149.991C261.345 150.037 260.765 149.901 260.264 149.601C259.763 149.301 259.366 148.852 259.128 148.316C258.96 147.715 258.957 147.079 259.121 146.477C259.285 145.875 259.609 145.329 260.058 144.9C260.398 144.624 260.763 144.38 261.148 144.171C263.922 142.593 264.451 138.554 263.601 136.222C263.297 135.489 263.102 134.715 263.024 133.924C262.978 133.334 263.129 132.745 263.453 132.252C263.777 131.759 264.256 131.39 264.812 131.204C265.39 130.971 266.029 130.937 266.629 131.106C267.229 131.276 267.756 131.64 268.131 132.143C269.181 133.633 269.818 135.38 269.975 137.202C270.005 137.714 270.008 138.227 269.983 138.74V138.74Z" fill="#3558A2"/>
<path d="M252.014 143.439C252.117 141.871 253.361 141.024 255.12 141C255.897 141.039 256.629 141.373 257.165 141.931C257.701 142.489 258 143.23 258 144C258 144.77 257.701 145.511 257.165 146.069C256.629 146.627 255.897 146.961 255.12 147C254.677 146.975 254.244 146.863 253.846 146.669C253.448 146.475 253.093 146.204 252.803 145.872C252.513 145.54 252.294 145.153 252.158 144.735C252.023 144.317 251.973 143.876 252.014 143.439Z" fill="#3558A2"/>
<path d="M258.066 137.974C256.595 138.25 254.968 136.268 255 134.925C255 133.456 256.595 131.931 257.992 132.002C259.389 132.073 261.032 133.63 261 134.917C260.942 136.765 259.775 137.982 258.066 137.974Z" fill="#3558A2"/>
</svg>
