<svg width="300" height="300" viewBox="0 0 300 300" fill="none" xmlns="http://www.w3.org/2000/svg">
<path d="M239.124 126.407C240.124 131.597 241.124 136.647 242.024 141.707C242.246 143.03 242.379 144.366 242.424 145.707C242.527 146.58 242.327 147.462 241.858 148.205C241.388 148.948 240.677 149.506 239.844 149.787C237.393 150.711 234.863 151.408 232.284 151.867C229.234 152.337 227.394 151.077 226.664 148.007C225.574 143.437 224.784 138.787 223.874 134.167C223.624 132.917 223.484 131.657 223.164 130.427C223.074 130.057 222.534 129.797 222.164 129.487L221.644 129.717C221.874 131.097 222.174 132.477 222.344 133.867C222.764 137.377 223.234 140.867 223.474 144.407C223.674 147.297 222.404 149.097 219.594 149.897C217.674 150.423 215.702 150.741 213.714 150.847C210.904 151.007 209.294 149.767 208.614 146.987C207.614 142.987 206.784 139.037 205.874 135.067C205.714 134.377 205.484 133.707 205.244 132.847L193.944 135.037C187.544 136.287 181.134 137.567 174.724 138.817C174.235 138.835 173.761 138.986 173.352 139.254C172.943 139.521 172.615 139.896 172.404 140.337C168.544 148.257 166.534 150.147 158.404 153.787C157.853 158.769 156.02 163.524 153.084 167.587C153.704 168.257 154.294 168.927 154.914 169.587L194.824 210.587C195.469 211.209 196.068 211.877 196.614 212.587C197.934 214.437 197.874 216.157 196.524 217.527C195.82 218.188 194.89 218.556 193.924 218.556C192.958 218.556 192.028 218.188 191.324 217.527C190.178 216.494 189.09 215.399 188.064 214.247C187.696 213.778 187.362 213.284 187.064 212.767C185.954 213.567 185.154 214.107 184.404 214.707C181.284 217.207 178.194 219.707 175.074 222.227C171.754 224.867 169.964 224.777 167.074 221.777C164.734 219.364 162.437 216.91 160.184 214.417C157.524 211.487 157.704 209.277 160.754 206.817C163.644 204.477 166.584 202.197 169.494 199.877C170.264 199.267 171.014 198.637 172.024 197.797C164.024 189.517 156.084 181.417 148.234 173.367C145.964 174.747 143.954 176.117 141.804 177.237C138.53 179.066 134.779 179.861 131.044 179.517C128.333 179.312 125.743 178.31 123.599 176.637C121.455 174.965 119.853 172.697 118.994 170.117L113.664 169.467C112.844 170.677 112.134 171.837 111.314 172.907C109.624 175.17 107.469 177.045 104.993 178.406C102.518 179.767 99.7804 180.582 96.964 180.797C96.2931 180.81 95.6379 181.002 95.0664 181.354C94.4949 181.706 94.0279 182.204 93.714 182.797C91.104 187.267 88.434 191.697 85.884 196.187C79.6507 207.147 73.444 218.124 67.264 229.117C66.7896 229.998 66.262 230.85 65.6841 231.667C65.1656 232.421 64.4279 232.996 63.571 233.317C62.7142 233.637 61.7796 233.686 60.894 233.457C60.0474 233.248 59.2895 232.775 58.7302 232.106C58.1709 231.437 57.8395 230.607 57.784 229.737C57.424 226.677 57.124 223.607 56.784 220.557C56.444 217.507 56.0241 214.247 55.4141 211.137C55.1721 209.976 55.2571 208.77 55.6597 207.654C56.0622 206.539 56.7664 205.556 57.694 204.817C59.014 203.597 60.444 202.477 61.864 201.287C61.304 199.367 60.724 197.577 60.284 195.747C59.504 192.507 60.284 190.607 63.154 188.857C64.774 187.857 66.464 186.987 68.154 186.047C69.014 185.567 69.854 185.047 70.774 184.527C70.604 183.217 70.474 182.057 70.314 180.897C70.0646 179.592 70.2469 178.241 70.8332 177.048C71.4196 175.856 72.3781 174.887 73.564 174.287C74.814 173.567 75.954 172.677 77.274 171.777C74.4228 167.332 73.4282 161.947 74.504 156.777C75.5548 151.79 78.4019 147.362 82.504 144.337C81.414 140.537 80.004 136.887 79.334 133.097C75.964 114.217 80.234 97.567 94.634 84.287C101.725 77.6315 111.152 74.0355 120.874 74.2771C130.874 74.4371 139.584 78.277 146.874 85.207C153.738 91.7756 158.493 100.238 160.534 109.517C160.63 110.268 160.901 110.985 161.327 111.611C161.753 112.237 162.321 112.753 162.984 113.117C165.713 114.604 168.006 116.78 169.634 119.427C169.949 120.069 170.489 120.572 171.151 120.842C171.813 121.111 172.551 121.127 173.224 120.887C181.564 119.14 189.897 117.43 198.224 115.757L240.884 107.177C244.324 106.487 247.074 107.987 248.034 111.347C248.83 114.228 249.438 117.157 249.854 120.117C250.214 122.557 248.854 124.247 246.324 124.797C244.554 125.187 242.754 125.457 240.984 125.797C240.414 125.947 239.874 126.187 239.124 126.407ZM152.774 109.487C150.894 100.877 144.184 90.057 133.774 84.977C129.612 82.7981 124.987 81.65 120.289 81.6292C115.59 81.6083 110.956 82.7152 106.774 84.857C101.359 87.4975 96.7438 91.5324 93.404 96.547C86.404 106.787 84.134 118.097 86.084 130.257C86.5951 134.042 87.7662 137.707 89.5441 141.087C96.2941 139.727 102.434 140.877 107.834 145.087C113.234 149.297 115.674 155.297 115.474 162.337C116.404 162.337 117.024 162.337 117.654 162.337C117.794 162.337 117.934 162.147 118.114 162.017C119.644 153.017 124.624 146.297 131.934 141.227C126.024 126.567 134.644 110.197 152.774 109.487ZM64.074 218.487L64.574 218.627C64.864 218.177 65.1541 217.737 65.4241 217.277C71.0974 207.277 76.7641 197.247 82.4241 187.187C84.4241 183.657 86.424 180.107 88.344 176.557C89.774 173.967 91.654 172.917 94.344 173.277C96.6545 173.548 98.9937 173.131 101.068 172.078C103.142 171.025 104.86 169.383 106.004 167.357L100.054 164.357C96.5541 166.277 94.644 166.357 92.594 164.677C90.544 162.997 90.164 160.827 91.364 157.277L86.2941 150.857C84.4563 152.084 83.0556 153.863 82.2941 155.937C80.5541 160.527 81.0541 164.807 84.2941 168.637C86.5941 171.317 86.534 173.637 84.114 175.757C82.7564 176.95 81.3013 178.027 79.764 178.977C78.284 179.867 77.354 180.837 77.854 182.677C77.964 183.107 77.8541 183.587 77.9241 184.037C78.4441 187.517 76.784 189.747 73.844 191.277C72.314 192.067 70.8441 192.897 69.2941 193.747C68.6941 194.087 68.1641 194.547 67.5541 194.977C68.1141 196.497 68.554 197.867 69.134 199.207C69.6882 200.369 69.8276 201.685 69.5292 202.937C69.2308 204.189 68.5125 205.3 67.494 206.087C66.274 207.167 64.944 208.137 63.764 209.257C63.4905 209.469 63.2613 209.732 63.0897 210.032C62.9181 210.333 62.8075 210.664 62.764 211.007C63.124 213.577 63.634 216.057 64.074 218.537V218.487ZM154.494 117.747C148.434 115.817 141.304 119.447 138.734 125.667C137.302 129.187 137.191 133.107 138.42 136.703C139.649 140.299 142.137 143.33 145.424 145.237C148.457 146.951 152.019 147.48 155.419 146.721C158.82 145.962 161.818 143.969 163.834 141.127C168.004 135.307 166.534 125.377 162.064 122.317C161.784 125.797 161.504 129.117 161.234 132.437C161.038 134.395 160.201 136.234 158.851 137.666C157.502 139.099 155.717 140.045 153.774 140.357C151.885 140.731 149.926 140.466 148.205 139.604C146.483 138.742 145.097 137.333 144.264 135.597C142.404 131.677 144.084 126.237 147.724 124.837C149.884 124.007 152.154 123.477 154.494 122.767V117.747ZM241.284 114.607L173.724 128.267C173.692 128.903 173.692 129.541 173.724 130.177C173.821 130.589 173.965 130.988 174.154 131.367L241.964 118.007L241.284 114.607ZM126.104 161.877C132.478 160.509 138.277 157.213 142.714 152.437L136.184 147.587C131.044 150.367 126.714 156.417 126.104 161.917V161.877ZM150.044 155.877C143.852 162.665 135.708 167.367 126.734 169.337C127.653 170.488 128.889 171.345 130.289 171.802C131.69 172.259 133.193 172.295 134.614 171.907C140.054 170.757 144.054 167.467 147.204 163.047C148.857 161.021 149.849 158.535 150.044 155.927V155.877ZM176.904 203.377L172.234 207.047L167.154 211.047L171.434 215.597L181.534 207.467L176.904 203.377ZM107.624 159.797C108.014 152.907 100.284 146.587 93.624 148.277C97.1458 153.341 101.988 157.342 107.624 159.847V159.797ZM233.204 144.257C234.834 143.257 234.884 143.257 234.684 142.067C234.384 140.297 234.004 138.537 233.684 136.767C233.164 134.117 232.624 131.477 232.104 128.827C231.914 127.887 231.434 127.647 230.314 128.227C231.224 133.497 232.184 138.747 233.204 144.307V144.257ZM213.144 131.057C213.044 134.527 214.734 141.527 215.864 142.787C215.864 139.937 214.864 132.737 214.254 131.637C214.114 131.447 213.684 131.377 213.144 131.107V131.057Z" fill="#3558A2"/>
<path d="M59.3337 96.2177C59.8982 94.1064 60.6031 92.0352 61.4437 90.0178C63.7697 84.7778 67.3522 80.1924 71.8737 76.6678C73.1017 75.7229 74.4461 74.9399 75.8737 74.3378C76.6627 73.9578 77.5667 73.8921 78.4023 74.1539C79.2379 74.4157 79.9426 74.9855 80.3737 75.7478C81.2637 77.2978 80.9038 78.9178 79.3038 80.3278C78.7638 80.7978 78.1437 81.1878 77.5637 81.6278C72.1937 85.7878 68.1737 90.8678 66.7137 97.6277C66.6455 97.8923 66.562 98.1527 66.4637 98.4077C65.6837 100.638 64.1637 101.658 62.2037 101.268C60.3737 100.968 59.2837 99.4077 59.3337 96.2177Z" fill="#3558A2"/>
<path d="M50.0044 85.8664C50.1044 85.4364 50.2744 84.4464 50.5744 83.5164C52.3844 78.0164 54.8844 72.9364 59.7144 69.4064C60.8787 68.5494 62.1451 67.8407 63.4844 67.2964C64.1515 66.9868 64.9052 66.9173 65.6177 67.0995C66.3302 67.2817 66.9579 67.7045 67.3944 68.2964C67.8813 68.9034 68.1466 69.6583 68.1466 70.4364C68.1466 71.2145 67.8813 71.9694 67.3944 72.5764C66.913 73.2297 66.3125 73.7861 65.6244 74.2164C61.3544 76.8564 59.2944 81.0364 57.6244 85.5164C57.3444 86.2764 57.2344 87.0964 56.9544 87.8564C56.7034 88.738 56.1334 89.4947 55.3551 89.979C54.5769 90.4633 53.6462 90.6406 52.7444 90.4764C50.9344 90.1264 49.9244 88.6664 50.0044 85.8664Z" fill="#3558A2"/>
<path d="M64.0745 218.536C63.6345 216.056 63.0745 213.536 62.8145 211.076C62.8579 210.733 62.9687 210.401 63.1403 210.101C63.3119 209.801 63.5409 209.537 63.8145 209.326C64.9945 208.206 66.3246 207.236 67.5446 206.156C68.5631 205.369 69.2813 204.257 69.5797 203.005C69.8781 201.754 69.7387 200.437 69.1846 199.276C68.6446 197.936 68.1845 196.566 67.6045 195.046C68.2145 194.616 68.7445 194.156 69.3445 193.816C70.8445 192.966 72.3445 192.136 73.8945 191.346C76.8345 189.816 78.4945 187.586 77.9745 184.106C77.9045 183.656 77.9745 183.176 77.9045 182.746C77.4045 180.906 78.3345 179.936 79.8145 179.046C81.3518 178.096 82.807 177.019 84.1646 175.826C86.5846 173.736 86.6445 171.386 84.3445 168.706C81.0645 164.876 80.5645 160.596 82.3445 156.006C83.106 153.932 84.5067 152.153 86.3445 150.926L91.4146 157.346C90.2146 160.896 90.5745 163.066 92.6445 164.746C94.7145 166.426 96.6445 166.346 100.104 164.426L106.055 167.426C104.91 169.451 103.193 171.094 101.119 172.147C99.0443 173.2 96.7051 173.617 94.3945 173.346C91.7345 172.986 89.8545 174.036 88.3945 176.626C86.3945 180.176 84.4745 183.726 82.4745 187.256C76.8145 197.256 71.1478 207.286 65.4745 217.346C65.2045 217.806 64.9145 218.246 64.6245 218.696L64.0745 218.536Z" fill="#EAECF1"/>
<path d="M154.494 117.748V122.748C152.154 123.458 149.884 123.988 147.724 124.818C144.084 126.218 142.404 131.658 144.264 135.578C145.097 137.313 146.483 138.723 148.204 139.585C149.926 140.446 151.885 140.711 153.774 140.338C155.717 140.025 157.502 139.079 158.851 137.647C160.2 136.214 161.038 134.376 161.234 132.418C161.504 129.098 161.784 125.778 162.064 122.298C166.534 125.358 168.004 135.298 163.834 141.108C161.817 143.949 158.819 145.942 155.419 146.701C152.018 147.46 148.457 146.932 145.424 145.217C142.136 143.31 139.649 140.28 138.42 136.683C137.19 133.087 137.302 129.168 138.734 125.648C141.304 119.488 148.434 115.858 154.494 117.748Z" fill="#979FBB"/>
<path d="M241.285 114.646L241.985 118.046L174.175 131.406C173.986 131.028 173.842 130.628 173.745 130.216C173.713 129.58 173.713 128.943 173.745 128.306L241.285 114.646Z" fill="#979FBB"/>
<path d="M176.873 203.426L181.503 207.556L171.403 215.686L167.123 211.136L172.203 207.136L176.873 203.426Z" fill="white"/>
<path d="M107.623 159.848C101.993 157.356 97.1516 153.373 93.623 148.328C100.283 146.638 108.013 152.958 107.623 159.848Z" fill="#EAECF1"/>
<path d="M233.205 144.306C232.205 138.755 231.205 133.495 230.275 128.305C231.395 127.725 231.875 127.965 232.065 128.905C232.585 131.555 233.125 134.195 233.645 136.845C234.005 138.615 234.385 140.376 234.645 142.146C234.875 143.296 234.875 143.306 233.205 144.306Z" fill="#979FBB"/>
<path d="M213.145 131.105C213.685 131.375 214.145 131.445 214.255 131.685C214.885 132.785 215.875 139.986 215.865 142.836C214.735 141.576 213.045 134.575 213.145 131.105Z" fill="#979FBB"/>
</svg>
