<svg width="300" height="300" viewBox="0 0 300 300" fill="none" xmlns="http://www.w3.org/2000/svg">
<path d="M179.764 200.382C183.314 201.852 183.964 203.032 183.484 206.522C183.004 210.012 182.484 213.712 182.154 217.312C181.894 219.892 181.344 222.122 178.474 223.072C177.934 223.252 177.474 224.262 177.314 224.972C176.881 226.637 176.547 228.327 176.314 230.032C175.894 233.322 174.744 235.872 170.684 235.742C170.684 237.242 170.684 238.492 170.684 239.742C170.684 247.852 166.584 252.742 158.594 253.862C156.164 254.173 153.709 254.25 151.264 254.092C145.374 253.772 141.264 250.412 139.624 244.722C139.192 243.339 138.887 241.92 138.714 240.482C138.728 239.771 138.522 239.074 138.124 238.485C137.727 237.897 137.158 237.445 136.494 237.192C135.459 236.466 134.703 235.407 134.354 234.192C133.789 232.473 133.322 230.723 132.954 228.952C132.484 227.132 132.254 225.262 130.234 224.232C129.526 223.661 129.047 222.856 128.884 221.962C127.884 218.192 127.024 214.402 126.124 210.612C125.614 208.482 126.574 206.682 127.604 204.982C127.944 204.412 128.914 204.212 129.914 203.682C129.905 202.809 129.845 201.937 129.734 201.072C128.355 193.079 125.019 185.552 120.024 179.162C115.564 173.492 111.924 167.332 110.114 160.272C104.504 138.442 109.114 118.822 124.534 102.572C134.134 92.4516 146.604 87.9416 160.914 90.0316C175.604 92.1716 186.684 99.5916 193.274 112.902C196.164 118.578 197.896 124.773 198.368 131.125C198.841 137.478 198.044 143.86 196.024 149.902C193.484 157.902 189.344 165.152 185.694 172.632C183.616 176.753 181.792 180.997 180.234 185.342C178.664 190.222 179.314 195.272 179.764 200.382ZM166.274 201.192C167.114 201.192 167.554 201.282 168.004 201.282C171.884 201.282 172.544 200.522 172.184 196.612C171.492 189.984 172.634 183.294 175.484 177.272C178.584 170.822 181.894 164.472 185.054 158.042C189.864 148.232 192.554 138.092 190.444 127.042C187.194 110.042 175.854 100.042 161.444 97.4016C149.844 95.2816 139.604 98.7016 131.184 106.242C121.034 115.332 116.064 127.422 115.254 140.972C114.314 153.346 118.174 165.607 126.034 175.212C131.29 181.752 134.874 189.475 136.474 197.712C136.814 199.392 137.164 201.072 137.564 202.982L142.744 202.602C142.544 199.972 142.344 197.722 142.204 195.462C141.804 188.772 141.104 182.082 141.824 175.352C141.903 173.805 142.349 172.299 143.124 170.959C143.9 169.618 144.983 168.481 146.284 167.642C146.917 167.283 147.467 166.795 147.898 166.209C148.328 165.623 148.63 164.953 148.784 164.242C149.354 161.322 149.784 158.372 150.174 155.412C150.177 154.736 150.086 154.063 149.904 153.412C144.564 153.962 141.904 153.692 139.294 152.362C134.874 150.162 133.424 145.722 135.704 141.362C136.185 140.325 136.869 139.395 137.717 138.629C138.565 137.863 139.559 137.276 140.639 136.902C141.719 136.529 142.863 136.377 144.003 136.456C145.143 136.535 146.256 136.843 147.274 137.362C149.445 138.542 151.527 139.878 153.504 141.362C153.828 141.004 154.107 140.608 154.334 140.182C155.134 138.182 155.904 136.182 156.634 134.112C157.364 132.042 159.084 130.882 160.994 131.342C162.904 131.802 163.834 133.262 163.664 135.482C163.582 136.109 163.445 136.728 163.254 137.332C162.333 140.949 160.626 144.319 158.254 147.202C157.766 147.778 157.411 148.455 157.214 149.185C157.017 149.914 156.983 150.678 157.114 151.422C157.344 153.748 157.371 156.09 157.194 158.422C157.014 160.832 156.474 163.212 156.054 165.832C161.894 166.412 163.554 170.622 164.294 175.462C164.774 178.592 165.034 181.762 165.294 184.922C165.664 190.282 165.914 195.622 166.274 201.192ZM175.974 208.022L133.474 210.322L135.404 218.222L175.004 216.012C175.334 213.302 175.664 210.832 175.974 208.022ZM158.974 201.212C158.604 195.212 158.284 189.262 157.854 183.312C157.674 180.782 157.344 178.262 156.934 175.772C156.794 174.942 156.224 173.562 155.754 173.522C153.89 173.305 152.004 173.406 150.174 173.822C148.774 174.172 148.794 175.822 148.804 177.072C148.804 181.602 148.804 186.142 148.964 190.672C149.134 194.522 149.604 198.362 149.964 202.192L158.974 201.212ZM162.844 236.342L145.504 237.472C145.894 239.472 146.184 241.102 146.564 242.762C146.72 243.864 147.265 244.874 148.102 245.608C148.939 246.342 150.011 246.751 151.124 246.762C153.921 246.848 156.72 246.705 159.494 246.332C160.317 246.2 161.081 245.826 161.69 245.258C162.3 244.69 162.726 243.953 162.914 243.142C163.666 240.936 163.659 238.543 162.894 236.342H162.844ZM140.844 230.592L169.254 228.682L170.174 223.482L139.394 225.202L140.844 230.592ZM141.844 145.402C142.586 145.97 143.464 146.334 144.39 146.457C145.317 146.58 146.26 146.457 147.124 146.102C144.484 143.242 143.374 143.092 141.894 145.402H141.844Z" fill="#3558A2"/>
<path d="M138.102 71.8718C138.102 74.0818 137.252 75.4218 135.772 75.8718C135.034 76.0809 134.248 76.0492 133.529 75.7813C132.809 75.5134 132.194 75.0232 131.772 74.3818C131.476 73.9281 131.24 73.4372 131.073 72.9218C128.786 66.5418 126.506 60.1518 124.232 53.7518C123.949 52.9878 123.728 52.2018 123.573 51.4018C123.411 50.599 123.528 49.7653 123.905 49.0381C124.281 48.3109 124.894 47.7337 125.642 47.4018C126.404 47.085 127.254 47.051 128.039 47.3059C128.824 47.5608 129.492 48.0878 129.922 48.7918C130.266 49.3231 130.545 49.8938 130.752 50.4918C133.012 56.7918 135.256 63.0985 137.482 69.4118C137.762 70.3318 137.952 71.3118 138.102 71.8718Z" fill="#3558A2"/>
<path d="M170.893 51.4307L168.763 66.1707C168.553 67.6907 168.413 69.2307 168.093 70.7207C167.513 73.4107 166.003 74.6507 163.903 74.3307C161.803 74.0107 160.673 72.1407 161.033 69.5507C161.773 64.0907 162.583 58.6407 163.363 53.1907C163.563 51.8507 163.643 50.4907 163.953 49.1907C164.513 46.8607 166.043 45.7407 167.953 46.0507C169.733 46.3407 170.773 47.7807 170.813 50.0507C170.813 50.5007 170.813 50.9507 170.753 51.4107L170.893 51.4307Z" fill="#3558A2"/>
<path d="M192.313 84.7015C189.813 84.7815 188.243 83.1915 188.513 81.1015C188.633 80.2096 188.951 79.3556 189.443 78.6015C192.673 73.6016 195.952 68.6016 199.242 63.6016C199.774 62.7589 200.405 61.9833 201.122 61.2916C201.681 60.7482 202.407 60.4099 203.183 60.3318C203.958 60.2537 204.737 60.4404 205.392 60.8615C206.074 61.3236 206.576 62.0066 206.812 62.7954C207.049 63.5841 207.007 64.4304 206.693 65.1916C206.529 65.611 206.317 66.0103 206.063 66.3816C202.689 71.5282 199.309 76.6715 195.923 81.8115C194.963 83.2615 193.883 84.6215 192.313 84.7015Z" fill="#3558A2"/>
<path d="M109.662 84.862C109.662 87.972 106.792 89.722 104.482 88.292C103.652 87.7381 102.967 86.9941 102.482 86.122C99.6222 81.192 96.8223 76.222 94.0423 71.242C93.5901 70.4559 93.2693 69.6014 93.0923 68.712C92.9194 67.9962 92.9908 67.2432 93.2952 66.5727C93.5996 65.9023 94.1195 65.3529 94.7722 65.012C95.4061 64.6361 96.1503 64.4905 96.879 64.5999C97.6078 64.7092 98.2765 65.0667 98.7722 65.612C99.2326 66.0504 99.6238 66.5561 99.9323 67.112C102.972 72.4453 105.999 77.8086 109.012 83.202C109.279 83.7342 109.497 84.2899 109.662 84.862Z" fill="#3558A2"/>
<path d="M166.274 201.191C165.914 195.621 165.614 190.281 165.214 184.951C164.974 181.791 164.714 178.621 164.214 175.491C163.474 170.651 161.814 166.491 155.974 165.861C156.394 163.241 156.974 160.861 157.114 158.451C157.291 156.12 157.264 153.778 157.034 151.451C156.903 150.707 156.937 149.943 157.134 149.214C157.331 148.485 157.686 147.808 158.174 147.231C160.546 144.349 162.253 140.978 163.174 137.361C163.365 136.758 163.502 136.138 163.584 135.511C163.754 133.291 162.794 131.821 160.914 131.371C159.034 130.921 157.324 132.011 156.554 134.141C155.784 136.271 155.054 138.201 154.254 140.211C154.027 140.637 153.748 141.033 153.424 141.391C151.447 139.908 149.365 138.571 147.194 137.391C146.176 136.872 145.063 136.564 143.923 136.485C142.783 136.406 141.639 136.558 140.559 136.932C139.479 137.305 138.485 137.892 137.637 138.659C136.789 139.425 136.104 140.354 135.624 141.391C133.344 145.761 134.794 150.201 139.214 152.391C141.874 153.721 144.484 153.991 149.824 153.441C150.006 154.092 150.097 154.765 150.094 155.441C149.694 158.441 149.274 161.351 148.704 164.271C148.55 164.982 148.248 165.652 147.817 166.238C147.387 166.824 146.837 167.312 146.204 167.671C144.903 168.511 143.82 169.648 143.044 170.988C142.269 172.329 141.823 173.834 141.744 175.381C141.024 182.111 141.744 188.801 142.124 195.491C142.264 197.751 142.464 200.001 142.664 202.631L137.484 203.011C137.084 201.101 136.734 199.421 136.394 197.741C134.794 189.504 131.21 181.781 125.954 175.241C118.094 165.637 114.234 153.375 115.174 141.001C115.984 127.451 120.954 115.361 131.104 106.271C139.524 98.7309 149.764 95.2709 161.364 97.4309C175.824 100.061 187.164 110.111 190.364 127.071C192.474 138.151 189.784 148.291 184.974 158.071C181.814 164.501 178.504 170.851 175.404 177.301C172.554 183.324 171.412 190.014 172.104 196.641C172.464 200.551 171.804 201.301 167.924 201.311C167.554 201.281 167.114 201.231 166.274 201.191Z" fill="white"/>
<path d="M175.973 208.021C175.623 210.832 175.333 213.302 174.973 216.022L135.373 218.232L133.443 210.332L175.973 208.021Z" fill="#979FBB"/>
<path d="M159.023 201.212L150.023 202.212C149.683 198.382 149.213 194.542 149.023 190.692C148.833 186.162 148.893 181.622 148.863 177.092C148.863 175.802 148.863 174.192 150.233 173.842C152.063 173.427 153.95 173.326 155.813 173.542C156.283 173.542 156.813 174.962 156.993 175.792C157.403 178.282 157.733 180.792 157.913 183.332C158.333 189.262 158.663 195.212 159.023 201.212Z" fill="#CBCFDD"/>
<path d="M162.893 236.342C163.67 238.531 163.694 240.917 162.963 243.122C162.774 243.933 162.348 244.67 161.739 245.238C161.13 245.807 160.365 246.18 159.543 246.312C156.769 246.685 153.97 246.829 151.173 246.742C150.06 246.731 148.988 246.322 148.151 245.588C147.314 244.854 146.768 243.844 146.613 242.742C146.233 241.082 145.943 239.402 145.553 237.452L162.893 236.342Z" fill="#CBCFDD"/>
<path d="M140.893 230.592L139.443 225.202L170.223 223.482L169.303 228.682L140.893 230.592Z" fill="#979FBB"/>
<path d="M141.893 145.401C143.373 143.101 144.483 143.241 147.173 146.101C146.308 146.456 145.366 146.579 144.439 146.456C143.513 146.333 142.634 145.969 141.893 145.401V145.401Z" fill="white"/>
</svg>
