<svg width="300" height="300" viewBox="0 0 300 300" fill="none" xmlns="http://www.w3.org/2000/svg">
<path d="M91.8116 119.004C92.0416 117.144 92.2417 115.354 92.5017 113.574C95.1217 95.9545 104.052 82.6545 119.882 74.3345C129.746 69.0217 141.248 67.6151 152.102 70.3945C172.482 75.3945 184.342 88.8145 189.892 108.504C190.602 111.024 190.562 111.094 193.172 110.914C197.872 110.574 202.582 110.224 207.272 109.764C211.002 109.384 212.622 109.764 214.052 114.644C214.737 117.365 215.281 120.118 215.682 122.894C218.002 135.914 220.312 148.931 222.612 161.944C224.692 173.711 226.762 185.481 228.822 197.254C229.262 199.754 229.722 202.254 230.172 204.734C230.252 205.184 230.362 205.624 230.412 206.074C230.982 211.294 229.782 212.664 224.512 213.274C213.162 214.604 201.822 216.034 190.512 217.414L158.092 221.354L124.582 225.354L89.1317 229.614C88.1317 229.734 87.1316 229.984 86.2016 230.164C83.4016 230.674 81.5517 229.384 81.2017 226.594C80.0717 217.414 79.0117 208.244 77.8817 199.074C76.8817 190.984 75.7816 182.904 74.7816 174.814C73.7816 166.724 72.8817 158.624 71.9017 150.524C71.1017 143.964 70.2316 137.404 69.4316 130.844C69.1936 129.047 69.0501 127.237 69.0017 125.424C68.9517 122.864 70.0016 121.514 72.5416 121.054C75.0816 120.594 77.5417 120.414 80.1017 120.204C83.1717 119.944 86.2617 119.794 89.3317 119.544C90.1682 119.414 90.9963 119.233 91.8116 119.004V119.004ZM88.0917 222.304L221.092 206.194C221.535 206.113 221.97 205.993 222.392 205.834C222.474 205.805 222.545 205.749 222.592 205.674C222.592 205.604 222.662 205.504 222.772 205.284C217.592 176.104 212.392 146.804 207.132 117.194L76.4917 128.094C80.3417 159.494 84.2217 190.764 88.0917 222.304ZM183.022 111.784C181.022 94.2545 162.742 74.7845 139.692 76.0645C113.122 77.5545 98.8616 101.564 99.2916 119.064C103.292 119.304 107.292 118.464 111.392 118.314C111.482 117.224 111.552 116.424 111.622 115.624C112.219 108.646 115.202 102.086 120.069 97.0484C124.935 92.0108 131.388 88.803 138.342 87.9645C145.363 87.2016 152.424 89.0019 158.224 93.0336C164.023 97.0652 168.171 103.057 169.902 109.904L170.702 112.904L181.192 112.024C181.742 111.954 182.272 111.874 183.022 111.784V111.784ZM162.812 113.424C163.232 108.424 157.812 100.044 150.742 96.9345C146.693 95.1552 142.213 94.5972 137.852 95.3292C133.49 96.0611 129.438 98.051 126.192 101.054C121.322 105.624 117.962 113.594 119.272 117.004L162.812 113.424Z" fill="#3558A2"/>
<path d="M88.0917 222.303C84.2217 190.763 80.3717 159.493 76.5117 128.093L207.152 117.193C212.412 146.803 217.612 176.103 222.792 205.283C222.682 205.503 222.662 205.603 222.612 205.673C222.565 205.748 222.494 205.804 222.412 205.833C221.99 205.992 221.555 206.112 221.112 206.193L88.0917 222.303ZM161.662 163.663C163.283 161.662 164.433 159.321 165.025 156.814C165.617 154.307 165.636 151.699 165.082 149.183C163.752 142.183 159.222 137.043 152.222 135.763C149.546 135.32 146.808 135.418 144.172 136.053C137.172 137.713 132.032 142.053 130.952 149.803C130.453 152.724 130.634 155.721 131.482 158.56C132.33 161.4 133.822 164.005 135.842 166.173C136.353 166.67 136.744 167.277 136.987 167.947C137.229 168.618 137.316 169.334 137.242 170.043C136.932 173.753 136.632 177.463 136.542 181.173C136.452 185.063 136.432 188.963 136.712 192.833C136.912 195.553 138.802 197.023 141.492 197.043C142.76 197.063 144.027 196.925 145.262 196.633C149.262 195.633 153.262 194.463 157.262 193.393C160.322 192.583 163.412 191.903 166.452 191.013C167.009 190.9 167.537 190.671 168.001 190.342C168.465 190.013 168.856 189.591 169.148 189.103C169.439 188.614 169.626 188.07 169.696 187.506C169.765 186.941 169.716 186.368 169.552 185.823C169.228 184.506 168.813 183.213 168.312 181.953C166.112 175.847 163.895 169.75 161.662 163.663ZM100.462 203.003C99.9644 202.994 99.4704 203.085 99.0093 203.271C98.5481 203.457 98.1293 203.735 97.7781 204.087C97.4269 204.439 97.1506 204.859 96.9656 205.32C96.7806 205.782 96.6908 206.276 96.7017 206.773C96.6951 207.269 96.7865 207.761 96.9706 208.221C97.1547 208.681 97.4279 209.1 97.7745 209.454C98.1212 209.808 98.5344 210.09 98.9904 210.284C99.4464 210.478 99.9362 210.579 100.432 210.583C100.929 210.602 101.426 210.517 101.889 210.334C102.352 210.151 102.773 209.875 103.124 209.522C103.476 209.168 103.75 208.746 103.93 208.282C104.111 207.818 104.193 207.321 104.172 206.823C104.188 206.327 104.104 205.832 103.924 205.368C103.745 204.905 103.474 204.482 103.128 204.126C102.782 203.769 102.367 203.486 101.909 203.293C101.451 203.1 100.959 203.002 100.462 203.003V203.003ZM197.512 132.843C198.474 132.87 199.408 132.513 200.108 131.851C200.807 131.189 201.215 130.276 201.242 129.313C201.268 128.351 200.911 127.417 200.249 126.717C199.587 126.018 198.674 125.61 197.712 125.583C196.759 125.59 195.845 125.962 195.159 126.622C194.472 127.283 194.065 128.182 194.022 129.133C194.003 129.607 194.079 130.08 194.245 130.524C194.411 130.968 194.664 131.375 194.989 131.72C195.314 132.066 195.704 132.343 196.137 132.536C196.57 132.728 197.038 132.833 197.512 132.843V132.843ZM209.112 198.583C209.587 198.593 210.059 198.507 210.501 198.332C210.943 198.157 211.345 197.896 211.685 197.563C212.025 197.231 212.295 196.834 212.48 196.397C212.665 195.959 212.76 195.489 212.762 195.013C212.76 194.1 212.403 193.224 211.766 192.569C211.13 191.914 210.264 191.532 209.352 191.503C208.877 191.471 208.401 191.534 207.951 191.688C207.501 191.842 207.086 192.085 206.731 192.401C206.376 192.718 206.088 193.103 205.884 193.532C205.68 193.962 205.563 194.428 205.542 194.903C205.526 195.868 205.892 196.8 206.561 197.495C207.23 198.19 208.147 198.592 209.112 198.613V198.583ZM96.3417 140.203C96.3463 139.744 96.2603 139.288 96.0886 138.861C95.917 138.435 95.6631 138.046 95.3413 137.718C95.0196 137.39 94.6363 137.128 94.2134 136.948C93.7905 136.768 93.3363 136.673 92.8767 136.668C92.4171 136.664 91.9611 136.75 91.5347 136.921C91.1083 137.093 90.7199 137.347 90.3916 137.669C90.0633 137.99 89.8016 138.374 89.6215 138.797C89.4413 139.22 89.3463 139.674 89.3417 140.133C89.3093 141.044 89.6397 141.931 90.2603 142.598C90.8808 143.266 91.741 143.659 92.6517 143.693C93.1297 143.734 93.6108 143.674 94.0637 143.516C94.5166 143.358 94.931 143.106 95.2795 142.776C95.6281 142.446 95.9029 142.047 96.0859 141.603C96.269 141.16 96.3561 140.683 96.3417 140.203V140.203Z" fill="#EAECF1"/>
<path d="M183.021 111.785C182.271 111.875 181.741 111.955 181.211 112.005L170.721 112.885L169.921 109.885C168.185 103.037 164.033 97.0475 158.23 93.0194C152.427 88.9913 145.363 87.1963 138.341 87.9651C131.388 88.8032 124.937 92.0096 120.071 97.0451C115.204 102.081 112.221 108.638 111.621 115.615C111.551 116.415 111.481 117.215 111.391 118.305C107.281 118.455 103.321 119.305 99.2907 119.055C98.8607 101.575 113.121 77.5651 139.691 76.0551C162.741 74.7851 180.991 94.2551 183.021 111.785Z" fill="#979FBB"/>
<path d="M161.66 163.665C163.88 169.731 166.11 175.828 168.35 181.955C168.852 183.215 169.266 184.508 169.59 185.825C169.754 186.369 169.803 186.942 169.734 187.507C169.664 188.072 169.478 188.616 169.186 189.104C168.894 189.593 168.504 190.015 168.04 190.344C167.575 190.673 167.048 190.901 166.49 191.015C163.49 191.905 160.36 192.585 157.3 193.395C153.3 194.465 149.3 195.615 145.3 196.635C144.065 196.926 142.799 197.064 141.53 197.045C138.84 197.045 136.95 195.555 136.75 192.835C136.47 188.965 136.49 185.065 136.58 181.175C136.67 177.465 136.97 173.755 137.28 170.045C137.355 169.336 137.268 168.619 137.025 167.949C136.783 167.278 136.391 166.672 135.88 166.175C133.861 164.006 132.369 161.401 131.521 158.562C130.672 155.722 130.491 152.726 130.99 149.805C132.07 142.055 137.22 137.715 144.21 136.055C146.847 135.42 149.584 135.321 152.26 135.765C159.26 137.045 163.79 142.175 165.12 149.185C165.669 151.703 165.643 154.313 165.044 156.82C164.445 159.327 163.288 161.667 161.66 163.665V163.665ZM161.31 184.665C160.98 183.615 160.8 183.025 160.6 182.435C158.51 176.555 156.45 170.665 154.31 164.805C153.89 163.854 153.778 162.796 153.988 161.778C154.197 160.76 154.719 159.833 155.48 159.125C156.679 157.906 157.52 156.38 157.91 154.715C159.26 147.315 154.09 141.945 146.73 143.025C142.92 143.585 139.65 145.505 138.65 149.375C137.43 154.075 138.18 158.665 142.21 161.975C143.111 162.672 143.815 163.592 144.251 164.644C144.688 165.697 144.843 166.845 144.7 167.975C144.42 172.585 144.13 177.195 143.91 181.815C143.641 184.352 143.736 186.914 144.19 189.425L161.31 184.665Z" fill="#3558A2"/>
<path d="M100.46 203.005C100.957 203.003 101.449 203.102 101.907 203.294C102.365 203.487 102.78 203.77 103.126 204.127C103.473 204.483 103.743 204.906 103.923 205.369C104.102 205.833 104.186 206.328 104.17 206.825C104.191 207.322 104.109 207.819 103.929 208.283C103.748 208.748 103.474 209.17 103.123 209.523C102.772 209.876 102.351 210.153 101.887 210.335C101.424 210.518 100.928 210.603 100.43 210.585C99.9346 210.581 99.4448 210.479 98.9888 210.285C98.5328 210.091 98.1196 209.809 97.773 209.455C97.4263 209.101 97.1531 208.682 96.969 208.222C96.7849 207.762 96.6935 207.27 96.7001 206.775C96.6892 206.277 96.779 205.783 96.964 205.321C97.149 204.86 97.4253 204.44 97.7765 204.088C98.1277 203.736 98.5466 203.459 99.0077 203.272C99.4689 203.086 99.9629 202.995 100.46 203.005V203.005Z" fill="#3558A2"/>
<path d="M197.51 132.844C197.036 132.834 196.569 132.729 196.136 132.536C195.703 132.343 195.312 132.066 194.987 131.721C194.662 131.376 194.41 130.969 194.244 130.525C194.077 130.081 194.002 129.608 194.02 129.134C194.064 128.182 194.471 127.284 195.157 126.623C195.844 125.963 196.758 125.591 197.71 125.584C198.673 125.611 199.586 126.018 200.248 126.718C200.91 127.417 201.267 128.351 201.24 129.314C201.214 130.277 200.806 131.189 200.106 131.851C199.407 132.513 198.473 132.871 197.51 132.844V132.844Z" fill="#3558A2"/>
<path d="M209.111 198.614C208.152 198.593 207.239 198.195 206.571 197.506C205.903 196.817 205.533 195.893 205.541 194.934C205.563 194.458 205.679 193.992 205.883 193.563C206.088 193.133 206.376 192.749 206.731 192.432C207.086 192.115 207.5 191.872 207.95 191.718C208.4 191.564 208.877 191.501 209.351 191.534C210.264 191.562 211.13 191.944 211.766 192.599C212.402 193.254 212.759 194.131 212.761 195.044C212.76 195.519 212.664 195.989 212.479 196.427C212.294 196.865 212.024 197.261 211.684 197.594C211.345 197.926 210.942 198.187 210.5 198.363C210.059 198.538 209.586 198.623 209.111 198.614V198.614Z" fill="#3558A2"/>
<path d="M96.341 140.203C96.355 140.679 96.2688 141.152 96.0881 141.593C95.9074 142.033 95.6363 142.431 95.2922 142.76C94.9481 143.089 94.5388 143.342 94.0907 143.503C93.6426 143.663 93.1658 143.728 92.691 143.693C91.7803 143.659 90.9201 143.265 90.2995 142.598C89.6789 141.93 89.3487 141.044 89.3811 140.133C89.3857 139.674 89.4807 139.219 89.6609 138.796C89.841 138.374 90.1026 137.99 90.4309 137.669C90.7591 137.347 91.1476 137.093 91.574 136.921C92.0004 136.75 92.4564 136.664 92.916 136.668C93.3756 136.673 93.8299 136.768 94.2528 136.948C94.6757 137.128 95.059 137.39 95.3807 137.718C95.7025 138.046 95.9564 138.435 96.128 138.861C96.2997 139.287 96.3857 139.744 96.3811 140.203H96.341Z" fill="#3558A2"/>
<path d="M161.34 184.664L144.22 189.384C143.766 186.874 143.671 184.311 143.94 181.774C144.16 177.154 144.45 172.544 144.73 167.934C144.873 166.804 144.718 165.656 144.281 164.604C143.845 163.551 143.141 162.631 142.24 161.934C138.24 158.624 137.46 154.034 138.68 149.334C139.68 145.464 142.95 143.544 146.76 142.984C154.12 141.904 159.29 147.274 157.94 154.674C157.55 156.339 156.709 157.865 155.51 159.084C154.749 159.792 154.227 160.719 154.017 161.737C153.808 162.755 153.92 163.813 154.34 164.764C156.48 170.624 158.54 176.514 160.63 182.394C160.8 183.024 160.98 183.614 161.34 184.664Z" fill="#979FBB"/>
</svg>
