<svg width="300" height="300" viewBox="0 0 300 300" fill="none" xmlns="http://www.w3.org/2000/svg">
<path d="M101.548 195.759C98.2081 192.479 94.9281 189.599 92.0481 186.369C80.6502 173.795 74.1332 157.554 73.6781 140.589C72.8081 117.459 80.8681 97.6894 97.4281 81.5894C111.938 67.5094 129.528 60.3194 149.798 60.3694C169.308 60.3694 185.978 67.5494 199.968 81.2194C212.458 93.4194 219.048 108.339 220.968 125.479C224.378 156.379 207.848 187.119 180.078 201.599C166.266 208.955 150.46 211.693 134.978 209.409C133.048 209.139 132.218 209.709 131.408 211.299C125.798 222.389 120.058 233.409 114.478 244.509C110.928 251.559 107.678 258.749 104.098 265.779C101.098 271.779 97.8481 277.649 94.4381 283.409C93.0186 285.834 91.1879 287.993 89.0281 289.789C87.3721 291.229 85.3585 292.197 83.1992 292.589C81.04 292.981 78.8149 292.785 76.7581 292.019C73.0491 290.762 69.7001 288.624 66.9981 285.789C63.1981 281.789 61.9981 277.129 63.8681 271.979C65.8681 266.539 67.8681 261.109 70.4181 255.889C75.7514 244.769 81.2481 233.729 86.9081 222.769C91.1581 214.559 95.8081 206.539 100.268 198.439C100.678 197.589 101.098 196.679 101.548 195.759ZM214.618 132.189C214.548 130.849 214.518 130.039 214.468 129.189C213.528 112.649 207.538 97.9594 195.838 86.4594C176.768 67.7094 153.748 62.4594 128.308 70.6294C95.9881 80.9894 75.4481 114.499 81.3081 148.829C87.7481 186.689 123.908 210.599 161.158 201.469C181.708 196.469 196.778 184.049 206.698 165.469C212.107 155.223 214.832 143.774 214.618 132.189V132.189ZM107.298 199.869C104.158 205.319 100.888 210.669 97.9481 216.179C89.5281 231.949 81.0881 247.709 73.9481 264.119C72.4381 267.599 71.3182 271.249 70.1082 274.849C69.7489 275.939 69.7175 277.111 70.018 278.218C70.3184 279.326 70.9374 280.32 71.7981 281.079C72.7539 282.05 73.806 282.921 74.9381 283.679C80.1881 287.259 83.9381 286.559 87.7081 281.389C88.0742 280.881 88.4082 280.35 88.7081 279.799C92.7081 272.299 96.8881 264.799 100.758 257.249C103.848 251.199 106.498 244.919 109.518 238.829C113.518 230.709 117.758 222.669 121.898 214.599C123.048 212.359 124.258 210.149 125.438 207.929L107.298 199.869Z" fill="#3558A2"/>
<path d="M220.427 13.9109C219.427 20.1409 221.697 24.7109 226.497 28.2509C229.067 30.1409 231.497 32.0709 234.807 32.6309C235.541 32.6983 236.23 33.0148 236.759 33.5278C237.289 34.0408 237.627 34.7193 237.717 35.4509C237.967 37.1009 237.127 38.1709 235.787 39.0209C230.717 42.2509 226.937 46.7509 223.547 51.6009C221.547 54.4209 220.977 57.7609 220.397 61.0609C219.937 63.6509 219.567 66.2509 219.167 68.8409C218.767 71.4309 217.347 72.8409 215.437 72.7609C213.527 72.6809 212.347 71.0109 212.087 68.5409C211.507 63.2409 210.907 57.9309 210.087 52.6709C209.217 47.1209 205.257 44.6709 200.227 43.5209C199.067 43.3475 197.93 43.0457 196.837 42.6209C196.201 42.3598 195.652 41.9223 195.256 41.3599C194.86 40.7975 194.633 40.1337 194.601 39.4466C194.57 38.7594 194.735 38.0776 195.078 37.4813C195.421 36.8851 195.927 36.3992 196.537 36.0809C197.63 35.4387 198.804 34.9444 200.027 34.6109C207.677 32.2709 211.677 27.0509 212.677 19.2709C213.004 16.6709 213.357 14.0742 213.737 11.4809C213.838 10.7639 214.016 10.0599 214.267 9.38088C214.463 8.62548 214.93 7.96858 215.579 7.53525C216.228 7.10191 217.014 6.92239 217.787 7.03088C218.554 7.17251 219.243 7.58662 219.729 8.19681C220.214 8.80699 220.462 9.57207 220.427 10.3509C220.487 11.6309 220.427 12.9009 220.427 13.9109ZM216.917 28.7809C216.017 31.0275 214.68 33.0733 212.984 34.8001C211.289 36.5268 209.267 37.9002 207.037 38.8409C212.127 41.2509 215.167 44.6809 216.317 49.5209C219.887 45.2209 223.317 41.1509 226.637 37.1209L216.917 28.7809Z" fill="#3558A2"/>
<path d="M214.618 132.19C214.809 143.784 212.056 155.238 206.618 165.48C196.698 184.08 181.618 196.48 161.078 201.48C123.828 210.61 87.6676 186.7 81.2276 148.84C75.3976 114.51 95.9376 80.9997 128.228 70.6397C153.668 62.4797 176.688 67.7197 195.758 86.4697C207.458 97.9697 213.448 112.66 214.388 129.2C214.518 130.04 214.548 130.85 214.618 132.19ZM146.418 191.75C154.62 191.852 162.755 190.251 170.308 187.05C202.078 173.68 215.478 136.7 201.068 106.83C190.928 85.8297 167.818 72.6997 144.588 75.2097C124.108 77.4297 108.588 87.4897 98.3176 105.29C90.3176 119.12 88.5375 134.01 92.6175 149.5C95.5175 160.5 101.438 169.63 109.708 177.45C113 180.564 116.911 182.949 121.188 184.45C124.938 185.8 128.598 187.39 132.258 188.96C134.318 189.85 136.188 191.14 138.588 191.2C141.198 191.27 143.808 191.54 146.418 191.75Z" fill="#EAECF1"/>
<path d="M107.298 199.871L125.498 207.931C124.318 210.151 123.108 212.361 121.958 214.601C117.818 222.671 113.618 230.711 109.578 238.831C106.578 244.921 103.908 251.201 100.818 257.251C96.9476 264.841 92.8175 272.251 88.7675 279.801C88.4676 280.351 88.1336 280.882 87.7675 281.391C84.0275 286.561 80.2475 287.261 74.9975 283.681C73.8654 282.923 72.8134 282.052 71.8576 281.081C70.9969 280.322 70.3779 279.327 70.0775 278.22C69.777 277.112 69.8083 275.941 70.1676 274.851C71.3776 271.251 72.4975 267.601 74.0075 264.121C81.1375 247.711 89.5775 231.951 98.0075 216.181C100.888 210.671 104.158 205.321 107.298 199.871Z" fill="#979FBB"/>
<path d="M216.917 28.7793L226.637 37.1193C223.277 41.1193 219.887 45.2193 216.317 49.5193C215.167 44.6793 212.127 41.2493 207.037 38.8393C209.267 37.8987 211.289 36.5252 212.984 34.7985C214.68 33.0717 216.017 31.0259 216.917 28.7793V28.7793Z" fill="white"/>
<path d="M146.418 191.749C143.808 191.539 141.198 191.229 138.588 191.169C136.188 191.109 134.318 189.819 132.258 188.929C128.598 187.359 124.938 185.769 121.188 184.419C116.911 182.919 113 180.534 109.708 177.419C101.438 169.599 95.5176 160.469 92.6176 149.469C88.5376 133.979 90.3677 119.089 98.3177 105.259C108.548 87.4595 124.108 77.3995 144.588 75.1795C167.818 72.6695 190.928 85.7895 201.068 106.799C215.478 136.669 202.068 173.649 170.308 187.019C162.757 190.231 154.622 191.842 146.418 191.749V191.749ZM141.418 130.639L140.788 131.299C141.321 132.085 141.896 132.843 142.508 133.569C143.508 134.699 144.718 135.729 145.778 136.849C147.228 138.389 147.558 139.849 146.858 141.279C146.064 142.813 144.581 143.396 142.408 143.029L139.468 142.559C142.208 148.849 146.808 151.989 152.538 153.499C157.656 154.798 162.975 155.103 168.208 154.399C169.239 154.199 170.309 154.347 171.247 154.821C172.185 155.296 172.938 156.069 173.388 157.019C173.698 157.569 173.988 158.139 174.258 158.709C176.428 163.279 178.598 167.859 180.968 172.839C191.078 164.129 197.278 153.519 199.458 140.619C201.305 130.009 199.685 119.087 194.838 109.469C194.358 109.879 194.168 109.969 194.088 110.119C189.998 117.989 183.428 121.989 174.648 122.409C173.278 122.479 172.818 123.169 172.338 124.259C169.888 129.819 164.798 131.989 159.148 129.599C156.54 128.37 154.041 126.921 151.678 125.269C150.138 124.269 148.828 122.879 146.748 122.789C146.748 123.339 146.598 123.659 146.748 123.849C147.588 125.249 148.478 126.609 149.328 127.989C150.528 129.929 150.448 131.769 149.128 132.989C147.808 134.209 146.068 134.109 144.198 132.689C143.258 131.909 142.318 131.269 141.398 130.639H141.418ZM143.218 104.099C142.538 105.369 142.218 106.099 141.768 106.799C140.225 109.752 137.965 112.269 135.195 114.119C132.426 115.97 129.235 117.094 125.918 117.389C122.468 117.769 122.468 117.709 121.388 121.069C121.248 121.499 121.158 121.949 120.998 122.369C120.637 123.245 120.506 124.198 120.618 125.138C120.73 126.078 121.081 126.974 121.638 127.739C124.978 133.089 125.638 138.939 124.218 145.029C123.968 146.169 123.658 147.289 123.328 148.609C130.258 151.609 134.088 157.429 137.768 163.409C140.868 168.409 144.028 173.409 147.068 178.409C148.238 180.409 149.168 182.469 150.358 184.789C158.307 184.403 166.053 182.149 172.968 178.209C174.838 177.159 175.048 176.669 174.188 174.709C172.448 170.709 170.558 166.799 168.788 162.829C168.605 162.324 168.253 161.897 167.793 161.62C167.332 161.343 166.79 161.234 166.258 161.309C162.828 161.309 159.368 161.259 155.948 160.979C151.397 160.665 146.995 159.226 143.138 156.789C138.328 153.719 134.608 149.789 133.048 144.119C132.663 142.949 132.587 141.7 132.825 140.492C133.063 139.283 133.608 138.156 134.408 137.219C134.761 136.828 134.989 136.34 135.062 135.817C135.135 135.295 135.05 134.763 134.818 134.289C134.279 132.564 133.966 130.776 133.888 128.969C133.798 126.119 135.148 124.429 137.888 123.469L139.478 122.959C139.608 122.289 139.718 121.679 139.838 121.069C140.838 116.379 143.838 114.579 148.468 115.869C151.332 116.746 153.994 118.184 156.298 120.099C158.003 121.437 159.884 122.534 161.888 123.359C163.988 124.219 165.288 123.359 165.778 121.259C165.585 121.077 165.37 120.919 165.138 120.789C159.317 118.536 154.558 114.173 151.808 108.569C151.619 108.053 151.268 107.611 150.808 107.309C148.348 106.269 145.858 105.269 143.198 104.099H143.218ZM173.098 115.689C181.638 115.799 187.888 110.559 189.098 103.139C189.263 102.396 189.24 101.622 189.033 100.889C188.825 100.156 188.438 99.4862 187.908 98.9395C183.607 94.4013 178.693 90.4868 173.308 87.3095C168.978 84.6095 165.708 85.7095 162.238 88.4195C156.898 92.5995 155.118 99.0495 157.828 105.199C160.868 112.169 166.568 115.269 173.078 115.689H173.098ZM107.008 163.779C113.408 174.939 131.128 184.779 142.308 184.199C142.285 183.934 142.221 183.675 142.118 183.429C137.558 176.109 133.118 168.729 128.368 161.519C126.842 159.024 124.682 156.978 122.108 155.589C120.598 154.819 119.558 154.789 118.378 156.239C116.187 158.806 113.455 160.856 110.378 162.239C109.348 162.799 108.258 163.269 106.988 163.779H107.008ZM100.188 151.149C100.838 152.859 101.258 154.149 101.798 155.359C102.708 157.479 103.188 157.669 105.338 156.999C109.336 155.695 112.769 153.063 115.066 149.54C117.363 146.017 118.387 141.814 117.968 137.629C116.968 128.699 109.538 122.859 100.858 124.169C99.4777 124.379 97.9277 124.549 97.9777 126.369C98.0477 128.809 96.0377 131.549 98.5877 133.649C101.138 135.749 101.308 137.899 99.0877 140.019C97.1877 141.829 97.3876 143.099 99.8776 143.779C101.008 143.989 102.167 143.989 103.298 143.779C103.998 143.699 104.648 143.249 105.358 143.109C106.062 142.903 106.815 142.95 107.489 143.24C108.163 143.53 108.714 144.046 109.048 144.699C109.409 145.341 109.522 146.092 109.365 146.811C109.209 147.53 108.793 148.167 108.198 148.599C106.676 149.535 105.048 150.283 103.348 150.829C102.302 151.051 101.236 151.159 100.168 151.149H100.188ZM137.468 95.8895C137.361 94.17 136.913 92.4888 136.151 90.9438C135.389 89.3987 134.327 88.0206 133.028 86.8895C132.48 86.2879 131.746 85.8893 130.943 85.7586C130.141 85.6278 129.317 85.7727 128.608 86.1695C123.099 88.741 118.036 92.1741 113.608 96.3395C113.11 96.7902 112.733 97.3589 112.513 97.9933C112.293 98.6277 112.236 99.3073 112.348 99.9695C112.695 102.497 113.81 104.857 115.541 106.731C117.272 108.605 119.536 109.903 122.028 110.449C129.968 112.069 137.508 105.359 137.448 95.8895H137.468ZM149.778 98.7495C149.94 95.678 150.763 92.6779 152.193 89.9543C153.622 87.2307 155.622 84.8481 158.058 82.9695C153.348 80.9695 142.228 81.2895 139.268 83.4395C141.58 86.2346 143.17 89.5554 143.898 93.1095C144.148 94.5995 143.898 96.5195 144.788 97.4595C145.678 98.3995 147.588 98.4595 149.058 98.8795C149.294 98.8567 149.529 98.8132 149.758 98.7495H149.778ZM116.128 115.969C114.183 114.526 112.336 112.956 110.598 111.269C109.084 109.411 107.691 107.457 106.428 105.419C103.798 108.519 101.158 113.979 100.808 117.139C105.532 116.849 110.244 117.888 114.408 120.139L116.128 115.969Z" fill="#3558A2"/>
<path d="M141.398 130.64C142.318 131.29 143.258 131.91 144.158 132.59C146.028 134.01 147.688 134.13 149.088 132.89C150.488 131.65 150.488 129.89 149.288 127.89C148.438 126.51 147.548 125.15 146.708 123.75C146.598 123.56 146.708 123.24 146.708 122.69C148.788 122.78 150.098 124.18 151.638 125.17C153.993 126.838 156.485 128.303 159.088 129.55C164.738 131.94 169.828 129.77 172.278 124.21C172.758 123.12 173.218 122.43 174.588 122.36C183.368 121.94 189.938 117.94 194.028 110.07C194.108 109.92 194.298 109.83 194.778 109.42C199.626 119.037 201.246 129.96 199.398 140.57C197.218 153.47 191.018 164.08 180.908 172.79C178.538 167.79 176.368 163.23 174.198 158.66C173.928 158.09 173.638 157.52 173.328 156.97C172.879 156.02 172.125 155.246 171.187 154.772C170.249 154.297 169.18 154.149 168.148 154.35C162.915 155.054 157.596 154.748 152.478 153.45C146.748 151.94 142.148 148.8 139.408 142.51L142.348 142.98C144.528 143.34 146.012 142.757 146.798 141.23C147.498 139.85 147.168 138.34 145.718 136.8C144.658 135.68 143.498 134.65 142.448 133.52C141.836 132.793 141.262 132.036 140.728 131.25L141.398 130.64Z" fill="white"/>
<path d="M143.197 104.1C145.857 105.22 148.347 106.23 150.787 107.35C151.248 107.651 151.599 108.093 151.787 108.61C154.537 114.213 159.296 118.576 165.117 120.83C165.349 120.959 165.564 121.117 165.757 121.3C165.267 123.39 163.967 124.3 161.867 123.4C159.864 122.574 157.983 121.477 156.277 120.14C153.974 118.224 151.312 116.786 148.447 115.91C143.787 114.62 140.787 116.42 139.817 121.11C139.697 121.72 139.587 122.33 139.457 123L137.867 123.51C135.167 124.51 133.817 126.16 133.867 129.01C133.946 130.816 134.259 132.604 134.797 134.33C135.029 134.803 135.114 135.335 135.041 135.857C134.968 136.38 134.74 136.868 134.387 137.26C133.588 138.197 133.043 139.323 132.805 140.532C132.566 141.74 132.643 142.989 133.027 144.16C134.587 149.83 138.307 153.76 143.117 156.83C146.974 159.266 151.376 160.705 155.927 161.02C159.347 161.3 162.807 161.36 166.237 161.35C166.769 161.274 167.311 161.384 167.772 161.66C168.233 161.937 168.584 162.364 168.767 162.87C170.537 166.87 172.427 170.76 174.167 174.75C175.027 176.75 174.817 177.2 172.947 178.25C166.032 182.189 158.286 184.443 150.337 184.83C149.147 182.51 148.217 180.41 147.047 178.45C144.047 173.45 140.847 168.45 137.747 163.45C134.067 157.45 130.237 151.64 123.307 148.65C123.637 147.33 123.947 146.21 124.197 145.07C125.567 138.98 124.957 133.13 121.617 127.78C121.061 127.014 120.71 126.118 120.598 125.178C120.485 124.238 120.616 123.285 120.977 122.41C121.137 121.99 121.227 121.54 121.367 121.11C122.447 117.75 122.447 117.81 125.897 117.43C129.215 117.134 132.405 116.01 135.175 114.159C137.945 112.309 140.205 109.792 141.747 106.84C142.147 106.1 142.517 105.37 143.197 104.1Z" fill="#EAECF1"/>
<path d="M173.077 115.69C166.567 115.24 160.867 112.17 157.787 105.2C155.077 99.0501 156.857 92.6001 162.197 88.4201C165.667 85.7101 168.937 84.6101 173.267 87.3101C178.652 90.4874 183.566 94.402 187.867 98.9401C188.397 99.4868 188.784 100.157 188.992 100.89C189.199 101.623 189.222 102.396 189.057 103.14C187.867 110.56 181.617 115.8 173.077 115.69ZM173.307 111.27C175.153 111.312 176.977 110.853 178.583 109.941C180.189 109.028 181.517 107.698 182.427 106.09C182.987 105.303 183.213 104.326 183.056 103.372C182.899 102.418 182.371 101.566 181.587 101C180.077 100 178.247 100.38 176.897 102.27C176.433 102.994 175.77 103.568 174.988 103.922C174.205 104.277 173.337 104.398 172.487 104.27C171.942 104.232 171.395 104.258 170.857 104.35C170.216 104.404 169.61 104.663 169.127 105.088C168.645 105.513 168.312 106.081 168.177 106.71C167.98 107.375 168.028 108.09 168.312 108.723C168.596 109.356 169.098 109.866 169.727 110.16C170.883 110.64 172.082 111.011 173.307 111.27V111.27ZM176.027 93.1301C175.598 93.1138 175.17 93.1848 174.77 93.3387C174.369 93.4926 174.004 93.7262 173.696 94.0254C173.389 94.3246 173.145 94.6832 172.98 95.0793C172.815 95.4755 172.732 95.901 172.737 96.3301C172.715 97.2384 173.053 98.1186 173.676 98.7795C174.3 99.4405 175.159 99.8287 176.067 99.8601C176.931 99.8477 177.756 99.5031 178.373 98.8979C178.989 98.2928 179.349 97.4734 179.377 96.6101C179.4 96.1579 179.33 95.7058 179.172 95.2817C179.014 94.8575 178.77 94.4704 178.456 94.1442C178.142 93.8181 177.764 93.5598 177.346 93.3853C176.929 93.2109 176.479 93.124 176.027 93.1301V93.1301ZM167.397 97.6001C166.967 97.5854 166.539 97.6568 166.138 97.8102C165.736 97.9635 165.37 98.1957 165.059 98.493C164.749 98.7903 164.501 99.1467 164.331 99.5412C164.16 99.9357 164.071 100.36 164.067 100.79C164.034 101.229 164.09 101.67 164.233 102.087C164.375 102.503 164.601 102.886 164.896 103.213C165.191 103.539 165.55 103.803 165.95 103.987C166.349 104.171 166.783 104.271 167.223 104.283C167.663 104.294 168.1 104.216 168.509 104.054C168.918 103.891 169.29 103.647 169.602 103.336C169.914 103.025 170.159 102.654 170.323 102.246C170.487 101.838 170.567 101.4 170.557 100.96C170.571 100.532 170.501 100.104 170.35 99.7032C170.199 99.302 169.97 98.9347 169.676 98.6223C169.382 98.31 169.03 98.0589 168.639 97.8835C168.247 97.708 167.825 97.6117 167.397 97.6001V97.6001Z" fill="white"/>
<path d="M106.986 163.781C108.256 163.231 109.346 162.781 110.386 162.291C113.464 160.907 116.196 158.858 118.386 156.291C119.566 154.841 120.606 154.871 122.116 155.641C124.69 157.03 126.851 159.076 128.376 161.571C133.096 168.781 137.566 176.161 142.126 183.481C142.229 183.726 142.293 183.986 142.316 184.251C131.106 184.741 113.386 174.941 106.986 163.781Z" fill="white"/>
<path d="M100.167 151.151C101.23 151.145 102.29 151.024 103.327 150.791C105.027 150.244 106.655 149.496 108.177 148.561C108.772 148.128 109.188 147.491 109.344 146.772C109.501 146.053 109.388 145.302 109.027 144.661C108.693 144.007 108.142 143.491 107.468 143.201C106.795 142.911 106.041 142.864 105.337 143.071C104.627 143.211 103.977 143.661 103.277 143.741C102.146 143.95 100.987 143.95 99.8568 143.741C97.3668 143.061 97.1668 141.791 99.0668 139.981C101.287 137.861 100.997 135.621 98.5668 133.611C96.1368 131.601 98.0268 128.771 97.9568 126.331C97.9568 124.511 99.4568 124.331 100.837 124.131C109.517 122.821 116.957 128.661 117.947 137.591C118.366 141.775 117.342 145.978 115.045 149.501C112.748 153.024 109.315 155.656 105.317 156.961C103.167 157.631 102.687 157.441 101.777 155.321C101.237 154.131 100.817 152.861 100.167 151.151ZM110.727 137.151C110.755 136.336 110.464 135.542 109.917 134.938C109.371 134.333 108.61 133.965 107.797 133.911C106.943 133.868 106.107 134.156 105.46 134.715C104.814 135.274 104.408 136.06 104.327 136.911C104.299 137.759 104.609 138.584 105.19 139.204C105.77 139.824 106.573 140.188 107.422 140.216C108.27 140.243 109.095 139.933 109.715 139.353C110.335 138.772 110.699 137.969 110.727 137.121V137.151Z" fill="white"/>
<path d="M137.447 95.8904C137.507 105.36 129.967 112.07 122.027 110.46C119.535 109.913 117.271 108.615 115.54 106.741C113.809 104.867 112.694 102.508 112.347 99.9804C112.235 99.3182 112.292 98.6386 112.512 98.0042C112.732 97.3698 113.109 96.8011 113.607 96.3504C118.035 92.185 123.098 88.7519 128.607 86.1804C129.316 85.7836 130.14 85.6388 130.942 85.7695C131.745 85.9002 132.479 86.2988 133.027 86.9004C134.321 88.0321 135.379 89.4094 136.137 90.9526C136.896 92.4957 137.341 94.1741 137.447 95.8904V95.8904ZM124.677 108.78C127.052 108.712 129.326 107.805 131.097 106.22C132.687 104.74 133.017 102.82 131.937 101.39C130.857 99.9604 129.247 99.8104 127.287 100.78C126.169 101.347 125.012 101.835 123.827 102.24C121.747 102.91 120.747 104.1 120.967 105.89C121.187 107.68 122.677 108.74 124.677 108.78ZM119.567 101.96C119.994 101.965 120.418 101.882 120.812 101.717C121.206 101.551 121.562 101.307 121.858 100.999C122.154 100.691 122.384 100.325 122.533 99.9245C122.683 99.5241 122.749 99.0972 122.727 98.6704C122.725 97.8064 122.39 96.9763 121.793 96.3524C121.195 95.7286 120.38 95.359 119.517 95.3204C118.656 95.3439 117.839 95.7037 117.241 96.3224C116.643 96.9412 116.311 97.7698 116.317 98.6304C116.343 99.4933 116.693 100.315 117.297 100.932C117.901 101.548 118.715 101.916 119.577 101.96H119.567ZM131.567 94.2204C131.577 93.8379 131.508 93.4573 131.364 93.1025C131.221 92.7477 131.006 92.4262 130.733 92.1579C130.46 91.8897 130.135 91.6805 129.778 91.5433C129.421 91.4061 129.039 91.3438 128.657 91.3604C128.257 91.3517 127.859 91.4244 127.488 91.5741C127.117 91.7238 126.781 91.9474 126.499 92.2312C126.217 92.515 125.996 92.8532 125.849 93.2251C125.702 93.5971 125.632 93.995 125.644 94.3948C125.655 94.7946 125.748 95.1879 125.916 95.5507C126.084 95.9136 126.325 96.2384 126.623 96.5055C126.92 96.7726 127.269 96.9764 127.648 97.1044C128.027 97.2325 128.428 97.2821 128.827 97.2504C129.202 97.2377 129.572 97.15 129.913 96.9925C130.254 96.8349 130.561 96.6108 130.814 96.3331C131.067 96.0555 131.263 95.73 131.389 95.3757C131.514 95.0215 131.568 94.6457 131.547 94.2704L131.567 94.2204Z" fill="white"/>
<path d="M173.308 111.27C172.084 111.025 170.886 110.666 169.728 110.2C169.1 109.906 168.598 109.396 168.313 108.763C168.029 108.13 167.981 107.416 168.178 106.75C168.313 106.122 168.646 105.553 169.129 105.128C169.611 104.703 170.218 104.445 170.858 104.39C171.396 104.299 171.944 104.272 172.488 104.31C173.338 104.438 174.206 104.318 174.989 103.963C175.772 103.608 176.435 103.034 176.898 102.31C178.248 100.42 180.078 100.06 181.588 101.04C182.372 101.606 182.9 102.459 183.057 103.412C183.215 104.366 182.989 105.343 182.428 106.13C181.513 107.73 180.183 109.053 178.577 109.958C176.971 110.863 175.151 111.317 173.308 111.27V111.27Z" fill="#3558A2"/>
<path d="M176.027 93.1312C176.48 93.1251 176.929 93.212 177.347 93.3864C177.765 93.5609 178.142 93.8191 178.456 94.1453C178.77 94.4715 179.014 94.8586 179.172 95.2828C179.331 95.7069 179.4 96.159 179.377 96.6112C179.349 97.4745 178.989 98.2938 178.373 98.899C177.757 99.5042 176.931 99.8488 176.067 99.8612C175.159 99.8298 174.3 99.4415 173.677 98.7806C173.053 98.1197 172.716 97.2395 172.737 96.3312C172.733 95.9021 172.816 95.4766 172.981 95.0804C173.146 94.6842 173.389 94.3257 173.697 94.0265C174.005 93.7273 174.37 93.4937 174.77 93.3398C175.171 93.1859 175.598 93.1149 176.027 93.1312V93.1312Z" fill="#3558A2"/>
<path d="M167.398 97.5995C167.826 97.6112 168.248 97.7075 168.64 97.8829C169.031 98.0584 169.383 98.3095 169.677 98.6218C169.971 98.9341 170.2 99.3015 170.351 99.7027C170.502 100.104 170.572 100.531 170.558 100.96C170.568 101.4 170.488 101.837 170.324 102.246C170.16 102.654 169.914 103.025 169.603 103.335C169.291 103.646 168.919 103.89 168.51 104.053C168.101 104.216 167.664 104.294 167.224 104.282C166.783 104.271 166.35 104.17 165.95 103.986C165.551 103.802 165.192 103.539 164.897 103.212C164.602 102.886 164.376 102.502 164.234 102.086C164.091 101.67 164.035 101.228 164.068 100.79C164.072 100.36 164.161 99.9352 164.332 99.5406C164.502 99.1461 164.75 98.7897 165.06 98.4924C165.371 98.1951 165.737 97.963 166.139 97.8096C166.54 97.6563 166.968 97.5848 167.398 97.5995V97.5995Z" fill="#3558A2"/>
<path d="M110.728 137.111C110.7 137.959 110.336 138.762 109.716 139.343C109.097 139.923 108.272 140.233 107.423 140.206C106.574 140.178 105.771 139.814 105.191 139.194C104.611 138.574 104.3 137.749 104.328 136.901C104.409 136.05 104.815 135.264 105.461 134.705C106.108 134.146 106.945 133.858 107.798 133.901C108.606 133.955 109.362 134.319 109.908 134.917C110.454 135.515 110.748 136.301 110.728 137.111V137.111Z" fill="#3558A2"/>
<path d="M124.677 108.779C122.677 108.779 121.167 107.589 120.967 105.889C120.767 104.189 121.747 102.889 123.827 102.239C125.013 101.834 126.169 101.346 127.287 100.779C129.287 99.7795 130.887 99.9895 131.937 101.389C132.987 102.789 132.687 104.739 131.097 106.219C129.326 107.804 127.052 108.711 124.677 108.779V108.779Z" fill="#3558A2"/>
<path d="M119.576 101.96C118.716 101.913 117.905 101.545 117.303 100.928C116.701 100.312 116.352 99.4915 116.326 98.6303C116.321 97.7697 116.653 96.9411 117.251 96.3223C117.849 95.7036 118.666 95.3438 119.526 95.3203C120.389 95.3589 121.205 95.7285 121.802 96.3523C122.4 96.9761 122.735 97.8063 122.736 98.6703C122.758 99.0971 122.692 99.5239 122.543 99.9244C122.394 100.325 122.164 100.69 121.868 100.999C121.572 101.307 121.216 101.551 120.821 101.717C120.427 101.882 120.004 101.965 119.576 101.96V101.96Z" fill="#3558A2"/>
<path d="M131.547 94.2696C131.571 94.6482 131.519 95.0277 131.393 95.3856C131.268 95.7435 131.071 96.0723 130.815 96.3524C130.559 96.6325 130.25 96.8581 129.905 97.0157C129.56 97.1733 129.186 97.2597 128.807 97.2696C128.408 97.3014 128.007 97.2517 127.629 97.1237C127.25 96.9956 126.901 96.7918 126.603 96.5247C126.305 96.2576 126.065 95.9328 125.897 95.57C125.728 95.2071 125.636 94.8138 125.624 94.414C125.613 94.0142 125.683 93.6163 125.83 93.2443C125.977 92.8724 126.198 92.5342 126.48 92.2504C126.761 91.9666 127.098 91.743 127.469 91.5933C127.84 91.4436 128.237 91.3709 128.637 91.3796C129.022 91.3628 129.406 91.4259 129.766 91.5649C130.125 91.7039 130.452 91.9158 130.725 92.1873C130.998 92.4588 131.213 92.784 131.354 93.1424C131.496 93.5008 131.561 93.8846 131.547 94.2696Z" fill="#3558A2"/>
<path d="M101.548 195.759C98.2081 192.479 94.9281 189.599 92.0481 186.369C80.6502 173.795 74.1332 157.554 73.6781 140.589C72.8081 117.459 80.8681 97.6894 97.4281 81.5894C111.938 67.5094 129.528 60.3194 149.798 60.3694C169.308 60.3694 185.978 67.5494 199.968 81.2194C212.458 93.4194 219.048 108.339 220.968 125.479C224.378 156.379 207.848 187.119 180.078 201.599C166.266 208.955 150.46 211.693 134.978 209.409C133.048 209.139 132.218 209.709 131.408 211.299C125.798 222.389 120.058 233.409 114.478 244.509C110.928 251.559 107.678 258.749 104.098 265.779C101.098 271.779 97.8481 277.649 94.4381 283.409C93.0186 285.834 91.1879 287.993 89.0281 289.789C87.3721 291.229 85.3585 292.197 83.1992 292.589C81.04 292.981 78.8149 292.785 76.7581 292.019C73.0491 290.762 69.7001 288.624 66.9981 285.789C63.1981 281.789 61.9981 277.129 63.8681 271.979C65.8681 266.539 67.8681 261.109 70.4181 255.889C75.7514 244.769 81.2481 233.729 86.9081 222.769C91.1581 214.559 95.8081 206.539 100.268 198.439C100.678 197.589 101.098 196.679 101.548 195.759ZM214.618 132.189C214.548 130.849 214.518 130.039 214.468 129.189C213.528 112.649 207.538 97.9594 195.838 86.4594C176.768 67.7094 153.748 62.4594 128.308 70.6294C95.9881 80.9894 75.4481 114.499 81.3081 148.829C87.7481 186.689 123.908 210.599 161.158 201.469C181.708 196.469 196.778 184.049 206.698 165.469C212.107 155.223 214.832 143.774 214.618 132.189V132.189ZM107.298 199.869C104.158 205.319 100.888 210.669 97.9481 216.179C89.5281 231.949 81.0881 247.709 73.9481 264.119C72.4381 267.599 71.3182 271.249 70.1082 274.849C69.7489 275.939 69.7175 277.111 70.018 278.218C70.3184 279.326 70.9374 280.32 71.7981 281.079C72.7539 282.05 73.806 282.921 74.9381 283.679C80.1881 287.259 83.9381 286.559 87.7081 281.389C88.0742 280.881 88.4082 280.35 88.7081 279.799C92.7081 272.299 96.8881 264.799 100.758 257.249C103.848 251.199 106.498 244.919 109.518 238.829C113.518 230.709 117.758 222.669 121.898 214.599C123.048 212.359 124.258 210.149 125.438 207.929L107.298 199.869Z" fill="#3558A2"/>
<path d="M220.427 13.9109C219.427 20.1409 221.697 24.7109 226.497 28.2509C229.067 30.1409 231.497 32.0709 234.807 32.6309C235.541 32.6983 236.23 33.0148 236.759 33.5278C237.289 34.0408 237.627 34.7193 237.717 35.4509C237.967 37.1009 237.127 38.1709 235.787 39.0209C230.717 42.2509 226.937 46.7509 223.547 51.6009C221.547 54.4209 220.977 57.7609 220.397 61.0609C219.937 63.6509 219.567 66.2509 219.167 68.8409C218.767 71.4309 217.347 72.8409 215.437 72.7609C213.527 72.6809 212.347 71.0109 212.087 68.5409C211.507 63.2409 210.907 57.9309 210.087 52.6709C209.217 47.1209 205.257 44.6709 200.227 43.5209C199.067 43.3475 197.93 43.0457 196.837 42.6209C196.201 42.3598 195.652 41.9223 195.256 41.3599C194.86 40.7975 194.633 40.1337 194.601 39.4466C194.57 38.7594 194.735 38.0776 195.078 37.4813C195.421 36.8851 195.927 36.3992 196.537 36.0809C197.63 35.4387 198.804 34.9444 200.027 34.6109C207.677 32.2709 211.677 27.0509 212.677 19.2709C213.004 16.6709 213.357 14.0742 213.737 11.4809C213.838 10.7639 214.016 10.0599 214.267 9.38088C214.463 8.62548 214.93 7.96858 215.579 7.53525C216.228 7.10191 217.014 6.92239 217.787 7.03088C218.554 7.17251 219.243 7.58662 219.729 8.19681C220.214 8.80699 220.462 9.57207 220.427 10.3509C220.487 11.6309 220.427 12.9009 220.427 13.9109ZM216.917 28.7809C216.017 31.0275 214.68 33.0733 212.984 34.8001C211.289 36.5268 209.267 37.9002 207.037 38.8409C212.127 41.2509 215.167 44.6809 216.317 49.5209C219.887 45.2209 223.317 41.1509 226.637 37.1209L216.917 28.7809Z" fill="#3558A2"/>
<path d="M214.618 132.19C214.809 143.784 212.056 155.238 206.618 165.48C196.698 184.08 181.618 196.48 161.078 201.48C123.828 210.61 87.6676 186.7 81.2276 148.84C75.3976 114.51 95.9376 80.9997 128.228 70.6397C153.668 62.4797 176.688 67.7197 195.758 86.4697C207.458 97.9697 213.448 112.66 214.388 129.2C214.518 130.04 214.548 130.85 214.618 132.19ZM146.418 191.75C154.62 191.852 162.755 190.251 170.308 187.05C202.078 173.68 215.478 136.7 201.068 106.83C190.928 85.8297 167.818 72.6997 144.588 75.2097C124.108 77.4297 108.588 87.4897 98.3176 105.29C90.3176 119.12 88.5375 134.01 92.6175 149.5C95.5175 160.5 101.438 169.63 109.708 177.45C113 180.564 116.911 182.949 121.188 184.45C124.938 185.8 128.598 187.39 132.258 188.96C134.318 189.85 136.188 191.14 138.588 191.2C141.198 191.27 143.808 191.54 146.418 191.75Z" fill="#EAECF1"/>
<path d="M107.298 199.871L125.498 207.931C124.318 210.151 123.108 212.361 121.958 214.601C117.818 222.671 113.618 230.711 109.578 238.831C106.578 244.921 103.908 251.201 100.818 257.251C96.9476 264.841 92.8175 272.251 88.7675 279.801C88.4676 280.351 88.1336 280.882 87.7675 281.391C84.0275 286.561 80.2475 287.261 74.9975 283.681C73.8654 282.923 72.8134 282.052 71.8576 281.081C70.9969 280.322 70.3779 279.327 70.0775 278.22C69.777 277.112 69.8083 275.941 70.1676 274.851C71.3776 271.251 72.4975 267.601 74.0075 264.121C81.1375 247.711 89.5775 231.951 98.0075 216.181C100.888 210.671 104.158 205.321 107.298 199.871Z" fill="#979FBB"/>
<path d="M216.917 28.7812L226.637 37.1213C223.277 41.1213 219.887 45.2213 216.317 49.5213C215.167 44.6813 212.127 41.2513 207.037 38.8413C209.267 37.9006 211.289 36.5272 212.984 34.8004C214.68 33.0737 216.017 31.0278 216.917 28.7812V28.7812Z" fill="white"/>
<path d="M146.418 191.749C143.808 191.539 141.198 191.229 138.588 191.169C136.188 191.109 134.318 189.819 132.258 188.929C128.598 187.359 124.938 185.769 121.188 184.419C116.911 182.919 113 180.534 109.708 177.419C101.438 169.599 95.5176 160.469 92.6176 149.469C88.5376 133.979 90.3677 119.089 98.3177 105.259C108.548 87.4595 124.108 77.3995 144.588 75.1795C167.818 72.6695 190.928 85.7895 201.068 106.799C215.478 136.669 202.068 173.649 170.308 187.019C162.757 190.231 154.622 191.842 146.418 191.749V191.749ZM141.418 130.639L140.788 131.299C141.321 132.085 141.896 132.843 142.508 133.569C143.508 134.699 144.718 135.729 145.778 136.849C147.228 138.389 147.558 139.849 146.858 141.279C146.064 142.813 144.581 143.396 142.408 143.029L139.468 142.559C142.208 148.849 146.808 151.989 152.538 153.499C157.656 154.798 162.975 155.103 168.208 154.399C169.239 154.199 170.309 154.347 171.247 154.821C172.185 155.296 172.938 156.069 173.388 157.019C173.698 157.569 173.988 158.139 174.258 158.709C176.428 163.279 178.598 167.859 180.968 172.839C191.078 164.129 197.278 153.519 199.458 140.619C201.305 130.009 199.685 119.087 194.838 109.469C194.358 109.879 194.168 109.969 194.088 110.119C189.998 117.989 183.428 121.989 174.648 122.409C173.278 122.479 172.818 123.169 172.338 124.259C169.888 129.819 164.798 131.989 159.148 129.599C156.54 128.37 154.041 126.921 151.678 125.269C150.138 124.269 148.828 122.879 146.748 122.789C146.748 123.339 146.598 123.659 146.748 123.849C147.588 125.249 148.478 126.609 149.328 127.989C150.528 129.929 150.448 131.769 149.128 132.989C147.808 134.209 146.068 134.109 144.198 132.689C143.258 131.909 142.318 131.269 141.398 130.639H141.418ZM143.218 104.099C142.538 105.369 142.218 106.099 141.768 106.799C140.225 109.752 137.965 112.269 135.195 114.119C132.426 115.97 129.235 117.094 125.918 117.389C122.468 117.769 122.468 117.709 121.388 121.069C121.248 121.499 121.158 121.949 120.998 122.369C120.637 123.245 120.506 124.198 120.618 125.138C120.73 126.078 121.081 126.974 121.638 127.739C124.978 133.089 125.638 138.939 124.218 145.029C123.968 146.169 123.658 147.289 123.328 148.609C130.258 151.609 134.088 157.429 137.768 163.409C140.868 168.409 144.028 173.409 147.068 178.409C148.238 180.409 149.168 182.469 150.358 184.789C158.307 184.403 166.053 182.149 172.968 178.209C174.838 177.159 175.048 176.669 174.188 174.709C172.448 170.709 170.558 166.799 168.788 162.829C168.605 162.324 168.253 161.897 167.793 161.62C167.332 161.343 166.79 161.234 166.258 161.309C162.828 161.309 159.368 161.259 155.948 160.979C151.397 160.665 146.995 159.226 143.138 156.789C138.328 153.719 134.608 149.789 133.048 144.119C132.663 142.949 132.587 141.7 132.825 140.492C133.063 139.283 133.608 138.156 134.408 137.219C134.761 136.828 134.989 136.34 135.062 135.817C135.135 135.295 135.05 134.763 134.818 134.289C134.279 132.564 133.966 130.776 133.888 128.969C133.798 126.119 135.148 124.429 137.888 123.469L139.478 122.959C139.608 122.289 139.718 121.679 139.838 121.069C140.838 116.379 143.838 114.579 148.468 115.869C151.332 116.746 153.994 118.184 156.298 120.099C158.003 121.437 159.884 122.534 161.888 123.359C163.988 124.219 165.288 123.359 165.778 121.259C165.585 121.077 165.37 120.919 165.138 120.789C159.317 118.536 154.558 114.173 151.808 108.569C151.619 108.053 151.268 107.611 150.808 107.309C148.348 106.269 145.858 105.269 143.198 104.099H143.218ZM173.098 115.689C181.638 115.799 187.888 110.559 189.098 103.139C189.263 102.396 189.24 101.622 189.033 100.889C188.825 100.156 188.438 99.4862 187.908 98.9395C183.607 94.4013 178.693 90.4868 173.308 87.3095C168.978 84.6095 165.708 85.7095 162.238 88.4195C156.898 92.5995 155.118 99.0495 157.828 105.199C160.868 112.169 166.568 115.269 173.078 115.689H173.098ZM107.008 163.779C113.408 174.939 131.128 184.779 142.308 184.199C142.285 183.934 142.221 183.675 142.118 183.429C137.558 176.109 133.118 168.729 128.368 161.519C126.842 159.024 124.682 156.978 122.108 155.589C120.598 154.819 119.558 154.789 118.378 156.239C116.187 158.806 113.455 160.856 110.378 162.239C109.348 162.799 108.258 163.269 106.988 163.779H107.008ZM100.188 151.149C100.838 152.859 101.258 154.149 101.798 155.359C102.708 157.479 103.188 157.669 105.338 156.999C109.336 155.695 112.769 153.063 115.066 149.54C117.363 146.017 118.387 141.814 117.968 137.629C116.968 128.699 109.538 122.859 100.858 124.169C99.4777 124.379 97.9277 124.549 97.9777 126.369C98.0477 128.809 96.0377 131.549 98.5877 133.649C101.138 135.749 101.308 137.899 99.0877 140.019C97.1877 141.829 97.3876 143.099 99.8776 143.779C101.008 143.989 102.167 143.989 103.298 143.779C103.998 143.699 104.648 143.249 105.358 143.109C106.062 142.903 106.815 142.95 107.489 143.24C108.163 143.53 108.714 144.046 109.048 144.699C109.409 145.341 109.522 146.092 109.365 146.811C109.209 147.53 108.793 148.167 108.198 148.599C106.676 149.535 105.048 150.283 103.348 150.829C102.302 151.051 101.236 151.159 100.168 151.149H100.188ZM137.468 95.8895C137.361 94.17 136.913 92.4888 136.151 90.9438C135.389 89.3987 134.327 88.0206 133.028 86.8895C132.48 86.2879 131.746 85.8893 130.943 85.7586C130.141 85.6278 129.317 85.7727 128.608 86.1695C123.099 88.741 118.036 92.1741 113.608 96.3395C113.11 96.7902 112.733 97.3589 112.513 97.9933C112.293 98.6277 112.236 99.3073 112.348 99.9695C112.695 102.497 113.81 104.857 115.541 106.731C117.272 108.605 119.536 109.903 122.028 110.449C129.968 112.069 137.508 105.359 137.448 95.8895H137.468ZM149.778 98.7495C149.94 95.678 150.763 92.6779 152.193 89.9543C153.622 87.2307 155.622 84.8481 158.058 82.9695C153.348 80.9695 142.228 81.2895 139.268 83.4395C141.58 86.2346 143.17 89.5554 143.898 93.1095C144.148 94.5995 143.898 96.5195 144.788 97.4595C145.678 98.3995 147.588 98.4595 149.058 98.8795C149.294 98.8567 149.529 98.8132 149.758 98.7495H149.778ZM116.128 115.969C114.183 114.526 112.336 112.956 110.598 111.269C109.084 109.411 107.691 107.457 106.428 105.419C103.798 108.519 101.158 113.979 100.808 117.139C105.532 116.849 110.244 117.888 114.408 120.139L116.128 115.969Z" fill="#3558A2"/>
<path d="M141.398 130.64C142.318 131.29 143.258 131.91 144.158 132.59C146.028 134.01 147.688 134.13 149.088 132.89C150.488 131.65 150.488 129.89 149.288 127.89C148.438 126.51 147.548 125.15 146.708 123.75C146.598 123.56 146.708 123.24 146.708 122.69C148.788 122.78 150.098 124.18 151.638 125.17C153.993 126.838 156.485 128.303 159.088 129.55C164.738 131.94 169.828 129.77 172.278 124.21C172.758 123.12 173.218 122.43 174.588 122.36C183.368 121.94 189.938 117.94 194.028 110.07C194.108 109.92 194.298 109.83 194.778 109.42C199.626 119.037 201.246 129.96 199.398 140.57C197.218 153.47 191.018 164.08 180.908 172.79C178.538 167.79 176.368 163.23 174.198 158.66C173.928 158.09 173.638 157.52 173.328 156.97C172.879 156.02 172.125 155.246 171.187 154.772C170.249 154.297 169.18 154.149 168.148 154.35C162.915 155.054 157.596 154.748 152.478 153.45C146.748 151.94 142.148 148.8 139.408 142.51L142.348 142.98C144.528 143.34 146.012 142.757 146.798 141.23C147.498 139.85 147.168 138.34 145.718 136.8C144.658 135.68 143.498 134.65 142.448 133.52C141.836 132.793 141.262 132.036 140.728 131.25L141.398 130.64Z" fill="white"/>
<path d="M143.197 104.1C145.857 105.22 148.347 106.23 150.787 107.35C151.248 107.651 151.599 108.093 151.787 108.61C154.537 114.213 159.296 118.576 165.117 120.83C165.349 120.959 165.564 121.117 165.757 121.3C165.267 123.39 163.967 124.3 161.867 123.4C159.864 122.574 157.983 121.477 156.277 120.14C153.974 118.224 151.312 116.786 148.447 115.91C143.787 114.62 140.787 116.42 139.817 121.11C139.697 121.72 139.587 122.33 139.457 123L137.867 123.51C135.167 124.51 133.817 126.16 133.867 129.01C133.946 130.816 134.259 132.604 134.797 134.33C135.029 134.803 135.114 135.335 135.041 135.857C134.968 136.38 134.74 136.868 134.387 137.26C133.588 138.197 133.043 139.323 132.805 140.532C132.566 141.74 132.643 142.989 133.027 144.16C134.587 149.83 138.307 153.76 143.117 156.83C146.974 159.266 151.376 160.705 155.927 161.02C159.347 161.3 162.807 161.36 166.237 161.35C166.769 161.274 167.311 161.384 167.772 161.66C168.233 161.937 168.584 162.364 168.767 162.87C170.537 166.87 172.427 170.76 174.167 174.75C175.027 176.75 174.817 177.2 172.947 178.25C166.032 182.189 158.286 184.443 150.337 184.83C149.147 182.51 148.217 180.41 147.047 178.45C144.047 173.45 140.847 168.45 137.747 163.45C134.067 157.45 130.237 151.64 123.307 148.65C123.637 147.33 123.947 146.21 124.197 145.07C125.567 138.98 124.957 133.13 121.617 127.78C121.061 127.014 120.71 126.118 120.598 125.178C120.485 124.238 120.616 123.285 120.977 122.41C121.137 121.99 121.227 121.54 121.367 121.11C122.447 117.75 122.447 117.81 125.897 117.43C129.215 117.134 132.405 116.01 135.175 114.159C137.945 112.309 140.205 109.792 141.747 106.84C142.147 106.1 142.517 105.37 143.197 104.1Z" fill="#EAECF1"/>
<path d="M173.077 115.69C166.567 115.24 160.867 112.17 157.787 105.2C155.077 99.0501 156.857 92.6001 162.197 88.4201C165.667 85.7101 168.937 84.6101 173.267 87.3101C178.652 90.4874 183.566 94.402 187.867 98.9401C188.397 99.4868 188.784 100.157 188.992 100.89C189.199 101.623 189.222 102.396 189.057 103.14C187.867 110.56 181.617 115.8 173.077 115.69ZM173.307 111.27C175.153 111.312 176.977 110.853 178.583 109.941C180.189 109.028 181.517 107.698 182.427 106.09C182.987 105.303 183.213 104.326 183.056 103.372C182.899 102.418 182.371 101.566 181.587 101C180.077 100 178.247 100.38 176.897 102.27C176.433 102.994 175.77 103.568 174.988 103.922C174.205 104.277 173.337 104.398 172.487 104.27C171.942 104.232 171.395 104.258 170.857 104.35C170.216 104.404 169.61 104.663 169.127 105.088C168.645 105.513 168.312 106.081 168.177 106.71C167.98 107.375 168.028 108.09 168.312 108.723C168.596 109.356 169.098 109.866 169.727 110.16C170.883 110.64 172.082 111.011 173.307 111.27V111.27ZM176.027 93.1301C175.598 93.1138 175.17 93.1848 174.77 93.3387C174.369 93.4926 174.004 93.7262 173.696 94.0254C173.389 94.3246 173.145 94.6832 172.98 95.0793C172.815 95.4755 172.732 95.901 172.737 96.3301C172.715 97.2384 173.053 98.1186 173.676 98.7795C174.3 99.4405 175.159 99.8287 176.067 99.8601C176.931 99.8477 177.756 99.5031 178.373 98.8979C178.989 98.2928 179.349 97.4734 179.377 96.6101C179.4 96.1579 179.33 95.7058 179.172 95.2817C179.014 94.8575 178.77 94.4704 178.456 94.1442C178.142 93.8181 177.764 93.5598 177.346 93.3853C176.929 93.2109 176.479 93.124 176.027 93.1301V93.1301ZM167.397 97.6001C166.967 97.5854 166.539 97.6568 166.138 97.8102C165.736 97.9635 165.37 98.1957 165.059 98.493C164.749 98.7903 164.501 99.1467 164.331 99.5412C164.16 99.9357 164.071 100.36 164.067 100.79C164.034 101.229 164.09 101.67 164.233 102.087C164.375 102.503 164.601 102.886 164.896 103.213C165.191 103.539 165.55 103.803 165.95 103.987C166.349 104.171 166.783 104.271 167.223 104.283C167.663 104.294 168.1 104.216 168.509 104.054C168.918 103.891 169.29 103.647 169.602 103.336C169.914 103.025 170.159 102.654 170.323 102.246C170.487 101.838 170.567 101.4 170.557 100.96C170.571 100.532 170.501 100.104 170.35 99.7032C170.199 99.302 169.97 98.9347 169.676 98.6223C169.382 98.31 169.03 98.0589 168.639 97.8835C168.247 97.708 167.825 97.6117 167.397 97.6001V97.6001Z" fill="white"/>
<path d="M106.986 163.781C108.256 163.231 109.346 162.781 110.386 162.291C113.464 160.907 116.196 158.858 118.386 156.291C119.566 154.841 120.606 154.871 122.116 155.641C124.69 157.03 126.851 159.076 128.376 161.571C133.096 168.781 137.566 176.161 142.126 183.481C142.229 183.726 142.293 183.986 142.316 184.251C131.106 184.741 113.386 174.941 106.986 163.781Z" fill="white"/>
<path d="M100.167 151.151C101.23 151.145 102.29 151.024 103.327 150.791C105.027 150.244 106.655 149.496 108.177 148.561C108.772 148.128 109.188 147.491 109.344 146.772C109.501 146.053 109.388 145.302 109.027 144.661C108.693 144.007 108.142 143.491 107.468 143.201C106.795 142.911 106.041 142.864 105.337 143.071C104.627 143.211 103.977 143.661 103.277 143.741C102.146 143.95 100.987 143.95 99.8568 143.741C97.3668 143.061 97.1668 141.791 99.0668 139.981C101.287 137.861 100.997 135.621 98.5668 133.611C96.1368 131.601 98.0268 128.771 97.9568 126.331C97.9568 124.511 99.4568 124.331 100.837 124.131C109.517 122.821 116.957 128.661 117.947 137.591C118.366 141.775 117.342 145.978 115.045 149.501C112.748 153.024 109.315 155.656 105.317 156.961C103.167 157.631 102.687 157.441 101.777 155.321C101.237 154.131 100.817 152.861 100.167 151.151ZM110.727 137.151C110.755 136.336 110.464 135.542 109.917 134.938C109.371 134.333 108.61 133.965 107.797 133.911C106.943 133.868 106.107 134.156 105.46 134.715C104.814 135.274 104.408 136.06 104.327 136.911C104.299 137.759 104.609 138.584 105.19 139.204C105.77 139.824 106.573 140.188 107.422 140.216C108.27 140.243 109.095 139.933 109.715 139.353C110.335 138.772 110.699 137.969 110.727 137.121V137.151Z" fill="white"/>
<path d="M137.447 95.8904C137.507 105.36 129.967 112.07 122.027 110.46C119.535 109.913 117.271 108.615 115.54 106.741C113.809 104.867 112.694 102.508 112.347 99.9804C112.235 99.3182 112.292 98.6386 112.512 98.0042C112.732 97.3698 113.109 96.8011 113.607 96.3504C118.035 92.185 123.098 88.7519 128.607 86.1804C129.316 85.7836 130.14 85.6388 130.942 85.7695C131.745 85.9002 132.479 86.2988 133.027 86.9004C134.321 88.0321 135.379 89.4094 136.137 90.9526C136.896 92.4957 137.341 94.1741 137.447 95.8904V95.8904ZM124.677 108.78C127.052 108.712 129.326 107.805 131.097 106.22C132.687 104.74 133.017 102.82 131.937 101.39C130.857 99.9604 129.247 99.8104 127.287 100.78C126.169 101.347 125.012 101.835 123.827 102.24C121.747 102.91 120.747 104.1 120.967 105.89C121.187 107.68 122.677 108.74 124.677 108.78ZM119.567 101.96C119.994 101.965 120.418 101.882 120.812 101.717C121.206 101.551 121.562 101.307 121.858 100.999C122.154 100.691 122.384 100.325 122.533 99.9245C122.683 99.5241 122.749 99.0972 122.727 98.6704C122.725 97.8064 122.39 96.9763 121.793 96.3524C121.195 95.7286 120.38 95.359 119.517 95.3204C118.656 95.3439 117.839 95.7037 117.241 96.3224C116.643 96.9412 116.311 97.7698 116.317 98.6304C116.343 99.4933 116.693 100.315 117.297 100.932C117.901 101.548 118.715 101.916 119.577 101.96H119.567ZM131.567 94.2204C131.577 93.8379 131.508 93.4573 131.364 93.1025C131.221 92.7477 131.006 92.4262 130.733 92.1579C130.46 91.8897 130.135 91.6805 129.778 91.5433C129.421 91.4061 129.039 91.3438 128.657 91.3604C128.257 91.3517 127.859 91.4244 127.488 91.5741C127.117 91.7238 126.781 91.9474 126.499 92.2312C126.217 92.515 125.996 92.8532 125.849 93.2251C125.702 93.5971 125.632 93.995 125.644 94.3948C125.655 94.7946 125.748 95.1879 125.916 95.5507C126.084 95.9136 126.325 96.2384 126.623 96.5055C126.92 96.7726 127.269 96.9764 127.648 97.1044C128.027 97.2325 128.428 97.2821 128.827 97.2504C129.202 97.2377 129.572 97.15 129.913 96.9925C130.254 96.8349 130.561 96.6108 130.814 96.3331C131.067 96.0555 131.263 95.73 131.389 95.3757C131.514 95.0215 131.568 94.6457 131.547 94.2704L131.567 94.2204Z" fill="white"/>
<path d="M173.308 111.27C172.084 111.025 170.886 110.666 169.728 110.2C169.1 109.906 168.598 109.396 168.313 108.763C168.029 108.13 167.981 107.416 168.178 106.75C168.313 106.122 168.646 105.553 169.129 105.128C169.611 104.703 170.218 104.445 170.858 104.39C171.396 104.299 171.944 104.272 172.488 104.31C173.338 104.438 174.206 104.318 174.989 103.963C175.772 103.608 176.435 103.034 176.898 102.31C178.248 100.42 180.078 100.06 181.588 101.04C182.372 101.606 182.9 102.459 183.057 103.412C183.215 104.366 182.989 105.343 182.428 106.13C181.513 107.73 180.183 109.053 178.577 109.958C176.971 110.863 175.151 111.317 173.308 111.27V111.27Z" fill="#3558A2"/>
<path d="M176.027 93.1312C176.48 93.1251 176.929 93.212 177.347 93.3864C177.765 93.5609 178.142 93.8191 178.456 94.1453C178.77 94.4715 179.014 94.8586 179.172 95.2828C179.331 95.7069 179.4 96.159 179.377 96.6112C179.349 97.4745 178.989 98.2938 178.373 98.899C177.757 99.5042 176.931 99.8488 176.067 99.8612C175.159 99.8298 174.3 99.4415 173.677 98.7806C173.053 98.1197 172.716 97.2395 172.737 96.3312C172.733 95.9021 172.816 95.4766 172.981 95.0804C173.146 94.6842 173.389 94.3257 173.697 94.0265C174.005 93.7273 174.37 93.4937 174.77 93.3398C175.171 93.1859 175.598 93.1149 176.027 93.1312V93.1312Z" fill="#3558A2"/>
<path d="M167.398 97.5995C167.826 97.6112 168.248 97.7075 168.64 97.8829C169.031 98.0584 169.383 98.3095 169.677 98.6218C169.971 98.9341 170.2 99.3015 170.351 99.7027C170.502 100.104 170.572 100.531 170.558 100.96C170.568 101.4 170.488 101.837 170.324 102.246C170.16 102.654 169.914 103.025 169.603 103.335C169.291 103.646 168.919 103.89 168.51 104.053C168.101 104.216 167.664 104.294 167.224 104.282C166.783 104.271 166.35 104.17 165.95 103.986C165.551 103.802 165.192 103.539 164.897 103.212C164.602 102.886 164.376 102.502 164.234 102.086C164.091 101.67 164.035 101.228 164.068 100.79C164.072 100.36 164.161 99.9352 164.332 99.5406C164.502 99.1461 164.75 98.7897 165.06 98.4924C165.371 98.1951 165.737 97.963 166.139 97.8096C166.54 97.6563 166.968 97.5848 167.398 97.5995V97.5995Z" fill="#3558A2"/>
<path d="M110.728 137.111C110.7 137.959 110.336 138.762 109.716 139.343C109.097 139.923 108.272 140.233 107.423 140.206C106.574 140.178 105.771 139.814 105.191 139.194C104.611 138.574 104.3 137.749 104.328 136.901C104.409 136.05 104.815 135.264 105.461 134.705C106.108 134.146 106.945 133.858 107.798 133.901C108.606 133.955 109.362 134.319 109.908 134.917C110.454 135.515 110.748 136.301 110.728 137.111V137.111Z" fill="#3558A2"/>
<path d="M124.677 108.779C122.677 108.779 121.167 107.589 120.967 105.889C120.767 104.189 121.747 102.889 123.827 102.239C125.013 101.834 126.169 101.346 127.287 100.779C129.287 99.7795 130.887 99.9895 131.937 101.389C132.987 102.789 132.687 104.739 131.097 106.219C129.326 107.804 127.052 108.711 124.677 108.779V108.779Z" fill="#3558A2"/>
<path d="M119.576 101.96C118.716 101.913 117.905 101.545 117.303 100.928C116.701 100.312 116.352 99.4915 116.326 98.6303C116.321 97.7697 116.653 96.9411 117.251 96.3223C117.849 95.7036 118.666 95.3438 119.526 95.3203C120.389 95.3589 121.205 95.7285 121.802 96.3523C122.4 96.9761 122.735 97.8063 122.736 98.6703C122.758 99.0971 122.692 99.5239 122.543 99.9244C122.394 100.325 122.164 100.69 121.868 100.999C121.572 101.307 121.216 101.551 120.821 101.717C120.427 101.882 120.004 101.965 119.576 101.96V101.96Z" fill="#3558A2"/>
<path d="M131.547 94.2696C131.571 94.6482 131.519 95.0277 131.393 95.3856C131.268 95.7435 131.071 96.0723 130.815 96.3524C130.559 96.6325 130.25 96.8581 129.905 97.0157C129.56 97.1733 129.186 97.2597 128.807 97.2696C128.408 97.3014 128.007 97.2517 127.629 97.1237C127.25 96.9956 126.901 96.7918 126.603 96.5247C126.305 96.2576 126.065 95.9328 125.897 95.57C125.728 95.2071 125.636 94.8138 125.624 94.414C125.613 94.0142 125.683 93.6163 125.83 93.2443C125.977 92.8724 126.198 92.5342 126.48 92.2504C126.761 91.9666 127.098 91.743 127.469 91.5933C127.84 91.4436 128.237 91.3709 128.637 91.3796C129.022 91.3628 129.406 91.4259 129.766 91.5649C130.125 91.7039 130.452 91.9158 130.725 92.1873C130.998 92.4588 131.213 92.784 131.354 93.1424C131.496 93.5008 131.561 93.8846 131.547 94.2696Z" fill="#3558A2"/>
</svg>
