<svg width="300" height="300" viewBox="0 0 300 300" fill="none" xmlns="http://www.w3.org/2000/svg">
<path d="M258.973 204.819C241.493 205.689 224.463 206.869 207.403 207.209C201.593 207.329 197.993 209.559 194.343 213.589C183.243 225.829 171.783 237.739 160.553 249.869C159.306 251.292 157.768 252.432 156.043 253.21C154.318 253.988 152.446 254.387 150.553 254.379C130.043 254.819 109.553 255.439 89.0133 255.969C82.4133 256.139 82.4033 256.109 80.4033 249.729C65.7366 202.935 51.07 156.145 36.4033 109.359C35.816 107.271 35.3684 105.146 35.0633 102.999C34.6833 100.739 36.0633 99.4487 37.8633 98.5287C49.6433 92.6753 61.42 86.8287 73.1934 80.9887C76.7634 79.2187 80.3433 77.4087 84.0433 75.9887C88.2133 74.3687 89.6633 75.5587 90.4833 79.9887C91.3833 84.8887 92.6034 89.7287 93.8434 94.5587C94.0357 94.9414 94.3183 95.2716 94.6668 95.5207C95.0152 95.7699 95.419 95.9305 95.8434 95.9887C98.8434 95.9887 101.843 95.7287 104.843 95.4187C105.61 95.2492 106.307 94.8518 106.843 94.2787C121.333 80.7987 135.843 67.3387 150.213 53.7187C152.491 51.3963 155.531 49.9756 158.773 49.7187C171.693 48.6687 184.613 47.5087 197.533 46.3787C206.213 45.6287 214.893 44.8987 223.533 44.0987C228.673 43.6187 230.433 44.7887 231.533 49.8487C235.607 67.8487 239.667 85.8687 243.713 103.909C250.84 135.435 257.98 166.962 265.133 198.489C265.394 199.451 265.539 200.442 265.563 201.439C265.563 203.699 264.323 204.979 262.003 204.999C260.893 204.989 259.723 204.859 258.973 204.819ZM156.403 243.339C156.878 242.985 157.332 242.604 157.763 242.199C166.023 233.399 174.303 224.609 182.483 215.729C182.755 215.329 182.936 214.875 183.012 214.398C183.088 213.921 183.058 213.433 182.923 212.969C180.733 206.359 178.023 199.899 176.243 193.179C175.368 189.412 175.215 185.513 175.793 181.689C176.533 176.059 180.423 171.939 184.163 167.979C184.794 167.437 185.245 166.717 185.455 165.913C185.666 165.109 185.627 164.26 185.343 163.479C182.403 153.029 179.583 142.539 176.703 132.069C175.183 126.519 173.623 120.989 171.963 115.069C168.276 117.284 165.148 120.319 162.823 123.939C156.083 134.159 149.593 144.539 142.823 154.739C140.233 158.649 137.173 162.249 134.343 165.999C133.943 166.529 133.243 167.259 133.343 167.709C134.343 171.519 135.593 175.279 136.783 179.169C137.129 178.99 137.463 178.789 137.783 178.569C144.313 173.089 152.073 175.489 154.083 183.799C156.203 192.519 153.613 200.109 147.593 206.539C146.253 207.979 145.593 209.159 146.493 211.019C146.793 211.778 147.03 212.561 147.203 213.359L156.403 243.339ZM139.033 211.109C137.153 211.339 135.723 211.629 134.273 211.679C126.603 211.959 119.213 211.089 112.973 205.979C108.973 202.699 106.903 197.709 108.333 193.979C110.143 189.309 114.123 187.909 118.753 187.429C122.223 187.069 125.813 186.869 128.753 184.429C129.923 183.429 130.473 182.579 129.913 180.989C128.813 177.829 127.813 174.619 126.963 171.389C126.867 170.672 126.505 170.018 125.949 169.555C125.394 169.093 124.686 168.855 123.963 168.889C118.803 168.569 113.653 168.019 108.483 167.799C93.0833 167.129 79.8333 173.799 66.4033 180.199C66.4955 180.852 66.6258 181.5 66.7933 182.139C70.6933 194.599 74.6533 207.039 78.4833 219.519C79.0033 221.199 79.7633 221.519 81.3833 221.429C92.8733 220.489 104.383 219.659 115.873 218.749C121.233 218.329 123.103 219.639 124.253 224.929C125.403 230.219 126.523 235.569 127.643 240.929C129.043 247.559 129.033 247.569 135.703 247.489C137.063 247.489 138.423 247.489 139.783 247.439C143.083 247.299 146.383 247.129 149.983 246.949L139.033 211.109ZM243.973 137.339C240.103 120.339 236.323 103.609 232.433 86.4687C229.933 87.8687 228.013 89.0587 226.003 90.0687C217.603 94.2887 209.263 98.6487 200.723 102.569C194.143 105.569 187.303 108.009 180.583 110.719C179.293 111.239 178.583 111.989 179.063 113.649C183.613 130.049 188.063 146.469 192.623 162.869C192.823 163.589 193.623 164.619 194.203 164.679C197.503 164.979 200.823 164.879 203.123 161.919C204.192 160.57 205.142 159.131 205.963 157.619C212.433 145.459 222.903 139.399 236.253 137.779C238.663 137.489 241.113 137.499 243.973 137.339V137.339ZM130.673 159.129C131.192 158.715 131.684 158.267 132.143 157.789C133.143 156.499 134.143 155.229 135.043 153.859C141.733 143.379 148.343 132.859 155.043 122.419C158.253 117.419 161.933 112.719 167.113 109.669C169.573 108.229 169.953 106.899 169.113 104.329C167.233 98.3287 165.673 92.1987 163.893 85.7987C160.7 86.401 157.542 87.1788 154.433 88.1287C152.268 88.9583 150.269 90.1709 148.533 91.7087C146.863 93.1387 145.413 94.3287 143.313 92.8587C141.573 91.6387 141.593 89.6587 143.223 87.2987C145.683 83.7487 149.223 81.8587 153.303 80.8087C156.153 80.0787 159.023 79.4387 162.003 78.7387L156.403 58.3587C156.074 58.4592 155.758 58.6003 155.463 58.7787C141.363 71.8987 127.28 85.0287 113.213 98.1687C112.992 98.369 112.817 98.6148 112.699 98.8893C112.582 99.1637 112.525 99.4603 112.533 99.7587C113.973 104.669 115.533 109.549 117.073 114.569C119.343 113.439 121.243 112.389 123.223 111.569C129.643 108.769 136.153 107.349 142.953 110.389C145.743 111.629 146.953 113.439 146.103 115.549C145.253 117.659 143.343 117.919 140.503 117.229C137.993 116.619 135.173 115.679 132.853 116.279C128.613 117.379 124.613 119.439 120.593 121.279C120.291 121.584 120.067 121.959 119.942 122.37C119.816 122.781 119.793 123.216 119.873 123.639C123.403 135.299 126.983 146.989 130.673 159.129V159.129ZM73.0633 145.049C73.5433 144.949 73.9033 144.889 74.2333 144.799C80.7633 142.939 83.7233 144.139 87.1333 149.879C87.3461 150.175 87.6193 150.422 87.9347 150.605C88.2501 150.788 88.6008 150.901 88.9634 150.939C94.5134 151.139 98.1533 153.939 100.163 158.939C100.286 159.501 100.623 159.993 101.103 160.31C101.583 160.628 102.168 160.746 102.733 160.639C105.623 160.529 108.533 160.639 111.423 160.719C115.423 160.879 119.423 161.149 123.863 161.389L113.023 125.929C103.693 131.129 94.5233 133.999 84.5433 128.779C75.0133 123.779 70.2533 115.559 68.1433 105.269L43.2234 106.999C47.0534 119.209 50.7733 130.999 54.5233 142.999C64.4633 136.539 69.0133 137.059 73.0633 145.049V145.049ZM176.543 104.229C181.613 102.229 186.213 100.369 190.883 98.6687C202.323 94.5287 213.563 90.0087 223.683 83.0787C225.356 81.9941 227.156 81.1208 229.043 80.4787C230.393 79.9787 230.933 79.4787 230.573 77.9487C228.573 69.6687 226.683 61.3887 224.903 53.0687C224.533 51.3587 223.753 51.0687 222.283 51.2687C218.683 51.6587 215.053 51.8687 211.473 52.3587C211.004 52.4687 210.563 52.6737 210.176 52.9609C209.789 53.2481 209.465 53.6115 209.223 54.0287C206.223 59.3987 203.763 65.0287 200.503 70.2287C195.113 78.7487 186.823 83.2287 177.153 85.3087C175.423 85.6787 173.633 85.7187 171.533 85.9587C173.273 92.2787 174.903 98.2487 176.543 104.229ZM248.823 158.729C247.823 154.509 247.113 150.779 246.063 147.139C245.86 146.613 245.534 146.143 245.114 145.767C244.693 145.392 244.189 145.121 243.643 144.979C229.843 144.239 218.753 148.839 212.033 161.609C210.133 165.219 207.763 168.519 204.033 170.249C201.393 171.479 198.373 171.889 195.313 172.729C197.673 181.339 200.063 190.239 202.603 199.089C202.763 199.649 204.073 200.239 204.833 200.219C210.913 200.049 216.983 199.739 223.053 199.449C224.053 199.399 225.153 199.249 226.933 199.079C225.543 197.569 224.663 196.479 223.643 195.539C222.443 194.429 221.123 193.469 219.873 192.409C216.653 189.679 215.873 186.319 217.233 182.409C219.013 177.229 222.573 173.779 227.353 171.219C231.35 169.135 235.16 166.713 238.743 163.979C241.753 161.579 244.353 158.729 248.823 158.729ZM257.413 197.729C257.418 197.231 257.388 196.733 257.323 196.239C255.257 187.139 253.18 178.045 251.093 168.959C250.353 165.759 248.273 164.959 245.953 167.329C241.223 172.159 235.503 175.329 229.583 178.389C227.583 179.389 226.133 181.479 224.733 183.299C223.333 185.119 223.923 186.529 225.673 187.969C227.973 189.849 230.893 191.699 231.953 194.229C233.873 198.819 236.863 198.949 240.953 198.539C246.313 197.989 251.763 197.969 257.413 197.729ZM201.283 53.2287L163.543 56.5987C165.393 63.3787 167.193 69.5987 168.763 75.9387C169.283 77.9887 170.133 78.6487 172.273 78.5987C184.813 78.3087 198.893 66.4387 201.503 53.7887C201.473 53.7287 201.413 53.6287 201.283 53.2187V53.2287ZM74.5433 104.849C76.5433 108.909 77.9933 112.569 80.1333 115.719C85.5433 123.719 94.3733 126.199 103.283 122.549C105.283 121.729 107.213 120.689 109.203 119.809C110.523 119.229 110.783 118.439 110.313 117.039C108.953 112.919 107.653 108.769 106.523 104.579C106.073 102.949 105.233 102.679 103.763 102.809C100.513 103.089 97.2533 103.239 93.9933 103.459L74.5433 104.849ZM63.8434 172.849L93.0433 161.239C91.9633 158.499 90.2933 157.639 87.1433 158.539C82.6133 159.839 81.3433 159.009 80.6133 154.269C80.5703 154.091 80.537 153.91 80.5133 153.729C80.3933 151.509 79.0133 150.859 77.1633 151.479C75.7203 152.005 74.3701 152.758 73.1633 153.709C69.9233 156.169 66.8833 155.039 66.2733 151.019C66.1233 150.019 66.2033 149.019 66.0633 148.019C65.7233 145.739 64.3533 145.079 62.4033 146.199C58.3033 148.569 57.1034 151.519 58.4734 155.899C59.2834 158.499 60.1233 161.079 60.9433 163.669C61.9933 166.799 62.9533 169.889 63.8733 172.859L63.8434 172.849ZM121.773 248.399C120.203 241.129 118.773 234.869 117.563 228.549C117.163 226.439 116.303 225.939 114.303 226.109C106.893 226.759 99.4733 227.269 92.0533 227.849C88.5833 228.129 85.1133 228.469 81.3833 228.849C83.4433 235.429 85.3833 241.579 87.3833 247.669C87.6122 248.004 87.9173 248.28 88.2737 248.475C88.63 248.67 89.0275 248.777 89.4334 248.789C94.4334 248.789 99.4334 248.519 104.433 248.459C110.023 248.359 115.633 248.409 121.803 248.409L121.773 248.399ZM188.183 174.229C184.673 178.289 181.373 182.049 182.443 186.979C183.873 193.579 186.243 199.979 188.243 206.449C188.53 207.074 188.893 207.662 189.323 208.199C195.873 202.429 195.873 202.429 193.693 194.329C193.693 194.239 193.693 194.149 193.693 194.059L188.183 174.229ZM83.7733 83.8287L54.5433 98.1087L54.7933 98.9187L86.7933 96.6787L83.7733 83.8287ZM136.903 204.179L132.713 190.549C128.493 193.719 123.953 193.969 119.483 194.639C117.993 194.859 116.623 195.849 115.203 196.499C115.974 197.876 116.819 199.212 117.733 200.499C118.362 201.149 119.113 201.669 119.943 202.029C125.133 204.839 130.673 204.729 136.903 204.179V204.179ZM143.383 200.679C146.993 195.499 148.693 190.629 146.863 185.109C146.618 184.592 146.254 184.141 145.8 183.793C145.346 183.446 144.816 183.211 144.253 183.109C142.623 182.979 139.503 187.609 139.953 189.269C140.933 192.869 142.073 196.379 143.383 200.729V200.679Z" fill="#3558A2"/>
<path d="M156.403 243.339L147.233 213.339C147.06 212.541 146.823 211.758 146.523 210.999C145.583 209.139 146.283 207.999 147.623 206.519C153.623 200.089 156.233 192.519 154.113 183.779C152.113 175.469 144.343 173.069 137.813 178.549C137.493 178.769 137.159 178.97 136.813 179.149C135.623 175.259 134.413 171.499 133.373 167.689C133.243 167.239 133.943 166.509 134.373 165.979C137.203 162.229 140.263 158.629 142.853 154.719C149.603 144.519 156.093 134.139 162.853 123.919C165.178 120.299 168.306 117.264 171.993 115.049C173.653 120.989 175.213 126.519 176.733 132.049C179.613 142.519 182.433 153.049 185.373 163.459C185.657 164.24 185.696 165.089 185.485 165.893C185.275 166.697 184.824 167.417 184.193 167.959C180.453 171.959 176.563 176.039 175.823 181.669C175.245 185.493 175.398 189.392 176.273 193.159C178.053 199.879 180.763 206.339 182.953 212.949C183.088 213.413 183.118 213.901 183.042 214.378C182.966 214.855 182.785 215.31 182.513 215.709C174.333 224.589 166.053 233.379 157.793 242.179C157.353 242.592 156.889 242.979 156.403 243.339V243.339Z" fill="white"/>
<path d="M139.033 211.109L149.963 246.919C146.363 247.099 143.063 247.269 139.763 247.409C138.403 247.469 137.043 247.409 135.683 247.459C129.013 247.539 129.023 247.529 127.623 240.899C126.503 235.566 125.373 230.232 124.233 224.899C123.083 219.609 121.233 218.299 115.853 218.719C104.353 219.629 92.8528 220.459 81.3628 221.399C79.7428 221.529 78.9829 221.169 78.4629 219.489C74.6329 207.009 70.6728 194.569 66.7728 182.109C66.6053 181.47 66.475 180.823 66.3828 180.169C79.8128 173.809 93.0629 167.099 108.463 167.769C113.633 167.989 118.783 168.539 123.943 168.859C124.665 168.825 125.374 169.063 125.929 169.526C126.484 169.988 126.846 170.643 126.943 171.359C127.793 174.589 128.793 177.799 129.893 180.959C130.453 182.549 129.893 183.399 128.733 184.399C125.813 186.869 122.223 187.069 118.733 187.399C114.103 187.879 110.123 189.279 108.313 193.949C106.883 197.649 108.943 202.639 112.953 205.949C119.193 211.059 126.583 211.949 134.253 211.649C135.723 211.629 137.153 211.339 139.033 211.109Z" fill="white"/>
<path d="M243.973 137.339C241.113 137.499 238.663 137.489 236.253 137.779C222.903 139.399 212.433 145.459 205.963 157.619C205.142 159.131 204.191 160.57 203.123 161.919C200.823 164.919 197.503 164.979 194.203 164.679C193.613 164.619 192.823 163.589 192.623 162.869C188.073 146.469 183.623 130.049 179.063 113.649C178.603 111.989 179.293 111.239 180.583 110.719C187.303 108.009 194.143 105.589 200.723 102.569C209.263 98.6488 217.603 94.2888 226.003 90.0688C228.003 89.0688 229.933 87.8688 232.433 86.4688C236.323 103.609 240.103 120.299 243.973 137.339Z" fill="white"/>
<path d="M130.672 159.128C126.982 146.988 123.403 135.299 119.933 123.589C119.852 123.166 119.876 122.731 120.001 122.32C120.127 121.908 120.35 121.534 120.652 121.229C124.652 119.389 128.652 117.329 132.912 116.229C135.232 115.629 138.053 116.569 140.563 117.179C143.403 117.869 145.392 117.459 146.162 115.499C146.932 113.539 145.802 111.579 143.012 110.339C136.212 107.339 129.702 108.719 123.282 111.519C121.282 112.389 119.402 113.439 117.132 114.519C115.572 109.519 114.033 104.619 112.593 99.7086C112.585 99.4102 112.641 99.1136 112.759 98.8392C112.876 98.5647 113.051 98.3189 113.272 98.1186C127.332 84.9719 141.416 71.8419 155.522 58.7286C155.817 58.5502 156.133 58.4091 156.463 58.3086L162.063 78.6886C159.063 79.3886 156.212 80.0286 153.362 80.7586C149.292 81.8086 145.742 83.6986 143.282 87.2486C141.652 89.6086 141.632 91.5886 143.372 92.8086C145.472 94.2786 146.923 93.0886 148.593 91.6586C150.328 90.1208 152.327 88.9081 154.492 88.0786C157.601 87.1287 160.759 86.3508 163.953 85.7486C165.733 92.1486 167.293 98.2685 169.173 104.279C169.973 106.849 169.593 108.179 167.173 109.619C161.993 112.669 158.313 117.369 155.103 122.369C148.383 132.819 141.773 143.368 135.103 153.808C134.223 155.178 133.193 156.448 132.203 157.738C131.725 158.236 131.214 158.701 130.672 159.128V159.128Z" fill="white"/>
<path d="M73.0626 145.048C69.0626 137.048 64.4626 136.538 54.5226 143.048C50.7726 131.048 47.0527 119.258 43.2227 107.048L68.1426 105.318C70.2526 115.608 75.0126 123.838 84.5426 128.828C94.5426 134.048 103.693 131.178 113.023 125.978L123.863 161.438C119.473 161.198 115.453 160.928 111.423 160.768C108.533 160.648 105.623 160.578 102.733 160.688C102.167 160.795 101.582 160.678 101.102 160.36C100.622 160.043 100.285 159.551 100.163 158.988C98.1626 153.988 94.5126 151.168 88.9626 150.988C88.6 150.951 88.2494 150.837 87.934 150.654C87.6185 150.472 87.3454 150.224 87.1326 149.928C83.7226 144.188 80.7625 142.988 74.2325 144.848C73.9025 144.888 73.5426 144.948 73.0626 145.048Z" fill="white"/>
<path d="M176.543 104.23C174.903 98.2295 173.273 92.2795 171.543 85.9595C173.643 85.7195 175.433 85.6795 177.163 85.3095C186.833 83.2195 195.163 78.7495 200.513 70.2295C203.773 65.0595 206.273 59.3995 209.233 54.0295C209.474 53.6123 209.798 53.2489 210.185 52.9617C210.572 52.6745 211.014 52.4696 211.483 52.3595C215.063 51.8695 218.693 51.6595 222.293 51.2695C223.763 51.1095 224.543 51.3595 224.913 53.0695C226.693 61.3895 228.623 69.6695 230.583 77.9495C230.943 79.4695 230.403 79.9495 229.053 80.4795C227.166 81.1217 225.366 81.995 223.693 83.0795C213.573 90.0095 202.333 94.5295 190.893 98.6695C186.213 100.37 181.613 102.26 176.543 104.23Z" fill="white"/>
<path d="M248.823 158.729C244.353 158.729 241.752 161.579 238.742 163.939C235.159 166.673 231.349 169.096 227.353 171.179C222.573 173.739 219.012 177.179 217.232 182.369C215.862 186.319 216.652 189.679 219.872 192.369C221.122 193.429 222.442 194.369 223.642 195.499C224.642 196.439 225.542 197.499 226.932 199.039C225.152 199.209 224.102 199.359 223.052 199.409C216.982 199.699 210.913 200.009 204.833 200.179C204.073 200.179 202.763 199.609 202.603 199.049C200.063 190.199 197.672 181.299 195.312 172.689C198.372 171.849 201.392 171.439 204.032 170.209C207.762 168.479 210.132 165.209 212.032 161.569C218.752 148.799 229.842 144.199 243.642 144.939C244.188 145.082 244.692 145.352 245.113 145.728C245.534 146.103 245.859 146.573 246.062 147.099C247.112 150.779 247.853 154.509 248.823 158.729Z" fill="#CBCFDD"/>
<path d="M257.414 197.73C251.764 197.98 246.314 198 240.924 198.54C236.864 198.95 233.874 198.82 231.924 194.23C230.864 191.7 227.924 189.85 225.644 187.97C223.894 186.53 223.414 184.97 224.704 183.3C225.994 181.63 227.604 179.4 229.554 178.39C235.474 175.39 241.194 172.16 245.924 167.33C248.244 164.95 250.324 165.76 251.064 168.96C253.157 178.046 255.234 187.14 257.294 196.24C257.369 196.733 257.409 197.231 257.414 197.73Z" fill="#979FBB"/>
<path d="M201.282 53.2188C201.412 53.6287 201.472 53.7188 201.452 53.7888C198.842 66.4387 184.762 78.3087 172.222 78.5987C170.082 78.6487 169.222 77.9887 168.712 75.9387C167.142 69.6287 165.342 63.3787 163.492 56.5987L201.282 53.2188Z" fill="white"/>
<path d="M74.543 104.85L93.9929 103.46C97.2529 103.24 100.513 103.09 103.763 102.81C105.233 102.68 106.073 102.95 106.523 104.58C107.653 108.77 108.953 112.92 110.313 117.04C110.783 118.44 110.523 119.23 109.203 119.81C107.203 120.69 105.293 121.73 103.283 122.55C94.373 126.2 85.5429 123.73 80.1329 115.72C78.0229 112.57 76.623 108.91 74.543 104.85Z" fill="white"/>
<path d="M63.8735 172.859C62.9535 169.859 61.9936 166.799 61.0136 163.699C60.1936 161.109 59.3536 158.529 58.5436 155.929C57.1736 151.549 58.3736 148.599 62.4736 146.229C64.4736 145.109 65.7935 145.769 66.1335 148.049C66.2735 149.049 66.1936 150.049 66.3436 151.049C66.9536 155.049 69.9935 156.199 73.2335 153.739C74.4403 152.788 75.7905 152.036 77.2335 151.509C79.0835 150.889 80.4636 151.509 80.5836 153.759C80.6073 153.941 80.6406 154.121 80.6836 154.299C81.4136 159.039 82.6836 159.869 87.2136 158.569C90.3636 157.669 92.0335 158.569 93.1135 161.269L63.8735 172.859Z" fill="#CBCFDD"/>
<path d="M121.803 248.408C115.633 248.408 110.023 248.408 104.413 248.408C99.4133 248.468 94.4133 248.698 89.4133 248.738C89.0074 248.727 88.6101 248.619 88.2538 248.424C87.8975 248.23 87.5922 247.953 87.3633 247.618C85.3633 241.528 83.4433 235.378 81.3633 228.798C85.0933 228.458 88.5633 228.118 92.0333 227.798C99.4533 227.218 106.873 226.708 114.283 226.058C116.283 225.888 117.143 226.388 117.543 228.498C118.773 234.878 120.233 241.138 121.803 248.408ZM95.5033 237.508V237.438C99.5633 237.218 103.643 237.118 107.693 236.748C109.693 236.568 111.373 235.448 111.273 233.088C111.173 230.728 109.393 229.568 107.203 229.638C102.503 229.768 97.8133 230.108 93.1233 230.458C90.9333 230.628 89.5133 231.918 89.6733 234.178C89.8333 236.438 91.4634 237.388 93.6034 237.498C94.2334 237.538 94.8733 237.508 95.5433 237.508H95.5033ZM101.183 246.258V246.198C103.273 246.198 105.363 246.198 107.443 246.198C110.323 246.098 111.933 244.738 111.933 242.528C111.933 240.318 110.323 238.868 107.463 238.878C103.113 238.878 98.7633 239.068 94.4033 239.178C92.1033 239.238 90.5433 240.268 90.4033 242.698C90.2733 244.698 92.0533 246.198 94.6633 246.258C96.8333 246.308 99.0133 246.258 101.183 246.258Z" fill="#979FBB"/>
<path d="M188.212 174.238L193.672 194.068C193.672 194.158 193.672 194.248 193.672 194.338C195.852 202.438 195.852 202.438 189.302 208.208C188.872 207.672 188.509 207.084 188.222 206.458C186.222 199.988 183.852 193.588 182.422 186.988C181.402 182.058 184.702 178.298 188.212 174.238Z" fill="#CBCFDD"/>
<path opacity="0.5" d="M83.7734 83.8281L86.7734 96.6781L54.7734 98.9181L54.5234 98.1081L83.7734 83.8281Z" fill="#3558A2"/>
<path d="M136.904 204.178C130.674 204.708 125.134 204.838 119.904 202.058C119.074 201.698 118.323 201.179 117.694 200.528C116.78 199.241 115.935 197.906 115.164 196.528C116.584 195.878 117.954 194.888 119.444 194.668C123.914 193.998 128.444 193.748 132.674 190.578L136.904 204.178Z" fill="#CBCFDD"/>
<path d="M143.384 200.728C142.074 196.428 140.934 192.918 139.954 189.358C139.504 187.698 142.624 183.068 144.254 183.198C144.817 183.3 145.347 183.535 145.801 183.883C146.255 184.23 146.619 184.681 146.864 185.198C148.694 190.628 146.994 195.498 143.384 200.728Z" fill="#CBCFDD"/>
<path d="M95.544 237.508C94.914 237.508 94.274 237.508 93.644 237.508C91.504 237.398 89.864 236.508 89.714 234.188C89.564 231.868 90.974 230.638 93.164 230.468C97.854 230.118 102.544 229.778 107.244 229.648C109.434 229.578 111.244 230.648 111.314 233.098C111.384 235.548 109.784 236.578 107.734 236.758C103.684 237.128 99.604 237.228 95.544 237.448V237.508Z" fill="#3558A2"/>
<path d="M101.183 246.259C99.0134 246.259 96.8334 246.309 94.6534 246.259C92.0434 246.199 90.2634 244.749 90.3934 242.699C90.5434 240.269 92.1034 239.239 94.3934 239.179C98.7534 239.069 103.103 238.889 107.453 238.879C110.313 238.879 111.933 240.299 111.923 242.529C111.913 244.759 110.313 246.099 107.433 246.199C105.353 246.259 103.263 246.199 101.173 246.199L101.183 246.259Z" fill="#3558A2"/>
</svg>
