<svg width="300" height="300" viewBox="0 0 300 300" fill="none" xmlns="http://www.w3.org/2000/svg">
<path d="M208.217 156.191C207.217 157.851 205.897 160.191 204.467 162.511C199.047 171.231 192.567 179.051 184.037 184.861C173.155 192.48 160.057 196.281 146.787 195.671C131.687 195.021 117.047 192.361 103.447 185.381C101.907 184.59 100.158 184.303 98.4469 184.561C90.0669 185.491 82.3269 183.851 75.9269 178.001C74.2889 176.603 72.9314 174.906 71.9269 173.001C67.6769 164.001 67.857 155.121 73.777 146.731C75.8529 143.71 78.8694 141.46 82.3569 140.331C85.1018 139.403 87.9274 138.733 90.7969 138.331C93.1268 137.987 95.3039 136.964 97.0569 135.391C102.837 130.711 108.477 125.811 114.567 121.571C121.327 116.871 128.477 112.711 135.567 108.481C140.807 105.361 146.637 105.041 152.647 105.001C164.187 104.931 174.937 108.811 186.007 111.121C188.378 111.724 190.665 112.617 192.817 113.781C193.924 114.388 195.211 114.579 196.447 114.321C200.154 113.466 203.902 112.799 207.677 112.321C210.735 111.965 213.828 112.036 216.867 112.531C223.647 113.771 228.437 117.781 230.447 124.441C231.727 128.681 231.097 133.071 229.927 137.331C228.878 141.112 226.842 144.547 224.027 147.281C221.2 150.241 217.859 152.663 214.167 154.431C212.217 155.125 210.231 155.713 208.217 156.191V156.191ZM98.5169 143.411C99.8369 155.248 102.138 166.955 105.397 178.411C109.057 179.951 112.797 181.901 116.757 183.111C127.049 186.397 137.765 188.165 148.567 188.361C157.958 188.435 167.211 186.093 175.437 181.561C187.777 174.911 195.587 164.101 202.037 152.111C202.336 151.553 202.498 150.932 202.51 150.299C202.522 149.667 202.384 149.04 202.107 148.471C200.797 145.191 199.677 141.841 198.417 138.541C196.67 133.974 194.89 129.418 193.077 124.871C191.607 121.171 188.707 119.201 184.967 118.281C181.967 117.551 178.967 116.891 175.967 116.141C167.877 114.141 159.807 112.141 151.337 112.141C146.61 112.032 141.938 113.167 137.787 115.431C129.6 119.954 121.755 125.071 114.317 130.741C109.087 134.801 103.987 139.021 98.5169 143.411ZM209.677 148.171C216.857 145.651 223.507 138.921 223.807 130.301C224.017 124.461 220.617 120.071 214.747 119.461C209.699 118.896 204.588 119.495 199.807 121.211L209.677 148.171ZM91.0069 145.731C81.8469 146.731 79.2969 150.151 77.1269 156.301C76.132 159.437 76.132 162.805 77.1269 165.941C77.7769 168.321 78.4969 170.551 80.4469 172.331C84.9169 176.421 90.2969 177.511 96.0669 177.521C96.3797 177.466 96.6808 177.358 96.9569 177.201C94.9869 166.701 93.0169 156.311 91.0069 145.731V145.731Z" fill="#3558A2"/>
<path d="M98.5176 143.412C103.988 139.022 109.088 134.802 114.318 130.752C121.756 125.081 129.6 119.964 137.787 115.442C141.938 113.177 146.611 112.043 151.338 112.152C159.808 112.152 167.878 114.152 175.968 116.152C178.968 116.902 181.968 117.562 184.968 118.292C188.708 119.212 191.607 121.182 193.077 124.882C194.877 129.428 196.657 133.985 198.417 138.552C199.677 141.852 200.798 145.202 202.108 148.482C202.385 149.051 202.523 149.677 202.511 150.31C202.498 150.943 202.336 151.564 202.037 152.122C195.587 164.122 187.777 174.922 175.437 181.572C167.212 186.104 157.959 188.446 148.567 188.372C137.765 188.176 127.05 186.407 116.758 183.122C112.758 181.912 109.058 179.962 105.398 178.422C102.138 166.962 99.8369 155.252 98.5176 143.412V143.412ZM129.518 161.412V161.132C130.608 161.132 131.697 161.192 132.787 161.132C144.247 160.402 155.528 158.632 166.348 154.692C171.878 152.692 177.248 150.232 182.648 147.862C183.102 147.702 183.518 147.451 183.871 147.124C184.224 146.796 184.505 146.4 184.699 145.959C184.892 145.518 184.992 145.043 184.994 144.561C184.995 144.08 184.898 143.604 184.707 143.162C184.514 142.7 184.229 142.283 183.869 141.935C183.51 141.587 183.083 141.316 182.616 141.137C182.149 140.958 181.65 140.877 181.15 140.896C180.65 140.916 180.159 141.037 179.707 141.252C178.437 141.742 177.218 142.342 175.998 142.952C165.228 148.272 153.778 151.302 141.998 153.052C134.075 154.192 126.03 154.192 118.108 153.052C117.574 152.949 117.031 152.895 116.488 152.892C115.662 152.844 114.847 153.093 114.188 153.594C113.53 154.094 113.073 154.813 112.898 155.622C112.756 156.438 112.921 157.278 113.36 157.981C113.799 158.684 114.482 159.2 115.278 159.432C116.217 159.776 117.194 160.008 118.187 160.122C121.987 160.592 125.767 161.002 129.547 161.442L129.518 161.412ZM118.238 147.412C124.854 146.875 131.412 145.767 137.838 144.102C147.47 141.859 156.949 139.003 166.218 135.552C169.788 134.232 173.387 132.992 176.937 131.622C179.457 130.622 180.627 128.482 179.838 126.622C179.048 124.762 176.998 124.042 174.498 124.842L173.988 125.012C167.928 127.182 161.987 129.622 155.787 131.472C147.287 134.032 138.707 136.392 130.047 138.342C125.137 139.452 120.048 139.582 114.958 140.112C112.958 140.322 111.707 141.232 111.417 142.882C111.239 143.742 111.407 144.638 111.884 145.375C112.361 146.112 113.11 146.632 113.968 146.822C115.384 147.131 116.821 147.331 118.268 147.422L118.238 147.412ZM139.008 176.622V176.932C143.318 176.332 147.647 175.872 151.917 175.102C161.487 173.382 170.058 168.912 178.768 164.902C179.501 164.546 180.128 164.005 180.587 163.332C180.948 162.832 181.164 162.243 181.213 161.629C181.262 161.016 181.142 160.4 180.866 159.85C180.589 159.299 180.168 158.835 179.646 158.507C179.125 158.18 178.523 158.001 177.907 157.992C177.092 157.971 176.282 158.121 175.528 158.432C173.428 159.282 171.327 160.152 169.307 161.182C158.307 166.822 146.668 169.792 134.228 169.182C133.415 169.163 132.602 169.24 131.807 169.412C131.122 169.51 130.491 169.842 130.023 170.353C129.554 170.863 129.277 171.52 129.238 172.212C129.108 172.891 129.21 173.594 129.527 174.209C129.844 174.824 130.359 175.314 130.988 175.602C132.138 176.132 133.368 176.47 134.628 176.602C136.096 176.694 137.568 176.704 139.037 176.632L139.008 176.622Z" fill="#979FBB"/>
<path d="M129.546 161.441C125.766 161.001 121.986 160.591 118.216 160.121C117.222 160.007 116.245 159.776 115.306 159.431C114.51 159.199 113.828 158.683 113.389 157.98C112.95 157.277 112.785 156.437 112.926 155.621C113.101 154.813 113.559 154.094 114.217 153.593C114.875 153.093 115.691 152.843 116.516 152.891C117.06 152.894 117.602 152.948 118.136 153.051C126.059 154.191 134.104 154.191 142.026 153.051C153.836 151.301 165.286 148.271 176.026 142.951C177.246 142.341 178.466 141.741 179.736 141.251C180.188 141.036 180.679 140.915 181.179 140.895C181.679 140.876 182.177 140.958 182.645 141.136C183.112 141.315 183.539 141.586 183.898 141.934C184.257 142.282 184.543 142.699 184.736 143.161C184.927 143.603 185.024 144.079 185.023 144.56C185.021 145.042 184.921 145.518 184.727 145.958C184.534 146.399 184.252 146.795 183.899 147.123C183.547 147.45 183.13 147.701 182.676 147.861C177.276 150.231 171.906 152.681 166.376 154.691C155.556 158.631 144.276 160.401 132.816 161.131C131.726 161.201 130.636 161.131 129.546 161.131V161.441Z" fill="#3558A2"/>
<path d="M118.267 147.42C116.829 147.315 115.402 147.101 113.997 146.78C113.139 146.591 112.39 146.071 111.913 145.334C111.436 144.596 111.268 143.7 111.447 142.84C111.737 141.19 112.987 140.28 114.987 140.07C119.987 139.54 125.167 139.41 130.077 138.3C138.737 136.35 147.317 133.99 155.817 131.43C161.977 129.58 167.957 127.14 174.017 124.97L174.527 124.8C177.027 124 179.077 124.68 179.867 126.58C180.657 128.48 179.487 130.67 176.967 131.58C173.417 132.95 169.817 134.19 166.247 135.51C156.978 138.962 147.499 141.818 137.867 144.06C131.442 145.743 124.885 146.867 118.267 147.42Z" fill="#3558A2"/>
<path d="M139.035 176.631C137.586 176.712 136.134 176.712 134.685 176.631C133.425 176.499 132.196 176.162 131.045 175.631C130.416 175.344 129.902 174.853 129.585 174.239C129.267 173.624 129.165 172.921 129.295 172.241C129.334 171.55 129.612 170.893 130.08 170.383C130.549 169.872 131.179 169.54 131.865 169.441C132.66 169.27 133.472 169.193 134.285 169.211C146.725 169.791 158.345 166.821 169.365 161.211C171.365 160.211 173.485 159.311 175.585 158.461C176.339 158.15 177.15 158.001 177.965 158.021C178.581 158.031 179.182 158.21 179.704 158.537C180.225 158.865 180.647 159.329 180.923 159.879C181.199 160.43 181.32 161.045 181.271 161.659C181.222 162.273 181.005 162.862 180.645 163.361C180.186 164.034 179.558 164.575 178.825 164.931C170.115 168.931 161.545 173.411 151.975 175.131C147.705 175.901 143.375 176.361 139.065 176.961L139.035 176.631Z" fill="#3558A2"/>
</svg>
