<svg width="300" height="300" viewBox="0 0 300 300" fill="none" xmlns="http://www.w3.org/2000/svg">
<path d="M181.642 189.952C180.472 191.372 179.361 192.672 178.291 193.952C175.331 197.632 172.378 201.315 169.432 205.001C169.211 205.289 168.974 205.563 168.722 205.822C166.922 207.652 165.792 207.822 163.722 206.162C160.532 203.602 157.421 200.962 154.271 198.352C151.971 196.442 149.642 194.552 147.382 192.592C146.349 191.708 145.405 190.727 144.562 189.662C142.912 187.532 142.951 186.192 144.661 184.042C147.151 180.922 149.662 177.851 152.232 174.751L156.531 169.462C155.691 168.722 154.922 168.002 154.112 167.342C150.112 164.052 146.112 160.792 142.112 157.512C141.534 157.072 140.998 156.58 140.512 156.042C139.932 155.446 139.607 154.648 139.607 153.817C139.607 152.985 139.932 152.187 140.512 151.592C145.672 145.265 150.855 138.955 156.062 132.662C157.782 130.592 159.142 130.402 161.541 131.782C163.036 132.628 164.454 133.602 165.781 134.692C169.051 137.432 172.222 140.282 175.452 143.072C175.912 143.482 176.452 143.811 177.122 144.301C179.702 141.161 182.242 138.102 184.752 135.012C186.122 133.322 187.422 131.581 188.752 129.871C189.049 129.411 189.446 129.022 189.913 128.734C190.38 128.447 190.905 128.267 191.451 128.208C191.996 128.15 192.548 128.214 193.065 128.396C193.583 128.579 194.053 128.874 194.442 129.262C200.502 134.462 206.548 139.675 212.582 144.902C214.822 146.902 214.982 148.622 213.062 151.032C209.902 155.032 206.662 158.932 203.472 162.882C202.792 163.712 202.152 164.582 201.382 165.582C202.302 166.432 203.072 167.182 203.872 167.882L215.372 177.882L216.372 178.792C219.162 181.342 219.252 183.052 216.722 185.962C215.642 187.192 214.542 188.391 213.452 189.611C210.072 193.411 206.712 197.221 203.302 200.991C200.732 203.841 199.022 203.991 196.102 201.621C192.102 198.421 188.231 195.191 184.291 191.991C183.501 191.361 182.642 190.722 181.642 189.952ZM150.952 186.952L165.572 199.061L169.012 194.861C172.172 191.011 175.281 187.112 178.531 183.332C180.031 181.582 181.672 181.521 183.602 182.801C184.058 183.109 184.495 183.442 184.911 183.801C187.271 185.801 189.602 187.801 191.982 189.801C194.362 191.801 196.732 193.662 199.262 195.702L210.712 182.852C209.712 181.972 208.961 181.232 208.151 180.522C204.311 177.192 200.452 173.892 196.632 170.522C192.812 167.152 192.772 165.251 196.012 161.431C197.772 159.351 199.541 157.302 201.271 155.202C203.001 153.102 204.651 150.992 206.521 148.642L192.281 136.452L190.222 138.921C187.222 142.471 184.421 146.142 181.291 149.542C178.161 152.942 176.511 152.781 173.161 149.931C169.571 146.871 166.032 143.751 162.462 140.671C161.662 139.981 160.832 139.331 159.872 138.551L147.732 153.462C148.049 153.791 148.383 154.105 148.732 154.402C152.812 157.722 156.912 161.022 160.972 164.402C161.969 165.186 162.881 166.074 163.692 167.051C164.28 167.698 164.591 168.548 164.559 169.421C164.527 170.294 164.155 171.12 163.521 171.722C161.301 174.372 159.112 177.022 156.922 179.722C154.972 181.952 153.052 184.372 150.952 186.952Z" fill="#3558A2"/>
<path d="M99.0713 58.101C100.604 58.7369 102.097 59.4648 103.541 60.281C113.311 66.401 123.031 72.5909 132.761 78.7509C140.888 83.8909 149.021 89.0276 157.161 94.161C161.941 97.161 162.281 98.6409 159.301 103.311C156.581 107.601 154.051 112.011 151.431 116.371C148.811 120.731 146.431 121.431 141.831 118.641C138.331 116.531 134.891 114.321 131.431 112.161C117.285 103.301 103.135 94.441 88.9813 85.581C87.8303 84.8593 86.7339 84.0537 85.7013 83.1709C83.9613 81.7009 83.7013 80.4509 84.7013 78.3609C85.2013 77.2909 85.8213 76.2809 86.4013 75.2609C89.1813 70.3709 91.9814 65.491 94.7614 60.601C95.1301 59.7874 95.7435 59.1093 96.5161 58.6611C97.2888 58.2129 98.182 58.0171 99.0713 58.101V58.101ZM99.5313 65.591L91.6613 79.4509L145.661 113.161L153.661 99.8109L99.5313 65.591Z" fill="#3558A2"/>
<path d="M106.831 171.061C107.734 171.414 108.567 171.925 109.291 172.571C110.256 173.769 111.013 175.121 111.531 176.571C118.451 196.324 125.331 216.091 132.171 235.871C132.311 236.301 132.471 236.721 132.591 237.161C133.291 239.741 132.591 241.311 130.051 242.341C128.801 242.861 127.501 243.271 126.211 243.701C120.878 245.487 115.545 247.267 110.211 249.041C109.367 249.37 108.488 249.605 107.591 249.74C105.591 249.93 103.991 248.671 103.131 246.131C101.381 240.981 99.7013 235.821 97.9813 230.661C92.9079 215.561 87.8313 200.457 82.7513 185.351C82.6413 185.011 82.4913 184.681 82.3813 184.351C81.3813 181.141 82.3212 179.181 85.5212 177.961C87.3812 177.241 89.2812 176.671 91.1812 176.051C95.4812 174.651 99.7846 173.261 104.091 171.881C104.911 171.601 105.701 171.391 106.831 171.061ZM125.471 236.86C118.671 217.281 111.951 197.971 105.151 178.431C99.7612 180.341 94.4712 181.721 89.4212 183.701C90.9512 190.201 108.151 240.58 109.421 242.3L125.471 236.86Z" fill="#3558A2"/>
<path d="M151.042 61.6603C151.892 65.2203 150.412 68.4603 147.552 71.2003C146.382 72.344 144.991 73.2364 143.464 73.8228C141.937 74.4092 140.306 74.6772 138.672 74.6103C132.072 74.4503 127.392 69.6103 127.502 63.1503C127.548 61.4964 127.922 59.868 128.603 58.3598C129.283 56.8516 130.256 55.4935 131.466 54.3642C132.675 53.2349 134.096 52.3569 135.647 51.7811C137.199 51.2054 138.849 50.9434 140.502 51.0102C141.896 51.0088 143.276 51.2841 144.562 51.8202C145.849 52.3563 147.016 53.1425 147.997 54.1331C148.977 55.1238 149.751 56.2993 150.274 57.5914C150.797 58.8835 151.058 60.2666 151.042 61.6603V61.6603ZM138.942 67.9803C140.493 67.97 141.984 67.3774 143.12 66.3199C144.255 65.2624 144.952 63.8171 145.072 62.2703C145.302 59.9503 142.602 57.5603 140.072 57.5803C138.518 57.5792 137.024 58.1811 135.905 59.2592C134.786 60.3372 134.129 61.8074 134.072 63.3603C134.047 63.9938 134.159 64.6253 134.399 65.2122C134.639 65.7991 135.002 66.3277 135.463 66.7626C135.925 67.1974 136.474 67.5285 137.074 67.7333C137.674 67.9382 138.311 68.0122 138.942 67.9503V67.9803Z" fill="#3558A2"/>
<path d="M94.2612 115.771C94.0112 108.981 100.261 103.241 106.701 103.311C112.701 103.371 117.701 107.811 117.921 112.911C118.061 116.911 117.611 120.441 114.551 123.311C113.393 124.465 112.019 125.379 110.507 126C108.995 126.621 107.376 126.938 105.741 126.931C99.1111 126.951 94.2612 122.201 94.2612 115.771ZM105.651 120.291C107.202 120.299 108.699 119.722 109.842 118.674C110.986 117.627 111.693 116.187 111.821 114.641C112.101 112.321 109.421 109.901 106.881 109.901C105.336 109.9 103.849 110.495 102.731 111.562C101.613 112.63 100.951 114.087 100.881 115.631C100.846 116.262 100.947 116.892 101.176 117.481C101.405 118.07 101.757 118.602 102.209 119.044C102.66 119.485 103.201 119.825 103.795 120.04C104.389 120.255 105.021 120.341 105.651 120.291V120.291Z" fill="#3558A2"/>
<path d="M150.952 186.951C153.052 184.371 154.952 181.951 156.952 179.591C159.142 176.931 161.332 174.281 163.552 171.591C164.185 170.989 164.558 170.163 164.589 169.29C164.621 168.417 164.31 167.567 163.722 166.921C162.911 165.944 162 165.055 161.002 164.271C156.942 160.921 152.842 157.621 148.762 154.271C148.413 153.974 148.079 153.661 147.762 153.331L159.832 138.491C160.832 139.271 161.622 139.921 162.422 140.611C165.992 143.691 169.532 146.811 173.122 149.871C176.472 152.721 178.262 152.751 181.252 149.481C184.242 146.211 187.252 142.411 190.182 138.861L192.242 136.391L206.482 148.581C204.612 150.931 202.942 153.051 201.232 155.141C199.522 157.231 197.732 159.291 195.972 161.371C192.732 165.191 192.852 167.171 196.592 170.461C200.332 173.751 204.272 177.121 208.112 180.461C208.922 181.171 209.702 181.911 210.672 182.791L199.222 195.641C196.692 193.641 194.292 191.691 191.942 189.741C189.592 187.791 187.232 185.741 184.872 183.741C184.455 183.382 184.018 183.048 183.562 182.741C181.632 181.461 179.992 181.521 178.492 183.271C175.242 187.051 172.132 190.951 168.972 194.801L165.532 199.001L150.952 186.951Z" fill="#EAECF1"/>
<path d="M99.5312 65.5898L153.611 99.8097L145.611 113.16L91.6113 79.4498L99.5312 65.5898Z" fill="#979FBB"/>
<path d="M125.48 236.86L109.48 242.3C108.2 240.58 91.0005 190.2 89.4805 183.7C94.5305 181.7 99.8204 180.34 105.21 178.43C111.96 197.95 118.68 217.28 125.48 236.86Z" fill="white"/>
<path d="M138.942 67.951C138.311 68.0072 137.676 67.928 137.079 67.7186C136.481 67.5092 135.936 67.1745 135.478 66.737C135.021 66.2995 134.662 65.7692 134.427 65.1817C134.191 64.5943 134.084 63.9632 134.112 63.3309C134.169 61.778 134.826 60.3078 135.945 59.2297C137.064 58.1516 138.558 57.5497 140.112 57.5508C142.652 57.5508 145.352 59.9208 145.112 62.2409C144.991 63.7945 144.289 65.2455 143.145 66.304C142.001 67.3625 140.5 67.9506 138.942 67.951V67.951Z" fill="#979FBB"/>
<path d="M105.652 120.29C105.022 120.341 104.388 120.257 103.793 120.042C103.198 119.828 102.656 119.488 102.203 119.047C101.75 118.605 101.397 118.072 101.167 117.483C100.938 116.893 100.837 116.262 100.872 115.63C100.942 114.086 101.604 112.629 102.722 111.561C103.84 110.494 105.326 109.899 106.872 109.9C109.412 109.9 112.092 112.32 111.812 114.64C111.684 116.184 110.978 117.623 109.837 118.67C108.695 119.717 107.201 120.296 105.652 120.29Z" fill="#979FBB"/>
</svg>
