<svg width="300" height="300" viewBox="0 0 300 300" fill="none" xmlns="http://www.w3.org/2000/svg">
<path d="M111.717 204.8C111.829 204.552 111.9 204.289 111.927 204.02C111.687 200.86 111.417 197.7 111.157 194.55C111.097 193.92 111.027 193.29 110.987 192.65C110.577 186.05 110.187 179.45 109.757 172.85C109.437 167.79 109.081 162.73 108.687 157.67C108.217 151.53 107.687 145.4 107.227 139.26C106.957 135.64 106.807 132.02 106.567 128.4C106.387 125.6 106.147 122.8 105.917 119.78C105.309 119.498 104.68 119.26 104.037 119.07C86.0374 115.01 74.1074 103.9 67.4074 86.9795C64.8902 80.6242 63.7452 73.8085 64.0474 66.9795C64.9374 44.8595 78.4574 26.7595 98.4174 20.3395C109.932 16.5245 122.485 17.4012 133.357 22.7795C138.547 25.2395 143.447 28.0695 147.517 32.2295C155.161 39.8666 160.237 49.6953 162.037 60.3495C164.587 75.1295 161.487 88.6995 152.567 100.77C146.223 109.414 137.129 115.644 126.777 118.44C126.087 118.64 125.417 118.87 124.597 119.12C124.667 119.84 124.747 120.44 124.797 121.04C125.207 126.04 125.597 130.97 126.017 135.94C126.337 139.82 126.697 143.69 127.017 147.57C127.247 150.28 127.427 152.99 127.657 155.7C127.967 159.48 128.307 163.27 128.657 167.06C128.857 169.4 129.067 171.75 129.237 174.06C129.477 177.31 129.637 180.57 129.907 183.82C130.427 189.93 130.997 196.04 131.567 202.38L134.127 201.84C134.127 199.19 134.127 196.67 134.127 194.15C134.127 192.7 133.887 191.26 133.797 189.81C133.471 184.843 133.137 179.87 132.797 174.89C132.693 173.532 132.663 172.17 132.707 170.81C132.857 167.81 134.097 166.59 137.067 166.33C141.577 165.94 146.067 165.63 150.607 165.23C157.557 164.61 164.497 163.91 171.447 163.31C174.877 163.01 178.317 162.88 181.757 162.62C191.611 161.873 201.461 161.106 211.307 160.32C215.457 160 219.607 159.57 223.767 159.32C227.467 159.12 228.827 160.5 229.087 164.19C229.527 170.42 230.087 176.65 230.507 182.89C230.607 184.25 230.577 185.61 230.667 186.97C230.947 190.76 231.267 194.56 231.567 198.35C231.617 198.98 231.637 199.62 231.677 200.25C232.197 207.75 232.717 215.253 233.237 222.76C233.327 224.03 233.297 225.3 233.387 226.57C233.867 233.57 234.387 240.67 234.867 247.73C235.107 251.07 235.297 254.42 235.527 257.73C235.867 262.88 236.287 268.03 236.527 273.19C236.6 275.083 236.456 276.979 236.097 278.84C235.916 279.65 235.469 280.378 234.828 280.906C234.187 281.435 233.388 281.735 232.557 281.76C225.985 282.611 219.335 282.678 212.747 281.96C206.807 281.32 200.877 280.55 194.977 279.61C183.438 277.725 172.12 274.672 161.197 270.5C152.347 267.239 143.858 263.07 135.867 258.06C126.45 252.04 117.932 244.717 110.567 236.31C105.788 230.959 101.441 225.238 97.5674 219.2C96.4022 217.365 95.3437 215.466 94.3974 213.51C92.6474 209.89 94.6475 206.51 98.7075 206.17L110.877 205.01C111.164 204.971 111.446 204.901 111.717 204.8ZM102.547 213.24C103.377 214.6 103.927 215.65 104.617 216.59C107.617 220.67 110.617 224.83 113.787 228.75C119.824 236.139 126.799 242.708 134.537 248.29C147.727 257.8 162.537 263.87 178.017 268.29C186.318 270.573 194.764 272.29 203.297 273.43C211.009 274.602 218.809 275.094 226.607 274.9C227.477 274.9 228.437 275.15 229.147 274.38C229.307 270.48 228.567 260.55 227.937 258.81C225.127 259.13 222.247 259.38 219.397 259.81C213.738 260.547 208.043 260.991 202.337 261.14C199.477 261.27 197.887 259.96 197.237 257.24C196.657 254.78 196.337 252.24 195.897 249.76C195.407 246.94 195.447 244.02 194.627 241.31C189.867 241.63 185.277 241.93 180.677 242.25C180.417 242.25 180.147 242.39 179.887 242.42C177.537 242.65 175.197 243.04 172.887 243.07C169.517 243.07 167.647 241.37 167.107 238.13C166.567 234.89 166.107 231.68 165.407 228.51C165.087 227.07 165.267 225.41 163.957 223.99C160.527 224.3 157.017 224.58 153.517 224.99C150.017 225.4 146.517 225.99 142.997 226.2C138.607 226.43 136.947 224.75 136.467 221.01C136.167 218.68 135.807 216.35 135.467 214.01C135.227 212.52 134.907 211.01 134.467 209.01C132.637 210.83 130.607 210.41 128.667 210.55H128.127C122.907 211.08 117.687 211.55 112.467 212.13C109.297 212.46 106.157 212.84 102.547 213.24ZM227.547 251.24C227.547 250.64 227.647 250.24 227.627 249.76C227.387 244.87 227.127 239.98 226.877 235.09C226.877 234.9 226.877 234.72 226.877 234.54C226.577 230.75 226.247 226.96 225.967 223.17C225.857 221.63 225.907 220.08 225.797 218.54C225.297 211.12 224.784 203.706 224.257 196.3C224.197 195.39 224.187 194.48 224.117 193.58C223.827 190.15 223.487 186.72 223.247 183.29C222.977 179.29 222.817 175.29 222.537 171.34C222.447 169.92 222.157 168.51 221.917 166.83C214.037 167.28 206.337 167.9 198.407 168.75C198.657 172.41 198.907 175.84 199.127 179.27C199.487 184.88 199.857 190.49 200.187 196.1C200.627 203.43 201.017 210.76 201.457 218.1C201.651 221.266 201.877 224.433 202.137 227.6C202.417 231.12 202.937 234.6 202.067 238.15C202.002 238.507 202.002 238.873 202.067 239.23C202.557 243.23 203.067 247.32 203.587 251.35C203.766 252.248 204.007 253.134 204.307 254C212.037 253.14 219.707 252.91 227.527 251.23L227.547 251.24ZM174.037 235.42C178.037 235.74 193.217 234.19 195.037 233.31C194.797 230.01 194.547 226.68 194.327 223.31C193.961 217.53 193.594 211.746 193.227 205.96C192.627 196.28 192.057 186.6 191.447 176.96C191.287 174.46 191.027 171.96 190.787 169.24L167.357 171.02C167.557 173.11 167.767 175.02 167.917 176.85C168.467 183.99 169.047 191.12 169.517 198.26C169.987 205.26 170.327 212.18 170.747 219.14C170.82 219.766 170.934 220.388 171.087 221C171.717 224 172.357 227 172.977 230C173.377 231.79 173.687 233.56 174.037 235.42ZM155.647 69.7095C155.763 65.9826 155.345 62.2583 154.407 58.6495C150.717 44.5495 142.237 34.3295 129.107 28.1195C122.177 24.8395 114.677 24.3395 107.237 25.4095C102.09 26.0889 97.1269 27.7756 92.6314 30.3733C88.136 32.9711 84.1963 36.429 81.0374 40.5495C75.3878 47.6682 72.0117 56.3226 71.3482 65.3864C70.6847 74.4503 72.7647 83.504 77.3174 91.3695C85.0174 104.95 101.737 115.79 120.707 112.53C128.364 111.286 135.482 107.807 141.167 102.53C145.782 98.4084 149.462 93.3475 151.96 87.6868C154.457 82.026 155.715 75.8964 155.647 69.7095ZM140.407 173.35C140.327 173.943 140.284 174.541 140.277 175.14C140.417 177.85 140.597 180.56 140.737 183.27C141.157 191.41 141.487 199.55 141.987 207.69C142.177 210.93 142.707 214.16 143.087 217.39C143.086 217.596 143.131 217.8 143.221 217.986C143.31 218.172 143.441 218.335 143.603 218.462C143.766 218.59 143.955 218.678 144.157 218.721C144.358 218.764 144.567 218.76 144.767 218.71L152.047 217.96L160.687 217.05C161.467 216.97 162.257 216.91 163.267 216.82C163.267 215.82 163.267 215.05 163.267 214.26C162.947 210.03 162.547 205.79 162.267 201.55C161.787 194.55 161.397 187.63 160.947 180.68C160.757 177.8 160.497 174.94 160.267 172.09C158.437 171.77 143.227 172.74 140.407 173.35ZM113.407 121.2C113.697 125.94 113.957 130.34 114.227 134.75C114.387 137.19 114.547 139.63 114.727 142.06C115.027 146.06 115.387 149.99 115.667 153.96C115.927 157.67 116.097 161.38 116.337 165.08C116.507 167.79 116.707 170.5 116.917 173.2C117.217 177.2 117.567 181.14 117.847 185.1C118.107 188.81 118.257 192.52 118.517 196.22C118.677 198.55 118.957 200.87 119.197 203.39L123.827 202.24C123.827 200.54 123.917 199.09 123.827 197.66C123.577 194.41 123.197 191.18 122.927 187.94C122.657 184.7 122.497 181.62 122.257 178.46C122.087 176.11 121.877 173.77 121.667 171.46C121.367 168.22 121.017 164.98 120.747 161.74C120.477 158.5 120.327 155.42 120.087 152.26C119.907 149.91 119.687 147.57 119.477 145.26C119.177 141.93 118.837 138.6 118.567 135.26C118.307 132.2 118.157 129.12 117.887 126.06C117.747 124.46 117.467 122.88 117.247 121.26L113.407 121.2Z" fill="#3558A2"/>
<path d="M102.549 213.24C106.159 212.84 109.299 212.46 112.439 212.14C117.659 211.6 122.879 211.09 128.099 210.56H128.639C130.579 210.42 132.639 210.84 134.439 209.02C134.839 211.07 135.159 212.55 135.439 214.02C135.809 216.34 136.169 218.67 136.439 221.02C136.919 224.76 138.579 226.44 142.969 226.21C146.489 226.03 149.969 225.37 153.489 225C157.009 224.63 160.489 224.36 163.929 224C165.239 225.42 165.059 227.08 165.379 228.52C166.089 231.69 166.539 234.93 167.079 238.14C167.619 241.35 169.489 243.14 172.859 243.08C175.209 243.08 177.549 242.66 179.859 242.43C180.119 242.43 180.389 242.28 180.649 242.26C185.249 241.94 189.839 241.64 194.599 241.32C195.419 244.03 195.379 246.95 195.869 249.77C196.309 252.26 196.629 254.77 197.209 257.25C197.859 259.97 199.449 261.25 202.309 261.15C208.015 261.001 213.709 260.557 219.369 259.82C222.219 259.38 225.099 259.13 227.909 258.82C228.539 260.56 229.279 270.49 229.119 274.39C228.409 275.16 227.449 274.88 226.579 274.91C218.781 275.104 210.981 274.612 203.269 273.44C194.736 272.3 186.289 270.583 177.989 268.3C162.469 263.88 147.699 257.81 134.509 248.3C126.771 242.718 119.795 236.149 113.759 228.76C110.549 224.84 107.609 220.68 104.589 216.6C103.929 215.65 103.379 214.6 102.549 213.24Z" fill="#979FBB"/>
<path d="M155.649 69.7089C155.72 75.8935 154.467 82.0217 151.975 87.6823C149.482 93.343 145.808 98.405 141.199 102.529C135.514 107.806 128.395 111.285 120.739 112.529C101.739 115.789 85.0489 104.949 77.3489 91.3689C72.792 83.5063 70.7069 74.4543 71.365 65.3905C72.0231 56.3267 75.3939 47.6708 81.0388 40.5489C87.4113 32.2339 96.824 26.7885 107.209 25.4089C114.649 24.3389 122.149 24.8389 129.079 28.1189C142.209 34.3289 150.689 44.5489 154.379 58.6489C155.327 62.2562 155.755 65.9806 155.649 69.7089V69.7089ZM151.229 68.3689C151.221 65.6505 150.916 62.941 150.319 60.2889C148.86 52.2848 144.766 44.9985 138.689 39.5889C132.941 34.1995 125.541 30.9115 117.689 30.2589C106.119 29.1889 95.9788 32.7589 87.7888 41.0589C79.0988 49.8689 75.2189 60.5489 76.4589 72.9489C76.8836 78.1219 78.4032 83.1454 80.9169 87.6865C83.4305 92.2276 86.8807 96.1825 91.0388 99.2889C94.7849 102.239 99.0869 104.403 103.688 105.654C108.289 106.905 113.095 107.216 117.819 106.569C125.551 105.728 132.803 102.406 138.489 97.0989C142.51 93.4684 145.723 89.0325 147.917 84.0793C150.112 79.1261 151.241 73.7666 151.229 68.3489V68.3689Z" fill="#CBCFDD"/>
<path d="M113.447 121.199H117.267C117.487 122.819 117.767 124.399 117.907 125.999C118.177 129.059 118.327 132.139 118.587 135.199C118.857 138.539 119.197 141.869 119.497 145.199C119.707 147.539 119.927 149.879 120.107 152.199C120.347 155.359 120.517 158.519 120.767 161.679C121.017 164.839 121.387 168.159 121.687 171.399C121.897 173.739 122.107 176.079 122.277 178.399C122.517 181.559 122.687 184.719 122.947 187.879C123.207 191.039 123.597 194.349 123.847 197.599C123.957 199.029 123.847 200.479 123.847 202.179L119.237 203.349C118.997 200.829 118.717 198.509 118.557 196.179C118.297 192.479 118.147 188.769 117.887 185.059C117.607 181.059 117.257 177.129 116.957 173.159C116.747 170.459 116.547 167.749 116.377 165.039C116.137 161.339 115.967 157.629 115.707 153.919C115.427 149.919 115.067 145.989 114.767 142.019C114.587 139.589 114.427 137.149 114.267 134.709C114.037 130.349 113.737 125.939 113.447 121.199Z" fill="#CBCFDD"/>
<path d="M151.227 68.3496C151.241 73.7609 150.118 79.1148 147.93 84.0641C145.742 89.0135 142.539 93.4478 138.527 97.0796C132.841 102.386 125.589 105.709 117.857 106.55C113.133 107.197 108.327 106.886 103.726 105.635C99.1253 104.384 94.8235 102.219 91.0773 99.2696C86.9192 96.1632 83.4689 92.2083 80.9553 87.6672C78.4416 83.1261 76.9221 78.1026 76.4973 72.9296C75.2573 60.5296 79.1373 49.8496 87.8273 41.0396C96.0173 32.7396 106.157 29.1696 117.727 30.2396C125.579 30.8922 132.98 34.1802 138.727 39.5696C144.804 44.9792 148.898 52.2655 150.357 60.2696C150.941 62.9232 151.233 65.6326 151.227 68.3496V68.3496ZM96.2273 54.5396C96.1295 55.1358 96.0628 55.7366 96.0273 56.3396C96.0273 68.2196 96.1173 80.0896 96.1073 91.9696C96.0674 92.5472 96.2014 93.1235 96.4919 93.6243C96.7824 94.1251 97.2161 94.5274 97.7373 94.7796C103.452 98.3912 110.261 99.8648 116.957 98.9396C122.004 98.2814 126.812 96.3927 130.957 93.4396C131.39 93.1985 131.741 92.8338 131.966 92.392C132.19 91.9502 132.278 91.4514 132.217 90.9596C131.917 87.5396 131.687 84.1096 131.417 80.6796C131.257 78.6796 131.081 76.6996 130.887 74.7396C130.597 71.6796 130.257 68.6296 129.987 65.5696C129.737 62.7696 129.567 59.9696 129.317 57.1796C129.127 55.1796 128.857 53.0996 128.577 50.6296C127.797 51.6296 127.207 52.2496 126.697 52.9596C123.547 57.3896 120.387 61.8096 117.287 66.2796C114.787 69.8896 112.287 70.1996 109.117 66.9596C105.577 63.3196 101.857 59.8596 98.2074 56.3296C97.6674 55.7996 97.0373 55.2696 96.2773 54.5596L96.2273 54.5396ZM126.407 40.6596C117.887 35.5896 102.717 37.4696 96.2373 44.1396L112.677 60.0696L126.407 40.6596ZM136.097 47.8596C135.927 51.0496 138.427 81.1196 139.477 83.7896C146.547 72.9696 144.837 56.2296 136.147 47.8796L136.097 47.8596ZM88.4574 52.4496C81.5574 61.9396 82.2873 77.9796 88.9073 85.5396C88.8073 74.5396 88.6573 63.6596 88.5073 52.4696L88.4574 52.4496Z" fill="#3558A2"/>
</svg>
