<svg width="300" height="300" viewBox="0 0 300 300" fill="none" xmlns="http://www.w3.org/2000/svg">
<path d="M214.372 218.118L208.842 221.378C206.352 222.848 205.052 222.708 203.152 220.448C201.252 218.188 199.592 215.858 197.812 213.568C197.322 212.928 196.812 212.298 196.152 211.488C195.522 212.108 194.922 212.608 194.432 213.198C189.772 218.868 185.142 224.578 180.432 230.198C179.526 231.33 178.522 232.381 177.432 233.338C175.182 235.258 172.862 234.838 171.742 232.178C171.152 230.798 170.202 230.598 169.042 230.318C157.112 227.548 145.192 224.708 133.252 221.958C112.572 217.188 91.9024 212.408 71.1924 207.778C67.6724 206.988 66.1924 204.778 67.4324 201.438C69.1924 196.588 70.9824 191.738 72.9824 186.988C75.8138 180.2 79.1567 173.638 82.9824 167.358C87.5924 159.848 92.7824 152.738 99.3424 146.758C102.496 143.852 106.359 141.828 110.542 140.888C117.142 139.398 124.202 143.538 125.652 149.788C125.892 150.788 125.972 151.908 126.182 153.338C131.872 148.458 137.122 143.418 144.072 140.478C143.772 139.628 143.592 138.948 143.302 138.328C141.532 134.548 139.802 130.748 137.932 127.018C137.032 125.228 136.432 123.498 137.482 121.508C136.012 120.438 134.612 119.508 133.272 118.418C123.582 110.838 118.472 100.938 118.432 88.5976C118.473 81.1797 121.034 73.996 125.695 68.225C130.355 62.454 136.839 58.4386 144.082 56.8377C166.432 51.9977 186.652 68.8377 188.782 89.1477C189.471 94.8455 188.654 100.624 186.412 105.908C186.148 106.578 186.031 107.298 186.071 108.018C186.111 108.738 186.306 109.44 186.642 110.078L193.902 127.708C204.189 152.714 214.476 177.714 224.762 202.708C225.371 204.223 225.878 205.776 226.282 207.358C226.922 209.778 226.522 210.758 224.412 212.178C223.292 212.938 222.112 213.608 220.702 214.468C221.102 215.388 221.452 216.288 221.882 217.148C225.349 224.034 228.826 230.921 232.312 237.808C232.666 238.442 232.951 239.113 233.162 239.808C233.359 240.513 233.325 241.263 233.064 241.947C232.803 242.631 232.329 243.213 231.712 243.608C231.065 244.044 230.277 244.223 229.505 244.111C228.732 243.998 228.028 243.601 227.532 242.998C226.875 242.25 226.323 241.415 225.892 240.518C222.552 233.968 219.252 227.398 215.892 220.838C215.452 220.048 214.972 219.208 214.372 218.118ZM156.452 145.118C152.452 144.648 149.152 145.848 145.952 147.378C139.532 150.438 134.432 155.238 129.462 160.158C125.087 164.638 121.279 169.639 118.122 175.048C117.623 175.903 117.018 176.692 116.322 177.398C115.877 177.865 115.289 178.168 114.651 178.261C114.012 178.353 113.361 178.229 112.802 177.908C112.127 177.611 111.57 177.098 111.219 176.45C110.868 175.802 110.742 175.055 110.862 174.328C111.065 173.356 111.402 172.417 111.862 171.538C114.29 166.884 116.347 162.046 118.012 157.068C118.532 155.619 118.819 154.096 118.862 152.558C118.862 149.468 115.392 147.198 112.392 148.158C112.321 148.319 112.277 148.492 112.262 148.668C112.262 149.398 112.312 150.118 112.362 150.848C113.022 159.278 109.712 166.218 104.282 172.358C103.899 172.814 103.393 173.152 102.824 173.329C102.255 173.506 101.647 173.516 101.072 173.358C100.109 173.116 99.1712 172.781 98.2724 172.358C95.7424 171.168 93.2724 169.918 90.4324 168.558C83.9324 178.858 79.1824 189.858 74.7324 201.218C75.4524 201.468 76.0124 201.708 76.5924 201.848C88.7824 204.648 100.982 207.418 113.172 210.248C133.172 214.868 153.112 219.488 173.052 224.248C175.162 224.748 176.432 224.398 177.712 222.778C181.382 218.158 185.142 213.618 188.852 209.038C188.998 208.788 189.106 208.519 189.172 208.238C188.882 207.888 188.622 207.528 188.312 207.238C187.032 205.948 185.712 204.698 184.452 203.388C183.847 202.835 183.365 202.16 183.038 201.408C182.711 200.655 182.546 199.843 182.554 199.023C182.563 198.202 182.744 197.393 183.087 196.648C183.429 195.903 183.925 195.238 184.542 194.698C187.277 191.876 190.778 189.916 194.612 189.058C195.762 188.808 196.932 188.718 198.112 188.548C197.112 186.258 195.882 185.548 193.772 185.748C190.975 186.133 188.311 187.182 186.002 188.808C180.332 192.478 175.552 197.218 170.582 201.728C169.863 202.419 169.076 203.035 168.232 203.568C167.576 203.981 166.8 204.163 166.028 204.085C165.257 204.007 164.533 203.674 163.972 203.138C163.413 202.595 163.057 201.877 162.965 201.103C162.872 200.329 163.048 199.547 163.462 198.888C163.783 198.341 164.162 197.832 164.592 197.368C166.432 195.238 168.302 193.148 170.122 190.998C171.282 189.628 172.362 188.198 173.902 186.278C173.28 185.975 172.685 185.62 172.122 185.218C170.732 184.058 169.352 182.868 168.052 181.618C167.423 181.091 166.912 180.438 166.552 179.701C166.192 178.964 165.991 178.159 165.963 177.34C165.934 176.52 166.079 175.703 166.388 174.943C166.696 174.183 167.161 173.496 167.752 172.928C170.565 169.672 174.323 167.376 178.502 166.358C178.858 166.235 179.195 166.064 179.502 165.848C177.919 165.045 176.083 164.898 174.392 165.438C170.279 166.34 166.481 168.325 163.392 171.188C158.552 175.558 153.832 180.078 149.052 184.528C148.285 185.299 147.441 185.989 146.532 186.588C145.866 186.995 145.08 187.161 144.306 187.057C143.532 186.953 142.818 186.586 142.282 186.018C141.764 185.502 141.435 184.827 141.348 184.101C141.261 183.375 141.421 182.641 141.802 182.018C142.256 181.233 142.792 180.498 143.402 179.828C146.822 175.828 150.272 171.878 153.832 167.758C153.102 166.988 152.512 166.328 151.832 165.708C150.032 163.918 148.192 162.168 146.402 160.368C145.322 159.278 144.602 157.968 145.152 156.428C145.982 154.118 146.932 151.868 149.092 150.428C151.512 148.688 153.822 146.978 156.452 145.098V145.118ZM202.282 166.698C201.957 166.582 201.623 166.495 201.282 166.438C188.612 165.558 182.102 150.918 189.592 140.618C190.062 139.968 190.432 139.258 190.822 138.618C189.062 134.338 187.382 130.218 185.682 126.118C183.982 122.018 182.232 117.808 180.522 113.698C171.712 116.278 147.342 125.398 145.522 126.808C146.392 128.648 147.272 130.518 148.162 132.388C149.052 134.258 150.012 136.258 150.832 137.978C153.042 137.978 154.832 137.918 156.662 137.978C158.439 138.009 160.186 138.442 161.773 139.244C163.359 140.045 164.743 141.195 165.822 142.608C169.532 147.298 169.822 152.548 168.082 158.058C167.892 158.688 167.732 159.318 167.622 159.708C170.962 159.158 174.152 158.438 177.372 158.148C182.122 157.718 187.302 161.268 188.672 167.248C189.429 170.91 189.049 174.717 187.582 178.158C187.382 178.688 187.262 179.248 187.012 180.158C188.332 179.778 189.262 179.448 190.212 179.248C192.882 178.698 195.592 178.198 198.212 179.248C200.55 180.173 202.544 181.799 203.921 183.903C205.298 186.007 205.99 188.485 205.902 190.998C205.798 192.531 205.534 194.05 205.112 195.528C204.184 199.072 202.604 202.412 200.452 205.378C202.546 208.441 204.816 211.379 207.252 214.178L218.992 207.338C213.432 193.624 207.862 180.071 202.282 166.678V166.698ZM151.802 62.9876L149.802 63.0877C143.294 63.4493 137.162 66.2556 132.634 70.9449C128.106 75.6341 125.516 81.8604 125.382 88.3777C124.962 100.578 132.942 112.718 145.382 117.378C146.735 117.913 148.24 117.913 149.592 117.378C158.532 114.098 167.496 110.861 176.482 107.668C177.083 107.486 177.637 107.174 178.104 106.754C178.57 106.334 178.939 105.816 179.182 105.238C183.792 95.1076 182.882 85.3977 176.622 76.3277C170.802 67.8277 162.502 63.5077 151.802 62.9677V62.9876ZM94.6325 162.748L100.802 165.748C103.982 161.308 106.122 156.868 105.162 151.068C101.141 154.46 97.599 158.383 94.6325 162.728V162.748ZM161.722 151.248C157.962 151.978 155.342 154.188 152.722 156.708L158.022 161.588C161.252 157.828 162.332 154.878 161.722 151.228V151.248ZM181.722 173.058C178.212 173.188 175.822 174.798 173.402 177.058L177.882 181.058C179.841 178.766 181.165 176 181.722 173.038V173.058ZM198.132 195.758C196.632 195.724 195.142 196.011 193.762 196.601C192.382 197.191 191.144 198.069 190.132 199.178L193.952 202.768L198.132 195.758ZM198.852 158.468C197.483 154.625 195.89 150.865 194.082 147.208C192.582 152.198 194.262 156.378 198.852 158.448V158.468Z" fill="#3558A2"/>
<path d="M156.454 145.097C153.824 146.977 151.514 148.687 149.144 150.317C146.984 151.807 146.034 154.057 145.204 156.317C144.654 157.857 145.374 159.167 146.454 160.257C148.244 162.058 150.084 163.807 151.884 165.597C152.524 166.217 153.114 166.878 153.884 167.648C150.324 171.768 146.884 175.728 143.454 179.718C142.844 180.388 142.308 181.122 141.854 181.908C141.473 182.531 141.313 183.265 141.4 183.991C141.487 184.717 141.816 185.392 142.334 185.908C142.87 186.476 143.584 186.843 144.358 186.947C145.132 187.051 145.918 186.885 146.584 186.478C147.493 185.879 148.337 185.189 149.104 184.418C153.884 179.968 158.604 175.418 163.444 171.078C166.533 168.215 170.331 166.23 174.444 165.328C176.135 164.788 177.971 164.935 179.554 165.737C179.247 165.954 178.91 166.125 178.554 166.248C174.375 167.265 170.617 169.562 167.804 172.818C167.213 173.386 166.748 174.073 166.44 174.833C166.131 175.593 165.986 176.41 166.015 177.23C166.043 178.049 166.244 178.854 166.604 179.591C166.964 180.328 167.475 180.981 168.104 181.508C169.404 182.758 170.784 183.948 172.174 185.108C172.737 185.51 173.332 185.865 173.954 186.168C172.414 188.088 171.334 189.518 170.174 190.888C168.354 193.038 166.484 195.128 164.644 197.258C164.213 197.722 163.835 198.231 163.514 198.778C163.1 199.437 162.924 200.219 163.017 200.993C163.109 201.767 163.465 202.485 164.024 203.028C164.585 203.564 165.309 203.897 166.08 203.975C166.852 204.053 167.628 203.871 168.284 203.458C169.128 202.925 169.915 202.309 170.634 201.618C175.634 197.108 180.384 192.368 186.054 188.698C188.363 187.072 191.027 186.022 193.824 185.638C195.934 185.408 197.114 186.148 198.164 188.438C196.984 188.608 195.814 188.698 194.664 188.948C190.83 189.805 187.329 191.766 184.594 194.588C183.958 195.125 183.443 195.792 183.086 196.545C182.729 197.297 182.538 198.118 182.525 198.951C182.511 199.784 182.677 200.61 183.01 201.373C183.342 202.137 183.835 202.82 184.454 203.378C185.714 204.688 187.034 205.938 188.314 207.228C188.624 207.538 188.884 207.898 189.174 208.228C189.108 208.509 189 208.778 188.854 209.028C185.144 213.608 181.384 218.148 177.714 222.768C176.434 224.388 175.164 224.768 173.054 224.238C153.114 219.478 133.144 214.858 113.174 210.238C100.984 207.408 88.7844 204.638 76.5944 201.838C76.0144 201.698 75.4544 201.458 74.7344 201.208C79.1844 189.848 83.9343 178.848 90.4343 168.547C93.2343 169.907 95.7443 171.157 98.2743 172.347C99.1731 172.771 100.111 173.105 101.074 173.347C101.649 173.506 102.257 173.496 102.826 173.319C103.395 173.141 103.901 172.804 104.284 172.347C109.714 166.207 113.024 159.268 112.364 150.837C112.364 150.107 112.284 149.388 112.264 148.658C112.279 148.481 112.323 148.309 112.394 148.147C115.394 147.147 118.874 149.457 118.864 152.547C118.821 154.086 118.534 155.608 118.014 157.057C116.349 162.035 114.292 166.874 111.864 171.528C111.404 172.407 111.067 173.346 110.864 174.318C110.744 175.045 110.87 175.792 111.221 176.44C111.572 177.088 112.129 177.601 112.804 177.898C113.363 178.219 114.014 178.343 114.652 178.251C115.291 178.158 115.879 177.854 116.324 177.388C117.02 176.682 117.624 175.893 118.124 175.037C121.277 169.626 125.082 164.622 129.454 160.138C134.454 155.217 139.524 150.417 145.944 147.357C149.154 145.827 152.454 144.627 156.454 145.097Z" fill="#EAECF1"/>
<path d="M202.283 166.677C207.876 180.077 213.46 193.637 219.033 207.357L207.293 214.197C204.857 211.399 202.586 208.46 200.493 205.397C202.639 202.427 204.212 199.084 205.133 195.537C205.554 194.059 205.819 192.541 205.923 191.007C206.011 188.494 205.319 186.016 203.942 183.912C202.565 181.809 200.571 180.182 198.233 179.257C195.593 178.177 192.883 178.677 190.233 179.257C189.233 179.457 188.353 179.787 187.033 180.167C187.283 179.287 187.403 178.727 187.603 178.167C189.07 174.727 189.45 170.92 188.693 167.257C187.323 161.257 182.143 157.727 177.393 158.157C174.173 158.447 170.983 159.157 167.643 159.717C167.753 159.327 167.913 158.717 168.103 158.067C169.813 152.557 169.553 147.307 165.843 142.617C164.764 141.205 163.379 140.055 161.793 139.253C160.207 138.451 158.46 138.018 156.683 137.987C154.873 137.917 153.063 137.987 150.853 137.987C150.033 136.267 149.103 134.337 148.183 132.397C147.263 130.457 146.413 128.657 145.543 126.817C147.323 125.407 171.693 116.287 180.543 113.707C182.253 117.817 183.983 121.967 185.703 126.127C187.423 130.287 189.083 134.347 190.843 138.627C190.453 139.247 190.083 139.957 189.613 140.627C182.123 150.927 188.613 165.567 201.303 166.447C201.636 166.496 201.964 166.572 202.283 166.677Z" fill="white"/>
<path d="M151.804 62.9668C162.504 63.5068 170.804 67.8267 176.634 76.2867C182.894 85.3567 183.804 95.0667 179.194 105.197C178.95 105.775 178.582 106.293 178.115 106.713C177.648 107.133 177.095 107.445 176.494 107.627C167.514 110.807 158.55 114.043 149.604 117.337C148.251 117.872 146.746 117.872 145.394 117.337C132.944 112.677 124.964 100.537 125.394 88.3367C125.53 81.8213 128.121 75.5974 132.649 70.9103C137.176 66.2231 143.307 63.4182 149.814 63.0568L151.804 62.9668ZM151.964 105.357C152.903 106.59 153.904 107.775 154.964 108.907C155.336 109.346 155.817 109.68 156.359 109.875C156.901 110.07 157.484 110.119 158.051 110.018C158.618 109.916 159.149 109.668 159.589 109.298C160.03 108.927 160.366 108.448 160.564 107.907C160.792 107.309 160.859 106.661 160.757 106.029C160.655 105.397 160.388 104.803 159.984 104.307C159.244 103.187 158.444 102.117 157.524 100.827C159.224 99.8267 160.244 98.2267 162.104 97.6667C162.524 98.1667 162.874 98.5767 163.204 98.9967C164.094 100.147 164.904 101.367 165.884 102.427C166.447 103.092 167.234 103.527 168.096 103.651C168.959 103.774 169.837 103.577 170.564 103.097C171.256 102.566 171.723 101.794 171.873 100.935C172.023 100.075 171.845 99.1909 171.374 98.4567C170.915 97.6756 170.407 96.9241 169.854 96.2067C169.084 95.1367 168.294 94.0767 167.484 92.9567C169.124 91.6467 170.554 90.5267 171.944 89.3767C172.951 88.6046 173.897 87.7554 174.774 86.8367C175.308 86.2668 175.619 85.5227 175.649 84.7417C175.678 83.9606 175.424 83.1953 174.934 82.5868C174.476 81.9512 173.795 81.5117 173.028 81.356C172.261 81.2003 171.463 81.3398 170.794 81.7467C169.919 82.2205 169.089 82.7728 168.314 83.3967C166.604 84.6867 164.924 86.0067 163.124 87.3967L158.244 80.9267C158.526 80.5782 158.827 80.2444 159.144 79.9267C159.894 79.2667 160.674 78.6467 161.424 77.9867C162.199 77.3722 162.931 76.7038 163.614 75.9867C164.122 75.3976 164.412 74.651 164.434 73.8731C164.456 73.0951 164.208 72.3335 163.734 71.7168C163.263 71.0957 162.586 70.6641 161.824 70.5008C161.062 70.3374 160.267 70.4531 159.584 70.8268C158.875 71.2224 158.205 71.6844 157.584 72.2068C156.384 73.1168 155.194 74.0467 153.834 75.1067C152.684 73.6367 151.754 72.3067 150.694 71.1067C149.174 69.3567 147.164 69.0067 145.634 70.1067C144.104 71.2067 143.824 73.1067 145.154 75.1667C145.734 76.0867 146.414 76.9468 147.034 77.8268C147.444 78.4068 147.844 78.9867 148.354 79.7267L144.284 83.1067C143.604 82.2867 143.114 81.6467 142.574 81.0467C142.029 80.4484 141.448 79.884 140.834 79.3567C140.326 78.9626 139.704 78.7422 139.062 78.7278C138.419 78.7133 137.789 78.9058 137.264 79.2768C136.734 79.557 136.309 79.9997 136.05 80.5396C135.79 81.0796 135.711 81.6884 135.824 82.2768C135.98 83.1562 136.295 83.9999 136.754 84.7667C137.314 85.7667 138.034 86.6767 138.754 87.6767C138.254 88.1167 137.934 88.4267 137.594 88.6767C135.934 90.0867 134.214 91.4267 132.594 92.9167C130.794 94.5967 130.594 96.3867 131.974 97.9167C133.354 99.4467 135.134 99.5367 137.074 98.1067C138.314 97.1867 139.464 96.1067 140.664 95.1867C141.414 94.5867 142.174 94.0167 143.124 93.2867L147.804 99.5067C147.014 100.197 146.354 100.797 145.664 101.367C144.474 102.367 143.194 103.237 142.084 104.287C141.392 104.826 140.933 105.61 140.803 106.477C140.673 107.344 140.881 108.228 141.384 108.947C141.937 109.679 142.753 110.167 143.66 110.309C144.567 110.45 145.493 110.235 146.244 109.707C146.942 109.265 147.61 108.777 148.244 108.247C149.394 107.377 150.594 106.457 151.964 105.377V105.357Z" fill="#979FBB"/>
<path d="M94.6328 162.727C97.5972 158.372 101.14 154.439 105.163 151.037C106.163 156.837 103.983 161.277 100.803 165.717L94.6328 162.727Z" fill="white"/>
<path d="M161.724 151.227C162.334 154.876 161.254 157.826 157.974 161.566L152.674 156.686C155.344 154.167 157.964 151.957 161.724 151.227Z" fill="white"/>
<path d="M181.722 173.037C181.162 175.993 179.838 178.751 177.882 181.037L173.402 177.037C175.822 174.777 178.212 173.167 181.722 173.037Z" fill="white"/>
<path d="M198.133 195.738L193.943 202.737L190.123 199.148C191.137 198.04 192.377 197.162 193.758 196.574C195.14 195.986 196.632 195.701 198.133 195.738V195.738Z" fill="white"/>
<path d="M198.853 158.448C194.263 156.448 192.583 152.198 194.083 147.188C195.891 150.845 197.483 154.605 198.853 158.448Z" fill="white"/>
<path d="M151.964 105.377C150.594 106.477 149.394 107.437 148.184 108.377C147.55 108.907 146.882 109.395 146.184 109.837C145.433 110.365 144.507 110.581 143.6 110.439C142.693 110.297 141.877 109.809 141.324 109.077C140.821 108.358 140.613 107.474 140.743 106.607C140.873 105.74 141.332 104.956 142.024 104.417C143.134 103.417 144.414 102.477 145.604 101.497C146.294 100.927 146.954 100.327 147.744 99.6369L143.064 93.4169C142.064 94.1469 141.354 94.7169 140.604 95.3169C139.404 96.3169 138.254 97.3169 137.014 98.2369C135.074 99.6669 133.194 99.5669 131.914 98.0469C130.634 96.5269 130.734 94.6869 132.534 93.0469C134.124 91.5569 135.844 90.2169 137.534 88.8069C137.874 88.5269 138.194 88.2169 138.694 87.8069C138.014 86.8069 137.294 85.8969 136.694 84.8969C136.235 84.1301 135.92 83.2864 135.764 82.4069C135.651 81.8186 135.73 81.2097 135.99 80.6698C136.249 80.1298 136.674 79.6872 137.204 79.407C137.729 79.036 138.359 78.8435 139.002 78.8579C139.645 78.8723 140.266 79.0928 140.774 79.4869C141.388 80.0142 141.969 80.5786 142.514 81.1769C143.054 81.7769 143.514 82.4169 144.224 83.2369L148.294 79.8569C147.784 79.1169 147.384 78.5369 146.974 77.9569C146.354 77.0769 145.674 76.2169 145.094 75.2969C143.764 73.2069 143.954 71.4069 145.574 70.2369C147.194 69.0669 149.114 69.4669 150.634 71.2369C151.694 72.4569 152.634 73.7869 153.774 75.2369C155.134 74.1769 156.324 73.237 157.524 72.337C158.145 71.8146 158.815 71.3525 159.524 70.957C160.207 70.5833 161.002 70.4676 161.764 70.631C162.526 70.7943 163.203 71.2258 163.674 71.8469C164.148 72.4637 164.396 73.2253 164.374 74.0033C164.352 74.7812 164.062 75.5278 163.554 76.1169C162.871 76.834 162.14 77.5023 161.364 78.1169C160.614 78.7769 159.834 79.3969 159.084 80.0569C158.767 80.3746 158.466 80.7084 158.184 81.0569L163.064 87.5269C164.864 86.1169 166.544 84.7969 168.254 83.5269C169.029 82.903 169.859 82.3507 170.734 81.8769C171.403 81.47 172.201 81.3305 172.968 81.4862C173.736 81.6419 174.416 82.0814 174.874 82.7169C175.364 83.3255 175.618 84.0908 175.589 84.8718C175.559 85.6529 175.248 86.397 174.714 86.9669C173.838 87.8856 172.891 88.7348 171.884 89.5069C170.494 90.6569 169.064 91.7769 167.424 93.0869C168.234 94.2069 169.024 95.2669 169.794 96.3369C170.347 97.0543 170.855 97.8058 171.314 98.5869C171.785 99.3211 171.963 100.205 171.813 101.065C171.663 101.924 171.196 102.696 170.504 103.227C169.777 103.707 168.899 103.904 168.036 103.781C167.174 103.657 166.387 103.222 165.824 102.557C164.824 101.497 164.034 100.277 163.144 99.1269C162.814 98.7069 162.464 98.2969 162.044 97.7969C160.184 98.3569 159.164 99.9369 157.464 100.957C158.384 102.247 159.184 103.317 159.924 104.437C160.328 104.933 160.595 105.527 160.697 106.159C160.799 106.791 160.732 107.439 160.504 108.037C160.306 108.578 159.97 109.057 159.529 109.428C159.089 109.798 158.558 110.047 157.991 110.148C157.424 110.249 156.841 110.2 156.299 110.005C155.757 109.81 155.276 109.476 154.904 109.037C153.862 107.868 152.88 106.646 151.964 105.377V105.377ZM153.284 95.3769L157.694 91.8969L152.694 85.3669L148.454 88.9669L153.284 95.3769Z" fill="#3558A2"/>
<path d="M153.283 95.3772L148.453 88.9672L152.693 85.3672L157.693 91.8972L153.283 95.3772Z" fill="#979FBB"/>
</svg>
