<svg width="300" height="300" viewBox="0 0 300 300" fill="none" xmlns="http://www.w3.org/2000/svg">
<path d="M183.697 151.2C180.417 150.83 179.297 148.82 178.897 145.85C178.117 140.12 177.067 134.43 176.117 128.61C175.741 128.569 175.362 128.569 174.987 128.61C171.866 129.332 168.592 128.98 165.697 127.61C165.259 127.38 164.763 127.286 164.271 127.339C163.78 127.393 163.315 127.591 162.937 127.91C156.317 132.91 152.377 139.19 153.447 147.7C153.914 150.377 154.852 152.95 156.217 155.3C161.031 164.256 166.758 172.691 173.307 180.47C173.859 181.223 174.584 181.833 175.421 182.247C176.258 182.661 177.183 182.868 178.117 182.85C191.737 183.04 205.337 183.43 218.947 183.76C219.671 183.756 220.394 183.843 221.097 184.02C221.884 184.245 222.579 184.716 223.081 185.363C223.583 186.01 223.865 186.801 223.887 187.62C223.855 188.491 223.518 189.322 222.935 189.97C222.352 190.617 221.559 191.038 220.697 191.16C219.701 191.277 218.697 191.304 217.697 191.24L178.227 190.44H176.057C175.737 191.19 175.457 191.83 175.147 192.54C175.467 192.71 175.667 192.93 175.887 192.94C180.237 193.13 184.587 193.32 188.887 193.46C196.507 193.71 204.127 193.91 211.747 194.16C212.833 194.181 213.915 194.308 214.977 194.54C215.824 194.721 216.585 195.186 217.131 195.86C217.676 196.533 217.975 197.373 217.977 198.24C217.9 199.06 217.561 199.834 217.01 200.447C216.459 201.059 215.725 201.478 214.917 201.64C214.298 201.764 213.666 201.807 213.037 201.77L175.217 200.46C174.407 200.46 173.597 200.35 172.477 200.27L167.957 212.83C168.482 213.14 169.027 213.417 169.587 213.66L207.177 227.23C208.027 227.54 208.897 227.83 209.707 228.23C210.742 228.613 211.601 229.361 212.122 230.334C212.643 231.306 212.791 232.436 212.537 233.51C211.857 237.26 211.127 240.99 210.297 244.7C209.417 248.7 207.417 249.82 203.557 248.57C192.697 245.03 181.847 241.47 171.007 237.89L115.227 219.56C109.897 217.81 109.227 216.62 110.757 211.13C111.068 209.619 111.486 208.132 112.007 206.68C114.177 201.68 113.107 196.57 112.427 191.45C110.787 179.02 109.817 166.52 110.897 154C112.277 138 117.997 123.74 128.697 111.62C132.425 107.363 137.184 104.133 142.517 102.24C148.647 100.049 154.907 98.2394 161.137 96.3094C162.057 96.0294 163.327 95.7095 164.037 96.1095C166.427 97.4395 168.517 96.5095 170.697 95.7695C170.777 95.5995 170.917 95.4494 170.917 95.2994C170.917 91.0494 171.727 89.9495 175.857 89.3594C182.523 88.4194 189.167 87.5261 195.787 86.6794C199.597 86.1894 201.047 87.2595 201.857 91.1295C204.03 101.51 206.173 111.89 208.287 122.27C209.347 127.42 210.367 132.58 211.397 137.74C211.887 140.19 212.327 142.59 209.847 144.42C209.417 144.73 209.377 145.72 209.357 146.42C209.357 148.14 209.457 149.87 209.417 151.59C209.357 154.26 208.317 155.66 205.707 156.19C200.647 157.23 195.563 158.183 190.457 159.05C187.847 159.5 186.107 158.36 185.177 155.85C184.667 154.42 184.247 152.93 183.697 151.2ZM157.787 105.11C157.269 105.144 156.756 105.231 156.257 105.37C152.097 106.87 147.897 108.309 143.797 109.959C139.676 111.709 136.057 114.458 133.267 117.96C129.465 122.469 126.317 127.492 123.917 132.88C120.024 141.798 118.032 151.429 118.067 161.16C118.067 168.49 118.577 175.83 119.067 183.16C119.367 187.47 120.067 191.76 120.667 196.16L160.667 210.55C160.87 210.206 161.051 209.848 161.207 209.48C163.657 202.48 166.087 195.48 168.567 188.48C168.744 188.022 168.776 187.521 168.658 187.045C168.54 186.569 168.277 186.141 167.907 185.82C160.882 177.503 154.686 168.52 149.407 159C143.687 148.94 144.477 137.44 151.787 128.49C153.787 125.99 156.177 123.73 158.177 121.58C157.627 118.86 156.737 116.23 156.677 113.58C156.617 110.929 157.367 108.06 157.787 105.11ZM118.277 212.64L203.367 240.64L204.607 234.36C190.507 229.27 176.607 224.18 162.607 219.2C148.607 214.22 134.787 209.04 120.607 204.2C119.787 207.12 119.057 209.72 118.277 212.64ZM178.877 96.4995C190.117 102.5 191.647 115.87 183.077 124.5C184.077 130.68 185.077 136.71 186.077 142.78L203.847 138.28C200.847 123.45 197.847 108.95 194.847 94.3495L178.877 96.4995ZM164.137 114.02C164.137 118.97 169.137 122.79 174.607 120.97C176.857 120.08 178.716 118.417 179.851 116.28C180.985 114.143 181.321 111.672 180.797 109.309C180.485 107.951 179.818 106.699 178.865 105.682C177.911 104.665 176.705 103.919 175.369 103.521C174.033 103.122 172.615 103.085 171.26 103.413C169.906 103.742 168.662 104.424 167.657 105.39C165.377 107.42 164.107 109.95 164.137 114.02V114.02ZM191.257 149.24C191.257 151.15 192.187 151.24 193.257 151C195.987 150.47 198.717 149.91 201.437 149.35C201.587 149.35 201.697 149.14 201.987 148.89L201.707 146.62L191.257 149.24Z" fill="#3558A2"/>
<path d="M98.1163 114.401C96.0063 114.401 94.5963 113.001 94.1163 110.781C93.4957 107.58 92.7147 104.413 91.7763 101.291C90.1925 96.2526 87.4804 91.6422 83.8463 87.8105C82.4657 86.5055 81.0063 85.2866 79.4763 84.1606C76.3263 81.6606 76.1763 79.2505 79.0563 76.4405C80.9963 74.5405 82.9763 72.6806 84.9263 70.7806C88.438 67.3228 90.8253 62.8862 91.7763 58.0505C92.1363 56.4605 92.4763 54.8505 92.9863 53.3105C93.7163 51.0905 95.1063 49.9706 96.8263 50.0006C98.5463 50.0306 100.076 51.3105 100.746 53.5805C100.97 54.4565 101.144 55.3447 101.266 56.2406C101.66 58.9415 102.642 61.5233 104.141 63.8039C105.641 66.0845 107.623 68.0085 109.946 69.4405C112.016 70.7405 114.166 71.9205 116.316 73.0705C119.696 74.8805 120.316 77.3306 117.956 80.3805C116.466 82.3205 114.956 84.2305 113.296 86.0605C108.066 91.9505 104.296 98.5705 103.126 106.45C102.855 108.615 102.151 110.703 101.056 112.59C100.733 113.093 100.3 113.516 99.7916 113.829C99.2829 114.142 98.7105 114.338 98.1163 114.401V114.401ZM98.0162 96.4005C100.796 89.2206 105.336 83.8006 110.166 78.1706C104.607 75.7301 99.972 71.5784 96.9363 66.3205C94.4963 71.8805 90.7063 75.9805 86.4663 79.8605C91.7963 84.2905 95.1363 89.8606 98.0563 96.4105L98.0162 96.4005Z" fill="#3558A2"/>
<path d="M157.786 105.111C157.366 108.111 156.636 110.801 156.706 113.521C156.776 116.241 157.656 118.791 158.206 121.521C156.206 123.671 153.866 125.931 151.816 128.431C144.506 137.431 143.716 148.881 149.436 158.941C154.716 168.462 160.912 177.444 167.936 185.761C168.307 186.083 168.569 186.511 168.687 186.987C168.806 187.463 168.774 187.964 168.596 188.421C166.116 195.421 163.686 202.421 161.236 209.421C161.08 209.79 160.9 210.147 160.696 210.491L120.696 196.101C120.136 191.711 119.396 187.421 119.096 183.101C118.586 175.771 118.096 168.431 118.096 161.101C118.061 151.371 120.054 141.739 123.946 132.821C126.347 127.434 129.494 122.411 133.296 117.901C136.086 114.4 139.705 111.651 143.826 109.901C147.926 108.251 152.126 106.811 156.286 105.311C156.778 105.195 157.281 105.128 157.786 105.111Z" fill="#EAECF1"/>
<path d="M118.276 212.642C119.076 209.722 119.786 207.122 120.596 204.182C134.756 209.032 148.596 214.182 162.596 219.182C176.596 224.182 190.526 229.252 204.596 234.342L203.356 240.622L118.276 212.642Z" fill="#979FBB"/>
<path d="M178.876 96.5013L194.876 94.3613C197.876 108.961 200.806 123.461 203.876 138.291L186.106 142.791C185.106 136.721 184.106 130.691 183.106 124.511C191.646 115.861 190.116 102.461 178.876 96.5013Z" fill="#979FBB"/>
<path d="M164.136 114.021C164.136 109.951 165.376 107.421 167.656 105.391C168.661 104.425 169.905 103.743 171.26 103.415C172.614 103.087 174.032 103.124 175.368 103.522C176.704 103.921 177.91 104.667 178.864 105.684C179.817 106.701 180.484 107.952 180.796 109.311C181.32 111.673 180.984 114.145 179.85 116.282C178.715 118.419 176.856 120.082 174.606 120.971C169.166 122.791 164.116 118.971 164.136 114.021Z" fill="#F8F8FA"/>
<path d="M191.256 149.241L201.696 146.621L201.976 148.891C201.686 149.141 201.576 149.321 201.426 149.351C198.706 149.911 195.976 150.471 193.246 151.001C192.186 151.201 191.226 151.151 191.256 149.241Z" fill="#E8E8EF"/>
<path d="M98.0559 96.4102C95.1759 89.8602 91.8359 84.2901 86.5059 79.8701C90.7459 75.9901 94.506 71.8701 96.976 66.3301C100.012 71.588 104.647 75.7395 110.206 78.1801C105.336 83.8601 100.796 89.2302 98.0559 96.4102Z" fill="#F6F6F9"/>
</svg>
