<svg width="300" height="300" viewBox="0 0 300 300" fill="none" xmlns="http://www.w3.org/2000/svg">
<g clip-path="url(#clip0_1_7848)">
<path d="M188.677 216.928C186.677 212.138 184.837 207.548 182.907 202.818L96.4569 214.538C95.6269 219.618 94.767 224.858 93.857 230.408C96.8575 231.11 99.6144 232.606 101.84 234.738C104.065 236.87 105.677 239.56 106.507 242.528C107.837 246.628 107.706 251.063 106.137 255.078C104.756 258.915 102.097 262.161 98.6067 264.272C95.1165 266.382 91.0069 267.228 86.9669 266.668C78.8069 265.578 72.4869 258.668 71.4669 249.668C70.4669 240.528 75.9069 233.278 86.9669 229.358C87.9669 223.668 88.8769 217.868 89.8369 212.078C92.2969 197.238 94.727 182.388 97.257 167.568C97.4622 166.937 97.4406 166.254 97.1959 165.636C96.9513 165.019 96.499 164.507 95.917 164.188C82.117 154.798 72.5069 141.858 64.8469 127.288C61.5969 121.108 61.0769 114.598 61.6969 107.778C62.1469 102.728 60.187 98.2979 56.937 94.0179C54.937 97.4479 51.997 98.6179 48.777 99.5479C46.087 100.328 43.497 101.458 40.857 102.418C35.467 104.418 30.587 102.938 27.177 98.2979C26.4838 97.3432 25.859 96.3407 25.307 95.2979C24.207 93.2179 24.387 91.6579 26.307 90.2479C30.4687 86.9935 35.313 84.7234 40.4769 83.6079C44.9581 82.7744 49.579 83.119 53.887 84.6079C56.5046 85.4097 58.9171 86.77 60.9578 88.5949C62.9985 90.4198 64.6188 92.6658 65.7069 95.1779C68.0069 100.298 69.267 105.558 68.247 111.318C67.827 113.728 68.4969 116.318 68.7269 118.868C68.8169 119.868 69.5469 120.188 70.4769 120.178C72.2869 120.178 74.107 120.238 75.917 120.128C88.697 119.388 101.474 118.625 114.247 117.838C114.781 117.792 115.312 117.715 115.837 117.608C117.917 105.398 122.467 94.5379 130.967 85.6079C143.697 72.2279 161.197 70.9879 175.857 82.2479C184.667 89.0179 190.557 97.9679 194.857 108.048C195.857 110.528 196.477 113.198 197.357 115.758C197.61 116.583 197.696 117.45 197.611 118.308C197.525 119.167 197.268 120 196.857 120.758C190.967 134.088 183.317 146.218 172.747 156.368C172.357 156.748 172.007 157.158 171.557 157.638C179.557 176.898 187.527 196.128 195.467 215.328C197.147 215.608 198.677 215.788 200.177 216.118C203.346 216.935 206.237 218.59 208.547 220.908C211.706 223.66 213.888 227.362 214.767 231.458C215.93 236.376 215.094 241.555 212.443 245.857C209.792 250.16 205.543 253.235 200.627 254.408C191.007 256.708 180.737 250.178 178.167 240.118C176.974 235.932 177.217 231.466 178.86 227.435C180.502 223.403 183.448 220.039 187.227 217.878L188.677 216.928ZM189.617 120.088C150.527 122.468 111.767 124.718 72.507 127.178C73.877 129.508 74.887 131.308 75.987 133.058C82.657 143.728 90.827 152.988 101.507 159.818C111.787 166.398 123.007 169.368 135.177 167.988C144.677 166.918 153.177 163.098 160.807 157.458C172.807 148.648 181.237 136.998 187.867 123.878C188.437 122.758 188.917 121.598 189.617 120.088ZM166.377 161.848C157.227 168.558 147.477 173.218 136.307 174.668C125.137 176.118 114.367 173.918 103.827 168.998C101.707 181.998 99.637 194.798 97.527 207.768L180.187 196.258L166.377 161.848ZM189.297 113.248C187.507 106.248 180.987 95.8279 174.927 90.3779C172.653 88.2963 170.165 86.4595 167.507 84.8979C158.017 79.4879 147.887 80.3579 139.287 87.0979C133.197 91.8879 129.287 98.2279 126.287 105.248C124.605 109.096 123.361 113.122 122.577 117.248L189.297 113.248ZM196.607 222.488C188.377 222.198 184.307 228.638 184.177 234.738C184.027 241.888 190.057 248.138 196.887 248.078C203.137 248.018 208.347 242.348 208.467 235.618C208.647 228.348 201.577 221.858 196.647 222.488H196.607ZM100.607 248.058C100.727 242.178 94.607 234.388 87.487 236.348C82.607 237.698 78.6569 241.678 78.3369 246.808C77.9569 252.968 81.117 258.038 86.277 259.568C93.657 261.748 100.727 256.068 100.637 248.058H100.607ZM32.737 94.2279C35.057 96.7679 35.887 97.0079 38.737 95.9979C41.957 94.8379 45.177 93.7079 48.387 92.5179C49.2189 92.1446 50.0272 91.7205 50.807 91.2479C46.817 88.9979 38.847 89.8379 32.767 94.2279H32.737Z" fill="#3558A2"/>
<path d="M261.777 180.508L260.047 182.628C256.125 187.653 251.269 191.873 245.747 195.058C240.438 198.138 234.217 199.259 228.167 198.228C225.511 197.808 222.967 196.854 220.692 195.422C218.416 193.99 216.454 192.11 214.927 189.897C212.962 187.071 211.239 184.084 209.777 180.967C207.327 176.077 207.537 170.858 208.907 165.808C211.037 157.948 213.407 150.147 215.907 142.417C219.907 130.417 224.147 118.417 228.047 106.417C230.047 100.297 231.297 93.9675 233.187 87.8175C237.077 75.1975 243.297 64.1374 254.987 57.0174C258.242 54.9172 261.93 53.5814 265.775 53.1103C269.62 52.6392 273.521 53.0451 277.187 54.2974C280.418 55.3056 283.242 57.3203 285.247 60.0474C289.197 65.3674 291.557 71.3174 291.397 77.9774C291.277 83.0275 290.627 88.0675 290.197 93.2575C297.277 93.0375 302.397 96.1675 304.377 103.387C305.06 105.719 304.99 108.207 304.176 110.496C303.363 112.785 301.848 114.76 299.847 116.138C294.587 119.568 289.527 118.617 284.497 114.857C280.587 129.557 276.727 144.107 272.817 158.857C273.147 158.997 273.627 159.227 274.117 159.397C276.2 160.118 278.086 161.316 279.623 162.896C281.161 164.476 282.306 166.394 282.969 168.496C283.632 170.599 283.794 172.827 283.441 175.003C283.088 177.179 282.23 179.242 280.937 181.027C279.946 182.36 278.685 183.467 277.236 184.278C275.787 185.088 274.183 185.582 272.529 185.729C270.876 185.875 269.21 185.67 267.641 185.127C266.072 184.584 264.636 183.715 263.427 182.578C262.835 181.922 262.284 181.23 261.777 180.508V180.508ZM284.897 79.2574C284.806 75.1906 283.834 71.1919 282.047 67.5374C281.138 65.3953 279.666 63.5391 277.787 62.1658C275.909 60.7925 273.694 59.9534 271.377 59.7374C268.391 59.3394 265.353 59.7326 262.567 60.8775C255.967 63.5986 250.398 68.3382 246.657 74.4174C241.887 82.0075 238.997 90.4175 236.917 99.0675C236.217 101.977 235.557 104.907 234.627 107.737C230.437 120.467 226.077 133.138 221.937 145.878C219.587 153.098 217.477 160.397 215.427 167.717C214.487 171.057 214.177 174.558 215.807 177.818C217.114 180.598 218.635 183.273 220.357 185.818C221.447 187.443 222.879 188.812 224.553 189.827C226.226 190.843 228.101 191.481 230.047 191.698C234.867 192.269 239.733 191.099 243.767 188.397C251.767 183.327 257.327 176.258 261.427 167.828C265.857 158.718 268.737 149.097 271.277 139.367C274.867 125.607 278.227 111.797 281.787 98.0275C283.378 91.8754 284.419 85.5939 284.897 79.2574V79.2574ZM276.797 173.258C276.727 169.898 275.727 167.538 273.117 166.258C272.227 165.818 270.307 165.557 270.117 165.917C268.464 168.55 267.153 171.383 266.217 174.347C265.767 176.047 269.007 178.588 271.037 178.868C272.13 178.964 273.225 178.698 274.152 178.111C275.079 177.523 275.787 176.647 276.167 175.618C276.443 174.864 276.653 174.087 276.797 173.298V173.258ZM297.987 106.257C297.987 103.047 294.987 99.9775 291.987 100.007C291.319 100.017 290.66 100.157 290.047 100.422C289.434 100.686 288.88 101.069 288.415 101.549C287.95 102.028 287.585 102.595 287.34 103.216C287.095 103.837 286.975 104.5 286.987 105.167C287.097 108.257 290.487 111.507 293.477 111.387C294.756 111.303 295.949 110.714 296.795 109.75C297.64 108.787 298.069 107.527 297.987 106.247V106.257Z" fill="#3558A2"/>
<path d="M13.0064 122.829C20.5764 122.409 28.0063 123.369 35.4663 124.589C42.0563 125.669 45.1964 130.219 44.3064 136.909C44.1564 138.079 44.0864 139.259 44.0464 140.439C43.9764 142.509 43.5464 144.359 41.6764 145.649C41.1638 146.121 40.8433 146.765 40.7764 147.459C40.3764 150.329 40.0364 153.209 39.7764 156.099C38.443 171.639 37.1097 187.185 35.7764 202.739C34.5297 217.112 33.2663 231.479 31.9863 245.839C31.4797 251.619 30.953 257.402 30.4064 263.189C30.1264 266.029 28.8664 267.309 26.0264 267.339C23.1221 267.382 20.2177 267.265 17.3263 266.989C14.3263 266.699 13.2564 265.359 13.0364 262.339C12.9815 261.613 12.9815 260.884 13.0364 260.159C13.8431 250.159 14.6597 240.122 15.4863 230.049C16.113 222.269 16.733 214.489 17.3463 206.709C18.1863 196.309 19.0297 185.909 19.8764 175.509C20.4864 168.009 21.0563 160.509 21.6963 152.989C21.9263 150.189 22.2363 147.389 22.6063 144.609C22.9763 141.829 21.6064 140.329 18.7864 140.609C15.521 140.891 12.3636 141.917 9.55635 143.609C7.91635 144.609 6.30635 145.609 4.62635 146.499C2.32635 147.739 -0.103645 148.039 -2.37365 146.499C-3.3955 145.787 -4.17635 144.781 -4.61223 143.614C-5.04812 142.448 -5.11836 141.176 -4.81365 139.969C-4.12148 136.232 -3.0389 132.579 -1.58367 129.069C0.156333 125.069 3.83634 123.359 8.04634 122.919C9.69692 122.801 11.3526 122.771 13.0064 122.829ZM28.1864 157.349C25.7964 187.099 23.4164 216.789 21.0064 246.779L25.0064 246.539C27.6164 216.769 30.2163 187.189 32.8263 157.349H28.1864ZM2.02638 139.459L2.51637 139.769C3.19637 139.409 3.91636 139.089 4.56636 138.669C8.34098 136.322 12.5239 134.707 16.8964 133.909C22.3464 132.839 29.8964 135.669 29.0264 143.809C28.8164 145.809 29.0264 147.949 29.0264 150.229L33.4264 150.599C33.7064 147.739 33.8664 145.129 34.2664 142.599C34.4264 141.599 34.8563 140.219 35.5863 139.839C37.5063 138.839 37.5863 137.299 37.5863 135.529C37.5863 132.529 37.2664 131.909 34.1864 131.349C31.2507 130.788 28.2861 130.391 25.3064 130.159C20.2464 129.809 15.1663 129.589 10.0963 129.469C7.86633 129.469 5.55637 129.969 4.51637 132.169C3.54328 134.547 2.71184 136.982 2.02638 139.459V139.459ZM24.3764 253.819C20.4564 253.429 20.3064 253.529 20.1264 256.959C20.0664 258.009 20.1264 259.059 20.1264 260.329H23.7463L24.3764 253.819Z" fill="#3558A2"/>
<path d="M222.708 63.398C220.365 63.3363 218.028 63.1393 215.708 62.808C214.141 62.5076 212.662 61.8604 211.378 60.9139C210.094 59.9674 209.038 58.7456 208.288 57.338C207.608 56.1786 207.234 54.8656 207.2 53.522C207.166 52.1784 207.474 50.8482 208.094 49.6561C208.715 48.4639 209.628 47.4488 210.748 46.7058C211.868 45.9628 213.158 45.5162 214.498 45.408C216.216 45.1947 217.96 45.3687 219.602 45.9172C221.244 46.4657 222.743 47.3749 223.988 48.578C225.108 49.578 226.078 50.808 227.298 52.128C228.85 50.9122 229.937 49.1999 230.378 47.278C231.238 43.588 231.828 39.838 232.528 36.108C232.599 35.482 232.723 34.8631 232.898 34.2579C233.129 33.5634 233.584 32.9654 234.193 32.558C234.801 32.1507 235.527 31.9572 236.258 32.0079C237.046 32.0418 237.79 32.3851 238.327 32.9636C238.864 33.542 239.152 34.3089 239.128 35.098C238.848 43.638 237.848 51.988 231.008 58.228C230.532 58.6256 230.157 59.13 229.914 59.7001C229.671 60.2701 229.566 60.8896 229.608 61.508C229.786 66.3659 228.118 71.1112 224.938 74.788C224.589 75.2037 224.218 75.6009 223.828 75.978C221.998 77.648 220.098 77.838 218.748 76.498C217.398 75.158 217.498 73.438 219.018 71.608C221.048 69.178 222.588 66.628 222.708 63.398ZM214.048 53.178C215.648 56.298 217.898 57.118 221.048 55.858C219.028 52.288 216.608 51.308 214.048 53.178Z" fill="#3558A2"/>
<path d="M189.616 120.088C188.916 121.598 188.436 122.758 187.866 123.878C181.236 136.998 172.776 148.648 160.806 157.458C153.146 163.098 144.676 166.918 135.176 167.988C123.006 169.368 111.786 166.398 101.506 159.818C90.8259 152.988 82.6558 143.728 75.9858 133.058C74.8858 131.308 73.8759 129.508 72.5059 127.178C111.766 124.718 150.526 122.468 189.616 120.088ZM132.706 153.938C143.456 154.288 152.556 145.408 156.296 137.708C156.529 137.218 156.71 136.705 156.836 136.178C157.776 132.528 155.946 130.178 152.206 130.538C148.466 130.898 144.826 131.378 141.146 131.848C134.859 132.661 128.576 133.485 122.296 134.318C118.616 134.818 114.936 135.318 111.296 135.888C110.201 135.989 109.159 136.407 108.298 137.091C107.436 137.775 106.793 138.694 106.446 139.738C105.796 141.738 107.326 143.138 108.726 144.318C110.228 145.63 111.811 146.846 113.466 147.958C119.138 151.828 125.839 153.911 132.706 153.938V153.938Z" fill="white"/>
<path d="M189.377 113.248L122.637 117.248C123.42 113.122 124.665 109.097 126.347 105.248C129.347 98.2481 133.277 91.888 139.347 87.098C147.947 80.358 158.077 79.488 167.567 84.898C170.225 86.4597 172.712 88.2964 174.987 90.378C181.027 95.8281 187.547 106.298 189.377 113.248Z" fill="#979FBB"/>
<path d="M196.646 222.488C201.576 221.858 208.646 228.348 208.506 235.618C208.386 242.348 203.176 248.018 196.926 248.078C190.096 248.138 184.066 241.888 184.216 234.738C184.376 228.638 188.376 222.178 196.646 222.488Z" fill="#EAECF1"/>
<path d="M100.637 248.058C100.727 256.058 93.6368 261.748 86.3068 259.568C81.1468 258.038 77.9868 252.968 78.3668 246.808C78.6868 241.678 82.6368 237.698 87.5168 236.348C94.6068 234.388 100.757 242.178 100.637 248.058Z" fill="#EAECF1"/>
<path d="M32.7676 94.228C38.8476 89.838 46.7676 88.998 50.7676 91.228C49.9877 91.7005 49.1795 92.1247 48.3475 92.498C45.1375 93.688 41.9175 94.818 38.6975 95.978C35.9175 97.008 35.0876 96.768 32.7676 94.228Z" fill="#979FBB"/>
<path d="M284.896 79.258C284.42 85.6045 283.379 91.8961 281.786 98.058C278.226 111.828 274.866 125.638 271.276 139.398C268.736 149.128 265.856 158.748 261.426 167.858C257.326 176.288 251.726 183.358 243.766 188.428C239.733 191.129 234.867 192.299 230.046 191.728C228.101 191.511 226.226 190.873 224.552 189.858C222.879 188.842 221.447 187.474 220.356 185.848C218.634 183.303 217.113 180.628 215.806 177.848C214.176 174.588 214.486 171.088 215.426 167.748C217.426 160.428 219.586 153.128 221.936 145.908C226.076 133.168 230.436 120.498 234.626 107.768C235.556 104.938 236.216 102.008 236.916 99.098C238.996 90.418 241.916 82.038 246.656 74.448C250.398 68.3687 255.967 63.6292 262.566 60.908C265.352 59.7631 268.39 59.37 271.376 59.768C273.693 59.9839 275.908 60.8231 277.787 62.1963C279.666 63.5696 281.137 65.4258 282.046 67.568C283.829 71.2133 284.801 75.2013 284.896 79.258ZM245.566 166.758C245.594 166.298 245.525 165.836 245.365 165.404C245.204 164.972 244.956 164.577 244.634 164.247C244.313 163.916 243.926 163.655 243.499 163.482C243.072 163.309 242.613 163.227 242.152 163.241C241.691 163.255 241.238 163.364 240.822 163.563C240.405 163.762 240.035 164.045 239.735 164.395C239.434 164.745 239.209 165.153 239.075 165.594C238.941 166.036 238.901 166.5 238.956 166.958C238.933 167.389 238.998 167.82 239.148 168.224C239.297 168.629 239.528 168.998 239.826 169.31C240.124 169.622 240.483 169.87 240.88 170.038C241.277 170.206 241.705 170.291 242.136 170.288C243.05 170.247 243.914 169.859 244.551 169.203C245.189 168.547 245.552 167.673 245.566 166.758V166.758ZM231.276 162.908C231.251 162.043 230.906 161.219 230.307 160.594C229.708 159.969 228.899 159.59 228.036 159.528C227.127 159.539 226.257 159.896 225.601 160.526C224.946 161.155 224.554 162.01 224.506 162.918C224.481 163.378 224.55 163.838 224.709 164.271C224.868 164.703 225.113 165.099 225.43 165.433C225.747 165.768 226.128 166.034 226.552 166.216C226.975 166.398 227.431 166.492 227.891 166.492C228.352 166.492 228.808 166.398 229.231 166.216C229.654 166.034 230.036 165.768 230.353 165.433C230.669 165.099 230.915 164.703 231.073 164.271C231.232 163.838 231.301 163.378 231.276 162.918V162.908ZM236.896 146.178C236.908 145.749 236.834 145.321 236.677 144.921C236.52 144.521 236.285 144.157 235.984 143.85C235.684 143.543 235.325 143.299 234.928 143.134C234.532 142.969 234.106 142.885 233.676 142.888C232.765 142.861 231.879 143.196 231.214 143.82C230.549 144.444 230.158 145.306 230.126 146.218C230.118 147.086 230.453 147.923 231.057 148.546C231.662 149.17 232.488 149.53 233.356 149.548C234.269 149.559 235.151 149.213 235.812 148.583C236.473 147.954 236.862 147.09 236.896 146.178V146.178ZM253.166 101.088C253.194 100.175 252.863 99.2867 252.244 98.614C251.626 97.9413 250.769 97.5372 249.856 97.488C249.428 97.4705 249 97.5394 248.599 97.6905C248.197 97.8416 247.83 98.0719 247.52 98.3676C247.209 98.6633 246.961 99.0184 246.79 99.4119C246.62 99.8053 246.53 100.229 246.526 100.658C246.488 101.564 246.807 102.449 247.415 103.123C248.023 103.796 248.871 104.204 249.776 104.258C250.641 104.267 251.475 103.943 252.106 103.352C252.738 102.762 253.117 101.951 253.166 101.088V101.088ZM265.286 99.788C264.417 99.8141 263.594 100.183 262.996 100.815C262.398 101.446 262.075 102.289 262.096 103.158C262.098 103.612 262.193 104.061 262.374 104.476C262.556 104.892 262.82 105.267 263.152 105.577C263.483 105.887 263.875 106.126 264.302 106.279C264.729 106.432 265.183 106.497 265.636 106.468C266.064 106.434 266.482 106.316 266.864 106.12C267.246 105.925 267.587 105.656 267.865 105.329C268.144 105.003 268.355 104.624 268.488 104.215C268.62 103.807 268.67 103.376 268.636 102.948C268.627 102.519 268.533 102.097 268.359 101.705C268.185 101.313 267.935 100.96 267.623 100.666C267.311 100.372 266.944 100.143 266.543 99.9921C266.142 99.8414 265.715 99.7719 265.286 99.788V99.788ZM251.636 150.338C251.605 149.471 251.232 148.651 250.599 148.057C249.966 147.463 249.124 147.144 248.256 147.168C247.435 147.191 246.654 147.529 246.075 148.111C245.497 148.694 245.164 149.477 245.146 150.298C245.156 151.165 245.497 151.995 246.099 152.618C246.702 153.241 247.52 153.61 248.386 153.648C249.254 153.632 250.08 153.277 250.688 152.657C251.296 152.038 251.636 151.205 251.636 150.338V150.338ZM272.926 87.178C272.928 86.4158 272.639 85.6816 272.119 85.1244C271.599 84.5672 270.887 84.2288 270.126 84.178C269.722 84.1536 269.316 84.2115 268.934 84.3482C268.553 84.4849 268.203 84.6975 267.906 84.9732C267.608 85.2489 267.37 85.582 267.205 85.9523C267.04 86.3227 266.952 86.7226 266.946 87.128C266.946 87.5305 267.027 87.9289 267.184 88.2996C267.341 88.6702 267.571 89.0055 267.86 89.2855C268.149 89.5654 268.492 89.7842 268.867 89.929C269.243 90.0737 269.644 90.1414 270.046 90.128C270.817 90.1123 271.551 89.7942 272.09 89.2424C272.629 88.6905 272.929 87.9492 272.926 87.178ZM254.996 86.898C255.376 86.8908 255.751 86.8063 256.097 86.6497C256.444 86.493 256.754 86.2674 257.011 85.9868C257.267 85.7061 257.464 85.3761 257.589 85.017C257.713 84.6579 257.763 84.2771 257.736 83.898C257.685 83.1375 257.347 82.4249 256.79 81.9048C256.233 81.3848 255.498 81.0963 254.736 81.098C253.975 81.1911 253.273 81.5543 252.758 82.1213C252.242 82.6884 251.947 83.4218 251.926 84.188C251.995 84.9482 252.35 85.6537 252.921 86.1609C253.491 86.6681 254.233 86.9388 254.996 86.918V86.898Z" fill="#EAECF1"/>
<path d="M276.796 173.299C276.651 174.099 276.437 174.886 276.156 175.649C275.776 176.679 275.068 177.555 274.141 178.142C273.214 178.729 272.119 178.995 271.026 178.899C269.026 178.619 265.756 176.079 266.206 174.379C267.142 171.415 268.453 168.582 270.106 165.949C270.306 165.589 272.226 165.849 273.106 166.289C275.726 167.579 276.726 169.939 276.796 173.299Z" fill="#979FBB"/>
<path d="M297.988 106.248C298.067 107.529 297.634 108.789 296.785 109.751C295.935 110.713 294.739 111.299 293.458 111.378C290.458 111.498 287.078 108.248 286.968 105.158C286.956 104.491 287.076 103.828 287.321 103.207C287.566 102.586 287.931 102.019 288.396 101.54C288.86 101.06 289.415 100.677 290.028 100.413C290.641 100.148 291.3 100.007 291.968 99.9983C295.008 99.9683 297.948 103.038 297.988 106.248Z" fill="#979FBB"/>
<path d="M28.1871 157.348H32.8571C30.2471 187.188 27.6471 216.768 25.0371 246.538L21.0371 246.778C23.3771 216.788 25.7971 187.098 28.1871 157.348Z" fill="white"/>
<path d="M2.02734 139.459C2.7113 136.968 3.54275 134.521 4.51733 132.129C5.51733 129.929 7.86729 129.379 10.0973 129.429C15.1673 129.549 20.2474 129.769 25.3074 130.119C28.2871 130.351 31.2516 130.748 34.1874 131.309C37.2674 131.869 37.5973 132.439 37.5873 135.489C37.5873 137.259 37.4773 138.799 35.5873 139.799C34.8573 140.179 34.4273 141.569 34.2673 142.559C33.8673 145.129 33.7074 147.739 33.4274 150.559L29.0273 150.189C29.0273 147.909 28.8473 145.819 29.0273 143.769C29.8473 135.629 22.3473 132.769 16.8973 133.869C12.5249 134.667 8.34194 136.282 4.56732 138.629C3.91732 139.049 3.19733 139.369 2.51733 139.729L2.02734 139.459Z" fill="#979FBB"/>
<path d="M24.3772 253.819L23.7372 260.329H20.1172C20.1172 259.059 20.1172 258.009 20.1172 256.959C20.3772 253.529 20.4872 253.429 24.3772 253.819Z" fill="#EAECF1"/>
<path d="M132.708 153.938C125.829 153.912 119.116 151.821 113.438 147.938C111.783 146.826 110.199 145.61 108.698 144.298C107.298 143.118 105.768 141.748 106.418 139.718C106.765 138.674 107.408 137.755 108.27 137.071C109.131 136.387 110.173 135.969 111.268 135.868C114.938 135.298 118.618 134.798 122.268 134.298C128.548 133.458 134.831 132.635 141.118 131.828C144.798 131.358 148.478 130.828 152.178 130.518C155.878 130.208 157.748 132.518 156.808 136.158C156.682 136.685 156.501 137.198 156.268 137.688C152.558 145.408 143.458 154.288 132.708 153.938ZM147.868 137.868L117.088 141.928C128.118 149.848 140.908 148.738 147.868 137.868V137.868Z" fill="#3558A2"/>
<path d="M245.566 166.759C245.551 167.674 245.188 168.548 244.551 169.204C243.913 169.86 243.05 170.248 242.136 170.289C241.704 170.292 241.277 170.207 240.88 170.039C240.482 169.871 240.124 169.624 239.826 169.312C239.528 169 239.297 168.63 239.147 168.225C238.998 167.821 238.932 167.39 238.956 166.959C238.9 166.501 238.941 166.037 239.075 165.596C239.209 165.154 239.433 164.746 239.734 164.396C240.035 164.046 240.405 163.763 240.821 163.564C241.237 163.366 241.69 163.256 242.151 163.242C242.612 163.228 243.071 163.31 243.499 163.483C243.926 163.656 244.313 163.917 244.634 164.248C244.955 164.579 245.204 164.973 245.364 165.405C245.525 165.838 245.593 166.299 245.566 166.759V166.759Z" fill="#3558A2"/>
<path d="M231.276 162.909C231.277 163.586 231.076 164.248 230.698 164.81C230.319 165.371 229.781 165.807 229.153 166.06C228.525 166.313 227.836 166.372 227.174 166.23C226.512 166.087 225.907 165.75 225.439 165.261C224.97 164.773 224.659 164.155 224.545 163.487C224.43 162.82 224.519 162.133 224.798 161.516C225.078 160.9 225.535 160.381 226.113 160.026C226.69 159.672 227.36 159.499 228.036 159.529C228.899 159.59 229.708 159.97 230.307 160.595C230.906 161.219 231.251 162.044 231.276 162.909Z" fill="#3558A2"/>
<path d="M236.897 146.178C236.863 147.091 236.474 147.954 235.813 148.583C235.151 149.213 234.27 149.559 233.357 149.548C232.489 149.53 231.663 149.17 231.058 148.547C230.454 147.923 230.119 147.087 230.127 146.218C230.158 145.307 230.549 144.445 231.215 143.82C231.88 143.196 232.765 142.861 233.677 142.888C234.107 142.885 234.532 142.969 234.929 143.134C235.326 143.299 235.685 143.543 235.985 143.85C236.286 144.157 236.521 144.521 236.678 144.921C236.835 145.321 236.909 145.749 236.897 146.178V146.178Z" fill="#3558A2"/>
<path d="M253.167 101.089C253.118 101.952 252.738 102.763 252.107 103.353C251.475 103.944 250.641 104.268 249.777 104.259C248.871 104.205 248.023 103.797 247.415 103.124C246.807 102.45 246.488 101.565 246.527 100.659C246.53 100.23 246.62 99.8064 246.791 99.4129C246.961 99.0194 247.209 98.6643 247.52 98.3686C247.831 98.0729 248.198 97.8426 248.599 97.6915C249 97.5404 249.428 97.4715 249.856 97.489C250.769 97.5382 251.626 97.9423 252.245 98.615C252.863 99.2877 253.194 100.176 253.167 101.089V101.089Z" fill="#3558A2"/>
<path d="M265.286 99.7882C265.716 99.7695 266.146 99.8369 266.549 99.9864C266.953 100.136 267.322 100.365 267.636 100.659C267.95 100.953 268.202 101.308 268.377 101.701C268.553 102.094 268.647 102.518 268.656 102.948C268.69 103.376 268.64 103.807 268.508 104.216C268.375 104.624 268.164 105.003 267.885 105.33C267.607 105.657 267.267 105.925 266.884 106.121C266.502 106.316 266.084 106.434 265.656 106.468C265.203 106.497 264.749 106.433 264.322 106.279C263.895 106.126 263.503 105.887 263.172 105.577C262.84 105.267 262.576 104.893 262.394 104.477C262.213 104.061 262.118 103.612 262.116 103.158C262.095 102.292 262.415 101.453 263.009 100.822C263.602 100.191 264.421 99.8195 265.286 99.7882V99.7882Z" fill="#3558A2"/>
<path d="M251.636 150.337C251.637 151.205 251.296 152.038 250.688 152.657C250.081 153.276 249.254 153.632 248.386 153.647C247.521 153.609 246.702 153.24 246.099 152.617C245.497 151.994 245.156 151.164 245.146 150.297C245.164 149.476 245.497 148.693 246.076 148.111C246.655 147.528 247.435 147.19 248.256 147.167C249.124 147.143 249.966 147.463 250.599 148.056C251.232 148.65 251.605 149.47 251.636 150.337Z" fill="#3558A2"/>
<path d="M272.927 87.1776C272.928 87.947 272.626 88.6858 272.088 89.2355C271.549 89.7852 270.817 90.1019 270.047 90.1176C269.645 90.131 269.244 90.0633 268.869 89.9186C268.493 89.7738 268.15 89.555 267.861 89.275C267.572 88.9951 267.342 88.6598 267.185 88.2892C267.028 87.9185 266.947 87.5201 266.947 87.1176C266.953 86.7122 267.041 86.3123 267.206 85.9419C267.371 85.5716 267.61 85.2385 267.907 84.9628C268.204 84.6871 268.554 84.4744 268.936 84.3378C269.317 84.2011 269.723 84.1432 270.127 84.1675C270.89 84.2184 271.604 84.5582 272.124 85.1175C272.644 85.6769 272.932 86.4136 272.927 87.1776V87.1776Z" fill="#3558A2"/>
<path d="M254.996 86.9179C254.228 86.9438 253.48 86.6741 252.905 86.1642C252.33 85.6544 251.972 84.9435 251.906 84.1779C251.927 83.4117 252.222 82.6783 252.738 82.1112C253.253 81.5442 253.955 81.181 254.716 81.0879C255.478 81.0862 256.213 81.3747 256.77 81.8947C257.327 82.4148 257.665 83.1274 257.716 83.8879C257.748 84.2678 257.701 84.6502 257.58 85.0115C257.458 85.3729 257.264 85.7056 257.009 85.9893C256.755 86.2729 256.445 86.5016 256.099 86.6613C255.752 86.821 255.377 86.9083 254.996 86.9179V86.9179Z" fill="#3558A2"/>
<path d="M147.866 137.869C140.866 148.739 128.116 149.869 117.086 141.929L147.866 137.869Z" fill="#979FBB"/>
<path d="M188.677 216.928C186.677 212.138 184.837 207.548 182.907 202.818L96.4569 214.538C95.6269 219.618 94.767 224.858 93.857 230.408C96.8575 231.11 99.6144 232.606 101.84 234.738C104.065 236.87 105.677 239.56 106.507 242.528C107.837 246.628 107.706 251.063 106.137 255.078C104.756 258.915 102.097 262.161 98.6067 264.272C95.1165 266.382 91.0069 267.228 86.9669 266.668C78.8069 265.578 72.4869 258.668 71.4669 249.668C70.4669 240.528 75.9069 233.278 86.9669 229.358C87.9669 223.668 88.8769 217.868 89.8369 212.078C92.2969 197.238 94.727 182.388 97.257 167.568C97.4622 166.937 97.4406 166.254 97.1959 165.636C96.9513 165.019 96.499 164.507 95.917 164.188C82.117 154.798 72.5069 141.858 64.8469 127.288C61.5969 121.108 61.0769 114.598 61.6969 107.778C62.1469 102.728 60.187 98.2979 56.937 94.0179C54.937 97.4479 51.997 98.6179 48.777 99.5479C46.087 100.328 43.497 101.458 40.857 102.418C35.467 104.418 30.587 102.938 27.177 98.2979C26.4838 97.3432 25.859 96.3407 25.307 95.2979C24.207 93.2179 24.387 91.6579 26.307 90.2479C30.4687 86.9935 35.313 84.7234 40.4769 83.6079C44.9581 82.7744 49.579 83.119 53.887 84.6079C56.5046 85.4097 58.9171 86.77 60.9578 88.5949C62.9985 90.4198 64.6188 92.6658 65.7069 95.1779C68.0069 100.298 69.267 105.558 68.247 111.318C67.827 113.728 68.4969 116.318 68.7269 118.868C68.8169 119.868 69.5469 120.188 70.4769 120.178C72.2869 120.178 74.107 120.238 75.917 120.128C88.697 119.388 101.474 118.625 114.247 117.838C114.781 117.792 115.312 117.715 115.837 117.608C117.917 105.398 122.467 94.5379 130.967 85.6079C143.697 72.2279 161.197 70.9879 175.857 82.2479C184.667 89.0179 190.557 97.9679 194.857 108.048C195.857 110.528 196.477 113.198 197.357 115.758C197.61 116.583 197.696 117.45 197.611 118.308C197.525 119.167 197.268 120 196.857 120.758C190.967 134.088 183.317 146.218 172.747 156.368C172.357 156.748 172.007 157.158 171.557 157.638C179.557 176.898 187.527 196.128 195.467 215.328C197.147 215.608 198.677 215.788 200.177 216.118C203.346 216.935 206.237 218.59 208.547 220.908C211.706 223.66 213.888 227.362 214.767 231.458C215.93 236.376 215.094 241.555 212.443 245.857C209.792 250.16 205.543 253.235 200.627 254.408C191.007 256.708 180.737 250.178 178.167 240.118C176.974 235.932 177.217 231.466 178.86 227.435C180.502 223.403 183.448 220.039 187.227 217.878L188.677 216.928ZM189.617 120.088C150.527 122.468 111.767 124.718 72.507 127.178C73.877 129.508 74.887 131.308 75.987 133.058C82.657 143.728 90.827 152.988 101.507 159.818C111.787 166.398 123.007 169.368 135.177 167.988C144.677 166.918 153.177 163.098 160.807 157.458C172.807 148.648 181.237 136.998 187.867 123.878C188.437 122.758 188.917 121.598 189.617 120.088ZM166.377 161.848C157.227 168.558 147.477 173.218 136.307 174.668C125.137 176.118 114.367 173.918 103.827 168.998C101.707 181.998 99.637 194.798 97.527 207.768L180.187 196.258L166.377 161.848ZM189.297 113.248C187.507 106.248 180.987 95.8279 174.927 90.3779C172.653 88.2963 170.165 86.4595 167.507 84.8979C158.017 79.4879 147.887 80.3579 139.287 87.0979C133.197 91.8879 129.287 98.2279 126.287 105.248C124.605 109.096 123.361 113.122 122.577 117.248L189.297 113.248ZM196.607 222.488C188.377 222.198 184.307 228.638 184.177 234.738C184.027 241.888 190.057 248.138 196.887 248.078C203.137 248.018 208.347 242.348 208.467 235.618C208.647 228.348 201.577 221.858 196.647 222.488H196.607ZM100.607 248.058C100.727 242.178 94.607 234.388 87.487 236.348C82.607 237.698 78.6569 241.678 78.3369 246.808C77.9569 252.968 81.117 258.038 86.277 259.568C93.657 261.748 100.727 256.068 100.637 248.058H100.607ZM32.737 94.2279C35.057 96.7679 35.887 97.0079 38.737 95.9979C41.957 94.8379 45.177 93.7079 48.387 92.5179C49.2189 92.1446 50.0272 91.7205 50.807 91.2479C46.817 88.9979 38.847 89.8379 32.767 94.2279H32.737Z" fill="#3558A2"/>
<path d="M261.777 180.508L260.047 182.628C256.125 187.653 251.269 191.873 245.747 195.058C240.438 198.138 234.217 199.259 228.167 198.228C225.511 197.808 222.967 196.854 220.692 195.422C218.416 193.99 216.454 192.11 214.927 189.897C212.962 187.071 211.239 184.084 209.777 180.967C207.327 176.077 207.537 170.858 208.907 165.808C211.037 157.948 213.407 150.147 215.907 142.417C219.907 130.417 224.147 118.417 228.047 106.417C230.047 100.297 231.297 93.9675 233.187 87.8175C237.077 75.1975 243.297 64.1374 254.987 57.0174C258.242 54.9172 261.93 53.5814 265.775 53.1103C269.62 52.6392 273.521 53.0451 277.187 54.2974C280.418 55.3056 283.242 57.3203 285.247 60.0474C289.197 65.3674 291.557 71.3174 291.397 77.9774C291.277 83.0275 290.627 88.0675 290.197 93.2575C297.277 93.0375 302.397 96.1675 304.377 103.387C305.06 105.719 304.99 108.207 304.176 110.496C303.363 112.785 301.848 114.76 299.847 116.138C294.587 119.568 289.527 118.617 284.497 114.857C280.587 129.557 276.727 144.107 272.817 158.857C273.147 158.997 273.627 159.227 274.117 159.397C276.2 160.118 278.086 161.316 279.623 162.896C281.161 164.476 282.306 166.394 282.969 168.496C283.632 170.599 283.794 172.827 283.441 175.003C283.088 177.179 282.23 179.242 280.937 181.027C279.946 182.36 278.685 183.467 277.236 184.278C275.787 185.088 274.183 185.582 272.529 185.729C270.876 185.875 269.21 185.67 267.641 185.127C266.072 184.584 264.636 183.715 263.427 182.578C262.835 181.922 262.284 181.23 261.777 180.508V180.508ZM284.897 79.2574C284.806 75.1906 283.834 71.1919 282.047 67.5374C281.138 65.3953 279.666 63.5391 277.787 62.1658C275.909 60.7925 273.694 59.9534 271.377 59.7374C268.391 59.3394 265.353 59.7326 262.567 60.8775C255.967 63.5986 250.398 68.3382 246.657 74.4174C241.887 82.0075 238.997 90.4175 236.917 99.0675C236.217 101.977 235.557 104.907 234.627 107.737C230.437 120.467 226.077 133.138 221.937 145.878C219.587 153.098 217.477 160.397 215.427 167.717C214.487 171.057 214.177 174.558 215.807 177.818C217.114 180.598 218.635 183.273 220.357 185.818C221.447 187.443 222.879 188.812 224.553 189.827C226.226 190.843 228.101 191.481 230.047 191.698C234.867 192.269 239.733 191.099 243.767 188.397C251.767 183.327 257.327 176.258 261.427 167.828C265.857 158.718 268.737 149.097 271.277 139.367C274.867 125.607 278.227 111.797 281.787 98.0275C283.378 91.8754 284.419 85.5939 284.897 79.2574V79.2574ZM276.797 173.258C276.727 169.898 275.727 167.538 273.117 166.258C272.227 165.818 270.307 165.557 270.117 165.917C268.464 168.55 267.153 171.383 266.217 174.347C265.767 176.047 269.007 178.588 271.037 178.868C272.13 178.964 273.225 178.698 274.152 178.111C275.079 177.523 275.787 176.647 276.167 175.618C276.443 174.864 276.653 174.087 276.797 173.298V173.258ZM297.987 106.257C297.987 103.047 294.987 99.9775 291.987 100.007C291.319 100.017 290.66 100.157 290.047 100.422C289.434 100.686 288.88 101.069 288.415 101.549C287.95 102.028 287.585 102.595 287.34 103.216C287.095 103.837 286.975 104.5 286.987 105.167C287.097 108.257 290.487 111.507 293.477 111.387C294.756 111.303 295.949 110.714 296.795 109.75C297.64 108.787 298.069 107.527 297.987 106.247V106.257Z" fill="#3558A2"/>
<path d="M13.0064 122.829C20.5764 122.409 28.0063 123.369 35.4663 124.589C42.0563 125.669 45.1964 130.219 44.3064 136.909C44.1564 138.079 44.0864 139.259 44.0464 140.439C43.9764 142.509 43.5464 144.359 41.6764 145.649C41.1638 146.121 40.8433 146.765 40.7764 147.459C40.3764 150.329 40.0364 153.209 39.7764 156.099C38.443 171.639 37.1097 187.185 35.7764 202.739C34.5297 217.112 33.2663 231.479 31.9863 245.839C31.4797 251.619 30.953 257.402 30.4064 263.189C30.1264 266.029 28.8664 267.309 26.0264 267.339C23.1221 267.382 20.2177 267.265 17.3263 266.989C14.3263 266.699 13.2564 265.359 13.0364 262.339C12.9815 261.613 12.9815 260.884 13.0364 260.159C13.8431 250.159 14.6597 240.122 15.4863 230.049C16.113 222.269 16.733 214.489 17.3463 206.709C18.1863 196.309 19.0297 185.909 19.8764 175.509C20.4864 168.009 21.0563 160.509 21.6963 152.989C21.9263 150.189 22.2363 147.389 22.6063 144.609C22.9763 141.829 21.6064 140.329 18.7864 140.609C15.521 140.891 12.3636 141.917 9.55635 143.609C7.91635 144.609 6.30635 145.609 4.62635 146.499C2.32635 147.739 -0.103645 148.039 -2.37365 146.499C-3.3955 145.787 -4.17635 144.781 -4.61223 143.614C-5.04812 142.448 -5.11836 141.176 -4.81365 139.969C-4.12148 136.232 -3.0389 132.579 -1.58367 129.069C0.156333 125.069 3.83634 123.359 8.04634 122.919C9.69692 122.801 11.3526 122.771 13.0064 122.829ZM28.1864 157.349C25.7964 187.099 23.4164 216.789 21.0064 246.779L25.0064 246.539C27.6164 216.769 30.2163 187.189 32.8263 157.349H28.1864ZM2.02638 139.459L2.51637 139.769C3.19637 139.409 3.91636 139.089 4.56636 138.669C8.34098 136.322 12.5239 134.707 16.8964 133.909C22.3464 132.839 29.8964 135.669 29.0264 143.809C28.8164 145.809 29.0264 147.949 29.0264 150.229L33.4264 150.599C33.7064 147.739 33.8664 145.129 34.2664 142.599C34.4264 141.599 34.8563 140.219 35.5863 139.839C37.5063 138.839 37.5863 137.299 37.5863 135.529C37.5863 132.529 37.2664 131.909 34.1864 131.349C31.2507 130.788 28.2861 130.391 25.3064 130.159C20.2464 129.809 15.1663 129.589 10.0963 129.469C7.86633 129.469 5.55637 129.969 4.51637 132.169C3.54328 134.547 2.71184 136.982 2.02638 139.459V139.459ZM24.3764 253.819C20.4564 253.429 20.3064 253.529 20.1264 256.959C20.0664 258.009 20.1264 259.059 20.1264 260.329H23.7463L24.3764 253.819Z" fill="#3558A2"/>
<path d="M222.708 63.398C220.365 63.3363 218.028 63.1393 215.708 62.808C214.141 62.5076 212.662 61.8604 211.378 60.9139C210.094 59.9674 209.038 58.7456 208.288 57.338C207.608 56.1786 207.234 54.8656 207.2 53.522C207.166 52.1784 207.474 50.8482 208.094 49.6561C208.715 48.4639 209.628 47.4488 210.748 46.7058C211.868 45.9628 213.158 45.5162 214.498 45.408C216.216 45.1947 217.96 45.3687 219.602 45.9172C221.244 46.4657 222.743 47.3749 223.988 48.578C225.108 49.578 226.078 50.808 227.298 52.128C228.85 50.9122 229.937 49.1999 230.378 47.278C231.238 43.588 231.828 39.838 232.528 36.108C232.599 35.482 232.723 34.8631 232.898 34.2579C233.129 33.5634 233.584 32.9654 234.193 32.558C234.801 32.1507 235.527 31.9572 236.258 32.0079C237.046 32.0418 237.79 32.3851 238.327 32.9636C238.864 33.542 239.152 34.3089 239.128 35.098C238.848 43.638 237.848 51.988 231.008 58.228C230.532 58.6256 230.157 59.13 229.914 59.7001C229.671 60.2701 229.566 60.8896 229.608 61.508C229.786 66.3659 228.118 71.1112 224.938 74.788C224.589 75.2037 224.218 75.6009 223.828 75.978C221.998 77.648 220.098 77.838 218.748 76.498C217.398 75.158 217.498 73.438 219.018 71.608C221.048 69.178 222.588 66.628 222.708 63.398ZM214.048 53.178C215.648 56.298 217.898 57.118 221.048 55.858C219.028 52.288 216.608 51.308 214.048 53.178Z" fill="#3558A2"/>
<path d="M189.616 120.088C188.916 121.598 188.436 122.758 187.866 123.878C181.236 136.998 172.776 148.648 160.806 157.458C153.146 163.098 144.676 166.918 135.176 167.988C123.006 169.368 111.786 166.398 101.506 159.818C90.8259 152.988 82.6558 143.728 75.9858 133.058C74.8858 131.308 73.8759 129.508 72.5059 127.178C111.766 124.718 150.526 122.468 189.616 120.088ZM132.706 153.938C143.456 154.288 152.556 145.408 156.296 137.708C156.529 137.218 156.71 136.705 156.836 136.178C157.776 132.528 155.946 130.178 152.206 130.538C148.466 130.898 144.826 131.378 141.146 131.848C134.859 132.661 128.576 133.485 122.296 134.318C118.616 134.818 114.936 135.318 111.296 135.888C110.201 135.989 109.159 136.407 108.298 137.091C107.436 137.775 106.793 138.694 106.446 139.738C105.796 141.738 107.326 143.138 108.726 144.318C110.228 145.63 111.811 146.846 113.466 147.958C119.138 151.828 125.839 153.911 132.706 153.938V153.938Z" fill="white"/>
<path d="M189.377 113.248L122.637 117.248C123.42 113.122 124.665 109.097 126.347 105.248C129.347 98.2481 133.277 91.888 139.347 87.098C147.947 80.358 158.077 79.488 167.567 84.898C170.225 86.4597 172.712 88.2964 174.987 90.378C181.027 95.8281 187.547 106.298 189.377 113.248Z" fill="#979FBB"/>
<path d="M196.646 222.488C201.576 221.858 208.646 228.348 208.506 235.618C208.386 242.348 203.176 248.018 196.926 248.078C190.096 248.138 184.066 241.888 184.216 234.738C184.376 228.638 188.376 222.178 196.646 222.488Z" fill="#EAECF1"/>
<path d="M100.637 248.058C100.727 256.058 93.6368 261.748 86.3068 259.568C81.1468 258.038 77.9868 252.968 78.3668 246.808C78.6868 241.678 82.6368 237.698 87.5168 236.348C94.6068 234.388 100.757 242.178 100.637 248.058Z" fill="#EAECF1"/>
<path d="M32.7676 94.228C38.8476 89.838 46.7676 88.998 50.7676 91.228C49.9877 91.7005 49.1795 92.1247 48.3475 92.498C45.1375 93.688 41.9175 94.818 38.6975 95.978C35.9175 97.008 35.0876 96.768 32.7676 94.228Z" fill="#979FBB"/>
<path d="M284.896 79.258C284.42 85.6045 283.379 91.8961 281.786 98.058C278.226 111.828 274.866 125.638 271.276 139.398C268.736 149.128 265.856 158.748 261.426 167.858C257.326 176.288 251.726 183.358 243.766 188.428C239.733 191.129 234.867 192.299 230.046 191.728C228.101 191.511 226.226 190.873 224.552 189.858C222.879 188.842 221.447 187.474 220.356 185.848C218.634 183.303 217.113 180.628 215.806 177.848C214.176 174.588 214.486 171.088 215.426 167.748C217.426 160.428 219.586 153.128 221.936 145.908C226.076 133.168 230.436 120.498 234.626 107.768C235.556 104.938 236.216 102.008 236.916 99.098C238.996 90.418 241.916 82.038 246.656 74.448C250.398 68.3687 255.967 63.6292 262.566 60.908C265.352 59.7631 268.39 59.37 271.376 59.768C273.693 59.9839 275.908 60.8231 277.787 62.1963C279.666 63.5696 281.137 65.4258 282.046 67.568C283.829 71.2133 284.801 75.2013 284.896 79.258ZM245.566 166.758C245.594 166.298 245.525 165.836 245.365 165.404C245.204 164.972 244.956 164.577 244.634 164.247C244.313 163.916 243.926 163.655 243.499 163.482C243.072 163.309 242.613 163.227 242.152 163.241C241.691 163.255 241.238 163.364 240.822 163.563C240.405 163.762 240.035 164.045 239.735 164.395C239.434 164.745 239.209 165.153 239.075 165.594C238.941 166.036 238.901 166.5 238.956 166.958C238.933 167.389 238.998 167.82 239.148 168.224C239.297 168.629 239.528 168.998 239.826 169.31C240.124 169.622 240.483 169.87 240.88 170.038C241.277 170.206 241.705 170.291 242.136 170.288C243.05 170.247 243.914 169.859 244.551 169.203C245.189 168.547 245.552 167.673 245.566 166.758V166.758ZM231.276 162.908C231.251 162.043 230.906 161.219 230.307 160.594C229.708 159.969 228.899 159.59 228.036 159.528C227.127 159.539 226.257 159.896 225.601 160.526C224.946 161.155 224.554 162.01 224.506 162.918C224.481 163.378 224.55 163.838 224.709 164.271C224.868 164.703 225.113 165.099 225.43 165.433C225.747 165.768 226.128 166.034 226.552 166.216C226.975 166.398 227.431 166.492 227.891 166.492C228.352 166.492 228.808 166.398 229.231 166.216C229.654 166.034 230.036 165.768 230.353 165.433C230.669 165.099 230.915 164.703 231.073 164.271C231.232 163.838 231.301 163.378 231.276 162.918V162.908ZM236.896 146.178C236.908 145.749 236.834 145.321 236.677 144.921C236.52 144.521 236.285 144.157 235.984 143.85C235.684 143.543 235.325 143.299 234.928 143.134C234.532 142.969 234.106 142.885 233.676 142.888C232.765 142.861 231.879 143.196 231.214 143.82C230.549 144.444 230.158 145.306 230.126 146.218C230.118 147.086 230.453 147.923 231.057 148.546C231.662 149.17 232.488 149.53 233.356 149.548C234.269 149.559 235.151 149.213 235.812 148.583C236.473 147.954 236.862 147.09 236.896 146.178V146.178ZM253.166 101.088C253.194 100.175 252.863 99.2867 252.244 98.614C251.626 97.9413 250.769 97.5372 249.856 97.488C249.428 97.4705 249 97.5394 248.599 97.6905C248.197 97.8416 247.83 98.0719 247.52 98.3676C247.209 98.6633 246.961 99.0184 246.79 99.4119C246.62 99.8053 246.53 100.229 246.526 100.658C246.488 101.564 246.807 102.449 247.415 103.123C248.023 103.796 248.871 104.204 249.776 104.258C250.641 104.267 251.475 103.943 252.106 103.352C252.738 102.762 253.117 101.951 253.166 101.088V101.088ZM265.286 99.788C264.417 99.8141 263.594 100.183 262.996 100.815C262.398 101.446 262.075 102.289 262.096 103.158C262.098 103.612 262.193 104.061 262.374 104.476C262.556 104.892 262.82 105.267 263.152 105.577C263.483 105.887 263.875 106.126 264.302 106.279C264.729 106.432 265.183 106.497 265.636 106.468C266.064 106.434 266.482 106.316 266.864 106.12C267.246 105.925 267.587 105.656 267.865 105.329C268.144 105.003 268.355 104.624 268.488 104.215C268.62 103.807 268.67 103.376 268.636 102.948C268.627 102.519 268.533 102.097 268.359 101.705C268.185 101.313 267.935 100.96 267.623 100.666C267.311 100.372 266.944 100.143 266.543 99.9921C266.142 99.8414 265.715 99.7719 265.286 99.788V99.788ZM251.636 150.338C251.605 149.471 251.232 148.651 250.599 148.057C249.966 147.463 249.124 147.144 248.256 147.168C247.435 147.191 246.654 147.529 246.075 148.111C245.497 148.694 245.164 149.477 245.146 150.298C245.156 151.165 245.497 151.995 246.099 152.618C246.702 153.241 247.52 153.61 248.386 153.648C249.254 153.632 250.08 153.277 250.688 152.657C251.296 152.038 251.636 151.205 251.636 150.338V150.338ZM272.926 87.178C272.928 86.4158 272.639 85.6816 272.119 85.1244C271.599 84.5672 270.887 84.2288 270.126 84.178C269.722 84.1536 269.316 84.2115 268.934 84.3482C268.553 84.4849 268.203 84.6975 267.906 84.9732C267.608 85.2489 267.37 85.582 267.205 85.9523C267.04 86.3227 266.952 86.7226 266.946 87.128C266.946 87.5305 267.027 87.9289 267.184 88.2996C267.341 88.6702 267.571 89.0055 267.86 89.2855C268.149 89.5654 268.492 89.7842 268.867 89.929C269.243 90.0737 269.644 90.1414 270.046 90.128C270.817 90.1123 271.551 89.7942 272.09 89.2424C272.629 88.6905 272.929 87.9492 272.926 87.178ZM254.996 86.898C255.376 86.8908 255.751 86.8063 256.097 86.6497C256.444 86.493 256.754 86.2674 257.011 85.9868C257.267 85.7061 257.464 85.3761 257.589 85.017C257.713 84.6579 257.763 84.2771 257.736 83.898C257.685 83.1375 257.347 82.4249 256.79 81.9048C256.233 81.3848 255.498 81.0963 254.736 81.098C253.975 81.1911 253.273 81.5543 252.758 82.1213C252.242 82.6884 251.947 83.4218 251.926 84.188C251.995 84.9482 252.35 85.6537 252.921 86.1609C253.491 86.6681 254.233 86.9388 254.996 86.918V86.898Z" fill="#EAECF1"/>
<path d="M276.796 173.299C276.651 174.099 276.437 174.886 276.156 175.649C275.776 176.679 275.068 177.555 274.141 178.142C273.214 178.729 272.119 178.995 271.026 178.899C269.026 178.619 265.756 176.079 266.206 174.379C267.142 171.415 268.453 168.582 270.106 165.949C270.306 165.589 272.226 165.849 273.106 166.289C275.726 167.579 276.726 169.939 276.796 173.299Z" fill="#979FBB"/>
<path d="M297.988 106.248C298.067 107.529 297.634 108.789 296.785 109.751C295.935 110.713 294.739 111.299 293.458 111.378C290.458 111.498 287.078 108.248 286.968 105.158C286.956 104.491 287.076 103.828 287.321 103.207C287.566 102.586 287.931 102.019 288.396 101.54C288.86 101.06 289.415 100.677 290.028 100.413C290.641 100.148 291.3 100.007 291.968 99.9983C295.008 99.9683 297.948 103.038 297.988 106.248Z" fill="#979FBB"/>
<path d="M28.1871 157.348H32.8571C30.2471 187.188 27.6471 216.768 25.0371 246.538L21.0371 246.778C23.3771 216.788 25.7971 187.098 28.1871 157.348Z" fill="white"/>
<path d="M2.02734 139.457C2.7113 136.966 3.54275 134.519 4.51733 132.127C5.51733 129.927 7.86729 129.377 10.0973 129.427C15.1673 129.547 20.2474 129.767 25.3074 130.117C28.2871 130.349 31.2516 130.746 34.1874 131.307C37.2674 131.867 37.5973 132.437 37.5873 135.487C37.5873 137.257 37.4773 138.797 35.5873 139.797C34.8573 140.177 34.4273 141.567 34.2673 142.557C33.8673 145.127 33.7074 147.737 33.4274 150.557L29.0273 150.187C29.0273 147.907 28.8473 145.817 29.0273 143.767C29.8473 135.627 22.3473 132.767 16.8973 133.867C12.5249 134.665 8.34194 136.28 4.56732 138.627C3.91732 139.047 3.19733 139.367 2.51733 139.727L2.02734 139.457Z" fill="#979FBB"/>
<path d="M24.3772 253.819L23.7372 260.329H20.1172C20.1172 259.059 20.1172 258.009 20.1172 256.959C20.3772 253.529 20.4872 253.429 24.3772 253.819Z" fill="#EAECF1"/>
<path d="M132.708 153.938C125.829 153.912 119.116 151.821 113.438 147.938C111.783 146.826 110.199 145.61 108.698 144.298C107.298 143.118 105.768 141.748 106.418 139.718C106.765 138.674 107.408 137.755 108.27 137.071C109.131 136.387 110.173 135.969 111.268 135.868C114.938 135.298 118.618 134.798 122.268 134.298C128.548 133.458 134.831 132.635 141.118 131.828C144.798 131.358 148.478 130.828 152.178 130.518C155.878 130.208 157.748 132.518 156.808 136.158C156.682 136.685 156.501 137.198 156.268 137.688C152.558 145.408 143.458 154.288 132.708 153.938ZM147.868 137.868L117.088 141.928C128.118 149.848 140.908 148.738 147.868 137.868V137.868Z" fill="#3558A2"/>
<path d="M245.566 166.759C245.551 167.674 245.188 168.548 244.551 169.204C243.913 169.86 243.05 170.248 242.136 170.289C241.704 170.292 241.277 170.207 240.88 170.039C240.482 169.871 240.124 169.624 239.826 169.312C239.528 169 239.297 168.63 239.147 168.225C238.998 167.821 238.932 167.39 238.956 166.959C238.9 166.501 238.941 166.037 239.075 165.596C239.209 165.154 239.433 164.746 239.734 164.396C240.035 164.046 240.405 163.763 240.821 163.564C241.237 163.366 241.69 163.256 242.151 163.242C242.612 163.228 243.071 163.31 243.499 163.483C243.926 163.656 244.313 163.917 244.634 164.248C244.955 164.579 245.204 164.973 245.364 165.405C245.525 165.838 245.593 166.299 245.566 166.759V166.759Z" fill="#3558A2"/>
<path d="M231.276 162.909C231.277 163.586 231.076 164.248 230.698 164.81C230.319 165.371 229.781 165.807 229.153 166.06C228.525 166.313 227.836 166.372 227.174 166.23C226.512 166.087 225.907 165.75 225.439 165.261C224.97 164.773 224.659 164.155 224.545 163.487C224.43 162.82 224.519 162.133 224.798 161.516C225.078 160.9 225.535 160.381 226.113 160.026C226.69 159.672 227.36 159.499 228.036 159.529C228.899 159.59 229.708 159.97 230.307 160.595C230.906 161.219 231.251 162.044 231.276 162.909Z" fill="#3558A2"/>
<path d="M236.897 146.178C236.863 147.091 236.474 147.954 235.813 148.583C235.151 149.213 234.27 149.559 233.357 149.548C232.489 149.53 231.663 149.17 231.058 148.547C230.454 147.923 230.119 147.087 230.127 146.218C230.158 145.307 230.549 144.445 231.215 143.82C231.88 143.196 232.765 142.861 233.677 142.888C234.107 142.885 234.532 142.969 234.929 143.134C235.326 143.299 235.685 143.543 235.985 143.85C236.286 144.157 236.521 144.521 236.678 144.921C236.835 145.321 236.909 145.749 236.897 146.178V146.178Z" fill="#3558A2"/>
<path d="M253.167 101.089C253.118 101.952 252.738 102.763 252.107 103.353C251.475 103.944 250.641 104.268 249.777 104.259C248.871 104.205 248.023 103.797 247.415 103.124C246.807 102.45 246.488 101.565 246.527 100.659C246.53 100.23 246.62 99.8064 246.791 99.4129C246.961 99.0194 247.209 98.6643 247.52 98.3686C247.831 98.0729 248.198 97.8426 248.599 97.6915C249 97.5404 249.428 97.4715 249.856 97.489C250.769 97.5382 251.626 97.9423 252.245 98.615C252.863 99.2877 253.194 100.176 253.167 101.089V101.089Z" fill="#3558A2"/>
<path d="M265.286 99.7882C265.716 99.7695 266.146 99.8369 266.549 99.9864C266.953 100.136 267.322 100.365 267.636 100.659C267.95 100.953 268.202 101.308 268.377 101.701C268.553 102.094 268.647 102.518 268.656 102.948C268.69 103.376 268.64 103.807 268.508 104.216C268.375 104.624 268.164 105.003 267.885 105.33C267.607 105.657 267.267 105.925 266.884 106.121C266.502 106.316 266.084 106.434 265.656 106.468C265.203 106.497 264.749 106.433 264.322 106.279C263.895 106.126 263.503 105.887 263.172 105.577C262.84 105.267 262.576 104.893 262.394 104.477C262.213 104.061 262.118 103.612 262.116 103.158C262.095 102.292 262.415 101.453 263.009 100.822C263.602 100.191 264.421 99.8195 265.286 99.7882V99.7882Z" fill="#3558A2"/>
<path d="M251.636 150.337C251.637 151.205 251.296 152.038 250.688 152.657C250.081 153.276 249.254 153.632 248.386 153.647C247.521 153.609 246.702 153.24 246.099 152.617C245.497 151.994 245.156 151.164 245.146 150.297C245.164 149.476 245.497 148.693 246.076 148.111C246.655 147.528 247.435 147.19 248.256 147.167C249.124 147.143 249.966 147.463 250.599 148.056C251.232 148.65 251.605 149.47 251.636 150.337Z" fill="#3558A2"/>
<path d="M272.927 87.1776C272.928 87.947 272.626 88.6858 272.088 89.2355C271.549 89.7852 270.817 90.1019 270.047 90.1176C269.645 90.131 269.244 90.0633 268.869 89.9186C268.493 89.7738 268.15 89.555 267.861 89.275C267.572 88.9951 267.342 88.6598 267.185 88.2892C267.028 87.9185 266.947 87.5201 266.947 87.1176C266.953 86.7122 267.041 86.3123 267.206 85.9419C267.371 85.5716 267.61 85.2385 267.907 84.9628C268.204 84.6871 268.554 84.4744 268.936 84.3378C269.317 84.2011 269.723 84.1432 270.127 84.1675C270.89 84.2184 271.604 84.5582 272.124 85.1175C272.644 85.6769 272.932 86.4136 272.927 87.1776V87.1776Z" fill="#3558A2"/>
<path d="M254.996 86.9179C254.228 86.9438 253.48 86.6741 252.905 86.1642C252.33 85.6544 251.972 84.9435 251.906 84.1779C251.927 83.4117 252.222 82.6783 252.738 82.1112C253.253 81.5442 253.955 81.181 254.716 81.0879C255.478 81.0862 256.213 81.3747 256.77 81.8947C257.327 82.4148 257.665 83.1274 257.716 83.8879C257.748 84.2678 257.701 84.6502 257.58 85.0115C257.458 85.3729 257.264 85.7056 257.009 85.9893C256.755 86.2729 256.445 86.5016 256.099 86.6613C255.752 86.821 255.377 86.9083 254.996 86.9179V86.9179Z" fill="#3558A2"/>
<path d="M147.866 137.869C140.866 148.739 128.116 149.869 117.086 141.929L147.866 137.869Z" fill="#979FBB"/>
</g>
<defs>
<clipPath id="clip0_1_7848">
<rect width="300" height="300" fill="white"/>
</clipPath>
</defs>
</svg>
