<svg width="300" height="300" viewBox="0 0 300 300" fill="none" xmlns="http://www.w3.org/2000/svg">
<path d="M79.1174 154.153C74.7674 151.063 70.5074 148.153 66.3774 145.063C59.855 140.221 54.6442 133.828 51.2174 126.463C49.299 122.52 48.6026 118.094 49.2174 113.753C49.9374 108.593 54.2974 105.433 59.5074 105.933C63.7474 106.333 66.7473 108.523 69.2073 111.753C72.4301 116.154 75.0625 120.958 77.0373 126.043C79.7973 132.753 82.4874 139.493 85.2274 146.213C85.5274 146.963 85.8873 147.683 86.3273 148.643C93.5873 147.763 100.827 147.013 108.237 145.843C107.347 143.843 106.607 142.053 105.817 140.333C99.6873 126.963 93.4374 113.663 87.4874 100.223C85.1814 95.2548 84.2193 89.7688 84.6973 84.3127C84.9689 81.4845 86.1637 78.8243 88.0974 76.7427C90.1455 74.427 92.7119 72.6282 95.5873 71.4927C101.937 69.0627 108.237 66.4927 114.507 63.8827C115.361 63.4063 116.056 62.6901 116.507 61.8227C118.254 58.8377 120.586 56.2361 123.363 54.1741C126.14 52.1121 129.305 50.6321 132.667 49.8227C136.217 48.9295 139.91 48.7616 143.525 49.3288C147.141 49.8961 150.605 51.187 153.71 53.1243C156.815 55.0615 159.498 57.6053 161.597 60.6034C163.696 63.6014 165.169 66.9922 165.927 70.5727C167.193 76.665 166.231 83.009 163.217 88.4527L169.317 100.273C181.037 92.5427 192.807 92.1527 203.887 100.563C214.437 108.563 217.547 119.563 213.817 132.673C215.877 132.463 217.817 132.293 219.727 132.063C223.227 131.623 226.727 131.063 230.237 130.703C233.907 130.333 235.237 131.053 236.567 134.453C241.567 147.663 246.717 160.873 249.017 174.933C250.397 183.393 251.017 191.933 249.247 200.373C248.192 205.715 246.422 210.892 243.987 215.763C240.99 221.519 236.451 226.328 230.877 229.653C221.678 235.333 211.818 239.866 201.517 243.153C194.159 245.463 186.629 247.181 178.997 248.293C175.867 248.783 172.727 249.293 169.637 249.973C164.733 250.912 159.751 251.391 154.757 251.403C148.047 251.613 141.317 251.743 134.607 251.493C122.089 251.102 109.984 246.918 99.8974 239.493C93.8171 234.994 88.9397 229.066 85.6973 222.233C82.2076 215.341 79.9343 207.898 78.9774 200.233C78.6074 197.173 78.3674 194.093 78.2274 191.013C77.9474 185.013 77.5574 179.013 77.6374 173.063C77.7174 166.703 77.8774 160.253 79.1174 154.153ZM230.287 137.453C224.527 138.183 218.757 138.743 213.057 139.693C207.507 140.613 202.057 141.803 196.387 142.183C191.767 142.503 187.167 143.073 182.567 143.583C175.727 144.336 168.884 145.119 162.037 145.933C157.177 146.503 152.327 147.123 147.467 147.733L131.827 149.733C126.827 150.353 121.747 150.953 116.717 151.583C110.057 152.403 103.407 153.253 96.7173 154.093L85.7873 155.473C85.5303 156.35 85.3398 157.246 85.2173 158.153C84.8473 164.223 84.2773 170.283 84.2173 176.343C84.2173 182.233 84.9174 188.123 85.0974 194.013C85.4175 203.756 88.0829 213.279 92.8674 221.773C94.3781 224.572 96.2362 227.169 98.3974 229.503C103.797 235.193 110.497 238.993 117.797 241.723C123.613 243.827 129.743 244.93 135.927 244.983C146.807 245.203 157.717 245.373 168.497 243.453C175.997 242.123 183.497 240.713 190.917 239.113C203.817 236.343 215.667 230.913 226.917 224.243C231.695 221.539 235.57 217.486 238.057 212.593C240.186 208.277 241.717 203.692 242.607 198.963C244.087 191.283 243.517 183.603 242.277 175.963C240.167 162.963 235.407 150.813 230.887 138.563C230.715 138.169 230.514 137.788 230.287 137.423V137.453ZM140.217 94.7927C145.293 94.9244 150.214 93.0347 153.897 89.5392C157.58 86.0438 159.724 81.2286 159.857 76.1527C159.877 73.4385 159.357 70.7475 158.326 68.2365C157.296 65.7255 155.775 63.4449 153.854 61.5275C151.933 59.61 149.65 58.0943 147.137 57.0685C144.624 56.0427 141.931 55.5274 139.217 55.5527C136.685 55.4848 134.164 55.9228 131.803 56.8409C129.442 57.759 127.287 59.1389 125.466 60.8998C123.645 62.6607 122.193 64.7672 121.195 67.0961C120.198 69.4249 119.675 71.9293 119.657 74.4627C119.547 87.1527 130.587 95.1527 140.217 94.7927ZM165.327 138.793C164.587 137.613 164.087 136.853 163.617 136.083C161.031 131.892 159.59 127.095 159.437 122.173C159.252 116.965 160.647 111.823 163.437 107.423C163.882 106.856 164.134 106.162 164.155 105.442C164.177 104.723 163.967 104.015 163.557 103.423C162.237 101.053 161.117 98.5727 159.877 96.1527C159.567 95.5427 159.137 94.9927 158.697 94.3127C150.647 101.193 141.697 103.043 131.207 99.9927L149.827 140.643L165.327 138.793ZM132.077 142.713C135.471 142.622 138.851 142.234 142.177 141.553C141.627 140.233 141.247 139.233 140.807 138.263L124.717 103.193C123.467 100.473 122.137 97.7927 121.097 94.9927C120.649 93.7257 119.997 92.5402 119.167 91.4827C115.09 86.5364 112.922 80.2916 113.057 73.8827C113.057 73.2127 112.967 72.5327 112.897 71.6327C109.177 73.2027 105.647 74.4827 102.237 76.0827C110.887 99.0027 121.147 120.803 132.027 142.733L132.077 142.713ZM185.527 124.483C189.457 124.573 191.457 124.863 190.977 130.103C192.181 129.671 193.283 128.997 194.217 128.124C195.151 127.25 195.896 126.195 196.407 125.023C197.277 122.923 198.977 122.093 200.687 122.573C202.397 123.053 203.407 124.833 203.007 127.183C202.483 129.598 201.127 131.754 199.177 133.273C198.517 133.873 197.847 134.453 196.887 135.273C199.167 134.813 200.887 134.153 202.677 134.173C205.677 134.173 206.837 132.553 207.527 130.093C207.597 129.833 207.737 129.593 207.807 129.333C209.957 121.103 208.237 113.793 202.217 107.783C196.197 101.773 188.797 99.6527 180.487 102.063C175.986 103.355 172.086 106.196 169.475 110.084C166.864 113.972 165.71 118.657 166.217 123.313C166.687 128.423 168.917 132.633 172.077 136.513C172.387 136.949 172.812 137.291 173.305 137.499C173.797 137.708 174.339 137.775 174.867 137.693C176.203 137.715 177.539 137.651 178.867 137.503C180.637 137.123 182.617 137.643 184.397 136.343L181.507 134.643C180.607 134.993 179.857 135.343 179.087 135.583C178.287 135.927 177.389 135.971 176.559 135.706C175.728 135.442 175.021 134.887 174.567 134.143C173.667 132.633 174.057 131.023 175.647 129.563C176.047 129.203 176.387 128.793 176.967 128.173C173.367 128.503 171.787 127.793 171.217 125.823C170.647 123.853 171.527 122.623 175.087 120.623C175.308 119.773 175.481 118.912 175.607 118.043C175.854 116.141 176.665 114.357 177.937 112.923C180.797 109.453 184.647 108.093 188.937 107.923C189.664 107.878 190.392 107.978 191.079 108.219C191.766 108.459 192.398 108.835 192.937 109.323C193.402 109.695 193.745 110.197 193.923 110.766C194.101 111.334 194.106 111.942 193.937 112.513C193.82 113.098 193.532 113.636 193.108 114.056C192.684 114.477 192.144 114.761 191.557 114.873C190.847 115.013 190.097 114.873 189.387 115.033C187.667 115.323 185.757 115.133 184.237 116.953C184.847 116.873 185.177 116.843 185.497 116.773C185.817 116.703 186.367 116.513 186.807 116.423C188.987 115.973 190.677 116.753 191.287 118.473C191.552 119.351 191.481 120.296 191.087 121.124C190.694 121.952 190.006 122.604 189.157 122.953C188.137 123.473 187.027 123.853 185.477 124.503L185.527 124.483ZM124.527 143.893C122.847 140.343 121.457 137.293 119.967 134.293C111.394 117.079 103.611 99.5227 96.6174 81.6227C96.3674 81.0027 96.0174 80.4127 95.6174 79.7227C94.3887 80.3062 93.3605 81.2408 92.6628 82.4084C91.9651 83.576 91.6291 84.9242 91.6973 86.2827C91.834 91.2753 92.9732 96.1893 95.0473 100.733C101.237 114.553 107.587 128.293 113.867 142.053C114.277 142.953 114.727 143.833 115.267 144.953L124.527 143.893ZM76.5873 144.253L77.0673 143.873C76.5573 142.563 76.0674 141.243 75.5174 139.943C73.1274 134.263 70.8774 128.523 68.2774 122.943C66.8634 120.206 65.2315 117.588 63.3974 115.113C62.9693 114.411 62.3862 113.816 61.6929 113.374C60.9996 112.932 60.2145 112.655 59.3974 112.563C56.8574 112.323 55.8373 113.123 55.7073 115.663C55.5496 118.486 56.1177 121.302 57.3574 123.843C60.3756 130.083 64.8308 135.518 70.3574 139.703C72.3674 141.283 74.4773 142.763 76.5673 144.273L76.5873 144.253Z" fill="#3558A2"/>
<path d="M230.287 137.422C230.545 137.765 230.779 138.126 230.987 138.502C235.507 150.752 240.267 162.932 242.377 175.902C243.617 183.552 244.187 191.232 242.707 198.902C241.816 203.631 240.286 208.216 238.156 212.532C235.664 217.415 231.79 221.456 227.017 224.152C215.717 230.822 203.867 236.252 191.017 239.022C183.577 240.622 176.097 242.022 168.597 243.362C157.817 245.282 146.907 245.112 136.027 244.892C129.842 244.839 123.712 243.736 117.897 241.632C110.597 238.902 103.897 235.102 98.4966 229.412C96.3353 227.078 94.4773 224.481 92.9665 221.682C88.1821 213.188 85.5167 203.665 85.1965 193.922C85.0165 188.032 84.3065 182.142 84.3165 176.252C84.3165 170.192 84.8965 164.132 85.3165 158.062C85.4521 157.154 85.656 156.259 85.9265 155.382L96.8566 154.002C103.507 153.162 110.157 152.312 116.857 151.492C121.857 150.862 126.927 150.262 131.967 149.642L147.607 147.642C152.467 147.032 157.317 146.412 162.177 145.842C169.017 145.029 175.86 144.245 182.707 143.492C187.307 142.982 191.907 142.412 196.527 142.092C202.157 141.712 207.647 140.522 213.197 139.602C218.757 138.712 224.527 138.152 230.287 137.422ZM120.926 183.232C124.296 187.052 128.017 191.232 131.747 195.462C133.017 196.882 134.357 198.242 135.627 199.662C137.071 201.311 137.938 203.386 138.097 205.572C138.623 209.731 138.192 213.955 136.837 217.922C136.117 219.774 135.278 221.578 134.327 223.322C132.957 225.992 133.637 228.542 136.187 229.762C136.845 230.054 137.537 230.262 138.247 230.382C143.927 231.512 149.607 232.642 155.247 233.732C157.735 234.267 160.309 234.268 162.798 233.736C165.287 233.203 167.635 232.149 169.687 230.642C170.277 230.212 170.827 229.732 171.427 229.332C173.987 227.652 176.537 226.572 179.837 227.432C182.297 228.053 184.856 228.182 187.367 227.812C194.107 226.812 198.737 222.502 202.367 217.032C202.914 216.232 203.164 215.266 203.073 214.301C202.982 213.336 202.555 212.434 201.867 211.752C201.037 210.752 200.057 209.972 199.177 209.062C196.907 206.722 194.517 204.442 193.107 201.442C191.994 199.148 191.375 196.647 191.289 194.1C191.203 191.552 191.652 189.015 192.607 186.652C194.337 182.172 196.267 177.772 198.117 173.332C198.625 172.271 199.066 171.179 199.437 170.062C200.227 167.162 198.967 165.062 196.017 164.362C194.772 164.128 193.512 163.984 192.247 163.932C189.457 163.712 186.637 163.652 183.867 163.282C179.878 162.857 176.053 161.463 172.727 159.222C169.727 157.082 166.807 154.732 163.987 152.312C160.817 149.582 157.097 150.612 156.047 154.642C155.726 156.053 155.329 157.445 154.857 158.812C152.957 163.812 150.507 168.422 145.247 170.742C144.356 171.194 143.441 171.598 142.507 171.952C137.347 173.612 132.187 175.332 126.977 176.842C123.977 177.712 121.216 178.652 120.926 183.232V183.232Z" fill="#979FBB"/>
<path d="M140.216 94.7926C130.636 95.1526 119.596 87.1325 119.706 74.4625C119.724 71.9334 120.245 69.4332 121.239 67.1077C122.234 64.7822 123.681 62.678 125.497 60.9178C127.313 59.1576 129.461 57.7766 131.817 56.8554C134.172 55.9342 136.688 55.4913 139.216 55.5524C141.93 55.5271 144.622 56.0424 147.135 57.0682C149.648 58.094 151.932 59.6098 153.853 61.5272C155.774 63.4446 157.294 65.7253 158.325 68.2363C159.355 70.7473 159.876 73.4383 159.856 76.1525C159.722 81.2284 157.578 86.0436 153.895 89.5391C150.212 93.0346 145.292 94.9242 140.216 94.7926V94.7926ZM136.786 74.5625C135.496 77.0125 134.236 79.2025 133.176 81.5025C132.728 82.3016 132.611 83.2445 132.85 84.1289C133.089 85.0133 133.666 85.7685 134.456 86.2325C134.875 86.4638 135.337 86.608 135.814 86.6565C136.29 86.7051 136.772 86.6569 137.229 86.515C137.687 86.3731 138.111 86.1403 138.476 85.8306C138.842 85.5209 139.141 85.1406 139.356 84.7125C141.866 80.4225 144.356 76.0925 146.666 71.7125C147.179 70.6599 147.442 69.5033 147.436 68.3325C147.46 67.8546 147.384 67.377 147.214 66.9298C147.044 66.4826 146.783 66.0756 146.447 65.7345C146.112 65.3933 145.709 65.1255 145.265 64.9479C144.82 64.7702 144.344 64.6867 143.866 64.7025C142.966 64.6542 142.065 64.7694 141.206 65.0425C138.986 65.8025 136.776 66.6325 134.616 67.5625C133.793 67.9235 133.051 68.4473 132.436 69.1025C132.021 69.5528 131.741 70.1109 131.629 70.7129C131.516 71.3149 131.575 71.9365 131.8 72.5063C132.024 73.0761 132.405 73.5712 132.897 73.9349C133.39 74.2986 133.975 74.5161 134.586 74.5625C135.216 74.5925 135.796 74.5625 136.736 74.5625H136.786Z" fill="#EAECF1"/>
<path d="M165.277 138.813L149.737 140.713L131.117 100.063C141.567 103.063 150.557 101.263 158.607 94.3828C159.047 95.0628 159.477 95.6128 159.787 96.2228C161.027 98.6428 162.147 101.123 163.467 103.493C163.877 104.085 164.087 104.793 164.065 105.513C164.044 106.232 163.792 106.926 163.347 107.493C160.557 111.893 159.162 117.035 159.347 122.243C159.5 127.165 160.941 131.962 163.527 136.153C164.037 136.873 164.537 137.633 165.277 138.813Z" fill="white"/>
<path d="M132.028 142.732C121.148 120.802 110.888 99.0024 102.188 76.1024C105.598 74.5024 109.128 73.2223 112.848 71.6523C112.918 72.5523 113.018 73.2323 113.008 73.9023C112.872 80.3112 115.04 86.556 119.118 91.5023C119.947 92.5598 120.599 93.7453 121.047 95.0123C122.047 97.8123 123.417 100.492 124.667 103.212L140.758 138.282C141.198 139.282 141.578 140.282 142.128 141.572C138.801 142.254 135.422 142.642 132.028 142.732Z" fill="#EAECF1"/>
<path d="M185.477 124.502C187.027 123.852 188.137 123.502 189.177 122.942C190.026 122.594 190.714 121.942 191.108 121.114C191.501 120.285 191.573 119.34 191.307 118.462C190.697 116.742 189.007 115.962 186.827 116.412C186.387 116.502 185.958 116.662 185.518 116.762C185.078 116.862 184.868 116.862 184.258 116.942C185.778 115.122 187.687 115.312 189.407 115.022C190.117 114.902 190.867 115.022 191.577 114.862C192.164 114.75 192.704 114.466 193.128 114.046C193.552 113.625 193.841 113.088 193.957 112.502C194.126 111.931 194.121 111.323 193.943 110.755C193.765 110.187 193.422 109.685 192.957 109.312C192.418 108.824 191.786 108.449 191.099 108.208C190.412 107.968 189.684 107.867 188.957 107.912C184.627 108.092 180.777 109.452 177.957 112.912C176.685 114.347 175.874 116.131 175.628 118.032C175.501 118.901 175.328 119.762 175.107 120.612C171.547 122.612 170.667 123.812 171.237 125.812C171.807 127.812 173.387 128.492 176.987 128.162C176.407 128.782 176.067 129.162 175.667 129.552C174.077 131.012 173.667 132.622 174.587 134.132C175.041 134.876 175.748 135.431 176.579 135.696C177.409 135.96 178.307 135.917 179.107 135.572C179.877 135.332 180.628 134.982 181.528 134.632L184.417 136.332C182.637 137.632 180.658 137.112 178.888 137.492C177.56 137.641 176.224 137.704 174.888 137.682C174.359 137.764 173.818 137.697 173.325 137.489C172.832 137.28 172.407 136.939 172.097 136.502C168.937 132.622 166.707 128.412 166.237 123.302C165.751 118.672 166.907 114.018 169.502 110.152C172.097 106.287 175.968 103.455 180.437 102.152C188.747 99.7423 196.107 101.822 202.167 107.872C208.227 113.922 209.908 121.192 207.758 129.422C207.688 129.682 207.547 129.922 207.477 130.182C206.787 132.642 205.588 134.292 202.628 134.262C200.878 134.262 199.117 134.902 196.837 135.362C197.837 134.522 198.468 133.942 199.128 133.362C201.078 131.843 202.433 129.688 202.957 127.272C203.357 124.922 202.478 123.182 200.638 122.662C198.798 122.142 197.227 123.012 196.357 125.112C195.846 126.284 195.101 127.34 194.167 128.213C193.234 129.087 192.131 129.76 190.927 130.192C191.407 124.882 189.407 124.592 185.477 124.502Z" fill="#EAECF1"/>
<path d="M124.507 143.912L115.297 144.972C114.757 143.852 114.297 142.972 113.897 142.072C107.617 128.312 101.267 114.572 95.0774 100.752C93.0033 96.2088 91.8641 91.2947 91.7274 86.3022C91.6592 84.9437 91.9952 83.5955 92.6929 82.4279C93.3906 81.2603 94.4188 80.3257 95.6475 79.7422C95.9975 80.4322 96.3475 81.0222 96.6475 81.6422C103.654 99.5422 111.437 117.099 119.997 134.312C121.437 137.312 122.827 140.362 124.507 143.912Z" fill="white"/>
<path d="M76.5664 144.272C74.4764 142.762 72.3664 141.272 70.3164 139.722C64.7899 135.537 60.3346 130.102 57.3164 123.862C56.0768 121.321 55.5087 118.504 55.6664 115.682C55.7964 113.142 56.8165 112.342 59.3565 112.582C60.1735 112.673 60.9588 112.951 61.6521 113.393C62.3454 113.835 62.9284 114.43 63.3565 115.132C65.1906 117.606 66.8225 120.225 68.2365 122.962C70.8365 128.542 73.0865 134.282 75.4765 139.962C76.0165 141.262 76.4765 142.582 77.0265 143.892L76.5664 144.272Z" fill="white"/>
<path d="M136.736 74.5622C135.796 74.5622 135.166 74.5622 134.536 74.5622C133.926 74.5157 133.34 74.2982 132.848 73.9346C132.355 73.5709 131.974 73.0758 131.75 72.506C131.526 71.9361 131.466 71.3146 131.579 70.7126C131.691 70.1106 131.971 69.5525 132.386 69.1021C133.002 68.447 133.743 67.9231 134.566 67.5621C136.726 66.6321 138.936 65.8021 141.156 65.0421C142.015 64.7691 142.916 64.6538 143.816 64.7021C144.294 64.6863 144.771 64.7699 145.215 64.9475C145.659 65.1251 146.062 65.393 146.397 65.7341C146.733 66.0753 146.994 66.4823 147.164 66.9294C147.334 67.3766 147.41 67.8542 147.386 68.3321C147.393 69.503 147.129 70.6596 146.616 71.7121C144.266 76.1021 141.816 80.4322 139.306 84.7122C139.091 85.1402 138.792 85.5205 138.427 85.8302C138.061 86.14 137.637 86.3727 137.18 86.5147C136.722 86.6566 136.241 86.7047 135.764 86.6562C135.288 86.6076 134.826 86.4634 134.406 86.2322C133.616 85.7681 133.04 85.0129 132.8 84.1286C132.561 83.2442 132.678 82.3012 133.126 81.5022C134.216 79.2022 135.446 77.0122 136.736 74.5622Z" fill="#3558A2"/>
<path d="M141.668 224.153C143.393 220.142 144.486 215.888 144.908 211.543C145.458 204.633 144.098 198.423 138.908 193.363C136.188 190.713 133.708 187.813 131.128 185.003C130.658 184.483 130.258 183.893 129.598 183.003C131.828 182.363 133.798 181.753 135.798 181.233C140.914 180.009 145.83 178.063 150.398 175.453C154.199 173.26 157.202 169.911 158.968 165.893C159.888 163.833 160.838 161.783 161.778 159.723C180.978 171.723 177.148 168.803 191.888 170.803C191.488 171.803 191.088 172.643 190.748 173.553C188.928 178.383 186.658 183.093 185.438 188.073C184.474 191.686 184.405 195.479 185.238 199.124C186.071 202.77 187.78 206.157 190.218 208.993C191.878 210.993 193.658 212.933 195.378 214.893C192.308 220.123 187.298 222.473 181.008 220.893C175.678 219.573 171.278 221.173 167.298 224.243C164.379 226.589 160.684 227.753 156.948 227.503C155.428 227.295 153.925 226.984 152.448 226.573C149.448 225.963 146.448 225.383 143.448 224.753C142.84 224.597 142.245 224.397 141.668 224.153Z" fill="white"/>
<path d="M143.577 180.073C146.962 182.338 150.043 185.026 152.747 188.073C155.375 191.341 157.292 195.121 158.377 199.173C159.647 203.243 161.157 207.543 164.487 210.413C167.817 213.283 172.017 213.803 176.247 212.923C180.477 212.043 184.617 209.793 189.077 210.033C192.297 210.203 192.287 205.203 189.077 205.033C185.077 204.813 181.287 206.293 177.507 207.423C174.297 208.423 170.667 209.153 167.887 206.753C164.887 204.133 163.887 199.973 162.717 196.313C161.437 192.12 159.34 188.222 156.547 184.843C153.486 181.352 149.972 178.288 146.097 175.733C145.524 175.403 144.844 175.311 144.204 175.478C143.565 175.644 143.016 176.055 142.677 176.623C142.355 177.198 142.27 177.876 142.437 178.514C142.605 179.152 143.014 179.7 143.577 180.043V180.073Z" fill="#979FBB"/>
<path d="M174.128 169.322C171.842 180.011 166.993 189.984 159.998 198.382C159.544 198.86 159.291 199.494 159.291 200.152C159.291 200.811 159.544 201.445 159.998 201.923C160.471 202.385 161.106 202.645 161.768 202.645C162.429 202.645 163.065 202.385 163.538 201.923C171.131 192.9 176.422 182.169 178.958 170.652C179.638 167.512 174.818 166.172 174.128 169.322V169.322Z" fill="#979FBB"/>
<path d="M161.847 207.573C160.007 211.023 156.798 213.403 154.268 216.383C151.268 219.863 149.187 224.163 150.197 228.823C150.38 229.457 150.803 229.995 151.376 230.322C151.95 230.649 152.629 230.739 153.268 230.573C153.901 230.386 154.438 229.961 154.765 229.386C155.091 228.812 155.182 228.133 155.018 227.493C154.755 225.988 155.005 224.438 155.727 223.093C156.55 221.488 157.612 220.018 158.877 218.733C161.467 215.983 164.367 213.473 166.167 210.093C166.333 209.809 166.441 209.496 166.485 209.17C166.529 208.845 166.509 208.514 166.426 208.196C166.342 207.879 166.197 207.581 165.998 207.319C165.799 207.058 165.551 206.838 165.268 206.673C164.984 206.507 164.67 206.399 164.345 206.355C164.02 206.311 163.689 206.331 163.371 206.414C163.053 206.498 162.755 206.643 162.494 206.842C162.233 207.041 162.013 207.289 161.847 207.573V207.573Z" fill="#979FBB"/>
<path d="M152.796 185.883C150.761 188.228 148.205 190.063 145.332 191.241C142.46 192.418 139.351 192.906 136.256 192.664C135.594 192.669 134.961 192.934 134.494 193.402C134.026 193.869 133.761 194.502 133.756 195.164C133.769 195.823 134.036 196.451 134.502 196.917C134.968 197.383 135.597 197.651 136.256 197.664C140.007 197.902 143.763 197.284 147.24 195.857C150.718 194.429 153.824 192.229 156.326 189.424C156.782 188.947 157.036 188.313 157.036 187.653C157.036 186.994 156.782 186.36 156.326 185.883C155.855 185.421 155.221 185.162 154.561 185.162C153.901 185.162 153.267 185.421 152.796 185.883V185.883Z" fill="#979FBB"/>
<path d="M120.928 183.232C121.218 178.652 123.928 177.712 127.008 176.842C132.218 175.332 137.378 173.612 142.538 171.952C143.472 171.598 144.387 171.194 145.278 170.742C150.538 168.422 152.988 163.822 154.888 158.812C155.36 157.445 155.757 156.053 156.078 154.642C157.128 150.642 160.848 149.582 164.018 152.312C166.838 154.732 169.728 157.082 172.758 159.222C176.085 161.463 179.909 162.857 183.898 163.282C186.668 163.652 189.488 163.712 192.278 163.932C193.543 163.984 194.803 164.128 196.048 164.362C199.048 165.042 200.258 167.162 199.468 170.062C199.097 171.179 198.656 172.271 198.148 173.332C196.298 177.772 194.368 182.172 192.638 186.652C191.683 189.015 191.234 191.553 191.32 194.1C191.407 196.648 192.026 199.149 193.138 201.442C194.548 204.442 196.938 206.722 199.208 209.062C200.088 209.972 201.068 210.792 201.898 211.752C202.586 212.434 203.013 213.337 203.104 214.302C203.196 215.266 202.946 216.233 202.398 217.032C198.778 222.502 194.148 226.782 187.398 227.812C184.887 228.182 182.328 228.053 179.868 227.432C176.568 226.572 174.018 227.652 171.458 229.332C170.858 229.732 170.308 230.212 169.718 230.642C167.666 232.149 165.318 233.203 162.829 233.736C160.34 234.269 157.766 234.267 155.278 233.732C149.598 232.642 143.918 231.512 138.278 230.382C137.568 230.262 136.876 230.054 136.218 229.762C133.668 228.542 132.988 225.992 134.358 223.322C135.309 221.578 136.148 219.774 136.868 217.922C138.223 213.955 138.654 209.731 138.128 205.572C137.969 203.386 137.102 201.311 135.658 199.662C134.388 198.242 133.048 196.882 131.778 195.462C128.018 191.272 124.298 187.052 120.928 183.232ZM141.668 224.152C142.231 224.415 142.812 224.635 143.408 224.812C146.408 225.442 149.408 226.022 152.408 226.632C153.885 227.043 155.388 227.354 156.908 227.562C160.644 227.812 164.339 226.648 167.258 224.302C171.258 221.232 175.638 219.632 180.968 220.952C187.258 222.512 192.268 220.162 195.338 214.952C193.618 212.952 191.838 211.072 190.178 209.052C187.74 206.216 186.031 202.829 185.198 199.184C184.366 195.538 184.434 191.745 185.398 188.132C186.618 183.132 188.888 178.442 190.708 173.612C191.048 172.702 191.448 171.812 191.848 170.862C177.108 168.862 180.938 171.802 161.738 159.782C160.798 161.842 159.848 163.892 158.928 165.952C157.162 169.97 154.159 173.319 150.358 175.512C145.79 178.122 140.874 180.068 135.758 181.292C133.758 181.812 131.758 182.422 129.558 183.062C130.218 183.912 130.618 184.502 131.088 185.062C133.668 187.872 136.148 190.772 138.868 193.422C144.058 198.482 145.418 204.692 144.868 211.602C144.453 215.925 143.374 220.158 141.668 224.152V224.152Z" fill="#3558A2"/>
</svg>
