<svg width="300" height="300" viewBox="0 0 300 300" fill="none" xmlns="http://www.w3.org/2000/svg">
<path d="M83.9583 166.283C87.1083 162.033 89.9583 157.943 93.0683 154.053C104.398 139.883 115.828 125.782 127.208 111.632C127.746 110.924 128.199 110.156 128.558 109.343C129.848 106.663 132.558 106.042 134.828 108.002C135.426 108.557 135.975 109.163 136.468 109.813C148.235 124.339 159.995 138.879 171.748 153.433C172.678 154.593 174.058 155.183 175.028 156.123C176.678 157.723 177.738 159.923 179.028 161.913C178.618 162.583 178.338 163.133 177.968 163.633C163.668 183.533 149.558 203.573 134.968 223.233C132.125 227.082 127.934 229.717 123.232 230.611C118.531 231.504 113.666 230.591 109.608 228.053C101.078 222.583 99.0583 211.053 105.068 202.393C111.078 193.733 122.938 191.393 131.238 197.393C133.142 198.65 134.653 200.417 135.598 202.493C136.26 203.7 137.03 204.844 137.898 205.913L153.588 184.133C141.418 168.233 129.298 152.413 117.038 136.413C116.248 137.303 115.618 137.933 115.038 138.633C106.958 149.133 98.8184 159.633 90.8784 170.183C87.9484 174.093 85.4484 178.333 82.8784 182.503C78.8784 188.973 73.0483 192.503 65.5183 192.443C62.38 192.363 59.3104 191.507 56.5838 189.951C53.8572 188.395 51.5585 186.188 49.8933 183.527C48.2281 180.866 47.2483 177.834 47.0413 174.701C46.8344 171.569 47.4068 168.434 48.7075 165.577C50.0081 162.719 51.9964 160.229 54.4947 158.328C56.993 156.427 59.9234 155.175 63.0239 154.683C66.1244 154.191 69.2984 154.476 72.2623 155.51C75.2261 156.545 77.8875 158.298 80.0084 160.613C81.433 162.425 82.7518 164.318 83.9583 166.283ZM132.528 117.382L122.058 130.002L158.418 177.453L169.108 162.593L132.528 117.382ZM65.7283 184.583C72.4083 184.863 77.3183 179.013 77.3483 173.143C77.3483 165.703 71.2583 162.293 65.9583 162.213C62.8898 162.231 59.9512 163.454 57.7758 165.618C55.6004 167.782 54.3624 170.714 54.3283 173.783C54.3983 179.663 59.5283 184.533 65.7283 184.583V184.583ZM120.928 201.913C117.906 201.928 115.01 203.125 112.859 205.248C110.708 207.371 109.473 210.251 109.418 213.273C109.404 214.545 109.642 215.808 110.119 216.988C110.596 218.168 111.302 219.241 112.197 220.146C113.091 221.051 114.157 221.77 115.331 222.26C116.506 222.75 117.766 223.003 119.038 223.003C122.059 223.011 124.962 221.834 127.123 219.725C129.285 217.616 130.533 214.742 130.598 211.723C130.655 210.431 130.445 209.142 129.981 207.935C129.517 206.728 128.809 205.63 127.902 204.71C126.994 203.789 125.907 203.065 124.707 202.584C123.507 202.103 122.221 201.874 120.928 201.913V201.913Z" fill="#3558A2"/>
<path d="M211.129 204.994C211.129 204.344 211.259 203.654 211.269 202.994C211.616 180.934 211.949 158.874 212.269 136.814C212.269 133.404 213.329 131.984 216.079 131.464C219.279 130.864 221.079 131.984 221.999 135.134C224.069 142.134 228.289 147.224 235.499 149.134C244.949 151.614 249.639 158.134 251.319 167.214C252.019 171.034 252.149 174.954 252.529 178.834C252.574 179.286 252.574 179.742 252.529 180.194C252.259 182.554 250.829 184.004 248.739 184.104C246.649 184.204 245.139 182.924 244.829 180.424C244.419 177.094 244.389 173.714 243.829 170.424C243.421 168.031 242.771 165.686 241.889 163.424C241.365 162.011 240.515 160.741 239.408 159.717C238.301 158.694 236.969 157.946 235.519 157.534C234.519 157.194 233.459 156.834 232.419 156.534C228.477 155.38 224.903 153.219 222.049 150.264C221.489 149.694 220.889 149.164 220.049 148.344C219.969 149.344 219.879 150.004 219.869 150.664C219.649 166.184 219.469 181.714 219.219 197.234C219.119 203.494 219.099 209.774 218.599 216.014C218.327 219.63 217.553 223.191 216.299 226.594C214.879 230.367 212.214 233.543 208.745 235.597C205.276 237.652 201.211 238.462 197.219 237.894C193.185 237.241 189.506 235.197 186.821 232.115C184.136 229.034 182.614 225.11 182.519 221.024C182.209 212.084 188.309 203.334 198.269 202.214C202.039 201.794 206.059 202.164 209.469 204.484C209.848 204.726 210.242 204.943 210.649 205.134C210.759 205.074 210.829 205.024 211.129 204.994ZM199.809 229.994C201.821 230.036 203.796 229.448 205.458 228.314C207.12 227.179 208.386 225.553 209.079 223.664C210.599 219.664 210.209 215.794 207.179 212.524C205.599 210.824 203.539 209.454 201.289 209.524C199.691 209.482 198.105 209.811 196.654 210.484C195.204 211.157 193.929 212.157 192.929 213.404C190.279 216.854 189.619 220.634 191.429 224.634C192.097 226.291 193.265 227.697 194.771 228.658C196.277 229.619 198.045 230.086 199.829 229.994H199.809Z" fill="#3558A2"/>
<path d="M196.908 100.443C198.058 94.2127 199.198 88.0828 200.338 81.9528C201.208 77.2328 202.028 72.4928 203.018 67.8028C203.315 66.4861 203.865 65.2396 204.638 64.1328C205.187 63.2293 206.041 62.5517 207.046 62.2217C208.05 61.8918 209.14 61.9311 210.118 62.3328C216.588 64.4128 223.118 66.4828 229.568 68.4828C233.488 69.6828 235.918 72.1128 236.688 76.2128C237.338 79.6728 238.158 83.1128 238.858 86.5728C239.001 87.3743 239.045 88.1905 238.988 89.0027C238.954 89.8715 238.638 90.7055 238.088 91.3785C237.537 92.0516 236.783 92.527 235.938 92.7328C235.087 92.9041 234.203 92.7937 233.42 92.4185C232.637 92.0433 231.998 91.4235 231.598 90.6528C231.236 89.8273 230.99 88.9557 230.868 88.0628C230.258 84.7728 229.768 81.4728 229.058 78.2128C228.962 77.7875 228.774 77.3883 228.508 77.0429C228.242 76.6975 227.904 76.4142 227.518 76.2128C221.958 74.3228 216.358 72.5928 210.518 70.7228C209.818 74.2828 209.208 77.4528 208.588 80.6128C206.661 90.5728 204.728 100.529 202.788 110.483C202.478 112.083 202.218 113.693 201.918 115.293C201.379 118.631 199.84 121.728 197.505 124.174C195.17 126.619 192.148 128.3 188.838 128.993C180.358 130.823 171.768 125.133 169.918 116.293C169.25 113.486 169.381 110.549 170.297 107.813C171.212 105.077 172.875 102.652 175.098 100.813C179.738 96.7228 185.098 95.5528 191.038 98.0128C192.828 98.7828 194.638 99.5127 196.908 100.443ZM193.978 113.003C193.978 108.503 190.578 104.463 186.638 104.383C181.428 104.273 177.358 108.053 177.378 112.983C177.378 114.073 177.593 115.152 178.01 116.159C178.427 117.166 179.038 118.081 179.809 118.852C180.58 119.622 181.495 120.234 182.502 120.651C183.509 121.068 184.588 121.283 185.678 121.283C186.768 121.283 187.847 121.068 188.854 120.651C189.861 120.234 190.776 119.622 191.547 118.852C192.318 118.081 192.929 117.166 193.346 116.159C193.763 115.152 193.978 114.073 193.978 112.983V113.003Z" fill="#3558A2"/>
<path d="M132.529 117.383L169.109 162.593L158.419 177.453L122.059 130.003L132.529 117.383Z" fill="white"/>
<path d="M65.7282 184.583C59.5282 184.583 54.3981 179.663 54.3281 173.783C54.3622 170.715 55.6002 167.782 57.7756 165.618C59.951 163.454 62.8896 162.231 65.9581 162.213C71.2582 162.293 77.3782 165.703 77.3482 173.143C77.3182 179.013 72.4082 184.863 65.7282 184.583Z" fill="white"/>
<path d="M120.929 201.914C122.221 201.876 123.507 202.104 124.707 202.586C125.907 203.067 126.995 203.791 127.902 204.711C128.81 205.632 129.518 206.73 129.982 207.937C130.446 209.143 130.656 210.433 130.599 211.724C130.533 214.744 129.285 217.617 127.124 219.727C124.962 221.836 122.059 223.013 119.039 223.004C117.766 223.004 116.506 222.752 115.332 222.262C114.157 221.771 113.092 221.053 112.197 220.148C111.302 219.243 110.596 218.169 110.119 216.989C109.642 215.81 109.404 214.547 109.419 213.274C109.473 210.253 110.708 207.372 112.859 205.249C115.01 203.127 117.906 201.929 120.929 201.914Z" fill="white"/>
<path d="M199.827 229.994C198.045 230.08 196.279 229.608 194.777 228.644C193.275 227.679 192.111 226.271 191.447 224.614C189.637 220.614 190.297 216.834 192.947 213.384C193.948 212.136 195.222 211.137 196.673 210.464C198.123 209.791 199.709 209.462 201.307 209.503C203.557 209.453 205.617 210.824 207.197 212.504C210.197 215.774 210.617 219.614 209.097 223.644C208.408 225.537 207.143 227.166 205.481 228.305C203.818 229.444 201.842 230.034 199.827 229.994Z" fill="white"/>
<path d="M193.979 113.003C193.979 114.093 193.764 115.172 193.347 116.179C192.93 117.186 192.319 118.101 191.548 118.872C190.777 119.642 189.862 120.254 188.855 120.671C187.848 121.088 186.769 121.303 185.679 121.303C184.589 121.303 183.51 121.088 182.503 120.671C181.496 120.254 180.581 119.642 179.81 118.872C179.039 118.101 178.428 117.186 178.011 116.179C177.594 115.172 177.379 114.093 177.379 113.003C177.379 108.073 181.379 104.293 186.639 104.403C190.579 104.463 194.029 108.503 193.979 113.003Z" fill="white"/>
</svg>
