<svg width="300" height="300" viewBox="0 0 300 300" fill="none" xmlns="http://www.w3.org/2000/svg">
<path d="M211.87 88.8934C216.55 90.9734 221.1 92.9835 225.64 95.0135C226.71 95.4935 227.79 96.0135 228.82 96.5535C229.447 96.8458 229.96 97.3359 230.282 97.9482C230.603 98.5606 230.715 99.2615 230.6 99.9435C230.366 101.819 229.885 103.654 229.17 105.403C221.37 121.963 213.52 138.5 205.62 155.014C191.84 183.98 178.067 212.953 164.3 241.933C163.803 243.079 163.467 244.287 163.3 245.523C162.94 247.683 161.78 248.813 159.63 248.643C158.731 248.55 157.855 248.303 157.04 247.913C133.9 237.3 110.763 226.68 87.6299 216.053C83.6299 214.243 79.6898 212.483 75.7798 210.593C74.0825 209.755 72.4512 208.789 70.8998 207.703C68.9898 206.393 68.6099 205.313 69.3599 203.023C71.0099 197.943 72.7499 192.893 74.4999 187.843C88.9932 145.904 103.487 103.967 117.98 62.0334C118.81 59.6434 119.69 57.2635 120.5 54.8635C121.22 52.7235 122.5 51.4435 124.9 51.7135C124.99 51.7135 125.1 51.7135 125.17 51.7135C128.88 50.1135 132.51 51.6335 136.12 52.1335C143.83 53.1935 151.5 54.5234 159.18 55.7734C167.58 57.1334 175.97 58.5534 184.37 59.9134C191.69 61.0934 199.03 62.2235 206.37 63.3735C207.45 63.5435 208.52 63.7135 209.59 63.9235C210.593 64.0127 211.527 64.4714 212.211 65.2106C212.894 65.9497 213.279 66.9166 213.29 67.9235C213.375 68.8281 213.375 69.7388 213.29 70.6434C212.84 76.7034 212.36 82.6134 211.87 88.8934ZM126.5 58.7035C109.767 107.097 93.1198 155.263 76.5598 203.203C77.1198 203.533 77.4099 203.743 77.7299 203.893L156.33 239.893C156.502 239.951 156.679 239.988 156.86 240.004C156.946 240.023 157.034 240.023 157.12 240.004C157.285 239.951 157.446 239.884 157.6 239.803L223.29 101.653L126.5 58.7035ZM206.4 70.4735L151.56 61.6434L151.45 62.1135L205.04 85.8535C205.5 80.7035 205.95 75.7035 206.4 70.5035V70.4735Z" fill="#3558A2"/>
<path d="M126.499 58.7031L223.289 101.593L157.599 239.743C157.445 239.823 157.284 239.89 157.119 239.943C157.033 239.962 156.944 239.962 156.859 239.943C156.678 239.928 156.5 239.891 156.329 239.833L77.7286 203.833C77.4086 203.683 77.1186 203.473 76.5586 203.143C93.1719 155.156 109.819 107.01 126.499 58.7031ZM138.069 75.6131C137.139 75.5573 136.215 75.7958 135.429 76.2949C134.643 76.794 134.034 77.5281 133.689 78.393C133.329 79.223 132.979 80.0631 132.689 80.903C128.195 92.7497 123.709 104.603 119.229 116.463C117.229 121.713 115.229 126.953 113.229 132.213C111.919 135.753 112.659 137.553 116.079 139.213C117.079 139.703 118.079 140.143 119.079 140.543C124.979 142.883 130.879 145.216 136.779 147.543C141.332 149.343 145.889 151.13 150.449 152.903C153.719 154.173 156.269 153.233 157.989 150.153C158.249 149.683 158.459 149.153 158.679 148.673C163.779 137.073 168.882 125.466 173.989 113.853C176.179 108.853 178.409 103.923 180.529 98.923C181.739 96.0531 181.089 94.4231 178.349 93.1931C165.882 87.5864 153.399 81.9997 140.899 76.4331C139.973 76.11 139.028 75.8461 138.069 75.643V75.6131ZM161.459 189.753C161.432 189.193 161.264 188.649 160.97 188.172C160.676 187.694 160.266 187.299 159.779 187.023C158.909 186.542 158.01 186.115 157.089 185.743C141.755 179.356 126.452 172.976 111.179 166.603C109.429 165.873 107.679 165.113 105.869 164.513C105.463 164.336 105.026 164.24 104.583 164.232C104.141 164.223 103.701 164.302 103.288 164.463C102.876 164.625 102.5 164.866 102.18 165.173C101.861 165.48 101.606 165.847 101.429 166.253C101.251 166.659 101.156 167.095 101.147 167.538C101.139 167.981 101.217 168.421 101.379 168.833C101.541 169.246 101.782 169.622 102.089 169.941C102.396 170.26 102.763 170.516 103.169 170.693C103.96 171.131 104.783 171.512 105.629 171.833C122.009 178.68 138.395 185.52 154.789 192.353C155.7 192.757 156.657 193.049 157.639 193.223C158.123 193.285 158.615 193.242 159.08 193.096C159.546 192.951 159.975 192.706 160.338 192.38C160.701 192.053 160.989 191.652 161.182 191.204C161.375 190.756 161.47 190.271 161.459 189.783V189.753ZM163.089 181.433C163.839 181.451 164.578 181.249 165.216 180.853C165.854 180.457 166.362 179.883 166.679 179.203C166.915 178.605 166.953 177.947 166.788 177.326C166.622 176.705 166.261 176.154 165.759 175.753C164.908 175.087 163.969 174.542 162.969 174.133C146.129 166.973 129.279 159.84 112.419 152.733C111.586 152.378 110.701 152.158 109.799 152.083C109.118 151.986 108.425 152.126 107.835 152.479C107.245 152.832 106.795 153.377 106.559 154.023C106.283 154.704 106.247 155.459 106.456 156.164C106.665 156.869 107.106 157.482 107.709 157.903C108.541 158.449 109.43 158.905 110.359 159.263C116.519 161.93 122.689 164.553 128.869 167.133L160.149 180.383C161.219 180.863 162.349 181.203 163.089 181.463V181.433ZM95.3286 194.183C93.3286 194.123 92.0287 194.943 91.4987 196.363C91.2364 196.998 91.1923 197.701 91.3733 198.364C91.5543 199.026 91.9501 199.61 92.4987 200.023C93.2191 200.566 94.0011 201.023 94.8286 201.383C100.295 203.983 105.772 206.57 111.259 209.143C114.292 210.563 117.329 211.97 120.369 213.363C121.003 213.678 121.675 213.91 122.369 214.053C123.185 214.2 124.028 214.063 124.755 213.664C125.483 213.266 126.053 212.63 126.369 211.863C126.647 211.088 126.637 210.238 126.339 209.471C126.041 208.703 125.477 208.068 124.749 207.683C124.353 207.464 123.946 207.267 123.529 207.093C119.379 205.093 115.229 203.093 111.059 201.093C106.549 198.983 102.059 196.933 97.4887 194.883C96.7845 194.612 96.0628 194.388 95.3286 194.213V194.183ZM130.429 199.523C130.433 198.94 130.287 198.367 130.005 197.857C129.723 197.347 129.314 196.919 128.819 196.613C127.999 196.047 127.121 195.571 126.199 195.193C118.005 191.806 109.809 188.433 101.609 185.073C100.857 184.762 100.071 184.537 99.2686 184.403C98.503 184.259 97.7112 184.387 97.03 184.765C96.3489 185.143 95.8213 185.747 95.5386 186.473C95.2525 187.146 95.2036 187.897 95.3998 188.602C95.596 189.307 96.0258 189.924 96.6187 190.353C97.2905 190.805 98.016 191.171 98.7786 191.443C107.445 195.063 116.135 198.666 124.849 202.253C125.673 202.611 126.56 202.802 127.459 202.813C127.87 202.8 128.274 202.705 128.648 202.533C129.022 202.361 129.357 202.116 129.634 201.812C129.911 201.508 130.124 201.151 130.261 200.763C130.397 200.375 130.454 199.963 130.429 199.553V199.523ZM158.539 218.593C160.609 218.593 161.839 217.763 162.329 216.323C162.562 215.676 162.579 214.971 162.379 214.314C162.179 213.656 161.772 213.08 161.219 212.673C160.576 212.178 159.869 211.771 159.119 211.463C153.699 209.136 148.272 206.836 142.839 204.563C142.007 204.206 141.121 203.99 140.219 203.923C139.49 203.831 138.752 204.003 138.139 204.408C137.526 204.814 137.079 205.426 136.879 206.133C136.654 206.78 136.64 207.481 136.837 208.136C137.035 208.792 137.434 209.368 137.979 209.783C138.626 210.279 139.335 210.689 140.089 211.003C145.509 213.323 150.935 215.62 156.369 217.893C157.078 218.175 157.803 218.419 158.539 218.623V218.593ZM207.399 116.193C207.442 115.551 207.293 114.91 206.971 114.352C206.648 113.795 206.167 113.346 205.589 113.063C200.379 110.563 195.129 108.133 189.889 105.673C189.804 105.637 189.717 105.607 189.629 105.583C188.874 105.374 188.072 105.422 187.348 105.719C186.624 106.016 186.019 106.545 185.629 107.223C185.294 107.922 185.193 108.71 185.339 109.471C185.484 110.232 185.87 110.927 186.439 111.453C187.074 111.96 187.769 112.386 188.509 112.723C192.759 114.723 196.999 116.723 201.279 118.723C202.173 119.147 203.141 119.395 204.129 119.453C204.565 119.494 205.005 119.439 205.417 119.291C205.83 119.144 206.205 118.908 206.517 118.601C206.828 118.293 207.069 117.92 207.221 117.51C207.374 117.099 207.434 116.66 207.399 116.223V116.193ZM200.209 130.753C200.215 130.05 200.009 129.36 199.616 128.777C199.223 128.193 198.663 127.742 198.009 127.483C193.359 125.083 188.669 122.753 184.009 120.403C183.692 120.243 183.356 120.125 183.009 120.053C182.228 119.765 181.368 119.779 180.597 120.092C179.826 120.406 179.2 120.995 178.841 121.746C178.482 122.496 178.416 123.354 178.656 124.151C178.896 124.947 179.425 125.626 180.139 126.053C180.791 126.537 181.491 126.952 182.229 127.293C186.089 129.253 189.959 131.2 193.839 133.133C194.546 133.529 195.298 133.841 196.079 134.063C196.573 134.185 197.089 134.193 197.587 134.085C198.085 133.976 198.551 133.755 198.95 133.438C199.349 133.121 199.67 132.717 199.888 132.257C200.106 131.797 200.216 131.292 200.209 130.783V130.753ZM188.559 148.753C189.242 148.772 189.919 148.605 190.514 148.268C191.11 147.931 191.602 147.439 191.939 146.843C192.277 146.297 192.424 145.654 192.357 145.015C192.29 144.376 192.013 143.777 191.569 143.313C190.889 142.591 190.095 141.986 189.219 141.523C185.339 139.393 181.419 137.323 177.499 135.243C176.796 134.826 176.047 134.491 175.269 134.243C174.546 134.042 173.776 134.089 173.083 134.378C172.39 134.666 171.814 135.179 171.448 135.834C171.081 136.489 170.945 137.248 171.061 137.989C171.177 138.731 171.539 139.412 172.089 139.923C172.548 140.36 173.066 140.73 173.629 141.023C177.929 143.343 182.232 145.646 186.539 147.933C187.19 148.276 187.865 148.574 188.559 148.823V148.753Z" fill="white"/>
<path d="M206.399 70.5039C205.939 75.7239 205.499 80.6539 205.039 85.8839L151.449 62.1438L151.559 61.6738L206.399 70.5039Z" fill="#979FBB"/>
<path d="M138.07 75.6436C139.031 75.8728 139.976 76.1636 140.9 76.5137C153.386 82.087 165.87 87.6736 178.35 93.2736C181.09 94.5036 181.74 96.1337 180.53 99.0037C178.41 104.004 176.18 109.004 173.99 113.934C168.89 125.54 163.786 137.147 158.68 148.754C158.46 149.254 158.25 149.754 157.99 150.234C156.27 153.314 153.72 154.234 150.45 152.984C145.89 151.217 141.333 149.43 136.78 147.624C130.88 145.304 124.98 142.97 119.08 140.624C118.08 140.224 117.08 139.784 116.08 139.294C112.66 137.584 111.92 135.784 113.23 132.294C115.23 127.034 117.23 121.794 119.23 116.544C123.723 104.697 128.21 92.8437 132.69 80.9837C133.01 80.1437 133.36 79.3037 133.69 78.4737C134.027 77.5994 134.632 76.8543 135.419 76.3458C136.206 75.8373 137.134 75.5915 138.07 75.6436ZM140.19 108.094C140.19 107.444 140.19 106.644 140.19 105.844C140.202 104.206 140.558 102.588 141.235 101.096C141.912 99.6046 142.895 98.2716 144.12 97.1836C145.355 95.9672 146.879 95.0844 148.549 94.6177C150.218 94.1511 151.979 94.1159 153.666 94.5157C155.353 94.9154 156.911 95.737 158.193 96.9033C159.476 98.0695 160.442 99.5423 161 101.184C162.68 105.754 161.7 109.904 158.74 113.654C158.27 114.264 157.74 114.834 157.38 115.244L162.56 122.604L173.12 98.6037L139.2 83.4036C135.7 92.6236 132.27 101.694 128.84 110.754L140.19 108.094ZM120.25 133.434C121.337 133.832 122.402 134.289 123.44 134.804C124.026 135.139 124.703 135.283 125.376 135.215C126.048 135.147 126.682 134.87 127.19 134.424C130.13 132.424 133.19 130.694 136.19 128.844L151.19 119.674C150.718 119.175 150.199 118.723 149.64 118.324C147.082 116.77 144.186 115.857 141.2 115.664C136.08 115.46 131.066 117.155 127.12 120.424C126.12 121.204 124.85 121.904 124.38 122.954C122.83 126.304 121.64 129.794 120.25 133.434V133.434ZM133.52 138.744L151.86 145.974C152.17 145.744 152.27 145.704 152.3 145.624C153.55 142.914 154.8 140.204 156.02 137.494C157.8 133.494 157.85 133.494 157.09 129.424C156.72 127.964 156.263 126.528 155.72 125.124L133.52 138.744ZM147.2 105.624C147.2 108.444 148.07 109.854 149.91 110.434C151.29 110.864 153.14 109.874 154.05 108.134C154.382 107.505 154.621 106.831 154.76 106.134C154.916 105.242 154.791 104.325 154.402 103.508C154.013 102.69 153.38 102.015 152.59 101.574C151.72 101.286 150.776 101.321 149.93 101.672C149.084 102.023 148.392 102.666 147.98 103.484C147.642 104.166 147.38 104.884 147.2 105.624Z" fill="#3558A2"/>
<path d="M161.46 189.784C161.476 190.274 161.385 190.762 161.193 191.214C161.002 191.666 160.715 192.071 160.352 192.401C159.988 192.73 159.558 192.978 159.09 193.125C158.622 193.272 158.127 193.316 157.64 193.254C156.659 193.08 155.702 192.788 154.79 192.384C138.404 185.55 122.017 178.71 105.631 171.864C104.784 171.543 103.962 171.162 103.17 170.724C102.765 170.546 102.398 170.291 102.091 169.972C101.784 169.653 101.542 169.276 101.381 168.864C101.219 168.452 101.141 168.012 101.149 167.569C101.158 167.126 101.253 166.689 101.43 166.284C101.608 165.878 101.863 165.511 102.182 165.204C102.501 164.897 102.878 164.656 103.29 164.494C103.702 164.333 104.142 164.254 104.585 164.262C105.028 164.271 105.465 164.366 105.87 164.544C107.68 165.144 109.43 165.904 111.18 166.634C126.514 173 141.817 179.38 157.09 185.774C158.012 186.145 158.911 186.573 159.78 187.054C160.268 187.33 160.678 187.725 160.972 188.202C161.266 188.68 161.434 189.224 161.46 189.784Z" fill="#3558A2"/>
<path d="M163.089 181.463C162.349 181.203 161.219 180.863 160.149 180.463L128.869 167.213C122.696 164.593 116.526 161.969 110.359 159.343C109.43 158.984 108.542 158.528 107.709 157.983C107.107 157.561 106.665 156.948 106.456 156.244C106.247 155.539 106.284 154.784 106.559 154.103C106.795 153.457 107.246 152.912 107.835 152.559C108.425 152.206 109.118 152.066 109.799 152.163C110.701 152.238 111.586 152.457 112.419 152.813C129.265 159.926 146.116 167.059 162.969 174.213C163.969 174.622 164.908 175.167 165.759 175.833C166.262 176.233 166.622 176.785 166.788 177.406C166.954 178.027 166.915 178.685 166.679 179.283C166.355 179.954 165.843 180.517 165.206 180.904C164.569 181.291 163.834 181.485 163.089 181.463V181.463Z" fill="#3558A2"/>
<path d="M95.3283 194.212C96.0671 194.403 96.7922 194.643 97.4984 194.932C102.028 196.932 106.558 199.032 111.068 201.142C115.238 203.142 119.388 205.142 123.538 207.142C123.955 207.316 124.363 207.514 124.758 207.732C125.486 208.117 126.051 208.752 126.349 209.52C126.646 210.288 126.657 211.137 126.378 211.912C126.062 212.679 125.493 213.315 124.765 213.714C124.037 214.112 123.195 214.249 122.378 214.102C121.685 213.959 121.013 213.727 120.378 213.412C117.325 212.019 114.288 210.612 111.268 209.192C105.788 206.612 100.312 204.025 94.8384 201.432C94.0109 201.072 93.2288 200.616 92.5084 200.072C91.9599 199.659 91.564 199.075 91.383 198.413C91.202 197.75 91.2462 197.047 91.5084 196.412C92.0284 194.972 93.3083 194.152 95.3283 194.212Z" fill="#3558A2"/>
<path d="M130.429 199.555C130.459 199.97 130.404 200.387 130.268 200.781C130.131 201.174 129.916 201.536 129.635 201.844C129.355 202.152 129.014 202.399 128.635 202.571C128.256 202.743 127.845 202.836 127.429 202.845C126.53 202.833 125.643 202.643 124.819 202.285C116.119 198.705 107.429 195.101 98.749 191.475C97.9865 191.203 97.2608 190.836 96.589 190.385C95.9961 189.956 95.5665 189.338 95.3702 188.634C95.174 187.929 95.223 187.178 95.509 186.505C95.7918 185.779 96.3194 185.175 97.0005 184.797C97.6816 184.419 98.4735 184.291 99.239 184.435C100.042 184.569 100.827 184.794 101.579 185.105C109.779 188.438 117.976 191.811 126.169 195.225C127.091 195.602 127.969 196.078 128.789 196.645C129.29 196.947 129.705 197.374 129.992 197.884C130.28 198.394 130.43 198.969 130.429 199.555Z" fill="#3558A2"/>
<path d="M158.539 218.622C157.803 218.427 157.079 218.194 156.369 217.922C150.929 215.642 145.502 213.345 140.089 211.032C139.336 210.718 138.626 210.308 137.979 209.812C137.434 209.397 137.035 208.821 136.837 208.165C136.64 207.51 136.654 206.809 136.879 206.162C137.079 205.455 137.526 204.843 138.139 204.437C138.752 204.032 139.49 203.86 140.219 203.952C141.122 204.019 142.007 204.235 142.839 204.592C148.279 206.859 153.705 209.159 159.119 211.492C159.87 211.8 160.576 212.207 161.219 212.702C161.772 213.109 162.18 213.685 162.38 214.343C162.58 215 162.562 215.705 162.329 216.352C161.839 217.792 160.609 218.622 158.539 218.622Z" fill="#3558A2"/>
<path d="M207.399 116.223C207.437 116.656 207.379 117.093 207.231 117.502C207.083 117.912 206.848 118.284 206.541 118.593C206.235 118.902 205.865 119.141 205.457 119.293C205.049 119.445 204.613 119.506 204.179 119.473C203.191 119.415 202.223 119.167 201.329 118.743C197.049 116.743 192.809 114.743 188.559 112.743C187.82 112.406 187.124 111.979 186.489 111.472C185.92 110.946 185.535 110.252 185.389 109.491C185.243 108.729 185.345 107.942 185.679 107.242C186.07 106.564 186.675 106.035 187.399 105.738C188.123 105.442 188.925 105.394 189.679 105.602C189.768 105.626 189.855 105.656 189.939 105.692C195.179 108.152 200.429 110.582 205.639 113.082C206.21 113.373 206.682 113.827 206.995 114.386C207.308 114.944 207.449 115.584 207.399 116.223V116.223Z" fill="#3558A2"/>
<path d="M200.209 130.784C200.216 131.296 200.105 131.802 199.885 132.264C199.664 132.726 199.34 133.131 198.937 133.447C198.535 133.763 198.065 133.983 197.564 134.088C197.063 134.193 196.545 134.181 196.049 134.054C195.269 133.832 194.517 133.52 193.809 133.124C189.929 131.197 186.059 129.25 182.199 127.284C181.462 126.943 180.762 126.528 180.109 126.044C179.395 125.617 178.866 124.938 178.626 124.142C178.386 123.345 178.452 122.487 178.811 121.737C179.17 120.986 179.797 120.396 180.568 120.083C181.339 119.77 182.199 119.756 182.979 120.044C183.327 120.116 183.663 120.233 183.979 120.394C188.659 122.744 193.349 125.074 197.979 127.474C198.646 127.73 199.217 128.185 199.616 128.777C200.015 129.369 200.222 130.07 200.209 130.784Z" fill="#3558A2"/>
<path d="M188.559 148.824C187.875 148.606 187.207 148.342 186.559 148.034C182.252 145.754 177.949 143.45 173.649 141.124C173.087 140.831 172.568 140.461 172.109 140.023C171.56 139.512 171.198 138.831 171.081 138.09C170.965 137.348 171.101 136.589 171.468 135.934C171.835 135.279 172.411 134.766 173.103 134.478C173.796 134.19 174.566 134.142 175.289 134.343C176.068 134.591 176.816 134.926 177.519 135.343C181.439 137.423 185.359 139.493 189.239 141.624C190.116 142.087 190.91 142.691 191.589 143.413C192.033 143.878 192.31 144.476 192.377 145.115C192.444 145.754 192.297 146.397 191.959 146.944C191.617 147.537 191.12 148.025 190.521 148.357C189.922 148.688 189.243 148.849 188.559 148.824V148.824Z" fill="#3558A2"/>
<path d="M140.19 108.093L128.84 110.733C132.27 101.673 135.7 92.6028 139.2 83.3828L173.12 98.5827L162.56 122.583L157.38 115.223C157.74 114.813 158.27 114.223 158.74 113.633C161.74 109.883 162.68 105.733 161 101.163C160.442 99.5212 159.476 98.0485 158.193 96.8822C156.911 95.716 155.353 94.8945 153.666 94.4948C151.979 94.0951 150.218 94.1301 148.549 94.5967C146.879 95.0634 145.355 95.9462 144.12 97.1626C142.895 98.2505 141.912 99.5835 141.235 101.075C140.558 102.567 140.202 104.184 140.19 105.823C140.18 106.643 140.19 107.443 140.19 108.093Z" fill="#EAECF1"/>
<path d="M120.25 133.433C121.64 129.793 122.83 126.303 124.34 122.953C124.81 121.953 126.1 121.203 127.08 120.423C131.026 117.155 136.04 115.459 141.16 115.663C144.146 115.856 147.042 116.769 149.6 118.323C150.159 118.722 150.678 119.174 151.15 119.673L136.15 128.843C133.15 130.693 130.09 132.463 127.15 134.423C126.643 134.87 126.008 135.146 125.336 135.215C124.664 135.283 123.987 135.139 123.4 134.803C122.375 134.29 121.324 133.832 120.25 133.433V133.433Z" fill="white"/>
<path d="M133.52 138.704L155.72 125.084C156.263 126.488 156.72 127.924 157.09 129.384C157.85 133.494 157.8 133.504 156.02 137.454C154.8 140.164 153.55 142.874 152.3 145.584C152.3 145.664 152.17 145.704 151.86 145.934L133.52 138.704Z" fill="white"/>
<path d="M147.199 105.624C147.377 104.871 147.638 104.139 147.979 103.444C148.391 102.626 149.083 101.983 149.929 101.633C150.775 101.282 151.719 101.247 152.589 101.534C153.379 101.975 154.013 102.651 154.402 103.468C154.79 104.285 154.915 105.203 154.759 106.094C154.62 106.792 154.381 107.465 154.049 108.094C153.139 109.834 151.289 110.824 149.909 110.394C148.069 109.854 147.149 108.444 147.199 105.624Z" fill="white"/>
</svg>
