<svg width="300" height="300" viewBox="0 0 300 300" fill="none" xmlns="http://www.w3.org/2000/svg">
<path d="M60.4945 123.457C59.6445 120.787 58.8245 118.217 58.0245 115.637C57.0245 112.397 57.6644 111.027 60.8444 109.637C63.7444 108.387 66.6644 107.187 69.8444 105.867C68.8444 102.927 68.0444 100.087 66.9744 97.3366C65.6844 93.9966 66.3144 92.3366 69.8144 91.1366C79.4444 87.8766 89.0844 84.6766 98.7244 81.4566L159.384 61.1966C162.944 60.0066 164.444 60.6866 165.884 64.3066C169.324 72.8799 172.751 81.4599 176.165 90.0466C176.335 90.4666 176.564 90.8566 176.954 91.6666C177.554 90.6666 178.024 89.8666 178.474 89.0666C186.948 73.8532 195.421 58.6432 203.895 43.4366C206.545 38.6866 209.754 37.7965 214.464 40.5465C226.918 47.8265 239.364 55.1232 251.804 62.4366C253.954 63.6966 254.474 65.1466 253.584 67.4366C253.27 68.1917 252.903 68.9236 252.484 69.6266C238.864 94.2332 225.238 118.84 211.604 143.447C210.046 146.313 208.299 149.072 206.374 151.707C205.454 152.947 203.854 153.707 202.324 154.787C203.634 159.097 204.974 163.577 206.324 168.057C207.674 172.537 208.894 176.747 210.324 181.057C210.694 182.131 210.831 183.271 210.726 184.402C210.621 185.533 210.276 186.629 209.714 187.617C208.996 188.727 207.946 189.584 206.714 190.067C203.964 191.217 201.084 192.067 198.264 193.067C197.674 193.277 197.104 193.527 196.344 193.837C197.104 197.157 197.834 200.397 198.584 203.637C199.584 207.997 198.854 209.487 194.584 211.087C191.864 212.087 189.084 212.927 186.334 213.857C185.869 214.059 185.418 214.293 184.984 214.557C185.984 217.727 186.984 220.817 187.854 223.927C188.248 225.034 188.451 226.201 188.454 227.377C188.284 229.627 186.454 230.497 184.624 231.137C178.544 233.227 172.444 235.257 166.344 237.327L97.8845 260.507C97.1045 260.777 96.3345 261.037 95.5445 261.247C92.8245 261.977 91.9645 261.467 90.2445 259.307C88.821 257.331 87.7642 255.116 87.1245 252.767C74.2578 214.387 61.3711 175.997 48.4644 137.597C47.9771 136.153 47.5666 134.684 47.2344 133.197C46.5344 129.957 47.3444 128.467 50.4444 127.277C53.2444 126.207 56.0645 125.277 58.8745 124.207C59.3245 123.987 59.8045 123.757 60.4945 123.457ZM161.234 120.017C164.724 113.767 168.124 107.567 171.645 101.427C171.925 100.92 172.072 100.351 172.072 99.7716C172.072 99.1927 171.925 98.6232 171.645 98.1166C168.031 89.1166 164.431 80.1166 160.844 71.1166C160.524 70.3166 160.104 69.5566 159.714 68.7466L74.5145 97.1966C87.6845 136.357 100.724 175.117 113.854 214.197L203.554 183.607C200.844 174.757 198.264 166.307 195.624 157.697L185.804 162.387C180.414 164.977 175.054 167.637 169.614 170.137C165.884 171.857 162.614 170.137 162.094 166.307C161.434 161.917 160.934 157.497 160.354 153.097C159.764 148.527 159.154 143.957 158.564 139.477C151.464 137.747 148.234 133.847 148.854 127.977C149.424 122.607 153.234 120.137 161.234 120.017ZM54.4945 133.497C56.0145 137.917 57.4945 142.097 58.8945 146.287C70.3745 180.353 81.8511 214.427 93.3244 248.507C93.9144 250.257 94.6444 251.967 95.3244 253.757L180.614 224.897C179.694 221.897 178.885 219.387 178.045 216.697C176.845 217.047 175.884 217.297 174.944 217.607C161.514 222.037 148.134 226.607 134.644 230.877C124.474 234.097 114.645 238.377 104.035 240.297C101.205 240.807 99.4744 240.127 98.3144 237.527C97.6151 235.856 97.001 234.15 96.4744 232.417C85.5944 199.477 74.7178 166.537 63.8444 133.597C63.5144 132.597 63.1144 131.597 62.7044 130.487L54.4945 133.497ZM65.4045 115.497C67.1345 120.687 68.7845 125.567 70.4045 130.497C81.4378 163.87 92.4645 197.233 103.484 230.587C104.354 233.227 104.484 233.287 106.884 232.497C134.364 223.41 161.841 214.32 189.314 205.227C189.984 205.007 190.614 204.667 191.314 204.357L189.314 196.227C188.154 196.547 187.314 196.747 186.454 197.037C174.028 201.263 161.601 205.51 149.174 209.777C137.114 213.947 125.085 218.207 113.035 222.417C112.222 222.741 111.318 222.749 110.5 222.44C109.682 222.131 109.009 221.527 108.614 220.747C108.152 219.864 107.773 218.94 107.484 217.987C104.011 207.687 100.551 197.387 97.1045 187.087C89.1045 163.24 81.0877 139.387 73.0544 115.527C72.7544 114.627 72.3544 113.767 71.9544 112.787L65.4045 115.497ZM222.484 53.6466L179.405 132.197L188.824 137.347C203.254 111.297 217.575 85.4566 232.015 59.3466L222.484 53.6466ZM237.924 62.7466C223.624 88.8766 209.464 114.747 195.224 140.747L202.594 144.747C216.984 118.747 231.225 93.0066 245.535 67.1665L237.924 62.7466ZM172.984 128.637L216.324 50.0566C214.324 48.8966 212.465 47.7666 210.395 46.5266C195.715 72.8966 181.215 98.9666 166.655 125.137L172.984 128.637ZM165.574 132.787L165.054 133.217C165.654 137.697 166.234 142.217 166.894 146.647C167.028 147.154 167.354 147.588 167.804 147.857C171.958 150.463 176.124 153.033 180.304 155.567C180.596 155.76 180.923 155.892 181.267 155.955C181.61 156.019 181.963 156.012 182.304 155.937C186.724 153.937 191.084 151.757 195.944 149.417L165.574 132.787Z" fill="#3558A2"/>
<path d="M161.236 120.017C153.176 120.137 149.406 122.607 148.836 128.017C148.216 133.887 151.446 137.787 158.546 139.517C159.136 143.997 159.746 148.567 160.336 153.137C160.916 157.537 161.416 161.957 162.076 166.347C162.646 170.227 165.866 171.897 169.596 170.177C175.036 167.677 180.396 165.017 185.786 162.427L195.606 157.737C198.246 166.347 200.826 174.797 203.536 183.647L113.856 214.197C100.726 175.137 87.6856 136.377 74.5156 97.1965L159.746 68.7266C160.136 69.5366 160.556 70.2966 160.876 71.0966C164.476 80.0899 168.076 89.0899 171.676 98.0966C171.956 98.6032 172.103 99.1726 172.103 99.7515C172.103 100.33 171.956 100.9 171.676 101.407C168.146 107.567 164.746 113.767 161.236 120.017ZM124.366 146.757C124.146 139.677 119.696 136.197 113.246 135.937C107.996 135.727 103.696 140.487 103.666 146.077C103.664 148.928 104.769 151.668 106.748 153.72C108.728 155.772 111.426 156.975 114.276 157.077C115.625 157.092 116.964 156.834 118.212 156.318C119.459 155.803 120.589 155.039 121.534 154.075C122.479 153.111 123.218 151.965 123.708 150.708C124.199 149.45 124.429 148.106 124.386 146.757H124.366ZM126.926 137.527C126.897 138.89 127.144 140.245 127.652 141.51C128.159 142.775 128.917 143.925 129.88 144.891C130.843 145.856 131.99 146.617 133.254 147.129C134.518 147.64 135.872 147.891 137.236 147.867C139.979 147.807 142.593 146.686 144.527 144.739C146.461 142.792 147.565 140.171 147.606 137.427C147.51 134.743 146.374 132.203 144.437 130.343C142.501 128.484 139.917 127.451 137.232 127.464C134.547 127.477 131.973 128.535 130.055 130.413C128.137 132.291 127.025 134.843 126.956 137.527H126.926ZM146.736 96.0665C141.666 96.1365 137.566 100.647 137.736 106.067C137.856 112.007 142.736 117.207 148.236 117.197C149.532 117.209 150.818 116.96 152.016 116.464C153.214 115.968 154.3 115.236 155.208 114.311C156.117 113.386 156.829 112.287 157.303 111.08C157.777 109.873 158.002 108.583 157.966 107.287C157.746 101.287 154.006 96.1965 146.756 96.0665H146.736ZM121.736 172.837C122.636 175.447 123.496 177.977 124.376 180.507C124.712 181.63 125.133 182.727 125.636 183.787C125.993 184.528 126.603 185.119 127.356 185.452C128.109 185.785 128.956 185.84 129.746 185.607C130.541 185.381 131.225 184.869 131.664 184.169C132.104 183.469 132.268 182.631 132.126 181.817C132.025 181.011 131.833 180.219 131.556 179.457C130.729 176.877 129.876 174.303 128.996 171.737C128.246 169.517 127.576 167.257 126.626 165.117C125.416 162.427 122.436 161.537 120.376 163.497C116.906 166.797 113.686 170.367 110.556 173.997C110.268 174.325 110.05 174.707 109.915 175.122C109.779 175.537 109.729 175.975 109.767 176.409C109.806 176.844 109.931 177.266 110.137 177.65C110.343 178.035 110.625 178.374 110.966 178.647C111.573 179.205 112.362 179.525 113.186 179.549C114.011 179.573 114.817 179.298 115.456 178.777C116.088 178.267 116.68 177.709 117.226 177.107L121.736 172.837ZM103.466 121.587C104.086 123.447 104.466 124.837 105.006 126.187C105.494 127.633 106.106 129.035 106.836 130.377C107.21 131.015 107.807 131.493 108.512 131.719C109.217 131.944 109.981 131.9 110.656 131.597C111.321 131.415 111.904 131.013 112.313 130.458C112.721 129.902 112.93 129.225 112.906 128.537C112.943 127.813 112.872 127.089 112.696 126.387C111.406 122.327 110.176 118.247 108.696 114.247C107.216 110.247 103.546 109.617 100.816 113.127C98.2456 116.417 95.8155 119.787 93.3055 123.127C92.9755 123.558 92.7001 124.028 92.4856 124.527C92.1482 125.231 92.0596 126.028 92.2343 126.789C92.4089 127.55 92.8366 128.229 93.4473 128.716C94.0579 129.202 94.8156 129.467 95.5963 129.467C96.3771 129.468 97.1348 129.203 97.7456 128.717C98.4368 128.129 99.0516 127.457 99.5756 126.717C100.836 125.197 102.006 123.567 103.486 121.587H103.466ZM144.736 162.817C145.136 164.177 145.406 165.107 145.736 166.037C146.496 168.547 147.136 171.107 148.066 173.557C148.371 174.323 148.947 174.95 149.685 175.319C150.422 175.687 151.27 175.772 152.066 175.557C152.858 175.328 153.545 174.829 154.006 174.145C154.467 173.461 154.672 172.637 154.586 171.817C154.579 171.454 154.522 171.093 154.416 170.747C152.886 165.827 151.526 160.847 149.736 156.027C148.516 152.727 145.656 152.197 142.986 154.527C140.316 156.857 137.916 159.207 135.496 161.657C133.766 163.417 133.676 165.587 135.056 167.007C136.436 168.427 138.456 168.407 140.416 166.777C141.776 165.667 143.056 164.387 144.756 162.817H144.736ZM124.236 111.707L125.436 115.007C126.056 116.707 126.546 118.477 127.326 120.097C127.677 120.898 128.319 121.538 129.122 121.886C129.925 122.235 130.83 122.267 131.656 121.977C132.465 121.659 133.133 121.061 133.538 120.292C133.944 119.523 134.06 118.634 133.866 117.787C133.817 117.517 133.743 117.252 133.646 116.997C132.546 113.737 131.516 110.457 130.306 107.237C129.771 105.888 129.044 104.625 128.146 103.487C126.676 101.577 124.306 101.157 122.666 102.817C119.816 105.717 117.196 108.817 114.666 112.017C114.194 112.536 113.942 113.217 113.962 113.919C113.983 114.62 114.274 115.286 114.776 115.777C115.671 116.617 116.83 117.119 118.056 117.197C118.956 117.197 119.996 116.337 120.756 115.627C121.926 114.527 122.926 113.197 124.236 111.707Z" fill="white"/>
<path d="M54.4961 133.496L62.7161 130.496C63.1261 131.616 63.5261 132.606 63.8561 133.606C74.7361 166.546 85.6128 199.486 96.4861 232.426C97.0126 234.159 97.6267 235.865 98.3261 237.536C99.4861 240.136 101.216 240.816 104.046 240.306C114.626 238.386 124.486 234.106 134.656 230.886C148.146 226.616 161.526 222.046 174.956 217.616C175.896 217.306 176.856 217.056 178.056 216.706C178.896 219.396 179.706 221.956 180.626 224.906L95.3361 253.766C94.6461 251.976 93.9161 250.266 93.3361 248.516C81.8494 214.449 70.3728 180.376 58.9061 146.296C57.4861 142.096 56.0161 137.916 54.4961 133.496Z" fill="#979FBB"/>
<path d="M65.4062 115.525L72.0062 112.775C72.4062 113.775 72.8062 114.615 73.1062 115.515C81.1062 139.362 89.1229 163.215 97.1563 187.075C100.616 197.375 104.076 207.675 107.536 217.975C107.825 218.929 108.204 219.853 108.666 220.735C109.061 221.516 109.734 222.12 110.552 222.429C111.37 222.738 112.274 222.729 113.086 222.405C125.136 218.195 137.166 213.935 149.226 209.765C161.64 205.472 174.066 201.225 186.506 197.025C187.346 196.735 188.206 196.535 189.366 196.215L191.366 204.345C190.646 204.655 190.016 204.995 189.366 205.215C161.9 214.315 134.423 223.405 106.936 232.485C104.516 233.275 104.406 233.215 103.536 230.575C92.5029 197.242 81.4762 163.879 70.4562 130.485C68.7862 125.595 67.1363 120.715 65.4062 115.525Z" fill="#CBCFDD"/>
<path d="M222.486 53.6777L232.016 59.3378C217.576 85.4178 203.256 111.258 188.826 137.338L179.406 132.188L222.486 53.6777Z" fill="white"/>
<path d="M237.925 62.7754L245.535 67.2654C231.225 93.1054 216.985 118.845 202.595 144.845L195.225 140.845C209.465 114.775 223.625 88.9054 237.925 62.7754Z" fill="#CBCFDD"/>
<path d="M172.986 128.667L166.656 125.167C181.216 98.9966 195.716 72.9266 210.396 46.5566C212.466 47.7966 214.396 48.9267 216.326 50.0867L172.986 128.667Z" fill="#CBCFDD"/>
<path d="M165.575 132.816L195.945 149.446C191.085 151.786 186.725 153.936 182.305 155.966C181.964 156.042 181.611 156.049 181.267 155.985C180.923 155.922 180.596 155.789 180.305 155.596C176.118 153.076 171.951 150.506 167.805 147.886C167.355 147.618 167.028 147.183 166.895 146.676C166.235 142.206 165.655 137.676 165.055 133.246L165.575 132.816Z" fill="white"/>
<path d="M124.386 146.755C124.423 148.1 124.19 149.438 123.698 150.689C123.207 151.941 122.468 153.081 121.526 154.041C120.584 155 119.458 155.76 118.216 156.275C116.974 156.789 115.64 157.048 114.296 157.035C111.446 156.934 108.748 155.731 106.768 153.679C104.789 151.627 103.684 148.886 103.686 146.035C103.686 140.445 108.016 135.685 113.266 135.895C119.716 136.195 124.166 139.675 124.386 146.755ZM114.236 149.615C115.009 149.616 115.753 149.318 116.312 148.783C116.871 148.248 117.202 147.518 117.236 146.745C117.236 145.025 115.486 143.005 113.936 143.015C113.162 143.057 112.43 143.38 111.878 143.923C111.326 144.466 110.99 145.193 110.936 145.965C110.947 146.871 111.288 147.742 111.896 148.414C112.503 149.086 113.335 149.513 114.236 149.615V149.615Z" fill="#3558A2"/>
<path d="M126.946 137.525C127.015 134.842 128.127 132.29 130.045 130.412C131.963 128.534 134.537 127.476 137.222 127.463C139.907 127.45 142.491 128.483 144.427 130.342C146.364 132.202 147.5 134.742 147.596 137.425C147.555 140.168 146.453 142.788 144.521 144.734C142.589 146.681 139.978 147.803 137.236 147.865C135.874 147.887 134.522 147.634 133.261 147.122C131.999 146.609 130.854 145.847 129.893 144.882C128.933 143.917 128.176 142.768 127.67 141.504C127.164 140.24 126.917 138.887 126.946 137.525ZM140.216 137.375C140.218 136.988 140.14 136.605 139.988 136.249C139.836 135.892 139.612 135.571 139.331 135.305C139.05 135.039 138.717 134.833 138.353 134.701C137.989 134.568 137.602 134.512 137.216 134.535C136.392 134.554 135.608 134.895 135.033 135.487C134.459 136.078 134.14 136.871 134.146 137.695C134.15 138.079 134.233 138.457 134.388 138.808C134.543 139.159 134.767 139.474 135.048 139.736C135.328 139.998 135.658 140.2 136.019 140.33C136.379 140.461 136.763 140.517 137.146 140.495C137.557 140.508 137.967 140.436 138.35 140.283C138.733 140.13 139.08 139.901 139.37 139.608C139.66 139.315 139.886 138.966 140.035 138.582C140.184 138.198 140.252 137.787 140.236 137.375H140.216Z" fill="#3558A2"/>
<path d="M146.754 96.0664C154.004 96.2364 157.754 101.286 157.934 107.236C157.978 108.534 157.758 109.827 157.289 111.038C156.82 112.249 156.112 113.352 155.206 114.283C154.3 115.213 153.215 115.95 152.018 116.451C150.82 116.952 149.533 117.205 148.234 117.197C142.764 117.197 137.854 112.007 137.734 106.066C137.584 100.646 141.684 96.1364 146.754 96.0664ZM150.594 107.206C150.654 105.206 149.034 103.206 147.344 103.206C145.974 103.206 145.055 104.326 145.045 105.996C145.006 106.904 145.303 107.793 145.879 108.496C146.454 109.199 147.268 109.665 148.165 109.806C149.635 109.876 150.544 108.906 150.594 107.196V107.206Z" fill="#3558A2"/>
<path d="M121.756 172.836L117.246 177.106C116.701 177.708 116.109 178.266 115.476 178.776C114.837 179.298 114.032 179.572 113.207 179.548C112.382 179.524 111.594 179.204 110.986 178.646C110.646 178.373 110.364 178.034 110.158 177.65C109.952 177.265 109.826 176.843 109.788 176.408C109.75 175.974 109.8 175.536 109.935 175.121C110.071 174.707 110.289 174.324 110.576 173.996C113.706 170.366 116.926 166.796 120.396 163.496C122.456 161.496 125.396 162.426 126.646 165.116C127.596 167.256 128.266 169.516 129.016 171.736C129.896 174.309 130.75 176.882 131.576 179.456C131.854 180.219 132.045 181.01 132.146 181.816C132.289 182.63 132.124 183.468 131.685 184.168C131.245 184.868 130.562 185.381 129.766 185.606C128.977 185.839 128.13 185.785 127.377 185.451C126.624 185.118 126.014 184.528 125.656 183.786C125.154 182.726 124.733 181.629 124.396 180.506C123.516 177.976 122.656 175.446 121.756 172.836Z" fill="#3558A2"/>
<path d="M103.486 121.586C102.006 123.586 100.836 125.176 99.6163 126.736C99.0923 127.477 98.4775 128.149 97.7863 128.736C97.1755 129.223 96.4178 129.487 95.637 129.487C94.8563 129.487 94.0986 129.222 93.488 128.736C92.8773 128.249 92.4496 127.57 92.2749 126.809C92.1003 126.048 92.1889 125.25 92.5263 124.546C92.7408 124.048 93.0162 123.577 93.3462 123.146C95.8362 119.796 98.2862 116.426 100.856 113.146C103.586 109.636 107.216 110.146 108.736 114.266C110.256 118.386 111.426 122.346 112.736 126.406C112.912 127.109 112.983 127.833 112.946 128.556C112.971 129.245 112.762 129.922 112.353 130.478C111.945 131.033 111.361 131.434 110.696 131.616C110.021 131.92 109.258 131.964 108.552 131.738C107.847 131.513 107.25 131.035 106.876 130.396C106.147 129.055 105.535 127.653 105.046 126.206C104.506 124.836 104.106 123.446 103.486 121.586Z" fill="#3558A2"/>
<path d="M144.755 162.816C143.055 164.386 141.755 165.666 140.395 166.816C138.395 168.446 136.395 168.486 135.035 167.046C133.675 165.606 133.745 163.456 135.475 161.696C137.895 159.246 140.375 156.836 142.965 154.566C145.555 152.296 148.495 152.766 149.715 156.066C151.505 160.886 152.865 165.866 154.395 170.786C154.501 171.133 154.558 171.493 154.564 171.856C154.651 172.676 154.445 173.501 153.985 174.184C153.524 174.868 152.837 175.368 152.045 175.596C151.249 175.812 150.401 175.727 149.663 175.358C148.926 174.99 148.35 174.362 148.045 173.596C147.115 171.146 146.475 168.596 145.715 166.076C145.425 165.106 145.155 164.196 144.755 162.816Z" fill="#3558A2"/>
<path d="M124.235 111.708C122.885 113.228 121.885 114.528 120.705 115.628C119.945 116.338 118.905 117.208 118.005 117.198C116.78 117.12 115.62 116.618 114.725 115.778C114.223 115.287 113.932 114.621 113.911 113.92C113.891 113.219 114.143 112.537 114.615 112.018C117.195 108.868 119.815 105.718 122.615 102.818C124.255 101.158 126.615 101.578 128.095 103.488C128.993 104.626 129.721 105.89 130.255 107.238C131.465 110.458 132.495 113.738 133.595 116.998C133.693 117.254 133.766 117.518 133.815 117.788C134.009 118.635 133.893 119.524 133.488 120.293C133.082 121.062 132.414 121.66 131.605 121.978C130.779 122.269 129.874 122.236 129.071 121.888C128.268 121.539 127.626 120.9 127.275 120.098C126.495 118.478 126.005 116.708 125.385 115.008L124.235 111.708Z" fill="#3558A2"/>
<path d="M114.236 149.618C113.331 149.522 112.491 149.098 111.878 148.425C111.264 147.753 110.918 146.878 110.906 145.968C110.961 145.195 111.296 144.469 111.849 143.925C112.401 143.382 113.133 143.059 113.906 143.018C115.456 143.018 117.246 145.018 117.206 146.748C117.173 147.515 116.846 148.241 116.294 148.775C115.741 149.309 115.005 149.611 114.236 149.618Z" fill="white"/>
<path d="M140.234 137.377C140.251 137.781 140.185 138.184 140.041 138.562C139.898 138.94 139.68 139.285 139.399 139.576C139.119 139.868 138.783 140.099 138.411 140.258C138.039 140.416 137.639 140.497 137.234 140.497C136.852 140.519 136.468 140.462 136.108 140.332C135.747 140.201 135.417 139.999 135.136 139.738C134.856 139.476 134.632 139.16 134.477 138.81C134.322 138.459 134.239 138.08 134.234 137.697C134.229 136.873 134.548 136.079 135.122 135.488C135.697 134.897 136.48 134.555 137.304 134.537C137.685 134.523 138.065 134.587 138.42 134.724C138.776 134.861 139.1 135.068 139.374 135.333C139.648 135.598 139.865 135.916 140.013 136.267C140.161 136.618 140.236 136.996 140.234 137.377V137.377Z" fill="white"/>
<path d="M150.596 107.196C150.596 108.896 149.596 109.866 148.166 109.786C147.269 109.644 146.456 109.178 145.88 108.475C145.305 107.772 145.008 106.883 145.046 105.976C145.046 104.306 145.976 103.196 147.346 103.186C149.036 103.196 150.656 105.196 150.596 107.196Z" fill="white"/>
</svg>
