<svg width="300" height="300" viewBox="0 0 300 300" fill="none" xmlns="http://www.w3.org/2000/svg">
<path d="M36 226.003C36.71 221.653 37.32 217.803 38 214.003C39.7533 203.556 41.51 193.109 43.27 182.663C44.9634 172.563 46.6566 162.466 48.35 152.372C50.2766 141.039 52.2167 129.706 54.17 118.372C54.45 116.772 54.75 115.162 55.11 113.572C55.2181 112.747 55.6149 111.988 56.23 111.427C56.845 110.867 57.6386 110.543 58.47 110.512C60.3429 110.282 62.237 110.282 64.11 110.512C83.07 114.206 102.013 117.959 120.94 121.772L176.35 132.902C187.27 135.102 198.187 137.306 209.1 139.512C209.98 139.692 210.89 139.762 211.78 139.892C212.216 139.903 212.645 140 213.042 140.179C213.439 140.358 213.796 140.616 214.092 140.936C214.388 141.256 214.616 141.632 214.763 142.042C214.911 142.452 214.974 142.887 214.95 143.322C214.998 144.228 214.951 145.137 214.81 146.033C211.99 163.959 209.16 181.886 206.32 199.813C203.553 217.279 200.773 234.753 197.98 252.233C197.4 255.893 195.16 257.713 191.55 257.113C176.437 254.633 161.327 252.126 146.22 249.593C128.613 246.633 111.003 243.656 93.39 240.663C76.5 237.793 59.62 234.853 42.73 231.993C40.5042 231.49 38.4927 230.301 36.98 228.593C36.28 227.863 36.2 226.593 36 226.003ZM124.93 198.313C127.53 199.683 129.78 200.843 132.02 202.043C132.818 202.486 133.508 203.101 134.041 203.843C134.573 204.584 134.935 205.435 135.1 206.333C135.208 206.821 135.212 207.328 135.111 207.818C135.01 208.308 134.807 208.772 134.514 209.178C134.221 209.584 133.846 209.923 133.413 210.174C132.979 210.425 132.498 210.581 132 210.633C131.322 210.749 130.625 210.68 129.983 210.433C129.341 210.187 128.777 209.772 128.35 209.233C127.068 207.807 125.454 206.721 123.65 206.073L118.46 237.333L190.78 249.663C196.32 215.243 201.78 181.003 207.35 146.663L136.12 132.232C135.12 136.232 131.76 155.012 132.25 156.982C133.378 157.576 134.429 158.304 135.38 159.153C136.793 160.652 138.001 162.334 138.97 164.153C139.329 164.904 139.398 165.761 139.163 166.561C138.929 167.36 138.408 168.044 137.7 168.483C137.104 168.892 136.39 169.095 135.668 169.061C134.946 169.027 134.255 168.757 133.7 168.293C133.134 167.715 132.619 167.089 132.16 166.423C131.73 165.933 131.28 165.423 130.56 164.673L128.24 178.673C128.88 179.033 129.24 179.273 129.66 179.463C132.79 180.943 134.59 183.663 136.1 186.603C136.529 187.366 136.665 188.261 136.481 189.117C136.296 189.973 135.805 190.733 135.1 191.253C134.339 191.758 133.418 191.966 132.514 191.835C131.61 191.704 130.786 191.244 130.2 190.543C129.53 189.813 129.05 188.913 128.44 188.123C128.08 187.673 127.65 187.273 126.9 186.483L124.93 198.313ZM43.6801 224.623L111.2 236.083C112.9 225.823 114.54 215.933 116.2 206.083C111.93 204.493 110.76 203.403 111.2 201.283C111.86 197.793 114.82 198.363 117.53 198.073C118.22 193.923 118.91 189.793 119.62 185.553C118.62 185.553 118.04 185.553 117.41 185.553C115.08 185.383 113.6 184.113 113.41 182.193C113.22 180.273 114.47 178.803 116.83 178.303C118.06 178.043 119.33 177.993 120.83 177.823C121.58 173.233 122.32 168.652 123.1 163.822C121.71 164.132 120.76 164.402 119.78 164.562C118.89 164.784 117.949 164.66 117.147 164.214C116.345 163.769 115.742 163.036 115.46 162.163C114.89 160.443 115.75 158.672 117.75 157.802C118.928 157.348 120.142 156.994 121.38 156.743C122.38 156.513 123.31 156.373 124.38 156.173C125.81 147.693 127.23 139.313 128.69 130.672L61.6 116.902C55.63 152.863 49.6801 188.623 43.6801 224.623Z" fill="#3558A2"/>
<path d="M134.699 56.8612C138.899 55.6712 142.699 54.5413 146.569 53.5113C149.831 52.5888 153.299 52.6935 156.499 53.8113C158.419 54.4011 160.154 55.4757 161.538 56.9312C162.922 58.3867 163.907 60.1742 164.399 62.1212C164.707 63.4368 164.707 64.8057 164.399 66.1212C164.257 66.8954 163.828 67.5873 163.198 68.0584C162.567 68.5294 161.782 68.7448 160.999 68.6613C160.217 68.6588 159.461 68.3775 158.867 67.868C158.273 67.3586 157.88 66.6542 157.759 65.8812C157.509 63.9712 156.939 62.3613 155.269 61.2913C154.375 60.7595 153.385 60.4097 152.355 60.2621C151.325 60.1145 150.277 60.1719 149.269 60.4312C145.942 60.9246 142.704 61.9016 139.659 63.3312C141.249 64.9912 142.659 66.4812 144.099 67.9912C147.026 71.0845 149.953 74.1812 152.879 77.2812C153.994 78.7105 155.477 79.8096 157.169 80.4612C164.469 82.7311 169.259 87.4611 170.269 95.2211C171.339 103.341 168.269 109.891 161.489 114.441C157.537 117.216 152.657 118.337 147.889 117.566C143.122 116.794 138.845 114.191 135.969 110.311C134.005 107.559 132.861 104.307 132.669 100.931C132.634 100.094 132.413 99.2751 132.023 98.5335C131.633 97.7918 131.084 97.1458 130.415 96.6419C129.745 96.138 128.972 95.7887 128.152 95.6191C127.331 95.4495 126.484 95.4639 125.669 95.6612C125.039 95.7812 124.429 95.9811 123.809 96.1111C123.053 96.2413 122.348 96.5812 121.775 97.0921C121.202 97.603 120.785 98.2644 120.569 99.0011C119.594 101.851 117.987 104.443 115.869 106.585C113.752 108.727 111.178 110.363 108.339 111.371C105.494 112.505 102.414 112.922 99.3693 112.586C96.3249 112.25 93.4097 111.172 90.8797 109.446C88.3496 107.72 86.2823 105.399 84.8594 102.686C83.4365 99.9741 82.7015 96.9539 82.7191 93.8912C82.6568 89.808 83.8397 85.8026 86.1103 82.4084C88.3808 79.0142 91.6314 76.3921 95.4292 74.8912C100.539 72.8912 105.209 70.1612 110.189 67.9812C115.169 65.8012 119.949 63.5812 124.829 61.3812L127.829 60.0012C126.939 58.5712 126.189 57.2513 125.329 56.0013C124.469 54.7513 123.639 53.8612 122.819 52.7812C120.899 50.2412 118.609 49.6213 115.689 50.9313C114.949 51.2613 114.269 51.7513 113.519 52.0513C112.808 52.3704 112.012 52.4453 111.254 52.2644C110.496 52.0836 109.819 51.657 109.329 51.0513C108.862 50.4303 108.602 49.6789 108.584 48.9023C108.566 48.1258 108.792 47.3631 109.229 46.7213C109.43 46.4157 109.668 46.1369 109.939 45.8913C114.429 41.8913 123.689 41.9713 127.309 46.5713C129.499 49.3413 131.469 52.2812 133.529 55.1512C133.909 55.7012 134.319 56.2912 134.699 56.8612ZM90.0791 92.8611C90.0791 99.8611 94.1392 104.641 100.189 105.271C108.509 106.141 115.819 98.2711 114.299 90.0611C113.879 87.7511 113.209 85.5011 111.299 83.8311C107.359 80.3711 102.949 79.5612 98.1792 81.6312C95.9123 82.5327 93.9478 84.0591 92.5139 86.0328C91.0801 88.0065 90.2358 90.3466 90.0791 92.7812V92.8611ZM121.679 88.7311C123.979 88.5512 126.159 88.0512 128.259 88.2912C130.359 88.5312 132.509 89.5212 134.859 90.2912C137.289 85.9712 141.089 82.8812 146.159 80.6212C141.449 75.3812 136.539 71.0313 131.979 66.2913C125.289 69.2913 118.659 71.6813 112.139 75.2912C116.867 78.4062 120.268 83.1682 121.679 88.6512V88.7311ZM163.139 98.3111C163.139 90.4011 156.449 85.3112 148.889 87.6212C147.043 88.1458 145.343 89.089 143.921 90.3776C142.498 91.6663 141.393 93.2655 140.689 95.0511C138.269 100.831 140.879 107.491 146.319 109.701C153.949 112.721 163.119 106.511 163.139 98.2311V98.3111Z" fill="#3558A2"/>
<path d="M253.39 173.462C253.39 174.362 253.39 175.252 253.39 176.142C253.39 187.202 253.426 198.269 253.5 209.342C253.5 210.072 253.5 210.792 253.5 211.522C253.35 214.792 251.95 216.322 248.68 216.592C245.41 216.862 241.98 217.032 238.68 217.222C237.33 217.302 235.96 217.372 234.6 217.342C234.051 217.38 233.501 217.305 232.983 217.122C232.465 216.938 231.99 216.65 231.588 216.274C231.187 215.899 230.867 215.445 230.648 214.94C230.43 214.436 230.318 213.892 230.32 213.342C230.24 212.622 230.32 211.892 230.32 211.172C230.12 196.652 229.916 182.139 229.71 167.632C229.755 167.361 229.755 167.083 229.71 166.812C228.41 163.122 230.04 159.912 231.34 156.632C232.87 152.762 234.34 148.852 235.89 145.002C236.534 143.403 237.37 141.889 238.38 140.492C240.8 137.202 244.5 137.272 246.62 140.772C248.35 143.622 249.62 146.772 251.15 149.772C251.519 150.596 251.943 151.395 252.42 152.162C257.97 160.162 260.55 169.512 263.87 178.512C264.086 179.203 264.167 179.93 264.11 180.652C264.132 181.386 263.908 182.105 263.472 182.696C263.037 183.287 262.417 183.715 261.71 183.912C260.969 184.137 260.174 184.11 259.45 183.835C258.726 183.559 258.114 183.052 257.71 182.392C257.224 181.523 256.826 180.609 256.52 179.662C255.73 177.572 254.99 175.462 254.22 173.362L253.39 173.462ZM237.49 209.852L245.83 209.442V168.322L236.83 166.982C237.04 181.392 237.26 195.492 237.48 209.862L237.49 209.852ZM249.17 161.402L242.17 148.552L238.02 159.732L249.17 161.402Z" fill="#3558A2"/>
<path d="M124.93 198.31L126.93 186.48C127.68 187.27 128.11 187.67 128.47 188.12C129.08 188.91 129.56 189.81 130.23 190.54C130.816 191.241 131.64 191.701 132.545 191.832C133.449 191.963 134.369 191.756 135.13 191.25C135.836 190.731 136.327 189.971 136.511 189.115C136.695 188.258 136.56 187.364 136.13 186.6C134.62 183.66 132.82 180.94 129.69 179.46C129.28 179.27 128.91 179.03 128.27 178.67L130.59 164.67C131.31 165.46 131.76 165.93 132.19 166.42C132.649 167.087 133.164 167.713 133.73 168.29C134.285 168.755 134.976 169.025 135.698 169.059C136.421 169.093 137.134 168.89 137.73 168.48C138.438 168.042 138.959 167.358 139.194 166.558C139.428 165.759 139.359 164.902 139 164.15C138.031 162.332 136.824 160.65 135.41 159.15C134.459 158.302 133.408 157.574 132.28 156.98C131.79 154.98 135.15 136.22 136.15 132.23L207.38 146.661C201.85 181.05 196.38 215.29 190.81 249.66L118.49 237.33L123.68 206.07C125.484 206.719 127.099 207.805 128.38 209.23C128.807 209.77 129.371 210.185 130.013 210.431C130.655 210.678 131.352 210.746 132.03 210.63C132.528 210.579 133.01 210.423 133.443 210.172C133.876 209.921 134.251 209.581 134.544 209.175C134.837 208.769 135.04 208.306 135.141 207.816C135.242 207.325 135.239 206.819 135.13 206.33C134.965 205.432 134.603 204.582 134.071 203.841C133.538 203.099 132.848 202.484 132.05 202.04C129.78 200.86 127.53 199.68 124.93 198.31ZM149.35 184.37V184.59C148.808 184.55 148.263 184.55 147.72 184.59C146.992 184.663 146.306 184.969 145.766 185.463C145.225 185.957 144.859 186.612 144.72 187.33C144.569 188.047 144.662 188.794 144.984 189.452C145.307 190.11 145.841 190.641 146.5 190.96C147.132 191.28 147.805 191.509 148.5 191.64C156.19 193.26 163.87 194.91 171.58 196.44C175.21 197.15 178.88 197.72 182.58 198.13C183.01 198.198 183.45 198.18 183.872 198.075C184.295 197.971 184.693 197.784 185.042 197.524C185.391 197.264 185.685 196.937 185.906 196.562C186.127 196.187 186.272 195.772 186.33 195.34C186.459 194.482 186.285 193.605 185.838 192.86C185.391 192.116 184.699 191.55 183.88 191.26C183.114 190.986 182.324 190.782 181.52 190.65C175.23 189.43 168.93 188.23 162.64 187L149.35 184.37ZM159.18 171.48C156.18 171.38 154.67 172.35 154.32 174.31C153.97 176.27 155.09 177.97 157.52 178.57C159.19 178.98 160.89 179.24 162.58 179.57C168.58 180.82 174.72 181.49 180.46 183.87C181.225 184.194 182.083 184.228 182.871 183.965C183.659 183.701 184.324 183.159 184.74 182.44C185.181 181.741 185.361 180.909 185.25 180.09C185.138 179.27 184.742 178.517 184.13 177.96C182.951 177.007 181.59 176.302 180.13 175.89C176.13 174.89 172.04 173.99 167.97 173.13C164.85 172.5 161.73 171.96 159.18 171.48ZM169.48 220.1C170.655 219.996 171.819 219.796 172.96 219.5C173.704 219.266 174.342 218.778 174.764 218.123C175.186 217.467 175.365 216.684 175.27 215.91C175.253 215.179 174.997 214.472 174.542 213.899C174.088 213.325 173.459 212.915 172.75 212.73C172.049 212.563 171.331 212.476 170.61 212.47C168.09 212.21 165.61 212.04 163.06 211.66C159.75 211.16 156.48 210.42 153.17 209.92C151.473 209.666 149.756 209.565 148.04 209.62C147.349 209.64 146.687 209.897 146.164 210.349C145.641 210.801 145.29 211.42 145.17 212.1C144.931 212.75 144.924 213.462 145.15 214.117C145.376 214.771 145.821 215.327 146.41 215.69C147.243 216.209 148.166 216.565 149.13 216.74C153.13 217.49 157.13 218.16 161.13 218.83C163.93 219.29 166.7 219.68 169.48 220.1V220.1ZM167.07 164.1C169.13 163.94 170.19 163.56 171 162.46C172.64 160.26 171.29 157.52 168.32 156.77C163.25 155.48 158.21 154.09 153.15 152.77C152.462 152.563 151.755 152.419 151.04 152.34C150.356 152.268 149.666 152.412 149.069 152.753C148.471 153.094 147.996 153.615 147.71 154.24C147.345 154.884 147.214 155.635 147.34 156.364C147.466 157.093 147.84 157.756 148.4 158.24C149.188 158.971 150.117 159.533 151.13 159.89C153.78 160.78 156.47 161.57 159.13 162.29C161.79 163.01 164.39 163.49 167.07 164.11V164.1Z" fill="white"/>
<path d="M43.6797 224.622C49.6797 188.622 55.6797 152.902 61.6797 116.912L128.77 130.682C127.31 139.322 125.89 147.682 124.46 156.182C123.38 156.382 122.4 156.522 121.46 156.752C120.222 157.003 119.008 157.358 117.83 157.812C115.83 158.682 114.97 160.452 115.54 162.172C115.822 163.045 116.425 163.778 117.226 164.224C118.028 164.669 118.969 164.794 119.86 164.572C120.86 164.412 121.79 164.142 123.18 163.832C122.4 168.642 121.66 173.222 120.91 177.832C119.38 178.002 118.11 178.052 116.91 178.312C114.55 178.812 113.35 180.252 113.49 182.202C113.63 184.152 115.11 185.392 117.49 185.562C118.12 185.562 118.74 185.562 119.7 185.562C118.99 189.802 118.3 193.932 117.61 198.082C114.9 198.372 111.94 197.802 111.28 201.292C110.88 203.412 112.05 204.502 116.28 206.092C114.64 215.942 113 225.832 111.28 236.092L43.6797 224.622ZM63.2596 185.212C60.7696 185.072 59.0197 186.282 58.6997 188.282C58.4197 190.102 59.6997 191.842 61.8197 192.462C62.871 192.746 63.9399 192.96 65.0197 193.102C74.0197 194.582 83.0196 196.002 92.0796 197.542C94.2096 197.902 96.2796 198.602 98.3596 199.172C100.44 199.742 102.26 199.172 103.07 197.552C103.88 195.932 103.32 193.892 101.41 192.652C100.649 192.165 99.8291 191.779 98.9696 191.502C97.8541 191.123 96.7107 190.832 95.5497 190.632C88.7597 189.522 81.9597 188.482 75.1797 187.362C71.1597 186.702 67.1596 185.922 63.2596 185.212ZM74.1697 148.212V148.672C72.4546 148.567 70.7347 148.567 69.0197 148.672C68.1046 148.761 67.2591 149.199 66.6593 149.896C66.0595 150.593 65.7516 151.494 65.7997 152.412C65.8982 153.277 66.3055 154.076 66.9468 154.664C67.588 155.252 68.42 155.589 69.2897 155.612C69.9197 155.682 70.5597 155.612 71.1897 155.682C76.5897 156.162 81.9997 156.582 87.3997 157.152C91.1697 157.542 94.9197 158.232 98.6897 158.642C100.682 158.868 102.69 158.911 104.69 158.772C105.519 158.722 106.298 158.36 106.871 157.759C107.444 157.158 107.769 156.362 107.78 155.532C107.866 154.712 107.652 153.888 107.178 153.213C106.704 152.538 106.001 152.058 105.2 151.862C103.961 151.599 102.704 151.432 101.44 151.362C99.6497 151.192 97.8297 151.142 96.0397 150.922C88.6897 150.082 81.3897 149.142 74.1697 148.222V148.212ZM77.9896 165.292V165.592C76.8147 165.502 75.6345 165.502 74.4596 165.592C73.6265 165.721 72.8681 166.147 72.3237 166.791C71.7794 167.435 71.4856 168.253 71.4966 169.096C71.5075 169.939 71.8224 170.75 72.3833 171.379C72.9442 172.009 73.7135 172.415 74.5497 172.522C74.9997 172.602 75.4597 172.602 75.9097 172.642C80.9097 173.132 86.0097 173.582 91.0597 174.112C94.2997 174.442 97.5197 174.972 100.77 175.242C103.23 175.432 104.84 174.102 105.04 172.052C105.24 170.002 104.04 168.592 101.75 168.112C100.07 167.752 98.3496 167.582 96.6396 167.382C90.3896 166.702 84.1996 166.012 77.9896 165.302V165.292Z" fill="#EAECF1"/>
<path d="M90.0802 92.7827C90.2213 90.3353 91.0574 87.9788 92.4903 85.9897C93.9232 84.0006 95.8936 82.4614 98.1703 81.5525C102.94 79.4825 107.35 80.2926 111.29 83.7526C113.21 85.4226 113.88 87.6726 114.29 89.9826C115.81 98.2327 108.5 106.063 100.18 105.193C94.1403 104.563 90.0502 99.8627 90.0802 92.7827Z" fill="white"/>
<path d="M163.14 98.231C163.14 106.511 153.95 112.721 146.32 109.621C140.88 107.411 138.32 100.751 140.69 94.971C141.394 93.1854 142.499 91.5861 143.921 90.2975C145.344 89.0089 147.044 88.0656 148.89 87.541C156.45 85.251 163.16 90.321 163.14 98.231Z" fill="white"/>
<path d="M237.48 209.862C237.26 195.502 237.04 181.402 236.82 166.992L245.82 168.332V209.452L237.48 209.862Z" fill="white"/>
<path d="M249.16 161.401L238.01 159.731L242.16 148.551L249.16 161.401Z" fill="#979FBB"/>
<path d="M149.39 184.371L162.68 187.011C168.97 188.241 175.27 189.441 181.56 190.661C182.364 190.792 183.154 190.997 183.92 191.271C184.739 191.561 185.431 192.127 185.878 192.871C186.325 193.616 186.499 194.492 186.37 195.351C186.312 195.783 186.168 196.198 185.946 196.573C185.725 196.948 185.431 197.275 185.082 197.535C184.733 197.795 184.335 197.982 183.912 198.086C183.49 198.19 183.05 198.209 182.62 198.141C178.94 197.731 175.27 197.141 171.62 196.451C163.91 194.921 156.23 193.271 148.54 191.651C147.845 191.519 147.172 191.291 146.54 190.971C145.881 190.652 145.347 190.121 145.025 189.463C144.702 188.805 144.609 188.058 144.76 187.341C144.899 186.622 145.265 185.967 145.806 185.474C146.347 184.98 147.032 184.674 147.76 184.601C148.303 184.561 148.848 184.561 149.39 184.601V184.371Z" fill="#3558A2"/>
<path d="M159.179 171.482C161.729 171.962 164.849 172.482 167.939 173.152C172.009 174.012 176.079 174.862 180.099 175.912C181.559 176.324 182.92 177.029 184.099 177.982C184.711 178.538 185.107 179.292 185.218 180.111C185.33 180.931 185.15 181.763 184.709 182.462C184.292 183.181 183.628 183.723 182.839 183.986C182.051 184.25 181.194 184.216 180.429 183.892C174.689 181.512 168.549 180.892 162.549 179.592C160.859 179.242 159.159 178.982 157.489 178.592C155.059 177.992 153.919 176.412 154.289 174.332C154.659 172.252 156.129 171.382 159.179 171.482Z" fill="#3558A2"/>
<path d="M169.48 220.102C166.7 219.682 163.93 219.292 161.16 218.832C157.16 218.162 153.16 217.492 149.16 216.742C148.196 216.566 147.273 216.21 146.44 215.692C145.851 215.328 145.406 214.772 145.18 214.118C144.954 213.464 144.961 212.751 145.2 212.102C145.32 211.421 145.671 210.803 146.194 210.351C146.717 209.899 147.38 209.642 148.07 209.622C149.786 209.567 151.503 209.668 153.2 209.922C156.51 210.422 159.78 211.162 163.09 211.662C165.59 212.042 168.09 212.212 170.64 212.472C171.361 212.477 172.079 212.564 172.78 212.732C173.489 212.916 174.118 213.326 174.573 213.9C175.027 214.474 175.283 215.18 175.3 215.912C175.395 216.686 175.216 217.468 174.794 218.124C174.372 218.78 173.734 219.267 172.99 219.502C171.839 219.799 170.665 219.999 169.48 220.102Z" fill="#3558A2"/>
<path d="M167.071 164.112C164.431 163.492 161.791 162.942 159.171 162.252C156.551 161.562 153.781 160.742 151.171 159.852C150.158 159.494 149.229 158.932 148.441 158.202C147.881 157.717 147.506 157.054 147.381 156.325C147.255 155.596 147.386 154.845 147.751 154.202C148.037 153.576 148.512 153.055 149.109 152.714C149.707 152.373 150.397 152.229 151.081 152.302C151.796 152.38 152.502 152.524 153.191 152.732C158.251 154.072 163.291 155.462 168.361 156.732C171.361 157.482 172.681 160.222 171.041 162.422C170.191 163.572 169.131 163.952 167.071 164.112Z" fill="#3558A2"/>
<path d="M63.261 185.212C67.161 185.922 71.161 186.702 75.181 187.362C81.961 188.482 88.761 189.522 95.551 190.632C96.712 190.832 97.8554 191.123 98.9709 191.502C99.8305 191.779 100.651 192.165 101.411 192.652C103.321 193.892 103.931 195.822 103.071 197.552C102.211 199.282 100.471 199.762 98.361 199.172C96.251 198.582 94.2109 197.902 92.0809 197.542C83.0809 196.002 74.081 194.542 65.021 193.102C63.9413 192.96 62.8723 192.746 61.821 192.462C59.671 191.842 58.421 190.102 58.701 188.282C59.021 186.282 60.771 185.072 63.261 185.212Z" fill="#3558A2"/>
<path d="M74.1701 148.223C81.4301 149.143 88.6901 150.083 95.9501 150.973C97.7401 151.193 99.56 151.243 101.35 151.413C102.614 151.483 103.871 151.65 105.11 151.913C105.911 152.109 106.614 152.589 107.089 153.264C107.563 153.939 107.777 154.763 107.69 155.583C107.679 156.413 107.354 157.209 106.781 157.81C106.208 158.411 105.429 158.773 104.6 158.823C102.6 158.962 100.592 158.918 98.6 158.693C94.83 158.283 91.0801 157.593 87.3101 157.203C81.9101 156.633 76.5 156.203 71.1 155.733C70.47 155.733 69.8301 155.733 69.2001 155.663C68.3304 155.64 67.4983 155.303 66.8571 154.715C66.2158 154.127 65.8085 153.327 65.71 152.463C65.6619 151.545 65.9699 150.643 66.5697 149.947C67.1695 149.25 68.015 148.812 68.9301 148.723C70.6451 148.618 72.3649 148.618 74.08 148.723L74.1701 148.223Z" fill="#3558A2"/>
<path d="M77.9902 165.301C84.2002 166.011 90.4102 166.701 96.6102 167.421C98.3202 167.621 100.04 167.791 101.72 168.151C104.02 168.631 105.21 170.151 105.01 172.091C104.81 174.031 103.2 175.471 100.74 175.281C97.4902 175.011 94.2702 174.481 91.0302 174.151C85.9802 173.621 80.9302 173.151 75.8802 172.681C75.4302 172.681 74.9702 172.681 74.5202 172.561C73.684 172.453 72.9147 172.048 72.3538 171.418C71.7929 170.789 71.478 169.978 71.4671 169.135C71.4561 168.292 71.7499 167.473 72.2942 166.829C72.8386 166.186 73.5971 165.76 74.4302 165.631C75.6052 165.541 76.7852 165.541 77.9601 165.631L77.9902 165.301Z" fill="#3558A2"/>
</svg>
