<svg width="300" height="300" viewBox="0 0 300 300" fill="none" xmlns="http://www.w3.org/2000/svg">
<path d="M145.605 96.9549C145.605 95.9549 145.605 95.1149 145.605 94.2349C144.798 77.1816 143.978 60.1349 143.145 43.0949C143.065 41.4549 142.995 39.8249 143.045 38.1849C143.145 35.0749 145.365 33.3249 148.375 34.2449C150.157 34.8509 151.842 35.7133 153.375 36.8049C157.311 39.5972 160.7 43.0885 163.375 47.1049C167.278 52.8352 172.488 57.5551 178.575 60.8749C182.665 63.0849 184.355 66.3649 184.325 70.8749C184.325 74.1349 184.515 77.4049 184.535 80.6749C184.535 85.0149 182.635 86.8949 178.255 87.1149C171.575 87.4649 165.535 85.4949 159.855 82.1849C158.285 81.2649 156.785 80.2349 155.225 79.3149C154.395 78.8149 153.495 78.4449 152.145 77.7749C152.455 84.1049 152.735 89.9449 153.025 95.9249C154.025 95.9749 154.695 96.0349 155.395 96.0349C174.475 96.2249 193.455 94.2449 212.475 93.3249C226.265 92.6549 240.045 91.8449 253.825 91.0149C259.165 90.6949 264.495 90.1049 269.825 89.6649C272.995 89.4049 276.165 89.1649 279.335 88.9749C280.24 88.9145 281.15 88.9852 282.035 89.1849C282.653 89.3292 283.232 89.6073 283.73 89.9994C284.229 90.3915 284.636 90.8883 284.922 91.4546C285.208 92.0209 285.366 92.643 285.386 93.2772C285.405 93.9113 285.286 94.542 285.035 95.1249C284.633 96.0394 284.161 96.922 283.625 97.7649C280.485 103.075 277.345 108.405 274.155 113.685C273.768 114.267 273.508 114.924 273.391 115.613C273.274 116.302 273.303 117.008 273.475 117.685C274.125 120.775 274.075 124.005 274.575 127.135C277.915 148.135 278.965 169.335 281.235 190.435C283.045 207.215 284.545 224.035 286.115 240.845C286.555 245.465 284.975 247.285 280.255 247.845C276.105 248.285 271.935 248.585 267.775 248.915L212.635 253.205C202.415 253.995 192.175 254.745 181.945 255.535C166.375 256.755 150.815 258.015 135.235 259.225C125.375 259.995 115.505 260.715 105.635 261.485L58.105 265.205C55.845 265.385 53.5849 265.605 51.3149 265.735C50.5032 265.763 49.691 265.696 48.895 265.535C47.8928 265.432 46.9616 264.971 46.2726 264.236C45.5835 263.501 45.1831 262.542 45.145 261.535C44.715 257.385 44.145 253.235 43.755 249.085C41.6016 228.225 39.4649 207.365 37.3449 186.505C35.9649 172.955 34.655 159.405 33.275 145.865C32.835 141.525 32.2749 137.205 31.6949 132.865C31.4887 131.806 31.0135 130.817 30.3149 129.995C25.5749 123.995 20.7916 118.052 15.9649 112.165C14.6549 110.555 13.3849 108.925 14.3249 106.785C15.2649 104.645 17.3249 103.725 19.6549 103.685C23.8349 103.605 28.0149 103.685 32.1949 103.475C39.9949 103.165 47.7949 102.775 55.5849 102.355C65.3749 101.825 75.1649 101.235 84.9649 100.685C100.825 99.7983 116.688 98.9083 132.555 98.0149C136.185 97.8149 139.805 97.5449 143.425 97.2849C144.135 97.2149 144.745 97.0849 145.605 96.9549ZM127.285 253.345C130.565 253.345 133.625 253.345 136.685 253.345C139.305 253.345 139.985 252.455 139.835 249.815C138.875 233.148 137.918 216.482 136.965 199.815C136.675 194.815 136.545 189.815 135.965 184.875C135.23 177.654 135.23 170.376 135.965 163.155C136.371 158.167 138.007 153.357 140.725 149.155C143.228 145.388 146.839 142.49 151.059 140.862C155.279 139.234 159.9 138.955 164.285 140.065C166.935 140.785 169.545 141.765 171.425 143.835C176.245 149.145 180.275 154.925 181.015 162.355C181.935 171.655 182.845 180.955 183.685 190.255C185.195 207.165 186.635 224.075 188.115 240.975C188.315 243.305 188.545 245.625 188.785 248.315C194.085 247.545 199.375 249.125 204.705 246.765C200.705 207.115 196.705 167.515 192.705 127.705C191.215 127.47 189.712 127.323 188.205 127.265C181.045 127.425 173.875 127.595 166.715 127.915C158.285 128.295 149.865 128.915 141.435 129.265C136.905 129.465 132.375 129.355 127.845 129.395C125.065 129.395 122.225 129.095 119.695 130.875C119.61 131.317 119.56 131.765 119.545 132.215C121.832 170.795 124.132 209.382 126.445 247.975C126.565 249.575 126.965 251.255 127.285 253.345ZM276.705 95.9749C274.945 96.0549 273.705 96.0449 272.495 96.1749C268.495 96.5949 264.575 97.1749 260.605 97.4849C253.085 97.9949 245.605 98.2949 238.025 98.7149C216.098 99.9549 194.162 101.212 172.215 102.485C164.705 102.935 157.215 103.585 149.685 104.045C145.065 104.325 140.435 104.335 135.815 104.585C116.595 105.652 97.375 106.742 78.155 107.855C66.365 108.525 54.5849 109.245 42.7949 109.855C38.5449 110.085 34.285 110.115 30.035 110.255C28.035 110.315 26.1449 110.395 23.9349 110.485C24.1143 110.966 24.3351 111.432 24.5949 111.875C28.4049 116.615 32.245 121.335 36.035 126.095C36.4885 126.654 37.0814 127.083 37.7539 127.339C38.4263 127.596 39.1546 127.67 39.865 127.555C54.105 126.788 68.3416 126.048 82.5749 125.335C91.0949 124.905 99.575 124.535 108.145 124.055C125.005 123.105 141.855 122.055 158.725 121.125C177.495 120.125 196.265 119.295 215.035 118.365C230.455 117.605 245.865 116.725 261.295 116.075C264.195 115.945 266.425 115.545 267.155 112.345C267.292 112.01 267.477 111.697 267.705 111.415C270.165 107.275 272.622 103.138 275.075 99.0049C275.565 98.1549 275.985 97.2849 276.705 95.9249V95.9749ZM65.7049 133.025C65.3049 136.405 76.075 254.505 76.985 256.925L97.0549 255.345C97.3308 253.022 97.4478 250.684 97.405 248.345C95.525 227.925 93.5349 207.505 91.5849 187.085C89.9649 170.092 88.3483 153.092 86.735 136.085C86.605 134.765 86.335 133.455 86.115 131.975L65.7049 133.025ZM228.005 124.535C227.911 126.3 227.911 128.07 228.005 129.835C229.385 144.748 230.798 159.652 232.245 174.545C234.405 196.945 236.575 219.342 238.755 241.735C238.835 242.515 238.995 243.295 239.105 243.995C242.535 244.375 251.295 243.555 253.485 242.635C250.398 203.108 247.338 163.452 244.305 123.665L228.005 124.535ZM201.355 145.605C204.255 174.275 207.115 202.605 210.015 231.215L230.655 228.795C227.905 200.195 225.185 171.885 222.435 143.235L201.355 145.605ZM68.125 243.735C68.465 239.735 60.545 154.315 59.665 152.185L40.8349 153.285C44.2049 184.115 46.955 214.585 50.355 245.175L68.125 243.735ZM119.125 239.565C117.295 209.085 115.595 179.075 113.685 148.765C107.245 149.495 101.125 149.395 95.145 150.445C94.955 154.175 103.255 238.995 104.045 241.065L119.125 239.565ZM259.025 227.095C262.275 226.835 265.145 226.635 268.025 226.355C270.555 226.115 273.095 225.905 275.585 225.465C277.785 225.075 277.875 224.785 277.655 222.465C276.575 211.272 275.488 200.082 274.395 188.895C272.915 173.455 271.438 158.018 269.965 142.585C269.895 141.805 269.715 141.045 269.535 140.015C263.765 140.885 258.185 141.165 252.535 142.405C254.705 170.645 256.855 198.655 259.025 227.045V227.095ZM161.935 250.335C162.105 244.955 159.685 221.825 158.815 219.875C157.744 219.835 156.675 219.735 155.615 219.575C154.791 219.475 154.034 219.069 153.495 218.438C152.956 217.806 152.674 216.995 152.705 216.165C152.765 214.465 153.915 213.305 155.865 213.025C156.715 212.905 157.585 212.835 158.675 212.725C157.485 199.435 156.315 186.475 155.115 173.245L142.255 174.565C143.025 187.695 143.935 200.445 144.485 213.215C145.185 229.645 146.485 249.535 147.345 251.525L161.935 250.335ZM175.305 171.195L161.685 172.345C162.975 185.795 164.245 198.935 165.495 212.025C170.215 212.025 171.495 212.565 171.765 214.665C172.035 216.765 170.705 218.145 166.155 219.525C167.075 229.415 167.995 239.385 168.945 249.685L181.945 248.685C179.745 222.825 177.545 197.275 175.305 171.145V171.195ZM174.235 164.365C174.314 163.939 174.354 163.508 174.355 163.075C173.705 157.295 170.545 152.805 166.775 148.675C166.066 147.973 165.208 147.44 164.265 147.115C161.904 146.125 159.318 145.794 156.784 146.159C154.249 146.523 151.861 147.569 149.875 149.185C144.015 153.745 142.725 160.335 142.535 167.765L174.235 164.365ZM150.855 44.1849C150.752 44.7736 150.685 45.3681 150.655 45.9649C151.015 53.3949 151.395 60.8149 151.725 68.2349C151.725 69.4249 152.405 69.9049 153.395 70.3949C156.635 71.9949 159.785 73.7849 163.025 75.3949C165.68 76.7441 168.403 77.9525 171.185 79.0149C173.139 79.7682 175.272 79.9248 177.315 79.4649C177.175 76.6349 176.895 73.9349 176.955 71.2549C176.955 69.0249 175.955 67.8649 174.135 66.8049C167.728 63.16 162.206 58.1436 157.965 52.1149C156.512 50.1485 154.953 48.2624 153.295 46.4649C152.523 45.6621 151.708 44.9011 150.855 44.1849V44.1849ZM199.985 126.865C199.485 129.315 200.215 136.325 201.195 138.685C207.945 138.025 214.745 137.395 221.655 136.285C221.355 132.545 221.355 129.145 220.465 125.925C213.365 125.285 206.655 126.195 199.995 126.865H199.985ZM59.625 145.345C59.225 141.185 58.865 137.445 58.515 133.775C54.915 133.255 41.3149 134.065 39.0949 134.975L40.1749 146.465L59.625 145.345ZM112.555 130.785H95.2149C94.9868 130.766 94.7573 130.796 94.5417 130.873C94.3262 130.95 94.1296 131.072 93.9649 131.231C93.8003 131.39 93.6714 131.583 93.5869 131.795C93.5024 132.008 93.4642 132.236 93.475 132.465C93.3564 136.155 93.6652 139.846 94.395 143.465C100.815 142.855 107.015 142.785 113.245 141.835C113.135 139.465 113.045 137.395 112.915 135.325C112.855 133.875 112.685 132.435 112.555 130.785ZM232.125 244.505C231.835 241.625 231.555 238.705 231.265 235.835C226.865 235.605 212.795 237.455 210.835 238.505C211.005 241.505 210.995 244.505 212.385 247.295C219.075 246.965 225.535 246.405 232.125 244.505ZM252.055 135.345L268.995 133.275C268.675 129.415 268.735 125.905 267.205 122.525C261.765 122.625 256.495 122.915 251.075 123.405C251.405 127.465 251.705 131.135 252.055 135.345ZM279.455 241.175C279.115 237.865 278.835 235.025 278.545 232.075L259.545 233.905L260.335 242.615L279.455 241.175ZM69.105 250.465C62.825 250.825 57.005 251.275 51.105 251.985C51.245 253.825 51.315 255.345 51.475 256.865C51.665 258.675 51.8249 258.865 53.7049 258.745C57.2349 258.535 60.705 258.205 64.285 257.925L69.745 257.445C69.505 255.105 69.325 252.995 69.105 250.475V250.465ZM119.985 253.255L119.385 246.325L104.445 247.835V254.835L119.985 253.255Z" fill="#3558A2"/>
<path d="M127.285 253.343C126.965 251.343 126.564 249.623 126.464 247.913C124.144 209.32 121.844 170.733 119.564 132.153C119.58 131.703 119.63 131.255 119.714 130.813C122.244 129.033 125.085 129.363 127.865 129.333C132.395 129.333 136.924 129.403 141.454 129.203C149.884 128.833 158.305 128.203 166.735 127.853C173.895 127.533 181.065 127.363 188.225 127.203C189.732 127.262 191.234 127.409 192.725 127.643C196.725 167.453 200.725 207.053 204.725 246.703C199.395 249.063 194.104 247.483 188.804 248.253C188.564 245.563 188.335 243.253 188.135 240.913C186.655 224.013 185.214 207.103 183.704 190.193C182.864 180.893 181.955 171.593 181.035 162.293C180.295 154.863 176.264 149.083 171.444 143.773C169.564 141.703 166.954 140.723 164.304 140.003C159.92 138.893 155.298 139.172 151.078 140.8C146.858 142.428 143.248 145.326 140.745 149.093C138.026 153.295 136.391 158.105 135.985 163.093C135.249 170.314 135.249 177.592 135.985 184.813C136.545 189.763 136.675 194.763 136.985 199.753C137.945 216.42 138.901 233.086 139.854 249.753C140.004 252.393 139.324 253.243 136.704 253.283C133.624 253.343 130.565 253.343 127.285 253.343Z" fill="#979FBB"/>
<path d="M276.706 95.9238C275.986 97.2838 275.566 98.1539 275.076 98.9839C272.629 103.124 270.172 107.261 267.706 111.394C267.478 111.676 267.293 111.989 267.156 112.324C266.426 115.524 264.156 115.924 261.296 116.054C245.866 116.704 230.456 117.584 215.036 118.344C196.266 119.274 177.496 120.114 158.726 121.104C141.856 122.004 125.006 123.104 108.146 124.034C99.6256 124.514 91.1456 124.884 82.5756 125.314C68.3356 126.041 54.0989 126.781 39.8656 127.534C39.1552 127.649 38.427 127.575 37.7545 127.318C37.082 127.062 36.4892 126.633 36.0356 126.074C32.2456 121.314 28.4056 116.594 24.5956 111.854C24.3358 111.411 24.1149 110.945 23.9355 110.464C26.1455 110.374 28.0856 110.294 30.0356 110.234C34.2856 110.094 38.5455 110.064 42.7955 109.834C54.5855 109.194 66.3656 108.474 78.1556 107.834C97.3756 106.734 116.596 105.644 135.816 104.564C140.436 104.314 145.066 104.304 149.686 104.024C157.196 103.564 164.686 102.914 172.216 102.464C194.156 101.177 216.092 99.9205 238.026 98.6939C245.556 98.2739 253.086 97.9738 260.606 97.4638C264.606 97.1938 268.526 96.5738 272.496 96.1538C273.716 95.9938 274.946 96.0038 276.706 95.9238ZM110.856 109.194C109.116 109.664 107.336 110.024 105.646 110.634C103.006 111.574 100.426 112.634 97.8356 113.724C97.134 113.945 96.5297 114.4 96.1238 115.014C95.7178 115.627 95.5349 116.362 95.6056 117.094C95.642 117.877 95.9837 118.615 96.5575 119.15C97.1313 119.684 97.8915 119.973 98.6755 119.954C100.296 119.908 101.899 119.608 103.426 119.064C105.306 118.404 107.066 117.424 108.886 116.594C109.484 116.257 110.177 116.128 110.857 116.226C111.537 116.323 112.166 116.643 112.646 117.134C113.565 117.954 114.642 118.577 115.812 118.964C116.982 119.352 118.218 119.494 119.446 119.384C121.075 119.341 122.695 119.12 124.276 118.724C126.546 118.094 128.746 117.214 130.956 116.394C132.206 115.924 133.436 115.694 134.556 116.634C137.346 118.984 140.376 118.694 143.556 117.554C146.036 116.674 148.556 115.854 151.046 115.064C151.776 114.8 152.552 114.69 153.327 114.742C154.102 114.793 154.857 115.005 155.546 115.364C156.682 115.947 157.924 116.292 159.198 116.38C160.472 116.468 161.75 116.295 162.956 115.874C164.359 115.511 165.739 115.061 167.086 114.524C168.029 114.084 169.061 113.868 170.102 113.893C171.143 113.917 172.164 114.181 173.086 114.664C175.372 115.838 177.997 116.174 180.506 115.614C182.381 115.279 184.236 114.845 186.066 114.314C188.632 113.359 191.44 113.264 194.066 114.044C197.486 115.124 200.896 114.674 204.256 113.674C204.967 113.489 205.642 113.188 206.256 112.784C206.836 112.413 207.278 111.862 207.513 111.214C207.748 110.567 207.763 109.86 207.556 109.204C207.367 108.541 206.96 107.961 206.401 107.558C205.843 107.156 205.164 106.953 204.476 106.984C203.479 107.02 202.492 107.181 201.536 107.464C199.614 108.057 197.558 108.057 195.636 107.464C192.138 106.361 188.375 106.438 184.926 107.684C183.926 108.024 182.826 108.234 181.776 108.544C179.517 109.307 177.049 109.149 174.906 108.104C173.463 107.418 171.89 107.049 170.293 107.022C168.696 106.994 167.111 107.309 165.646 107.944C164.217 108.529 162.742 108.994 161.236 109.334C160.277 109.579 159.266 109.516 158.346 109.154C155.096 107.464 151.846 107.754 148.556 108.804C146.136 109.574 143.736 110.414 141.336 111.244C140.336 111.584 139.336 111.834 138.496 111.094C135.156 108.344 131.636 108.914 127.976 110.364C125.875 111.21 123.725 111.925 121.536 112.504C120.62 112.802 119.64 112.844 118.703 112.625C117.765 112.407 116.905 111.936 116.216 111.264C114.723 109.973 112.828 109.241 110.856 109.194V109.194Z" fill="white"/>
<path d="M65.6945 132.975L86.1145 131.975C86.3345 133.455 86.6045 134.765 86.7345 136.085C88.3612 153.078 89.9778 170.078 91.5845 187.085C93.5845 207.505 95.5246 227.925 97.4046 248.344C97.4474 250.683 97.3303 253.022 97.0545 255.344L76.9745 256.875C76.0645 254.455 65.2945 136.345 65.6945 132.975Z" fill="#979FBB"/>
<path d="M227.994 124.484L244.304 123.664C247.364 163.517 250.408 203.157 253.434 242.584C251.244 243.504 242.484 244.324 239.054 243.944C238.944 243.244 238.784 242.464 238.704 241.684C236.538 219.297 234.368 196.901 232.194 174.494C230.768 159.594 229.354 144.691 227.954 129.784C227.874 128.018 227.887 126.249 227.994 124.484V124.484Z" fill="#979FBB"/>
<path d="M201.346 145.554L222.426 143.184C225.176 171.834 227.896 200.184 230.646 228.744L210.006 231.164C207.106 202.514 204.246 174.224 201.346 145.554Z" fill="white"/>
<path d="M68.1143 243.683L50.3442 245.123C46.9442 214.533 44.1942 184.063 40.8242 153.233L59.6543 152.133C60.5343 154.263 68.4543 239.683 68.1143 243.683Z" fill="white"/>
<path d="M119.124 239.515L104.044 241.015C103.254 238.945 94.9538 154.125 95.1438 150.395C101.144 149.345 107.244 149.445 113.684 148.715C115.594 179.025 117.294 209.035 119.124 239.515Z" fill="white"/>
<path d="M259.025 227.044C256.845 198.654 254.705 170.644 252.535 142.394C258.175 141.154 263.755 140.874 269.535 140.004C269.715 141.004 269.895 141.794 269.965 142.574C271.445 158.001 272.922 173.437 274.395 188.884C275.475 200.077 276.562 211.267 277.655 222.454C277.875 224.734 277.785 225.024 275.585 225.454C273.095 225.894 270.585 226.104 268.025 226.344C265.145 226.584 262.275 226.784 259.025 227.044Z" fill="white"/>
<path d="M161.934 250.283L147.344 251.473C146.494 249.473 145.184 229.593 144.484 213.163C143.934 200.393 143.024 187.643 142.254 174.513L155.114 173.193C156.314 186.423 157.484 199.383 158.674 212.673C157.584 212.783 156.674 212.853 155.864 212.973C153.864 213.253 152.764 214.413 152.704 216.113C152.673 216.943 152.955 217.754 153.494 218.386C154.033 219.018 154.79 219.424 155.614 219.523C156.674 219.683 157.742 219.783 158.814 219.823C159.684 221.773 162.104 244.903 161.934 250.283Z" fill="white"/>
<path d="M175.305 171.145C177.545 197.275 179.745 222.825 181.975 248.735L168.975 249.735C168.025 239.435 167.105 229.465 166.185 219.575C170.735 218.195 172.115 216.945 171.795 214.715C171.475 212.485 170.245 212.045 165.525 212.075C164.275 198.985 163.005 185.845 161.715 172.395L175.305 171.145Z" fill="white"/>
<path d="M174.235 164.344L142.535 167.744C142.725 160.314 144.015 153.744 149.875 149.164C151.862 147.549 154.249 146.503 156.784 146.138C159.318 145.774 161.904 146.104 164.265 147.094C165.208 147.419 166.066 147.953 166.775 148.654C170.545 152.784 173.705 157.274 174.355 163.054C174.354 163.487 174.314 163.919 174.235 164.344V164.344Z" fill="#EAECF1"/>
<path d="M150.854 44.1836C151.707 44.8965 152.522 45.6542 153.294 46.4536C154.952 48.2511 156.511 50.1372 157.964 52.1036C162.206 58.1323 167.727 63.1487 174.134 66.7936C175.934 67.8536 176.994 69.0136 176.954 71.2436C176.894 73.9236 177.174 76.6236 177.314 79.4536C175.271 79.9135 173.138 79.7569 171.184 79.0036C168.402 77.9412 165.679 76.7328 163.024 75.3836C159.784 73.7836 156.634 71.9936 153.394 70.3836C152.394 69.8936 151.774 69.3836 151.724 68.2236C151.394 60.8036 151.014 53.3836 150.654 45.9536C150.685 45.3601 150.752 44.769 150.854 44.1836V44.1836Z" fill="#EAECF1"/>
<path d="M199.994 126.865C206.654 126.195 213.364 125.285 220.474 125.925C221.364 129.145 221.364 132.545 221.664 136.285C214.754 137.395 207.954 138.025 201.204 138.685C200.224 136.345 199.494 129.345 199.994 126.865Z" fill="#EAECF1"/>
<path d="M59.6238 145.345L40.1737 146.465L39.0938 134.975C41.3138 134.065 54.9138 133.255 58.5138 133.775C58.8538 137.445 59.2238 141.185 59.6238 145.345Z" fill="#EAECF1"/>
<path d="M112.554 130.785C112.684 132.435 112.824 133.875 112.914 135.315C113.044 137.385 113.134 139.455 113.244 141.825C107.014 142.775 100.814 142.825 94.3939 143.455C93.6641 139.836 93.3554 136.145 93.4739 132.455C93.4632 132.226 93.5013 131.998 93.5858 131.785C93.6703 131.573 93.7992 131.38 93.9639 131.221C94.1285 131.062 94.3251 130.94 94.5407 130.863C94.7562 130.786 94.9858 130.756 95.2139 130.775L112.554 130.785Z" fill="#EAECF1"/>
<path d="M232.126 244.504C225.536 246.404 219.126 246.964 212.386 247.294C210.996 244.524 211.006 241.474 210.836 238.504C212.836 237.504 226.836 235.604 231.266 235.834C231.556 238.704 231.856 241.624 232.126 244.504Z" fill="#EAECF1"/>
<path d="M252.055 135.343C251.705 131.123 251.405 127.453 251.055 123.403C256.475 122.913 261.745 122.623 267.185 122.523C268.715 125.903 268.655 129.413 268.975 133.273L252.055 135.343Z" fill="#EAECF1"/>
<path d="M279.455 241.184L260.325 242.624L259.535 233.914L278.535 232.084C278.855 235.034 279.115 237.874 279.455 241.184Z" fill="#EAECF1"/>
<path d="M69.1042 250.473C69.3242 252.993 69.5042 255.103 69.7142 257.473L64.2543 257.953C60.7243 258.233 57.2042 258.563 53.6742 258.773C51.7942 258.893 51.6742 258.703 51.4442 256.893C51.2842 255.373 51.2142 253.893 51.0742 252.013C57.0042 251.283 62.8542 250.833 69.1042 250.473Z" fill="#EAECF1"/>
<path d="M119.985 253.264L104.445 254.834V247.834L119.385 246.324L119.985 253.264Z" fill="#EAECF1"/>
<path d="M110.855 109.194C112.82 109.243 114.707 109.971 116.195 111.254C116.885 111.926 117.745 112.397 118.682 112.616C119.62 112.834 120.6 112.792 121.515 112.494C123.704 111.915 125.855 111.2 127.955 110.354C131.615 108.904 135.135 108.354 138.475 111.084C139.365 111.824 140.335 111.574 141.315 111.234C143.715 110.404 146.115 109.564 148.535 108.794C151.825 107.744 155.075 107.454 158.325 109.144C159.246 109.506 160.257 109.569 161.215 109.324C162.721 108.984 164.196 108.519 165.625 107.934C167.091 107.299 168.675 106.985 170.273 107.012C171.87 107.04 173.442 107.409 174.885 108.094C177.028 109.139 179.497 109.297 181.755 108.534C182.805 108.224 183.875 108.014 184.905 107.674C188.355 106.428 192.118 106.351 195.615 107.454C197.537 108.048 199.593 108.048 201.515 107.454C202.471 107.171 203.459 107.01 204.455 106.974C205.144 106.943 205.822 107.146 206.381 107.549C206.94 107.952 207.347 108.531 207.535 109.194C207.743 109.851 207.727 110.557 207.492 111.205C207.257 111.852 206.816 112.403 206.235 112.774C205.622 113.179 204.946 113.479 204.235 113.664C200.875 114.664 197.465 115.114 194.045 114.034C191.42 113.254 188.612 113.349 186.045 114.304C184.216 114.835 182.36 115.269 180.485 115.604C177.977 116.164 175.352 115.828 173.065 114.654C172.143 114.171 171.122 113.907 170.082 113.883C169.041 113.859 168.009 114.075 167.065 114.514C165.718 115.051 164.339 115.502 162.935 115.864C161.73 116.286 160.452 116.458 159.178 116.37C157.904 116.283 156.661 115.937 155.525 115.354C154.837 114.995 154.081 114.784 153.307 114.732C152.532 114.68 151.755 114.79 151.025 115.054C148.515 115.844 146.025 116.664 143.535 117.544C140.375 118.684 137.345 118.974 134.535 116.624C133.415 115.684 132.185 115.914 130.935 116.384C128.725 117.204 126.525 118.084 124.255 118.714C122.674 119.11 121.054 119.331 119.425 119.374C118.198 119.484 116.961 119.342 115.792 118.955C114.622 118.568 113.544 117.945 112.625 117.124C112.145 116.633 111.517 116.314 110.837 116.216C110.157 116.118 109.464 116.248 108.865 116.584C107.045 117.414 105.285 118.394 103.405 119.054C101.878 119.598 100.275 119.898 98.6552 119.944C97.8712 119.963 97.1109 119.675 96.5371 119.14C95.9633 118.605 95.6215 117.867 95.5852 117.084C95.5145 116.352 95.6974 115.618 96.1034 115.004C96.5093 114.391 97.1136 113.935 97.8152 113.714C100.405 112.664 102.985 111.564 105.625 110.624C107.305 110.024 109.085 109.664 110.855 109.194Z" fill="#3558A2"/>
</svg>
