<svg width="300" height="300" viewBox="0 0 300 300" fill="none" xmlns="http://www.w3.org/2000/svg">
<path d="M138.18 99.2206C138.401 99.122 138.609 98.9978 138.8 98.8506C140.87 96.4806 143.34 96.1606 146.32 99.0406C147.68 100.361 149.06 101.671 150.64 103.191C151.533 102.423 152.375 101.598 153.16 100.721C155.5 97.7206 156.32 97.4006 160.16 97.9306C160.9 97.1906 160.51 96.2306 160.56 95.3806C160.81 90.7406 161.36 86.2006 163.56 82.0006C166.77 76.0006 171.86 72.7806 178.47 72.0006C182.399 71.4937 186.351 71.1866 190.31 71.0806C194.015 70.8175 197.737 71.1998 201.31 72.2106C203.517 72.9343 205.538 74.1318 207.233 75.7194C208.927 77.3069 210.254 79.246 211.12 81.4006C212.856 85.2971 213.811 89.4964 213.93 93.7606C214.01 96.2006 214.36 98.6306 214.57 101.061C214.64 101.851 214.65 102.641 214.7 103.551C215.25 103.881 215.85 104.281 216.49 104.611C222.56 107.721 225.78 112.681 226.43 119.461C226.835 122.956 226.906 126.482 226.64 129.991C226.28 133.811 226.86 137.721 226.98 141.591C227.21 148.591 227.39 155.511 227.61 162.461C227.77 167.621 227.944 172.781 228.13 177.941C228.3 182.811 228.49 187.681 228.65 192.551C228.85 198.781 229.03 205.011 229.23 211.241C229.396 212.485 229.396 213.746 229.23 214.991C229.089 215.747 228.717 216.442 228.166 216.979C227.615 217.516 226.91 217.87 226.15 217.991C225.091 218.236 224.015 218.396 222.93 218.471C219.93 218.701 216.93 218.851 213.99 219.061C208.75 219.421 203.52 219.811 198.28 220.161C192.14 220.561 186 220.921 179.86 221.311C173.86 221.691 167.94 222.051 161.98 222.491C156.02 222.931 150.27 223.491 144.41 223.871C141.6 224.071 138.78 224.111 135.97 224.091C133.86 224.091 132.88 223.171 132.34 221.091C132.228 220.652 132.161 220.203 132.14 219.751C131.93 215.951 131.76 212.151 131.53 208.361C131.28 204.361 130.98 200.421 130.72 196.451C130.63 195.201 130.62 193.951 130.56 192.701C130.35 187.821 130.15 182.931 129.91 178.041C129.71 174.161 129.45 170.281 129.21 166.391C129.12 164.971 129 163.541 128.93 162.121C128.71 157.121 128.56 152.121 128.29 147.181C128.02 142.241 127.64 137.111 127.34 132.061C127.26 130.721 127.17 129.371 128.34 128.311C128.845 127.701 129.268 127.029 129.6 126.311L126.22 122.391C125.86 121.981 125.44 121.631 125.1 121.201C123.59 119.201 122.5 117.751 125.01 114.711C125.23 114.451 125.41 114.151 125.75 113.711L114.85 104.571C114.29 104.821 113.79 105.001 113.34 105.251L103.34 110.801C102.802 111.141 102.224 111.417 101.62 111.621C100.06 112.031 98.5303 112.001 97.3503 110.621C95.1803 108.191 92.9202 105.821 90.9102 103.251C90.4886 102.657 90.1915 101.984 90.0369 101.273C89.8824 100.562 89.8736 99.8264 90.0109 99.1115C90.1483 98.3967 90.429 97.717 90.8362 97.1136C91.2435 96.5101 91.7686 95.9954 92.3802 95.6006C95.1802 93.6006 98.0502 91.7206 100.89 89.7706C104.47 87.3206 108.02 84.8206 111.63 82.4106C113.13 81.4106 114.72 80.4106 116.63 81.1606C117.391 81.4145 118.104 81.793 118.74 82.2806C121.37 84.5106 123.95 86.8006 126.52 89.0806L137.27 98.6906C137.557 98.8942 137.862 99.0716 138.18 99.2206V99.2206ZM222.06 211.221C222.06 210.221 222.06 209.431 222.06 208.631C221.93 205.561 221.76 202.481 221.64 199.411C221.42 193.411 221.23 187.331 221.03 181.301C220.86 175.861 220.68 170.431 220.53 165.001C220.4 159.851 220.36 154.691 220.19 149.541C219.98 143.681 219.63 137.831 219.43 131.971C219.369 129.99 219.463 128.007 219.71 126.041C219.99 123.761 219.42 121.361 219.12 119.041C218.903 117.417 218.31 115.867 217.388 114.513C216.466 113.158 215.241 112.038 213.81 111.241C211.149 109.684 208.261 108.553 205.25 107.891C200.575 106.8 195.791 106.24 190.99 106.221C185.48 106.101 179.99 105.921 174.46 105.731C169.67 105.561 164.88 105.371 160.1 105.121C159.57 105.066 159.035 105.159 158.553 105.388C158.072 105.617 157.662 105.975 157.37 106.421C155.57 108.691 153.61 110.841 151.67 113.001C146.46 118.801 141.25 124.601 135.97 130.341C135.53 130.784 135.195 131.321 134.989 131.911C134.783 132.501 134.712 133.129 134.78 133.751C135.17 139.901 135.5 146.041 135.83 152.191C136.21 159.331 136.58 166.474 136.94 173.621C137.31 180.621 137.7 187.681 138.04 194.721C138.32 200.721 138.56 206.697 138.76 212.651C138.788 214.097 139.051 215.529 139.54 216.891L150.54 216.191L167.83 215.001C172.98 214.661 178.13 214.351 183.27 214.001C187.87 213.691 192.47 213.331 197.07 213.001C197.53 213.001 197.98 213.001 198.43 213.001C202.58 212.671 206.73 212.331 210.87 212.001C214.41 211.751 218.02 211.531 222.04 211.271L222.06 211.221ZM170.9 98.2206C171.09 97.2806 171.21 96.5906 171.37 95.9106C171.664 94.3158 172.051 92.7397 172.53 91.1906C173.213 89.0634 174.437 87.15 176.081 85.6373C177.725 84.1246 179.734 83.0645 181.91 82.5606C184.899 81.7941 187.999 81.5572 191.07 81.8605C196.84 82.4306 199.58 85.1906 201.16 90.2406C201.502 91.5551 201.752 92.8916 201.91 94.2406C202.24 96.1706 202.55 98.1106 202.91 100.031L207.12 100.771C207.228 100.47 207.298 100.158 207.33 99.8406C207.15 97.5006 207.08 95.1306 206.69 92.8406C206.272 90.2595 205.678 87.7101 204.91 85.2106C203.49 80.7206 200.09 78.4206 195.28 78.4006C190.028 78.2568 184.772 78.4739 179.55 79.0505C177.744 79.2086 175.998 79.7717 174.439 80.698C172.881 81.6242 171.552 82.8898 170.55 84.4006C167.82 88.5806 168.09 93.2806 167.7 98.0606L170.9 98.2206ZM133.56 104.931L115.32 88.6906C109.52 92.6906 103.76 96.3406 98.1702 100.521C98.6502 101.141 98.9302 101.591 99.2902 101.971C99.8402 102.561 100.43 103.101 101.12 103.761L103.76 102.311C106.69 100.701 109.59 99.0306 112.56 97.4906C113.455 96.9366 114.507 96.6931 115.554 96.798C116.6 96.9029 117.584 97.3502 118.35 98.0706C120.26 99.7406 122.25 101.311 124.2 102.921L130.59 108.201L133.56 104.931ZM195.48 99.1806C194.97 96.4306 194.66 94.1206 194.08 91.8706C193.924 91.1116 193.512 90.4292 192.914 89.9377C192.315 89.4462 191.565 89.1753 190.79 89.1706C188.732 89.0141 186.663 89.1149 184.63 89.4706C183.812 89.5079 183.012 89.7179 182.281 90.0867C181.55 90.4555 180.906 90.9748 180.39 91.6106C179.015 93.6805 178.316 96.1264 178.39 98.6106C184.06 99.3006 189.52 99.0306 195.46 99.2006L195.48 99.1806ZM142.48 105.531L131.89 117.881L134.61 121.151L145.87 108.621L142.48 105.531Z" fill="#3558A2"/>
<path d="M111.04 228.011C108.92 227.621 106.75 227.381 104.68 226.811C99.1531 225.355 93.3667 225.177 87.7604 226.291C85.4422 226.739 83.0565 226.704 80.7525 226.188C78.4485 225.671 76.2758 224.685 74.3704 223.291C73.4583 222.649 72.6916 221.822 72.1204 220.864C71.5492 219.906 71.1862 218.839 71.0551 217.731C70.924 216.623 71.0275 215.501 71.3593 214.436C71.691 213.371 72.2435 212.388 72.9805 211.551C75.9839 208.382 79.9164 206.249 84.2105 205.461C90.9568 204.113 97.8335 203.529 104.71 203.721C108.71 203.721 112.71 203.461 116.63 203.521C118.078 203.535 119.504 203.877 120.8 204.521C122.637 205.437 124.219 206.791 125.408 208.464C126.598 210.136 127.357 212.075 127.62 214.111C128.27 218.491 125.88 221.751 122.56 224.301C119.176 226.659 115.164 227.951 111.04 228.011V228.011ZM78.3105 216.601C78.5885 217.11 78.974 217.553 79.4402 217.898C79.9065 218.243 80.4422 218.483 81.0104 218.601C83.9143 219.374 86.959 219.457 89.9004 218.841C93.6629 218.236 97.4979 218.236 101.26 218.841C104.11 219.301 106.91 220.101 109.78 220.421C113.28 220.821 116.64 220.271 119.28 217.561C119.815 217.058 120.163 216.389 120.27 215.663C120.377 214.937 120.237 214.197 119.87 213.561C119.548 212.709 118.959 211.985 118.191 211.495C117.424 211.004 116.519 210.775 115.611 210.841C108.101 211.081 100.61 210.561 93.0505 211.311C89.6344 211.655 86.2591 212.325 82.9705 213.311C81.1044 213.879 79.4705 215.032 78.3105 216.601V216.601Z" fill="#3558A2"/>
<path d="M222.041 211.27C218.041 211.53 214.411 211.75 210.801 212.01C206.661 212.32 202.511 212.66 198.361 213.01C197.911 213.01 197.461 213.01 197.001 213.01C192.401 213.35 187.801 213.71 183.201 214.01C178.061 214.36 172.911 214.67 167.761 215.01L150.471 216.2L139.471 216.9C138.982 215.539 138.718 214.107 138.691 212.66C138.477 206.66 138.237 200.684 137.971 194.73C137.631 187.73 137.241 180.66 136.871 173.63C136.501 166.6 136.141 159.34 135.761 152.2C135.431 146.05 135.101 139.91 134.711 133.76C134.642 133.139 134.714 132.511 134.92 131.921C135.125 131.331 135.461 130.794 135.901 130.35C141.181 124.61 146.391 118.81 151.601 113.01C153.541 110.85 155.501 108.7 157.301 106.43C157.593 105.984 158.002 105.627 158.484 105.398C158.965 105.169 159.5 105.076 160.031 105.13C164.811 105.38 169.601 105.57 174.391 105.74C179.901 105.93 185.391 106.11 190.921 106.23C195.722 106.249 200.505 106.81 205.181 107.9C208.192 108.563 211.08 109.693 213.741 111.25C215.172 112.048 216.397 113.168 217.318 114.522C218.24 115.876 218.833 117.427 219.051 119.05C219.351 121.38 219.921 123.78 219.641 126.05C219.393 128.017 219.3 129.999 219.361 131.98C219.561 137.84 219.911 143.69 220.121 149.55C220.291 154.7 220.331 159.86 220.461 165.01C220.611 170.44 220.791 175.87 220.961 181.31C221.161 187.31 221.351 193.38 221.571 199.42C221.691 202.49 221.861 205.57 221.991 208.64C222.071 209.48 222.041 210.28 222.041 211.27ZM170.181 144.88C168.971 142.88 168.181 141.45 167.271 140.12C166.154 138.368 164.875 136.724 163.451 135.21C161.161 133.02 157.981 133.98 157.031 137.01C156.777 137.875 156.642 138.77 156.631 139.67C156.481 144.73 156.361 149.8 156.241 154.87C155.996 160.74 156.066 166.618 156.451 172.48C157.001 179.19 158.961 185.25 163.361 190.39C165.591 193 167.901 195.58 171.081 197.15C172.691 197.94 174.281 198.8 175.941 199.47C176.778 199.807 177.682 199.944 178.581 199.87C181.271 199.62 183.981 199.34 186.641 198.87C188.51 198.548 190.328 197.983 192.051 197.19C198.551 194.12 201.771 188.47 203.441 181.82C204.581 177.169 204.983 172.367 204.631 167.59C204.351 163.26 204.211 158.91 203.891 154.59C203.621 150.99 203.121 147.41 202.831 143.81C202.581 140.74 202.511 137.66 202.291 134.6C202.223 133.516 202.021 132.445 201.691 131.41C201.485 130.686 201.114 130.02 200.606 129.465C200.098 128.91 199.467 128.481 198.764 128.212C198.062 127.943 197.306 127.842 196.557 127.916C195.808 127.991 195.087 128.239 194.451 128.64C193.201 129.36 192.091 130.3 190.901 131.12C190.411 131.46 189.901 131.73 189.271 132.12C188.949 131.612 188.659 131.084 188.401 130.54C187.571 128.35 186.831 126.12 185.961 123.95C185.599 123.025 185.096 122.162 184.471 121.39C184.123 120.883 183.656 120.468 183.112 120.181C182.567 119.895 181.961 119.745 181.346 119.745C180.73 119.745 180.124 119.895 179.58 120.181C179.035 120.468 178.569 120.883 178.221 121.39C177.559 122.244 177.064 123.214 176.761 124.25C174.931 130.02 173.191 135.82 171.391 141.61C171.181 142.5 170.771 143.4 170.181 144.88Z" fill="#EAECF1"/>
<path d="M170.882 98.2407L167.592 98.0507C167.982 93.2706 167.712 88.5707 170.442 84.3906C171.443 82.8798 172.773 81.6142 174.331 80.688C175.889 79.7618 177.636 79.1987 179.442 79.0406C184.664 78.464 189.92 78.2468 195.172 78.3906C199.982 78.3906 203.382 80.7106 204.802 85.2006C205.569 87.7002 206.164 90.2496 206.582 92.8307C206.972 95.1407 207.042 97.5107 207.222 99.8307C207.19 100.148 207.119 100.46 207.012 100.761L202.802 100.021C202.492 98.1007 202.182 96.1606 201.802 94.2306C201.644 92.8816 201.393 91.5451 201.052 90.2306C199.472 85.2306 196.732 82.4206 190.962 81.8506C187.891 81.5472 184.791 81.7841 181.802 82.5506C179.625 83.0545 177.617 84.1147 175.972 85.6273C174.328 87.14 173.105 89.0535 172.422 91.1806C171.942 92.7298 171.555 94.3059 171.262 95.9007C171.182 96.6107 171.072 97.3007 170.882 98.2407Z" fill="#979FBB"/>
<path d="M133.541 104.949L130.541 108.219L124.151 102.939C122.151 101.329 120.211 99.759 118.301 98.089C117.534 97.3686 116.551 96.9213 115.505 96.8164C114.458 96.7116 113.406 96.955 112.511 97.509C109.511 99.049 106.641 100.719 103.711 102.329L101.071 103.779C100.381 103.119 99.7912 102.579 99.2412 101.989C98.8812 101.609 98.6011 101.159 98.1211 100.539C103.711 96.359 109.471 92.679 115.271 88.709L133.541 104.949Z" fill="white"/>
<path d="M195.46 99.1995C189.52 99.0295 184.06 99.2995 178.46 98.5895C178.386 96.1054 179.085 93.6595 180.46 91.5896C180.976 90.9539 181.621 90.4345 182.351 90.0657C183.082 89.6968 183.883 89.4869 184.7 89.4496C186.733 89.0939 188.803 88.9931 190.86 89.1496C191.635 89.1544 192.385 89.4252 192.984 89.9167C193.583 90.4082 193.995 91.0906 194.15 91.8495C194.64 94.1395 194.95 96.4495 195.46 99.1995Z" fill="white"/>
<path d="M142.501 105.551L145.871 108.551L134.611 121.081L131.891 117.811L142.501 105.551Z" fill="#979FBB"/>
<path d="M78.3105 216.599C79.4722 215.034 81.1058 213.885 82.9706 213.319C86.2592 212.333 89.6345 211.663 93.0505 211.319C100.571 210.569 108.101 211.089 115.611 210.849C116.519 210.783 117.424 211.013 118.191 211.503C118.959 211.993 119.548 212.717 119.87 213.569C120.237 214.205 120.378 214.946 120.271 215.672C120.163 216.397 119.815 217.066 119.281 217.569C116.641 220.279 113.281 220.829 109.781 220.429C106.911 220.109 104.11 219.309 101.26 218.849C97.498 218.244 93.663 218.244 89.9005 218.849C86.9591 219.465 83.9144 219.383 81.0105 218.609C80.4414 218.49 79.9051 218.249 79.4388 217.902C78.9725 217.555 78.5875 217.11 78.3105 216.599V216.599Z" fill="#979FBB"/>
<path d="M170.18 144.881C170.74 143.371 171.11 142.471 171.39 141.551C173.19 135.761 174.93 129.961 176.76 124.191C177.063 123.155 177.559 122.185 178.221 121.331C178.569 120.824 179.035 120.409 179.58 120.122C180.124 119.835 180.73 119.686 181.346 119.686C181.961 119.686 182.567 119.835 183.111 120.122C183.656 120.409 184.122 120.824 184.471 121.331C185.096 122.103 185.599 122.966 185.961 123.891C186.831 126.061 187.57 128.291 188.4 130.481C188.658 131.025 188.949 131.552 189.27 132.061C189.88 131.691 190.41 131.421 190.9 131.061C192.09 130.241 193.2 129.301 194.45 128.581C195.087 128.179 195.808 127.932 196.557 127.857C197.306 127.783 198.061 127.884 198.764 128.153C199.467 128.422 200.097 128.851 200.605 129.406C201.113 129.961 201.485 130.627 201.69 131.351C202.021 132.386 202.222 133.457 202.29 134.541C202.51 137.601 202.581 140.681 202.831 143.751C203.121 147.351 203.62 150.931 203.89 154.531C204.21 158.861 204.35 163.211 204.63 167.531C204.983 172.308 204.581 177.11 203.44 181.761C201.77 188.411 198.55 194.061 192.05 197.131C190.328 197.924 188.509 198.489 186.64 198.811C183.98 199.321 181.271 199.601 178.581 199.811C177.681 199.885 176.777 199.748 175.94 199.411C174.28 198.741 172.69 197.881 171.08 197.091C167.9 195.521 165.591 192.941 163.361 190.331C158.961 185.191 157 179.131 156.45 172.421C156.066 166.559 155.996 160.681 156.241 154.811C156.361 149.741 156.48 144.671 156.63 139.611C156.642 138.71 156.777 137.816 157.03 136.951C157.98 133.951 161.16 132.951 163.45 135.151C164.874 136.665 166.153 138.309 167.27 140.061C168.23 141.481 169 142.881 170.18 144.881ZM164.111 148.881L163.7 149.081C163.53 154.851 163.271 160.621 163.241 166.391C163.236 169.287 163.456 172.179 163.9 175.041C164.81 180.921 167.971 185.621 172.241 189.611C173.194 190.591 174.351 191.35 175.629 191.836C176.908 192.321 178.277 192.521 179.64 192.421C181.896 192.272 184.141 191.982 186.361 191.551C187.961 191.216 189.471 190.544 190.791 189.578C192.11 188.612 193.208 187.376 194.01 185.951C195.929 182.656 197.068 178.965 197.341 175.161C197.798 168.464 197.593 161.738 196.731 155.081C196.181 149.771 195.36 144.491 195.26 139.141C195.26 138.561 195.12 137.981 195.02 137.141C193.76 138.041 192.771 138.811 191.721 139.491C189.301 141.071 186.37 140.881 184.78 138.951C184.024 137.933 183.355 136.852 182.78 135.721C182.32 134.911 181.92 134.061 181.38 132.991C180.86 134.901 180.481 136.491 179.991 137.991C178.731 141.991 177.471 145.921 176.111 149.861C175.636 151.437 174.728 152.847 173.491 153.931C172.712 154.638 171.69 155.017 170.638 154.987C169.587 154.957 168.588 154.522 167.851 153.771C167.336 153.26 166.868 152.704 166.45 152.111C165.7 151.091 164.93 149.991 164.18 148.881H164.111Z" fill="#3558A2"/>
<path d="M164.181 148.88C164.971 149.96 165.741 151.06 166.551 152.12C166.968 152.713 167.436 153.268 167.951 153.78C168.688 154.53 169.687 154.966 170.738 154.996C171.79 155.025 172.812 154.647 173.591 153.94C174.816 152.855 175.713 151.448 176.181 149.88C177.541 145.94 178.801 141.98 180.061 138.01C180.551 136.47 180.931 134.88 181.451 133.01C181.991 134.08 182.391 134.93 182.851 135.74C183.425 136.871 184.094 137.952 184.851 138.97C186.441 140.9 189.371 141.09 191.791 139.51C192.791 138.83 193.791 138.06 195.091 137.16C195.191 138.03 195.311 138.61 195.331 139.16C195.431 144.51 196.251 149.79 196.801 155.1C197.663 161.757 197.868 168.483 197.411 175.18C197.138 178.983 195.999 182.674 194.081 185.97C193.278 187.394 192.18 188.631 190.861 189.596C189.541 190.562 188.031 191.235 186.431 191.57C184.211 192 181.967 192.291 179.711 192.44C178.347 192.54 176.978 192.34 175.699 191.855C174.421 191.369 173.264 190.61 172.311 189.63C168.041 185.63 164.881 180.94 163.971 175.06C163.527 172.198 163.306 169.306 163.311 166.41C163.311 160.64 163.601 154.87 163.771 149.1L164.181 148.88ZM191.931 169.19C191.831 168.05 191.791 166.43 191.531 164.85C191.1 161.821 190.513 158.817 189.771 155.85C188.771 152.33 184.891 151.43 182.241 153.98C181.611 154.63 181.032 155.329 180.511 156.07C178.201 159.07 176.041 162.2 172.931 164.51C172.08 165.186 171.285 165.928 170.551 166.73C170.128 167.132 169.815 167.634 169.64 168.191C169.465 168.747 169.434 169.338 169.551 169.91C170 173.221 171.015 176.431 172.551 179.4C173.679 181.691 175.489 183.577 177.731 184.8C179.33 185.671 181.162 186.019 182.969 185.792C184.776 185.566 186.466 184.778 187.801 183.54C189.884 181.613 191.184 178.985 191.451 176.16C191.651 174.01 191.731 171.88 191.891 169.22L191.931 169.19Z" fill="#979FBB"/>
<path d="M191.892 169.22C191.732 171.85 191.652 174.01 191.452 176.16C191.185 178.985 189.885 181.613 187.802 183.54C186.467 184.779 184.777 185.567 182.97 185.793C181.163 186.019 179.331 185.672 177.732 184.8C175.49 183.577 173.681 181.691 172.552 179.4C171.016 176.432 170.001 173.222 169.552 169.91C169.435 169.339 169.466 168.747 169.641 168.191C169.816 167.635 170.129 167.132 170.552 166.73C171.286 165.929 172.081 165.187 172.932 164.51C176.042 162.2 178.202 159.07 180.512 156.07C181.033 155.33 181.612 154.631 182.242 153.98C184.892 151.43 188.822 152.33 189.772 155.85C190.514 158.818 191.101 161.822 191.532 164.85C191.752 166.46 191.792 168.08 191.892 169.22ZM181.892 178.62C184.042 177.9 184.212 176.2 184.382 174.62C184.684 172.575 184.788 170.505 184.692 168.44C184.562 167.02 184.852 165.36 184.192 164.62L176.752 171.13C178.402 173.67 178.232 177.36 181.912 178.62H181.892Z" fill="#3558A2"/>
<path d="M181.912 178.62C178.231 177.36 178.401 173.62 176.771 171.1L184.212 164.59C184.872 165.33 184.582 166.99 184.712 168.41C184.808 170.475 184.704 172.545 184.401 174.59C184.231 176.2 184.062 177.88 181.912 178.62Z" fill="white"/>
</svg>
