<svg width="300" height="300" viewBox="0 0 300 300" fill="none" xmlns="http://www.w3.org/2000/svg">
<path d="M98.3307 193.033C95.8707 193.313 93.3307 194.173 90.9407 193.753C87.1507 193.083 84.7907 194.353 82.0807 196.923C77.0807 201.713 70.0807 201.743 64.3007 197.923C63.4314 197.303 62.4272 196.898 61.3707 196.743C59.5395 196.664 57.7774 196.021 56.3256 194.903C54.8738 193.784 53.8034 192.244 53.2607 190.493C50.5707 183.023 52.2607 176.393 57.6107 170.683C60.1007 168.043 63.3907 167.443 66.8607 167.623C67.9307 167.683 69.0008 167.933 70.2708 168.123C72.9708 164.983 76.2707 162.473 80.6007 161.863C84.9307 161.253 88.7907 162.863 91.9807 165.713C94.8507 164.863 97.5707 163.883 100.371 163.303C102.551 162.793 104.829 162.903 106.95 163.62C109.071 164.338 110.948 165.634 112.371 167.363C112.792 167.925 113.341 168.379 113.972 168.689C114.603 168.998 115.298 169.154 116.001 169.143C120.931 169.223 124.441 172.843 124.721 177.793C124.811 179.223 124.721 180.673 124.721 182.193C130.671 182.674 136.458 184.376 141.721 187.193C153.721 193.333 159.561 203.473 161.291 216.283C162.52 225.318 160.33 234.487 155.151 241.992C149.971 249.497 142.175 254.797 133.291 256.853C115.611 261.033 96.8107 250.663 90.5407 232.853C85.6207 218.853 87.8307 205.853 97.4307 194.393C97.6707 194.113 97.9107 193.843 98.1307 193.553C98.2277 193.393 98.2954 193.217 98.3307 193.033V193.033ZM123.831 194.313C122.081 196.133 120.511 198.033 118.691 199.633C113.351 204.323 107.871 208.813 100.691 210.513C99.6907 210.743 98.6907 210.913 97.7907 211.223C97.0673 211.357 96.4165 211.747 95.9574 212.322C95.4983 212.897 95.2615 213.618 95.2907 214.353C95.2907 217.593 94.9207 220.893 95.2907 224.083C97.2907 239.343 111.291 252.443 128.531 250.663C146.531 248.793 159.151 230.323 153.471 211.173C153.377 210.682 153.115 210.24 152.73 209.922C152.344 209.604 151.86 209.431 151.361 209.433C149.819 209.39 148.285 209.199 146.781 208.863C137.781 206.443 129.801 202.233 123.831 194.313ZM117.681 182.073C117.751 180.813 117.891 179.643 117.851 178.483C117.781 176.483 117.001 175.583 115.171 175.963C111.771 176.653 109.671 175.183 107.901 172.533C107.284 171.505 106.358 170.698 105.255 170.228C104.153 169.757 102.93 169.647 101.761 169.913C99.7127 170.273 97.7327 170.948 95.8908 171.913C92.6308 173.753 90.0407 173.393 87.3207 170.813C83.9307 167.613 80.3207 167.813 76.9607 171.063C76.2614 171.769 75.6131 172.524 75.0208 173.323C72.7608 176.223 71.3908 176.583 68.0208 174.893C67.1867 174.421 66.2292 174.212 65.2744 174.294C64.3196 174.376 63.4119 174.745 62.6707 175.353C59.3007 177.913 57.7807 184.133 59.6007 188.003C59.9707 188.793 61.1107 189.893 61.7007 189.783C64.5107 189.263 66.3106 190.783 68.2806 192.313C69.458 193.35 70.9663 193.933 72.5349 193.959C74.1036 193.985 75.6301 193.451 76.8407 192.453C78.0754 191.542 79.1586 190.441 80.0507 189.193C82.5507 185.763 83.4407 185.353 87.5907 186.603C89.4472 187.235 91.4355 187.376 93.3628 187.014C95.2901 186.651 97.0909 185.796 98.5907 184.533C99.5907 183.743 100.591 182.953 101.501 182.083C102.365 181.136 103.538 180.528 104.809 180.367C106.08 180.206 107.368 180.502 108.441 181.203C109.82 182.025 111.364 182.529 112.963 182.68C114.561 182.83 116.173 182.623 117.681 182.073V182.073ZM129.561 189.623C130.841 194.693 142.951 201.863 148.561 201.763C144.981 196.053 136.261 189.513 129.561 189.623ZM99.0507 203.683C105.101 202.423 115.851 194.443 118.461 189.533C110.061 191.513 103.781 196.103 99.0507 203.683Z" fill="#3558A2"/>
<path d="M90.3302 78.971C91.5402 78.121 92.5501 77.391 93.5701 76.681C97.05 74.2048 101.018 72.5001 105.21 71.681C112.37 70.321 116.82 74.411 116.14 81.681C116.161 81.9206 116.215 82.1562 116.3 82.381C117.3 82.581 118.3 82.761 119.35 83.001C130.63 85.611 138.6 92.331 143.52 102.711C143.791 103.465 144.221 104.151 144.782 104.723C145.343 105.294 146.021 105.737 146.77 106.021C147.923 106.545 148.965 107.285 149.84 108.201C151.59 109.781 153.25 111.461 154.94 113.111C155.266 113.412 155.557 113.747 155.81 114.111C156.282 114.73 156.526 115.493 156.5 116.271C156.475 117.049 156.182 117.794 155.67 118.381C155.127 118.94 154.405 119.291 153.63 119.371C152.855 119.452 152.076 119.257 151.43 118.821C150.745 118.38 150.096 117.885 149.49 117.341L147.37 115.531C147.328 116.003 147.328 116.479 147.37 116.951C147.99 119.441 148.31 121.781 146.79 124.251C145.9 125.711 146.02 127.761 145.48 129.481C140.95 143.751 131.77 153.201 116.84 156.251C102.84 159.121 88.4301 152.171 81.1801 139.341C76.9305 131.963 75.3354 123.352 76.6601 114.941C76.7898 114.167 76.6181 113.372 76.1801 112.721C72.5401 108.561 72.5501 103.841 73.9001 98.8911C75.2819 93.9597 78.1357 89.5674 82.0802 86.301C83.5102 85.061 84.2802 83.961 83.4902 81.921C83.1788 80.6058 83.1788 79.2361 83.4902 77.921C83.5609 77.0495 83.9437 76.2328 84.5683 75.6211C85.193 75.0093 86.0175 74.6435 86.8902 74.591C88.5002 74.591 89.5902 75.591 90.0902 77.671C90.1302 78.021 90.2102 78.351 90.3302 78.971ZM86.2302 134.191C87.9563 138.181 90.6929 141.652 94.1701 144.261C103.4 151.261 113.44 152.151 123.57 146.841C134.22 141.241 139.57 131.931 140.04 119.911C140.051 118.976 139.868 118.05 139.503 117.189C139.139 116.329 138.599 115.553 137.92 114.911C137.67 116.201 137.43 117.161 137.31 118.141C137.07 120.031 136.96 121.931 136.68 123.811C136.34 126.071 134.87 127.561 133.06 127.641C131.25 127.721 129.87 126.481 129.22 124.381C128.9 123.381 128.69 122.281 128.22 120.621C127.66 122.311 127.28 123.481 126.87 124.621C126.13 126.751 124.6 127.761 122.8 127.331C122.353 127.228 121.933 127.032 121.565 126.757C121.198 126.482 120.892 126.133 120.667 125.733C120.442 125.334 120.303 124.891 120.259 124.434C120.215 123.978 120.266 123.517 120.41 123.081C121.435 119.436 122.738 115.876 124.31 112.431C125.125 110.921 126.451 109.751 128.05 109.131C129.24 108.691 130.89 109.481 132.19 109.711L137.11 105.371C134.993 100.399 131.415 96.1885 126.85 93.2971C122.286 90.4056 116.95 88.9702 111.55 89.181C110.753 89.1947 109.982 89.4647 109.35 89.951C104.42 94.491 99.5602 99.1211 94.8802 103.531C95.271 108.951 94.7057 114.397 93.2102 119.621C91.9124 124.911 89.5286 129.872 86.2102 134.191H86.2302ZM80.3302 106.441C81.0788 106.003 81.7971 105.515 82.4802 104.981C90.9869 97.241 99.4835 89.4844 107.97 81.711C108.356 81.3359 108.693 80.9124 108.97 80.451C109.67 79.321 109.33 78.451 108.04 78.341C107.14 78.2257 106.226 78.3216 105.37 78.621C102.64 79.781 99.6602 80.701 97.3702 82.441C92.9773 85.7894 88.7928 89.4028 84.8402 93.261C83.201 95.0638 81.8881 97.1381 80.9602 99.3911C79.9058 101.588 79.682 104.092 80.3302 106.441V106.441ZM87.8702 109.901C84.7202 111.531 83.6202 112.361 83.4902 113.741C83.1302 117.561 82.4901 121.401 83.6501 125.741C86.0701 120.521 87.8502 115.621 87.8702 109.901V109.901Z" fill="#3558A2"/>
<path d="M215.769 139.92C217.769 137.54 219.289 135.55 220.959 133.65C222.261 132.137 223.65 130.701 225.119 129.35C225.723 128.725 226.5 128.296 227.351 128.118C228.201 127.939 229.086 128.02 229.889 128.35C230.758 128.663 231.501 129.252 232.003 130.027C232.505 130.801 232.739 131.72 232.669 132.64C232.529 135.88 232.139 139.12 231.839 142.36C231.779 143.05 231.689 143.75 231.579 144.78C233.439 143.96 234.969 143.2 236.579 142.62C238.423 141.873 240.326 141.284 242.269 140.86C246.079 140.18 248.429 143.09 246.989 146.71C246.167 148.632 245.162 150.47 243.989 152.2C242.099 155.2 240.059 158.06 238.069 161.02C240.229 165.162 241.635 169.656 242.219 174.29C244.519 193.16 231.899 211.17 212.999 214.18C197.749 216.6 179.179 207.03 174.409 187.18C171.819 176.45 173.769 166.5 179.909 157.37C180.278 156.829 180.534 156.219 180.661 155.576C180.789 154.933 180.785 154.271 180.649 153.63C180.019 148.51 179.649 143.35 179.289 138.2C179.147 137.291 179.288 136.361 179.692 135.535C180.097 134.708 180.745 134.026 181.549 133.58C183.449 132.58 185.279 133.14 186.889 134.33C189.959 136.59 192.969 138.93 195.999 141.23C196.349 141.5 196.719 141.72 197.429 142.23L201.659 131.23C202.015 130.109 202.446 129.013 202.949 127.95C203.232 127.322 203.675 126.779 204.233 126.376C204.792 125.974 205.447 125.725 206.133 125.656C206.818 125.587 207.51 125.7 208.138 125.984C208.766 126.267 209.308 126.711 209.709 127.27C210.41 128.194 210.991 129.202 211.439 130.27C212.849 133.34 214.209 136.39 215.769 139.92ZM235.849 178.78C235.509 176.36 235.329 173.91 234.849 171.54C233.432 164.796 229.616 158.795 224.109 154.65C221.066 152.329 217.55 150.704 213.809 149.89C211.222 149.41 208.584 149.262 205.959 149.45C204.578 149.542 203.209 149.763 201.869 150.11C201.399 150.24 200.819 150.4 199.779 150.77C196.989 151.77 194.879 152.77 194.709 152.84C190.709 154.84 173.709 182.06 187.259 197.84C194.059 205.77 202.769 209.14 213.029 207.18C226.539 204.54 235.539 192.98 235.849 178.78V178.78ZM191.739 146.52L186.139 142.52L186.889 149.73L191.739 146.52ZM225.399 139.52L225.059 139.35L220.449 145.03L224.299 146.85C224.689 144.24 225.039 141.88 225.399 139.52V139.52ZM206.869 136.89L204.669 142.45H209.399L206.869 136.89ZM233.929 154.83C235.029 153.24 235.929 151.83 236.929 150.47L236.539 150.07L231.539 152.31L233.929 154.83Z" fill="#3558A2"/>
<path d="M203.39 57.8507C199.87 56.2107 198.49 53.4307 198.07 49.9707C197.869 48.7533 198.027 47.5038 198.524 46.3745C199.022 45.2453 199.837 44.285 200.87 43.6107C203.07 42.0407 205.42 41.3707 207.99 42.7407C209.309 43.3605 210.487 44.2435 211.452 45.3356C212.416 46.4276 213.148 47.7055 213.6 49.0907C213.75 49.5907 213.97 50.0908 214.28 50.8908C215.35 50.2208 216.28 49.7007 217.11 49.1107C217.63 48.7607 218.03 48.2308 218.56 47.8808C219.184 47.42 219.948 47.1875 220.724 47.2221C221.499 47.2566 222.239 47.5562 222.82 48.0708C223.426 48.5772 223.808 49.3023 223.883 50.0886C223.958 50.8749 223.72 51.659 223.22 52.2708C222.12 53.5844 220.886 54.7807 219.54 55.8407C218.981 56.3229 218.317 56.6656 217.6 56.8407C212.86 57.9307 209.54 61.0507 206.51 64.5707C209.882 66.7834 212.758 69.6727 214.954 73.0553C217.151 76.4379 218.62 80.2401 219.27 84.2207C221.93 98.9907 211.18 113.721 196.33 116.001C180.9 118.361 163.76 107.281 163.14 88.1007C162.69 73.9307 172.44 63.1008 185.14 60.4608C188.607 59.6928 192.195 59.6486 195.68 60.3307C198.58 60.8807 200.85 59.2807 203.39 57.8507ZM191.15 66.7507C188.445 66.6655 185.751 67.1162 183.222 68.0769C180.692 69.0376 178.378 70.4893 176.412 72.3483C174.446 74.2074 172.867 76.437 171.767 78.9088C170.666 81.3806 170.066 84.0458 170 86.7507C169.915 89.6563 170.404 92.5502 171.44 95.2662C172.476 97.9822 174.038 100.467 176.036 102.578C178.035 104.689 180.431 106.384 183.086 107.567C185.741 108.75 188.604 109.397 191.51 109.471C196.96 109.606 202.243 107.589 206.217 103.857C210.19 100.125 212.534 94.9781 212.74 89.5307C213.21 78.2507 204.14 66.6207 191.15 66.7507Z" fill="#3558A2"/>
<path d="M123.83 194.312C129.83 202.232 137.83 206.443 146.83 208.863C148.335 209.199 149.869 209.39 151.41 209.433C151.91 209.431 152.394 209.604 152.78 209.921C153.165 210.239 153.427 210.682 153.52 211.173C159.2 230.322 146.6 248.792 128.58 250.662C111.35 252.442 97.3104 239.342 95.3404 224.082C94.9304 220.892 95.3404 217.592 95.3404 214.352C95.3113 213.617 95.5479 212.896 96.0071 212.322C96.4662 211.747 97.1171 211.357 97.8404 211.222C98.7804 210.912 99.7705 210.743 100.74 210.513C107.89 208.813 113.37 204.323 118.74 199.633C120.51 198.033 122.08 196.132 123.83 194.312ZM124.44 235.312C125.828 235.168 127.198 234.887 128.53 234.472C131.29 233.332 133.53 231.562 134.1 228.352C134.232 227.659 134.13 226.942 133.811 226.312C133.492 225.682 132.974 225.176 132.337 224.871C131.701 224.567 130.981 224.481 130.291 224.628C129.601 224.774 128.978 225.145 128.52 225.683C128.2 226.003 127.96 226.392 127.67 226.742C126.03 228.682 124.2 228.842 122.3 227.152C121.63 226.552 121.09 225.802 120.41 225.212C119.85 224.677 119.122 224.351 118.349 224.291C117.576 224.231 116.807 224.44 116.17 224.882C115.543 225.35 115.106 226.028 114.939 226.793C114.772 227.557 114.886 228.356 115.26 229.042C116.153 230.765 117.458 232.24 119.061 233.334C120.663 234.428 122.511 235.108 124.44 235.312V235.312ZM122.01 217.043C122.037 216.126 121.7 215.237 121.072 214.57C120.444 213.902 119.576 213.511 118.66 213.482C117.744 213.512 116.874 213.89 116.226 214.538C115.578 215.186 115.2 216.056 115.17 216.972C115.159 217.889 115.504 218.775 116.133 219.443C116.761 220.111 117.624 220.509 118.54 220.553C119.459 220.524 120.331 220.144 120.977 219.491C121.623 218.838 121.993 217.961 122.01 217.043V217.043ZM134.08 217.462C134.109 217.019 134.048 216.574 133.899 216.156C133.75 215.737 133.518 215.353 133.215 215.027C132.913 214.701 132.548 214.44 132.142 214.26C131.735 214.08 131.297 213.985 130.852 213.98C130.408 213.976 129.967 214.061 129.557 214.233C129.147 214.404 128.777 214.657 128.468 214.976C128.158 215.295 127.918 215.674 127.76 216.09C127.602 216.505 127.531 216.949 127.55 217.393C127.587 218.228 127.942 219.018 128.543 219.6C129.144 220.182 129.946 220.511 130.782 220.52C131.619 220.529 132.427 220.217 133.04 219.648C133.654 219.08 134.026 218.297 134.08 217.462V217.462Z" fill="#979FBB"/>
<path d="M117.681 182.072C116.171 182.613 114.559 182.811 112.962 182.652C111.366 182.493 109.825 181.981 108.451 181.152C107.378 180.451 106.091 180.155 104.819 180.316C103.548 180.477 102.375 181.086 101.511 182.032C100.581 182.902 99.5911 183.692 98.6011 184.482C97.1013 185.745 95.3005 186.6 93.3732 186.963C91.4459 187.325 89.4575 187.184 87.6011 186.552C83.4511 185.302 82.601 185.712 80.061 189.142C79.169 190.391 78.0857 191.491 76.8511 192.402C75.6404 193.4 74.1139 193.934 72.5453 193.908C70.9766 193.882 69.4684 193.299 68.291 192.262C66.291 190.752 64.521 189.212 61.711 189.732C61.121 189.842 59.9811 188.732 59.6111 187.952C57.7911 184.082 59.311 177.862 62.681 175.302C63.4223 174.694 64.3299 174.325 65.2848 174.243C66.2396 174.161 67.1969 174.37 68.031 174.842C71.391 176.532 72.761 176.172 75.031 173.272C75.6234 172.474 76.2717 171.718 76.9711 171.012C80.3711 167.772 83.971 167.562 87.331 170.762C90.051 173.342 92.641 173.702 95.901 171.862C97.7429 170.897 99.7231 170.222 101.771 169.862C102.94 169.596 104.163 169.706 105.266 170.177C106.368 170.647 107.294 171.454 107.911 172.482C109.681 175.132 111.781 176.602 115.181 175.912C117.011 175.532 117.791 176.462 117.861 178.432C117.891 179.622 117.751 180.812 117.681 182.072Z" fill="#EAECF1"/>
<path d="M129.561 189.622C136.261 189.512 144.981 196.052 148.561 201.763C142.951 201.863 130.841 194.692 129.561 189.622Z" fill="#EAECF1"/>
<path d="M99.0508 203.681C103.781 196.101 110.051 191.511 118.461 189.531C115.851 194.441 105.101 202.421 99.0508 203.681Z" fill="#EAECF1"/>
<path d="M86.2109 134.191C89.5269 129.879 91.9106 124.924 93.2109 119.641C94.7176 114.426 95.2963 108.987 94.9209 103.571C99.6009 99.1614 104.461 94.5715 109.391 89.9915C110.023 89.5051 110.794 89.2351 111.591 89.2215C116.99 89.0106 122.326 90.4461 126.891 93.3375C131.456 96.229 135.034 100.44 137.151 105.411L132.231 109.751C130.931 109.521 129.231 108.751 128.091 109.171C126.491 109.791 125.165 110.961 124.351 112.471C122.779 115.916 121.475 119.476 120.451 123.121C120.307 123.557 120.256 124.018 120.3 124.475C120.344 124.931 120.483 125.374 120.708 125.774C120.933 126.174 121.239 126.522 121.606 126.797C121.973 127.072 122.394 127.268 122.841 127.371C124.641 127.801 126.171 126.791 126.911 124.661C127.321 123.491 127.701 122.321 128.261 120.661C128.681 122.321 128.891 123.391 129.261 124.421C129.911 126.521 131.401 127.761 133.101 127.681C134.801 127.601 136.381 126.111 136.721 123.851C137.001 121.971 137.111 120.071 137.351 118.181C137.471 117.181 137.711 116.241 137.961 114.951C138.64 115.593 139.179 116.369 139.544 117.23C139.909 118.09 140.092 119.017 140.081 119.951C139.601 131.951 134.261 141.281 123.611 146.881C113.481 152.191 103.441 151.271 94.2109 144.301C90.7062 141.689 87.9479 138.203 86.2109 134.191V134.191ZM114.331 103.361C113.901 103.334 113.47 103.395 113.064 103.542C112.659 103.689 112.289 103.918 111.976 104.215C111.664 104.511 111.416 104.869 111.248 105.266C111.08 105.663 110.996 106.091 111.001 106.521C110.966 106.951 111.021 107.383 111.163 107.789C111.304 108.196 111.529 108.569 111.822 108.884C112.116 109.2 112.472 109.45 112.868 109.62C113.263 109.79 113.69 109.876 114.121 109.871C114.987 109.848 115.809 109.482 116.407 108.855C117.005 108.227 117.33 107.388 117.311 106.521C117.333 106.118 117.272 105.713 117.134 105.333C116.995 104.953 116.781 104.605 116.505 104.31C116.228 104.015 115.895 103.779 115.525 103.616C115.155 103.453 114.755 103.366 114.351 103.361H114.331ZM128.601 103.271C128.597 102.865 128.513 102.463 128.353 102.089C128.194 101.715 127.962 101.376 127.671 101.092C127.38 100.807 127.036 100.583 126.659 100.432C126.281 100.281 125.878 100.206 125.471 100.211C124.835 100.202 124.211 100.383 123.679 100.732C123.147 101.081 122.732 101.581 122.488 102.169C122.243 102.756 122.18 103.403 122.307 104.026C122.434 104.649 122.745 105.22 123.2 105.665C123.655 106.11 124.233 106.408 124.859 106.521C125.485 106.634 126.13 106.556 126.712 106.298C127.293 106.041 127.784 105.614 128.121 105.075C128.458 104.535 128.625 103.907 128.601 103.271Z" fill="#EAECF1"/>
<path d="M80.3314 106.441C79.6957 104.108 79.9193 101.623 80.9614 99.441C81.8893 97.1881 83.2022 95.1138 84.8414 93.311C88.7941 89.4528 92.9785 85.8395 97.3714 82.4911C99.6914 80.7511 102.671 79.8311 105.371 78.6711C106.228 78.3717 107.142 78.2758 108.041 78.3911C109.331 78.5111 109.671 79.3911 108.971 80.5011C108.694 80.9625 108.358 81.386 107.971 81.7611C99.4847 89.5211 90.9881 97.2778 82.4814 105.031C81.7968 105.548 81.0785 106.019 80.3314 106.441V106.441Z" fill="#979FBB"/>
<path d="M87.8717 109.902C87.8717 115.632 86.0716 120.522 83.6516 125.702C82.4916 121.402 83.1317 117.562 83.4917 113.702C83.6217 112.362 84.7217 111.532 87.8717 109.902Z" fill="white"/>
<path d="M205.931 149.451C212.422 148.819 218.91 150.678 224.081 154.651C229.587 158.796 233.403 164.797 234.821 171.541C235.331 173.911 235.511 176.361 235.821 178.781C235.511 192.981 226.511 204.541 212.971 207.131C202.711 209.131 193.971 205.721 187.201 197.791C175.201 183.791 178.881 161.791 194.651 152.791L205.931 149.451ZM208.911 187.241C211.557 187.173 214.102 186.211 216.131 184.511C216.842 184.008 217.332 183.251 217.5 182.396C217.667 181.542 217.499 180.655 217.031 179.921C216.556 179.249 215.857 178.769 215.059 178.567C214.262 178.366 213.418 178.456 212.681 178.821C206.761 181.141 206.761 181.141 202.681 176.281C202.243 175.699 201.622 175.282 200.918 175.095C200.214 174.908 199.468 174.964 198.799 175.252C198.13 175.54 197.577 176.045 197.229 176.685C196.882 177.325 196.759 178.063 196.881 178.781C197.019 179.674 197.339 180.528 197.821 181.291C200.211 185.031 203.541 187.261 208.941 187.291L208.911 187.241ZM214.911 168.761C214.011 168.82 213.164 169.21 212.534 169.856C211.904 170.503 211.536 171.359 211.501 172.261C211.525 173.176 211.911 174.044 212.575 174.674C213.239 175.304 214.126 175.645 215.041 175.621C215.956 175.597 216.824 175.211 217.454 174.547C218.084 173.883 218.425 172.996 218.401 172.081C218.377 171.195 218.005 170.355 217.364 169.742C216.724 169.13 215.867 168.795 214.981 168.811L214.911 168.761ZM205.971 169.591C205.963 168.98 205.773 168.386 205.427 167.883C205.08 167.38 204.591 166.992 204.023 166.768C203.455 166.543 202.833 166.493 202.236 166.623C201.639 166.753 201.095 167.057 200.671 167.497C200.248 167.938 199.965 168.494 199.859 169.095C199.752 169.697 199.827 170.317 200.073 170.875C200.32 171.434 200.727 171.907 201.243 172.234C201.759 172.561 202.36 172.727 202.971 172.711C203.379 172.721 203.784 172.647 204.162 172.495C204.54 172.343 204.883 172.116 205.171 171.827C205.458 171.537 205.683 171.193 205.833 170.813C205.983 170.434 206.053 170.029 206.041 169.621L205.971 169.591Z" fill="white"/>
<path d="M191.741 146.522L186.891 149.732L186.141 142.521L191.741 146.522Z" fill="white"/>
<path d="M225.401 139.522C225.041 141.882 224.691 144.242 224.301 146.852L220.451 145.032L225.061 139.352L225.401 139.522Z" fill="white"/>
<path d="M206.87 136.891L209.4 142.451H204.67L206.87 136.891Z" fill="white"/>
<path d="M233.93 154.83L231.57 152.31L236.57 150.07L236.96 150.47C235.98 151.85 235.03 153.24 233.93 154.83Z" fill="white"/>
<path d="M191.152 66.7524C204.152 66.5924 213.242 78.2524 212.742 89.4824C212.536 94.9299 210.192 100.077 206.218 103.809C202.245 107.541 196.961 109.558 191.512 109.422C188.606 109.349 185.743 108.702 183.088 107.519C180.432 106.336 178.037 104.641 176.038 102.53C174.04 100.419 172.478 97.9339 171.442 95.2179C170.406 92.5018 169.916 89.6081 170.002 86.7024C170.074 84.0018 170.679 81.342 171.783 78.876C172.886 76.4099 174.466 74.1861 176.431 72.3324C178.396 70.4786 180.708 69.0313 183.235 68.0738C185.761 67.1162 188.451 66.6671 191.152 66.7524V66.7524ZM192.492 98.0024C193.586 97.8747 194.669 97.6641 195.732 97.3724C196.482 97.161 197.126 96.6763 197.537 96.0137C197.948 95.3511 198.096 94.5587 197.952 93.7925C197.903 93.0144 197.553 92.2859 196.976 91.7613C196.399 91.2368 195.641 90.9575 194.862 90.9824C191.072 91.4124 187.972 90.7224 185.632 87.3824C184.832 86.2324 183.252 86.1824 181.902 86.9025C181.251 87.2429 180.743 87.8054 180.472 88.488C180.2 89.1705 180.182 89.9279 180.422 90.6224C180.617 91.31 180.928 91.9593 181.342 92.5425C183.902 96.2925 187.622 97.7924 192.492 98.0024ZM187.332 84.3624C187.786 84.3457 188.233 84.2395 188.646 84.0499C189.06 83.8604 189.432 83.5912 189.741 83.2578C190.05 82.9244 190.291 82.5332 190.449 82.1067C190.607 81.6803 190.679 81.2269 190.662 80.7724C190.573 79.8602 190.138 79.0167 189.446 78.4157C188.754 77.8148 187.857 77.5022 186.942 77.5424C186.07 77.6369 185.268 78.0627 184.701 78.7318C184.134 79.401 183.846 80.2622 183.896 81.1377C183.946 82.0132 184.33 82.836 184.97 83.4361C185.609 84.0363 186.455 84.3679 187.332 84.3624V84.3624ZM200.562 85.4524C200.556 84.5843 200.207 83.7536 199.59 83.1425C198.974 82.5314 198.14 82.1898 197.272 82.1924C196.82 82.1817 196.371 82.2619 195.95 82.4283C195.53 82.5948 195.148 82.844 194.826 83.1612C194.504 83.4784 194.249 83.8571 194.077 84.2748C193.904 84.6924 193.817 85.1405 193.822 85.5924C193.811 86.023 193.887 86.4515 194.047 86.8514C194.207 87.2514 194.447 87.6145 194.753 87.9187C195.058 88.2228 195.422 88.4617 195.822 88.6205C196.222 88.7793 196.651 88.8548 197.082 88.8424C197.534 88.8544 197.985 88.7756 198.407 88.6106C198.828 88.4457 199.213 88.1979 199.537 87.8819C199.861 87.5659 200.119 87.1881 200.295 86.7709C200.471 86.3536 200.562 85.9053 200.562 85.4524V85.4524Z" fill="#979FBB"/>
<path d="M124.44 235.313C122.51 235.108 120.662 234.428 119.06 233.334C117.458 232.24 116.152 230.765 115.26 229.043C114.885 228.356 114.771 227.557 114.938 226.793C115.106 226.029 115.543 225.35 116.17 224.883C116.806 224.44 117.576 224.231 118.348 224.291C119.121 224.352 119.849 224.677 120.41 225.213C121.09 225.803 121.63 226.553 122.3 227.153C124.2 228.843 126.03 228.683 127.67 226.743C127.96 226.393 128.2 226.003 128.52 225.683C128.977 225.145 129.6 224.775 130.29 224.628C130.98 224.481 131.7 224.567 132.337 224.871C132.973 225.176 133.491 225.683 133.81 226.312C134.129 226.942 134.231 227.659 134.1 228.353C133.56 231.563 131.29 233.353 128.53 234.473C127.197 234.887 125.827 235.168 124.44 235.313V235.313Z" fill="#3558A2"/>
<path d="M122.01 217.04C121.993 217.959 121.623 218.836 120.977 219.489C120.331 220.142 119.458 220.522 118.54 220.55C117.624 220.506 116.761 220.109 116.132 219.441C115.504 218.773 115.159 217.887 115.17 216.97C115.2 216.054 115.577 215.184 116.226 214.536C116.874 213.888 117.744 213.51 118.66 213.48C119.576 213.509 120.444 213.9 121.072 214.568C121.7 215.235 122.037 216.124 122.01 217.04Z" fill="#3558A2"/>
<path d="M134.08 217.463C134.026 218.297 133.653 219.08 133.04 219.648C132.426 220.217 131.618 220.529 130.782 220.52C129.945 220.511 129.144 220.182 128.543 219.6C127.942 219.019 127.586 218.229 127.55 217.393C127.531 216.949 127.602 216.506 127.76 216.09C127.917 215.675 128.158 215.296 128.467 214.976C128.776 214.657 129.147 214.404 129.557 214.233C129.967 214.062 130.408 213.976 130.852 213.981C131.296 213.985 131.735 214.081 132.141 214.261C132.548 214.441 132.913 214.701 133.215 215.027C133.517 215.353 133.75 215.737 133.898 216.156C134.047 216.575 134.109 217.019 134.08 217.463V217.463Z" fill="#3558A2"/>
<path d="M114.351 103.361C114.759 103.36 115.163 103.443 115.538 103.603C115.913 103.764 116.251 103.999 116.531 104.295C116.812 104.591 117.03 104.941 117.171 105.323C117.312 105.706 117.373 106.113 117.351 106.521C117.37 107.387 117.045 108.226 116.447 108.854C115.85 109.482 115.028 109.847 114.161 109.871C113.731 109.875 113.304 109.789 112.908 109.619C112.512 109.449 112.156 109.199 111.863 108.884C111.569 108.568 111.345 108.196 111.203 107.789C111.062 107.382 111.007 106.95 111.041 106.521C111.037 106.092 111.12 105.666 111.287 105.27C111.453 104.875 111.699 104.518 112.01 104.222C112.32 103.925 112.688 103.696 113.091 103.548C113.494 103.4 113.923 103.336 114.351 103.361V103.361Z" fill="#3558A2"/>
<path d="M128.621 103.271C128.634 103.893 128.463 104.505 128.127 105.029C127.792 105.553 127.308 105.965 126.738 106.212C126.167 106.46 125.536 106.532 124.924 106.419C124.312 106.307 123.748 106.014 123.303 105.579C122.858 105.145 122.553 104.587 122.427 103.978C122.3 103.369 122.358 102.736 122.593 102.16C122.827 101.584 123.228 101.091 123.745 100.744C124.261 100.397 124.869 100.211 125.491 100.211C125.897 100.206 126.301 100.281 126.678 100.432C127.056 100.583 127.4 100.807 127.691 101.091C127.982 101.376 128.213 101.715 128.373 102.089C128.532 102.463 128.617 102.865 128.621 103.271Z" fill="#3558A2"/>
<path d="M208.94 187.291C203.54 187.291 200.22 185.031 197.8 181.291C197.318 180.528 196.998 179.673 196.86 178.781C196.738 178.063 196.861 177.325 197.209 176.685C197.557 176.045 198.109 175.54 198.778 175.252C199.447 174.964 200.193 174.908 200.897 175.095C201.601 175.281 202.222 175.699 202.66 176.281C206.79 181.141 206.79 181.141 212.66 178.821C213.397 178.455 214.241 178.366 215.039 178.567C215.836 178.769 216.536 179.249 217.01 179.921C217.479 180.655 217.646 181.541 217.479 182.396C217.311 183.251 216.821 184.008 216.11 184.511C214.102 186.218 211.575 187.198 208.94 187.291Z" fill="#3558A2"/>
<path d="M214.98 168.811C215.429 168.794 215.877 168.866 216.297 169.025C216.717 169.184 217.101 169.425 217.426 169.734C217.752 170.044 218.012 170.415 218.191 170.827C218.37 171.239 218.465 171.682 218.47 172.131C218.494 173.046 218.154 173.933 217.523 174.597C216.893 175.261 216.025 175.647 215.11 175.671C214.195 175.695 213.308 175.355 212.644 174.724C211.981 174.094 211.594 173.226 211.57 172.311C211.605 171.409 211.974 170.553 212.603 169.906C213.233 169.26 214.08 168.87 214.98 168.811Z" fill="#3558A2"/>
<path d="M206.042 169.622C206.026 170.231 205.83 170.821 205.478 171.319C205.126 171.816 204.635 172.198 204.067 172.416C203.498 172.635 202.877 172.68 202.283 172.545C201.689 172.411 201.148 172.103 200.729 171.662C200.31 171.22 200.031 170.664 199.927 170.064C199.824 169.463 199.901 168.846 200.149 168.289C200.396 167.733 200.803 167.262 201.318 166.937C201.833 166.612 202.433 166.446 203.042 166.462C203.45 166.461 203.853 166.544 204.228 166.705C204.603 166.865 204.941 167.101 205.222 167.396C205.503 167.692 205.72 168.042 205.861 168.425C206.002 168.807 206.063 169.215 206.042 169.622V169.622Z" fill="#3558A2"/>
<path d="M192.491 98.0012C187.621 97.7912 183.901 96.2913 181.341 92.5413C180.928 91.9581 180.617 91.3088 180.421 90.6212C180.182 89.9266 180.2 89.1693 180.471 88.4868C180.743 87.8042 181.25 87.2417 181.901 86.9012C183.251 86.1812 184.831 86.2312 185.631 87.3812C187.971 90.7212 191.071 91.3812 194.861 90.9812C195.64 90.9563 196.399 91.2356 196.976 91.7601C197.552 92.2846 197.902 93.0132 197.951 93.7913C198.095 94.5575 197.947 95.3499 197.537 96.0125C197.126 96.675 196.482 97.1598 195.731 97.3712C194.669 97.6629 193.586 97.8735 192.491 98.0012V98.0012Z" fill="#3558A2"/>
<path d="M187.33 84.3624C186.453 84.3678 185.608 84.0362 184.968 83.4361C184.329 82.836 183.944 82.0132 183.894 81.1378C183.844 80.2623 184.132 79.401 184.699 78.7319C185.266 78.0628 186.068 77.637 186.94 77.5425C187.856 77.5024 188.752 77.8149 189.444 78.4158C190.136 79.0167 190.571 79.8602 190.66 80.7725C190.677 81.2269 190.605 81.6803 190.447 82.1067C190.289 82.5332 190.049 82.9243 189.739 83.2578C189.43 83.5912 189.058 83.8603 188.645 84.0499C188.231 84.2394 187.784 84.3456 187.33 84.3624V84.3624Z" fill="#3558A2"/>
<path d="M200.561 85.4524C200.562 85.9053 200.471 86.3536 200.295 86.7709C200.119 87.1882 199.861 87.5659 199.537 87.8819C199.212 88.1979 198.828 88.4457 198.406 88.6107C197.985 88.7757 197.534 88.8545 197.081 88.8424C196.651 88.8548 196.222 88.7793 195.822 88.6205C195.421 88.4617 195.057 88.2229 194.752 87.9187C194.447 87.6146 194.207 87.2514 194.047 86.8514C193.887 86.4515 193.81 86.023 193.821 85.5924C193.817 85.1405 193.904 84.6924 194.076 84.2747C194.249 83.8571 194.504 83.4783 194.826 83.1611C195.148 82.8439 195.53 82.5947 195.95 82.4283C196.37 82.2618 196.82 82.1816 197.271 82.1924C198.14 82.1897 198.973 82.5314 199.59 83.1424C200.207 83.7535 200.556 84.5842 200.561 85.4524V85.4524Z" fill="#3558A2"/>
<path d="M98.3307 193.033C95.8707 193.313 93.3307 194.173 90.9407 193.753C87.1507 193.083 84.7907 194.353 82.0807 196.923C77.0807 201.713 70.0807 201.743 64.3007 197.923C63.4314 197.303 62.4272 196.898 61.3707 196.743C59.5395 196.664 57.7774 196.021 56.3256 194.903C54.8738 193.784 53.8034 192.244 53.2607 190.493C50.5707 183.023 52.2607 176.393 57.6107 170.683C60.1007 168.043 63.3907 167.443 66.8607 167.623C67.9307 167.683 69.0008 167.933 70.2708 168.123C72.9708 164.983 76.2707 162.473 80.6007 161.863C84.9307 161.253 88.7907 162.863 91.9807 165.713C94.8507 164.863 97.5707 163.883 100.371 163.303C102.551 162.793 104.829 162.903 106.95 163.62C109.071 164.338 110.948 165.634 112.371 167.363C112.792 167.925 113.341 168.379 113.972 168.689C114.603 168.998 115.298 169.154 116.001 169.143C120.931 169.223 124.441 172.843 124.721 177.793C124.811 179.223 124.721 180.673 124.721 182.193C130.671 182.674 136.458 184.376 141.721 187.193C153.721 193.333 159.561 203.473 161.291 216.283C162.52 225.318 160.33 234.487 155.151 241.992C149.971 249.497 142.175 254.797 133.291 256.853C115.611 261.033 96.8107 250.663 90.5407 232.853C85.6207 218.853 87.8307 205.853 97.4307 194.393C97.6707 194.113 97.9107 193.843 98.1307 193.553C98.2277 193.393 98.2954 193.217 98.3307 193.033V193.033ZM123.831 194.313C122.081 196.133 120.511 198.033 118.691 199.633C113.351 204.323 107.871 208.813 100.691 210.513C99.6907 210.743 98.6907 210.913 97.7907 211.223C97.0673 211.357 96.4165 211.747 95.9574 212.322C95.4983 212.897 95.2615 213.618 95.2907 214.353C95.2907 217.593 94.9207 220.893 95.2907 224.083C97.2907 239.343 111.291 252.443 128.531 250.663C146.531 248.793 159.151 230.323 153.471 211.173C153.377 210.682 153.115 210.24 152.73 209.922C152.344 209.604 151.86 209.431 151.361 209.433C149.819 209.39 148.285 209.199 146.781 208.863C137.781 206.443 129.801 202.233 123.831 194.313ZM117.681 182.073C117.751 180.813 117.891 179.643 117.851 178.483C117.781 176.483 117.001 175.583 115.171 175.963C111.771 176.653 109.671 175.183 107.901 172.533C107.284 171.505 106.358 170.698 105.255 170.228C104.153 169.757 102.93 169.647 101.761 169.913C99.7127 170.273 97.7327 170.948 95.8908 171.913C92.6308 173.753 90.0407 173.393 87.3207 170.813C83.9307 167.613 80.3207 167.813 76.9607 171.063C76.2614 171.769 75.6131 172.524 75.0208 173.323C72.7608 176.223 71.3908 176.583 68.0208 174.893C67.1867 174.421 66.2292 174.212 65.2744 174.294C64.3196 174.376 63.4119 174.745 62.6707 175.353C59.3007 177.913 57.7807 184.133 59.6007 188.003C59.9707 188.793 61.1107 189.893 61.7007 189.783C64.5107 189.263 66.3106 190.783 68.2806 192.313C69.458 193.35 70.9663 193.933 72.5349 193.959C74.1036 193.985 75.6301 193.451 76.8407 192.453C78.0754 191.542 79.1586 190.441 80.0507 189.193C82.5507 185.763 83.4407 185.353 87.5907 186.603C89.4472 187.235 91.4355 187.376 93.3628 187.014C95.2901 186.651 97.0909 185.796 98.5907 184.533C99.5907 183.743 100.591 182.953 101.501 182.083C102.365 181.136 103.538 180.528 104.809 180.367C106.08 180.206 107.368 180.502 108.441 181.203C109.82 182.025 111.364 182.529 112.963 182.68C114.561 182.83 116.173 182.623 117.681 182.073V182.073ZM129.561 189.623C130.841 194.693 142.951 201.863 148.561 201.763C144.981 196.053 136.261 189.513 129.561 189.623ZM99.0507 203.683C105.101 202.423 115.851 194.443 118.461 189.533C110.061 191.513 103.781 196.103 99.0507 203.683Z" fill="#3558A2"/>
<path d="M90.3302 78.971C91.5402 78.121 92.5501 77.391 93.5701 76.681C97.05 74.2048 101.018 72.5001 105.21 71.681C112.37 70.321 116.82 74.411 116.14 81.681C116.161 81.9206 116.215 82.1562 116.3 82.381C117.3 82.581 118.3 82.761 119.35 83.001C130.63 85.611 138.6 92.331 143.52 102.711C143.791 103.465 144.221 104.151 144.782 104.723C145.343 105.294 146.021 105.737 146.77 106.021C147.923 106.545 148.965 107.285 149.84 108.201C151.59 109.781 153.25 111.461 154.94 113.111C155.266 113.412 155.557 113.747 155.81 114.111C156.282 114.73 156.526 115.493 156.5 116.271C156.475 117.049 156.182 117.794 155.67 118.381C155.127 118.94 154.405 119.291 153.63 119.371C152.855 119.452 152.076 119.257 151.43 118.821C150.745 118.38 150.096 117.885 149.49 117.341L147.37 115.531C147.328 116.003 147.328 116.479 147.37 116.951C147.99 119.441 148.31 121.781 146.79 124.251C145.9 125.711 146.02 127.761 145.48 129.481C140.95 143.751 131.77 153.201 116.84 156.251C102.84 159.121 88.4301 152.171 81.1801 139.341C76.9305 131.963 75.3354 123.352 76.6601 114.941C76.7898 114.167 76.6181 113.372 76.1801 112.721C72.5401 108.561 72.5501 103.841 73.9001 98.8911C75.2819 93.9597 78.1357 89.5674 82.0802 86.301C83.5102 85.061 84.2802 83.961 83.4902 81.921C83.1788 80.6058 83.1788 79.2361 83.4902 77.921C83.5609 77.0495 83.9437 76.2328 84.5683 75.6211C85.193 75.0093 86.0175 74.6435 86.8902 74.591C88.5002 74.591 89.5902 75.591 90.0902 77.671C90.1302 78.021 90.2102 78.351 90.3302 78.971ZM86.2302 134.191C87.9563 138.181 90.6929 141.652 94.1701 144.261C103.4 151.261 113.44 152.151 123.57 146.841C134.22 141.241 139.57 131.931 140.04 119.911C140.051 118.976 139.868 118.05 139.503 117.189C139.139 116.329 138.599 115.553 137.92 114.911C137.67 116.201 137.43 117.161 137.31 118.141C137.07 120.031 136.96 121.931 136.68 123.811C136.34 126.071 134.87 127.561 133.06 127.641C131.25 127.721 129.87 126.481 129.22 124.381C128.9 123.381 128.69 122.281 128.22 120.621C127.66 122.311 127.28 123.481 126.87 124.621C126.13 126.751 124.6 127.761 122.8 127.331C122.353 127.228 121.933 127.032 121.565 126.757C121.198 126.482 120.892 126.133 120.667 125.733C120.442 125.334 120.303 124.891 120.259 124.434C120.215 123.978 120.266 123.517 120.41 123.081C121.435 119.436 122.738 115.876 124.31 112.431C125.125 110.921 126.451 109.751 128.05 109.131C129.24 108.691 130.89 109.481 132.19 109.711L137.11 105.371C134.993 100.399 131.415 96.1885 126.85 93.2971C122.286 90.4056 116.95 88.9702 111.55 89.181C110.753 89.1947 109.982 89.4647 109.35 89.951C104.42 94.491 99.5602 99.1211 94.8802 103.531C95.271 108.951 94.7057 114.397 93.2102 119.621C91.9124 124.911 89.5286 129.872 86.2102 134.191H86.2302ZM80.3302 106.441C81.0788 106.003 81.7971 105.515 82.4802 104.981C90.9869 97.241 99.4835 89.4844 107.97 81.711C108.356 81.3359 108.693 80.9124 108.97 80.451C109.67 79.321 109.33 78.451 108.04 78.341C107.14 78.2257 106.226 78.3216 105.37 78.621C102.64 79.781 99.6602 80.701 97.3702 82.441C92.9773 85.7894 88.7928 89.4028 84.8402 93.261C83.201 95.0638 81.8881 97.1381 80.9602 99.3911C79.9058 101.588 79.682 104.092 80.3302 106.441V106.441ZM87.8702 109.901C84.7202 111.531 83.6202 112.361 83.4902 113.741C83.1302 117.561 82.4901 121.401 83.6501 125.741C86.0701 120.521 87.8502 115.621 87.8702 109.901V109.901Z" fill="#3558A2"/>
<path d="M215.769 139.92C217.769 137.54 219.289 135.55 220.959 133.65C222.261 132.137 223.65 130.701 225.119 129.35C225.723 128.725 226.5 128.296 227.351 128.118C228.201 127.939 229.086 128.02 229.889 128.35C230.758 128.663 231.501 129.252 232.003 130.027C232.505 130.801 232.739 131.72 232.669 132.64C232.529 135.88 232.139 139.12 231.839 142.36C231.779 143.05 231.689 143.75 231.579 144.78C233.439 143.96 234.969 143.2 236.579 142.62C238.423 141.873 240.326 141.284 242.269 140.86C246.079 140.18 248.429 143.09 246.989 146.71C246.167 148.632 245.162 150.47 243.989 152.2C242.099 155.2 240.059 158.06 238.069 161.02C240.229 165.162 241.635 169.656 242.219 174.29C244.519 193.16 231.899 211.17 212.999 214.18C197.749 216.6 179.179 207.03 174.409 187.18C171.819 176.45 173.769 166.5 179.909 157.37C180.278 156.829 180.534 156.219 180.661 155.576C180.789 154.933 180.785 154.271 180.649 153.63C180.019 148.51 179.649 143.35 179.289 138.2C179.147 137.291 179.288 136.361 179.692 135.535C180.097 134.708 180.745 134.026 181.549 133.58C183.449 132.58 185.279 133.14 186.889 134.33C189.959 136.59 192.969 138.93 195.999 141.23C196.349 141.5 196.719 141.72 197.429 142.23L201.659 131.23C202.015 130.109 202.446 129.013 202.949 127.95C203.232 127.322 203.675 126.779 204.233 126.376C204.792 125.974 205.447 125.725 206.133 125.656C206.818 125.587 207.51 125.7 208.138 125.984C208.766 126.267 209.308 126.711 209.709 127.27C210.41 128.194 210.991 129.202 211.439 130.27C212.849 133.34 214.209 136.39 215.769 139.92ZM235.849 178.78C235.509 176.36 235.329 173.91 234.849 171.54C233.432 164.796 229.616 158.795 224.109 154.65C221.066 152.329 217.55 150.704 213.809 149.89C211.222 149.41 208.584 149.262 205.959 149.45C204.578 149.542 203.209 149.763 201.869 150.11C201.399 150.24 200.819 150.4 199.779 150.77C196.989 151.77 194.879 152.77 194.709 152.84C190.709 154.84 173.709 182.06 187.259 197.84C194.059 205.77 202.769 209.14 213.029 207.18C226.539 204.54 235.539 192.98 235.849 178.78V178.78ZM191.739 146.52L186.139 142.52L186.889 149.73L191.739 146.52ZM225.399 139.52L225.059 139.35L220.449 145.03L224.299 146.85C224.689 144.24 225.039 141.88 225.399 139.52V139.52ZM206.869 136.89L204.669 142.45H209.399L206.869 136.89ZM233.929 154.83C235.029 153.24 235.929 151.83 236.929 150.47L236.539 150.07L231.539 152.31L233.929 154.83Z" fill="#3558A2"/>
<path d="M203.39 57.8507C199.87 56.2107 198.49 53.4307 198.07 49.9707C197.869 48.7533 198.027 47.5038 198.524 46.3745C199.022 45.2453 199.837 44.285 200.87 43.6107C203.07 42.0407 205.42 41.3707 207.99 42.7407C209.309 43.3605 210.487 44.2435 211.452 45.3356C212.416 46.4276 213.148 47.7055 213.6 49.0907C213.75 49.5907 213.97 50.0908 214.28 50.8908C215.35 50.2208 216.28 49.7007 217.11 49.1107C217.63 48.7607 218.03 48.2308 218.56 47.8808C219.184 47.42 219.948 47.1875 220.724 47.2221C221.499 47.2566 222.239 47.5562 222.82 48.0708C223.426 48.5772 223.808 49.3023 223.883 50.0886C223.958 50.8749 223.72 51.659 223.22 52.2708C222.12 53.5844 220.886 54.7807 219.54 55.8407C218.981 56.3229 218.317 56.6656 217.6 56.8407C212.86 57.9307 209.54 61.0507 206.51 64.5707C209.882 66.7834 212.758 69.6727 214.954 73.0553C217.151 76.4379 218.62 80.2401 219.27 84.2207C221.93 98.9907 211.18 113.721 196.33 116.001C180.9 118.361 163.76 107.281 163.14 88.1007C162.69 73.9307 172.44 63.1008 185.14 60.4608C188.607 59.6928 192.195 59.6486 195.68 60.3307C198.58 60.8807 200.85 59.2807 203.39 57.8507ZM191.15 66.7507C188.445 66.6655 185.751 67.1162 183.222 68.0769C180.692 69.0376 178.378 70.4893 176.412 72.3483C174.446 74.2074 172.867 76.437 171.767 78.9088C170.666 81.3806 170.066 84.0458 170 86.7507C169.915 89.6563 170.404 92.5502 171.44 95.2662C172.476 97.9822 174.038 100.467 176.036 102.578C178.035 104.689 180.431 106.384 183.086 107.567C185.741 108.75 188.604 109.397 191.51 109.471C196.96 109.606 202.243 107.589 206.217 103.857C210.19 100.125 212.534 94.9781 212.74 89.5307C213.21 78.2507 204.14 66.6207 191.15 66.7507Z" fill="#3558A2"/>
<path d="M123.83 194.312C129.83 202.232 137.83 206.443 146.83 208.863C148.335 209.199 149.869 209.39 151.41 209.433C151.91 209.431 152.394 209.604 152.78 209.921C153.165 210.239 153.427 210.682 153.52 211.173C159.2 230.322 146.6 248.792 128.58 250.662C111.35 252.442 97.3104 239.342 95.3404 224.082C94.9304 220.892 95.3404 217.592 95.3404 214.352C95.3113 213.617 95.5479 212.896 96.0071 212.322C96.4662 211.747 97.1171 211.357 97.8404 211.222C98.7804 210.912 99.7705 210.743 100.74 210.513C107.89 208.813 113.37 204.323 118.74 199.633C120.51 198.033 122.08 196.132 123.83 194.312ZM124.44 235.312C125.828 235.168 127.198 234.887 128.53 234.472C131.29 233.332 133.53 231.562 134.1 228.352C134.232 227.659 134.13 226.942 133.811 226.312C133.492 225.682 132.974 225.176 132.337 224.871C131.701 224.567 130.981 224.481 130.291 224.628C129.601 224.774 128.978 225.145 128.52 225.683C128.2 226.003 127.96 226.392 127.67 226.742C126.03 228.682 124.2 228.842 122.3 227.152C121.63 226.552 121.09 225.802 120.41 225.212C119.85 224.677 119.122 224.351 118.349 224.291C117.576 224.231 116.807 224.44 116.17 224.882C115.543 225.35 115.106 226.028 114.939 226.793C114.772 227.557 114.886 228.356 115.26 229.042C116.153 230.765 117.458 232.24 119.061 233.334C120.663 234.428 122.511 235.108 124.44 235.312V235.312ZM122.01 217.043C122.037 216.126 121.7 215.237 121.072 214.57C120.444 213.902 119.576 213.511 118.66 213.482C117.744 213.512 116.874 213.89 116.226 214.538C115.578 215.186 115.2 216.056 115.17 216.972C115.159 217.889 115.504 218.775 116.133 219.443C116.761 220.111 117.624 220.509 118.54 220.553C119.459 220.524 120.331 220.144 120.977 219.491C121.623 218.838 121.993 217.961 122.01 217.043V217.043ZM134.08 217.462C134.109 217.019 134.048 216.574 133.899 216.156C133.75 215.737 133.518 215.353 133.215 215.027C132.913 214.701 132.548 214.44 132.142 214.26C131.735 214.08 131.297 213.985 130.852 213.98C130.408 213.976 129.967 214.061 129.557 214.233C129.147 214.404 128.777 214.657 128.468 214.976C128.158 215.295 127.918 215.674 127.76 216.09C127.602 216.505 127.531 216.949 127.55 217.393C127.587 218.228 127.942 219.018 128.543 219.6C129.144 220.182 129.946 220.511 130.782 220.52C131.619 220.529 132.427 220.217 133.04 219.648C133.654 219.08 134.026 218.297 134.08 217.462V217.462Z" fill="#979FBB"/>
<path d="M117.681 182.072C116.171 182.613 114.559 182.811 112.962 182.652C111.366 182.493 109.825 181.981 108.451 181.152C107.378 180.451 106.091 180.155 104.819 180.316C103.548 180.477 102.375 181.086 101.511 182.032C100.581 182.902 99.5911 183.692 98.6011 184.482C97.1013 185.745 95.3005 186.6 93.3732 186.963C91.4459 187.325 89.4575 187.184 87.6011 186.552C83.4511 185.302 82.601 185.712 80.061 189.142C79.169 190.391 78.0857 191.491 76.8511 192.402C75.6404 193.4 74.1139 193.934 72.5453 193.908C70.9766 193.882 69.4684 193.299 68.291 192.262C66.291 190.752 64.521 189.212 61.711 189.732C61.121 189.842 59.9811 188.732 59.6111 187.952C57.7911 184.082 59.311 177.862 62.681 175.302C63.4223 174.694 64.3299 174.325 65.2848 174.243C66.2396 174.161 67.1969 174.37 68.031 174.842C71.391 176.532 72.761 176.172 75.031 173.272C75.6234 172.474 76.2717 171.718 76.9711 171.012C80.3711 167.772 83.971 167.562 87.331 170.762C90.051 173.342 92.641 173.702 95.901 171.862C97.7429 170.897 99.7231 170.222 101.771 169.862C102.94 169.596 104.163 169.706 105.266 170.177C106.368 170.647 107.294 171.454 107.911 172.482C109.681 175.132 111.781 176.602 115.181 175.912C117.011 175.532 117.791 176.462 117.861 178.432C117.891 179.622 117.751 180.812 117.681 182.072Z" fill="#EAECF1"/>
<path d="M129.561 189.622C136.261 189.512 144.981 196.052 148.561 201.763C142.951 201.863 130.841 194.692 129.561 189.622Z" fill="#EAECF1"/>
<path d="M99.0508 203.681C103.781 196.101 110.051 191.511 118.461 189.531C115.851 194.441 105.101 202.421 99.0508 203.681Z" fill="#EAECF1"/>
<path d="M86.2109 134.191C89.5269 129.879 91.9106 124.924 93.2109 119.641C94.7176 114.426 95.2963 108.987 94.9209 103.571C99.6009 99.1614 104.461 94.5715 109.391 89.9915C110.023 89.5051 110.794 89.2351 111.591 89.2215C116.99 89.0106 122.326 90.4461 126.891 93.3375C131.456 96.229 135.034 100.44 137.151 105.411L132.231 109.751C130.931 109.521 129.231 108.751 128.091 109.171C126.491 109.791 125.165 110.961 124.351 112.471C122.779 115.916 121.475 119.476 120.451 123.121C120.307 123.557 120.256 124.018 120.3 124.475C120.344 124.931 120.483 125.374 120.708 125.774C120.933 126.174 121.239 126.522 121.606 126.797C121.973 127.072 122.394 127.268 122.841 127.371C124.641 127.801 126.171 126.791 126.911 124.661C127.321 123.491 127.701 122.321 128.261 120.661C128.681 122.321 128.891 123.391 129.261 124.421C129.911 126.521 131.401 127.761 133.101 127.681C134.801 127.601 136.381 126.111 136.721 123.851C137.001 121.971 137.111 120.071 137.351 118.181C137.471 117.181 137.711 116.241 137.961 114.951C138.64 115.593 139.179 116.369 139.544 117.23C139.909 118.09 140.092 119.017 140.081 119.951C139.601 131.951 134.261 141.281 123.611 146.881C113.481 152.191 103.441 151.271 94.2109 144.301C90.7062 141.689 87.9479 138.203 86.2109 134.191V134.191ZM114.331 103.361C113.901 103.334 113.47 103.395 113.064 103.542C112.659 103.689 112.289 103.918 111.976 104.215C111.664 104.511 111.416 104.869 111.248 105.266C111.08 105.663 110.996 106.091 111.001 106.521C110.966 106.951 111.021 107.383 111.163 107.789C111.304 108.196 111.529 108.569 111.822 108.884C112.116 109.2 112.472 109.45 112.868 109.62C113.263 109.79 113.69 109.876 114.121 109.871C114.987 109.848 115.809 109.482 116.407 108.855C117.005 108.227 117.33 107.388 117.311 106.521C117.333 106.118 117.272 105.713 117.134 105.333C116.995 104.953 116.781 104.605 116.505 104.31C116.228 104.015 115.895 103.779 115.525 103.616C115.155 103.453 114.755 103.366 114.351 103.361H114.331ZM128.601 103.271C128.597 102.865 128.513 102.463 128.353 102.089C128.194 101.715 127.962 101.376 127.671 101.092C127.38 100.807 127.036 100.583 126.659 100.432C126.281 100.281 125.878 100.206 125.471 100.211C124.835 100.202 124.211 100.383 123.679 100.732C123.147 101.081 122.732 101.581 122.488 102.169C122.243 102.756 122.18 103.403 122.307 104.026C122.434 104.649 122.745 105.22 123.2 105.665C123.655 106.11 124.233 106.408 124.859 106.521C125.485 106.634 126.13 106.556 126.712 106.298C127.293 106.041 127.784 105.614 128.121 105.075C128.458 104.535 128.625 103.907 128.601 103.271Z" fill="#EAECF1"/>
<path d="M80.3314 106.441C79.6957 104.108 79.9193 101.623 80.9614 99.441C81.8893 97.1881 83.2022 95.1138 84.8414 93.311C88.7941 89.4528 92.9785 85.8395 97.3714 82.4911C99.6914 80.7511 102.671 79.8311 105.371 78.6711C106.228 78.3717 107.142 78.2758 108.041 78.3911C109.331 78.5111 109.671 79.3911 108.971 80.5011C108.694 80.9625 108.358 81.386 107.971 81.7611C99.4847 89.5211 90.9881 97.2778 82.4814 105.031C81.7968 105.548 81.0785 106.019 80.3314 106.441V106.441Z" fill="#979FBB"/>
<path d="M87.8717 109.902C87.8717 115.632 86.0716 120.522 83.6516 125.702C82.4916 121.402 83.1317 117.562 83.4917 113.702C83.6217 112.362 84.7217 111.532 87.8717 109.902Z" fill="white"/>
<path d="M205.931 149.451C212.422 148.819 218.91 150.678 224.081 154.651C229.587 158.796 233.403 164.797 234.821 171.541C235.331 173.911 235.511 176.361 235.821 178.781C235.511 192.981 226.511 204.541 212.971 207.131C202.711 209.131 193.971 205.721 187.201 197.791C175.201 183.791 178.881 161.791 194.651 152.791L205.931 149.451ZM208.911 187.241C211.557 187.173 214.102 186.211 216.131 184.511C216.842 184.008 217.332 183.251 217.5 182.396C217.667 181.542 217.499 180.655 217.031 179.921C216.556 179.249 215.857 178.769 215.059 178.567C214.262 178.366 213.418 178.456 212.681 178.821C206.761 181.141 206.761 181.141 202.681 176.281C202.243 175.699 201.622 175.282 200.918 175.095C200.214 174.908 199.468 174.964 198.799 175.252C198.13 175.54 197.577 176.045 197.229 176.685C196.882 177.325 196.759 178.063 196.881 178.781C197.019 179.674 197.339 180.528 197.821 181.291C200.211 185.031 203.541 187.261 208.941 187.291L208.911 187.241ZM214.911 168.761C214.011 168.82 213.164 169.21 212.534 169.856C211.904 170.503 211.536 171.359 211.501 172.261C211.525 173.176 211.911 174.044 212.575 174.674C213.239 175.304 214.126 175.645 215.041 175.621C215.956 175.597 216.824 175.211 217.454 174.547C218.084 173.883 218.425 172.996 218.401 172.081C218.377 171.195 218.005 170.355 217.364 169.742C216.724 169.13 215.867 168.795 214.981 168.811L214.911 168.761ZM205.971 169.591C205.963 168.98 205.773 168.386 205.427 167.883C205.08 167.38 204.591 166.992 204.023 166.768C203.455 166.543 202.833 166.493 202.236 166.623C201.639 166.753 201.095 167.057 200.671 167.497C200.248 167.938 199.965 168.494 199.859 169.095C199.752 169.697 199.827 170.317 200.073 170.875C200.32 171.434 200.727 171.907 201.243 172.234C201.759 172.561 202.36 172.727 202.971 172.711C203.379 172.721 203.784 172.647 204.162 172.495C204.54 172.343 204.883 172.116 205.171 171.827C205.458 171.537 205.683 171.193 205.833 170.813C205.983 170.434 206.053 170.029 206.041 169.621L205.971 169.591Z" fill="white"/>
<path d="M191.741 146.522L186.891 149.732L186.141 142.521L191.741 146.522Z" fill="white"/>
<path d="M225.401 139.522C225.041 141.882 224.691 144.242 224.301 146.852L220.451 145.032L225.061 139.352L225.401 139.522Z" fill="white"/>
<path d="M206.87 136.891L209.4 142.451H204.67L206.87 136.891Z" fill="white"/>
<path d="M233.93 154.83L231.57 152.31L236.57 150.07L236.96 150.47C235.98 151.85 235.03 153.24 233.93 154.83Z" fill="white"/>
<path d="M191.152 66.7524C204.152 66.5924 213.242 78.2524 212.742 89.4824C212.536 94.9299 210.192 100.077 206.218 103.809C202.245 107.541 196.961 109.558 191.512 109.422C188.606 109.349 185.743 108.702 183.088 107.519C180.432 106.336 178.037 104.641 176.038 102.53C174.04 100.419 172.478 97.9339 171.442 95.2179C170.406 92.5018 169.916 89.6081 170.002 86.7024C170.074 84.0018 170.679 81.342 171.783 78.876C172.886 76.4099 174.466 74.1861 176.431 72.3324C178.396 70.4786 180.708 69.0313 183.235 68.0738C185.761 67.1162 188.451 66.6671 191.152 66.7524V66.7524ZM192.492 98.0024C193.586 97.8747 194.669 97.6641 195.732 97.3724C196.482 97.161 197.126 96.6763 197.537 96.0137C197.948 95.3511 198.096 94.5587 197.952 93.7925C197.903 93.0144 197.553 92.2859 196.976 91.7613C196.399 91.2368 195.641 90.9575 194.862 90.9824C191.072 91.4124 187.972 90.7224 185.632 87.3824C184.832 86.2324 183.252 86.1824 181.902 86.9025C181.251 87.2429 180.743 87.8054 180.472 88.488C180.2 89.1705 180.182 89.9279 180.422 90.6224C180.617 91.31 180.928 91.9593 181.342 92.5425C183.902 96.2925 187.622 97.7924 192.492 98.0024ZM187.332 84.3624C187.786 84.3457 188.233 84.2395 188.646 84.0499C189.06 83.8604 189.432 83.5912 189.741 83.2578C190.05 82.9244 190.291 82.5332 190.449 82.1067C190.607 81.6803 190.679 81.2269 190.662 80.7724C190.573 79.8602 190.138 79.0167 189.446 78.4157C188.754 77.8148 187.857 77.5022 186.942 77.5424C186.07 77.6369 185.268 78.0627 184.701 78.7318C184.134 79.401 183.846 80.2622 183.896 81.1377C183.946 82.0132 184.33 82.836 184.97 83.4361C185.609 84.0363 186.455 84.3679 187.332 84.3624V84.3624ZM200.562 85.4524C200.556 84.5843 200.207 83.7536 199.59 83.1425C198.974 82.5314 198.14 82.1898 197.272 82.1924C196.82 82.1817 196.371 82.2619 195.95 82.4283C195.53 82.5948 195.148 82.844 194.826 83.1612C194.504 83.4784 194.249 83.8571 194.077 84.2748C193.904 84.6924 193.817 85.1405 193.822 85.5924C193.811 86.023 193.887 86.4515 194.047 86.8514C194.207 87.2514 194.447 87.6145 194.753 87.9187C195.058 88.2228 195.422 88.4617 195.822 88.6205C196.222 88.7793 196.651 88.8548 197.082 88.8424C197.534 88.8544 197.985 88.7756 198.407 88.6106C198.828 88.4457 199.213 88.1979 199.537 87.8819C199.861 87.5659 200.119 87.1881 200.295 86.7709C200.471 86.3536 200.562 85.9053 200.562 85.4524V85.4524Z" fill="#979FBB"/>
<path d="M124.44 235.313C122.51 235.108 120.662 234.428 119.06 233.334C117.458 232.24 116.152 230.765 115.26 229.043C114.885 228.356 114.771 227.557 114.938 226.793C115.106 226.029 115.543 225.35 116.17 224.883C116.806 224.44 117.576 224.231 118.348 224.291C119.121 224.352 119.849 224.677 120.41 225.213C121.09 225.803 121.63 226.553 122.3 227.153C124.2 228.843 126.03 228.683 127.67 226.743C127.96 226.393 128.2 226.003 128.52 225.683C128.977 225.145 129.6 224.775 130.29 224.628C130.98 224.481 131.7 224.567 132.337 224.871C132.973 225.176 133.491 225.683 133.81 226.312C134.129 226.942 134.231 227.659 134.1 228.353C133.56 231.563 131.29 233.353 128.53 234.473C127.197 234.887 125.827 235.168 124.44 235.313V235.313Z" fill="#3558A2"/>
<path d="M122.01 217.04C121.993 217.959 121.623 218.836 120.977 219.489C120.331 220.142 119.458 220.522 118.54 220.55C117.624 220.506 116.761 220.109 116.132 219.441C115.504 218.773 115.159 217.887 115.17 216.97C115.2 216.054 115.577 215.184 116.226 214.536C116.874 213.888 117.744 213.51 118.66 213.48C119.576 213.509 120.444 213.9 121.072 214.568C121.7 215.235 122.037 216.124 122.01 217.04Z" fill="#3558A2"/>
<path d="M134.08 217.463C134.026 218.297 133.653 219.08 133.04 219.648C132.426 220.217 131.618 220.529 130.782 220.52C129.945 220.511 129.144 220.182 128.543 219.6C127.942 219.019 127.586 218.229 127.55 217.393C127.531 216.949 127.602 216.506 127.76 216.09C127.917 215.675 128.158 215.296 128.467 214.976C128.776 214.657 129.147 214.404 129.557 214.233C129.967 214.062 130.408 213.976 130.852 213.981C131.296 213.985 131.735 214.081 132.141 214.261C132.548 214.441 132.913 214.701 133.215 215.027C133.517 215.353 133.75 215.737 133.898 216.156C134.047 216.575 134.109 217.019 134.08 217.463V217.463Z" fill="#3558A2"/>
<path d="M114.351 103.361C114.759 103.36 115.163 103.443 115.538 103.603C115.913 103.764 116.251 103.999 116.531 104.295C116.812 104.591 117.03 104.941 117.171 105.323C117.312 105.706 117.373 106.113 117.351 106.521C117.37 107.387 117.045 108.226 116.447 108.854C115.85 109.482 115.028 109.847 114.161 109.871C113.731 109.875 113.304 109.789 112.908 109.619C112.512 109.449 112.156 109.199 111.863 108.884C111.569 108.568 111.345 108.196 111.203 107.789C111.062 107.382 111.007 106.95 111.041 106.521C111.037 106.092 111.12 105.666 111.287 105.27C111.453 104.875 111.699 104.518 112.01 104.222C112.32 103.925 112.688 103.696 113.091 103.548C113.494 103.4 113.923 103.336 114.351 103.361V103.361Z" fill="#3558A2"/>
<path d="M128.621 103.271C128.634 103.893 128.463 104.505 128.127 105.029C127.792 105.553 127.308 105.965 126.738 106.212C126.167 106.46 125.536 106.532 124.924 106.419C124.312 106.307 123.748 106.014 123.303 105.579C122.858 105.145 122.553 104.587 122.427 103.978C122.3 103.369 122.358 102.736 122.593 102.16C122.827 101.584 123.228 101.091 123.745 100.744C124.261 100.397 124.869 100.211 125.491 100.211C125.897 100.206 126.301 100.281 126.678 100.432C127.056 100.583 127.4 100.807 127.691 101.091C127.982 101.376 128.213 101.715 128.373 102.089C128.532 102.463 128.617 102.865 128.621 103.271Z" fill="#3558A2"/>
<path d="M208.94 187.291C203.54 187.291 200.22 185.031 197.8 181.291C197.318 180.528 196.998 179.673 196.86 178.781C196.738 178.063 196.861 177.325 197.209 176.685C197.557 176.045 198.109 175.54 198.778 175.252C199.447 174.964 200.193 174.908 200.897 175.095C201.601 175.281 202.222 175.699 202.66 176.281C206.79 181.141 206.79 181.141 212.66 178.821C213.397 178.455 214.241 178.366 215.039 178.567C215.836 178.769 216.536 179.249 217.01 179.921C217.479 180.655 217.646 181.541 217.479 182.396C217.311 183.251 216.821 184.008 216.11 184.511C214.102 186.218 211.575 187.198 208.94 187.291Z" fill="#3558A2"/>
<path d="M214.98 168.811C215.429 168.794 215.877 168.866 216.297 169.025C216.717 169.184 217.101 169.425 217.426 169.734C217.752 170.044 218.012 170.415 218.191 170.827C218.37 171.239 218.465 171.682 218.47 172.131C218.494 173.046 218.154 173.933 217.523 174.597C216.893 175.261 216.025 175.647 215.11 175.671C214.195 175.695 213.308 175.355 212.644 174.724C211.981 174.094 211.594 173.226 211.57 172.311C211.605 171.409 211.974 170.553 212.603 169.906C213.233 169.26 214.08 168.87 214.98 168.811Z" fill="#3558A2"/>
<path d="M206.042 169.622C206.026 170.231 205.83 170.821 205.478 171.319C205.126 171.816 204.635 172.198 204.067 172.416C203.498 172.635 202.877 172.68 202.283 172.545C201.689 172.411 201.148 172.103 200.729 171.662C200.31 171.22 200.031 170.664 199.927 170.064C199.824 169.463 199.901 168.846 200.149 168.289C200.396 167.733 200.803 167.262 201.318 166.937C201.833 166.612 202.433 166.446 203.042 166.462C203.45 166.461 203.853 166.544 204.228 166.705C204.603 166.865 204.941 167.101 205.222 167.396C205.503 167.692 205.72 168.042 205.861 168.425C206.002 168.807 206.063 169.215 206.042 169.622V169.622Z" fill="#3558A2"/>
<path d="M192.491 98.0012C187.621 97.7912 183.901 96.2913 181.341 92.5413C180.928 91.9581 180.617 91.3088 180.421 90.6212C180.182 89.9266 180.2 89.1693 180.471 88.4868C180.743 87.8042 181.25 87.2417 181.901 86.9012C183.251 86.1812 184.831 86.2312 185.631 87.3812C187.971 90.7212 191.071 91.3812 194.861 90.9812C195.64 90.9563 196.399 91.2356 196.976 91.7601C197.552 92.2846 197.902 93.0132 197.951 93.7913C198.095 94.5575 197.947 95.3499 197.537 96.0125C197.126 96.675 196.482 97.1598 195.731 97.3712C194.669 97.6629 193.586 97.8735 192.491 98.0012V98.0012Z" fill="#3558A2"/>
<path d="M187.33 84.3624C186.453 84.3678 185.608 84.0362 184.968 83.4361C184.329 82.836 183.944 82.0132 183.894 81.1378C183.844 80.2623 184.132 79.401 184.699 78.7319C185.266 78.0628 186.068 77.637 186.94 77.5425C187.856 77.5024 188.752 77.8149 189.444 78.4158C190.136 79.0167 190.571 79.8602 190.66 80.7725C190.677 81.2269 190.605 81.6803 190.447 82.1067C190.289 82.5332 190.049 82.9243 189.739 83.2578C189.43 83.5912 189.058 83.8603 188.645 84.0499C188.231 84.2394 187.784 84.3456 187.33 84.3624V84.3624Z" fill="#3558A2"/>
<path d="M200.561 85.4524C200.562 85.9053 200.471 86.3536 200.295 86.7709C200.119 87.1882 199.861 87.5659 199.537 87.8819C199.212 88.1979 198.828 88.4457 198.406 88.6107C197.985 88.7757 197.534 88.8545 197.081 88.8424C196.651 88.8548 196.222 88.7793 195.822 88.6205C195.421 88.4617 195.057 88.2229 194.752 87.9187C194.447 87.6146 194.207 87.2514 194.047 86.8514C193.887 86.4515 193.81 86.023 193.821 85.5924C193.817 85.1405 193.904 84.6924 194.076 84.2747C194.249 83.8571 194.504 83.4783 194.826 83.1611C195.148 82.8439 195.53 82.5947 195.95 82.4283C196.37 82.2618 196.82 82.1816 197.271 82.1924C198.14 82.1897 198.973 82.5314 199.59 83.1424C200.207 83.7535 200.556 84.5842 200.561 85.4524V85.4524Z" fill="#3558A2"/>
</svg>
