<svg width="300" height="300" viewBox="0 0 300 300" fill="none" xmlns="http://www.w3.org/2000/svg">
<path d="M97.3363 93.7515C119.226 92.1915 140.866 93.1815 162.436 98.3015C163.056 94.1215 165.436 91.1815 168.056 88.3815C172.846 83.3015 178.826 81.6515 185.596 82.0015C189.242 82.2847 192.752 83.5153 195.776 85.5715C196.255 85.8093 196.676 86.1509 197.006 86.5715C199.486 90.5715 202.446 94.3415 203.206 99.1615C204.018 103.86 203.143 108.695 200.736 112.811L199.736 114.421C211.356 121.571 220.036 130.941 222.736 144.671C225.429 144.566 228.057 143.811 230.396 142.471C230.119 142.023 229.819 141.589 229.496 141.171C226.356 137.431 225.296 133.001 225.276 128.251C225.27 126.514 225.712 124.803 226.56 123.286C227.408 121.769 228.633 120.497 230.116 119.591C231.443 118.7 232.943 118.098 234.518 117.826C236.093 117.554 237.707 117.617 239.256 118.011C243.256 118.901 246.096 122.571 246.676 127.441C247.253 131.804 246.31 136.232 244.006 139.981C243.636 140.591 243.246 141.201 242.646 142.161C243.385 142.281 244.138 142.281 244.876 142.161C246.501 141.628 248.032 140.846 249.416 139.841C252.347 137.237 254.59 133.95 255.946 130.271C256.726 128.271 257.856 127.321 259.466 127.631C259.91 127.738 260.328 127.932 260.696 128.201C261.064 128.471 261.375 128.811 261.611 129.202C261.846 129.593 262.002 130.026 262.068 130.478C262.134 130.929 262.11 131.389 261.996 131.831C261.83 132.729 261.491 133.585 260.996 134.351C259.246 137.101 257.546 139.901 255.576 142.491C251.486 147.841 243.136 150.301 237.186 147.681C236.625 147.437 235.998 147.387 235.406 147.541C231.526 148.781 227.666 150.111 223.806 151.421C223.607 151.527 223.422 151.658 223.256 151.811C222.786 155.121 222.326 158.521 221.796 161.921C220.146 172.332 215.406 181.321 208.966 189.501C202.099 198.052 193.145 204.689 182.966 208.772C181.036 209.592 179.106 210.392 177.136 211.062C176.447 211.271 175.814 211.631 175.281 212.115C174.749 212.599 174.33 213.196 174.056 213.861C172.566 217.171 170.926 220.412 169.336 223.672C168.566 225.242 167.856 226.892 165.706 226.872C163.556 226.852 162.786 225.332 161.996 223.752C160.866 221.492 159.706 219.251 158.416 216.751C157.776 217.521 157.296 218.012 156.906 218.572C155.376 220.722 153.906 222.882 152.376 225.042C152.038 225.641 151.524 226.122 150.903 226.419C150.282 226.716 149.585 226.815 148.906 226.702C148.231 226.57 147.611 226.237 147.129 225.746C146.647 225.255 146.325 224.629 146.206 223.952C145.666 221.952 145.206 219.952 144.616 217.952C144.316 216.832 143.966 215.722 143.616 214.642C140.396 214.362 137.416 214.172 134.456 213.852C129.567 213.471 124.769 212.323 120.236 210.452C119.563 210.178 118.875 209.941 118.176 209.742C115.826 208.992 115.796 209.002 114.246 210.852L108.176 218.202C107.886 218.552 107.606 218.912 107.286 219.202C106.286 220.302 105.056 221.142 103.436 220.632C102.788 220.404 102.218 219.994 101.796 219.452C101.374 218.909 101.117 218.256 101.056 217.572C100.506 214.722 99.9562 211.872 99.3862 209.032C99.1662 207.892 98.9063 206.772 98.5663 205.242C97.4063 206.172 96.4863 206.862 95.5663 207.602C93.2863 209.602 91.0262 211.522 88.7462 213.462C88.1341 214.007 87.4633 214.484 86.7462 214.882C86.3012 215.165 85.791 215.329 85.2644 215.358C84.7378 215.388 84.2125 215.281 83.7387 215.049C83.265 214.818 82.8588 214.468 82.5589 214.034C82.2591 213.6 82.0756 213.097 82.0262 212.572C81.9074 211.761 81.8639 210.94 81.8962 210.122C81.8962 205.122 81.7763 200.122 81.8263 195.122C81.888 194.455 81.7496 193.785 81.429 193.197C81.1085 192.609 80.6201 192.131 80.0262 191.822C69.8798 185.411 60.6862 177.605 52.7162 168.631C47.8496 163.455 44.0477 157.374 41.5262 150.731C41.1071 149.728 40.6364 148.747 40.1162 147.791C35.4762 138.441 35.9762 129.401 41.8962 120.791C47.2462 112.981 54.8062 108.011 63.3862 104.391C64.9662 103.721 66.4663 102.871 68.0763 102.071C67.9489 98.9638 67.3556 95.8929 66.3163 92.9615C65.9328 91.9397 65.3473 91.0058 64.5947 90.2154C63.8421 89.4251 62.938 88.7945 61.9362 88.3615C60.2062 87.5715 58.4662 86.7915 56.7362 85.9815C56.0733 85.6886 55.4431 85.3266 54.8562 84.9015C54.3453 84.5581 53.9205 84.1015 53.615 83.5671C53.3094 83.0327 53.1313 82.435 53.0946 81.8205C53.0578 81.2061 53.1634 80.5914 53.403 80.0244C53.6427 79.4574 54.0099 78.9533 54.4762 78.5515C55.6135 77.5101 56.8726 76.6102 58.2262 75.8715C60.438 74.5219 62.8953 73.6238 65.4561 73.229C68.017 72.8343 70.6306 72.9507 73.1462 73.5715C77.2028 74.5794 81.0128 76.3994 84.3462 78.9215C89.0799 82.4697 93.0776 86.9056 96.1162 91.9815C96.4862 92.5715 96.9263 93.1715 97.3363 93.7515ZM65.4162 109.841C80.3662 113.901 87.2062 126.741 84.6462 139.101C81.9362 152.251 71.1363 162.711 53.0763 158.881C54.6163 160.811 55.7962 162.491 57.1662 163.991C64.9949 172.709 73.9426 180.352 83.7762 186.721C84.6429 187.214 85.3853 187.898 85.9463 188.721C87.2763 190.971 88.4662 193.251 88.1862 196.081C88.0563 198.44 88.0563 200.803 88.1862 203.161C88.1862 203.831 88.2962 204.492 88.3962 205.592C91.2662 203.152 93.8062 200.972 96.3962 198.822C97.1969 198.082 98.06 197.412 98.9762 196.822C99.3908 196.533 99.8691 196.349 100.37 196.285C100.872 196.222 101.381 196.28 101.854 196.456C102.328 196.632 102.752 196.92 103.09 197.295C103.428 197.671 103.671 198.122 103.796 198.611C104.085 199.565 104.309 200.537 104.466 201.521C105.046 204.422 105.616 207.322 106.296 210.732C108.356 208.262 110.076 206.172 111.836 204.122C113.836 201.812 114.716 201.721 117.526 202.751C122.526 204.591 127.526 206.571 132.896 207.221C136.586 207.671 140.296 207.971 143.996 208.221C147.866 208.471 148.926 209.222 149.996 212.892C150.266 213.892 150.596 214.892 150.996 216.172C151.666 215.302 152.066 214.822 152.436 214.312C153.636 212.612 154.746 210.822 156.046 209.202C157.966 206.812 160.406 207.022 162.046 209.642C162.666 210.642 163.126 211.732 163.666 212.782C164.316 214.022 164.976 215.252 165.906 216.992C167.276 213.992 168.456 211.542 169.476 209.042C169.714 208.353 170.109 207.73 170.63 207.222C171.151 206.713 171.783 206.333 172.476 206.111C175.046 205.241 177.606 204.312 180.136 203.312C187.649 200.294 194.482 195.806 200.236 190.111C204.346 185.985 207.815 181.266 210.526 176.111C214.896 168.221 216.526 159.631 216.916 150.751C217.163 147.199 216.542 143.64 215.106 140.381C214.029 137.98 212.814 135.642 211.466 133.381C208.876 129.121 205.166 125.891 201.186 122.991C199.186 121.511 197.026 120.151 194.996 118.781C188.426 123.151 181.866 123.611 174.806 120.781C167.496 117.781 163.936 112.131 162.186 104.871C161.236 104.611 160.376 104.341 159.496 104.121C151.043 102.019 142.419 100.68 133.726 100.121C121.486 99.3615 109.266 98.4715 97.0562 100.361C88.8862 101.621 80.7762 103.171 73.0562 106.361C70.4562 107.451 67.9462 108.681 65.4162 109.841V109.841ZM61.5462 116.571C57.4792 116.618 53.5486 118.044 50.3983 120.617C47.248 123.19 45.0648 126.756 44.2063 130.731C42.2063 138.051 44.2662 144.421 49.7762 149.501C54.1062 153.501 59.3862 154.341 65.0262 152.911C73.5662 150.731 80.1362 141.671 78.6662 131.481C78.0937 127.394 76.1679 123.616 73.1963 120.751C70.1863 117.811 66.2462 116.571 61.5462 116.571V116.571ZM183.776 88.2515C178.656 88.0015 174.666 90.0615 171.406 93.9315C169.63 96.0581 168.567 98.6899 168.37 101.454C168.173 104.218 168.85 106.974 170.306 109.331C173.086 113.891 177.406 115.721 182.306 116.391C183.565 116.612 184.858 116.546 186.089 116.2C187.319 115.854 188.456 115.236 189.416 114.391C191.096 112.861 193.006 111.611 194.696 110.101C195.441 109.453 196.006 108.623 196.336 107.691C197.616 103.551 197.726 99.4815 195.176 95.6915C194.616 94.8661 194.118 94.0004 193.686 93.1015C192.316 90.1015 189.836 88.8715 186.786 88.4715C185.776 88.2915 184.776 88.3115 183.776 88.2515ZM89.7762 94.2515C87.5562 89.3215 83.7763 86.4815 80.0663 83.5415C76.9842 81.1143 73.2707 79.622 69.3662 79.2415C66.7442 79.0338 64.1275 79.702 61.9262 81.1415C62.6021 81.5525 63.2997 81.9264 64.0162 82.2615C66.2506 83.0777 68.245 84.4406 69.8171 86.2259C71.3892 88.0111 72.4891 90.1618 73.0162 92.4815C73.4262 94.0515 73.7263 95.6515 74.0763 97.2415C74.2463 98.0115 74.4263 98.7915 74.5863 99.4815C74.9663 99.5415 75.1562 99.6215 75.3062 99.5715C79.5362 98.2515 83.7762 96.9515 87.9862 95.5715C88.6418 95.2257 89.2446 94.788 89.7762 94.2715V94.2515ZM236.386 139.141C240.096 136.201 241.706 130.651 240.056 126.591C239.761 125.741 239.214 125.001 238.486 124.471C235.656 122.831 231.486 125.221 231.486 128.541C231.596 132.661 232.776 136.411 236.376 139.161L236.386 139.141Z" fill="#3558A2"/>
<path d="M65.4178 109.842C67.9478 108.682 70.4178 107.452 73.0278 106.382C80.7078 103.192 88.8178 101.642 97.0278 100.382C109.238 98.492 121.458 99.382 133.698 100.142C142.39 100.701 151.015 102.04 159.468 104.142C160.348 104.362 161.208 104.632 162.158 104.892C163.908 112.152 167.468 117.892 174.778 120.802C181.838 123.652 188.398 123.192 194.968 118.802C196.968 120.172 199.128 121.532 201.158 123.012C205.158 125.912 208.848 129.142 211.438 133.402C212.786 135.663 214.001 138 215.078 140.402C216.514 143.661 217.135 147.22 216.888 150.772C216.488 159.652 214.888 168.242 210.498 176.132C207.786 181.286 204.318 186.005 200.208 190.132C194.454 195.827 187.62 200.315 180.108 203.332C177.578 204.332 175.018 205.262 172.448 206.132C171.754 206.353 171.122 206.734 170.601 207.242C170.081 207.751 169.686 208.374 169.448 209.062C168.448 211.562 167.248 214.002 165.878 217.012C164.948 215.272 164.288 214.012 163.638 212.802C163.098 211.752 162.638 210.662 162.018 209.662C160.398 207.042 157.958 206.832 156.018 209.222C154.718 210.842 153.608 212.632 152.408 214.332C152.038 214.842 151.638 215.332 150.968 216.192C150.548 214.872 150.218 213.902 149.968 212.912C148.968 209.262 147.888 208.492 143.968 208.242C140.268 208.002 136.558 207.702 132.868 207.242C127.518 206.592 122.508 204.612 117.498 202.772C114.688 201.772 113.788 201.832 111.808 204.142C110.048 206.192 108.328 208.282 106.268 210.752C105.588 207.342 105.018 204.442 104.438 201.542C104.281 200.558 104.057 199.586 103.768 198.632C103.642 198.143 103.4 197.691 103.062 197.316C102.723 196.94 102.3 196.652 101.826 196.477C101.352 196.301 100.843 196.242 100.342 196.306C99.8409 196.369 99.3625 196.553 98.9479 196.842C98.0317 197.433 97.1684 198.102 96.3678 198.842C93.8178 200.992 91.2778 203.172 88.3678 205.612C88.2678 204.512 88.1678 203.852 88.1578 203.182C88.0279 200.824 88.0279 198.46 88.1578 196.102C88.4378 193.272 87.2478 190.992 85.9178 188.742C85.3569 187.918 84.6145 187.234 83.7478 186.742C73.9001 180.375 64.9388 172.732 57.0978 164.012C55.7278 162.512 54.5478 160.832 53.0078 158.902C71.0678 162.732 81.8679 152.272 84.5779 139.122C87.2079 126.742 80.3678 113.902 65.4178 109.842ZM193.118 154.422C195.458 154.512 196.738 153.532 197.198 151.062C198.128 146.062 198.988 141.062 199.878 136.062C200.548 132.312 199.568 130.822 195.878 130.242C187.558 128.949 179.224 127.702 170.878 126.502C166.308 125.852 161.728 125.232 157.138 124.792C154.488 124.542 153.548 125.382 152.848 127.922C152.658 128.622 152.568 129.342 152.448 130.052C151.758 134.052 151.148 138.052 150.348 142.052C149.658 145.482 150.348 146.632 153.768 147.432C154.298 147.552 154.838 147.622 155.368 147.712L182.128 152.412L193.118 154.422ZM136.578 133.902C136.486 132.465 136.299 131.035 136.018 129.622C134.928 125.072 132.758 121.012 128.688 118.622C126.372 117.171 123.779 116.217 121.075 115.821C118.37 115.425 115.613 115.596 112.978 116.322C112.12 116.466 111.309 116.813 110.613 117.335C109.917 117.857 109.356 118.539 108.978 119.322C107.058 124.212 105.148 129.112 103.438 134.072C102.438 137.072 103.368 139.302 105.958 141.152C106.783 141.711 107.637 142.225 108.518 142.692C110.958 144.072 113.438 145.402 115.868 146.812C117.59 147.738 119.105 149.005 120.322 150.535C121.539 152.065 122.433 153.826 122.948 155.712C123.138 156.412 123.458 157.072 123.708 157.712C124.208 159.042 124.888 160.202 126.518 160.272C127.251 160.294 127.972 160.081 128.575 159.663C129.178 159.246 129.631 158.646 129.868 157.952C130.418 156.812 130.868 155.602 131.488 154.512C135.138 148.432 136.318 141.712 136.578 133.902V133.902ZM96.2878 123.272C96.6754 123.295 97.0633 123.234 97.4254 123.094C97.7875 122.954 98.1153 122.737 98.3865 122.46C98.6577 122.182 98.866 121.849 98.9973 121.484C99.1287 121.118 99.18 120.729 99.1478 120.342C99.1644 119.931 99.0964 119.521 98.948 119.138C98.7996 118.755 98.5741 118.406 98.2853 118.113C97.9965 117.821 97.6506 117.591 97.2692 117.437C96.8877 117.284 96.4788 117.211 96.0679 117.222C95.2912 117.237 94.5509 117.553 94.0026 118.104C93.4542 118.654 93.1406 119.395 93.1278 120.172C93.1486 120.998 93.49 121.783 94.0798 122.362C94.6697 122.941 95.4616 123.267 96.2878 123.272V123.272ZM85.8478 109.032C85.148 109.084 84.4946 109.402 84.0215 109.92C83.5483 110.438 83.2912 111.118 83.3027 111.819C83.3142 112.521 83.5935 113.192 84.0834 113.694C84.5733 114.197 85.2367 114.493 85.9379 114.522C86.3007 114.518 86.6592 114.442 86.9927 114.299C87.3261 114.156 87.628 113.949 87.8809 113.688C88.1337 113.428 88.3325 113.12 88.4658 112.783C88.5992 112.445 88.6645 112.085 88.6578 111.722C88.6582 111.358 88.5849 110.999 88.4423 110.664C88.2996 110.33 88.0906 110.028 87.828 109.776C87.5654 109.525 87.2545 109.329 86.9142 109.201C86.5738 109.073 86.211 109.016 85.8478 109.032V109.032Z" fill="#EAECF1"/>
<path d="M61.5459 116.572C66.2459 116.572 70.186 117.812 73.196 120.752C76.1676 123.617 78.0934 127.395 78.6659 131.482C80.1359 141.672 73.5659 150.732 65.0259 152.912C59.3859 154.342 54.1059 153.492 49.7759 149.502C44.2659 144.422 42.186 138.052 44.206 130.732C45.0645 126.757 47.2477 123.19 50.398 120.618C53.5483 118.045 57.4789 116.619 61.5459 116.572ZM72.3059 136.502C72.3259 136.139 72.3259 135.775 72.3059 135.412C72.2746 134.45 71.9371 133.522 71.3426 132.764C70.7481 132.006 69.9275 131.457 68.9999 131.198C68.0724 130.938 67.0861 130.981 66.1845 131.32C65.2828 131.658 64.5127 132.276 63.9859 133.082C63.1504 134.162 62.5374 135.397 62.182 136.715C61.8267 138.033 61.7363 139.409 61.9159 140.762C61.9678 141.631 62.2729 142.465 62.7936 143.161C63.3144 143.858 64.0278 144.387 64.8459 144.682C65.6642 144.974 66.5527 145.004 67.3891 144.77C68.2254 144.535 68.9685 144.047 69.5159 143.372C71.2641 141.506 72.2582 139.059 72.3059 136.502ZM49.4259 133.152C49.4259 133.422 49.4259 133.702 49.4259 133.972C49.4048 134.933 49.6819 135.877 50.2192 136.674C50.7564 137.471 51.5273 138.081 52.4259 138.422C54.2759 139.132 56.2359 138.422 57.6659 136.572C59.1969 134.64 59.9908 132.226 59.9059 129.762C59.8359 127.312 58.7759 125.682 56.9059 125.082C55.8578 124.75 54.7271 124.788 53.7038 125.19C52.6804 125.592 51.8267 126.335 51.2859 127.292C50.0984 129.018 49.451 131.058 49.4259 133.152V133.152Z" fill="white"/>
<path d="M183.778 88.2508C184.778 88.3108 185.778 88.2508 186.778 88.4308C189.778 88.8308 192.308 90.1008 193.678 93.0608C194.11 93.9598 194.608 94.8255 195.168 95.6508C197.718 99.4509 197.608 103.521 196.328 107.651C195.998 108.582 195.433 109.412 194.688 110.061C192.998 111.571 191.088 112.821 189.408 114.351C188.448 115.195 187.311 115.813 186.08 116.159C184.85 116.505 183.557 116.571 182.298 116.351C177.428 115.681 173.108 113.851 170.298 109.291C168.842 106.933 168.164 104.177 168.362 101.413C168.559 98.6492 169.621 96.0175 171.398 93.8908C174.688 90.0608 178.678 88.0008 183.778 88.2508Z" fill="white"/>
<path d="M89.777 94.272C89.2307 94.7959 88.6109 95.2373 87.937 95.582C83.727 96.972 79.4869 98.272 75.257 99.582C75.107 99.582 74.917 99.582 74.537 99.492C74.377 98.802 74.197 98.022 74.027 97.252C73.677 95.662 73.3769 94.062 72.9669 92.492C72.4398 90.1723 71.34 88.0216 69.7678 86.2364C68.1957 84.4511 66.2013 83.0882 63.9669 82.272C63.2504 81.9368 62.5528 81.563 61.877 81.152C64.0783 79.7125 66.6951 79.0442 69.317 79.252C73.2215 79.6325 76.9349 81.1248 80.017 83.552C83.777 86.502 87.547 89.342 89.777 94.272Z" fill="white"/>
<path d="M236.376 139.161C232.726 136.411 231.596 132.661 231.516 128.561C231.456 125.241 235.646 122.851 238.516 124.491C239.244 125.021 239.792 125.761 240.086 126.611C241.696 130.671 240.086 136.221 236.376 139.161Z" fill="white"/>
<path d="M193.117 154.421L182.117 152.471L155.357 147.771C154.827 147.681 154.287 147.611 153.757 147.491C150.287 146.691 149.647 145.541 150.337 142.111C151.137 138.111 151.747 134.111 152.437 130.111C152.557 129.401 152.647 128.681 152.837 127.981C153.537 125.441 154.477 124.601 157.127 124.851C161.717 125.291 166.297 125.911 170.867 126.561C179.207 127.761 187.54 129.007 195.867 130.301C199.607 130.881 200.587 132.371 199.867 136.121C198.977 141.121 198.117 146.121 197.187 151.121C196.777 153.571 195.457 154.511 193.117 154.421ZM157.637 141.501C160.777 142.681 188.567 147.361 190.837 147.121L192.727 136.121C181.487 134.451 170.537 132.651 159.307 131.241C158.717 134.821 158.187 138.101 157.637 141.501Z" fill="#3558A2"/>
<path d="M136.577 133.902C136.317 141.712 135.137 148.432 131.507 154.542C130.857 155.632 130.437 156.842 129.887 157.982C129.65 158.676 129.196 159.275 128.594 159.693C127.991 160.11 127.27 160.324 126.537 160.302C124.907 160.232 124.227 159.072 123.727 157.742C123.477 157.062 123.157 156.402 122.967 155.742C122.451 153.856 121.558 152.094 120.341 150.564C119.124 149.034 117.608 147.768 115.887 146.842C113.457 145.432 110.977 144.102 108.537 142.722C107.656 142.255 106.801 141.741 105.977 141.182C103.387 139.332 102.437 137.062 103.457 134.102C105.167 129.102 107.077 124.242 108.997 119.352C109.375 118.568 109.936 117.887 110.632 117.365C111.328 116.843 112.139 116.495 112.997 116.352C115.632 115.625 118.389 115.455 121.093 115.851C123.798 116.247 126.39 117.2 128.707 118.652C132.777 121.082 134.947 125.142 136.037 129.652C136.309 131.055 136.49 132.475 136.577 133.902V133.902ZM127.037 149.212C127.363 148.713 127.661 148.195 127.927 147.662C129.869 142.566 130.578 137.083 129.997 131.662C129.888 129.98 129.351 128.354 128.438 126.938C127.524 125.523 126.264 124.364 124.777 123.572C121.857 122.062 118.677 121.272 115.227 122.392C112.787 126.612 111.227 131.252 109.387 135.892C115.777 139.772 122.837 142.242 127.037 149.212Z" fill="#3558A2"/>
<path d="M96.287 123.272C95.4607 123.267 94.6688 122.941 94.079 122.362C93.4892 121.783 93.1477 120.998 93.127 120.172C93.1397 119.395 93.4534 118.654 94.0017 118.104C94.55 117.553 95.2904 117.237 96.067 117.222C96.478 117.211 96.8869 117.284 97.2683 117.437C97.6498 117.59 97.9956 117.821 98.2844 118.113C98.5732 118.406 98.7988 118.754 98.9471 119.138C99.0955 119.521 99.1636 119.931 99.147 120.342C99.1792 120.729 99.1278 121.118 98.9965 121.483C98.8651 121.849 98.6568 122.182 98.3856 122.459C98.1144 122.737 97.7866 122.954 97.4246 123.094C97.0625 123.234 96.6746 123.295 96.287 123.272V123.272Z" fill="#3558A2"/>
<path d="M85.8462 109.032C86.2094 109.016 86.5723 109.073 86.9126 109.201C87.2529 109.329 87.5638 109.525 87.8264 109.776C88.0891 110.028 88.298 110.33 88.4407 110.664C88.5833 110.998 88.6566 111.358 88.6563 111.722C88.6629 112.085 88.5976 112.445 88.4642 112.783C88.3309 113.12 88.1321 113.428 87.8793 113.688C87.6264 113.949 87.3246 114.156 86.9911 114.299C86.6576 114.442 86.2991 114.518 85.9363 114.522C85.2352 114.493 84.5717 114.197 84.0818 113.694C83.5919 113.192 83.3127 112.521 83.3012 111.819C83.2896 111.118 83.5467 110.438 84.0199 109.92C84.4931 109.402 85.1464 109.084 85.8462 109.032Z" fill="#3558A2"/>
<path d="M72.3079 136.502C72.2602 139.058 71.266 141.506 69.5179 143.372C68.9705 144.046 68.2274 144.534 67.3911 144.769C66.5547 145.004 65.6662 144.973 64.8478 144.682C64.0298 144.386 63.3163 143.857 62.7956 143.161C62.2749 142.464 61.9698 141.63 61.9179 140.762C61.7383 139.408 61.8287 138.033 62.184 136.714C62.5393 135.396 63.1524 134.162 63.9879 133.082C64.5147 132.275 65.2848 131.658 66.1865 131.319C67.0881 130.98 68.0743 130.937 69.0019 131.197C69.9294 131.457 70.75 132.006 71.3445 132.763C71.939 133.521 72.2765 134.449 72.3079 135.412C72.3279 135.775 72.3279 136.139 72.3079 136.502V136.502Z" fill="#3558A2"/>
<path d="M49.4274 133.152C49.4466 131.059 50.087 129.02 51.2674 127.292C51.8081 126.334 52.6618 125.592 53.6852 125.19C54.7086 124.787 55.8392 124.749 56.8873 125.082C58.7573 125.682 59.8173 127.312 59.8873 129.762C59.9723 132.226 59.1783 134.64 57.6474 136.572C56.2174 138.432 54.2574 139.132 52.4074 138.422C51.5088 138.081 50.7378 137.47 50.2006 136.673C49.6634 135.876 49.3863 134.933 49.4074 133.972C49.4174 133.702 49.4274 133.422 49.4274 133.152Z" fill="#3558A2"/>
<path d="M157.637 141.501C158.187 138.101 158.717 134.821 159.307 131.201C170.537 132.611 181.487 134.411 192.727 136.081L190.837 147.081C188.567 147.361 160.777 142.681 157.637 141.501Z" fill="#979FBB"/>
<path d="M127.037 149.212C122.837 142.212 115.757 139.772 109.357 135.862C111.157 131.222 112.758 126.582 115.198 122.362C118.648 121.242 121.827 122.032 124.747 123.542C126.244 124.333 127.513 125.495 128.433 126.916C129.352 128.338 129.891 129.972 129.997 131.662C130.579 137.084 129.87 142.566 127.927 147.662C127.661 148.195 127.364 148.713 127.037 149.212Z" fill="white"/>
</svg>
