<svg width="300" height="300" viewBox="0 0 300 300" fill="none" xmlns="http://www.w3.org/2000/svg">
<path d="M144.105 201.242C141.175 203.702 138.635 206.022 135.905 208.092C127.395 214.532 117.755 212.592 111.315 206.742C107.206 202.969 104.637 197.809 104.104 192.256C103.57 186.703 105.109 181.148 108.425 176.662C114.365 168.802 121.235 161.602 128.065 154.462C134.895 147.322 142.455 140.302 149.605 133.302C150.305 132.612 150.975 131.882 151.795 131.012C145.875 125.172 143.065 118.182 143.695 110.012C144.195 103.596 147.077 97.5998 151.775 93.2018C156.071 89.0057 161.719 86.4743 167.71 86.0602C173.7 85.6462 179.643 87.3765 184.475 90.9418C195.195 98.9418 196.975 111.552 189.865 125.842C191.925 129.842 194.055 133.332 195.495 137.062C196.446 139.344 196.771 141.838 196.439 144.288C196.107 146.738 195.129 149.055 193.605 151.002C190.555 155.002 187.285 158.932 184.095 162.872C183.485 163.632 182.785 164.312 181.955 165.212C182.815 165.852 183.425 166.372 184.075 166.802C189.165 170.172 191.585 174.982 191.875 180.992C192.095 185.602 192.355 190.222 192.595 194.832C192.825 199.072 191.715 202.832 188.165 205.382C175.905 214.382 162.765 215.772 148.875 209.652C147.72 209 146.797 208.004 146.235 206.802C145.406 204.996 144.694 203.139 144.105 201.242V201.242ZM140.785 151.782C141.075 152.022 141.255 152.272 141.495 152.342C147.288 154.11 152.255 157.895 155.495 163.012C155.855 163.327 156.286 163.551 156.75 163.666C157.215 163.781 157.7 163.783 158.165 163.672C162.996 162.081 168.122 161.595 173.165 162.252C173.548 162.299 173.937 162.268 174.308 162.161C174.679 162.055 175.025 161.875 175.325 161.632C178.575 158.342 181.895 155.092 184.865 151.552C187.035 148.952 189.295 146.252 189.285 142.452C189.285 136.212 186.375 131.912 180.785 129.392C174.935 126.752 168.785 125.132 163.415 129.922C155.825 136.662 148.635 143.862 141.285 150.922C141.082 151.185 140.914 151.475 140.785 151.782V151.782ZM111.065 189.592C111.243 191.299 111.513 192.994 111.875 194.672C114.495 204.482 125.875 208.282 132.825 201.962C135.175 199.832 137.455 197.632 139.825 195.552C142.025 193.642 142.375 191.172 141.935 188.552C140.615 180.812 143.075 174.432 148.765 169.262C150.245 167.922 149.955 167.052 149.025 165.642C146.175 161.322 141.785 159.562 137.175 157.982C135.395 157.372 134.175 157.532 132.885 158.982C127.205 165.332 121.385 171.552 115.695 177.892C112.704 181.051 111.046 185.241 111.065 189.592V189.592ZM154.985 100.112L186.985 113.372C189.145 106.592 184.615 98.0318 177.235 94.4418C169.855 90.8518 159.725 93.3018 154.985 100.112V100.112ZM149.455 187.232C152.455 194.562 162.275 197.742 171.795 195.012C179.455 192.812 185.355 186.562 184.425 181.132L149.455 187.232ZM156.595 125.862C159.905 124.132 162.775 122.112 165.955 121.082C171.035 119.432 176.225 120.172 181.135 122.182C183.485 123.182 184.445 122.322 185.025 119.882L151.725 106.072C150.367 109.462 150.102 113.193 150.968 116.741C151.834 120.289 153.788 123.478 156.555 125.862H156.595ZM149.685 180.302L182.685 174.562C177.485 169.042 171.485 168.222 165.145 169.032C157.455 169.982 150.705 174.972 149.685 180.302ZM151.105 199.492C151.175 201.682 151.045 203.492 153.285 204.292C164.435 208.292 174.805 207.072 184.345 199.832C185.975 198.592 186.215 197.192 185.225 195.352C174.715 203.482 163.455 204.922 151.105 199.462V199.492Z" fill="#3558A2"/>
<path d="M140.785 151.781C140.919 151.454 141.097 151.148 141.315 150.871C148.665 143.871 155.855 136.661 163.445 129.871C168.835 125.081 174.965 126.701 180.815 129.341C186.405 131.861 189.305 136.161 189.315 142.401C189.315 146.201 187.065 148.901 184.895 151.501C181.895 155.041 178.605 158.291 175.355 161.581C175.055 161.824 174.709 162.004 174.338 162.11C173.967 162.217 173.578 162.247 173.195 162.201C168.152 161.544 163.026 162.029 158.195 163.621C157.73 163.732 157.245 163.729 156.78 163.615C156.316 163.5 155.885 163.276 155.525 162.961C152.266 157.835 147.272 154.051 141.455 152.301C141.255 152.301 141.075 152.021 140.785 151.781Z" fill="#EAECF1"/>
<path d="M111.064 189.591C111.064 185.255 112.728 181.084 115.714 177.941C121.404 171.601 127.224 165.381 132.904 159.031C134.204 157.581 135.414 157.421 137.194 158.031C141.804 159.611 146.194 161.371 149.044 165.691C149.974 167.101 150.264 167.971 148.784 169.311C143.094 174.481 140.634 180.861 141.954 188.601C142.394 191.171 142.044 193.601 139.844 195.601C137.454 197.681 135.174 199.881 132.844 202.011C125.844 208.331 114.514 204.531 111.894 194.721C111.524 193.027 111.247 191.315 111.064 189.591V189.591Z" fill="#979FBB"/>
<path d="M154.984 100.111C159.724 93.271 169.764 90.8411 177.184 94.4411C184.604 98.041 189.094 106.591 186.934 113.371L154.984 100.111Z" fill="white"/>
<path d="M149.455 187.231L184.455 181.131C185.385 186.561 179.455 192.811 171.825 195.011C162.235 197.741 152.455 194.561 149.455 187.231Z" fill="white"/>
<path d="M156.554 125.86C153.779 123.482 151.818 120.295 150.945 116.746C150.072 113.198 150.33 109.465 151.684 106.07L184.984 119.88C184.404 122.32 183.444 123.14 181.094 122.18C176.184 120.18 170.994 119.43 165.914 121.08C162.734 122.11 159.864 124.13 156.554 125.86Z" fill="white"/>
<path d="M149.684 180.301C150.684 175.001 157.404 170.011 165.114 169.031C171.454 168.221 177.454 169.031 182.654 174.561L149.684 180.301Z" fill="white"/>
<path d="M151.105 199.46C163.495 204.92 174.715 203.46 185.225 195.32C186.225 197.16 185.975 198.56 184.345 199.8C174.805 207.04 164.435 208.28 153.285 204.26C151.045 203.45 151.175 201.65 151.105 199.46Z" fill="white"/>
</svg>
