<svg width="300" height="300" viewBox="0 0 300 300" fill="none" xmlns="http://www.w3.org/2000/svg">
<path d="M181.978 121.027C188.718 121.137 195.328 121.596 201.908 121.286C214.608 120.686 224.728 125.637 232.658 135.157C234.541 137.702 235.755 140.68 236.188 143.817C236.667 147.103 237.837 150.25 239.619 153.052C241.401 155.855 243.755 158.249 246.528 160.077C253.268 164.677 260.148 169.077 266.888 173.657C269.124 175.218 271.249 176.932 273.248 178.787C276.768 181.967 276.468 185.187 272.408 187.587C270.695 188.613 268.874 189.448 266.978 190.077C260.208 192.267 253.698 194.977 247.898 199.187C238.018 206.357 226.698 210.187 215.068 213.277C203.898 216.277 193.068 219.917 182.998 225.847C175.998 229.987 169.888 235.237 163.938 240.717C157.418 246.717 150.018 251.267 141.158 252.717C134.649 253.657 128.007 252.885 121.888 250.477C112.618 247.107 103.398 243.547 94.3078 239.727C86.4416 236.469 78.2762 233.988 69.9278 232.317C65.6114 231.288 61.3633 229.992 57.2078 228.437C55.6561 227.923 54.2265 227.096 53.0078 226.007C47.4478 220.797 41.9478 215.527 36.5678 210.137C33.4978 207.057 30.7677 203.647 27.7477 200.507C22.5677 195.137 22.7478 189.927 28.3478 185.047C31.8878 181.987 35.9478 179.787 40.7078 180.227C55.1978 181.537 68.4978 177.027 81.7778 172.307C86.7778 170.547 91.5678 168.467 96.4478 166.517C98.7278 165.607 99.6677 164.127 98.7577 161.597C96.9277 156.527 99.4778 153.157 103.278 150.187C108.178 146.357 108.118 146.287 105.098 140.997C101.098 133.917 104.308 125.627 112.318 123.617C117.148 122.374 122.095 121.64 127.078 121.426C142.308 120.886 157.558 120.706 172.798 120.426C174.138 120.426 174.738 120.187 174.868 118.717C175.658 109.717 176.488 100.657 177.418 91.6366C177.598 89.9466 176.668 89.7365 175.508 89.3065C166.418 85.8965 161.248 77.9265 161.678 68.0865C162.088 58.5965 168.478 50.1665 177.488 47.8165C185.758 45.6665 193.068 47.7365 198.608 54.3365C204.488 61.3365 205.218 69.3365 201.608 77.5565C200.333 80.6405 198.331 83.3707 195.773 85.5141C193.215 87.6576 190.177 89.1508 186.918 89.8665C185.008 90.3365 184.578 91.1065 184.418 92.9265C183.698 101.506 182.788 110.067 181.948 118.647C181.918 119.307 181.978 119.927 181.978 121.027ZM266.458 182.537C265.388 181.637 264.758 180.997 264.028 180.537C257.028 175.827 250.028 171.157 243.028 166.447C235.438 161.337 230.498 154.527 229.148 145.277C228.954 143.291 228.244 141.392 227.088 139.767C223.338 135.267 219.008 130.976 213.088 130.036C206.088 128.946 199.088 128.827 191.988 128.447C188.478 128.257 184.988 128.447 181.298 128.447C181.118 129.617 180.908 130.677 180.808 131.747C180.398 136.267 180.048 140.746 179.618 145.297C179.328 148.297 177.698 149.907 175.438 149.637C173.178 149.367 172.108 147.347 172.438 144.407C172.724 141.887 172.974 139.36 173.188 136.827C173.438 133.897 173.628 130.957 173.838 128.117C173.546 127.998 173.245 127.905 172.938 127.837C156.34 126.976 139.701 127.397 123.168 129.097C120.187 129.355 117.236 129.877 114.348 130.657C110.708 131.657 109.768 134.526 111.588 137.796C112.428 139.306 113.278 140.797 114.008 142.367C116.008 146.757 115.258 150.177 111.488 153.207C110.218 154.207 108.898 155.207 107.568 156.147C106.793 156.599 106.202 157.31 105.9 158.156C105.598 159.001 105.605 159.926 105.918 160.767C107.348 166.617 105.828 169.697 100.538 172.657C99.6774 173.164 98.7817 173.608 97.8577 173.987C93.2977 175.777 88.7678 177.657 84.1478 179.267C70.5078 184.017 56.8878 188.837 42.0278 187.437C40.4356 187.312 38.8347 187.514 37.3232 188.03C35.8117 188.545 34.4215 189.364 33.2377 190.437C30.9177 192.437 30.8078 193.307 32.9578 195.537C40.4678 203.287 47.9578 211.067 55.5878 218.667C57.3391 220.36 59.4374 221.654 61.7377 222.457C66.0877 223.957 70.6378 224.847 75.0578 226.157C81.7278 228.157 88.4477 230.047 94.9777 232.427C105.198 236.137 115.188 240.427 125.438 244.067C134.128 247.127 142.788 246.787 150.728 241.457C153.728 239.457 156.678 237.317 159.478 235.037C163.128 232.037 166.478 228.667 170.208 225.797C182.358 216.487 196.208 210.707 210.938 206.937C223.318 203.777 235.088 199.367 245.848 192.177C251.128 188.657 257.358 186.537 263.168 183.807C264.038 183.347 265.038 183.077 266.458 182.537ZM182.058 83.2265C185.906 83.169 189.578 81.6045 192.286 78.869C194.993 76.1335 196.52 72.4452 196.538 68.5965C196.538 60.7465 190.538 54.2465 183.198 54.2565C175.458 54.2565 168.788 61.0765 168.768 69.0066C168.748 76.9366 174.558 83.2265 182.038 83.2265H182.058Z" fill="#3558A2"/>
<path d="M266.457 182.537C264.997 183.077 264.037 183.347 263.147 183.767C257.337 186.497 251.147 188.617 245.827 192.137C235.067 199.327 223.297 203.737 210.917 206.897C196.177 210.667 182.337 216.447 170.187 225.757C166.447 228.627 163.107 232.017 159.457 234.997C156.657 237.277 153.707 239.397 150.707 241.417C142.767 246.747 134.107 247.087 125.417 244.027C115.167 240.427 105.177 236.097 94.9573 232.387C88.4273 230.007 81.7072 228.107 75.0372 226.117C70.6172 224.807 66.0373 223.917 61.7173 222.417C59.417 221.614 57.3186 220.321 55.5673 218.627C47.9173 211.027 40.4473 203.247 32.9373 195.497C30.7873 193.267 30.9373 192.377 33.2173 190.397C34.401 189.325 35.7911 188.506 37.3026 187.99C38.8141 187.474 40.415 187.272 42.0072 187.397C56.8672 188.797 70.4872 183.977 84.1272 179.227C88.7472 177.617 93.2773 175.737 97.8373 173.947C98.7613 173.568 99.6569 173.124 100.517 172.617C105.807 169.617 107.327 166.617 105.897 160.727C105.584 159.886 105.578 158.961 105.88 158.116C106.182 157.271 106.772 156.559 107.547 156.107C108.877 155.107 110.197 154.197 111.467 153.167C115.237 150.167 116.037 146.717 113.987 142.327C113.257 140.767 112.407 139.267 111.567 137.757C109.747 134.487 110.687 131.647 114.327 130.617C117.215 129.837 120.167 129.315 123.147 129.057C139.68 127.357 156.32 126.936 172.917 127.797C173.225 127.865 173.526 127.959 173.817 128.077C173.607 130.917 173.417 133.857 173.167 136.787C172.954 139.32 172.704 141.847 172.417 144.367C172.077 147.307 173.207 149.367 175.417 149.597C177.627 149.827 179.307 148.227 179.597 145.257C180.027 140.747 180.377 136.257 180.787 131.707C180.887 130.637 181.097 129.577 181.277 128.407C184.927 128.407 188.457 128.247 191.967 128.407C198.967 128.787 206.117 128.907 213.067 129.997C219.067 130.937 223.347 135.227 227.067 139.727C228.224 141.352 228.934 143.252 229.127 145.237C230.477 154.487 235.417 161.297 243.007 166.407C250.007 171.117 257.007 175.787 264.007 180.497C264.757 180.997 265.387 181.597 266.457 182.537ZM165.237 187.987C162.697 185.337 159.997 183.607 156.237 184.467C150.837 185.697 144.727 193.657 145.147 199.167C145.297 201.167 146.147 202.737 148.347 202.947C150.347 203.147 151.487 201.997 152.127 200.147C152.724 198.056 153.563 196.043 154.627 194.147C155.357 192.997 156.947 192.387 158.157 191.537C158.847 192.807 159.617 194.037 160.207 195.357C160.358 195.971 160.412 196.606 160.367 197.237C160.527 199.427 160.947 201.527 163.587 201.907C166.227 202.287 167.267 200.477 168.127 198.437C168.735 196.737 169.505 195.099 170.427 193.547C171.757 191.547 173.697 191.867 174.487 194.117C174.961 195.58 175.237 197.1 175.307 198.637C175.457 200.937 176.157 202.867 178.647 203.237C181.137 203.607 182.127 201.927 183.107 200.007C184.019 198.044 185.208 196.222 186.637 194.597C188.637 192.537 191.307 193.597 191.817 196.417C192.057 197.747 192.037 199.117 192.187 200.467C192.205 201.346 192.563 202.184 193.186 202.805C193.809 203.426 194.648 203.781 195.527 203.797C197.527 203.917 198.747 202.617 199.077 200.727C199.322 199.297 199.373 197.84 199.227 196.397C198.477 189.107 192.467 184.757 185.887 186.837C184.068 187.595 182.323 188.522 180.677 189.607C175.417 183.857 172.257 183.497 165.237 187.987ZM213.677 181.587C215.313 181.673 216.952 181.673 218.587 181.587C221.587 181.257 223.137 179.247 222.187 176.467C219.267 168.007 216.184 159.607 212.937 151.267C212.675 150.611 212.227 150.047 211.648 149.643C211.07 149.239 210.385 149.013 209.68 148.992C208.974 148.972 208.278 149.159 207.677 149.529C207.076 149.899 206.596 150.437 206.297 151.077C203.027 159.077 199.867 167.077 197.017 175.137C195.747 178.747 198.207 181.607 202.017 181.697C203.427 181.697 204.837 181.697 205.947 181.697C205.947 185.827 205.947 189.517 205.947 193.217C205.947 196.047 207.307 197.937 209.407 197.857C211.997 197.757 212.957 196.047 213.077 193.667C213.257 189.777 213.457 185.907 213.677 181.597V181.587ZM102.597 219.817C109.097 219.347 113.597 215.817 117.817 211.647C119.337 210.147 119.817 208.257 118.237 206.537C116.657 204.817 114.687 205.077 112.907 206.537C111.417 207.727 110.037 209.047 108.487 210.147C105.167 212.507 101.787 212.837 98.1072 210.657C95.6158 209.195 92.9781 207.998 90.2372 207.087C85.0772 205.357 80.5872 206.807 76.8572 210.667C74.9572 212.667 74.7573 214.667 76.2073 216.217C77.6573 217.767 79.7673 217.757 81.7173 215.857C84.2473 213.427 87.0072 213.277 89.9772 214.537C91.8872 215.347 93.6372 216.537 95.5472 217.347C97.8472 218.257 100.247 218.987 102.597 219.817V219.817ZM99.9072 204.727L100.227 204.047C107.087 204.177 111.647 200.047 115.807 195.387C116.129 194.795 116.291 194.13 116.277 193.456C116.263 192.783 116.074 192.124 115.727 191.547C115.143 191.068 114.464 190.72 113.734 190.527C113.004 190.334 112.241 190.3 111.497 190.427C110.167 190.727 109.007 192.117 107.917 193.177C103.457 197.547 98.9173 197.857 94.4573 194.177C88.9273 189.647 81.0073 190.407 75.8273 195.277C73.8273 197.117 73.4473 199.187 74.6873 200.787C75.9273 202.387 78.1673 202.497 80.4573 200.787C84.6573 197.667 87.1173 197.877 91.4573 200.787C94.0373 202.497 97.0872 203.447 99.9072 204.727V204.727ZM148.907 147.187V147.367C147.827 147.367 146.737 147.447 145.647 147.517C141.047 147.827 136.437 148.027 131.857 148.517C129.767 148.737 128.727 150.267 128.997 152.417C129.02 152.876 129.137 153.327 129.342 153.739C129.547 154.151 129.836 154.516 130.189 154.811C130.542 155.106 130.953 155.325 131.395 155.453C131.837 155.581 132.301 155.617 132.757 155.557C139.897 155.217 147.037 154.797 154.177 154.337C154.614 154.354 155.05 154.285 155.46 154.134C155.87 153.982 156.246 153.751 156.567 153.454C156.888 153.156 157.146 152.798 157.328 152.401C157.51 152.003 157.612 151.574 157.627 151.137C157.668 150.704 157.623 150.268 157.494 149.853C157.365 149.438 157.155 149.052 156.876 148.719C156.597 148.386 156.254 148.112 155.868 147.912C155.482 147.713 155.06 147.592 154.627 147.557C152.722 147.33 150.806 147.207 148.887 147.187H148.907ZM132.797 158.257V158.527C131.075 158.432 129.349 158.432 127.627 158.527C125.167 158.807 123.757 160.437 124.017 162.467C124.327 164.817 126.017 165.577 128.097 165.637C132.257 165.747 136.427 165.817 140.597 165.907C143.597 165.967 145.187 164.977 145.257 162.907C145.337 160.187 143.367 159.317 141.257 158.997C138.387 158.597 135.567 158.507 132.777 158.257H132.797Z" fill="#CBCFDD"/>
<path d="M182.038 83.2258C174.538 83.2258 168.738 77.0159 168.748 69.0059C168.758 60.9959 175.438 54.2659 183.178 54.2559C190.508 54.2559 196.558 60.7458 196.518 68.5958C196.5 72.4446 194.974 76.1328 192.266 78.8683C189.559 81.6038 185.886 83.1683 182.038 83.2258V83.2258ZM184.438 60.9258C184.368 57.4258 181.638 56.0558 178.768 57.4358C174.528 59.4358 172.228 63.0158 171.298 67.5358C170.778 70.0758 171.938 72.2658 174.008 72.7058C176.078 73.1458 177.788 71.9858 178.328 69.2858C178.543 68.0883 179.01 66.9505 179.7 65.9485C180.39 64.9465 181.286 64.1035 182.328 63.4758C183.189 62.7641 183.911 61.8996 184.458 60.9258H184.438Z" fill="white"/>
<path d="M165.238 187.987C172.238 183.497 175.418 183.857 180.668 189.637C182.314 188.553 184.058 187.626 185.878 186.867C192.458 184.787 198.468 189.137 199.218 196.427C199.363 197.871 199.313 199.328 199.068 200.758C198.738 202.648 197.558 203.948 195.518 203.828C194.638 203.812 193.799 203.457 193.177 202.836C192.554 202.215 192.196 201.377 192.178 200.498C192.028 199.148 192.048 197.778 191.808 196.448C191.298 193.597 188.638 192.567 186.628 194.628C185.198 196.253 184.01 198.075 183.098 200.038C182.098 201.958 180.998 203.618 178.638 203.268C176.278 202.918 175.448 200.968 175.298 198.668C175.227 197.131 174.951 195.611 174.478 194.148C173.688 191.897 171.748 191.607 170.418 193.577C169.496 195.13 168.725 196.767 168.118 198.468C167.258 200.468 166.168 202.298 163.578 201.938C160.988 201.578 160.518 199.458 160.358 197.268C160.403 196.636 160.349 196.002 160.198 195.388C159.608 194.068 158.838 192.837 158.148 191.567C156.938 192.417 155.348 193.027 154.618 194.177C153.553 196.073 152.714 198.087 152.118 200.178C151.478 202.028 150.368 203.178 148.338 202.978C146.128 202.768 145.338 201.148 145.138 199.198C144.718 193.687 150.828 185.727 156.228 184.497C160.038 183.597 162.698 185.337 165.238 187.987Z" fill="#3558A2"/>
<path d="M213.677 181.596C213.457 185.916 213.257 189.786 213.077 193.656C212.957 196.036 211.997 197.746 209.407 197.846C207.307 197.926 205.967 196.036 205.947 193.206C205.947 189.506 205.947 185.816 205.947 181.686C204.837 181.686 203.427 181.686 202.017 181.686C198.207 181.596 195.747 178.686 197.017 175.126C199.867 167.016 203.017 159.016 206.297 151.066C206.596 150.427 207.076 149.889 207.676 149.519C208.277 149.148 208.974 148.962 209.679 148.982C210.385 149.002 211.069 149.228 211.648 149.632C212.227 150.036 212.675 150.601 212.937 151.256C216.177 159.596 219.26 167.996 222.187 176.456C223.137 179.236 221.557 181.246 218.587 181.576C216.952 181.669 215.313 181.676 213.677 181.596V181.596ZM209.807 163.186H209.187C207.817 166.776 206.437 170.366 204.997 174.186H213.827C212.397 170.226 211.097 166.696 209.807 163.176V163.186Z" fill="#3558A2"/>
<path d="M102.597 219.816C100.247 218.986 97.8467 218.256 95.5967 217.295C93.6867 216.495 91.9367 215.296 90.0267 214.486C87.0267 213.226 84.2967 213.375 81.7667 215.805C79.7667 217.706 77.6467 217.685 76.2567 216.165C74.8667 214.645 75.0067 212.576 76.9067 210.615C80.6367 206.755 85.1267 205.305 90.2867 207.035C93.0276 207.947 95.6653 209.144 98.1567 210.605C101.837 212.785 105.217 212.455 108.537 210.095C110.087 208.995 111.467 207.675 112.957 206.485C114.737 205.075 116.647 204.705 118.287 206.485C119.927 208.265 119.387 210.095 117.867 211.595C113.637 215.806 109.097 219.346 102.597 219.816Z" fill="#3558A2"/>
<path d="M99.9075 204.726C97.0875 203.446 94.0475 202.496 91.5075 200.806C87.1175 197.876 84.6575 197.666 80.5075 200.806C78.2175 202.516 76.0574 202.516 74.7374 200.806C73.4174 199.096 73.9275 197.136 75.8775 195.296C81.0575 190.426 88.9775 189.666 94.5075 194.196C99.0075 197.876 103.508 197.566 107.968 193.196C109.058 192.136 110.218 190.746 111.548 190.446C112.292 190.319 113.054 190.353 113.784 190.547C114.514 190.74 115.194 191.088 115.777 191.566C116.124 192.144 116.314 192.802 116.328 193.476C116.342 194.149 116.179 194.815 115.857 195.407C111.697 200.046 107.137 204.196 100.277 204.066L99.9075 204.726Z" fill="#3558A2"/>
<path d="M148.887 147.186C150.782 147.205 152.675 147.325 154.557 147.546C154.99 147.581 155.412 147.702 155.798 147.901C156.184 148.101 156.526 148.375 156.806 148.708C157.085 149.041 157.295 149.426 157.424 149.841C157.553 150.256 157.598 150.693 157.557 151.126C157.541 151.563 157.44 151.992 157.258 152.39C157.076 152.787 156.817 153.145 156.497 153.443C156.176 153.74 155.8 153.971 155.39 154.122C154.98 154.274 154.544 154.343 154.107 154.326C146.967 154.786 139.827 155.206 132.687 155.546C132.23 155.606 131.766 155.57 131.324 155.442C130.882 155.314 130.472 155.095 130.118 154.8C129.765 154.505 129.477 154.14 129.272 153.728C129.067 153.316 128.949 152.866 128.927 152.406C128.657 150.256 129.697 148.726 131.787 148.506C136.367 148.026 140.977 147.826 145.577 147.506C146.667 147.436 147.757 147.406 148.837 147.356L148.887 147.186Z" fill="#3558A2"/>
<path d="M132.777 158.256C135.567 158.506 138.387 158.636 141.167 159.046C143.327 159.366 145.297 160.236 145.167 162.956C145.097 165.006 143.467 165.956 140.507 165.956C136.337 165.866 132.167 165.796 128.007 165.686C125.897 165.626 124.237 164.866 123.927 162.516C123.667 160.516 125.077 158.856 127.537 158.576C129.259 158.481 130.985 158.481 132.707 158.576L132.777 158.256Z" fill="#3558A2"/>
<path d="M184.458 60.9258C183.928 61.8946 183.227 62.7587 182.388 63.4758C181.345 64.1035 180.45 64.9465 179.76 65.9485C179.07 66.9504 178.602 68.0882 178.388 69.2857C177.848 71.9857 176.188 73.1557 174.068 72.7057C171.948 72.2557 170.838 70.0757 171.358 67.5357C172.288 63.0158 174.588 59.4758 178.828 57.4359C181.658 56.0559 184.388 57.4259 184.458 60.9258Z" fill="#3558A2"/>
<path d="M209.807 163.176C211.097 166.696 212.397 170.226 213.807 174.176H205.037C206.477 170.396 207.857 166.806 209.227 163.176H209.807Z" fill="white"/>
</svg>
