<svg width="300" height="300" viewBox="0 0 300 300" fill="none" xmlns="http://www.w3.org/2000/svg">
<path d="M156.714 80.309C155.676 79.3542 154.868 78.1777 154.348 76.867C153.829 75.5563 153.612 74.1453 153.714 72.7391C153.721 70.7153 154.519 68.7744 155.937 67.3304C157.355 65.8864 159.28 65.0534 161.304 65.009C164.116 64.8971 166.926 65.3004 169.594 66.1991C170.284 66.4091 170.944 66.679 172.084 67.099C172.544 66.489 173.084 65.739 173.654 65.099C174.376 64.2823 175.147 63.5108 175.964 62.789C182.464 57.179 188.704 56.409 195.594 60.949C199.974 63.829 204.054 67.1891 208.184 70.4491C209.559 71.6358 210.827 72.9408 211.974 74.349C213.768 76.2416 214.96 78.6238 215.4 81.1943C215.839 83.7647 215.507 86.4078 214.444 88.7891C213.511 90.9503 212.424 93.0423 211.194 95.0491C210.902 95.4372 210.723 95.8974 210.673 96.3802C210.624 96.8629 210.707 97.35 210.914 97.7891C212.973 103.03 214.107 108.59 214.264 114.219C214.494 118.389 213.424 122.269 212.114 126.219C210.556 130.867 208.167 135.194 205.064 138.989C201.214 143.735 196.297 147.505 190.714 149.989L188.294 151.109C190.294 152.209 192.034 153.109 193.724 154.109C195.414 155.109 197.024 156.029 198.634 157.039C200.244 158.049 201.964 159.229 204.154 160.679C204.749 159.759 205.417 158.89 206.154 158.079C208.394 155.929 210.504 155.569 213.044 157.289C218.656 160.913 223.764 165.264 228.234 170.229C230.024 172.309 230.024 174.149 228.534 176.469C227.534 178.069 226.474 179.659 225.364 181.379C225.854 182.089 226.284 182.769 226.764 183.379C238.074 198.689 245.454 215.809 250.194 234.159C250.324 234.679 250.404 235.229 250.484 235.759C251.004 239.189 248.764 241.689 245.304 241.359C242.064 241.049 238.834 240.539 235.604 240.119L216.474 237.689C210.184 236.879 203.884 236.099 197.604 235.289C191.324 234.479 184.844 233.619 178.464 232.789C172.084 231.959 165.534 231.129 159.064 230.299L140.194 227.879L121.054 225.429L101.914 222.969L82.7838 220.489L63.9137 218.069C60.9137 217.689 57.9138 217.469 55.0338 216.869C53.6431 216.486 52.353 215.803 51.2537 214.869C50.6929 214.459 50.2883 213.87 50.1065 213.2C49.9248 212.529 49.9767 211.816 50.2537 211.179C50.7353 209.911 51.3311 208.689 52.0338 207.529C62.8138 189.919 76.1837 174.649 93.0937 162.639C93.4637 162.379 93.8037 162.089 94.0937 161.879C93.8937 159.499 93.6037 157.249 93.5437 154.999C93.398 153.361 93.7767 151.718 94.6251 150.309C95.4735 148.9 96.7477 147.797 98.2638 147.159C104.074 144.359 109.874 141.659 116.264 140.509C120.674 139.719 122.124 140.239 124.364 144.019C124.824 144.789 125.264 145.579 125.844 146.609C133.626 144.45 141.633 143.202 149.704 142.889C140.784 133.429 136.704 122.579 138.094 109.889C139.484 97.1991 145.884 87.539 156.714 80.309ZM160.464 171.739L158.464 171.119C153.994 169.659 149.464 168.349 145.044 166.689C140.214 164.879 137.694 161.689 140.544 155.739C140.774 155.249 141.014 154.739 141.234 154.259C141.814 152.949 142.374 151.629 142.994 150.189C139.614 149.619 136.634 150.649 133.644 151.189C131.626 151.645 129.655 152.285 127.754 153.099C126.504 153.569 125.384 154.399 124.114 154.839C116.92 157.342 110.014 160.608 103.514 164.579C85.3638 175.759 71.3137 190.969 59.9537 208.819C59.771 209.204 59.6173 209.602 59.4937 210.009L152.754 222.229C155.307 205.509 157.88 188.679 160.474 171.739H160.464ZM193.554 162.489C191.704 166.639 190.084 170.569 188.204 174.379C186.604 177.629 184.454 178.489 181.024 177.379C178.204 176.429 175.474 175.219 172.724 174.049C171.174 173.399 169.724 172.609 167.824 171.709C165.154 189.199 162.544 206.329 159.884 223.709C169.344 224.709 178.434 225.519 187.494 226.569C196.554 227.619 205.814 228.969 214.984 230.079C223.984 231.179 232.984 232.579 242.264 233.449C242.074 232.599 242.004 232.159 241.884 231.729C239.52 223.075 236.312 214.675 232.304 206.649C223.184 188.619 211.144 173.139 193.554 162.489ZM175.994 145.689C179.539 145.815 183.068 145.149 186.324 143.739C197.714 139.009 204.144 130.329 206.324 118.299C207.151 113.184 206.708 107.943 205.034 103.039C204.662 101.526 203.733 100.209 202.434 99.3491C199.804 97.7491 197.314 95.8291 194.524 94.6191C189.134 92.2791 183.614 90.2091 178.054 88.2891C174.564 87.0891 170.834 86.5691 167.334 85.3591C166.418 85.0149 165.433 84.8935 164.462 85.0048C163.49 85.1161 162.558 85.4568 161.744 85.999C161.044 86.419 160.314 86.7891 159.654 87.2591C148.654 95.1791 143.824 105.849 145.654 119.309C147.474 133.019 158.384 145.429 175.994 145.689ZM205.994 89.7691C206.434 88.8791 206.904 87.929 207.384 86.999C208.994 83.859 208.494 81.0991 206.094 78.5391C201.401 73.74 196.079 69.599 190.274 66.229C189.144 65.5213 187.824 65.1763 186.492 65.2407C185.16 65.3051 183.88 65.7756 182.824 66.589C181.433 67.6465 180.098 68.7747 178.824 69.969C179.514 70.399 179.884 70.6591 180.274 70.8591C180.664 71.0591 181.214 71.2991 181.654 71.4891C183.754 68.6991 185.464 67.909 187.314 68.969C187.984 69.41 188.534 70.0116 188.914 70.719C189.844 72.329 188.994 73.839 188.374 74.999L205.994 89.7691ZM157.474 150.559C160.634 154.559 163.474 158.229 166.474 161.969L179.474 156.259C172.474 152.909 165.554 150.319 157.474 150.559ZM186.154 83.0391C185.943 82.7291 185.702 82.441 185.434 82.1791C179.696 78.3837 173.521 75.2946 167.044 72.9791C165.582 72.5245 164.071 72.2492 162.544 72.159C162.25 72.1686 161.964 72.2513 161.711 72.3998C161.457 72.5482 161.245 72.7577 161.094 73.0091C160.944 73.4591 161.374 74.1391 161.634 74.6791C161.793 74.9002 162.022 75.062 162.284 75.1391C165.084 76.3591 167.834 77.769 170.734 78.719C174.734 80.049 178.904 81.029 183.004 82.159L186.154 83.0391ZM101.154 157.169L118.824 148.639C118.47 148.168 117.956 147.844 117.379 147.728C116.802 147.612 116.202 147.712 115.694 148.009C111.464 149.539 107.234 151.089 103.084 152.819C100.584 153.849 100.614 154.089 101.114 157.169H101.154ZM157.394 163.169L157.714 162.669L150.054 152.909C148.844 155.319 147.624 157.269 147.124 159.709C150.594 160.919 153.784 162.609 157.354 163.159L157.394 163.169ZM181.944 170.249C184.104 167.129 185.534 163.539 185.434 161.559L173.944 166.679L181.944 170.249ZM209.704 164.829L220.574 175.419L221.494 173.669C217.734 169.389 212.004 164.859 209.664 164.819L209.704 164.829Z" fill="#3558A2"/>
<path d="M160.473 171.74C157.886 188.667 155.317 205.48 152.763 222.18L59.5332 210.03C59.6567 209.622 59.8104 209.225 59.9932 208.84C71.3532 190.99 85.4031 175.78 103.553 164.6C110.053 160.629 116.959 157.363 124.153 154.86C125.423 154.42 126.543 153.59 127.793 153.12C129.694 152.305 131.666 151.666 133.683 151.21C136.683 150.65 139.683 149.62 143.033 150.21C142.413 151.65 141.853 152.97 141.273 154.28C141.053 154.78 140.813 155.28 140.583 155.76C137.733 161.69 140.253 164.9 145.083 166.71C149.493 168.37 154.083 169.71 158.503 171.14L160.473 171.74ZM128.253 203.03V202.87C129.253 202.87 130.253 202.87 131.253 202.87C134.253 202.8 135.483 201.69 135.943 198.71C136.243 196.71 136.493 194.71 136.713 192.78C137.203 188.46 137.783 184.14 138.103 179.78C138.333 176.73 137.243 175.48 134.193 174.94C131.143 174.4 128.283 174.04 125.313 173.63C121.633 173.14 117.943 172.71 114.313 172.19C113.198 171.936 112.028 172.102 111.026 172.655C110.025 173.208 109.262 174.111 108.883 175.19C108.528 175.918 108.275 176.692 108.133 177.49C107.393 183.6 106.593 189.71 106.043 195.84C105.743 199.21 107.043 200.72 110.463 201.13C116.343 201.91 122.293 202.43 128.243 203.03H128.253Z" fill="#979FBB"/>
<path d="M193.553 162.49C211.143 173.14 223.183 188.62 232.303 206.65C236.311 214.676 239.519 223.076 241.883 231.73C242.003 232.16 242.073 232.6 242.263 233.45C233.003 232.58 224.003 231.18 214.983 230.08C205.813 228.97 196.673 227.63 187.493 226.57C178.313 225.51 169.343 224.68 159.883 223.71C162.543 206.29 165.153 189.16 167.823 171.71C169.683 172.61 171.173 173.4 172.723 174.05C175.473 175.22 178.203 176.43 181.023 177.38C184.453 178.53 186.603 177.67 188.203 174.38C190.083 170.57 191.703 166.64 193.553 162.49ZM208.473 209.34C211.193 209.34 213.733 209.34 216.263 209.34C219.353 209.27 221.113 207.59 221.373 204.49C221.483 203.14 221.463 201.77 221.483 200.41C221.553 196.12 220.073 194.31 215.793 193.61C208.926 192.49 202.049 191.407 195.163 190.36C192.303 189.93 189.423 189.59 186.543 189.36C184.113 189.15 182.803 190.15 182.233 192.53C181.663 194.91 181.153 197.3 180.793 199.71C180.647 200.356 180.632 201.025 180.75 201.677C180.868 202.329 181.116 202.951 181.479 203.505C181.842 204.059 182.312 204.534 182.863 204.903C183.413 205.272 184.032 205.526 184.683 205.65C186.503 206.16 188.373 206.46 190.323 206.87C191.403 211.04 192.933 214.87 198.033 215.43C202.853 215.89 206.253 213.78 208.473 209.34ZM172.473 217.87C172.465 217.416 172.368 216.968 172.186 216.552C172.005 216.136 171.744 215.759 171.417 215.445C171.089 215.13 170.704 214.882 170.281 214.717C169.858 214.551 169.407 214.471 168.953 214.48C167.996 214.554 167.105 214.993 166.463 215.706C165.82 216.419 165.477 217.351 165.503 218.31C165.561 219.238 165.986 220.106 166.683 220.721C167.381 221.336 168.295 221.649 169.223 221.59C170.151 221.532 171.018 221.107 171.633 220.41C172.248 219.712 172.561 218.798 172.503 217.87H172.473ZM176.783 189.21C176.768 188.372 176.431 187.572 175.841 186.976C175.252 186.381 174.456 186.034 173.618 186.01C172.781 185.986 171.966 186.285 171.343 186.845C170.72 187.406 170.337 188.185 170.273 189.02C170.239 189.46 170.295 189.902 170.437 190.319C170.579 190.737 170.805 191.121 171.1 191.449C171.395 191.777 171.753 192.042 172.153 192.227C172.554 192.412 172.987 192.514 173.428 192.527C173.869 192.54 174.308 192.463 174.718 192.302C175.129 192.14 175.502 191.897 175.815 191.587C176.129 191.277 176.376 190.906 176.543 190.498C176.709 190.089 176.791 189.651 176.783 189.21V189.21ZM168.083 203.15C168.089 203.582 168.182 204.009 168.356 204.404C168.53 204.799 168.781 205.156 169.096 205.452C169.41 205.749 169.78 205.979 170.185 206.13C170.59 206.281 171.021 206.349 171.453 206.33C172.274 206.268 173.043 205.904 173.61 205.307C174.178 204.71 174.503 203.923 174.523 203.1C174.495 202.28 174.156 201.501 173.575 200.921C172.994 200.342 172.213 200.005 171.393 199.98C170.958 199.942 170.52 199.996 170.108 200.139C169.696 200.282 169.318 200.511 169.001 200.811C168.684 201.11 168.433 201.473 168.266 201.877C168.099 202.28 168.02 202.714 168.033 203.15H168.083Z" fill="#979FBB"/>
<path d="M175.993 145.689C158.383 145.429 147.433 133.019 145.613 119.309C143.823 105.849 148.683 95.1792 159.613 87.2592C160.273 86.7892 161.003 86.4192 161.703 85.9992C162.517 85.4569 163.449 85.1162 164.421 85.0049C165.392 84.8936 166.377 85.015 167.293 85.3592C170.793 86.5692 174.523 87.0892 178.013 88.2892C183.573 90.2092 189.093 92.2892 194.483 94.6192C197.273 95.8292 199.763 97.7492 202.393 99.3492C203.692 100.209 204.621 101.526 204.993 103.039C206.667 107.943 207.11 113.184 206.283 118.299C204.103 130.299 197.673 139.009 186.283 143.739C183.04 145.143 179.525 145.809 175.993 145.689V145.689ZM158.993 109.599C156.573 109.549 155.113 110.519 154.663 112.229C154.434 113.074 154.534 113.973 154.943 114.747C155.351 115.521 156.037 116.111 156.863 116.399C160.223 117.689 163.663 118.829 167.133 119.799C167.977 120.023 168.875 119.921 169.647 119.513C170.42 119.105 171.011 118.422 171.303 117.599C171.614 116.789 171.616 115.892 171.308 115.08C171 114.269 170.404 113.599 169.633 113.199C169.005 112.817 168.333 112.512 167.633 112.289C165.503 111.569 163.353 110.879 161.193 110.199C160.333 109.929 159.473 109.729 158.953 109.599H158.993ZM166.993 99.9292C167.004 99.2252 166.807 98.5336 166.427 97.9408C166.047 97.348 165.501 96.8803 164.857 96.5964C164.213 96.3124 163.499 96.2248 162.805 96.3444C162.111 96.4639 161.468 96.7854 160.956 97.2687C160.444 97.7519 160.086 98.3754 159.926 99.0612C159.767 99.7469 159.813 100.464 160.059 101.124C160.305 101.784 160.741 102.356 161.31 102.77C161.88 103.183 162.559 103.42 163.263 103.449C164.213 103.45 165.126 103.085 165.814 102.429C166.501 101.774 166.909 100.878 166.953 99.9292H166.993ZM178.473 104.229C178.48 103.776 178.395 103.326 178.221 102.908C178.047 102.489 177.788 102.111 177.462 101.797C177.135 101.483 176.748 101.239 176.323 101.081C175.898 100.923 175.445 100.854 174.993 100.879C174.293 100.876 173.609 101.082 173.028 101.471C172.447 101.86 171.996 102.415 171.733 103.063C171.47 103.711 171.407 104.423 171.552 105.107C171.698 105.791 172.045 106.416 172.549 106.901C173.053 107.386 173.69 107.709 174.379 107.828C175.068 107.947 175.777 107.857 176.415 107.57C177.052 107.282 177.589 106.81 177.956 106.215C178.323 105.62 178.503 104.928 178.473 104.229Z" fill="white"/>
<path d="M206.023 89.7701L188.323 75.0101C188.943 73.8501 189.793 72.3401 188.863 70.7301C188.484 70.0226 187.934 69.4211 187.263 68.9801C185.413 67.9201 183.703 68.7101 181.603 71.5001C181.163 71.3101 180.683 71.1101 180.223 70.8701C179.763 70.6301 179.463 70.4101 178.773 69.9801C180.048 68.7857 181.383 67.6576 182.773 66.6001C183.83 65.7866 185.11 65.3161 186.442 65.2518C187.774 65.1874 189.093 65.5323 190.223 66.2401C196.038 69.6048 201.37 73.7425 206.073 78.5401C208.473 81.1001 208.973 83.8601 207.363 87.0001C206.933 87.9301 206.473 88.8801 206.023 89.7701Z" fill="#979FBB"/>
<path d="M157.473 150.56C165.593 150.32 172.473 152.91 179.473 156.26L166.473 161.97C163.473 158.23 160.593 154.56 157.473 150.56Z" fill="white"/>
<path d="M186.114 83.0382L182.964 82.1582C178.864 81.0282 174.724 80.0482 170.694 78.7182C167.794 77.7682 165.044 76.3582 162.244 75.1382C161.983 75.0612 161.754 74.8994 161.594 74.6782C161.334 74.1382 160.904 73.4582 161.054 73.0082C161.206 72.7568 161.418 72.5474 161.671 72.3989C161.925 72.2505 162.211 72.1677 162.504 72.1582C164.032 72.2483 165.543 72.5237 167.004 72.9782C173.482 75.2938 179.657 78.3828 185.394 82.1783C185.663 82.4402 185.904 82.7283 186.114 83.0382V83.0382Z" fill="#979FBB"/>
<path d="M101.113 157.17C100.613 154.09 100.583 153.85 103.043 152.82C107.193 151.09 111.423 149.54 115.653 148.01C116.161 147.713 116.761 147.613 117.338 147.729C117.915 147.845 118.43 148.169 118.783 148.64L101.113 157.17Z" fill="white"/>
<path d="M157.354 163.16C153.784 162.61 150.594 160.92 147.084 159.7C147.584 157.26 148.804 155.31 150.014 152.9L157.674 162.66L157.354 163.16Z" fill="#EAECF1"/>
<path d="M181.904 170.229L173.904 166.659L185.394 161.539C185.474 163.529 184.064 167.119 181.904 170.229Z" fill="#EAECF1"/>
<path d="M209.664 164.818C212.004 164.818 217.734 169.388 221.454 173.658L220.534 175.408L209.664 164.818Z" fill="white"/>
<path d="M128.244 203.029C122.244 202.429 116.344 201.909 110.414 201.199C107.014 200.789 105.694 199.279 105.994 195.909C106.544 189.779 107.344 183.669 108.084 177.559C108.226 176.761 108.479 175.987 108.834 175.259C109.213 174.179 109.976 173.277 110.978 172.724C111.979 172.17 113.149 172.005 114.264 172.259C117.944 172.779 121.634 173.209 125.264 173.699C128.264 174.109 131.204 174.479 134.144 175.009C137.084 175.539 138.284 176.799 138.054 179.849C137.734 184.179 137.154 188.499 136.664 192.849C136.444 194.849 136.194 196.849 135.894 198.779C135.434 201.779 134.164 202.869 131.204 202.939C130.204 202.939 129.204 202.939 128.204 202.939L128.244 203.029ZM113.364 194.709C118.914 194.369 123.844 195.839 129.124 195.609C129.264 192.479 130.124 189.659 129.844 186.169C128.374 187.749 127.284 188.929 126.174 190.099C123.044 193.409 120.364 193.439 117.104 190.199C116.174 189.269 115.294 188.299 114.104 187.009C113.814 189.749 113.614 191.969 113.364 194.709V194.709ZM121.584 184.319L124.694 180.939L118.464 180.099L118.254 180.559L121.584 184.319Z" fill="#3558A2"/>
<path d="M208.473 209.34C206.243 213.78 202.843 215.89 198.033 215.4C192.933 214.88 191.403 211.01 190.323 206.84C188.373 206.43 186.503 206.13 184.683 205.62C184.033 205.495 183.414 205.241 182.863 204.873C182.313 204.504 181.842 204.028 181.479 203.474C181.116 202.92 180.869 202.299 180.751 201.647C180.633 200.995 180.647 200.326 180.793 199.68C181.153 197.27 181.673 194.87 182.233 192.5C182.793 190.13 184.113 189.12 186.543 189.33C189.423 189.57 192.303 189.91 195.163 190.33C202.043 191.37 208.92 192.453 215.793 193.58C220.073 194.28 221.553 196.09 221.483 200.38C221.483 201.74 221.483 203.11 221.373 204.46C221.113 207.56 219.373 209.24 216.263 209.31C213.743 209.38 211.203 209.34 208.473 209.34ZM188.113 199.1C189.943 199.3 191.363 199.47 192.783 199.61C195.783 199.9 197.203 201.35 197.483 204.25C197.563 205.06 197.663 205.87 197.823 206.67C197.983 207.47 198.343 208.4 199.333 208.24C200.091 208.037 200.781 207.636 201.333 207.08C201.643 206.81 201.693 206.26 201.853 205.84C202.853 203.04 203.853 202.3 206.853 202.19C208.933 202.11 211.023 202.08 213.103 201.96C213.609 201.832 214.091 201.626 214.533 201.35C212.533 200.08 192.293 196.72 188.773 196.98L188.113 199.1Z" fill="#3558A2"/>
<path d="M172.474 217.87C172.532 218.798 172.22 219.712 171.605 220.409C170.989 221.107 170.122 221.532 169.194 221.59C168.266 221.648 167.352 221.336 166.655 220.72C165.957 220.105 165.532 219.238 165.474 218.31C165.448 217.351 165.792 216.419 166.434 215.706C167.076 214.993 167.967 214.554 168.924 214.48C169.38 214.467 169.835 214.544 170.261 214.708C170.687 214.871 171.077 215.118 171.407 215.433C171.737 215.749 172.002 216.126 172.185 216.545C172.368 216.963 172.466 217.413 172.474 217.87V217.87Z" fill="#3558A2"/>
<path d="M176.734 189.229C176.742 189.67 176.661 190.108 176.494 190.516C176.328 190.925 176.081 191.295 175.767 191.605C175.453 191.916 175.08 192.159 174.67 192.32C174.259 192.482 173.821 192.559 173.38 192.546C172.939 192.533 172.505 192.431 172.105 192.246C171.705 192.06 171.346 191.796 171.051 191.468C170.756 191.14 170.531 190.756 170.389 190.338C170.247 189.921 170.191 189.479 170.224 189.039C170.288 188.203 170.671 187.424 171.294 186.864C171.917 186.303 172.732 186.004 173.57 186.029C174.408 186.053 175.204 186.399 175.793 186.995C176.382 187.591 176.719 188.391 176.734 189.229Z" fill="#3558A2"/>
<path d="M168.034 203.149C168.022 202.717 168.1 202.288 168.264 201.888C168.428 201.488 168.674 201.128 168.986 200.829C169.298 200.53 169.669 200.3 170.075 200.154C170.481 200.007 170.914 199.948 171.344 199.979C172.165 200.004 172.945 200.34 173.527 200.92C174.108 201.499 174.447 202.278 174.474 203.099C174.454 203.922 174.129 204.708 173.562 205.305C172.994 205.902 172.226 206.267 171.404 206.329C170.973 206.347 170.542 206.279 170.137 206.129C169.732 205.978 169.361 205.747 169.047 205.451C168.733 205.154 168.482 204.798 168.308 204.402C168.134 204.007 168.041 203.581 168.034 203.149V203.149Z" fill="#3558A2"/>
<path d="M158.953 109.599C159.453 109.729 160.333 109.93 161.193 110.2C163.353 110.88 165.503 111.57 167.633 112.29C168.334 112.512 169.005 112.817 169.633 113.2C170.404 113.599 171 114.269 171.308 115.081C171.616 115.892 171.614 116.789 171.303 117.6C171.011 118.423 170.42 119.106 169.647 119.513C168.875 119.921 167.977 120.023 167.133 119.8C163.663 118.8 160.223 117.69 156.863 116.4C156.037 116.111 155.351 115.521 154.943 114.747C154.535 113.974 154.435 113.074 154.663 112.23C155.073 110.52 156.533 109.549 158.953 109.599Z" fill="#3558A2"/>
<path d="M166.953 99.9285C166.909 100.884 166.496 101.786 165.8 102.442C165.104 103.099 164.18 103.46 163.223 103.448C162.266 103.399 161.368 102.973 160.725 102.262C160.082 101.552 159.747 100.616 159.793 99.6585C159.829 98.709 160.241 97.8127 160.937 97.1666C161.634 96.5205 162.559 96.1777 163.508 96.2135C164.458 96.2493 165.354 96.6608 166 97.3575C166.646 98.0542 166.989 98.979 166.953 99.9285V99.9285Z" fill="#3558A2"/>
<path d="M178.473 104.228C178.495 104.916 178.311 105.594 177.945 106.177C177.58 106.76 177.048 107.221 176.42 107.5C175.791 107.779 175.093 107.865 174.415 107.746C173.738 107.626 173.111 107.308 172.615 106.831C172.119 106.353 171.777 105.739 171.632 105.067C171.487 104.394 171.546 103.693 171.802 103.054C172.057 102.415 172.497 101.867 173.065 101.479C173.634 101.092 174.305 100.882 174.993 100.878C175.445 100.853 175.898 100.922 176.323 101.08C176.748 101.238 177.136 101.481 177.462 101.796C177.789 102.11 178.047 102.488 178.221 102.907C178.395 103.325 178.481 103.775 178.473 104.228V104.228Z" fill="#3558A2"/>
<path d="M113.363 194.71C113.613 191.97 113.813 189.71 114.063 187.01C115.293 188.3 116.173 189.27 117.063 190.2C120.323 193.44 123.003 193.41 126.133 190.1C127.243 188.93 128.333 187.75 129.803 186.17C130.113 189.66 129.223 192.48 129.083 195.61C123.843 195.84 118.913 194.37 113.363 194.71Z" fill="white"/>
<path d="M121.584 184.32L118.254 180.56L118.464 180.1L124.694 180.94L121.584 184.32Z" fill="white"/>
<path d="M188.125 199.099L188.745 196.979C192.265 196.719 212.485 200.079 214.505 201.349C214.063 201.626 213.581 201.832 213.075 201.959C210.995 202.079 208.905 202.109 206.825 202.189C203.825 202.299 202.825 203.039 201.825 205.839C201.665 206.259 201.615 206.839 201.305 207.079C200.752 207.636 200.062 208.036 199.305 208.239C198.305 208.399 197.955 207.499 197.795 206.669C197.635 205.839 197.535 205.059 197.455 204.249C197.175 201.349 195.715 199.899 192.755 199.609C191.375 199.469 189.955 199.299 188.125 199.099Z" fill="white"/>
</svg>
