<svg width="300" height="300" viewBox="0 0 300 300" fill="none" xmlns="http://www.w3.org/2000/svg">
<path d="M74.0453 96.45C74.5953 92.16 75.1052 88.12 75.6452 84.09C75.9152 82.02 76.1453 79.94 76.5453 77.9C77.1652 74.79 78.5453 73.53 81.8253 73.56C83.9968 73.6322 86.1597 73.8696 88.2952 74.27C103.049 76.73 117.789 79.21 132.515 81.71C133.755 81.91 135.015 82.05 136.515 82.26C137.389 79.7067 138.262 77.16 139.135 74.62C139.795 72.73 140.405 70.83 141.135 68.98C142.315 65.98 143.955 65.11 147.135 65.74C151.315 66.57 155.475 67.45 159.865 68.36C160.275 67.28 160.705 66.3 161.025 65.3C163.659 57.1133 166.279 48.92 168.885 40.72C169.017 40.2852 169.181 39.8607 169.375 39.45C170.375 37.45 172.125 36.56 174.025 37.21C174.928 37.5561 175.66 38.2411 176.066 39.119C176.471 39.9968 176.517 40.9983 176.195 41.91C175.545 44.17 174.735 46.39 174.015 48.63C171.755 55.63 169.505 62.56 167.155 69.84L174.405 71.46C176.705 71.97 179.025 72.46 181.315 72.96C184.905 73.8 185.745 74.87 185.785 78.62C185.785 81.62 185.785 84.62 185.785 87.62V90.52L198.785 92.74C209.505 94.54 220.235 96.31 230.945 98.17C234.535 98.79 235.245 100.51 234.155 104.02C233.607 106.303 233.226 108.622 233.015 110.96C232.555 114.08 232.095 117.21 231.595 120.64L239.075 122.15C242.625 122.87 246.195 123.5 249.725 124.31C252.725 125.01 253.725 126.31 253.405 129.31C252.695 135.16 251.825 140.99 250.955 146.81C249.415 157.12 247.805 167.41 246.245 177.71C245.685 181.42 244.395 182.71 240.695 182.54C235.695 182.37 230.695 182.03 225.695 181.77L223.025 181.59C222.575 184.59 222.085 187.38 221.705 190.22C221.135 194.53 220.705 198.85 220.105 203.16C219.795 205.61 217.715 206.88 215.105 206.4C211.285 205.71 207.455 205.09 203.435 204.4C201.855 211.85 200.345 219 198.755 226.47L206.385 227.82C206.655 227.87 206.935 227.82 207.205 227.89C211.575 228.47 212.945 230.31 212.205 234.79C211.775 237.38 211.205 239.95 210.705 242.53C209.705 247.67 208.625 252.82 207.545 257.96C206.695 261.96 205.015 263.22 201.035 262.59C191.815 261.13 182.605 259.59 173.395 258.09L138.245 252.34C126.525 250.44 114.795 248.58 103.085 246.67C90.192 244.57 77.3119 242.453 64.4453 240.32C62.5653 240.01 60.6753 239.74 58.8253 239.32C54.9953 238.41 53.4152 235.87 54.1652 232.09C55.5252 225.25 56.8052 218.4 58.2752 211.58C58.661 210.124 59.3417 208.762 60.2752 207.58C60.9111 206.684 61.8178 206.016 62.8619 205.674C63.906 205.332 65.0325 205.334 66.0753 205.68C69.8553 206.6 73.6852 207.34 77.9152 208.25C78.9152 201.04 79.9152 194.01 80.8552 186.82C78.0252 186.27 75.3552 185.82 72.7452 185.2C70.7385 184.679 68.7732 184.011 66.8652 183.2C64.5552 182.2 63.7153 180.4 64.0453 177.91C64.5953 173.78 65.0452 169.63 65.5352 165.49C65.6252 164.68 65.7352 163.88 65.8552 162.96L53.5152 157.25C52.1152 156.6 50.7053 155.98 49.3253 155.25C46.3953 153.77 45.7353 152.65 46.0853 149.41C46.8653 142.283 47.6853 135.163 48.5453 128.05C49.5453 119.67 50.6152 111.3 51.6152 102.92C52.1452 98.49 53.3852 97.34 57.8952 97.16C63.1652 96.94 68.4153 96.7 74.0453 96.45ZM226.545 104.67L83.2952 80.73C79.2952 113.12 75.2953 145.28 71.2953 177.92L213.295 198.61C217.725 167.13 222.105 136.11 226.545 104.64V104.67ZM65.3852 212.32C64.0352 219.25 62.7452 225.85 61.3852 232.61L200.745 255.22C202.125 248.37 203.435 241.83 204.805 235.05C203.615 234.8 202.585 234.52 201.535 234.37C189.535 232.68 177.475 231.05 165.455 229.32C148.455 226.85 131.345 224.44 114.335 221.77C103.045 219.99 91.8153 217.87 80.5853 215.77C75.6653 214.83 70.7352 213.54 65.3852 212.32ZM196.385 203.47L87.8852 187.64C86.8852 195.19 86.0152 202.41 85.1152 209.55C92.5952 212.26 186.115 225 191.745 225.31C193.265 218.15 194.785 210.99 196.375 203.47H196.385ZM239.385 175.27C241.625 160.34 243.815 145.71 246.045 130.83L230.585 127.83C228.365 143.6 226.215 158.88 224.015 174.43L239.385 175.27ZM66.6652 155.4C69.6652 135.78 73.0952 105.98 72.4952 103.8L58.7153 104.45C56.8953 119.58 55.1253 134.3 53.3453 149.12L66.6652 155.4ZM178.465 79.73L147.375 73.21C146.135 76.77 145.025 79.97 143.775 83.53L178.465 89.33V79.73Z" fill="#3558A2"/>
<path d="M226.545 104.639C222.105 136.079 217.725 167.099 213.285 198.579L71.2852 177.889C75.2852 145.249 79.2852 113.089 83.2852 80.6992L226.545 104.639ZM118.065 159.639C118.065 156.299 118.185 153.229 118.065 150.159C118.079 149.679 117.995 149.201 117.817 148.754C117.639 148.307 117.373 147.902 117.033 147.562C116.693 147.222 116.287 146.955 115.84 146.777C115.394 146.6 114.916 146.515 114.435 146.529C113.953 146.525 113.475 146.623 113.034 146.817C112.593 147.011 112.198 147.297 111.875 147.655C111.553 148.013 111.31 148.436 111.164 148.896C111.017 149.355 110.97 149.84 111.025 150.319C111.085 154.479 111.355 158.649 111.605 162.809C111.639 163.639 111.955 164.433 112.5 165.06C113.045 165.687 113.788 166.11 114.605 166.259C115.571 166.502 116.549 166.696 117.535 166.839L152.915 172.639C157.555 173.399 162.205 174.179 166.855 174.909C169.635 175.339 171.285 174.669 172.245 172.369C173.565 169.199 174.725 165.949 175.765 162.679C176.078 161.816 176.045 160.865 175.672 160.026C175.299 159.187 174.616 158.525 173.765 158.179C172.9 157.883 171.954 157.924 171.118 158.295C170.282 158.666 169.617 159.339 169.255 160.179C168.906 160.917 168.603 161.675 168.345 162.449C167.705 164.109 167.075 165.769 166.415 167.449L118.065 159.639ZM144.395 150.489V150.589H149.025C152.705 150.539 154.025 149.359 154.565 145.669C154.875 143.509 155.185 141.359 155.485 139.199C156.335 133.099 157.275 126.999 157.975 120.869C158.345 117.719 157.195 116.319 154.115 115.659C150.575 114.899 147.005 114.209 143.435 113.599C139.865 112.989 138.195 114.399 137.745 118.019C137.065 123.419 136.365 128.809 135.745 134.219C135.315 137.729 134.835 141.219 134.565 144.759C134.245 148.999 135.565 150.399 139.795 150.489C141.305 150.469 142.845 150.439 144.395 150.439V150.489ZM118.465 109.129C117.56 109.158 116.699 109.523 116.049 110.154C115.4 110.785 115.01 111.635 114.955 112.539C114.967 113.444 115.325 114.31 115.956 114.959C116.586 115.608 117.441 115.991 118.345 116.029C119.248 115.979 120.101 115.602 120.747 114.969C121.392 114.336 121.786 113.491 121.855 112.589C121.867 112.135 121.789 111.683 121.624 111.26C121.459 110.836 121.212 110.45 120.896 110.123C120.581 109.796 120.203 109.536 119.786 109.357C119.368 109.177 118.919 109.083 118.465 109.079V109.129ZM182.955 124.129C182.977 123.447 182.794 122.774 182.429 122.197C182.064 121.621 181.535 121.167 180.909 120.894C180.284 120.621 179.591 120.543 178.92 120.668C178.249 120.794 177.631 121.118 177.147 121.598C176.662 122.078 176.332 122.693 176.201 123.363C176.069 124.032 176.142 124.726 176.409 125.354C176.676 125.982 177.125 126.516 177.698 126.886C178.272 127.255 178.943 127.445 179.625 127.429C180.495 127.4 181.322 127.042 181.94 126.428C182.558 125.814 182.92 124.989 182.955 124.119V124.129Z" fill="#CBCFDD"/>
<path d="M65.3857 212.32C70.7357 213.54 75.6457 214.83 80.6257 215.76C91.8557 217.87 103.086 219.99 114.376 221.76C131.376 224.43 148.446 226.84 165.496 229.31C177.496 231.04 189.546 232.67 201.576 234.36C202.576 234.51 203.656 234.79 204.846 235.04C203.476 241.82 202.166 248.36 200.786 255.21L61.4258 232.64C62.7458 225.85 64.0357 219.25 65.3857 212.32Z" fill="#CBCFDD"/>
<path d="M196.375 203.47C194.785 210.99 193.265 218.15 191.745 225.33C186.165 225.02 92.5952 212.28 85.1152 209.57C86.0152 202.43 86.9253 195.21 87.8853 187.66L196.375 203.47Z" fill="#979FBB"/>
<path d="M239.335 175.269L223.965 174.459C226.165 158.909 228.315 143.629 230.535 127.859L245.995 130.859C243.765 145.709 241.575 160.339 239.335 175.269Z" fill="#979FBB"/>
<path d="M66.6656 155.401L53.3457 149.121C55.1257 134.301 56.8957 119.581 58.7157 104.451L72.4956 103.801C73.0956 105.981 69.6656 135.781 66.6656 155.401Z" fill="#979FBB"/>
<path d="M178.465 79.7309V89.3309L143.775 83.5309C145.025 79.9709 146.135 76.7709 147.375 73.2109L178.465 79.7309Z" fill="white"/>
<path d="M118.065 159.639L166.315 167.509C166.975 165.789 167.605 164.129 168.245 162.509C168.502 161.735 168.806 160.977 169.155 160.239C169.516 159.399 170.182 158.726 171.018 158.355C171.854 157.985 172.799 157.943 173.665 158.239C174.515 158.585 175.199 159.247 175.572 160.086C175.945 160.925 175.978 161.876 175.665 162.739C174.665 166.009 173.465 169.259 172.145 172.429C171.145 174.729 169.535 175.429 166.755 174.969C162.105 174.239 157.455 173.459 152.815 172.699L117.435 166.899C116.449 166.756 115.471 166.563 114.505 166.319C113.687 166.17 112.945 165.747 112.4 165.12C111.855 164.493 111.539 163.7 111.505 162.869C111.255 158.709 110.985 154.539 110.925 150.379C110.869 149.9 110.917 149.415 111.063 148.956C111.21 148.496 111.452 148.074 111.775 147.715C112.097 147.357 112.492 147.071 112.934 146.877C113.375 146.683 113.853 146.585 114.335 146.589C114.815 146.576 115.293 146.66 115.74 146.838C116.187 147.015 116.592 147.282 116.932 147.622C117.272 147.962 117.539 148.367 117.717 148.814C117.894 149.261 117.979 149.739 117.965 150.219C118.185 153.179 118.065 156.249 118.065 159.639Z" fill="#3558A2"/>
<path d="M144.395 150.44C142.845 150.44 141.305 150.44 139.755 150.44C135.565 150.35 134.205 148.95 134.525 144.71C134.795 141.19 135.275 137.71 135.705 134.17C136.365 128.76 137.065 123.37 137.705 117.97C138.155 114.35 139.885 112.97 143.395 113.55C146.905 114.13 150.535 114.85 154.075 115.61C157.155 116.27 158.305 117.67 157.935 120.82C157.235 126.95 156.295 133.05 155.445 139.15C155.145 141.31 154.835 143.46 154.525 145.62C153.985 149.31 152.665 150.49 148.985 150.54H144.355L144.395 150.44ZM144.585 121.22C143.695 128.74 142.855 135.87 141.985 143.22H147.525C148.525 136.22 149.785 129.3 150.415 122.22L144.585 121.22Z" fill="#3558A2"/>
<path d="M118.465 109.08C118.915 109.084 119.36 109.177 119.774 109.353C120.188 109.529 120.563 109.785 120.878 110.106C121.193 110.428 121.442 110.808 121.609 111.226C121.777 111.644 121.86 112.09 121.855 112.54C121.786 113.441 121.392 114.287 120.747 114.92C120.101 115.553 119.248 115.929 118.345 115.98C117.441 115.942 116.586 115.559 115.955 114.91C115.325 114.261 114.967 113.395 114.955 112.49C115.01 111.586 115.4 110.736 116.049 110.105C116.698 109.474 117.56 109.108 118.465 109.08V109.08Z" fill="#3558A2"/>
<path d="M182.955 124.121C182.918 124.989 182.554 125.812 181.936 126.424C181.319 127.035 180.493 127.392 179.625 127.421C178.711 127.394 177.842 127.02 177.194 126.376C176.546 125.731 176.167 124.864 176.135 123.951C176.157 123.047 176.538 122.188 177.194 121.565C177.849 120.941 178.725 120.604 179.63 120.626C180.534 120.649 181.393 121.029 182.016 121.685C182.64 122.34 182.977 123.217 182.955 124.121V124.121Z" fill="#3558A2"/>
<path d="M144.584 121.219L150.414 122.219C149.784 129.219 148.514 136.139 147.524 143.219H141.984C142.854 135.869 143.664 128.739 144.584 121.219Z" fill="white"/>
</svg>
