<svg width="300" height="300" viewBox="0 0 300 300" fill="none" xmlns="http://www.w3.org/2000/svg">
<path d="M173.38 235.877C172.95 237.877 172.54 239.797 172.12 241.727C171.953 242.621 171.73 243.502 171.45 244.367C170.57 246.817 168.95 247.897 166.39 247.437C161.84 246.607 157.31 245.687 152.8 244.637C149.8 243.937 148.72 242.157 149.18 238.977C149.56 236.377 150.03 233.797 150.52 230.867C140.12 228.317 129.68 226.237 119.3 223.867C108.92 221.497 98.6501 219.357 88.3001 217.107C87.3701 220.107 86.55 223.007 85.61 225.827C84.46 229.287 82.9301 230.137 79.4501 229.317C75.4001 228.367 71.3501 227.407 67.3101 226.407C63.6401 225.497 62.5601 223.747 63.3101 220.007C63.5901 218.677 63.9801 217.377 64.3101 216.007C64.6401 214.637 64.9001 213.567 65.3101 212.007C63.7957 211.759 62.2966 211.425 60.8201 211.007C59.4472 210.615 58.1492 209.997 56.98 209.177C54.8 207.487 54.56 205.177 55.15 202.547C57.09 193.977 58.93 185.387 60.79 176.807C65.0567 157.167 69.3234 137.527 73.5901 117.887C77.6568 99.0941 81.7234 80.2708 85.79 61.4175C86.08 60.0875 86.38 58.7575 86.67 57.4175C87.56 53.2775 90.82 51.2275 94.99 52.2675C99.91 53.4975 104.81 54.7975 109.72 56.0775C143.053 64.7441 176.357 73.4108 209.63 82.0775C210.603 82.289 211.551 82.6007 212.46 83.0075C213.541 83.4813 214.417 84.3268 214.929 85.3908C215.441 86.4547 215.555 87.6668 215.25 88.8075C213.54 98.0675 211.78 107.317 210.03 116.577C207.57 129.657 205.107 142.737 202.64 155.817C200.393 167.737 198.147 179.661 195.9 191.587C193.433 204.667 190.96 217.744 188.48 230.817C188.244 232.249 187.91 233.662 187.48 235.047C186.71 237.347 185.15 238.047 182.82 237.617C179.79 237.007 176.67 236.477 173.38 235.877ZM93.73 59.6375C83.3 107.767 72.8901 155.747 62.4501 203.897L181.15 229.897C190.03 182.777 198.85 136.037 207.69 89.1775L93.73 59.6375ZM81.0601 215.547L72.8401 213.767C71.6601 216.637 71.4301 217.767 71.5801 219.877L79.1901 221.667C79.8401 219.527 80.4101 217.667 81.0601 215.547V215.547ZM158.06 232.397C157.2 234.107 157.25 235.957 156.83 237.967L164.89 239.617C165.33 237.617 165.7 236.037 166.1 234.247L158.06 232.397Z" fill="#3558A2"/>
<path d="M246.421 153.418C245.73 153.428 245.045 153.289 244.413 153.012C243.78 152.735 243.215 152.325 242.754 151.81C242.294 151.295 241.949 150.688 241.743 150.029C241.537 149.37 241.475 148.674 241.561 147.988C242.45 142.423 242.057 136.728 240.411 131.338C239.462 128.281 237.413 125.684 234.661 124.049C232.981 122.979 231.211 122.049 229.501 121.049C227.941 120.109 226.801 118.798 226.901 116.889C226.965 115.977 227.304 115.107 227.874 114.392C228.443 113.678 229.216 113.154 230.091 112.889C231.691 112.249 233.251 111.519 234.861 110.889C236.518 110.25 238.03 109.286 239.308 108.052C240.586 106.819 241.604 105.342 242.301 103.709C244.176 99.9763 245.387 95.9462 245.881 91.7986C246.055 90.0876 246.39 88.3969 246.881 86.7487C247.611 84.0987 248.881 83.0786 250.961 83.1586C252.1 83.186 253.198 83.5951 254.077 84.3204C254.956 85.0456 255.567 86.0451 255.811 87.1586C256.301 89.3686 256.621 91.6086 257.051 93.8286C257.673 97.2278 259.153 100.412 261.351 103.079C264.631 107.009 268.131 110.569 272.931 112.729C275.791 114.019 276.021 117.349 273.561 119.449C271.421 121.269 269.121 122.899 266.951 124.679C258.951 131.258 252.761 139.138 249.951 149.368C249.578 150.558 248.958 151.656 248.131 152.588C247.791 153.128 246.791 153.258 246.421 153.418ZM251.421 101.079C250.566 103.316 249.584 105.503 248.481 107.629C247.275 109.748 245.81 111.71 244.121 113.469C242.36 115.021 240.484 116.438 238.511 117.709C244.281 121.358 247.331 126.618 248.631 133.518C253.541 127.128 258.531 121.469 264.811 116.879C259.231 112.319 254.561 107.419 251.441 101.069L251.421 101.079Z" fill="#3558A2"/>
<path d="M53.1712 123.278C52.4137 123.269 51.6703 123.073 51.0073 122.706C50.3442 122.34 49.7821 121.815 49.3712 121.178C47.7712 118.878 46.1612 116.588 44.4212 114.388C42.3846 111.692 39.5561 109.699 36.3312 108.688C33.8155 107.989 31.2567 107.454 28.6712 107.088C26.7912 106.798 25.0912 106.338 24.3112 104.398C23.5312 102.458 24.3111 100.858 25.6111 99.4584C26.9111 98.0584 28.2211 96.6784 29.6111 95.3984C34.628 90.8347 37.6937 84.5136 38.1712 77.7484C38.2499 76.7578 38.4618 75.7823 38.8012 74.8483C39.017 74.1465 39.4498 73.5312 40.0374 73.091C40.625 72.6508 41.3371 72.4082 42.0712 72.3983C42.8076 72.3637 43.5354 72.5679 44.1463 72.9806C44.7572 73.3933 45.2185 73.9923 45.4612 74.6884C47.3412 79.3284 51.1612 81.8784 55.4612 83.6884C58.5015 84.8326 61.6151 85.7714 64.7812 86.4984C67.6812 87.2484 68.9413 90.0684 67.3513 92.6084C67.1192 92.9969 66.8329 93.3505 66.5012 93.6584C61.7112 98.1484 59.7212 104.068 58.2412 110.178C57.4712 113.338 57.1512 116.598 56.5412 119.798C56.1912 121.928 54.5512 123.318 53.1712 123.278ZM57.7213 92.5284C55.1413 91.5284 52.8112 90.7484 50.6612 89.6484C48.5112 88.5484 46.4212 87.0284 44.1412 85.5884C42.9812 91.5884 39.1412 95.9584 35.1412 100.588C41.6012 101.858 46.3712 105.268 50.5812 109.968C52.3612 103.848 53.7913 97.9184 57.7213 92.5284Z" fill="#3558A2"/>
<path d="M93.7302 59.6387L207.73 89.1987C198.89 136.059 190.07 182.799 181.19 229.919L62.4902 203.919C72.8902 155.749 83.3002 107.769 93.7302 59.6387ZM71.7903 194.299C72.4003 198.989 72.9403 199.629 77.5903 200.509C83.5903 201.659 89.7302 202.609 95.7402 203.909C106.97 206.349 118.16 208.909 129.36 211.529C141.18 214.239 152.99 216.999 164.81 219.709C166.423 219.94 167.935 220.635 169.16 221.709C170.49 222.999 172.16 222.819 173.58 221.539C175.108 220.236 176.145 218.451 176.52 216.479C179.367 200.859 182.25 185.245 185.17 169.639C189.27 147.432 193.37 125.219 197.47 102.999C197.916 100.687 197.916 98.3108 197.47 95.9987C196.96 93.2887 195.69 91.9987 193.25 91.4387C184.89 89.4387 176.53 87.4154 168.17 85.3687L101.99 69.1087C99.5002 68.4887 97.7602 69.4387 96.9902 71.9587C96.7802 72.6487 96.6203 73.3587 96.4703 74.0687C94.6637 82.7354 92.8603 91.4253 91.0603 100.139C85.0603 129.039 79.0603 157.945 73.0603 186.859C72.6503 189.329 72.2603 191.819 71.7903 194.299Z" fill="#EAECF1"/>
<path d="M81.0598 215.55C80.4098 217.67 79.8398 219.55 79.1898 221.67L71.5798 219.88C71.4298 217.77 71.6599 216.64 72.8399 213.77L81.0598 215.55Z" fill="#979FBB"/>
<path d="M158.11 232.418L166.11 234.268C165.71 236.058 165.34 237.688 164.9 239.638L156.84 237.988C157.3 235.958 157.25 234.108 158.11 232.418Z" fill="#979FBB"/>
<path d="M251.441 101.068C254.561 107.458 259.231 112.318 264.831 116.869C258.551 121.459 253.561 127.119 248.651 133.509C247.351 126.609 244.301 121.349 238.531 117.699C240.505 116.428 242.38 115.011 244.141 113.458C245.831 111.7 247.295 109.738 248.501 107.618C249.605 105.493 250.587 103.306 251.441 101.068V101.068Z" fill="white"/>
<path d="M57.7209 92.5294C53.8109 97.9194 52.3609 103.849 50.5709 109.989C46.3609 105.289 41.5709 101.879 35.1309 100.609C39.1309 95.9594 42.9809 91.6094 44.1309 85.6094C46.4109 87.0494 48.4409 88.5294 50.6509 89.6694C52.8609 90.8094 55.1409 91.4994 57.7209 92.5294Z" fill="white"/>
<path d="M71.7891 194.299C72.2391 191.819 72.629 189.299 73.139 186.859C79.139 157.946 85.139 129.039 91.139 100.139C92.939 91.4727 94.7424 82.7828 96.5491 74.0694C96.6991 73.3594 96.8591 72.6494 97.0691 71.9594C97.8491 69.4394 99.5891 68.4894 102.069 69.1094L168.239 85.4194C176.606 87.4194 184.966 89.4194 193.319 91.4194C195.759 92.0094 197.029 93.2694 197.539 95.9794C197.985 98.2915 197.985 100.667 197.539 102.979C193.426 125.193 189.326 147.406 185.239 169.619C182.346 185.233 179.462 200.846 176.589 216.459C176.214 218.431 175.176 220.216 173.649 221.519C172.259 222.799 170.559 222.979 169.229 221.689C168.003 220.615 166.492 219.921 164.879 219.689C153.059 216.979 141.249 214.219 129.429 211.509C118.229 208.939 107.039 206.329 95.8091 203.889C89.8091 202.589 83.7091 201.639 77.6591 200.489C72.9591 199.629 72.4191 198.989 71.7891 194.299ZM79.4291 193.129C80.4291 193.389 81.1591 193.649 81.9391 193.789C86.4791 194.649 91.0491 195.339 95.5591 196.329C107.669 198.999 119.749 201.769 131.839 204.529C143.489 207.189 155.129 209.899 166.769 212.529C167.619 212.719 168.499 212.809 169.599 212.989C176.669 174.689 183.689 136.659 190.739 98.4394L103.459 77.1394C95.4491 115.899 87.4691 154.419 79.4491 193.129H79.4291Z" fill="#3558A2"/>
<path d="M79.4492 193.129C87.4492 154.429 95.4492 115.899 103.449 77.1289L190.729 98.4289C183.729 136.649 176.659 174.679 169.589 212.979C168.489 212.799 167.589 212.709 166.759 212.519C155.119 209.849 143.479 207.139 131.829 204.519C119.739 201.759 107.659 198.989 95.5492 196.319C91.0392 195.319 86.4692 194.639 81.9292 193.779C81.1792 193.649 80.4192 193.419 79.4492 193.129ZM100.149 166.279C99.7492 180.519 111.429 197.279 132.019 196.749C138.022 196.504 143.821 194.498 148.692 190.981C153.563 187.464 157.292 182.592 159.415 176.971C161.537 171.35 161.959 165.229 160.628 159.371C159.297 153.512 156.272 148.174 151.929 144.022C147.586 139.87 142.118 137.088 136.205 136.021C130.293 134.954 124.197 135.65 118.677 138.023C113.157 140.396 108.458 144.34 105.163 149.364C101.868 154.388 100.125 160.271 100.149 166.279V166.279ZM161.209 111.649C160.779 101.879 153.589 94.7589 143.749 94.7989C134.469 94.7989 127.159 101.949 127.109 111.799C127.083 114.062 127.513 116.306 128.375 118.399C129.237 120.491 130.513 122.388 132.126 123.975C133.738 125.562 135.655 126.808 137.76 127.637C139.866 128.466 142.117 128.861 144.379 128.799C153.849 128.779 160.989 121.359 161.209 111.649Z" fill="white"/>
<path d="M100.151 166.279C100.132 160.279 101.879 154.407 105.172 149.392C108.466 144.378 113.162 140.442 118.675 138.076C124.188 135.709 130.275 135.016 136.179 136.083C142.083 137.15 147.543 139.929 151.88 144.075C156.216 148.221 159.238 153.551 160.569 159.401C161.899 165.251 161.48 171.363 159.364 176.977C157.247 182.591 153.527 187.459 148.665 190.974C143.803 194.489 138.015 196.498 132.021 196.749C111.431 197.299 99.7907 180.519 100.151 166.279ZM148.011 150.589C142.201 144.589 135.441 142.029 127.481 143.159C124.446 143.502 121.518 144.481 118.887 146.032C116.256 147.583 113.981 149.67 112.211 152.159C112.551 152.529 112.651 152.709 112.801 152.789C118.521 155.709 124.247 158.629 129.981 161.549C130.45 161.814 130.988 161.929 131.525 161.879C132.061 161.829 132.569 161.616 132.981 161.269C135.331 159.579 137.721 157.939 140.081 156.269C142.671 154.469 145.221 152.619 148.011 150.589V150.589ZM108.871 159.219C103.751 171.539 113.711 188.529 128.071 188.849C128.071 187.679 128.071 186.519 128.071 185.349C128.141 180.549 128.071 175.739 128.341 170.949C128.441 170.382 128.337 169.798 128.048 169.3C127.758 168.803 127.303 168.423 126.761 168.229C122.931 166.369 119.131 164.419 115.331 162.499C113.241 161.419 111.151 160.419 108.871 159.219V159.219ZM151.871 157.319C151.617 157.354 151.371 157.428 151.141 157.539C146.481 160.829 141.841 164.169 137.141 167.439C136.623 167.798 136.211 168.288 135.945 168.859C135.68 169.43 135.571 170.062 135.631 170.689C135.571 175.849 135.391 181.009 135.301 186.169C135.344 187.029 135.451 187.885 135.621 188.729C150.581 185.769 157.891 169.009 151.851 157.319H151.871Z" fill="#3558A2"/>
<path d="M161.211 111.647C160.991 121.357 153.851 128.777 144.381 128.777C142.119 128.839 139.867 128.444 137.762 127.615C135.656 126.786 133.74 125.541 132.127 123.954C130.514 122.366 129.239 120.469 128.377 118.377C127.515 116.285 127.084 114.04 127.111 111.777C127.111 101.947 134.471 94.7774 143.751 94.7774C153.591 94.7574 160.791 101.877 161.211 111.647ZM146.431 121.227C151.781 120.017 155.191 114.807 153.541 110.317C151.821 110.567 150.091 110.487 149.121 108.657C148.151 106.827 149.031 105.397 150.121 104.077C146.421 101.277 142.511 101.077 139.121 103.557C140.301 105.047 140.951 106.697 139.731 108.477C138.401 110.417 136.491 109.917 134.731 109.407C133.411 113.407 135.031 117.487 138.971 120.007C139.761 118.077 140.851 116.437 143.301 116.817C145.751 117.197 146.071 119.297 146.431 121.227V121.227Z" fill="#3558A2"/>
<path d="M148.01 150.589C145.22 152.589 142.67 154.47 140.11 156.309C137.75 157.989 135.36 159.629 133.01 161.309C132.598 161.657 132.09 161.869 131.554 161.919C131.018 161.97 130.479 161.854 130.01 161.589C124.29 158.663 118.564 155.743 112.83 152.829C112.68 152.749 112.58 152.57 112.24 152.2C114.011 149.711 116.285 147.623 118.916 146.073C121.547 144.522 124.476 143.543 127.51 143.2C135.44 142.03 142.2 144.569 148.01 150.589Z" fill="white"/>
<path d="M108.87 159.219C111.15 160.379 113.24 161.449 115.33 162.499C119.13 164.419 122.93 166.369 126.76 168.229C127.302 168.423 127.758 168.802 128.047 169.3C128.336 169.798 128.44 170.382 128.34 170.949C128.12 175.739 128.14 180.549 128.07 185.349C128.07 186.519 128.07 187.679 128.07 188.849C113.71 188.529 103.79 171.539 108.87 159.219Z" fill="white"/>
<path d="M151.851 157.318C157.851 169.008 150.58 185.768 135.63 188.728C135.461 187.884 135.354 187.028 135.311 186.168C135.401 181.008 135.581 175.848 135.641 170.688C135.581 170.061 135.69 169.43 135.955 168.859C136.221 168.288 136.633 167.797 137.151 167.438C141.821 164.168 146.461 160.828 151.151 157.538C151.372 157.431 151.608 157.357 151.851 157.318V157.318Z" fill="white"/>
<path d="M146.429 121.229C146.069 119.299 145.779 117.229 143.299 116.819C140.819 116.409 139.759 118.079 138.969 120.009C135.029 117.489 133.409 113.419 134.729 109.409C136.529 109.919 138.439 110.409 139.729 108.479C140.949 106.699 140.299 105.049 139.119 103.559C142.469 101.109 146.379 101.279 150.119 104.079C149.029 105.399 148.189 106.909 149.119 108.659C150.049 110.409 151.819 110.569 153.539 110.319C155.189 114.809 151.789 120.019 146.429 121.229Z" fill="#979FBB"/>
</svg>
