<svg width="300" height="300" viewBox="0 0 300 300" fill="none" xmlns="http://www.w3.org/2000/svg">
<path d="M189.379 141.015L186.069 152.095C185.859 152.795 185.599 153.475 185.419 154.175C185.057 155.871 184.197 157.421 182.951 158.627C181.704 159.832 180.126 160.639 178.419 160.945C175.249 161.695 172.069 162.375 168.889 163.065C167.759 163.315 166.599 163.495 165.289 163.735C165.129 166.075 164.929 168.325 164.819 170.575C164.729 172.575 164.759 174.575 164.679 176.575C164.726 177.816 164.358 179.037 163.633 180.045C162.909 181.054 161.87 181.793 160.679 182.145C157.789 183.195 154.979 184.495 152.089 185.535C151.44 185.709 150.862 186.083 150.437 186.603C150.012 187.124 149.761 187.764 149.719 188.435C149.219 191.925 148.509 195.435 147.929 198.875C147.775 199.8 147.391 200.673 146.813 201.412C146.235 202.151 145.48 202.733 144.619 203.105C140.83 205.238 137.182 207.613 133.699 210.215C126.299 215.605 119.009 221.165 111.699 226.655C105.245 231.541 97.8341 235.013 89.949 236.845C85.8244 237.765 81.5058 237.142 77.809 235.095C74.7637 233.492 71.9118 231.546 69.309 229.295C64.1284 224.866 59.8357 219.495 56.6589 213.465C50.7189 201.895 52.239 190.845 59.569 180.465C64.069 174.075 70.119 169.255 76.469 164.825C81.009 161.665 85.669 158.675 90.209 155.505C92.209 154.115 93.999 152.455 95.929 150.955C96.4398 150.593 96.9942 150.298 97.579 150.075C98.925 149.603 100.238 149.042 101.509 148.395C147.402 120.335 193.282 92.2648 239.149 64.1848C239.837 63.746 240.584 63.4092 241.369 63.1848C244.039 62.4748 246.309 63.8548 246.429 66.5648C246.749 73.5648 246.889 80.5648 247.019 87.5048C247.015 88.4205 246.781 89.3206 246.339 90.1226C245.897 90.9245 245.261 91.6027 244.489 92.0948C241.779 94.0948 239.089 96.0948 236.329 97.9948C235.422 98.5847 234.645 99.3523 234.043 100.251C233.441 101.15 233.028 102.162 232.829 103.225C232.279 105.885 231.439 108.475 230.679 111.075C229.819 114.075 227.829 115.495 224.679 115.725C221.529 115.955 218.759 116.485 215.789 116.865C215.08 116.917 214.406 117.195 213.867 117.657C213.327 118.119 212.949 118.742 212.789 119.435C211.509 123.435 209.919 127.255 208.669 131.225C208.133 133.016 207.128 134.631 205.758 135.904C204.389 137.177 202.704 138.061 200.879 138.465C197.199 139.465 193.449 140.115 189.379 141.015ZM239.279 72.5048L104.279 155.115L138.189 198.405C139.119 198.021 139.923 197.383 140.508 196.564C141.093 195.746 141.436 194.779 141.499 193.775C141.789 190.775 142.559 187.895 142.989 184.935C143.095 183.758 143.546 182.638 144.286 181.717C145.027 180.795 146.022 180.113 147.149 179.755C149.869 178.755 152.499 177.505 155.239 176.555C156.029 176.381 156.725 175.917 157.188 175.253C157.652 174.59 157.848 173.777 157.739 172.975C157.739 169.625 157.839 166.265 158.069 162.915C158.399 158.335 159.709 157.155 164.189 156.505C167.759 155.975 171.289 155.145 174.859 154.505C175.893 154.406 176.866 153.968 177.626 153.259C178.385 152.55 178.889 151.61 179.059 150.585C180.059 146.535 181.289 142.585 182.359 138.535C182.839 136.705 183.539 135.065 185.469 134.395C186.509 134.077 187.568 133.823 188.639 133.635C191.919 132.945 195.199 132.295 198.469 131.635C199.318 131.473 200.104 131.071 200.732 130.478C201.361 129.884 201.808 129.123 202.019 128.285C203.519 123.825 205.249 119.445 206.729 114.965C207.045 113.682 207.757 112.532 208.764 111.677C209.771 110.823 211.022 110.307 212.339 110.205C216.179 109.695 219.999 108.995 223.989 108.345C224.799 105.345 225.649 102.395 226.379 99.4148C226.883 97.0907 228.23 95.0354 230.159 93.6448C232.959 91.6448 235.719 89.5548 238.519 87.5548C238.992 87.2908 239.381 86.8978 239.639 86.4215C239.897 85.9453 240.015 85.4054 239.979 84.8648C239.659 80.8848 239.509 76.9048 239.279 72.4648V72.5048ZM98.1089 158.995C97.5689 159.285 97.239 159.415 96.939 159.615C91.449 163.315 85.9389 166.965 80.4989 170.755C75.0589 174.545 69.7489 178.835 65.6689 184.275C60.6689 190.985 58.4289 198.485 61.4789 206.495C64.9689 215.645 71.4789 222.585 79.6189 227.965C80.3108 228.389 81.0533 228.725 81.829 228.965C83.979 229.685 86.119 230.355 88.469 229.775C95.3525 228.078 101.818 224.995 107.469 220.715C113.629 216.075 119.829 211.495 126.009 206.875C128.009 205.415 129.879 203.935 132.009 202.275L98.1089 158.995Z" fill="#3558A2"/>
<path d="M239.278 72.4648C239.508 76.8648 239.688 80.8449 239.948 84.8149C239.985 85.3555 239.867 85.8954 239.608 86.3716C239.35 86.8478 238.961 87.2408 238.488 87.5049C235.688 89.5049 232.928 91.5849 230.128 93.5949C228.199 94.9855 226.852 97.0408 226.348 99.3649C225.618 102.365 224.768 105.295 223.958 108.295C219.958 108.945 216.148 109.645 212.308 110.155C210.991 110.258 209.74 110.773 208.733 111.627C207.726 112.482 207.014 113.632 206.698 114.915C205.218 119.395 203.488 123.775 201.988 128.235C201.777 129.073 201.33 129.834 200.702 130.428C200.073 131.021 199.287 131.423 198.438 131.585C195.168 132.275 191.888 132.925 188.608 133.585C187.537 133.773 186.478 134.027 185.438 134.345C183.508 135.015 182.808 136.655 182.328 138.485C181.258 142.485 180.018 146.485 179.028 150.535C178.858 151.56 178.355 152.5 177.595 153.209C176.835 153.918 175.863 154.356 174.828 154.455C171.258 155.075 167.728 155.905 164.158 156.455C159.678 157.105 158.368 158.285 158.038 162.865C157.808 166.215 157.658 169.575 157.708 172.925C157.817 173.727 157.621 174.54 157.158 175.203C156.694 175.867 155.998 176.331 155.208 176.505C152.468 177.455 149.838 178.715 147.118 179.705C145.992 180.063 144.996 180.745 144.256 181.667C143.516 182.588 143.064 183.708 142.958 184.885C142.528 187.885 141.758 190.765 141.468 193.725C141.406 194.729 141.062 195.696 140.477 196.515C139.892 197.333 139.088 197.971 138.158 198.355L104.248 155.065L239.278 72.4648Z" fill="white"/>
<path d="M98.1091 158.994L132.049 202.304C129.879 203.964 127.959 205.444 126.049 206.904C119.869 211.524 113.669 216.104 107.509 220.744C101.858 225.025 95.3926 228.108 88.5091 229.804C86.1591 230.384 84.0191 229.714 81.8691 228.994C81.0934 228.755 80.351 228.419 79.6591 227.994C71.5191 222.614 65.0091 215.674 61.5191 206.524C58.5191 198.524 60.6792 191.014 65.7092 184.304C69.7892 178.864 75.0091 174.634 80.5391 170.784C86.0691 166.934 91.539 163.344 96.979 159.644C97.239 159.464 97.5691 159.284 98.1091 158.994ZM94.2991 205.874C97.2391 205.724 99.2991 205.774 101.399 205.464C103.815 205.116 106.197 204.564 108.519 203.814C110.147 203.323 111.567 202.308 112.558 200.926C113.55 199.544 114.056 197.874 113.999 196.174C114.188 194.015 113.873 191.841 113.079 189.824C110.229 183.978 107.044 178.302 103.539 172.824C100.239 167.824 95.7491 167.054 90.8291 170.474C84.6591 174.764 78.4091 179.024 73.2891 184.604C71.7553 186.266 70.4992 188.163 69.5691 190.224C68.7489 191.916 68.4917 193.825 68.8354 195.673C69.1791 197.521 70.1055 199.211 71.479 200.494C73.3018 202.414 75.6156 203.797 78.1691 204.494C83.7391 206.014 89.4491 205.904 94.2991 205.874Z" fill="#979FBB"/>
<path d="M94.2996 205.876C89.4496 205.876 83.7396 206.016 78.1696 204.446C75.6161 203.749 73.3023 202.365 71.4795 200.446C70.106 199.162 69.1795 197.473 68.8358 195.625C68.4921 193.777 68.7493 191.867 69.5696 190.176C70.4997 188.115 71.7558 186.217 73.2896 184.556C78.4096 178.976 84.6596 174.716 90.8296 170.426C95.7496 167.006 100.24 167.786 103.54 172.776C107.045 178.254 110.23 183.93 113.08 189.776C113.874 191.793 114.189 193.966 114 196.126C114.056 197.825 113.55 199.496 112.559 200.878C111.568 202.26 110.148 203.275 108.52 203.766C106.197 204.516 103.815 205.068 101.4 205.416C99.3496 205.776 97.2396 205.726 94.2996 205.876ZM92.9596 198.876C96.2896 198.516 100.36 198.236 104.36 197.576C106.86 197.166 107.36 196.096 106.76 193.686C106.642 193.06 106.444 192.451 106.17 191.876C103.66 187.266 101.17 182.616 98.5396 178.106C97.0996 175.686 96.0996 175.456 93.9196 177.106C88.8196 181.016 83.8196 185.106 78.9196 189.206C77.3596 190.516 75.5596 192.206 76.2096 194.466C76.9196 196.916 79.4596 197.376 81.6596 197.966C81.8364 198.009 82.0176 198.033 82.1996 198.036L92.9596 198.876Z" fill="#3558A2"/>
</svg>
