<svg width="300" height="300" viewBox="0 0 300 300" fill="none" xmlns="http://www.w3.org/2000/svg">
<path d="M172.24 78.7343C176.32 81.0443 176.51 81.9743 174.15 87.3443C178.23 89.0143 182.31 90.6743 186.37 92.3443C195.1 95.9543 203.8 99.6143 212.54 103.174C218.11 105.444 223.74 107.574 229.35 109.774L261.47 122.364L272.47 126.674C273.06 126.904 273.65 127.134 274.22 127.414C277.06 128.794 277.72 130.414 276.63 133.674C275.36 137.414 273.75 141.044 272.29 144.674C269.46 151.764 266.66 158.874 263.79 165.954C259.74 175.954 255.62 185.954 251.58 195.954C245.99 209.784 240.46 223.634 234.87 237.464C230.5 248.294 226.04 259.094 221.69 269.944C221.28 270.994 220.653 271.946 219.85 272.737C219.047 273.528 218.086 274.141 217.03 274.534C215.937 274.959 214.734 275.009 213.61 274.674C206.72 272.344 199.87 269.904 193.04 267.424C185.78 264.794 178.58 261.994 171.3 259.424C156.5 254.164 141.66 249.024 126.86 243.784C114.593 239.458 102.336 235.091 90.0898 230.684C77.5898 226.184 65.0897 221.744 52.6397 217.054C40.7352 212.718 29.1329 207.593 17.9098 201.714C14.8454 200.159 11.9979 198.209 9.43979 195.914C7.16325 193.825 5.3684 191.266 4.17978 188.414C3.78718 187.13 3.54222 185.804 3.44974 184.464C3.31974 183.664 3.24976 182.864 3.15976 182.064C3.10976 181.714 2.92975 181.314 3.02975 181.004C3.81975 178.534 3.80977 175.894 4.91977 173.464C9.50977 163.374 13.9797 153.234 18.5097 143.114C21.2397 137.024 24.0197 130.964 26.7297 124.874C30.1497 117.214 33.5098 109.544 36.9298 101.874C39.6098 95.8743 42.3397 89.8743 45.0197 83.8743C48.5198 76.0609 52.0032 68.2409 55.4698 60.4143C57.6698 55.4743 59.8731 50.5376 62.0798 45.6043C62.3836 45.0505 62.6218 44.4632 62.7898 43.8543C62.9852 42.9637 63.3669 42.1246 63.9098 41.392C64.4527 40.6595 65.1446 40.0503 65.9398 39.6043C70.6403 36.4173 75.9764 34.2883 81.5798 33.3643C86.591 32.6842 91.6915 33.1772 96.4797 34.8043C98.4403 35.4551 100.366 36.2061 102.25 37.0543C102.813 37.2423 103.314 37.5831 103.695 38.0386C104.076 38.4941 104.324 39.0465 104.41 39.6343C104.49 40.1687 104.659 40.6858 104.91 41.1643C105.248 41.8574 105.415 42.6217 105.395 43.3927C105.376 44.1637 105.172 44.9188 104.8 45.5943C103.02 49.5943 101.256 53.6376 99.5097 57.7243C99.4124 58.0498 99.3521 58.3852 99.3298 58.7243C103.45 60.6043 107.77 62.0443 111.98 63.7243C116.19 65.4043 120.34 67.0043 124.52 68.6443L137.35 73.6443C141.1 70.6443 144.86 67.6443 148.55 64.6443C154.55 59.6443 160.61 54.8243 167 50.3943C167.799 49.8375 168.412 49.0536 168.76 48.1443C169.491 46.3997 170.475 44.7722 171.68 43.3143C174.28 40.3143 177.07 37.4343 179.85 34.5743C181.18 33.2243 182.67 32.0343 184.1 30.7843C184.748 30.1346 185.603 29.7327 186.516 29.6487C187.43 29.5646 188.344 29.8037 189.1 30.3243C190.39 31.1243 191.59 32.0843 192.93 33.0543C194.6 32.1243 195.68 30.5643 196.93 29.1843C197.816 28.1683 198.824 27.2649 199.93 26.4943C200.591 26.099 201.365 25.9337 202.13 26.0241C202.895 26.1146 203.609 26.4557 204.16 26.9943C204.672 27.567 205.009 28.2752 205.13 29.0342C205.25 29.7932 205.15 30.5709 204.84 31.2743C204.557 31.838 204.197 32.3597 203.77 32.8243C202.09 34.7343 200.39 36.6043 198.61 38.5843C199.28 39.4943 200.02 40.3743 200.61 41.3543C201.166 42.1389 201.466 43.0772 201.466 44.0393C201.466 45.0014 201.166 45.9396 200.61 46.7243C199.451 48.2187 198.185 49.6258 196.82 50.9343C195.95 51.8443 194.97 52.6643 194.09 53.5843C192.03 55.7543 190.04 57.9743 187.97 60.1343C186.71 61.4343 185.39 62.6743 183.46 62.9543C183.024 63.0671 182.646 63.338 182.4 63.7143C178.993 68.7076 175.606 73.7143 172.24 78.7343ZM214.75 267.124C232.79 222.538 250.823 177.978 268.85 133.444C267.91 132.984 267.12 132.534 266.29 132.214C261.29 130.284 256.16 128.514 251.18 126.454C234.67 119.604 217.77 113.724 201.38 106.564C193.22 103.004 184.93 99.7743 176.68 96.4543C174.68 95.6543 172.79 94.3543 170.44 94.9143C170.25 94.9143 169.99 94.7843 169.71 94.6943C168.77 96.1243 167.87 97.4643 166.98 98.8143C165.44 101.154 163.98 103.514 162.34 105.814C161.954 106.437 161.397 106.934 160.735 107.248C160.074 107.562 159.336 107.679 158.61 107.584C157.893 107.496 157.221 107.19 156.684 106.707C156.148 106.224 155.773 105.588 155.61 104.884C155.5 104.554 155.45 104.204 155.35 103.764L153.18 104.484C152.655 105.482 152.007 106.409 151.25 107.244C150.457 107.954 149.459 108.391 148.4 108.494C147.497 108.409 146.649 108.019 145.997 107.388C145.345 106.758 144.926 105.924 144.81 105.024C144.712 104.21 144.873 103.386 145.27 102.668C145.666 101.95 146.278 101.375 147.02 101.024C149.02 100.244 149.79 98.5043 150.93 97.0243C152.07 95.5443 152.78 94.1743 153.71 92.7443C154.46 91.5943 155.23 90.4543 156.02 89.2843L138.51 82.4443C137.51 83.3643 136.69 84.2043 135.79 84.9543C134.23 86.2443 132.6 87.3343 131.5 89.2343C130.31 91.3043 127.29 91.3043 125.57 89.9643C123.69 88.4843 124.19 84.1343 126.79 83.0643C127.36 82.8447 127.875 82.5035 128.3 82.0643C129.04 81.2143 129.65 80.2643 130.48 79.1243C119.03 74.5143 107.66 70.1243 96.1197 65.6043C95.3697 67.2543 94.6898 68.8043 93.9698 70.3343C89.2098 80.6343 84.4431 90.9343 79.6698 101.234C75.9098 109.324 72.2498 117.464 68.2998 125.454C62.5498 137.094 57.0297 148.834 51.6297 160.634C49.4897 165.294 47.4597 170.014 45.3597 174.634C43.9897 177.634 42.6997 180.764 41.1297 183.694C39.2297 187.274 36.0198 187.874 32.8198 185.494C32.6698 185.384 32.5498 185.254 32.3998 185.144C31.1198 184.144 29.8898 183.074 28.5398 182.144C25.5398 180.144 22.2098 179.744 18.6898 179.894C16.5366 180.06 14.4303 180.609 12.4698 181.514C12.0445 181.668 11.6782 181.951 11.4233 182.325C11.1684 182.698 11.0377 183.142 11.0498 183.594C10.8698 185.784 11.9698 187.404 13.2898 188.934C15.9398 192.014 19.4298 193.934 22.9698 195.774C36.1598 202.644 49.9698 208.034 63.9698 212.994C74.0298 216.564 83.9698 220.414 94.0498 224.044C104.76 227.924 115.51 231.704 126.26 235.504C137.51 239.504 148.79 243.364 160.03 247.384C172.03 251.664 184.03 256.074 196.03 260.384C202.16 262.734 208.42 264.934 214.75 267.124ZM97.6297 43.2843C94.0556 41.7538 90.2488 40.8376 86.3697 40.5743C81.8497 40.3343 77.6898 41.7743 73.6598 43.6443C71.4398 44.6443 69.6597 46.0343 69.1097 48.6443C68.9669 49.0729 68.7793 49.4852 68.5498 49.8743C65.2564 57.2076 61.9698 64.5409 58.6898 71.8743C54.3498 81.5843 50.0498 91.3143 45.6898 101.014C42.9698 107.114 40.1698 113.174 37.4598 119.264C33.3098 128.564 29.2098 137.894 25.0598 147.194C21.6098 154.934 18.0597 162.644 14.6297 170.374C14.2797 171.164 14.0397 171.994 13.6297 173.094C21.7797 171.524 29.0398 172.864 35.3998 178.094C36.5598 175.654 37.6197 173.474 38.6197 171.274C42.6197 162.414 46.5497 153.524 50.6197 144.714C54.8797 135.564 59.3198 126.494 63.6798 117.394C65.8498 112.844 68.0498 108.294 70.1698 103.714C74.2998 94.8143 78.3597 85.8843 82.4797 76.9743C84.1797 73.2943 86.0398 69.6843 87.6898 65.9743C91.0498 58.4643 94.2597 51.0143 97.6297 43.2843ZM160.57 82.7743C165.94 74.7743 171.11 67.1143 176.3 59.3843L174.43 57.6143L172.43 55.7343C162.94 62.1343 154.43 69.5143 145.36 76.8443L160.57 82.7743ZM187.14 38.1643C182.14 42.5543 177.6 47.5143 176.78 49.6643L182.78 54.9543L192.91 44.1643L187.14 38.1643Z" fill="#3558A2"/>
<path d="M282.149 113.724C281.149 113.464 280.219 113.294 279.309 112.944C273.839 110.944 268.389 108.844 262.929 106.774C256.059 104.154 249.189 101.514 242.299 98.9236C232.809 95.3536 223.299 91.8436 213.819 88.2536C207.939 86.0336 202.088 83.7236 196.228 81.4436C195.888 81.3136 195.538 81.2236 195.228 81.0636C194.232 80.7083 193.411 79.9844 192.933 79.0411C192.454 78.0978 192.356 77.0071 192.659 75.9936C193.073 74.1544 193.746 72.3833 194.659 70.7337C196.339 67.7337 197.869 64.7337 199.469 61.6637C200.895 58.9503 202.332 56.2436 203.779 53.5436C204.06 52.9828 204.395 52.4503 204.779 51.9536C205.32 51.1122 206.148 50.495 207.109 50.2157C208.07 49.9364 209.1 50.0138 210.009 50.4336C214.149 51.9036 218.259 53.4336 222.379 54.9936C230.609 58.0836 238.839 61.2036 247.069 64.2836L279.069 76.2836L293.199 81.5336C293.622 81.6895 294.033 81.8767 294.429 82.0936C295.417 82.5512 296.186 83.3791 296.57 84.3988C296.953 85.4184 296.921 86.548 296.479 87.5436C295.579 89.8936 294.479 92.1836 293.479 94.4836C291.229 99.5836 288.989 104.694 286.689 109.764C286.218 110.735 285.631 111.645 284.939 112.474C284.618 112.902 284.193 113.241 283.705 113.46C283.217 113.679 282.681 113.769 282.149 113.724V113.724ZM278.399 83.9336C277.999 84.5736 277.639 85.0736 277.399 85.6236C276.289 87.7936 275.249 89.9936 274.089 92.1336C273.578 93.0859 272.931 93.9584 272.169 94.7236C271.644 95.2293 270.965 95.5452 270.241 95.6213C269.516 95.6974 268.787 95.5293 268.169 95.1436C267.458 94.748 266.906 94.1183 266.607 93.3617C266.308 92.6051 266.28 91.7683 266.529 90.9936C266.932 89.8021 267.417 88.6395 267.978 87.5136C268.978 85.4136 270.049 83.3537 271.139 81.1637L267.139 79.8536C266.639 80.8536 266.249 81.6236 265.819 82.4036C265.097 83.8548 264.299 85.2667 263.429 86.6336C262.916 87.3728 262.149 87.8969 261.275 88.1054C260.4 88.314 259.479 88.1923 258.689 87.7636C257.968 87.2896 257.42 86.5953 257.126 85.7843C256.832 84.9734 256.809 84.0892 257.059 83.2636C257.265 82.7627 257.502 82.2751 257.769 81.8036L260.039 77.1236L255.719 75.4837C254.389 78.3937 253.169 81.1136 251.899 83.7936C251.482 84.6859 250.987 85.5392 250.419 86.3436C249.419 87.7936 247.869 87.5736 246.419 87.3436C245.249 87.1436 244.309 85.6036 244.219 84.2436C244.143 82.9778 244.405 81.7147 244.978 80.5836C246.188 78.0736 247.339 75.5236 248.569 72.8636L244.999 71.5436C244.699 72.0836 244.469 72.4636 244.289 72.8636C243.509 74.4936 242.859 76.1836 241.959 77.7436C241.723 78.2369 241.376 78.669 240.946 79.0063C240.516 79.3437 240.014 79.5771 239.478 79.6884C238.943 79.7997 238.389 79.7859 237.86 79.648C237.331 79.5102 236.841 79.252 236.429 78.8936C235.716 78.3998 235.212 77.6589 235.014 76.8146C234.816 75.9703 234.939 75.0826 235.358 74.3236C236.098 72.5936 236.959 70.9136 237.809 69.1336C236.659 68.2736 235.579 67.5536 234.119 67.8336L232.769 70.5937C231.719 72.6837 230.768 74.8137 229.608 76.8736C228.368 79.1236 226.609 79.7436 224.699 78.7436C224.249 78.5381 223.847 78.242 223.517 77.8737C223.187 77.5055 222.937 77.0732 222.782 76.6038C222.627 76.1344 222.571 75.6381 222.617 75.1459C222.663 74.6538 222.81 74.1764 223.049 73.7436C224.049 71.3536 225.249 69.0036 226.329 66.6336C226.579 66.0836 226.749 65.5036 227.009 64.7936L209.709 58.3437C206.649 64.1337 203.709 69.6836 200.709 75.4036L280.579 105.404C282.919 99.4636 285.849 93.8136 288.169 87.7036L278.399 83.9336Z" fill="#3558A2"/>
<path d="M214.749 267.125C208.419 264.905 202.159 262.735 195.929 260.495C183.929 256.175 171.929 251.765 159.929 247.495C148.689 243.495 137.409 239.585 126.159 235.615C115.409 231.815 104.659 228.035 93.949 224.155C83.949 220.525 73.949 216.675 63.869 213.105C49.869 208.105 36.059 202.755 22.869 195.885C19.329 194.035 15.869 192.125 13.189 189.045C11.869 187.515 10.7691 185.895 10.9491 183.705C10.937 183.253 11.0677 182.809 11.3226 182.435C11.5775 182.062 11.9436 181.778 12.369 181.625C14.3295 180.719 16.4359 180.171 18.5891 180.005C22.1091 179.855 25.449 180.275 28.439 182.255C29.789 183.145 31.019 184.255 32.299 185.255C32.449 185.365 32.5691 185.495 32.7191 185.605C35.9191 187.985 39.129 187.385 41.029 183.805C42.599 180.875 43.889 177.805 45.259 174.745C47.359 170.075 49.389 165.355 51.529 160.745C56.929 148.945 62.4491 137.205 68.1991 125.565C72.1991 117.565 75.809 109.435 79.569 101.345C84.3557 91.0515 89.1223 80.7515 93.869 70.4448C94.589 68.9148 95.269 67.3648 96.019 65.7148C107.559 70.2548 118.929 74.6248 130.379 79.2348C129.549 80.3748 128.939 81.3248 128.199 82.1748C127.774 82.614 127.259 82.9553 126.689 83.1748C124.089 84.2448 123.589 88.5948 125.469 90.0748C127.189 91.4148 130.209 91.4148 131.399 89.3448C132.499 87.4448 134.129 86.3448 135.689 85.0648C136.589 84.3148 137.429 83.4748 138.409 82.5548L155.919 89.3948C155.129 90.5648 154.359 91.7048 153.609 92.8548C152.679 94.2848 151.869 95.8548 150.829 97.1348C149.789 98.4148 148.829 100.335 146.919 101.135C146.178 101.486 145.565 102.061 145.169 102.778C144.772 103.496 144.611 104.321 144.709 105.135C144.825 106.035 145.244 106.868 145.896 107.499C146.549 108.129 147.396 108.519 148.299 108.605C149.358 108.502 150.356 108.064 151.149 107.355C151.906 106.52 152.554 105.592 153.079 104.595L155.249 103.875C155.349 104.315 155.399 104.665 155.509 104.995C155.672 105.698 156.047 106.335 156.584 106.818C157.12 107.3 157.792 107.607 158.509 107.695C159.235 107.789 159.973 107.673 160.635 107.359C161.296 107.045 161.853 106.547 162.239 105.925C163.839 103.625 165.339 101.265 166.879 98.9248C167.769 97.5748 168.669 96.2348 169.609 94.8048C169.889 94.8948 170.149 95.0748 170.339 95.0248C172.689 94.4648 174.589 95.7648 176.579 96.5648C184.829 99.8848 193.119 103.115 201.279 106.675C217.669 113.835 234.569 119.675 251.079 126.565C256.079 128.625 261.149 130.395 266.189 132.325C267.019 132.645 267.809 133.095 268.749 133.555C250.776 178.042 232.776 222.565 214.749 267.125ZM189.349 186.295C183.139 202.055 177.059 217.505 170.909 233.095C169.789 232.705 168.909 232.395 167.909 232.095L144.169 223.165C137.519 220.665 130.859 218.165 124.169 215.675C115.409 212.375 106.679 209.035 97.919 205.745C88.489 202.215 79.039 198.745 69.609 195.185C68.9121 194.868 68.2431 194.494 67.609 194.065C67.6234 193.728 67.6669 193.394 67.739 193.065C70.099 186.845 72.4791 180.625 74.8291 174.395C75.4891 172.645 76.369 170.965 76.429 169.005C76.499 166.855 75.5091 166.085 73.7191 165.465C72.9726 165.264 72.18 165.323 71.4714 165.632C70.7628 165.941 70.1802 166.481 69.819 167.165C69.2137 168.274 68.6857 169.423 68.239 170.605C66.659 174.712 65.099 178.835 63.559 182.975C62.299 186.345 60.9891 189.695 59.8391 193.105C58.6891 196.515 59.999 199.295 63.169 200.515C72.5024 204.115 81.8357 207.675 91.169 211.195C99.169 214.195 107.169 217.195 115.169 220.195C124.262 223.621 133.349 227.062 142.429 230.515C148.229 232.702 154.036 234.881 159.849 237.055C163.136 238.275 166.429 239.475 169.729 240.655C170.296 240.926 170.921 241.057 171.549 241.035C174.339 240.535 176.549 239.255 177.689 236.425C180.179 230.055 182.759 223.725 185.259 217.355C189.166 207.355 193.056 197.382 196.929 187.435C198.439 183.525 196.789 181.015 194.089 180.105C193.749 179.995 193.439 179.785 193.089 179.655C189.989 178.455 186.889 177.235 183.769 176.065C182.266 175.475 180.73 174.974 179.169 174.565C178.375 174.418 177.556 174.533 176.834 174.894C176.112 175.255 175.527 175.842 175.169 176.565C174.932 177.297 174.9 178.08 175.077 178.829C175.253 179.578 175.631 180.265 176.169 180.815C176.774 181.206 177.425 181.519 178.109 181.745C181.909 183.235 185.519 184.725 189.349 186.295V186.295ZM235.909 151.135C236.038 151.669 236.195 152.197 236.379 152.715C237.319 154.795 238.549 155.435 240.719 155.025C242.239 154.745 243.269 153.355 243.299 151.395C243.409 149.581 243.369 147.762 243.179 145.955C242.915 143.27 242.159 140.656 240.949 138.245C240.385 137.164 239.445 136.327 238.307 135.891C237.169 135.454 235.911 135.449 234.769 135.875C232.72 136.578 230.716 137.406 228.769 138.355C227.237 139.131 225.775 140.038 224.399 141.065C223.659 141.509 223.058 142.153 222.666 142.922C222.273 143.691 222.105 144.555 222.179 145.415C222.279 145.949 222.499 146.452 222.822 146.889C223.146 147.325 223.564 147.681 224.046 147.932C224.528 148.182 225.06 148.32 225.603 148.334C226.146 148.349 226.685 148.239 227.179 148.015L228.819 147.385C228.949 147.585 229.049 147.675 229.029 147.725C217.949 176.538 206.866 205.351 195.779 234.165C195.619 234.585 195.399 234.985 195.199 235.395C195.159 235.477 195.096 235.546 195.019 235.595C194.949 235.595 194.849 235.595 194.639 235.595C194.009 235.023 193.341 234.495 192.639 234.015C192.285 233.766 191.885 233.591 191.462 233.5C191.039 233.409 190.603 233.403 190.178 233.483C189.753 233.563 189.348 233.728 188.988 233.967C188.627 234.206 188.318 234.515 188.079 234.875C186.929 236.315 186.909 237.615 187.959 239.375C189.159 241.375 190.339 243.375 191.539 245.375C191.895 246 192.282 246.608 192.699 247.195C193.318 248.102 194.231 248.768 195.284 249.081C196.336 249.395 197.465 249.336 198.479 248.915C202.288 247.239 205.697 244.771 208.479 241.675C209.08 241.049 209.452 240.239 209.533 239.376C209.615 238.512 209.402 237.647 208.929 236.92C208.456 236.193 207.751 235.647 206.928 235.372C206.106 235.097 205.214 235.109 204.399 235.405C204.033 235.436 203.665 235.436 203.299 235.405C214.179 207.335 224.959 179.405 235.909 151.135ZM105.009 101.045C115.209 104.425 147.109 116.925 148.719 118.135C146.219 124.135 143.869 130.135 141.199 136.065C138.529 141.995 136.369 148.215 133.329 154.065C131.589 153.455 130.089 152.845 128.549 152.415C126.089 151.715 123.649 154.295 124.039 156.145C124.173 156.95 124.513 157.707 125.026 158.341C125.54 158.976 126.209 159.466 126.969 159.765C134.659 162.835 142.319 165.965 149.969 169.055C152.139 169.925 154.309 170.795 156.529 171.515C157.025 171.657 157.546 171.687 158.055 171.605C158.565 171.522 159.05 171.329 159.475 171.037C159.901 170.746 160.258 170.365 160.519 169.92C160.781 169.475 160.941 168.979 160.989 168.465C161.133 167.606 160.963 166.724 160.512 165.979C160.061 165.234 159.357 164.675 158.529 164.405C154.289 162.675 149.989 161.055 145.779 159.255C144.069 158.525 142.129 158.255 140.669 156.795C140.758 156.35 140.878 155.912 141.029 155.485C142.309 152.485 143.639 149.555 144.899 146.565C148.152 138.858 151.386 131.142 154.599 123.415C155.359 121.595 156.189 119.795 156.849 117.925C157.699 115.525 156.989 113.755 154.779 112.415C154.087 111.986 153.362 111.615 152.609 111.305C149.449 110.035 146.269 108.765 143.089 107.545C135.956 104.805 128.822 102.075 121.689 99.3548C116.309 97.3548 110.959 95.1948 105.549 93.2348C102.209 92.0248 100.959 93.0348 99.409 95.4848C97.859 97.9348 96.589 100.315 95.229 102.755C94.6342 103.764 94.1097 104.813 93.659 105.895C92.579 108.665 94.399 111.035 97.349 110.895C98.929 110.805 99.7491 109.815 100.469 108.615C101.969 106.155 103.439 103.675 105.009 101.045ZM195.059 159.465C190.199 157.465 185.489 155.415 180.739 153.465C175.989 151.515 170.959 149.985 166.359 147.615C166.407 147.382 166.478 147.154 166.569 146.935C167.749 145.095 167.869 143.545 166.859 142.185C166.396 141.551 165.742 141.084 164.992 140.851C164.243 140.619 163.439 140.634 162.699 140.895C159.811 141.579 157.041 142.688 154.479 144.185C153.787 144.573 153.184 145.102 152.709 145.738C152.235 146.375 151.9 147.104 151.725 147.878C151.551 148.652 151.541 149.454 151.697 150.232C151.852 151.011 152.17 151.747 152.629 152.395C153.879 154.275 155.189 156.125 156.629 157.865C157.375 158.776 158.296 159.528 159.339 160.075C162.149 161.505 164.689 159.925 164.809 156.805C164.809 156.385 164.809 155.965 164.899 155.445C173.959 158.905 182.779 162.445 191.549 166.195C191.064 166.921 190.623 167.675 190.229 168.455C190.018 168.927 189.924 169.442 189.956 169.958C189.988 170.474 190.144 170.974 190.412 171.416C190.679 171.859 191.049 172.23 191.491 172.498C191.933 172.765 192.433 172.922 192.949 172.955C193.846 173.063 194.756 172.982 195.619 172.715C197.799 171.865 199.939 170.905 202.039 169.865C204.139 168.825 205.039 167.175 204.499 164.975C203.88 162.449 203.115 159.962 202.209 157.525C201.609 155.885 200.149 155.265 198.209 155.455C197.491 155.54 196.821 155.858 196.301 156.36C195.781 156.862 195.44 157.521 195.329 158.235C195.209 158.595 195.159 158.935 195.059 159.465V159.465ZM88.939 136.465C89.1578 135.899 89.3317 135.318 89.4591 134.725C89.5167 134.144 89.4434 133.557 89.2446 133.008C89.0458 132.459 88.7266 131.961 88.3104 131.552C87.8941 131.142 87.3913 130.831 86.8391 130.641C86.2868 130.451 85.6991 130.388 85.119 130.455C84.5385 130.562 83.9946 130.814 83.5382 131.188C83.0817 131.563 82.7276 132.047 82.509 132.595C81.849 133.875 81.359 135.225 80.809 136.595C79.809 138.915 78.809 141.215 77.929 143.595C77.6398 144.447 77.5176 145.347 77.569 146.245C77.5807 147.019 77.8537 147.766 78.3439 148.365C78.8341 148.964 79.5126 149.38 80.269 149.545C81.0211 149.711 81.8069 149.626 82.5059 149.302C83.205 148.979 83.7786 148.436 84.139 147.755C84.859 146.435 85.419 145.025 86.139 143.545C87.329 144.025 88.409 144.435 89.479 144.885C93.279 146.505 97.099 148.095 100.879 149.765C102.349 150.415 103.469 149.915 104.619 149.075C105.173 148.672 105.589 148.109 105.811 147.461C106.033 146.813 106.05 146.113 105.859 145.455C105.687 144.844 105.369 144.284 104.931 143.824C104.494 143.364 103.951 143.017 103.349 142.815L95.199 139.245L88.939 136.465ZM112.939 167.005C112.979 166.533 112.924 166.057 112.778 165.606C112.631 165.156 112.397 164.738 112.088 164.379C111.779 164.02 111.402 163.726 110.978 163.514C110.554 163.302 110.092 163.176 109.619 163.145C108.345 163.087 107.093 163.496 106.099 164.295C98.949 169.295 91.769 174.295 84.619 179.385C83.8763 179.909 83.2273 180.555 82.699 181.295C82.4291 181.708 82.2444 182.171 82.1561 182.657C82.0677 183.142 82.0775 183.64 82.1846 184.122C82.2918 184.604 82.4943 185.059 82.7801 185.462C83.0659 185.864 83.4293 186.205 83.849 186.465C85.479 187.465 86.9091 187.015 88.3391 185.955C92.1891 183.115 96.039 180.275 99.949 177.515C103.489 175.025 107.099 172.635 110.709 170.235C111.854 169.505 112.664 168.35 112.959 167.025L112.939 167.005ZM170.549 190.935C168.789 190.785 167.449 191.745 166.089 192.625C159.736 196.752 153.402 200.892 147.089 205.045C146.47 205.407 145.89 205.833 145.359 206.315C144.727 206.84 144.3 207.571 144.153 208.379C144.007 209.188 144.151 210.022 144.559 210.735C145.044 211.559 145.822 212.17 146.738 212.445C147.655 212.719 148.641 212.637 149.499 212.215C150.076 211.958 150.634 211.661 151.169 211.325C157.429 207.225 163.679 203.112 169.919 198.985C170.916 198.362 171.856 197.652 172.729 196.865C173.276 196.454 173.678 195.88 173.876 195.225C174.074 194.57 174.057 193.87 173.829 193.225C173.66 192.507 173.232 191.876 172.626 191.453C172.021 191.031 171.282 190.846 170.549 190.935V190.935ZM114.629 199.935C115.477 199.683 116.297 199.348 117.079 198.935C118.989 197.735 120.839 196.435 122.679 195.135C127.539 191.695 132.399 188.255 137.229 184.765C137.87 184.268 138.398 183.641 138.779 182.925C139.01 182.534 139.16 182.102 139.221 181.652C139.283 181.202 139.253 180.745 139.135 180.307C139.016 179.869 138.812 179.459 138.532 179.102C138.253 178.744 137.905 178.446 137.509 178.225C136.909 177.9 136.235 177.734 135.552 177.742C134.87 177.751 134.201 177.934 133.609 178.275C132.572 178.841 131.571 179.469 130.609 180.155C125.142 183.982 119.679 187.818 114.219 191.665C113.38 192.197 112.59 192.803 111.859 193.475C111.286 194.004 110.894 194.701 110.74 195.466C110.586 196.231 110.676 197.025 110.999 197.735C111.275 198.452 111.782 199.056 112.438 199.455C113.095 199.853 113.866 200.022 114.629 199.935V199.935Z" fill="white"/>
<path d="M97.6292 43.2837C94.2592 51.0137 91.0492 58.4637 87.7592 65.8637C86.1092 69.5637 84.2492 73.1737 82.5492 76.8637C78.4292 85.7737 74.3691 94.7037 70.2391 103.604C68.1191 108.184 65.9192 112.734 63.7492 117.284C59.3892 126.384 54.9492 135.454 50.6892 144.604C46.5792 153.414 42.6892 162.304 38.6892 171.164C37.6892 173.364 36.6292 175.544 35.4692 177.984C29.1092 172.794 21.8492 171.454 13.6992 172.984C14.0992 171.884 14.3392 171.054 14.6992 170.264C18.1692 162.534 21.6992 154.824 25.1292 147.084C29.2792 137.784 33.3792 128.454 37.5292 119.154C40.2392 113.064 43.0392 107.004 45.7592 100.904C50.0992 91.2037 54.3992 81.4737 58.7592 71.7637C62.0258 64.4304 65.3125 57.097 68.6191 49.7637C68.8486 49.3746 69.0364 48.9623 69.1792 48.5337C69.7092 45.9537 71.5091 44.5337 73.7291 43.5337C77.7291 41.6637 81.9192 40.2237 86.4392 40.4637C90.3009 40.7697 94.0836 41.723 97.6292 43.2837V43.2837Z" fill="white"/>
<path d="M187.138 38.1641L192.908 44.1641L182.738 54.9341L176.738 49.6441C177.598 47.5141 182.088 42.5541 187.138 38.1641Z" fill="#979FBB"/>
<path d="M278.4 83.9347L288.21 87.6647C285.89 93.7747 282.96 99.4247 280.62 105.365L200.75 75.3647C203.75 69.6447 206.75 64.0947 209.75 58.3047L227.05 64.7547C226.79 65.4647 226.62 66.0447 226.37 66.5947C225.29 68.9647 224.13 71.3147 223.09 73.7047C222.851 74.1374 222.704 74.6148 222.658 75.107C222.612 75.5991 222.669 76.0954 222.824 76.5648C222.979 77.0342 223.229 77.4666 223.558 77.8348C223.888 78.203 224.29 78.4991 224.74 78.7047C226.66 79.7047 228.41 79.0847 229.65 76.8347C230.77 74.7747 231.76 72.6447 232.81 70.5547L234.16 67.7947C235.62 67.5147 236.7 68.2347 237.85 69.0947C237 70.8747 236.14 72.5547 235.4 74.2847C234.981 75.0436 234.858 75.9313 235.055 76.7756C235.253 77.62 235.757 78.3608 236.47 78.8547C236.883 79.213 237.373 79.4712 237.902 79.6091C238.431 79.7469 238.985 79.7607 239.52 79.6494C240.055 79.5381 240.557 79.3047 240.988 78.9674C241.418 78.63 241.764 78.1979 242 77.7047C242.9 76.1447 243.55 74.4547 244.33 72.8247C244.51 72.4247 244.74 72.0447 245.04 71.5047L248.61 72.8247C247.38 75.4847 246.23 78.0347 245.02 80.5447C244.447 81.6757 244.184 82.9389 244.26 84.2047C244.35 85.5647 245.26 87.1047 246.46 87.3047C247.88 87.5547 249.46 87.7747 250.46 86.3047C251.028 85.5003 251.523 84.6469 251.94 83.7547C253.21 81.0747 254.43 78.3547 255.76 75.4447L260.08 77.0847L257.81 81.7647C257.543 82.2362 257.306 82.7238 257.1 83.2247C256.85 84.0502 256.874 84.9344 257.168 85.7454C257.461 86.5563 258.009 87.2506 258.73 87.7247C259.52 88.1533 260.441 88.275 261.316 88.0665C262.191 87.8579 262.958 87.3339 263.47 86.5947C264.341 85.2278 265.138 83.8158 265.86 82.3647C266.29 81.5847 266.68 80.7747 267.18 79.8147L271.18 81.1247C270.09 83.3147 269.02 85.3747 268.02 87.4747C267.458 88.6005 266.974 89.7632 266.57 90.9547C266.322 91.7294 266.349 92.5662 266.648 93.3228C266.947 94.0793 267.499 94.709 268.21 95.1047C268.828 95.4903 269.558 95.6585 270.282 95.5824C271.007 95.5063 271.685 95.1903 272.21 94.6847C272.973 93.9195 273.62 93.0469 274.13 92.0947C275.29 89.9547 276.33 87.7547 277.44 85.5847C277.64 85.0947 278 84.5947 278.4 83.9347ZM217.07 70.2747C217.115 69.1926 216.729 68.1369 215.995 67.3399C215.262 66.5429 214.242 66.0698 213.16 66.0247C212.078 65.9796 211.022 66.3662 210.225 67.0995C209.428 67.8327 208.955 68.8526 208.91 69.9347C208.893 70.9797 209.266 71.9936 209.955 72.7791C210.645 73.5647 211.602 74.0657 212.64 74.1847C214.59 74.3247 217.01 72.1947 217.07 70.2947V70.2747Z" fill="#CBCFDD"/>
<path d="M189.35 186.295C185.52 184.725 181.86 183.235 178.22 181.725C177.536 181.499 176.884 181.186 176.28 180.795C175.741 180.245 175.364 179.558 175.187 178.809C175.011 178.06 175.043 177.277 175.28 176.545C175.638 175.822 176.223 175.235 176.945 174.875C177.666 174.514 178.486 174.398 179.28 174.545C180.841 174.954 182.377 175.455 183.88 176.045C187 177.215 190.1 178.435 193.2 179.635C193.54 179.765 193.85 179.975 194.2 180.085C196.9 180.995 198.55 183.505 197.04 187.415C193.173 197.415 189.283 207.388 185.37 217.335C182.87 223.705 180.29 230.035 177.8 236.405C176.69 239.235 174.45 240.515 171.66 241.015C171.031 241.037 170.407 240.907 169.84 240.635C166.506 239.455 163.213 238.255 159.96 237.035C154.153 234.868 148.346 232.688 142.54 230.495C133.453 227.062 124.366 223.622 115.28 220.175C107.28 217.175 99.2797 214.175 91.2797 211.175C81.9464 207.635 72.6131 204.075 63.2797 200.495C60.1097 199.275 58.8198 196.405 59.9498 193.085C61.0798 189.765 62.4097 186.325 63.6697 182.955C65.2097 178.828 66.7697 174.705 68.3497 170.585C68.7964 169.403 69.3244 168.254 69.9298 167.145C70.2909 166.462 70.8735 165.921 71.5821 165.612C72.2907 165.303 73.0833 165.244 73.8298 165.445C75.6198 166.065 76.6097 166.835 76.5397 168.985C76.4797 170.985 75.5998 172.625 74.9398 174.375C72.5898 180.605 70.2097 186.825 67.8497 193.045C67.7776 193.374 67.7342 193.709 67.7198 194.045C68.3539 194.474 69.0229 194.848 69.7198 195.165C79.1498 198.705 88.5997 202.165 98.0297 205.725C106.79 209.015 115.52 212.355 124.28 215.655C130.92 218.165 137.58 220.655 144.28 223.145L168.02 232.075C168.94 232.415 169.86 232.725 171.02 233.075C177.06 217.505 183.14 202.055 189.35 186.295Z" fill="#3558A2"/>
<path d="M235.91 151.134C224.99 179.404 214.21 207.334 203.33 235.494C203.696 235.526 204.064 235.526 204.43 235.494C205.245 235.198 206.136 235.186 206.959 235.461C207.781 235.736 208.486 236.282 208.96 237.009C209.433 237.736 209.646 238.601 209.564 239.465C209.482 240.328 209.111 241.139 208.51 241.764C205.728 244.86 202.319 247.328 198.51 249.004C197.495 249.425 196.367 249.484 195.314 249.17C194.261 248.857 193.349 248.191 192.73 247.284C192.313 246.697 191.926 246.09 191.57 245.464C190.37 243.464 189.19 241.464 187.99 239.464C186.99 237.704 186.99 236.404 188.11 234.964C188.349 234.604 188.658 234.295 189.018 234.056C189.379 233.817 189.783 233.652 190.208 233.572C190.633 233.492 191.07 233.498 191.493 233.589C191.915 233.681 192.316 233.855 192.67 234.104C193.372 234.584 194.04 235.112 194.67 235.684C194.88 235.684 194.98 235.684 195.05 235.684C195.127 235.635 195.189 235.566 195.23 235.484C195.43 235.074 195.65 234.674 195.81 234.254C206.903 205.447 217.986 176.634 229.06 147.814C229.06 147.814 228.98 147.674 228.85 147.474L227.21 148.104C226.715 148.329 226.176 148.438 225.634 148.423C225.091 148.409 224.558 148.271 224.077 148.021C223.595 147.77 223.177 147.414 222.853 146.978C222.53 146.542 222.31 146.038 222.21 145.504C222.135 144.644 222.304 143.78 222.696 143.011C223.089 142.242 223.689 141.598 224.43 141.154C225.806 140.127 227.268 139.221 228.8 138.444C230.747 137.495 232.751 136.667 234.8 135.964C235.942 135.538 237.2 135.544 238.338 135.98C239.476 136.416 240.415 137.254 240.98 138.334C242.189 140.745 242.945 143.359 243.21 146.044C243.4 147.851 243.44 149.67 243.33 151.484C243.33 153.484 242.27 154.834 240.75 155.114C238.58 155.524 237.35 154.884 236.41 152.804C236.213 152.257 236.046 151.699 235.91 151.134V151.134Z" fill="#3558A2"/>
<path d="M105.008 101.044C103.438 103.674 102.008 106.154 100.488 108.624C99.7683 109.824 98.9483 110.814 97.3683 110.904C94.3683 111.074 92.5983 108.704 93.6783 105.904C94.1291 104.823 94.6536 103.774 95.2483 102.764C96.6083 100.324 97.9283 97.8445 99.4283 95.4945C100.928 93.1445 102.228 92.0345 105.568 93.2445C110.978 95.2445 116.328 97.3145 121.708 99.3645C128.842 102.098 135.975 104.828 143.108 107.554C146.288 108.774 149.468 110.044 152.628 111.314C153.381 111.624 154.107 111.995 154.798 112.424C157.008 113.764 157.718 115.534 156.868 117.934C156.208 119.804 155.378 121.604 154.618 123.424C151.385 131.144 148.152 138.861 144.918 146.574C143.658 149.574 142.328 152.514 141.048 155.494C140.898 155.922 140.777 156.36 140.688 156.804C142.148 158.234 144.088 158.534 145.798 159.264C150.008 161.064 154.308 162.684 158.548 164.414C159.376 164.685 160.08 165.243 160.531 165.988C160.983 166.733 161.152 167.615 161.008 168.474C160.961 168.988 160.8 169.485 160.539 169.93C160.277 170.374 159.921 170.756 159.495 171.047C159.069 171.338 158.584 171.532 158.075 171.615C157.566 171.697 157.044 171.666 156.548 171.524C154.328 170.804 152.158 169.934 149.988 169.064C142.318 165.974 134.658 162.844 126.988 159.774C126.229 159.476 125.559 158.985 125.046 158.351C124.532 157.717 124.192 156.96 124.058 156.154C123.668 154.304 126.058 151.724 128.568 152.424C130.108 152.854 131.568 153.424 133.348 154.074C136.348 148.184 138.528 141.984 141.218 136.074C143.908 130.164 146.218 124.144 148.738 118.144C147.108 116.934 115.208 104.424 105.008 101.044Z" fill="#3558A2"/>
<path d="M195.059 159.464C195.159 158.944 195.209 158.594 195.299 158.264C195.41 157.55 195.751 156.891 196.271 156.389C196.791 155.887 197.461 155.569 198.179 155.484C200.179 155.294 201.589 155.914 202.179 157.554C203.085 159.991 203.85 162.479 204.469 165.004C204.999 167.204 204.099 168.854 202.009 169.894C199.919 170.934 197.769 171.894 195.589 172.744C194.726 173.011 193.816 173.093 192.919 172.984C192.403 172.952 191.903 172.795 191.461 172.527C191.019 172.259 190.649 171.888 190.381 171.446C190.114 171.003 189.958 170.503 189.926 169.987C189.894 169.472 189.988 168.956 190.199 168.484C190.593 167.705 191.033 166.95 191.519 166.224C182.749 162.434 173.929 158.934 164.869 155.474C164.869 155.994 164.789 156.414 164.779 156.834C164.659 159.954 162.119 161.534 159.309 160.104C158.266 159.557 157.344 158.805 156.599 157.894C155.179 156.154 153.869 154.304 152.599 152.424C152.14 151.777 151.822 151.04 151.667 150.262C151.511 149.483 151.521 148.681 151.695 147.907C151.87 147.133 152.205 146.404 152.679 145.768C153.154 145.131 153.757 144.602 154.449 144.214C157.011 142.717 159.781 141.608 162.669 140.924C163.409 140.663 164.213 140.648 164.962 140.881C165.712 141.113 166.366 141.581 166.829 142.214C167.829 143.574 167.719 145.124 166.539 146.964C166.447 147.184 166.377 147.411 166.329 147.644C170.929 150.014 175.909 151.544 180.709 153.494C185.509 155.444 190.199 157.434 195.059 159.464Z" fill="#3558A2"/>
<path d="M88.91 136.485L95.12 139.195L103.27 142.765C103.872 142.967 104.415 143.314 104.852 143.774C105.29 144.234 105.608 144.794 105.78 145.405C105.971 146.062 105.954 146.763 105.732 147.411C105.51 148.058 105.094 148.622 104.54 149.025C103.39 149.865 102.27 150.365 100.8 149.715C97.02 148.045 93.2 146.455 89.4 144.835C88.33 144.385 87.25 143.975 86.06 143.495C85.39 144.975 84.83 146.385 84.06 147.705C83.6996 148.385 83.1259 148.929 82.4268 149.252C81.7278 149.576 80.9421 149.661 80.19 149.495C79.4336 149.33 78.7552 148.914 78.265 148.315C77.7748 147.716 77.5016 146.969 77.49 146.195C77.4385 145.297 77.5608 144.397 77.8499 143.545C78.7399 141.195 79.7599 138.895 80.7299 136.545C81.2799 135.215 81.73 133.865 82.43 132.545C82.6486 131.996 83.0026 131.513 83.4591 131.138C83.9155 130.764 84.4595 130.512 85.04 130.405C85.6201 130.338 86.2079 130.401 86.7601 130.591C87.3123 130.781 87.815 131.092 88.2313 131.502C88.6476 131.911 88.9668 132.409 89.1656 132.958C89.3644 133.507 89.4376 134.094 89.38 134.675C89.2725 135.29 89.1154 135.895 88.91 136.485V136.485Z" fill="#3558A2"/>
<path d="M112.96 167.024C112.674 168.353 111.872 169.515 110.73 170.254C107.12 172.654 103.51 175.044 99.9699 177.534C96.0599 180.294 92.2098 183.134 88.3598 185.974C86.9298 187.034 85.4998 187.494 83.8698 186.484C83.4502 186.224 83.0868 185.883 82.8009 185.48C82.5151 185.078 82.3126 184.623 82.2055 184.141C82.0983 183.659 82.0886 183.161 82.1769 182.675C82.2653 182.19 82.4499 181.727 82.7199 181.314C83.2482 180.574 83.8972 179.928 84.6398 179.404C91.7898 174.354 98.9698 169.354 106.12 164.314C107.114 163.515 108.366 163.106 109.64 163.164C110.113 163.195 110.575 163.321 110.998 163.532C111.422 163.744 111.8 164.038 112.109 164.398C112.418 164.757 112.652 165.174 112.798 165.625C112.944 166.076 112.999 166.551 112.96 167.024Z" fill="#3558A2"/>
<path d="M170.55 190.933C171.276 190.855 172.006 191.045 172.603 191.466C173.199 191.888 173.621 192.513 173.79 193.223C174.018 193.868 174.035 194.569 173.837 195.224C173.639 195.878 173.237 196.453 172.69 196.863C171.817 197.651 170.877 198.36 169.88 198.983C163.64 203.11 157.39 207.223 151.13 211.323C150.595 211.659 150.037 211.956 149.46 212.213C148.602 212.635 147.616 212.717 146.699 212.443C145.783 212.168 145.005 211.558 144.52 210.733C144.112 210.02 143.968 209.186 144.114 208.377C144.261 207.569 144.688 206.838 145.32 206.313C145.851 205.831 146.431 205.406 147.05 205.043C153.39 200.89 159.723 196.75 166.05 192.623C167.45 191.743 168.79 190.783 170.55 190.933Z" fill="#3558A2"/>
<path d="M114.63 199.934C113.876 200.017 113.116 199.85 112.466 199.46C111.816 199.07 111.311 198.478 111.03 197.774C110.707 197.064 110.616 196.27 110.771 195.505C110.925 194.74 111.317 194.044 111.89 193.514C112.621 192.842 113.411 192.236 114.25 191.704C119.71 187.864 125.173 184.027 130.64 180.194C131.601 179.508 132.603 178.881 133.64 178.314C134.231 177.974 134.9 177.79 135.583 177.782C136.266 177.773 136.939 177.939 137.54 178.264C137.936 178.485 138.284 178.783 138.563 179.141C138.842 179.499 139.047 179.908 139.166 180.346C139.284 180.784 139.313 181.242 139.252 181.691C139.191 182.141 139.041 182.574 138.81 182.964C138.429 183.68 137.9 184.307 137.26 184.804C132.43 188.294 127.57 191.734 122.71 195.174C120.87 196.474 119.02 197.774 117.11 198.974C116.317 199.375 115.486 199.697 114.63 199.934V199.934Z" fill="#3558A2"/>
<path d="M217.069 70.2939C217.009 72.1939 214.589 74.2939 212.649 74.2039C211.605 74.0869 210.643 73.584 209.951 72.794C209.259 72.004 208.888 70.9839 208.909 69.9339C208.982 68.8732 209.466 67.8828 210.258 67.1735C211.05 66.4642 212.087 66.092 213.15 66.1364C214.212 66.1807 215.215 66.6379 215.945 67.4107C216.675 68.1835 217.075 69.2108 217.059 70.2739L217.069 70.2939Z" fill="#3558A2"/>
</svg>
