<svg width="300" height="300" viewBox="0 0 300 300" fill="none" xmlns="http://www.w3.org/2000/svg">
<path d="M220.178 127.902H219.058C218.818 127.072 218.654 126.221 218.568 125.362C218.568 121.422 218.508 117.482 218.568 113.542C218.657 112.329 218.82 111.124 219.058 109.932H220.178V127.902Z" fill="#ECECF1"/>
<path d="M216.328 79.4215C215.853 78.4752 215.465 77.4878 215.168 76.4715C214.248 72.0015 213.438 67.4715 212.588 63.0215C212.918 63.2815 213.478 63.4915 213.588 63.8115C214.508 69.0015 215.408 74.2115 216.328 79.4215Z" fill="#ECECF1"/>
<path d="M217.978 143.153C217.713 142.23 217.549 141.281 217.488 140.323C217.588 137.076 217.775 133.829 218.048 130.583C218.048 130.023 218.708 129.503 219.048 128.973L217.978 143.153Z" fill="#ECECF1"/>
<path d="M216.928 87.0224C216.728 84.8424 216.531 82.6624 216.338 80.4824C216.531 82.6624 216.728 84.8424 216.928 87.0224Z" fill="#ECECF1"/>
<path d="M213.078 170.951C213.605 168.764 214.141 166.574 214.688 164.381C214.148 166.574 213.611 168.764 213.078 170.951Z" fill="#ECECF1"/>
<path d="M218.569 105.553C218.569 103.553 218.569 101.553 218.569 99.5527C218.539 101.563 218.559 103.553 218.569 105.553Z" fill="#ECECF1"/>
<path d="M209.867 180.793L212.027 174.223L209.867 180.793Z" fill="#ECECF1"/>
<path d="M211.477 57.1014C211.107 55.4614 210.727 53.8314 210.357 52.1914C210.727 53.7814 211.107 55.4114 211.477 57.1014Z" fill="#ECECF1"/>
<path d="M207.139 188.963L209.249 184.553C208.542 186.019 207.839 187.489 207.139 188.963Z" fill="#ECECF1"/>
<path d="M204.957 194.952L207.057 191.082L204.957 194.952Z" fill="#ECECF1"/>
<path d="M217.487 91.9309L216.947 88.6309C218.757 89.4609 218.047 90.7109 217.487 91.9309Z" fill="#ECECF1"/>
<path d="M218.018 96.2922C217.838 95.1922 217.668 94.0922 217.488 92.9922C219.298 93.8322 218.598 95.1022 218.018 96.2922Z" fill="#ECECF1"/>
<path d="M216.947 148.101C217.277 147.001 217.617 145.891 217.947 144.791C217.617 145.871 217.237 146.981 216.947 148.101Z" fill="#ECECF1"/>
<path d="M216.889 151.332C216.889 150.602 216.889 149.872 216.889 149.152C216.919 149.872 216.909 150.602 216.889 151.332Z" fill="#ECECF1"/>
<path d="M215.787 157.872L216.327 155.672L215.787 157.872Z" fill="#ECECF1"/>
<path d="M212.508 59.8013L211.508 58.1113L212.508 59.8013Z" fill="#ECECF1"/>
<path d="M216.338 154.601C216.518 154.041 216.688 153.491 216.868 152.941C216.688 153.491 216.518 154.041 216.338 154.601Z" fill="#ECECF1"/>
<path d="M215.238 160.592C215.418 160.042 215.598 159.492 215.768 158.932C215.608 159.492 215.428 160.042 215.238 160.592Z" fill="#ECECF1"/>
<path d="M212.569 61.9513C212.569 61.5913 212.569 61.2313 212.569 60.8613C212.539 61.2313 212.559 61.5913 212.569 61.9513Z" fill="#ECECF1"/>
<path d="M214.697 163.321C214.877 162.941 215.047 162.571 215.227 162.201C215.047 162.571 214.877 162.941 214.697 163.321Z" fill="#ECECF1"/>
<path d="M212.049 173.162L213.049 172.012L212.049 173.162Z" fill="#ECECF1"/>
<path d="M150.717 160.252L146.917 167.802C155.227 169.692 157.327 171.962 158.687 180.472C159.018 180.528 159.356 180.528 159.687 180.472C167.337 178.472 171.847 182.722 173.687 189.932C174.23 192.059 174.154 194.297 173.467 196.382C172.697 198.802 171.937 201.232 170.937 203.552C167.667 211.122 164.287 218.642 160.937 226.182C160.137 227.992 158.517 228.552 156.787 228.902C151.097 230.042 145.397 231.142 139.707 232.262L69.4971 246.142C60.0671 248.012 50.6471 249.942 41.1971 251.722C39.322 252.025 37.4141 252.069 35.5271 251.852C34.6507 251.795 33.8214 251.435 33.1824 250.832C32.5434 250.23 32.1348 249.423 32.0271 248.552C29.2671 234.942 26.7071 221.322 27.0271 207.332C27.4071 192.532 31.1071 178.822 40.1571 166.902C42.6171 163.672 45.6371 160.902 48.6071 157.642C42.3771 149.252 39.3871 139.642 41.2471 128.832C43.1071 118.022 48.6171 109.682 57.6371 103.262C56.7871 102.572 56.0971 102.042 55.4371 101.472C48.4371 95.3916 49.6471 84.2617 57.6971 80.4717C59.7362 79.4188 62.0429 78.9972 64.3227 79.2608C66.6024 79.5244 68.752 80.4612 70.4971 81.9516C74.6471 85.1816 76.1571 89.5717 75.3271 94.7617C75.2371 95.3717 75.0671 95.9816 74.9171 96.6616C77.6271 96.8516 80.237 96.8916 82.817 97.2316C95.517 98.8916 105.077 105.302 110.817 116.752C114.808 124.29 115.931 133.019 113.977 141.322C113.917 141.582 113.847 141.842 113.797 142.112C113.797 142.192 113.847 142.282 113.957 142.592C115.147 143.242 116.477 143.982 117.827 144.702C125.827 149.012 131.827 155.472 137.057 162.832C137.932 163.836 138.888 164.766 139.917 165.612C141.757 161.762 143.447 158.372 144.987 154.912C145.167 154.134 145.119 153.322 144.847 152.572C141.667 138.625 138.467 124.678 135.247 110.732C133.247 101.982 131.247 93.2516 129.307 84.4916C128.427 80.4916 129.497 78.6517 133.447 77.6117C144.137 74.8217 154.847 72.1316 165.567 69.4516C192.18 62.785 218.797 56.135 245.417 49.5016C247.857 48.8916 250.037 48.6016 252.417 50.0417C253.291 50.498 254.055 51.1385 254.658 51.9188C255.26 52.6991 255.687 53.6008 255.907 54.5616C258.557 65.2816 261.287 75.9916 263.907 86.7116C266.894 98.7516 269.864 110.798 272.817 122.852C273.817 126.962 272.077 129.852 267.877 130.992C261.567 132.632 255.247 134.232 248.877 135.832C217.637 143.738 186.39 151.642 155.137 159.542C153.897 159.892 152.447 159.992 150.717 160.252ZM248.847 56.2516L136.677 84.1816C141.277 104.112 145.807 123.672 150.437 143.732C151.107 142.532 151.557 141.782 151.947 140.992C158.807 127.065 165.664 113.148 172.517 99.2416C172.914 98.3275 173.403 97.4563 173.977 96.6416C174.446 95.9575 175.143 95.4616 175.943 95.2419C176.742 95.0222 177.594 95.093 178.347 95.4416C179.117 95.7587 179.739 96.356 180.086 97.1133C180.433 97.8705 180.48 98.7312 180.217 99.5216C179.897 100.744 179.437 101.925 178.847 103.042C171.367 118.268 163.88 133.495 156.387 148.722C155.937 149.652 155.517 150.602 154.807 152.142C192.177 142.682 228.877 133.402 265.667 124.012C260.017 101.212 254.457 78.8316 248.847 56.2516V56.2516ZM111.147 149.682C105.647 160.152 97.3371 167.162 85.8471 170.042C74.1871 172.962 63.6171 170.172 53.9671 163.042C50.7457 165.644 47.893 168.671 45.4871 172.042C37.6971 182.572 34.6771 194.612 34.2171 207.482C33.9071 216.142 35.1371 224.662 36.5071 233.172C37.1071 236.902 37.8271 240.622 38.5071 244.262C41.3371 244.462 103.767 232.022 105.577 230.972L97.067 199.922C95.067 200.922 93.3171 201.772 91.5071 202.532C89.2871 203.452 87.2371 202.792 86.3571 200.982C85.4771 199.172 86.227 197.382 88.177 196.122C88.4064 195.979 88.6473 195.855 88.8971 195.752C95.0871 192.972 100.427 188.842 105.617 184.622C109.887 180.989 113.973 177.144 117.857 173.102C120.857 170.102 123.787 167.222 127.457 165.102C127.968 164.795 128.462 164.461 128.937 164.102C123.977 157.892 118.557 152.652 111.147 149.682ZM135.147 171.072C134.273 170.772 133.333 170.714 132.428 170.904C131.524 171.094 130.687 171.525 130.007 172.152C127.402 174.257 124.906 176.493 122.527 178.852C117.237 184.222 111.927 189.542 105.657 193.852C103.467 195.332 103.477 195.412 104.197 198.122C106.637 207.202 109.097 216.282 111.577 225.362C111.977 226.832 112.577 228.252 113.037 229.822C113.877 229.752 114.597 229.762 115.287 229.632C127.737 227.172 140.177 224.632 152.637 222.252C153.303 222.177 153.936 221.92 154.465 221.509C154.994 221.098 155.4 220.549 155.637 219.922C158.097 214.372 160.637 208.872 163.117 203.322C164.117 201.002 165.027 198.622 165.827 196.222C166.348 194.955 166.587 193.59 166.527 192.222C165.987 187.912 163.747 186.222 159.887 188.432C158.297 189.465 156.802 190.636 155.417 191.932C154.857 192.392 154.417 193.022 153.867 193.452C153.266 193.948 152.518 194.232 151.739 194.261C150.96 194.29 150.193 194.062 149.557 193.612C148.915 193.171 148.432 192.535 148.18 191.799C147.927 191.062 147.919 190.263 148.157 189.522C148.477 188.522 149.157 187.522 149.397 186.522C150.138 184.397 150.641 182.197 150.897 179.962C151.067 176.302 148.557 174.722 145.087 175.962C144.311 176.215 143.595 176.627 142.987 177.172C141.517 178.632 140.117 180.172 138.787 181.752C137.917 182.752 137.307 184.052 136.427 185.082C135.886 185.829 135.078 186.338 134.171 186.504C133.263 186.67 132.327 186.479 131.557 185.972C130.802 185.455 130.259 184.682 130.029 183.796C129.8 182.91 129.898 181.971 130.307 181.152C130.715 180.34 131.169 179.552 131.667 178.792C132.587 177.232 133.597 175.722 134.387 174.102C134.749 173.132 135.007 172.126 135.157 171.102L135.147 171.072ZM72.1471 107.862C69.8771 109.942 68.0071 111.962 65.8371 113.572C61.1071 117.072 56.2571 120.422 51.3771 123.722C50.3634 124.303 49.617 125.258 49.2972 126.382C48.1159 130.493 47.8193 134.808 48.427 139.042C48.9649 142.821 50.2496 146.456 52.2062 149.734C54.1628 153.012 56.7524 155.868 59.8238 158.135C62.8952 160.402 66.387 162.036 70.096 162.94C73.805 163.844 77.6568 164.001 81.427 163.402C96.647 161.022 108.137 147.402 107.347 132.012C107.207 129.222 107.127 126.272 106.187 123.712C104.704 119.69 102.379 116.032 99.3671 112.982C98.8561 112.434 98.2364 111.999 97.5476 111.704C96.8588 111.41 96.1161 111.262 95.3671 111.272C90.6617 111.14 85.9658 110.773 81.2972 110.172C78.2344 109.58 75.2091 108.809 72.2371 107.862H72.1471Z" fill="#3558A2"/>
<path d="M248.848 56.252C254.458 78.8319 260.018 101.252 265.668 124.012C228.878 133.402 192.178 142.682 154.808 152.142C155.518 150.602 155.938 149.652 156.388 148.722C163.881 133.502 171.368 118.275 178.848 103.042C179.438 101.925 179.898 100.744 180.218 99.5219C180.48 98.7315 180.434 97.8708 180.087 97.1136C179.739 96.3563 179.118 95.7589 178.348 95.4419C177.595 95.0933 176.743 95.0225 175.943 95.2422C175.143 95.4619 174.447 95.9578 173.978 96.6419C173.404 97.4566 172.915 98.3278 172.518 99.2419C165.664 113.149 158.808 127.065 151.948 140.992C151.558 141.782 151.108 142.532 150.438 143.732C145.808 123.672 141.278 104.112 136.678 84.1819L248.848 56.252ZM212.208 91.2519C212.318 91.7819 212.478 92.6819 212.718 93.5519C213.118 95.0319 213.568 96.5519 214.008 97.9819C216.008 104.842 218.008 111.712 220.078 118.562C221.368 122.932 222.938 123.912 227.248 122.842C234.581 121.042 241.864 119.172 249.098 117.232C253.028 116.232 254.098 114.232 252.988 110.332C250.688 102.052 248.354 93.7719 245.988 85.4919C244.718 81.0719 243.068 80.1719 238.538 81.1919C234.738 82.0519 230.928 82.8919 227.128 83.7619C223.328 84.6319 219.528 85.4819 215.758 86.4619C213.128 87.1019 212.158 88.4619 212.238 91.2119L212.208 91.2519ZM162.378 94.5119C163.028 94.3619 164.098 94.1719 165.148 93.8819L232.468 75.3519C233.259 75.1546 234.027 74.873 234.758 74.512C235.498 74.1472 236.093 73.5422 236.446 72.7957C236.798 72.0493 236.887 71.2054 236.698 70.402C236.487 69.6031 235.997 68.9064 235.316 68.4384C234.635 67.9705 233.809 67.7624 232.988 67.8519C232.085 67.9079 231.193 68.069 230.328 68.332C207.901 74.5453 185.475 80.7719 163.048 87.0119C162.079 87.2475 161.137 87.5826 160.238 88.0119C159.47 88.3152 158.842 88.8912 158.473 89.6293C158.104 90.3675 158.02 91.2159 158.238 92.0119C158.688 93.6419 159.998 94.5119 162.378 94.4719V94.5119ZM201.148 122.102C200.72 122.373 200.264 122.598 199.788 122.772C199.293 122.855 198.82 123.036 198.396 123.304C197.972 123.573 197.606 123.923 197.319 124.335C197.032 124.746 196.83 125.211 196.725 125.702C196.62 126.192 196.614 126.699 196.708 127.192C197.208 129.132 198.988 130.292 201.438 129.822C204.276 129.251 207.077 128.513 209.828 127.612C211.598 127.032 213.248 125.812 213.518 123.912C214.127 119.117 213.117 114.257 210.648 110.102C210.215 109.444 209.556 108.966 208.795 108.76C208.034 108.554 207.224 108.633 206.518 108.982C205.785 109.328 205.189 109.911 204.826 110.636C204.464 111.361 204.355 112.188 204.518 112.982C204.678 113.822 204.928 114.652 205.188 115.682C202.595 114.494 200.54 112.379 199.428 109.752C198.038 106.752 196.948 103.542 195.828 100.392C195.068 98.2619 194.568 96.0419 193.828 93.9219C193.571 93.0355 192.98 92.2832 192.18 91.8226C191.381 91.3621 190.434 91.2293 189.538 91.4519C188.656 91.7109 187.9 92.2848 187.413 93.0646C186.926 93.8444 186.743 94.7759 186.898 95.6819C186.939 96.1339 187.029 96.5799 187.168 97.0119C188.078 100.012 188.928 103.102 189.948 106.102C191.978 112.432 194.808 118.272 201.148 122.102Z" fill="white"/>
<path d="M111.147 149.682C118.557 152.682 123.977 157.892 128.937 164.042C128.462 164.401 127.968 164.735 127.457 165.042C123.787 167.132 120.817 170.042 117.857 173.042C113.964 177.102 109.869 180.964 105.587 184.612C100.397 188.832 95.0571 192.962 88.8671 195.742C88.6173 195.845 88.3765 195.969 88.1471 196.112C86.1471 197.372 85.497 199.252 86.327 200.972C87.157 202.692 89.2571 203.442 91.4771 202.522C93.2871 201.762 95.0371 200.862 97.0371 199.912L105.547 230.962C103.737 231.962 41.307 244.452 38.477 244.252C37.827 240.612 37.107 236.892 36.477 233.162C35.107 224.652 33.877 216.162 34.187 207.472C34.647 194.602 37.667 182.562 45.457 172.032C47.8629 168.661 50.7156 165.634 53.937 163.032C63.587 170.122 74.157 172.912 85.817 170.032C97.337 167.162 105.647 160.152 111.147 149.682Z" fill="white"/>
<path d="M135.157 171.102C135.01 172.126 134.755 173.131 134.397 174.102C133.607 175.722 132.597 177.232 131.677 178.792C131.179 179.552 130.725 180.34 130.317 181.152C129.908 181.971 129.809 182.91 130.039 183.796C130.269 184.682 130.812 185.455 131.567 185.972C132.337 186.479 133.273 186.67 134.18 186.504C135.088 186.339 135.896 185.829 136.437 185.082C137.317 184.082 137.927 182.792 138.797 181.752C140.127 180.172 141.527 178.632 142.997 177.172C143.605 176.627 144.32 176.215 145.097 175.962C148.567 174.682 151.097 176.262 150.907 179.962C150.65 182.197 150.147 184.397 149.407 186.522C149.127 187.522 148.487 188.522 148.167 189.522C147.929 190.264 147.937 191.062 148.189 191.799C148.441 192.536 148.925 193.171 149.567 193.612C150.203 194.062 150.97 194.29 151.749 194.261C152.528 194.233 153.276 193.948 153.877 193.452C154.447 193.022 154.877 192.392 155.427 191.932C156.811 190.636 158.307 189.465 159.897 188.432C163.757 186.232 165.997 187.912 166.537 192.222C166.597 193.59 166.358 194.955 165.837 196.222C165.037 198.622 164.147 201.002 163.127 203.322C160.677 208.872 158.127 214.322 155.647 219.922C155.41 220.549 155.004 221.098 154.475 221.509C153.946 221.92 153.313 222.177 152.647 222.252C140.187 224.662 127.747 227.172 115.297 229.632C114.607 229.762 113.887 229.752 113.047 229.822C112.537 228.252 111.987 226.822 111.587 225.362C109.107 216.255 106.657 207.169 104.237 198.102C103.517 195.392 103.507 195.312 105.697 193.832C111.967 189.562 117.277 184.242 122.567 178.832C124.945 176.473 127.442 174.237 130.047 172.132C130.729 171.519 131.563 171.101 132.461 170.92C133.36 170.738 134.291 170.801 135.157 171.102V171.102Z" fill="#EAECF1"/>
<path d="M72.237 107.861C75.2254 108.811 78.2674 109.582 81.347 110.171C86.0157 110.773 90.7116 111.14 95.4171 111.271C96.1661 111.262 96.9088 111.41 97.5976 111.704C98.2864 111.998 98.9061 112.434 99.4171 112.981C102.429 116.031 104.754 119.69 106.237 123.711C107.177 126.271 107.237 129.221 107.397 132.011C108.187 147.441 96.697 161.011 81.477 163.401C77.7068 164.001 73.8549 163.844 70.146 162.94C66.437 162.035 62.945 160.402 59.8736 158.135C56.8022 155.867 54.2128 153.012 52.2562 149.734C50.2996 146.456 49.0149 142.821 48.477 139.041C47.8693 134.807 48.1658 130.492 49.347 126.381C49.6669 125.257 50.4132 124.303 51.427 123.721C56.307 120.421 61.1571 117.071 65.8871 113.571C68.0671 111.961 69.937 109.941 72.237 107.861ZM82.237 142.961C89.137 142.751 93.237 140.481 95.367 133.701C95.6451 132.571 95.6175 131.387 95.2871 130.271C95.0945 129.515 94.6427 128.851 94.0103 128.394C93.378 127.937 92.6052 127.717 91.827 127.771C91.0961 127.798 90.3929 128.057 89.8205 128.513C89.2482 128.968 88.8369 129.595 88.6471 130.301C88.4671 130.811 88.387 131.351 88.227 131.871C88.025 132.956 87.4267 133.926 86.5487 134.593C85.6706 135.26 84.5757 135.577 83.477 135.481C82.6187 135.471 81.7711 135.289 80.9845 134.945C80.1978 134.602 79.488 134.104 78.8971 133.481C78.1571 132.811 77.507 132.031 76.717 131.431C76.057 130.858 75.2058 130.553 74.3318 130.577C73.4577 130.601 72.6245 130.952 71.997 131.561C71.3674 132.105 70.9601 132.861 70.8531 133.686C70.7461 134.51 70.9469 135.345 71.4171 136.031C72.635 137.879 74.2274 139.451 76.0913 140.645C77.9551 141.839 80.0489 142.628 82.237 142.961ZM72.5271 125.291C73.0253 125.276 73.5154 125.161 73.9687 124.954C74.422 124.746 74.8292 124.451 75.1665 124.083C75.5037 123.716 75.7643 123.286 75.9327 122.816C76.1011 122.347 76.174 121.849 76.1471 121.351C76.1392 120.874 76.0332 120.403 75.8357 119.968C75.6381 119.534 75.3531 119.144 74.9985 118.824C74.6439 118.505 74.2273 118.261 73.7746 118.109C73.3219 117.957 72.8428 117.9 72.367 117.941C71.4067 117.983 70.5019 118.403 69.8499 119.109C69.198 119.815 68.8518 120.751 68.8871 121.711C68.8801 122.188 68.9696 122.66 69.1502 123.101C69.3308 123.542 69.5988 123.942 69.938 124.276C70.2771 124.611 70.6804 124.873 71.1236 125.047C71.5669 125.222 72.0409 125.305 72.5171 125.291H72.5271ZM89.137 120.371C89.1532 119.894 89.0729 119.419 88.9011 118.974C88.7293 118.528 88.4695 118.122 88.1372 117.78C87.8048 117.437 87.4069 117.165 86.967 116.98C86.5271 116.794 86.0543 116.7 85.577 116.701C85.1007 116.688 84.6265 116.769 84.1816 116.939C83.7367 117.11 83.3297 117.366 82.9841 117.694C82.6385 118.022 82.3611 118.415 82.1677 118.85C81.9743 119.286 81.8687 119.755 81.857 120.231C81.8437 120.708 81.9258 121.183 82.0985 121.627C82.2712 122.072 82.531 122.478 82.8626 122.821C83.1943 123.163 83.5911 123.436 84.0298 123.624C84.4684 123.811 84.9401 123.909 85.4171 123.911C86.3745 123.92 87.2974 123.555 87.9901 122.894C88.6828 122.233 89.0907 121.328 89.127 120.371H89.137Z" fill="#EAECF1"/>
<path d="M212.238 91.2115C212.238 88.4615 213.158 87.1115 215.788 86.4215C219.558 85.4215 223.368 84.6015 227.158 83.7215C230.948 82.8415 234.768 82.0115 238.568 81.1515C243.098 80.1515 244.748 81.0315 246.018 85.4515C248.398 93.7248 250.732 102.005 253.018 110.291C254.118 114.231 253.018 116.151 249.128 117.191C241.868 119.131 234.572 121.001 227.238 122.801C222.928 123.871 221.358 122.891 220.068 118.521C218.068 111.671 216.068 104.801 213.998 97.9415C213.558 96.4715 213.108 94.9415 212.708 93.5115C212.478 92.6415 212.318 91.7415 212.238 91.2115ZM239.238 88.6115L220.238 92.9515L226.848 115.301L245.358 110.501L239.238 88.6115Z" fill="#3558A2"/>
<path d="M162.377 94.4714C159.997 94.4714 158.687 93.6414 158.207 91.9714C157.989 91.1754 158.073 90.3269 158.442 89.5888C158.811 88.8506 159.439 88.2747 160.207 87.9714C161.106 87.542 162.048 87.2069 163.017 86.9714C185.437 80.7314 207.863 74.5047 230.297 68.2914C231.162 68.0284 232.054 67.8673 232.957 67.8114C233.778 67.7218 234.604 67.9299 235.285 68.3979C235.966 68.8658 236.456 69.5625 236.667 70.3614C236.856 71.1649 236.767 72.0087 236.414 72.7551C236.062 73.5016 235.467 74.1066 234.727 74.4714C233.996 74.8324 233.228 75.114 232.437 75.3114L165.117 93.8414C164.097 94.1014 163.027 94.3214 162.377 94.4714Z" fill="#3558A2"/>
<path d="M201.148 122.101C194.808 118.251 191.978 112.411 189.848 106.101C188.848 103.101 187.978 100.041 187.068 97.0112C186.929 96.5791 186.839 96.1331 186.798 95.6812C186.643 94.7751 186.826 93.8437 187.313 93.0638C187.799 92.284 188.556 91.7101 189.438 91.4512C190.333 91.2285 191.281 91.3614 192.08 91.8219C192.88 92.2824 193.471 93.0348 193.728 93.9212C194.518 96.0412 195.018 98.2612 195.728 100.391C196.848 103.541 197.938 106.721 199.328 109.751C200.44 112.378 202.495 114.493 205.088 115.681C204.828 114.681 204.578 113.821 204.418 112.981C204.255 112.187 204.363 111.361 204.726 110.635C205.089 109.91 205.685 109.328 206.418 108.981C207.124 108.632 207.934 108.553 208.695 108.759C209.455 108.965 210.115 109.443 210.548 110.101C213.017 114.256 214.027 119.117 213.418 123.911C213.148 125.811 211.498 127.031 209.728 127.611C206.977 128.513 204.175 129.251 201.338 129.821C198.888 130.291 197.108 129.131 196.608 127.191C196.514 126.698 196.52 126.192 196.625 125.701C196.73 125.21 196.932 124.745 197.219 124.334C197.506 123.922 197.872 123.572 198.296 123.304C198.72 123.035 199.193 122.854 199.688 122.771C200.198 122.604 200.688 122.379 201.148 122.101Z" fill="#3558A2"/>
<path d="M82.2382 142.962C80.0442 142.62 77.9468 141.82 76.0825 140.614C74.2183 139.408 72.6291 137.823 71.4182 135.962C70.9481 135.276 70.7473 134.44 70.8543 133.616C70.9613 132.791 71.3686 132.035 71.9982 131.492C72.6256 130.883 73.4588 130.531 74.3329 130.507C75.207 130.483 76.0582 130.788 76.7182 131.362C77.5082 131.962 78.1582 132.742 78.8982 133.412C79.4892 134.034 80.1989 134.532 80.9856 134.875C81.7723 135.219 82.6198 135.401 83.4782 135.412C84.5769 135.507 85.6718 135.191 86.5498 134.523C87.4279 133.856 88.0262 132.886 88.2282 131.802C88.3882 131.282 88.4682 130.742 88.6482 130.232C88.8381 129.525 89.2493 128.898 89.8217 128.443C90.394 127.988 91.0972 127.728 91.8282 127.702C92.6064 127.647 93.3792 127.867 94.0115 128.324C94.6439 128.781 95.0957 129.446 95.2882 130.202C95.6187 131.318 95.6463 132.501 95.3682 133.632C93.2382 140.482 89.1282 142.752 82.2382 142.962Z" fill="#3558A2"/>
<path d="M72.5175 125.291C72.0405 125.306 71.5654 125.224 71.121 125.05C70.6766 124.876 70.272 124.614 69.9318 124.279C69.5915 123.945 69.3227 123.544 69.1415 123.103C68.9603 122.662 68.8705 122.188 68.8774 121.711C68.8422 120.75 69.1884 119.815 69.8403 119.108C70.4923 118.402 71.3971 117.982 72.3574 117.941C72.8332 117.899 73.3123 117.957 73.765 118.109C74.2177 118.26 74.6343 118.504 74.9889 118.824C75.3435 119.144 75.6285 119.533 75.8261 119.968C76.0236 120.403 76.1296 120.873 76.1375 121.351C76.1643 121.848 76.0915 122.347 75.9231 122.816C75.7547 123.285 75.4943 123.716 75.157 124.083C74.8197 124.45 74.4124 124.746 73.9591 124.953C73.5058 125.161 73.0157 125.275 72.5175 125.291Z" fill="#3558A2"/>
<path d="M89.1271 120.373C89.0907 121.331 88.6815 122.237 87.9866 122.899C87.2918 123.56 86.3663 123.924 85.4072 123.913C84.9302 123.91 84.4585 123.812 84.0198 123.625C83.5812 123.438 83.1844 123.165 82.8527 122.822C82.5211 122.479 82.2612 122.073 82.0886 121.629C81.9159 121.184 81.8338 120.709 81.8471 120.233C81.8588 119.756 81.9644 119.287 82.1578 118.852C82.3512 118.416 82.6287 118.023 82.9743 117.695C83.3199 117.367 83.7267 117.111 84.1717 116.94C84.6166 116.77 85.0908 116.689 85.5671 116.703C86.0444 116.701 86.5172 116.796 86.9571 116.981C87.397 117.166 87.7949 117.438 88.1272 117.781C88.4596 118.123 88.7195 118.53 88.8913 118.975C89.0631 119.42 89.1433 119.896 89.1271 120.373V120.373Z" fill="#3558A2"/>
<path d="M239.178 88.6113L245.358 110.501L226.848 115.301L220.238 92.9513L239.178 88.6113Z" fill="#979FBB"/>
</svg>
