<svg width="300" height="300" viewBox="0 0 300 300" fill="none" xmlns="http://www.w3.org/2000/svg">
<path d="M151.019 218.484C143.119 212.814 134.569 208.584 124.659 208.104C116.659 207.714 108.709 207.714 100.729 207.814C92.7487 207.914 84.7287 208.244 77.0787 205.324C66.7287 201.384 60.2387 194.244 59.0787 182.904C58.0187 172.244 67.8288 161.094 78.4988 160.734C85.8688 160.484 92.8887 162.294 99.8387 164.394C107.269 166.634 114.579 167.394 121.719 163.394C125.72 161.269 129.025 158.037 131.239 154.084C128.839 152.974 126.529 151.984 124.239 150.874C115.949 146.774 109.969 140.564 107.629 131.474C106.059 125.354 107.169 119.154 108.629 113.174C111.289 102.464 114.299 91.8443 117.189 81.1743C117.68 78.8779 118.373 76.6292 119.259 74.4543C122.939 66.7443 129.349 63.7843 137.919 65.5943C139.339 65.8843 140.739 66.2643 142.369 66.6643C142.829 65.5543 143.209 64.4643 143.699 63.4343C144.579 61.5843 146.059 60.5443 148.089 61.1943C148.561 61.306 149.004 61.5175 149.387 61.8145C149.771 62.1115 150.086 62.4872 150.313 62.9163C150.539 63.3454 150.671 63.818 150.7 64.3023C150.728 64.7867 150.653 65.2715 150.479 65.7243C149.219 70.0643 147.839 74.3743 146.479 78.7243C145.769 80.8743 144.299 82.0943 141.919 81.5443C139.919 81.0743 138.989 78.9943 139.569 76.4643C139.749 75.6843 139.949 74.9143 140.209 73.8743C138.419 73.4143 136.799 72.8743 135.139 72.6043C130.729 71.8243 127.509 73.4343 126.199 77.7243C122.809 88.8943 119.619 100.114 116.509 111.364C115.629 114.574 115.369 117.954 114.709 121.234C112.829 130.584 116.789 137.494 124.279 142.324C132.049 147.324 140.579 150.564 150.079 150.604C157.079 150.604 161.749 146.774 165.169 141.414C168.149 136.868 170.624 132.009 172.549 126.924C176.479 116.124 179.839 105.134 183.369 94.1943C184.129 91.8343 183.499 89.8443 180.989 88.8843C177.909 87.6943 174.789 86.6043 171.769 85.4943C169.619 89.6543 168.139 90.6643 165.929 89.8443C163.719 89.0243 163.229 86.9243 164.489 82.9743C165.599 79.5243 166.689 76.0743 167.859 72.6443C168.859 69.7643 170.689 68.5743 172.859 69.2843C175.029 69.9943 175.659 72.0043 174.859 74.9743C174.539 76.0843 174.229 77.1943 173.859 78.2843C177.049 79.4743 180.169 80.4443 183.109 81.7743C190.289 85.0343 192.639 89.7043 190.269 97.1843C186.589 108.824 182.889 120.494 178.399 131.834C175.872 138.028 172.507 143.845 168.399 149.124C162.789 156.424 154.799 159.234 145.629 157.544C140.999 156.684 138.039 157.324 134.719 161.604C126.329 172.394 114.859 175.814 101.429 172.424C95.1561 170.679 88.7848 169.309 82.3487 168.324C74.5787 167.324 70.7987 169.814 67.5987 176.644C65.2487 181.644 66.6788 188.424 70.9888 192.964C76.1688 198.424 82.8788 200.054 89.9888 200.404C94.4188 200.624 98.8787 200.404 103.319 200.224C113.689 199.774 124.009 199.884 134.189 202.224C142.309 204.084 149.189 208.554 156.039 212.914C165.449 207.704 172.039 211.044 176.129 215.914C180.219 220.784 179.999 228.524 175.679 233.744C173.527 236.421 170.523 238.279 167.166 239.007C163.81 239.735 160.306 239.289 157.239 237.744C150.529 234.344 148.509 228.164 151.019 218.484ZM164.869 217.784C162.857 217.745 160.909 218.489 159.435 219.858C157.962 221.227 157.077 223.115 156.969 225.124C156.958 226.033 157.129 226.935 157.471 227.777C157.813 228.618 158.32 229.384 158.962 230.027C159.603 230.671 160.367 231.18 161.208 231.524C162.049 231.869 162.95 232.042 163.859 232.034C165.871 232.044 167.808 231.271 169.262 229.879C170.715 228.487 171.571 226.585 171.649 224.574C171.709 220.474 169.049 217.814 164.829 217.784H164.869Z" fill="#3558A2"/>
<path d="M228.829 116.384C230.273 120.056 232.771 123.218 236.009 125.474C236.987 126.132 237.92 126.857 238.799 127.644C241.529 130.174 240.729 133.734 237.179 134.844C235.889 135.254 234.519 135.414 233.179 135.784C223.099 138.604 216.609 145.374 212.459 154.684C212.043 155.781 211.556 156.85 210.999 157.884C209.999 159.574 208.149 160.354 206.579 159.374C205.38 158.414 204.602 157.026 204.409 155.504C204.249 154.204 205.199 152.784 205.579 151.394C207.309 145.144 209.249 138.944 210.579 132.614C211.092 130.707 211.012 128.689 210.349 126.829C209.686 124.969 208.472 123.356 206.869 122.204C206.294 121.649 205.861 120.964 205.605 120.207C205.349 119.451 205.278 118.643 205.399 117.854C205.819 116.624 207.739 115.584 209.209 115.114C210.679 114.644 212.629 114.954 214.339 114.794C222.549 114.024 226.839 108.614 229.799 101.654C230.165 100.539 230.613 99.4525 231.139 98.4036C232.199 96.6536 233.869 95.9036 235.789 96.7736C237.709 97.6436 238.199 99.2736 237.629 101.324C236.039 107.164 232.829 111.984 228.829 116.384ZM218.319 134.624L228.439 129.274L222.199 120.524L217.199 121.934C217.529 126.354 217.909 130.524 218.279 134.624H218.319Z" fill="#3558A2"/>
<path d="M164.83 217.785C169.01 217.785 171.67 220.475 171.61 224.575C171.532 226.586 170.677 228.488 169.223 229.879C167.77 231.271 165.832 232.044 163.82 232.035C162.911 232.043 162.01 231.869 161.169 231.525C160.329 231.18 159.565 230.671 158.923 230.027C158.282 229.384 157.775 228.619 157.432 227.777C157.09 226.935 156.919 226.033 156.93 225.125C157.039 223.116 157.923 221.228 159.397 219.858C160.871 218.489 162.819 217.745 164.83 217.785V217.785Z" fill="white"/>
<path d="M218.281 134.623C217.911 130.523 217.531 126.353 217.141 121.933L222.141 120.523L228.381 129.273L218.281 134.623Z" fill="white"/>
</svg>
