<svg width="300" height="300" viewBox="0 0 300 300" fill="none" xmlns="http://www.w3.org/2000/svg">
<g clip-path="url(#clip0_1_8683)">
<path d="M225.083 88.24C230.965 88.0755 236.793 89.4034 242.023 92.1C243.493 89.6 244.943 87.22 246.303 84.79C250.523 77.29 254.72 69.78 258.893 62.26C259.553 61.07 260.073 59.8 260.743 58.62C261.116 57.8322 261.754 57.2003 262.545 56.8348C263.337 56.4692 264.231 56.3932 265.073 56.62C265.619 56.6952 266.125 56.9488 266.512 57.3412C266.899 57.7337 267.146 58.243 267.213 58.79C267.512 60.1453 267.32 61.5624 266.673 62.79C260.973 72.89 255.306 83.0067 249.673 93.14C249.143 94.08 248.673 95.04 248.063 96.14C251.446 99.2396 254.258 102.909 256.373 106.98C257.197 106.9 258.015 106.77 258.823 106.59C265.403 104.663 271.983 102.71 278.563 100.73C283.323 99.3034 288.08 97.8634 292.833 96.41C293.833 96.1 294.893 95.73 295.953 95.52C296.853 95.332 297.79 95.4943 298.574 95.9737C299.358 96.4531 299.93 97.2136 300.173 98.1C300.355 98.9034 300.227 99.746 299.813 100.458C299.399 101.171 298.731 101.7 297.943 101.94C294.013 103.28 290.033 104.49 286.053 105.7C280.953 107.25 275.833 108.7 270.733 110.26C267.26 111.3 263.803 112.35 260.363 113.41C259.843 113.57 259.363 113.79 258.653 114.06C260.061 120.214 259.587 126.649 257.293 132.53C257.775 132.937 258.286 133.308 258.823 133.64C265.823 137.19 272.893 140.76 279.983 144.22C283.983 146.22 288.063 147.89 292.093 149.75C292.843 150.04 293.524 150.483 294.093 151.05C294.566 151.553 294.86 152.197 294.932 152.883C295.005 153.569 294.85 154.26 294.493 154.85C294.15 155.496 293.623 156.024 292.978 156.368C292.333 156.712 291.6 156.855 290.873 156.78C290.34 156.698 289.821 156.54 289.333 156.31C287.113 155.283 284.903 154.233 282.703 153.16L255.833 140.02C255.263 139.75 254.683 139.5 254.093 139.23C252.203 141.16 250.443 143.23 248.423 144.97C246.403 146.71 244.243 148.05 242.003 149.67C242.553 151.33 243.083 152.95 243.633 154.56C247.273 165.19 251.003 175.77 255.543 186.05C255.903 186.765 256.072 187.561 256.033 188.36C255.974 189.184 255.64 189.965 255.086 190.577C254.531 191.19 253.787 191.599 252.973 191.74C252.108 191.79 251.251 191.557 250.529 191.077C249.808 190.598 249.262 189.897 248.973 189.08C247.973 186.83 247.083 184.57 246.233 182.28C243.583 175.16 240.983 168.01 238.373 160.87C237.373 157.99 236.373 155.09 235.233 152.02C233.163 152.22 231.233 152.53 229.233 152.56C227.154 152.609 225.074 152.492 223.013 152.21C221.063 151.93 219.153 151.33 217.013 150.83C213.583 156.47 210.663 162.36 207.333 168.36C209.183 168.16 210.783 168 212.333 167.81C213.883 167.62 215.393 167.49 216.893 167.17C217.769 167.037 218.592 166.667 219.273 166.1C221.673 163.66 224.733 164.94 225.603 168.26C226.293 170.88 226.783 173.54 227.383 176.18C229.863 187.087 232.343 197.997 234.823 208.91C234.963 209.53 235.003 210.16 235.103 210.79C235.583 213.79 234.553 215.24 231.573 215.66C224.683 216.66 217.793 217.57 210.913 218.57C202.333 219.81 193.763 221.1 185.183 222.39C182.603 222.77 180.033 223.22 177.973 223.55L173.513 220.38V224.23L164.263 225.48C160.063 226.08 155.853 226.63 151.653 227.26C147.453 227.89 143.103 228.63 138.813 229.26C131.76 230.34 124.71 231.407 117.663 232.46C114.983 232.86 112.293 233.21 109.663 233.61C108.588 233.726 107.529 233.957 106.503 234.3C105.794 234.604 105.017 234.717 104.25 234.627C103.483 234.538 102.753 234.249 102.133 233.79C101.317 233.29 100.472 232.839 99.603 232.44L99.383 235.08C95.083 235.71 90.8831 236.31 86.7031 236.94C82.5231 237.57 78.313 238.25 74.123 238.94L65.5431 240.21C58.4131 241.28 51.283 242.37 44.143 243.42C41.193 243.85 38.233 244.18 35.283 244.64C34.5839 244.703 33.9307 245.015 33.4431 245.52C31.7131 248.16 29.1031 247.98 26.7331 246.84C23.1431 245.11 19.453 243.55 16.013 241.57C11.683 239.06 7.01307 237.25 2.56307 235.11C0.153073 233.96 -0.51698 232.3 0.38302 229.79C0.630934 229.206 0.921784 228.641 1.25308 228.1C3.03308 224.74 4.84305 221.39 6.60305 218.02C8.91305 213.6 11.1531 209.14 13.4831 204.74C14.8431 202.18 16.343 199.74 17.763 197.18C18.2467 196.302 18.9398 195.557 19.7806 195.011C20.6214 194.465 21.5841 194.135 22.583 194.05C26.973 193.48 31.3631 192.91 35.7531 192.3C40.4031 191.65 45.0531 190.93 49.7531 190.3C54.4531 189.67 58.8931 189.1 63.4631 188.48C67.7631 187.9 72.063 187.29 76.353 186.69L86.8231 185.22L90.9531 184.61L92.0531 186.77C92.2231 186.68 92.423 186.65 92.493 186.53C93.883 184.34 95.833 183.6 98.493 183.53C101.736 183.275 104.964 182.852 108.163 182.26L121.583 180.37C126.323 179.69 131.063 179 135.813 178.37C140.373 177.74 144.953 177.17 149.513 176.53C154.073 175.89 158.633 175.19 163.193 174.53C163.643 174.46 164.093 174.45 164.723 174.4C165.033 175.21 165.343 176.03 165.723 177.02C166.063 176.62 166.373 176.25 166.723 175.9C167.82 174.563 169.373 173.68 171.083 173.42C175.653 172.81 180.233 172.24 184.803 171.63C188.923 171.08 193.033 170.49 197.163 169.97C197.705 169.899 198.22 169.688 198.656 169.359C199.093 169.029 199.436 168.592 199.653 168.09C200.653 166.34 201.513 164.57 202.473 162.82C204.993 158.21 207.533 153.6 210.053 148.99C210.313 148.52 210.513 147.99 210.793 147.41C204.981 143.401 200.491 137.755 197.893 131.19C196.113 131.72 194.473 132.19 192.893 132.7C186.773 134.64 180.653 136.57 174.563 138.58C170.01 140.08 165.476 141.653 160.963 143.3C159.949 143.65 158.847 143.65 157.833 143.3C157.167 143.155 156.562 142.806 156.102 142.303C155.642 141.8 155.349 141.167 155.263 140.49C155.209 139.718 155.396 138.947 155.799 138.286C156.202 137.625 156.801 137.105 157.513 136.8C158.433 136.45 159.443 136.32 160.383 136.01C165.023 134.48 169.643 132.9 174.283 131.37C178.923 129.84 183.413 128.43 187.963 126.95C190.623 126.08 193.263 125.17 196.183 124.19C195.674 118.64 196.468 113.048 198.503 107.86C196.503 106.7 194.613 105.61 192.723 104.59C185.643 100.73 178.543 96.91 171.453 93.06C169.613 92.06 167.783 91.06 165.983 90.06C165.202 89.6145 164.477 89.0774 163.823 88.46C163.234 87.887 162.866 87.1237 162.785 86.3055C162.705 85.4873 162.917 84.667 163.383 83.99C163.927 83.3301 164.675 82.8692 165.509 82.6792C166.343 82.4892 167.217 82.581 167.993 82.94C170.833 84.53 173.633 86.21 176.493 87.78C182.493 91.06 188.423 94.29 194.393 97.54L201.883 101.61C206.173 96.21 211.213 92.07 217.643 90C218.233 88.91 217.843 88 217.563 87C216.133 82 214.773 77.09 213.313 72.14C211.853 67.19 210.313 62.48 208.933 57.62C208.669 56.6715 208.638 55.673 208.843 54.71C208.996 53.9433 209.411 53.2537 210.017 52.7593C210.623 52.2649 211.381 51.9965 212.163 52C212.928 51.9977 213.675 52.2332 214.3 52.6739C214.925 53.1146 215.398 53.7388 215.653 54.46C216.733 58.09 217.653 61.77 218.713 65.46C220.103 70.46 221.483 75.38 222.903 80.34C223.433 82.86 224.243 85.48 225.083 88.24ZM228.083 145.48C240.693 145.48 252.363 135.87 252.353 120.79C252.415 117.469 251.81 114.169 250.574 111.085C249.339 108.002 247.497 105.197 245.159 102.838C242.821 100.478 240.033 98.6112 236.961 97.3475C233.889 96.0837 230.595 95.4487 227.273 95.48C212.813 95.39 202.943 106.93 202.973 120.12C202.956 123.433 203.592 126.717 204.844 129.785C206.096 132.853 207.94 135.644 210.271 137.999C212.602 140.353 215.373 142.226 218.428 143.51C221.482 144.794 224.76 145.463 228.073 145.48H228.083ZM31.6631 238.06L58.123 234.06C57.253 228.91 56.4431 224.06 55.5831 218.97L29.083 222.55C29.943 227.78 30.783 232.81 31.653 238.06H31.6631ZM92.023 229.06C91.413 224.06 90.2231 219.34 89.3231 214.33C80.2431 215.44 71.3931 216.74 62.4331 218.04C63.7531 223.17 64.043 228.2 65.143 233.04L92.023 229.06ZM28.0631 215.68C29.9031 215.46 31.333 215.3 32.763 215.1C39.103 214.22 45.4364 213.323 51.763 212.41C52.6682 212.233 53.5629 212.006 54.4431 211.73C54.0431 209.07 53.7831 206.65 53.3031 204.27C52.8231 201.89 52.883 199.44 51.763 197.27C47.243 197.85 42.8431 198.27 38.4931 199.02C34.1431 199.77 29.7531 199.96 25.4931 201.08C26.3831 206.04 26.9231 210.86 28.0631 215.68ZM87.993 207.33C86.993 202.33 86.0731 197.57 85.0831 192.54L59.013 196.2C59.883 201.2 60.7131 205.97 61.5831 210.97L87.993 207.33ZM133.043 185.87C133.823 190.87 134.723 195.56 135.793 200.57L161.793 197.05C160.793 192.05 159.933 187.29 158.983 182.28L133.043 185.87ZM137.313 207.46C137.773 210.21 138.223 212.46 138.533 214.8C138.728 217.24 139.204 219.65 139.953 221.98L165.743 218.2L163.053 204.03L137.313 207.46ZM130.313 208.46L106.313 211.66C107.233 216.76 108.113 221.66 109.023 226.66L132.673 223.14C131.903 218.27 131.163 213.59 130.313 208.48V208.46ZM126.043 186.85C118.043 188.07 110.333 188.85 102.433 190.31C103.323 195.23 104.173 199.91 105.043 204.74L128.773 201.52C127.843 196.48 126.963 191.75 126.043 186.82V186.85ZM201.283 197.77L180.183 200.77C181.123 205.84 182.033 210.77 182.933 215.6C186.713 215.07 190.203 214.67 193.653 214.07C197.103 213.47 200.593 213.32 203.973 212.27C204.085 211.126 204.085 209.974 203.973 208.83C203.163 205.16 202.163 201.53 201.283 197.74V197.77ZM179.023 193.85C186.163 192.72 192.943 191.99 199.873 190.76C199.073 185.94 197.763 181.57 196.783 176.96C189.783 178.17 183.013 178.69 176.283 180.02C177.303 184.72 177.793 189.29 179.023 193.82V193.85ZM208.283 196.85C208.883 199.44 209.453 201.79 209.963 204.15C210.473 206.51 210.963 208.87 211.493 211.46L227.643 209.02L224.383 194.52L208.283 196.85ZM219.683 173.85L203.483 176.13C204.643 180.74 205.763 185.13 206.923 189.76C212.253 189.22 217.353 188.4 222.793 187.56L219.683 173.85ZM8.32302 229.94L24.323 237.94C24.013 234.21 23.323 231.09 22.783 227.94C22.243 224.79 21.733 221.55 21.223 218.35C20.713 215.15 20.2231 212.07 19.6131 208.42L8.32302 229.94ZM170.033 184.82L167.033 186.82C168.743 195.82 170.433 204.72 172.133 213.64L175.383 213.49C173.543 203.81 171.803 194.39 170.033 184.82ZM101.523 225.22C100.523 219.78 99.7231 214.83 98.8131 209.88C97.9031 204.93 96.973 200.18 95.993 195.02L93.523 198.72C95.143 207.06 96.7431 215.37 98.3331 223.6L101.523 225.22Z" fill="#3558A2"/>
<path d="M117.502 172.681C117.502 174.611 116.862 175.561 115.302 176.141C114.657 176.372 113.953 176.38 113.302 176.165C112.652 175.949 112.092 175.522 111.713 174.951C111.107 174.167 110.65 173.279 110.362 172.331C109.762 170.331 109.363 168.331 108.843 166.331C108.403 164.671 107.972 163.011 107.422 161.401C106.692 159.261 107.052 157.401 108.422 156.531C110.022 155.611 112.012 156.131 113.322 158.081C114.119 159.284 114.716 160.608 115.093 162.001C115.953 165.121 116.622 168.301 117.352 171.461C117.432 171.863 117.483 172.271 117.502 172.681V172.681Z" fill="#3558A2"/>
<path d="M61.333 177.48C61.333 178.38 61.413 179.29 61.333 180.18C61.333 180.976 61.0169 181.739 60.4542 182.301C59.8916 182.864 59.1287 183.18 58.333 183.18C57.5623 183.267 56.7852 183.082 56.1367 182.657C55.4883 182.231 55.0093 181.592 54.783 180.85C54.5073 180.082 54.3521 179.275 54.323 178.46C54.323 174.98 53.243 171.73 52.443 168.46C52.2711 167.95 52.1374 167.429 52.043 166.9C51.9294 166.091 52.0928 165.267 52.5067 164.562C52.9207 163.858 53.5609 163.314 54.323 163.02C55.1957 162.738 56.1442 162.812 56.9625 163.226C57.7808 163.64 58.4027 164.36 58.693 165.23C59.4811 167.527 60.1487 169.863 60.693 172.23C61.093 173.97 61.2329 175.78 61.4829 177.55L61.333 177.48Z" fill="#3558A2"/>
<path d="M139.162 167.16C139.162 168.1 139.162 168.46 139.162 168.82C139.166 169.685 138.833 170.518 138.234 171.143C137.635 171.768 136.817 172.136 135.952 172.17C135.088 172.258 134.222 172.013 133.531 171.486C132.84 170.958 132.375 170.187 132.232 169.33C131.742 166.5 131.402 163.65 131.022 160.8C130.987 160.441 130.987 160.079 131.022 159.72C131.033 158.946 131.305 158.2 131.796 157.602C132.287 157.004 132.966 156.591 133.722 156.43C134.487 156.311 135.269 156.45 135.946 156.825C136.623 157.2 137.157 157.789 137.462 158.5C137.834 159.511 138.105 160.556 138.272 161.62C138.632 163.65 138.942 165.69 139.162 167.16Z" fill="#3558A2"/>
<path d="M228.073 145.48C224.758 145.463 221.479 144.793 218.423 143.508C215.367 142.223 212.595 140.348 210.264 137.991C207.933 135.634 206.089 132.841 204.838 129.771C203.587 126.701 202.953 123.415 202.973 120.1C202.973 106.91 212.813 95.37 227.273 95.46C230.596 95.43 233.891 96.0666 236.963 97.3322C240.035 98.5978 242.822 100.467 245.16 102.828C247.497 105.19 249.337 107.996 250.571 111.081C251.805 114.167 252.407 117.468 252.343 120.79C252.353 135.87 240.683 145.48 228.073 145.48ZM228.623 131.26H230.623C233.363 131.19 235.393 129.74 237.153 127.81C237.548 127.363 237.801 126.809 237.879 126.217C237.958 125.626 237.858 125.024 237.593 124.49C237.4 123.862 236.996 123.32 236.45 122.955C235.903 122.591 235.247 122.427 234.593 122.49C233.702 122.535 232.828 122.756 232.023 123.14C228.833 124.85 226.663 124.62 223.923 122.14C223.259 121.53 222.554 120.965 221.813 120.45C219.883 119.14 216.813 120.85 216.973 123.22C216.981 124.494 217.474 125.717 218.353 126.64C221.243 129.48 224.433 131.59 228.623 131.26ZM221.773 118.26C222.201 118.334 222.64 118.317 223.061 118.209C223.482 118.1 223.875 117.904 224.214 117.633C224.553 117.362 224.831 117.022 225.029 116.635C225.227 116.248 225.341 115.824 225.363 115.39C225.457 114.94 225.451 114.475 225.345 114.028C225.239 113.581 225.035 113.163 224.748 112.804C224.462 112.444 224.099 112.153 223.687 111.95C223.275 111.747 222.822 111.638 222.363 111.63C221.501 111.595 220.657 111.883 219.997 112.438C219.336 112.993 218.907 113.775 218.793 114.63C218.712 115.504 218.98 116.375 219.538 117.053C220.096 117.731 220.899 118.161 221.773 118.25V118.26ZM234.313 119.03C235.228 118.991 236.093 118.6 236.727 117.939C237.361 117.277 237.714 116.396 237.713 115.48C237.595 114.676 237.221 113.932 236.646 113.357C236.071 112.782 235.327 112.408 234.523 112.29C233.606 112.304 232.729 112.666 232.07 113.303C231.411 113.94 231.019 114.804 230.973 115.72C231.008 116.591 231.373 117.416 231.993 118.028C232.612 118.641 233.442 118.995 234.313 119.02V119.03Z" fill="white"/>
<path d="M31.6542 238.06C30.7842 232.81 29.9442 227.78 29.0742 222.58L55.5743 219C56.4343 224.08 57.2442 228.94 58.1142 234.09L31.6542 238.06Z" fill="white"/>
<path d="M92.0138 229.089L65.1338 233.089C64.0338 228.239 63.7438 223.209 62.4238 218.089C71.4238 216.789 80.2338 215.489 89.3138 214.379C90.2138 219.369 91.4038 224.049 92.0138 229.089Z" fill="white"/>
<path d="M28.0624 215.68C26.9224 210.86 26.3824 206.04 25.4824 201.04C29.7624 199.92 34.1824 199.73 38.4824 198.98C42.7824 198.23 47.2324 197.81 51.7524 197.23C52.8724 199.44 52.8224 201.92 53.2924 204.23C53.7624 206.54 54.0324 209.03 54.4324 211.69C53.5523 211.966 52.6575 212.193 51.7524 212.37C45.4124 213.29 39.0791 214.187 32.7524 215.06C31.3324 215.3 29.9024 215.48 28.0624 215.68Z" fill="white"/>
<path d="M87.9937 207.329L61.5837 210.969C60.7137 205.969 59.8837 201.209 59.0137 196.199L85.0837 192.539C86.0737 197.569 87.0137 202.329 87.9937 207.329Z" fill="white"/>
<path d="M133.043 185.869L158.943 182.279C159.943 187.279 160.793 192.019 161.753 197.049L135.753 200.569C134.723 195.559 133.823 190.839 133.043 185.869Z" fill="white"/>
<path d="M137.312 207.481L163.052 204.051L165.742 218.221L139.953 222.001C139.204 219.67 138.727 217.261 138.532 214.821C138.222 212.481 137.773 210.211 137.312 207.481Z" fill="white"/>
<path d="M130.312 208.48C131.142 213.64 131.902 218.32 132.672 223.12L109.022 226.64C108.112 221.64 107.232 216.78 106.312 211.64L130.312 208.48Z" fill="white"/>
<path d="M126.044 186.82C126.964 191.75 127.844 196.5 128.774 201.49L105.044 204.71C104.174 199.88 103.324 195.2 102.434 190.28C110.334 188.86 118.094 188.04 126.044 186.82Z" fill="white"/>
<path d="M201.282 197.74C202.202 201.53 203.142 205.16 203.942 208.82C204.054 209.964 204.054 211.116 203.942 212.26C200.562 213.31 197.042 213.46 193.622 214.06C190.202 214.66 186.682 215.06 182.902 215.59C182.002 210.72 181.092 205.83 180.152 200.76L201.282 197.74Z" fill="white"/>
<path d="M179.023 193.82C177.793 189.29 177.303 184.72 176.283 179.99C183.013 178.66 189.813 178.14 196.783 176.93C197.783 181.54 199.073 185.93 199.873 190.73C192.943 191.96 186.163 192.69 179.023 193.82Z" fill="white"/>
<path d="M208.283 196.779L224.383 194.449L227.643 208.949L211.493 211.389C210.953 208.799 210.493 206.439 209.963 204.079C209.433 201.719 208.883 199.369 208.283 196.779Z" fill="white"/>
<path d="M219.682 173.801L222.792 187.511C217.352 188.351 212.252 189.171 206.922 189.711C205.762 185.111 204.642 180.711 203.482 176.081L219.682 173.801Z" fill="white"/>
<path d="M8.32422 229.94L19.5842 208.48C20.1742 212.13 20.6843 215.27 21.1943 218.41C21.7043 221.55 22.1943 224.81 22.7543 228C23.3143 231.19 23.9843 234.27 24.2943 238L8.32422 229.94Z" fill="#979FBB"/>
<path d="M170.032 184.82C171.802 194.39 173.543 203.82 175.333 213.46L172.083 213.61C170.383 204.69 168.692 195.81 166.982 186.79L170.032 184.82Z" fill="#979FBB"/>
<path d="M101.523 225.22L98.3335 223.6C96.7435 215.37 95.1434 207.06 93.5234 198.72L95.9934 195.02C96.9934 200.18 97.9235 205.02 98.8135 209.88C99.7035 214.74 100.563 219.78 101.523 225.22Z" fill="#979FBB"/>
<path d="M228.624 131.259C224.434 131.589 221.244 129.479 218.364 126.699C217.485 125.776 216.991 124.553 216.984 123.279C216.784 120.909 219.894 119.199 221.824 120.509C222.565 121.024 223.269 121.588 223.934 122.199C226.674 124.669 228.844 124.899 232.034 123.199C232.839 122.815 233.713 122.594 234.604 122.549C235.258 122.485 235.914 122.649 236.46 123.014C237.007 123.378 237.411 123.921 237.604 124.549C237.869 125.083 237.969 125.684 237.89 126.276C237.812 126.867 237.559 127.422 237.164 127.869C235.404 129.799 233.374 131.249 230.634 131.319L228.624 131.259Z" fill="#3558A2"/>
<path d="M221.774 118.249C220.912 118.153 220.121 117.724 219.57 117.053C219.019 116.383 218.751 115.524 218.824 114.659C218.938 113.804 219.368 113.022 220.028 112.467C220.688 111.912 221.532 111.624 222.394 111.659C222.854 111.667 223.306 111.776 223.718 111.979C224.131 112.182 224.493 112.473 224.78 112.833C225.066 113.192 225.27 113.61 225.376 114.057C225.482 114.504 225.489 114.969 225.394 115.419C225.368 115.852 225.249 116.275 225.047 116.66C224.845 117.044 224.563 117.381 224.221 117.648C223.879 117.916 223.484 118.108 223.062 118.211C222.64 118.315 222.201 118.328 221.774 118.249V118.249Z" fill="#3558A2"/>
<path d="M234.313 119.019C233.44 118.995 232.609 118.639 231.989 118.024C231.369 117.409 231.005 116.582 230.973 115.709C231.018 114.794 231.41 113.93 232.07 113.293C232.729 112.656 233.606 112.293 234.523 112.279C235.327 112.397 236.071 112.772 236.646 113.346C237.22 113.921 237.594 114.665 237.713 115.469C237.713 116.385 237.36 117.266 236.726 117.928C236.093 118.59 235.228 118.981 234.313 119.019Z" fill="#3558A2"/>
</g>
<defs>
<clipPath id="clip0_1_8683">
<rect width="300" height="300" fill="white"/>
</clipPath>
</defs>
</svg>
