<svg width="300" height="300" viewBox="0 0 300 300" fill="none" xmlns="http://www.w3.org/2000/svg">
<path d="M107.544 181.464C101.974 179.974 96.474 179.054 91.004 177.864C90.1809 179.646 89.6572 181.552 89.454 183.504C88.134 190.254 86.874 197.024 85.454 203.754C85.134 205.294 84.824 206.984 82.854 207.584C80.884 208.184 79.104 207.374 78.674 205.374C78.4736 204.384 78.4736 203.364 78.674 202.374C80.174 194.644 81.7339 186.924 83.2639 179.194C83.4139 178.414 83.4239 177.594 83.5239 176.574C79.8039 175.164 75.934 174.784 72.174 173.954C68.414 173.124 64.764 172.374 61.084 171.594C59.834 173.104 59.844 174.814 59.484 176.354C57.944 182.964 56.4839 189.604 55.0339 196.234C54.8722 197.034 54.638 197.817 54.334 198.574C54.0611 199.302 53.547 199.915 52.8773 200.31C52.2077 200.704 51.423 200.858 50.6539 200.744C49.8868 200.591 49.1993 200.17 48.7139 199.556C48.2285 198.942 47.9769 198.176 48.004 197.394C47.9808 196.581 48.058 195.769 48.234 194.974C49.994 186.974 51.594 178.834 53.624 170.854C55.124 164.964 55.624 158.854 57.294 153.054C59.164 146.484 61.674 140.144 66.604 135.154C70.694 130.994 75.604 129.154 81.444 130.494C83.3938 130.89 85.3201 131.395 87.214 132.004C91.974 133.694 94.614 137.314 95.984 142.004C97.354 146.694 97.094 151.694 96.234 156.544C95.494 160.734 94.624 164.904 93.834 169.084C93.7544 169.802 93.7177 170.523 93.724 171.244C95.584 171.674 97.404 172.134 99.234 172.504C103.314 173.334 107.414 174.094 111.494 174.914C114.674 175.564 115.674 177.124 114.934 180.444C113.844 185.444 112.654 190.324 111.554 195.274C110.644 199.334 109.834 203.424 108.924 207.484C108.722 208.457 108.386 209.396 107.924 210.274C107.613 210.894 107.098 211.386 106.466 211.669C105.833 211.952 105.122 212.006 104.454 211.824C103.771 211.723 103.147 211.383 102.691 210.865C102.235 210.347 101.978 209.684 101.964 208.994C101.891 207.99 101.961 206.979 102.174 205.994C103.594 199.444 105.084 192.914 106.534 186.374C106.884 184.884 107.174 183.294 107.544 181.464ZM86.454 169.864C86.739 169.129 86.9826 168.377 87.184 167.614C88.104 162.824 89.184 158.054 89.844 153.224C90.3409 150.266 90.2252 147.237 89.504 144.324C88.654 141.114 86.874 138.794 83.504 138.014C82.624 137.814 81.764 137.524 80.884 137.334C77.134 136.554 73.814 137.274 71.334 140.334C69.9796 142.019 68.756 143.804 67.674 145.674C64.514 151.184 63.344 157.314 62.314 163.484C62.3055 163.953 62.3594 164.42 62.474 164.874L86.454 169.864Z" fill="#3558A2"/>
<path d="M161.983 175.024C156.075 175.143 150.186 174.309 144.543 172.554C130.543 168.344 119.153 160.674 112.073 147.554C109.419 142.767 108.041 137.378 108.073 131.904C108.076 127.261 109.114 122.676 111.11 118.483C113.106 114.29 116.011 110.595 119.613 107.664C127.253 101.144 136.193 97.7942 146.103 96.7842C161.222 95.078 176.424 99.1896 188.623 108.284C195.016 112.837 200.06 119.032 203.223 126.214C206.326 132.954 206.939 140.575 204.953 147.724C202.903 154.944 198.46 161.252 192.353 165.614C184.423 171.614 175.353 174.314 165.513 174.904C164.883 174.904 164.253 175.034 163.613 175.064C162.973 175.094 162.523 175.024 161.983 175.024Z" fill="white"/>
<path d="M227.134 186.852L198.734 198.462C194.844 191.152 191.394 183.892 187.734 176.732C190.884 174.732 193.914 172.802 196.974 170.892C197.372 170.675 197.8 170.52 198.244 170.432C202.244 169.362 206.304 168.332 210.314 167.222C210.912 167.004 211.566 166.999 212.167 167.207C212.767 167.414 213.279 167.822 213.614 168.362C217.804 173.942 222.044 179.482 226.244 185.052C226.58 185.632 226.878 186.233 227.134 186.852V186.852Z" fill="#979FBB"/>
<path d="M234.325 184.173C232.215 181.393 230.145 178.673 228.065 175.953C224.995 171.953 221.925 167.883 218.805 163.883C218.449 163.539 218.203 163.097 218.098 162.613C217.993 162.129 218.034 161.624 218.215 161.163C220.215 156.043 221.895 150.743 224.775 146.003C225.604 144.603 226.702 143.379 228.005 142.403C229.427 141.247 231.169 140.552 232.998 140.413C234.826 140.273 236.653 140.696 238.235 141.623C241.805 143.543 244.235 146.293 244.605 150.473C244.631 151.017 244.567 151.561 244.415 152.083C243.505 155.763 242.665 159.473 241.625 163.083C239.945 168.913 238.145 174.703 236.345 180.483C235.995 181.763 235.855 183.243 234.325 184.173Z" fill="white"/>
<path d="M205.754 115.974C204.564 114.524 203.754 113.524 202.894 112.484C199.463 108.267 195.473 104.54 191.034 101.404C189.574 100.334 189.484 100.274 190.194 98.5438C191.014 96.3502 192.018 94.2295 193.194 92.2038C195.984 87.7438 203.954 87.1038 207.524 91.9438C208.676 93.5842 209.298 95.5389 209.304 97.5438C209.357 99.5269 209.21 101.51 208.864 103.464C208.394 106.314 207.724 109.134 207.064 111.954C206.794 113.144 206.324 114.244 205.754 115.974Z" fill="white"/>
<path d="M145.815 89.6733C136.915 90.8332 128.525 93.1632 120.605 98.1832C120.504 97.383 120.504 96.5734 120.605 95.7732C121.605 92.7733 122.475 89.7733 123.675 86.7733C125.27 82.9793 128.172 79.8822 131.855 78.0434C135.465 76.1234 140.985 76.7334 143.855 79.2834C145.195 80.6128 146.101 82.3182 146.451 84.1735C146.801 86.0289 146.579 87.9467 145.815 89.6733Z" fill="white"/>
<path d="M86.4539 169.863L62.4539 164.863C62.3392 164.409 62.2854 163.942 62.2938 163.473C63.2938 157.303 64.4938 151.173 67.6538 145.663C68.7359 143.792 69.9595 142.007 71.3138 140.323C73.7938 137.233 77.1139 136.513 80.8639 137.323C81.7439 137.513 82.6039 137.803 83.4839 138.003C86.8839 138.783 88.6639 141.103 89.4839 144.313C90.2051 147.225 90.3208 150.254 89.8239 153.213C89.1139 158.043 88.0838 162.813 87.1638 167.603C86.9694 168.369 86.7324 169.124 86.4539 169.863V169.863Z" fill="white"/>
<path d="M162.038 196.705C162.77 191.755 154.085 186.37 142.639 184.678C131.193 182.986 121.321 185.627 120.589 190.577C119.857 195.526 128.542 200.911 139.988 202.603C151.434 204.295 161.306 201.655 162.038 196.705Z" fill="#979FBB"/>
<path d="M129.673 174.012C121.404 169.598 114.269 163.331 108.823 155.703C108.486 156.348 108.195 157.016 107.953 157.703C107.373 159.882 106.863 162.092 106.323 164.282C106.162 165.086 105.938 165.875 105.653 166.642C105.327 167.348 104.785 167.931 104.105 168.307C103.425 168.683 102.643 168.832 101.873 168.732C101.108 168.589 100.42 168.177 99.9336 167.569C99.4473 166.962 99.1951 166.2 99.2228 165.422C99.2246 164.518 99.3422 163.617 99.5727 162.742C100.833 157.742 102.193 152.742 103.393 147.742C103.611 146.692 103.553 145.603 103.223 144.583C101.948 140.795 101.25 136.837 101.153 132.842C100.973 127.198 102.103 121.588 104.453 116.453C105.949 113.142 107.908 110.061 110.273 107.303C110.743 106.771 111.085 106.138 111.273 105.453C111.703 103.703 111.873 101.882 112.363 100.162C113.793 95.1625 114.793 90.1625 116.803 85.3225C119.353 79.2125 123.383 74.4125 129.383 71.6025C136.603 68.2225 148.193 69.8725 152.243 79.6025C153.022 81.6405 153.396 83.8112 153.343 85.9925C153.343 86.9925 153.343 87.9925 153.343 89.1525C154.221 89.4148 155.121 89.5956 156.033 89.6925C161.753 89.8611 167.417 90.8719 172.843 92.6925C175.593 93.5725 178.253 94.7725 180.953 95.8125C181.693 96.0925 182.443 96.3225 183.233 96.5925C184.233 94.4125 185.133 92.4325 186.093 90.5025C190.093 82.3125 199.763 80.1525 206.563 82.8625C208.687 83.6793 210.59 84.9835 212.119 86.6699C213.647 88.3564 214.758 90.3782 215.363 92.5725C217.043 97.9125 216.363 103.163 215.033 108.393C213.703 113.623 212.343 118.743 210.903 123.883C210.55 124.999 210.575 126.201 210.973 127.302C212.301 131.074 212.977 135.044 212.973 139.042C213.062 145.883 211.292 152.619 207.853 158.532C207.583 159.002 207.293 159.462 207.033 159.942C206.972 160.107 206.931 160.278 206.913 160.452C210.113 160.872 211.133 160.162 212.243 157.453C214.193 152.673 216.173 147.892 218.423 143.252C220.673 138.612 224.703 135.612 229.683 134.042C233.683 132.772 237.393 133.732 241.023 135.362C243.923 136.704 246.451 138.737 248.383 141.282C251.513 145.282 251.863 149.872 251.063 154.722C250.133 160.302 248.063 165.552 246.493 170.932C245.053 175.792 243.493 180.622 241.983 185.462C241.844 186.173 241.573 186.852 241.183 187.462C239.023 190.072 238.953 193.342 238.323 196.402C237.203 201.902 236.323 207.402 235.263 212.962C234.673 216.172 234.083 219.382 233.473 222.582C233.35 223.293 233.138 223.985 232.843 224.642C232.535 225.305 232.018 225.848 231.371 226.188C230.724 226.528 229.983 226.645 229.263 226.522C228.533 226.408 227.872 226.028 227.405 225.456C226.939 224.884 226.699 224.16 226.733 223.422C226.903 220.987 227.213 218.563 227.663 216.162C228.943 209.032 230.303 201.912 231.663 194.792C231.72 194.074 231.72 193.351 231.663 192.632C228.663 193.812 226.003 194.862 223.343 195.942C216.543 198.712 209.763 201.562 202.933 204.252C202.204 204.479 201.551 204.897 201.04 205.464C200.53 206.031 200.182 206.725 200.033 207.472C198.663 213.192 197.183 218.892 195.753 224.602C195.553 225.392 195.393 226.202 195.123 226.962C194.896 227.758 194.384 228.442 193.685 228.885C192.986 229.327 192.149 229.497 191.333 229.362C189.583 229.112 188.593 227.882 188.633 225.872C188.67 225.152 188.788 224.437 188.983 223.742C190.423 217.742 191.863 211.742 193.353 205.742C193.677 204.699 193.588 203.571 193.103 202.592C190.343 197.172 187.593 191.749 184.853 186.322C184.783 186.182 184.613 186.092 184.273 185.792C183.973 186.612 183.633 187.312 183.433 188.062C181.913 193.652 180.433 199.262 178.903 204.852C178.67 205.816 178.303 206.741 177.813 207.602C177.442 208.237 176.863 208.725 176.175 208.984C175.487 209.243 174.73 209.256 174.033 209.022C173.326 208.813 172.717 208.361 172.311 207.747C171.905 207.132 171.728 206.394 171.813 205.662C172.189 203.434 172.687 201.227 173.303 199.052C174.923 192.922 176.593 186.812 178.303 180.362C177.585 180.277 176.86 180.277 176.143 180.362C169.683 181.882 163.021 182.351 156.413 181.752C150.889 181.365 145.441 180.245 140.213 178.422C139.113 178.032 137.993 177.712 136.743 177.322C135.453 179.502 135.013 181.822 134.313 184.032C131.553 192.772 129.603 201.712 127.603 210.642C127.401 211.611 127.064 212.547 126.603 213.422C126.283 214.031 125.763 214.511 125.132 214.782C124.5 215.053 123.794 215.099 123.133 214.912C122.409 214.784 121.753 214.405 121.28 213.842C120.806 213.279 120.545 212.568 120.543 211.832C120.531 211.197 120.595 210.563 120.733 209.942C122.848 199.55 125.518 189.279 128.733 179.172C129.193 177.802 129.493 176.372 129.843 174.972C129.829 174.646 129.772 174.323 129.673 174.012ZM161.983 175.012C162.523 175.012 163.053 175.012 163.583 175.012C164.113 175.012 164.853 174.892 165.483 174.852C175.303 174.262 184.393 171.532 192.323 165.562C198.43 161.201 202.873 154.892 204.923 147.672C206.909 140.524 206.296 132.902 203.193 126.162C200.03 118.98 194.985 112.785 188.593 108.232C176.394 99.138 161.192 95.0264 146.073 96.7325C136.163 97.7325 127.223 101.093 119.583 107.613C115.981 110.543 113.076 114.239 111.08 118.432C109.084 122.624 108.046 127.209 108.043 131.852C108.011 137.326 109.389 142.715 112.043 147.502C119.123 160.662 130.533 168.332 144.513 172.502C150.162 174.278 156.062 175.128 161.983 175.022V175.012ZM227.133 186.842C226.87 186.223 226.566 185.622 226.223 185.042C222.023 179.472 217.783 173.932 213.593 168.352C213.254 167.824 212.746 167.427 212.152 167.226C211.558 167.024 210.913 167.03 210.323 167.242C206.323 168.352 202.323 169.382 198.253 170.452C197.809 170.541 197.38 170.696 196.983 170.912C193.923 172.822 190.893 174.762 187.743 176.752C191.423 183.912 194.873 191.172 198.743 198.482L227.133 186.842ZM234.363 184.162C235.853 183.162 235.993 181.752 236.363 180.512C238.163 174.732 239.963 168.942 241.643 163.112C242.643 159.462 243.523 155.752 244.433 152.112C244.585 151.59 244.649 151.046 244.623 150.502C244.223 146.322 241.823 143.572 238.253 141.652C236.671 140.725 234.844 140.303 233.016 140.442C231.188 140.581 229.445 141.276 228.023 142.432C226.72 143.408 225.622 144.632 224.793 146.032C221.913 150.772 220.273 156.032 218.233 161.192C218.052 161.654 218.011 162.158 218.116 162.642C218.221 163.126 218.467 163.568 218.823 163.912C221.943 167.912 225.013 171.912 228.083 175.982C230.183 178.672 232.253 181.392 234.323 184.172L234.363 184.162ZM205.753 115.962C206.313 114.272 206.753 113.132 207.073 111.962C207.733 109.142 208.403 106.322 208.873 103.472C209.219 101.519 209.366 99.5356 209.313 97.5525C209.307 95.5476 208.685 93.5929 207.533 91.9525C203.963 87.1125 195.993 87.7525 193.203 92.2125C192.027 94.2382 191.024 96.359 190.203 98.5525C189.493 100.283 189.583 100.342 191.043 101.412C195.482 104.548 199.473 108.276 202.903 112.493C203.713 113.523 204.563 114.522 205.753 115.972V115.962ZM145.813 89.6625C146.563 87.9371 146.774 86.0249 146.417 84.1776C146.06 82.3302 145.152 80.6342 143.813 79.3125C140.993 76.7625 135.473 76.1525 131.813 78.0725C128.13 79.9114 125.228 83.0084 123.633 86.8025C122.433 89.7225 121.523 92.7525 120.563 95.8025C120.462 96.6027 120.462 97.4123 120.563 98.2125C128.523 93.1625 136.913 90.8325 145.813 89.6725V89.6625Z" fill="#3558A2"/>
</svg>
