<svg width="300" height="300" viewBox="0 0 300 300" fill="none" xmlns="http://www.w3.org/2000/svg">
<path d="M164.636 168.703C160.276 175.263 155.946 181.853 151.556 188.393C149.136 192.013 146.776 195.693 144.076 199.093C142.263 201.11 140.283 202.97 138.156 204.653C137.727 204.989 137.234 205.234 136.706 205.373C133.047 206.494 129.172 206.721 125.406 206.033C122.506 205.443 121.196 203.843 121.016 200.953C120.796 197.503 120.636 194.063 120.576 190.613C120.528 189.343 120.753 188.077 121.238 186.901C121.723 185.726 122.456 184.669 123.386 183.803C128.316 178.983 133.186 174.093 137.886 169.043C140.262 166.421 142.444 163.631 144.416 160.693C152.08 149.765 158.772 138.188 164.416 126.093C165.816 123.013 165.116 120.023 164.886 117.023C164.806 116.023 163.316 115.163 162.386 114.123C161.666 114.463 161.026 114.733 160.386 115.063C151.496 119.773 142.596 124.513 132.986 127.613C128.446 129.083 123.766 130.613 119.056 131.013C106.786 132.013 96.4564 125.233 93.2564 112.373C91.6668 106.655 91.5842 100.623 93.0164 94.8631C93.9181 91.4367 95.5753 88.2556 97.8664 85.5531C102.373 80.3277 107.847 76.0221 113.986 72.8731C123.056 68.1131 132.786 65.3031 142.736 63.1931C150.188 61.556 157.81 60.8307 165.436 61.0332C170.344 61.0849 175.205 61.9988 179.796 63.7332C181.986 64.5968 184.067 65.7144 185.996 67.0631C191.906 71.2831 193.706 77.9731 190.796 84.6631C190.196 86.0676 189.909 87.5863 189.956 89.1131C189.856 95.6466 188.915 102.14 187.156 108.433C187.084 108.883 186.909 109.311 186.646 109.683C184.706 111.793 185.646 113.863 186.386 116.163C189.386 125.963 192.306 135.783 194.986 145.663C198.786 159.663 202.296 173.753 206.046 187.773C207.534 192.95 207.32 198.467 205.436 203.513C202.356 211.833 199.306 220.166 196.286 228.513C195.556 230.513 195.086 232.693 194.386 234.743C193.056 238.613 189.906 239.433 187.116 236.413C183.846 232.893 180.846 229.123 177.816 225.413C175.066 222.033 172.456 218.543 169.756 215.133C167.009 211.698 165.548 207.411 165.626 203.013C165.626 196.383 165.626 189.753 165.506 183.123C165.436 178.333 165.196 173.543 165.036 168.743L164.636 168.703ZM184.546 134.503C182.176 134.503 180.046 134.283 179.366 131.773C178.736 129.433 180.276 128.083 182.286 126.773L178.676 116.143L172.746 117.843C172.67 118.173 172.613 118.507 172.576 118.843C172.576 125.103 172.766 131.373 172.576 137.633C172.386 143.893 173.236 150.103 172.286 156.323C172.276 156.413 172.276 156.503 172.286 156.593C172.556 172.203 172.906 187.813 173.056 203.433C173.087 206.322 174.226 209.089 176.236 211.163C178.996 209.893 180.536 209.953 181.746 211.473C182.237 212.024 182.508 212.736 182.506 213.473C182.173 214.947 181.742 216.396 181.216 217.813L188.926 227.383C190.146 223.713 191.216 220.483 192.266 217.293C189.446 215.883 188.456 214.423 189.076 212.433C189.282 211.556 189.81 210.788 190.556 210.283C192.153 209.79 193.789 209.435 195.446 209.223C196.346 206.873 197.336 204.153 198.446 201.473C200.102 197.696 200.28 193.435 198.946 189.533C198.506 188.253 198.306 186.893 197.946 185.533L188.126 148.173C186.916 143.703 185.746 139.163 184.546 134.533V134.503ZM107.646 106.703C107.687 106.451 107.687 106.195 107.646 105.943C105.646 99.6831 107.776 94.7731 112.526 90.6831C115.836 87.8431 119.796 86.2831 123.896 85.0531C130.652 82.9475 137.648 81.7109 144.716 81.3731C149.242 81.183 153.775 81.2933 158.286 81.7031C160.517 81.9385 162.769 81.8881 164.986 81.5531C171.466 80.5531 177.816 78.4931 184.526 79.2631C184.844 78.3441 184.855 77.3471 184.56 76.4208C184.264 75.4946 183.677 74.6886 182.886 74.1231C180.893 72.583 178.713 71.3027 176.396 70.3131C171.676 68.4931 166.666 68.3131 161.646 68.4031C150.576 68.5431 139.906 70.9131 129.446 74.3431C122.666 76.4106 116.279 79.5942 110.546 83.7631C106.892 86.3251 103.788 89.5926 101.416 93.3731C98.1365 98.9931 101.046 105.193 107.646 106.703ZM165.166 141.703C164.864 141.992 164.583 142.303 164.326 142.633C160.076 149.483 155.936 156.393 151.576 163.163C146.705 170.708 140.97 177.658 134.486 183.873C132.596 185.693 130.766 187.583 128.956 189.483C128.485 189.885 128.164 190.435 128.046 191.043C128.046 193.623 128.276 196.213 128.416 198.733C132.796 199.113 133.856 198.993 135.316 197.263C138.316 193.683 141.316 190.013 144.176 186.263C145.276 184.833 145.966 183.103 147.036 181.653C152.386 174.228 157.32 166.513 161.816 158.543C163.996 154.733 165.566 150.993 165.186 146.543C165.056 145.103 165.166 143.613 165.166 141.703ZM100.776 112.183C102.966 117.813 106.456 121.533 111.986 123.133C115.986 124.293 119.986 123.863 123.986 122.793C135.726 119.693 146.426 114.213 156.986 108.493C157.434 108.196 157.855 107.861 158.246 107.493L155.036 98.7431C153.496 100.053 152.196 101.153 150.906 102.263C146.886 105.806 142.285 108.631 137.306 110.613C131.245 113.015 124.87 114.533 118.376 115.123C112.666 115.603 107.166 115.193 101.966 112.583C101.776 112.473 101.446 112.403 100.776 112.173V112.183ZM114.256 101.783C114.106 103.593 115.496 104.973 116.516 106.573C116.813 107.078 117.268 107.47 117.81 107.689C118.353 107.908 118.953 107.941 119.516 107.783C125.455 107.051 131.25 105.43 136.706 102.973C142.706 100.183 147.586 95.8331 152.126 91.1031C152.362 90.8556 152.538 90.5577 152.642 90.232C152.746 89.9064 152.775 89.5615 152.726 89.2231C152.546 88.7831 151.566 88.4431 150.946 88.4431C149.136 88.4431 147.326 88.6631 145.516 88.7031C138.274 88.9793 131.109 90.3031 124.246 92.6331C121.425 93.3785 118.83 94.8033 116.686 96.7831C115.963 97.4053 115.374 98.1688 114.956 99.027C114.538 99.8851 114.3 100.82 114.256 101.773V101.783ZM162.896 97.9931C164.786 97.9931 166.686 97.9931 167.536 100.093C168.446 102.333 167.246 103.923 165.736 105.383C166.006 105.923 166.226 106.383 166.486 106.883C166.896 107.593 167.296 108.303 167.756 108.973C168.996 110.803 169.476 111.033 171.626 110.493C173.386 110.043 175.086 109.403 176.836 108.913C177.857 108.665 178.776 108.107 179.467 107.315C180.159 106.524 180.588 105.538 180.696 104.493C181.036 102.623 181.546 100.773 181.766 98.8931C182.126 95.8331 182.446 92.7631 182.526 89.6831C182.606 86.6031 181.966 86.2031 178.936 86.6131C176.696 86.9131 174.456 87.3131 172.236 87.7131C168.416 88.4131 164.616 89.1531 160.766 89.8831C160.446 93.0431 162.096 95.3331 162.896 97.9831V97.9931Z" fill="#3558A2"/>
<path d="M184.545 134.534C185.745 139.164 186.915 143.714 188.105 148.264L197.925 185.624C198.275 186.944 198.475 188.304 198.925 189.624C200.259 193.527 200.081 197.787 198.425 201.564C197.365 204.244 196.425 206.964 195.425 209.314C193.768 209.526 192.132 209.881 190.535 210.374C189.789 210.879 189.26 211.647 189.055 212.524C188.435 214.524 189.425 215.974 192.245 217.384C191.245 220.574 190.125 223.804 188.905 227.474L181.195 217.904C181.721 216.488 182.152 215.038 182.485 213.564C182.486 212.827 182.216 212.115 181.725 211.564C180.515 210.044 178.975 209.984 176.215 211.254C174.204 209.18 173.066 206.413 173.035 203.524C172.885 187.904 172.535 172.294 172.265 156.684C172.255 156.595 172.255 156.504 172.265 156.414C173.265 150.194 172.395 143.954 172.555 137.724C172.715 131.494 172.555 125.194 172.555 118.934C172.592 118.598 172.649 118.264 172.725 117.934L178.655 116.234L182.265 126.864C180.265 128.134 178.715 129.484 179.345 131.864C180.045 134.314 182.175 134.584 184.545 134.534ZM182.375 148.824C182.383 147.866 182.015 146.944 181.349 146.255C180.683 145.567 179.773 145.168 178.815 145.144C177.86 145.18 176.955 145.583 176.289 146.268C175.622 146.953 175.245 147.868 175.235 148.824C175.226 149.276 175.306 149.725 175.47 150.146C175.634 150.567 175.88 150.952 176.193 151.278C176.506 151.603 176.88 151.865 177.294 152.046C177.708 152.227 178.153 152.325 178.605 152.334C179.561 152.334 180.481 151.972 181.181 151.321C181.88 150.67 182.307 149.778 182.375 148.824ZM181.875 201.194C182.325 201.205 182.773 201.125 183.19 200.957C183.608 200.789 183.987 200.538 184.304 200.219C184.622 199.9 184.87 199.519 185.036 199.101C185.201 198.682 185.279 198.234 185.265 197.784C185.299 197.314 185.238 196.841 185.086 196.395C184.934 195.948 184.693 195.537 184.379 195.186C184.064 194.834 183.683 194.549 183.256 194.348C182.829 194.147 182.367 194.033 181.895 194.014C181.424 194.014 180.957 194.107 180.521 194.288C180.086 194.468 179.69 194.732 179.357 195.066C179.023 195.399 178.759 195.795 178.579 196.23C178.398 196.666 178.305 197.133 178.305 197.604C178.305 198.076 178.398 198.543 178.579 198.978C178.759 199.414 179.023 199.809 179.357 200.143C179.69 200.476 180.086 200.741 180.521 200.921C180.957 201.101 181.424 201.194 181.895 201.194H181.875ZM191.485 195.284C191.962 195.297 192.437 195.212 192.88 195.035C193.323 194.857 193.725 194.592 194.062 194.254C194.399 193.916 194.664 193.513 194.84 193.07C195.015 192.626 195.099 192.151 195.085 191.674C195.089 191.219 195.003 190.768 194.832 190.346C194.662 189.924 194.409 189.54 194.09 189.215C193.77 188.891 193.39 188.633 192.97 188.456C192.551 188.279 192.101 188.187 191.645 188.184C190.682 188.195 189.762 188.583 189.083 189.266C188.404 189.949 188.02 190.871 188.015 191.834C188.023 192.75 188.392 193.626 189.042 194.272C189.691 194.918 190.569 195.282 191.485 195.284V195.284ZM182.205 173.974C183.07 173.977 183.902 173.644 184.525 173.045C185.148 172.446 185.514 171.628 185.545 170.764C185.514 169.901 185.161 169.081 184.556 168.465C183.951 167.849 183.138 167.481 182.275 167.434C181.408 167.439 180.577 167.785 179.962 168.397C179.346 169.008 178.996 169.837 178.985 170.704C178.979 171.131 179.057 171.555 179.216 171.952C179.375 172.348 179.611 172.709 179.911 173.014C180.21 173.318 180.567 173.56 180.961 173.725C181.355 173.889 181.778 173.974 182.205 173.974V173.974Z" fill="white"/>
<path d="M107.647 106.703C101.047 105.203 98.1365 99.0034 101.407 93.3734C103.778 89.5929 106.882 86.3254 110.537 83.7634C116.269 79.5946 122.657 76.4109 129.436 74.3435C139.896 70.9135 150.566 68.5435 161.636 68.4035C166.636 68.3335 171.636 68.4935 176.386 70.3135C178.703 71.303 180.884 72.5833 182.876 74.1234C183.667 74.6889 184.254 75.4949 184.55 76.4212C184.845 77.3474 184.834 78.3444 184.516 79.2634C177.806 78.4934 171.456 80.5734 164.976 81.5534C162.759 81.8884 160.507 81.9388 158.277 81.7034C153.765 81.2936 149.232 81.1833 144.706 81.3734C137.638 81.7112 130.642 82.9478 123.886 85.0534C119.786 86.2834 115.827 87.8434 112.517 90.6834C107.767 94.7734 105.597 99.6834 107.637 105.943C107.68 106.195 107.684 106.451 107.647 106.703V106.703Z" fill="#979FBB"/>
<path d="M165.165 141.703C165.165 143.623 165.055 145.113 165.165 146.593C165.545 151.033 163.975 154.773 161.795 158.593C157.305 166.563 152.377 174.278 147.035 181.703C145.965 183.153 145.275 184.883 144.175 186.313C141.305 190.023 138.345 193.693 135.315 197.313C133.855 199.043 132.795 199.163 128.415 198.783C128.275 196.263 128.085 193.673 128.045 191.093C128.162 190.485 128.483 189.935 128.955 189.533C130.765 187.633 132.595 185.743 134.485 183.923C140.968 177.708 146.703 170.758 151.575 163.213C155.935 156.443 160.075 149.533 164.325 142.683C164.58 142.336 164.861 142.008 165.165 141.703V141.703Z" fill="#EAECF1"/>
<path d="M100.775 112.173C101.445 112.403 101.775 112.473 102.055 112.613C107.255 115.223 112.755 115.613 118.465 115.153C124.959 114.564 131.334 113.045 137.395 110.643C142.374 108.661 146.975 105.837 150.995 102.293C152.285 101.183 153.585 100.083 155.125 98.7734L158.335 107.523C157.944 107.892 157.523 108.226 157.075 108.523C146.475 114.243 135.775 119.723 124.075 122.823C120.075 123.893 116.075 124.323 112.075 123.163C106.455 121.523 102.985 117.803 100.775 112.173Z" fill="white"/>
<path d="M162.895 97.9828C162.095 95.3328 160.445 93.0428 160.765 89.8728C164.615 89.1428 168.415 88.4028 172.235 87.7028C174.455 87.3028 176.695 86.9028 178.935 86.6028C181.935 86.1928 182.615 86.6728 182.525 89.6727C182.435 92.6727 182.125 95.8228 181.765 98.8828C181.545 100.763 181.035 102.613 180.695 104.483C180.587 105.528 180.157 106.514 179.466 107.305C178.775 108.096 177.856 108.654 176.835 108.903C175.085 109.393 173.385 110.033 171.625 110.483C169.475 111.023 168.995 110.793 167.755 108.963C167.295 108.293 166.895 107.583 166.485 106.873C166.225 106.403 166.005 105.873 165.735 105.373C167.245 103.913 168.445 102.373 167.535 100.083C166.685 98.0128 164.785 97.9928 162.895 97.9828ZM175.475 91.2728C174.52 91.3336 173.627 91.7684 172.99 92.483C172.353 93.1975 172.023 94.1343 172.071 95.0904C172.12 96.0465 172.543 96.945 173.25 97.5912C173.956 98.2374 174.889 98.5793 175.845 98.5428C176.754 98.4505 177.595 98.0218 178.204 97.3409C178.813 96.66 179.145 95.776 179.135 94.8627C179.134 94.3857 179.038 93.9138 178.853 93.4742C178.667 93.0346 178.397 92.6363 178.056 92.3023C177.716 91.9682 177.312 91.7052 176.869 91.5285C176.426 91.3517 175.952 91.2648 175.475 91.2728V91.2728Z" fill="white"/>
<path d="M182.375 148.825C182.307 149.778 181.88 150.67 181.181 151.321C180.481 151.972 179.561 152.334 178.605 152.335C178.153 152.325 177.708 152.227 177.294 152.046C176.88 151.865 176.506 151.604 176.193 151.278C175.88 150.952 175.634 150.567 175.47 150.146C175.306 149.726 175.226 149.276 175.235 148.825C175.245 147.869 175.622 146.953 176.288 146.268C176.955 145.583 177.86 145.18 178.815 145.145C179.773 145.168 180.683 145.567 181.349 146.256C182.015 146.944 182.383 147.867 182.375 148.825V148.825Z" fill="#3558A2"/>
<path d="M181.875 201.194C181.404 201.194 180.937 201.101 180.501 200.921C180.066 200.74 179.67 200.476 179.337 200.142C179.003 199.809 178.739 199.413 178.558 198.978C178.378 198.542 178.285 198.075 178.285 197.604C178.285 197.132 178.378 196.665 178.558 196.23C178.739 195.794 179.003 195.399 179.337 195.065C179.67 194.732 180.066 194.467 180.501 194.287C180.937 194.107 181.404 194.014 181.875 194.014C182.346 194.033 182.809 194.146 183.236 194.347C183.662 194.548 184.044 194.833 184.359 195.185C184.673 195.537 184.913 195.948 185.066 196.394C185.218 196.841 185.279 197.313 185.245 197.784C185.259 198.232 185.181 198.678 185.017 199.095C184.853 199.513 184.606 199.892 184.291 200.211C183.976 200.53 183.599 200.781 183.184 200.95C182.769 201.119 182.323 201.202 181.875 201.194V201.194Z" fill="#3558A2"/>
<path d="M191.486 195.283C190.57 195.281 189.691 194.917 189.042 194.271C188.392 193.625 188.024 192.749 188.016 191.834C188.021 190.871 188.404 189.948 189.083 189.265C189.762 188.583 190.683 188.194 191.646 188.184C192.101 188.186 192.551 188.279 192.97 188.456C193.39 188.632 193.77 188.89 194.09 189.215C194.409 189.539 194.662 189.923 194.833 190.345C195.004 190.767 195.09 191.218 195.086 191.673C195.099 192.15 195.016 192.625 194.84 193.069C194.664 193.512 194.399 193.915 194.062 194.253C193.726 194.591 193.323 194.857 192.88 195.034C192.437 195.211 191.963 195.296 191.486 195.283V195.283Z" fill="#3558A2"/>
<path d="M182.205 173.973C181.778 173.973 181.355 173.888 180.961 173.723C180.567 173.558 180.21 173.317 179.91 173.012C179.61 172.708 179.374 172.347 179.215 171.951C179.057 171.554 178.978 171.13 178.985 170.703C179 169.836 179.356 169.009 179.975 168.401C180.594 167.793 181.427 167.453 182.295 167.453C183.157 167.5 183.971 167.868 184.576 168.484C185.181 169.1 185.534 169.92 185.565 170.783C185.528 171.647 185.158 172.463 184.531 173.058C183.903 173.654 183.069 173.982 182.205 173.973Z" fill="#3558A2"/>
<path d="M175.475 91.2739C175.952 91.266 176.426 91.3529 176.869 91.5296C177.312 91.7063 177.715 91.9694 178.056 92.3034C178.397 92.6374 178.667 93.0358 178.852 93.4753C179.038 93.9149 179.134 94.3869 179.135 94.8639C179.145 95.7771 178.813 96.6611 178.204 97.342C177.595 98.0229 176.754 98.4516 175.845 98.5439C174.888 98.5803 173.956 98.2384 173.249 97.5923C172.543 96.9461 172.12 96.0476 172.071 95.0915C172.022 94.1354 172.352 93.1987 172.99 92.4841C173.627 91.7696 174.52 91.3348 175.475 91.2739Z" fill="#3558A2"/>
</svg>
