<svg width="300" height="300" viewBox="0 0 300 300" fill="none" xmlns="http://www.w3.org/2000/svg">
<path d="M118.6 127.421C117.6 124.091 116.66 121.071 115.76 118.041C115.563 117.197 115.149 116.418 114.56 115.782C113.971 115.145 113.227 114.673 112.4 114.411C111.884 114.236 111.393 113.994 110.94 113.691C108.51 112.041 108.54 108.801 111.15 107.471C112.683 106.687 114.354 106.209 116.07 106.061C121.506 105.688 126.878 104.664 132.07 103.011C135.025 102.125 138.107 101.733 141.19 101.851C146.86 102.031 151.77 100.661 155.75 96.4712C156.339 95.9059 156.982 95.4002 157.67 94.9612C158.381 94.3794 159.261 94.0436 160.178 94.004C161.096 93.9643 162.002 94.223 162.76 94.7412C163.526 95.2483 164.122 95.975 164.468 96.8262C164.814 97.6773 164.895 98.6132 164.7 99.5112C164.488 101.04 164.112 102.542 163.58 103.991C162.25 107.691 163.1 111.291 163.75 115.341C165.05 114.941 166.13 114.571 167.22 114.341C168.939 113.777 170.706 113.376 172.5 113.141C173.832 113.05 175.162 113.356 176.32 114.021C184.69 119.291 192.97 124.691 201.32 130.021C202.32 130.661 203.32 131.341 204.27 132.021C205.275 132.653 206.128 133.499 206.769 134.498C207.41 135.497 207.823 136.625 207.98 137.801C209.69 148.631 211.41 159.461 212.98 170.311C213.66 174.941 212.98 175.841 208.64 177.311C191.47 183.111 174.33 188.991 157.13 194.671C146.82 198.081 136.36 201.021 126.07 204.491C122.07 205.841 119 204.421 116.47 201.991C109.34 195.131 102.47 187.991 95.5399 180.941C93.4099 178.791 93.08 175.941 92.6 173.201C90.8 163.031 89.0499 152.851 87.2899 142.681C87.1683 141.967 87.0915 141.245 87.0599 140.521C86.8199 136.521 87.1399 136.271 91.0599 135.241C99.6499 132.961 108.2 130.561 116.76 128.191C117.33 127.961 117.9 127.691 118.6 127.421ZM203.98 157.371C203.14 152.041 202.32 146.811 201.48 141.451L120.6 165.981C121.38 171.311 121.96 176.831 123.16 182.431L126.59 181.361C131.35 179.871 136.09 178.361 140.87 176.931C144.08 175.931 147.38 175.301 150.57 174.301C161.75 170.811 172.9 167.241 184.06 163.701L203.98 157.371ZM166.16 128.621L167.16 128.191C169.56 127.121 171.23 127.351 172.26 128.891C173.29 130.431 172.72 132.511 170.75 134.081C170.336 134.436 169.887 134.748 169.41 135.011C166.41 136.591 163.41 138.381 160.21 139.661C149.119 144.239 137.207 146.495 125.21 146.291C124.394 146.309 123.579 146.235 122.78 146.071C122.067 145.909 121.426 145.517 120.958 144.955C120.49 144.393 120.22 143.692 120.19 142.961C120.136 142.228 120.34 141.5 120.768 140.903C121.196 140.305 121.819 139.876 122.53 139.691C123.2 139.471 123.9 139.341 124.42 139.211C125.7 136.831 123.67 135.381 123.42 133.391L97.4199 140.671L117 159.461C143.84 152.211 170 143.591 196.47 135.701L196.52 135.081L172.89 119.991L164.95 122.061C165.2 123.651 165.39 124.981 165.62 126.301C165.74 127.011 165.95 127.701 166.17 128.621H166.16ZM125.1 197.181C152.5 189.031 179.27 180.111 206.1 170.781C205.76 168.561 205.46 166.621 205.17 164.691C204.63 164.691 124.48 189.031 123.98 189.321C124.33 191.811 124.7 194.391 125.11 197.181H125.1ZM153.68 134.891L159.47 132.581C158.04 123.331 156.68 114.511 155.31 105.581C150.74 108.421 145.47 108.801 140.05 108.721C137.684 108.813 135.335 109.172 133.05 109.791C129.7 110.521 126.38 111.431 123.05 112.261C122.41 112.431 121.75 112.551 121.17 112.681C121.99 115.391 122.64 117.941 123.55 120.391C124.345 122.6 125.319 124.74 126.46 126.791C128.23 129.941 130.24 132.961 132.13 136.041C132.74 137.041 133.29 138.041 133.93 139.171L138.25 138.501C137.01 135.391 135.93 132.421 134.64 129.561C133.98 128.091 132.86 126.831 132.1 125.391C131.071 123.693 130.236 121.885 129.61 120.001C128.86 117.301 131.02 115.001 133.53 115.841C134.567 116.319 135.437 117.095 136.03 118.071C136.773 119.306 137.441 120.585 138.03 121.901C139.34 124.371 140.78 126.781 141.96 129.311C143.14 131.841 144.08 134.451 145.1 136.961C145.432 136.999 145.768 136.999 146.1 136.961C146.387 136.841 146.656 136.683 146.9 136.491C145.5 131.351 145.8 126.091 145.9 120.841C145.96 118.371 147.01 116.921 148.99 116.841C150.97 116.761 152.48 118.081 152.75 120.361C152.947 121.893 152.923 123.446 152.68 124.971C152.23 128.261 153.11 131.381 153.69 134.891H153.68ZM95.26 148.211C95.72 151.071 96.12 153.211 96.38 155.341C96.72 158.101 97.3799 160.621 100.17 161.981C100.469 162.186 100.739 162.432 100.97 162.711C104.97 166.531 108.97 170.344 112.97 174.151C113.47 174.631 114.04 175.041 114.97 175.801C114.54 172.801 114.06 170.351 113.86 167.801C113.752 166.355 113.076 165.011 111.98 164.061C107.32 159.641 102.69 155.171 98.0499 150.731C97.2699 150.041 96.47 149.321 95.27 148.211H95.26ZM99.46 170.901C99.3305 172.294 99.5404 173.697 100.072 174.991C100.603 176.285 101.439 177.431 102.51 178.331C106.85 182.441 110.97 186.781 115.19 191.021C115.8 191.641 116.45 192.211 117.5 193.191C117.11 190.671 116.82 188.731 116.58 187.191L99.46 170.901Z" fill="#3558A2"/>
<path d="M203.991 157.371L183.991 163.701C172.831 167.241 161.681 170.811 150.501 174.301C147.311 175.301 144.011 175.981 140.801 176.931C136.021 178.341 131.281 179.871 126.521 181.361L123.091 182.431C121.891 176.831 121.311 171.311 120.531 165.981L201.471 141.451C202.331 146.811 203.151 152.041 203.991 157.371Z" fill="#EAECF1"/>
<path d="M166.17 128.622C165.95 127.702 165.74 127.012 165.61 126.302C165.38 124.982 165.19 123.652 164.94 122.062L172.88 119.992L196.51 135.102L196.46 135.722C170.04 143.612 143.83 152.232 116.99 159.482L97.4102 140.692L123.41 133.412C123.64 135.412 125.67 136.852 124.41 139.232C123.89 139.362 123.19 139.492 122.52 139.712C121.809 139.897 121.186 140.326 120.758 140.923C120.331 141.521 120.126 142.249 120.18 142.982C120.21 143.713 120.48 144.414 120.948 144.976C121.416 145.538 122.057 145.93 122.77 146.092C123.569 146.256 124.384 146.33 125.2 146.312C137.197 146.516 149.109 144.26 160.2 139.682C163.38 138.402 166.35 136.612 169.4 135.032C169.877 134.769 170.326 134.457 170.74 134.102C172.74 132.532 173.3 130.482 172.25 128.912C171.2 127.342 169.55 127.142 167.15 128.212L166.17 128.622Z" fill="#EAECF1"/>
<path d="M125.111 197.181C124.701 194.391 124.331 191.811 123.971 189.321C124.471 189.031 204.621 164.741 205.161 164.691C205.451 166.621 205.751 168.561 206.091 170.781C179.281 180.101 152.511 189.031 125.111 197.181Z" fill="#EAECF1"/>
<path d="M153.691 134.892C153.111 131.382 152.231 128.262 152.821 124.892C153.064 123.366 153.088 121.814 152.891 120.282C152.621 118.002 151.051 116.652 149.131 116.762C147.211 116.872 146.131 118.322 146.041 120.762C145.901 126.012 145.601 131.272 147.041 136.412C146.796 136.604 146.527 136.762 146.241 136.882C145.908 136.919 145.573 136.919 145.241 136.882C144.241 134.372 143.241 131.742 142.101 129.232C140.961 126.722 139.481 124.292 138.171 121.822C137.582 120.506 136.914 119.227 136.171 117.992C135.578 117.016 134.707 116.239 133.671 115.762C131.161 114.962 129.001 117.222 129.751 119.922C130.376 121.806 131.212 123.614 132.241 125.312C133.001 126.752 134.121 128.012 134.781 129.482C136.071 132.342 137.151 135.312 138.391 138.422L134.071 139.092C133.431 137.982 132.881 136.952 132.271 135.962C130.381 132.882 128.371 129.862 126.601 126.712C125.459 124.661 124.486 122.52 123.691 120.312C122.781 117.862 122.131 115.312 121.311 112.602C121.891 112.472 122.551 112.352 123.191 112.182C126.521 111.352 129.841 110.442 133.191 109.712C135.476 109.092 137.824 108.733 140.191 108.642C145.611 108.722 150.881 108.342 155.451 105.502C156.821 114.422 158.181 123.242 159.611 132.502L153.691 134.892Z" fill="white"/>
<path d="M95.2715 148.211C96.4715 149.321 97.2714 150.041 98.0414 150.781C102.681 155.221 107.311 159.691 111.971 164.111C113.067 165.06 113.743 166.405 113.851 167.851C114.051 170.351 114.531 172.851 114.961 175.851C114.031 175.091 113.461 174.681 112.961 174.201C108.961 170.401 104.961 166.588 100.961 162.761C100.73 162.481 100.461 162.236 100.161 162.031C97.3815 160.671 96.7115 158.151 96.3715 155.391C96.1315 153.191 95.7315 151.101 95.2715 148.211Z" fill="#979FBB"/>
<path d="M99.4706 170.902L116.601 187.152C116.841 188.732 117.131 190.672 117.521 193.152C116.471 192.152 115.821 191.602 115.211 190.982C110.991 186.742 106.871 182.402 102.531 178.292C101.464 177.397 100.629 176.258 100.096 174.972C99.5636 173.685 99.349 172.289 99.4706 170.902Z" fill="#979FBB"/>
</svg>
