<svg width="300" height="300" viewBox="0 0 300 300" fill="none" xmlns="http://www.w3.org/2000/svg">
<path d="M165.279 61.4276C165.11 62.806 164.884 64.3698 164.739 65.9417C164.521 68.2713 164.472 70.6251 164.117 72.9386C164.019 73.4682 164.074 74.0148 164.276 74.5144C164.477 75.014 164.817 75.446 165.255 75.7599C169.291 79.3873 173.286 83.0147 177.305 86.6825C183.116 91.9382 188.933 97.1885 194.755 102.434C197.983 105.327 201.212 108.197 204.367 111.123C205.171 111.871 206.223 112.296 207.321 112.316C213.391 112.703 219.428 113.163 225.514 113.574L252.955 115.395C253.615 115.424 254.268 115.535 254.9 115.726C255.31 115.834 255.69 116.032 256.013 116.307C256.335 116.582 256.591 116.926 256.761 117.314C256.932 117.701 257.013 118.122 256.998 118.545C256.984 118.968 256.873 119.382 256.676 119.756C256.18 120.807 255.905 121.949 255.869 123.11C255.586 128.954 255.441 134.806 255.183 140.658C254.787 149.719 254.327 158.779 253.916 167.84C253.593 174.925 253.31 182.019 252.996 189.105C252.568 198.536 252.092 207.959 251.696 217.382C251.535 221.107 251.535 224.839 251.406 228.571C251.364 230.111 251.728 231.634 252.463 232.988C253.165 234.359 253.827 235.745 254.481 237.132C254.767 237.725 255.007 238.339 255.199 238.97C255.917 241.468 254.779 243 252.172 243C249.832 242.96 247.491 242.766 245.159 242.589C237.927 242.051 230.698 241.487 223.472 240.896C216.837 240.364 210.195 239.8 203.552 239.284C199.396 238.953 195.223 238.679 191.066 238.349C183.907 237.793 176.756 237.212 169.605 236.648C165.368 236.317 161.131 236.035 156.902 235.697C150.033 235.157 143.181 234.584 136.312 234.044C131.784 233.69 127.257 233.383 122.729 233.021C116.086 232.489 109.452 231.924 102.809 231.408C98.6447 231.078 94.4801 230.804 90.3154 230.481C83.0515 229.917 75.8682 229.329 68.6366 228.772C64.1087 228.418 59.5808 228.111 55.0529 227.781C52.7849 227.612 50.5089 227.547 48.2651 227.233C46.9677 227.029 45.7082 226.632 44.5283 226.056C44.2103 225.912 43.9245 225.705 43.688 225.448C43.4515 225.191 43.2692 224.89 43.1517 224.561C43.0343 224.232 42.9842 223.884 43.0044 223.535C43.0245 223.187 43.1146 222.846 43.2692 222.533C43.6238 221.573 44.1013 220.663 44.6897 219.825C46.546 217.407 46.998 214.561 47.2724 211.619C48.0795 203.316 48.9592 195.029 49.7906 186.735C50.3071 181.568 50.743 176.393 51.2595 171.225C52.0667 163.084 52.9545 154.942 53.7777 146.793C54.4395 140.239 55.0368 133.686 55.6906 127.14C56.1506 122.481 56.6752 117.83 57.1675 113.179C57.4016 110.922 57.5791 108.657 57.8535 106.408C57.9438 105.465 58.1471 104.537 58.4589 103.643C59.0077 102.2 60.0731 101.773 61.6389 102.03C63.7939 102.393 65.965 102.756 68.1441 102.909C74.2781 103.336 80.4283 103.627 86.5623 104.022C92.6963 104.417 98.669 104.828 104.755 105.327C106.281 105.428 107.795 104.998 109.04 104.11C114.916 100.386 120.872 96.7828 126.797 93.1957C136.482 87.3435 146.28 81.5477 156.022 75.7196C156.466 75.4536 156.885 75.1553 157.337 74.9135C157.695 74.7282 157.994 74.4464 158.199 74.1002C158.405 73.7539 158.509 73.3571 158.5 72.9547C158.93 67.7796 159.382 62.6072 159.856 57.4374C160.517 50.2309 161.22 43.0245 161.898 35.818C162.115 33.4884 162.317 31.1507 162.479 28.8211C162.68 25.9595 163.504 25.0083 166.425 25.0002C169.347 24.9922 172.422 25.1937 175.408 25.4113C180.154 25.758 184.892 26.2174 189.638 26.5882L209.815 28.2004C214.343 28.5632 218.871 28.8937 223.399 29.2483C224.642 29.3451 225.877 29.4499 227.112 29.6191C229.275 29.9093 230.34 31.0862 230.34 33.303C230.355 35.1329 230.277 36.9624 230.106 38.7844C229.315 46.9421 228.508 55.0917 227.685 63.2332C227.659 63.7426 227.538 64.2428 227.33 64.7084C227.063 65.2352 226.632 65.6618 226.103 65.9247C225.574 66.1876 224.974 66.2727 224.392 66.1674C219.355 65.7885 214.311 65.4661 209.267 65.0792C204.892 64.7487 200.518 64.3295 196.135 63.9829C188.766 63.3944 181.389 62.8302 174.02 62.2417C171.131 62.0241 168.314 61.7016 165.279 61.4276ZM250.292 121.022C249.017 120.869 248.088 120.708 247.144 120.643C242.245 120.321 237.346 120.031 232.455 119.708L210.97 118.241C208.266 118.056 205.554 117.919 202.85 117.725C194.085 117.08 185.32 116.403 176.555 115.782C169.985 115.307 163.407 114.904 156.829 114.46L122.624 112.131C118.169 111.833 113.746 111.51 109.258 111.196C101.074 110.623 92.89 110.067 84.706 109.479C80.3234 109.156 75.9489 108.753 71.5664 108.431C68.8868 108.229 66.191 108.125 63.5518 107.979C62.7931 110.212 59.3629 145.124 59.7342 146.986C60.396 147.075 61.1062 147.212 61.8245 147.26C70.5897 147.868 79.3575 148.461 88.1281 149.042L114.44 150.823L136.361 152.282C138.847 152.452 141.332 152.581 143.818 152.766C152.584 153.411 161.349 154.088 170.114 154.725C178.298 155.321 186.479 155.899 194.658 156.458L226.66 158.683C232.656 159.102 238.645 159.537 244.642 159.932C245.853 160.013 247.063 159.932 248.556 159.932C249.162 146.954 249.735 134.129 250.292 121.022ZM190.106 161.802C189.371 161.689 188.669 161.536 187.959 161.48C185.691 161.294 183.431 161.157 181.163 160.996L156.837 159.271C147.69 158.626 138.559 157.984 129.444 157.345C126.304 157.127 123.165 156.853 120.025 156.643C118.96 156.571 117.886 156.643 116.587 156.643C116.296 161.899 116.046 166.929 115.715 171.959C115.384 176.989 114.908 182.164 114.593 187.275C114.278 192.385 113.931 197.343 113.681 202.389C113.431 207.435 112.785 212.53 112.729 217.802C115.715 218.084 118.435 218.374 121.3 218.43C121.429 217.568 121.542 216.931 121.607 216.294C122.07 211.189 122.524 206.084 122.971 200.978C123.697 192.751 124.426 184.521 125.158 176.288C125.246 174.903 125.416 173.525 125.667 172.161C125.768 171.496 126.101 170.888 126.608 170.446C127.115 170.003 127.762 169.754 128.435 169.742C129.132 169.818 129.78 170.135 130.267 170.639C130.753 171.143 131.048 171.801 131.098 172.499C131.127 172.791 131.127 173.086 131.098 173.378C130.63 178.835 130.13 184.3 129.702 189.766C129.25 195.408 129.008 201.132 128.088 206.774C127.652 209.515 127.523 212.304 127.281 215.069C127.192 216.278 127.281 217.487 127.281 218.93L147.886 220.542C148.29 215.287 148.693 210.297 149.056 205.097L146.522 204.823C144.989 204.678 143.447 204.614 141.93 204.364C141.287 204.281 140.697 203.965 140.274 203.475C139.85 202.985 139.622 202.356 139.634 201.709C139.646 201.062 139.897 200.442 140.339 199.968C140.78 199.494 141.381 199.199 142.027 199.14C142.832 199.067 143.642 199.067 144.448 199.14C146.062 199.197 147.628 199.294 149.436 199.382C149.759 195.489 150.138 191.732 150.356 187.96C150.574 184.187 151.236 180.31 150.977 176.401C150.429 176.328 150.073 176.264 149.718 176.247C146.789 176.102 143.867 175.981 140.937 175.812C139.404 175.732 137.87 175.627 136.345 175.425C135.676 175.388 135.047 175.099 134.586 174.615C134.124 174.131 133.864 173.49 133.859 172.822C133.854 172.118 134.125 171.441 134.614 170.935C135.103 170.429 135.77 170.134 136.474 170.113C137.132 170.065 137.793 170.065 138.451 170.113C141.518 170.274 144.593 170.468 147.66 170.613C154.617 170.935 161.569 171.244 168.516 171.54C168.882 171.541 169.247 171.578 169.605 171.653C170.291 171.809 170.893 172.218 171.291 172.798C171.688 173.377 171.853 174.085 171.752 174.78C171.688 175.442 171.38 176.056 170.888 176.503C170.395 176.95 169.754 177.198 169.089 177.199C168.435 177.199 167.773 177.199 167.111 177.142C164.19 177.005 161.26 176.852 158.338 176.739C157.827 176.763 157.319 176.833 156.821 176.949C156.385 184.566 155.433 192.015 155.207 199.519C156.611 200.221 157.967 199.914 159.242 200.084C160.257 200.172 161.264 200.339 162.253 200.583C162.749 200.739 163.185 201.046 163.499 201.46C163.813 201.875 163.989 202.377 164.004 202.897C164.023 203.451 163.864 203.996 163.55 204.452C163.236 204.909 162.785 205.254 162.261 205.436C161.645 205.657 160.994 205.764 160.34 205.75C159.024 205.75 157.709 205.573 156.393 205.517C155.8 205.522 155.207 205.56 154.617 205.63C154.254 210.821 153.697 215.802 153.544 220.945C154.408 221.05 155.037 221.147 155.675 221.195C159.985 221.526 164.295 221.824 168.588 222.195C171.01 222.404 171.155 222.348 171.478 219.93C171.478 219.639 171.534 219.349 171.559 219.051C172.002 211.756 172.471 204.453 172.898 197.149C173.262 190.87 173.584 184.591 173.94 178.311C174.004 177.142 174.133 175.973 174.287 174.813C174.521 173.007 175.546 171.967 177.047 171.951C178.548 171.935 179.573 173.063 179.799 174.829C179.843 175.263 179.843 175.7 179.799 176.135C179.799 176.723 179.67 177.303 179.63 177.884C179.178 185.332 178.742 192.78 178.282 200.221C177.854 207.306 177.402 214.384 176.966 221.469C176.97 221.951 176.999 222.433 177.055 222.912C179.42 223.081 181.664 223.259 183.915 223.412C184.553 223.452 185.207 223.412 185.998 223.412C186.263 222.634 186.476 221.84 186.635 221.034C186.805 219.809 186.869 218.559 186.95 217.326C187.537 207.755 188.123 198.189 188.71 188.629C189.153 181.374 189.622 174.176 190.033 166.953C190.211 165.349 190.13 163.745 190.13 161.802H190.106ZM248.169 165.712C230.711 164.696 213.52 163.14 196.014 162.157C194.698 182.89 193.399 203.405 192.108 223.879C195.336 224.605 243.407 228.329 245.449 227.999C245.498 227.338 245.578 226.628 245.602 225.919C245.659 224.017 245.651 222.114 245.74 220.212C246.24 210.055 246.781 199.898 247.265 189.75C247.604 182.728 247.879 175.715 248.169 168.694C248.226 167.832 248.193 166.961 248.193 165.712H248.169ZM111.09 156.039L58.7898 152.25C56.6752 172.556 54.6413 192.668 52.6558 212.941C56.3443 213.836 60.0166 213.618 63.6244 214.021C67.2321 214.424 70.7754 214.617 74.3508 214.892L85.2951 215.698C88.8787 215.964 92.4542 216.254 96.0378 216.504C99.6213 216.754 103.245 217.374 107.079 217.141C108.443 196.754 109.767 176.57 111.115 156.055L111.09 156.039ZM196.006 111.196C195.126 110.39 194.464 109.704 193.77 109.076C190.13 105.803 186.506 102.538 182.834 99.2575C175.99 93.0775 169.156 86.8974 162.333 80.7174C160.832 79.3631 160.784 79.3551 159.105 80.3385C145.384 88.48 131.663 96.6243 117.943 104.771C117.531 105.013 117.136 105.319 116.458 105.827C116.971 105.955 117.491 106.054 118.015 106.125C124.295 106.577 130.574 107.036 136.845 107.464C139.767 107.665 142.688 107.794 145.61 107.996C155.468 108.689 165.32 109.393 175.166 110.108C180.275 110.478 185.384 110.914 190.501 111.22C192.328 111.472 194.181 111.464 196.006 111.196V111.196ZM49.3225 222.122C49.6541 222.259 49.9971 222.367 50.3475 222.445C54.297 222.756 58.241 223.063 62.1797 223.364C66.7076 223.702 71.2354 224.017 75.7633 224.363C82.4784 224.895 89.1854 225.451 95.9409 225.975C100.461 226.33 104.997 226.62 109.524 226.983C115.981 227.499 122.366 228.071 128.782 228.595C133.382 228.966 137.991 229.272 142.584 229.643C149.153 230.159 155.723 230.715 162.293 231.255C166.966 231.626 171.639 231.94 176.312 232.295C183.576 232.843 190.768 233.416 197.999 233.972C202.229 234.294 206.466 234.592 210.703 234.931C217.273 235.455 223.835 236.011 230.405 236.543C235.441 236.954 240.477 237.349 245.514 237.76C246.66 237.849 247.814 237.76 249.138 237.76L248.629 236.245C248.072 234.472 246.91 233.827 245.021 233.778C240.784 233.625 236.547 233.222 232.318 232.884C225.748 232.36 219.178 231.795 212.608 231.271C207.862 230.892 203.116 230.594 198.371 230.215C191.51 229.675 184.65 229.095 177.79 228.547C173.625 228.216 169.46 227.926 165.304 227.588C158.661 227.047 152.027 226.467 145.384 225.935C141.002 225.58 136.619 225.282 132.236 224.927C125.965 224.411 119.694 223.847 113.415 223.315C108.968 222.944 104.537 222.638 100.057 222.275C91.6632 221.587 83.2721 220.894 74.8835 220.196C70.501 219.833 66.1264 219.39 61.7519 219.059C58.4105 218.777 55.061 218.527 51.5743 218.253L49.3225 222.122ZM187.854 32.0374C187.047 35.6971 185.699 55.8413 186.046 57.4455C188.718 58.05 200.049 58.7191 201.559 58.3161C201.882 54.2211 202.18 50.0858 202.535 45.9425C202.89 41.7992 203.746 37.6156 203.391 33.2304L187.854 32.0374ZM222.124 60.4119C223.334 53.5359 224.707 36.8256 224.246 35.0603C219.468 34.2945 211.688 33.7625 209.291 34.0768C208.758 42.3635 207.515 50.634 207.297 59.2189L222.124 60.4119ZM168.104 30.3769C167.168 39.1472 166.409 47.6756 165.683 56.4701C170.606 56.1799 175.255 57.1875 180.13 57.0102C180.453 52.5686 180.76 48.3527 181.074 44.1127C181.389 39.8726 182.051 35.7696 181.881 31.4893L168.104 30.3769Z" fill="#3558A2"/>
<path d="M189.964 162.203C189.964 164.152 190.045 165.761 189.964 167.37C189.554 174.647 189.088 181.867 188.646 189.112C188.068 198.712 187.484 208.306 186.895 217.896C186.814 219.133 186.75 220.386 186.581 221.615C186.423 222.423 186.211 223.22 185.947 224C185.143 224 184.508 224 183.873 224C181.631 223.846 179.398 223.669 177.043 223.499C176.988 223.018 176.958 222.535 176.955 222.051C177.389 214.944 177.839 207.845 178.265 200.738C178.723 193.276 179.156 185.805 179.606 178.334C179.606 177.752 179.735 177.169 179.775 176.579C179.819 176.144 179.819 175.705 179.775 175.269C179.55 173.499 178.457 172.367 177.035 172.383C175.613 172.399 174.52 173.442 174.287 175.253C174.134 176.418 174.006 177.59 173.941 178.762C173.588 185.061 173.266 191.359 172.905 197.658C172.479 204.983 172.013 212.309 171.571 219.626C171.571 219.925 171.571 220.216 171.491 220.507C171.169 222.933 171.033 222.989 168.614 222.779C164.323 222.407 160.032 222.108 155.757 221.777C155.122 221.728 154.495 221.631 153.636 221.526C153.788 216.351 154.343 211.354 154.704 206.164C155.291 206.093 155.881 206.056 156.472 206.05C157.782 206.107 159.092 206.261 160.402 206.285C161.053 206.298 161.701 206.191 162.314 205.97C162.836 205.787 163.285 205.441 163.598 204.983C163.91 204.525 164.068 203.978 164.05 203.423C164.035 202.901 163.859 202.398 163.547 201.982C163.234 201.566 162.8 201.258 162.306 201.102C161.321 200.857 160.319 200.69 159.309 200.601C158.031 200.431 156.681 200.738 155.291 200.035C155.516 192.524 156.464 185.053 156.898 177.396C157.394 177.28 157.9 177.209 158.409 177.186C161.318 177.299 164.235 177.452 167.143 177.59C167.802 177.59 168.461 177.679 169.112 177.646C169.775 177.646 170.413 177.397 170.903 176.948C171.393 176.5 171.7 175.884 171.764 175.221C171.864 174.523 171.7 173.813 171.304 173.232C170.908 172.651 170.309 172.241 169.626 172.084C169.27 172.009 168.906 171.971 168.542 171.971C161.626 171.663 154.704 171.353 147.778 171.041C144.724 170.895 141.663 170.701 138.609 170.539C137.954 170.491 137.296 170.491 136.64 170.539C135.94 170.561 135.275 170.857 134.789 171.364C134.302 171.872 134.032 172.551 134.037 173.256C134.042 173.926 134.301 174.57 134.761 175.055C135.22 175.54 135.847 175.831 136.512 175.868C138.031 176.07 139.557 176.175 141.084 176.256C144.001 176.426 146.91 176.547 149.827 176.692C150.18 176.692 150.534 176.773 151.08 176.846C151.337 180.767 150.671 184.6 150.462 188.44C150.253 192.281 149.867 195.992 149.546 199.897C147.746 199.809 146.163 199.712 144.58 199.655C143.778 199.582 142.971 199.582 142.169 199.655C141.526 199.714 140.928 200.009 140.488 200.485C140.049 200.96 139.799 201.582 139.787 202.231C139.775 202.88 140.002 203.511 140.424 204.003C140.845 204.494 141.432 204.811 142.073 204.894C143.583 205.145 145.118 205.21 146.645 205.355L149.168 205.63C148.774 210.845 148.364 215.85 148.003 221.122L127.488 219.505C127.488 218.065 127.416 216.844 127.488 215.632C127.697 212.858 127.825 210.061 128.292 207.312C129.183 201.652 129.425 195.944 129.899 190.252C130.325 184.77 130.823 179.288 131.289 173.814C131.317 173.521 131.317 173.226 131.289 172.933C131.238 172.232 130.945 171.572 130.461 171.067C129.976 170.561 129.331 170.243 128.637 170.168C127.967 170.179 127.322 170.429 126.818 170.873C126.313 171.317 125.981 171.926 125.881 172.593C125.632 173.962 125.463 175.344 125.375 176.733C124.635 184.991 123.91 193.246 123.197 201.498C122.747 206.619 122.294 211.74 121.839 216.861C121.775 217.499 121.662 218.138 121.534 219.003C118.681 218.947 115.973 218.656 113 218.373C113.056 213.085 113.699 208.007 113.948 202.913C114.197 197.82 114.519 192.799 114.856 187.753C115.194 182.708 115.66 177.509 115.973 172.391C116.286 167.273 116.552 162.3 116.841 157.029C118.135 157.029 119.203 156.964 120.264 157.029C123.39 157.239 126.516 157.514 129.642 157.732C138.749 158.39 147.839 159.034 156.914 159.665L181.133 161.395C183.391 161.557 185.641 161.694 187.899 161.88C188.534 161.937 189.233 162.09 189.964 162.203Z" fill="white"/>
<path d="M49 222.755L51.222 219C54.7124 219.267 58.0656 219.509 61.4106 219.784C65.7899 220.137 70.1692 220.568 74.5565 220.889C82.9487 221.579 91.349 222.253 99.7574 222.911C104.218 223.264 108.645 223.562 113.13 223.922C119.416 224.424 125.694 224.973 131.972 225.49C136.359 225.835 140.746 226.125 145.134 226.47C151.783 226.987 158.425 227.552 165.075 228.077C169.236 228.406 173.405 228.688 177.574 229.009C184.442 229.542 191.31 230.107 198.178 230.632C202.929 231 207.68 231.29 212.431 231.659C219.008 232.16 225.585 232.709 232.162 233.226C236.395 233.556 240.637 233.948 244.879 234.097C246.77 234.159 247.933 234.771 248.491 236.495L249 237.969C247.675 237.969 246.52 238.039 245.372 237.969C240.33 237.6 235.288 237.185 230.247 236.785C223.67 236.268 217.101 235.727 210.524 235.217C206.282 234.888 202.04 234.598 197.806 234.285C190.534 233.744 183.335 233.187 176.096 232.654C171.418 232.309 166.739 232.004 162.061 231.643C155.484 231.142 148.907 230.601 142.33 230.076C137.733 229.715 133.119 229.417 128.514 229.057C122.05 228.563 115.659 228.006 109.235 227.489C104.702 227.136 100.161 226.854 95.6367 226.509C88.9062 225.992 82.1919 225.451 75.4372 224.941C70.9044 224.604 66.3716 224.299 61.8389 223.969C57.8851 223.677 53.9368 223.379 49.9938 223.076C49.6537 222.996 49.3213 222.889 49 222.755V222.755Z" fill="white"/>
<path d="M95.2425 23.3424C98.6344 26.2052 102.193 28.7393 106.705 29.5172C107.285 29.6033 107.82 29.8803 108.228 30.3052C108.636 30.7301 108.894 31.279 108.961 31.8668C109.059 32.4475 108.971 33.0446 108.712 33.572C108.452 34.0994 108.033 34.5301 107.515 34.8018C106.943 35.1053 106.341 35.3498 105.72 35.5316C104.513 35.9887 103.273 36.3896 102.082 36.8948C99.9542 37.8384 98.1497 39.395 96.8947 41.3696C94.2733 45.2348 92.9865 49.5973 92.1842 54.1282C91.5328 57.8411 90.7305 61.5459 90.7941 65.3551C90.7871 65.8636 90.6873 66.3665 90.5001 66.8386C90.3263 67.5143 89.9159 68.1035 89.3449 68.4972C88.7738 68.8908 88.0808 69.0623 87.3942 68.9798C86.7108 68.8791 86.0829 68.5432 85.6168 68.0287C85.1506 67.5143 84.8749 66.8531 84.8364 66.157C84.7211 65.0695 84.7211 63.9727 84.8364 62.8851C85.5036 57.9533 85.2494 53.0055 85.2256 48.0576C85.1804 46.0251 85.0319 43.9962 84.7807 41.979C84.5503 39.8138 83.9864 39.1883 81.7543 39.0841C80.0345 39.0375 78.3136 39.1233 76.6067 39.3407C74.2713 39.5813 72.484 37.7369 73.1354 35.6438C73.3328 35.0969 73.6562 34.6052 74.0788 34.2093C74.5014 33.8133 75.0112 33.5244 75.5662 33.3664C77.568 32.5645 79.5379 31.6663 81.4841 30.7441C82.2785 30.3752 82.9378 29.7978 83.6765 29.3568C88.0137 26.7666 89.7931 22.7489 89.9281 17.8652C90.0235 14.5934 89.9281 11.3135 90.0076 8.03365C90.0234 7.10318 90.2289 6.18597 90.6113 5.33919C90.862 4.84525 91.2708 4.45133 91.7711 4.22133C92.2715 3.99134 92.8341 3.93877 93.3678 4.07216C93.9133 4.12543 94.4259 4.35975 94.8255 4.73846C95.2251 5.11717 95.489 5.6189 95.576 6.16518C95.7645 7.09169 95.8656 8.03415 95.8779 8.97992C96.0597 13.5612 95.815 18.1496 95.1471 22.6848C95.1526 22.907 95.1846 23.1278 95.2425 23.3424V23.3424ZM87.0605 34.441C87.8964 35.2689 88.6667 36.1618 89.3642 37.1114C89.8944 38.1413 90.3382 39.2143 90.6908 40.3191C92.5416 37.1835 94.6625 34.465 97.7923 32.4442C95.8144 31.4498 94.5037 29.8379 92.6767 29.3648L87.0605 34.441Z" fill="#3558A2"/>
<path d="M124.668 268C126.688 268 128.049 269.16 127.999 270.838C127.948 272.517 125.979 274.092 123.992 273.996C123.185 273.94 122.429 273.599 121.875 273.041C121.321 272.482 121.009 271.748 121 270.982C120.983 269.096 122.361 267.976 124.668 268Z" fill="#3558A2"/>
<path d="M158 247.818C157.999 247.424 158.08 247.034 158.238 246.674C158.395 246.314 158.626 245.992 158.915 245.727C159.204 245.463 159.545 245.263 159.916 245.14C160.286 245.018 160.678 244.975 161.066 245.014C161.455 245.005 161.842 245.075 162.203 245.221C162.565 245.368 162.893 245.587 163.167 245.865C163.442 246.144 163.657 246.476 163.8 246.842C163.943 247.207 164.011 247.599 163.999 247.991C163.999 248.784 163.689 249.544 163.137 250.108C162.585 250.671 161.835 250.992 161.05 251C160.23 250.979 159.451 250.634 158.88 250.039C158.31 249.444 157.994 248.646 158 247.818Z" fill="#3558A2"/>
<path d="M136 292.93C135.993 293.352 135.905 293.768 135.739 294.153C135.573 294.539 135.334 294.885 135.036 295.171C134.737 295.457 134.386 295.678 134.004 295.819C133.621 295.961 133.215 296.02 132.81 295.994C132.439 296.004 132.07 295.935 131.725 295.793C131.381 295.65 131.068 295.436 130.805 295.164C130.542 294.892 130.336 294.568 130.197 294.21C130.059 293.852 129.992 293.469 130.001 293.084C130.005 292.271 130.316 291.493 130.868 290.917C131.42 290.341 132.167 290.013 132.95 290.004C133.336 289.983 133.723 290.042 134.087 290.178C134.452 290.314 134.786 290.525 135.07 290.798C135.355 291.071 135.583 291.4 135.743 291.766C135.903 292.133 135.99 292.528 136 292.93V292.93Z" fill="#3558A2"/>
<path d="M117.994 245.788C117.994 247.658 116.77 248.977 114.955 249C114.561 249.004 114.17 248.934 113.807 248.794C113.443 248.653 113.114 248.445 112.839 248.183C112.564 247.92 112.349 247.608 112.208 247.266C112.066 246.923 112.001 246.558 112.015 246.191C111.973 245.79 112.02 245.386 112.154 245.003C112.288 244.621 112.506 244.268 112.794 243.968C113.082 243.668 113.434 243.427 113.828 243.261C114.221 243.095 114.648 243.007 115.08 243.002C115.473 242.987 115.865 243.05 116.231 243.185C116.597 243.321 116.928 243.527 117.203 243.789C117.478 244.052 117.691 244.366 117.827 244.71C117.963 245.054 118.02 245.421 117.994 245.788Z" fill="#3558A2"/>
<path d="M149 269.946C148.999 270.357 148.918 270.763 148.762 271.14C148.606 271.517 148.377 271.859 148.09 272.143C147.803 272.428 147.464 272.651 147.092 272.797C146.719 272.944 146.322 273.012 145.924 272.998C145.544 273.011 145.165 272.946 144.81 272.805C144.456 272.664 144.132 272.451 143.859 272.178C143.586 271.905 143.369 271.579 143.222 271.218C143.074 270.857 142.999 270.469 143 270.078C142.999 269.667 143.078 269.259 143.233 268.88C143.387 268.501 143.615 268.157 143.901 267.87C144.187 267.583 144.526 267.358 144.899 267.209C145.271 267.06 145.669 266.989 146.068 267.001C146.836 266.993 147.576 267.298 148.125 267.85C148.675 268.402 148.989 269.156 149 269.946V269.946Z" fill="#3558A2"/>
<path d="M158.031 284.006C158.41 283.981 158.79 284.034 159.148 284.161C159.506 284.289 159.834 284.488 160.111 284.748C160.389 285.007 160.61 285.32 160.761 285.668C160.913 286.016 160.991 286.392 160.991 286.771C161.038 287.373 160.901 287.976 160.599 288.499C160.298 289.022 159.845 289.442 159.3 289.704C158.755 289.966 158.144 290.057 157.546 289.965C156.949 289.874 156.392 289.605 155.951 289.192C155.509 288.779 155.203 288.243 155.072 287.654C154.94 287.064 154.99 286.449 155.215 285.888C155.44 285.328 155.829 284.848 156.332 284.512C156.834 284.176 157.426 284 158.031 284.006V284.006Z" fill="#3558A2"/>
<path d="M140.999 250.91C141.021 251.706 140.727 252.48 140.18 253.059C139.633 253.638 138.879 253.976 138.084 253.999C137.288 254.021 136.517 253.726 135.938 253.179C135.36 252.631 135.022 251.876 135 251.079C134.995 250.307 135.28 249.562 135.799 248.992C136.317 248.422 137.031 248.068 137.798 248.001C138.604 247.977 139.388 248.266 139.985 248.808C140.581 249.351 140.945 250.104 140.999 250.91V250.91Z" fill="#3558A2"/>
<path d="M169.927 261C170.695 261.008 171.433 261.307 172 261.838C172.566 262.369 172.923 263.096 173 263.88C172.994 264.704 172.672 265.493 172.105 266.076C171.538 266.66 170.771 266.991 169.968 267C169.197 266.992 168.459 266.68 167.906 266.128C167.353 265.577 167.029 264.828 167 264.037C167.047 263.253 167.369 262.513 167.908 261.954C168.446 261.396 169.164 261.057 169.927 261V261Z" fill="#3558A2"/>
<path d="M250 121.038C249.421 134.149 248.849 146.978 248.27 159.968C246.798 159.968 245.575 160.04 244.368 159.968C238.389 159.573 232.419 159.161 226.441 158.718L194.537 156.492C186.378 155.928 178.222 155.35 170.069 154.759C161.33 154.122 152.592 153.445 143.854 152.8C141.376 152.614 138.897 152.485 136.419 152.316L114.565 150.856L88.3346 149.074C79.5964 148.488 70.8555 147.894 62.1119 147.292C61.3957 147.244 60.6877 147.107 60.0279 147.018C59.6578 145.156 63.0774 110.234 63.8338 108C66.4649 108.145 69.1524 108.25 71.8238 108.452C76.1929 108.774 80.5539 109.177 84.923 109.5C93.0819 110.088 101.241 110.645 109.4 111.217C113.841 111.532 118.251 111.854 122.724 112.153L156.824 114.483C163.382 114.926 169.94 115.289 176.489 115.805C185.228 116.426 193.966 117.103 202.704 117.748C205.4 117.942 208.103 118.079 210.799 118.265L232.218 119.732C237.094 120.055 241.978 120.345 246.862 120.667C247.827 120.724 248.753 120.885 250 121.038ZM158.144 119.272C156.2 119.216 154.264 119.557 152.457 120.276C150.649 120.995 149.006 122.075 147.629 123.452C146.252 124.829 145.17 126.472 144.449 128.283C143.728 130.093 143.383 132.031 143.435 133.98C143.717 142.551 150.564 147.397 157.42 147.413C159.358 147.431 161.28 147.06 163.074 146.323C164.867 145.586 166.496 144.498 167.865 143.122C169.233 141.746 170.314 140.111 171.043 138.311C171.772 136.511 172.136 134.584 172.112 132.641C172.003 129.021 170.476 125.589 167.862 123.088C165.249 120.586 161.758 119.216 158.144 119.272V119.272ZM97.2981 139.535C97.2981 139.632 97.2981 140.003 97.3947 140.342C97.4881 140.956 97.7777 141.524 98.2201 141.96C98.6625 142.396 99.2339 142.677 99.8488 142.761C100.473 142.759 101.08 142.556 101.58 142.181C102.08 141.806 102.447 141.28 102.625 140.68C102.731 140.331 102.802 139.972 102.834 139.608C103.478 133.593 104.116 127.572 104.749 121.546C104.795 121.116 104.776 120.681 104.693 120.256C104.605 119.688 104.333 119.165 103.918 118.768C103.503 118.372 102.969 118.124 102.399 118.063C101.828 118.002 101.254 118.132 100.765 118.433C100.276 118.733 99.9004 119.187 99.6959 119.724C99.4696 120.259 99.3233 120.824 99.2615 121.401C98.6017 127.408 97.966 133.359 97.2981 139.568V139.535ZM80.401 135.738H80.3205C80.3205 136.608 80.3205 137.487 80.3205 138.366C80.3184 138.947 80.408 139.524 80.586 140.076C80.8017 140.587 81.1793 141.014 81.6606 141.289C82.1418 141.564 82.7001 141.673 83.2494 141.6C83.8379 141.542 84.3903 141.289 84.8178 140.879C85.2453 140.47 85.5231 139.929 85.6069 139.342C85.8312 137.972 85.987 136.591 86.0736 135.205C86.3579 131.711 86.6261 128.217 86.8783 124.723C87.0183 123.115 87.0613 121.499 87.007 119.885C86.9869 119.25 86.726 118.646 86.2776 118.197C85.8292 117.748 85.227 117.486 84.5932 117.466C84.0051 117.439 83.4247 117.609 82.9438 117.949C82.463 118.289 82.109 118.781 81.9379 119.345C81.6839 120.108 81.5219 120.898 81.4551 121.699C81.1011 126.441 80.7711 131.101 80.4252 135.77L80.401 135.738ZM211.603 128.827C211.635 128.242 211.635 127.655 211.603 127.07C211.582 126.429 211.331 125.817 210.897 125.346C210.463 124.875 209.874 124.577 209.238 124.505C208.602 124.434 207.962 124.594 207.435 124.957C206.907 125.32 206.527 125.861 206.365 126.481C206.145 127.329 206.005 128.195 205.947 129.069C205.504 133.907 205.046 138.818 204.684 143.696C204.586 144.705 204.721 145.723 205.078 146.671C205.233 147.089 205.501 147.456 205.852 147.731C206.202 148.005 206.622 148.178 207.064 148.229C207.506 148.28 207.953 148.207 208.357 148.019C208.76 147.831 209.104 147.535 209.35 147.163C209.791 146.589 210.069 145.907 210.155 145.188C210.702 139.842 211.145 134.456 211.627 128.86L211.603 128.827ZM226.489 130.279C226.533 129.591 226.533 128.902 226.489 128.215C226.448 127.629 226.209 127.074 225.812 126.642C225.415 126.21 224.883 125.926 224.304 125.836C223.725 125.747 223.132 125.858 222.624 126.151C222.116 126.444 221.722 126.902 221.508 127.449C221.204 128.191 221.009 128.973 220.929 129.771C220.39 134.923 219.891 140.084 219.392 145.236C219.332 145.818 219.332 146.404 219.392 146.986C219.451 147.577 219.7 148.133 220.102 148.569C220.504 149.006 221.037 149.299 221.621 149.405C222.205 149.457 222.791 149.331 223.302 149.043C223.814 148.756 224.226 148.319 224.485 147.792C224.754 147.113 224.927 146.399 225 145.672C225.523 140.592 226.006 135.512 226.513 130.311L226.489 130.279Z" fill="white"/>
<path d="M248 165.562C248 166.814 248 167.687 248 168.551C247.71 175.587 247.436 182.614 247.097 189.65C246.613 199.82 246.073 209.998 245.573 220.176C245.485 222.082 245.493 223.989 245.436 225.895C245.436 226.606 245.331 227.317 245.283 227.979C243.243 228.31 195.241 224.579 192 223.852C193.29 203.334 194.588 182.776 195.902 162C213.389 162.985 230.561 164.545 248 165.562Z" fill="#979FBB"/>
<path d="M111 155.792C109.663 176.326 108.349 196.529 106.996 216.951C103.192 217.185 99.629 216.523 96.0415 216.313C92.4541 216.103 88.9386 215.813 85.3832 215.506L74.5248 214.7C70.9773 214.425 67.4139 214.232 63.8825 213.828C60.3511 213.425 56.6755 213.643 53 212.747C54.9699 192.455 57.0038 172.324 59.0859 152L111 155.792Z" fill="#979FBB"/>
<path d="M196 111.805C194.169 112.065 192.31 112.065 190.479 111.805C185.34 111.464 180.201 111.058 175.054 110.684C165.15 109.97 155.24 109.261 145.324 108.557C142.385 108.354 139.446 108.224 136.507 108.021C130.199 107.591 123.883 107.128 117.567 106.673C117.04 106.601 116.516 106.501 116 106.373C116.706 105.861 117.08 105.561 117.494 105.309C131.285 97.0973 145.086 88.8937 158.898 80.6983C160.571 79.7077 160.619 79.7158 162.146 81.0799C169.019 87.3104 175.893 93.5355 182.767 99.7551C186.42 103.06 190.073 106.348 193.767 109.645C194.449 110.303 195.115 110.993 196 111.805Z" fill="#EAECF1"/>
<path d="M187.806 32L202.917 33.1749C203.263 37.4934 202.438 41.5817 202.085 45.6938C201.732 49.8059 201.449 53.8465 201.135 57.8793C199.667 58.2762 188.646 57.6173 186.047 57.0219C185.733 55.4422 187.06 35.604 187.806 32Z" fill="white"/>
<path d="M221.791 60L207 58.8263C207.217 50.3801 208.457 42.2432 208.989 34.0905C211.404 33.7812 219.142 34.3046 223.909 35.058C224.368 36.8107 222.999 53.251 221.791 60Z" fill="#EAECF1"/>
<path d="M168.442 30L181.966 31.1503C182.157 35.4821 181.504 39.6916 181.17 43.9255C180.836 48.1595 180.558 52.4587 180.239 56.9782C175.466 57.1577 170.853 56.1624 166 56.4316C166.772 47.5069 167.511 38.8758 168.442 30Z" fill="#979FBB"/>
<path d="M87 35.1135L92.7565 30C94.6292 30.4751 96.0133 32.0937 98 33.0922C94.7432 35.1215 92.6181 37.8514 90.721 41C90.3596 39.8906 89.9047 38.8131 89.3612 37.7789C88.6456 36.8309 87.8561 35.9397 87 35.1135Z" fill="white"/>
<path d="M157.876 119.006C161.53 118.948 165.06 120.36 167.702 122.937C170.345 125.514 171.888 129.05 171.999 132.78C172.023 134.781 171.655 136.767 170.918 138.621C170.18 140.476 169.088 142.161 167.704 143.578C166.321 144.996 164.674 146.117 162.861 146.876C161.047 147.635 159.104 148.017 157.144 147.999C150.213 147.999 143.314 143.015 143.005 134.159C142.952 132.152 143.301 130.154 144.03 128.289C144.759 126.424 145.853 124.731 147.245 123.312C148.637 121.894 150.298 120.781 152.126 120.04C153.954 119.3 155.911 118.948 157.876 119.006V119.006ZM157.925 124.68C155.539 124.66 153.238 125.582 151.502 127.254C149.766 128.926 148.73 131.219 148.61 133.652C148.521 138.197 152.564 142.442 157.095 142.292C161.838 142.143 166.117 138.886 166.321 133.503C166.37 132.354 166.188 131.206 165.786 130.131C165.384 129.057 164.771 128.077 163.984 127.254C163.198 126.43 162.254 125.78 161.212 125.343C160.17 124.906 159.051 124.692 157.925 124.713V124.68Z" fill="#3558A2"/>
<path d="M97 139.705C97.7147 133.424 98.3951 127.404 99.1012 121.392C99.1673 120.808 99.3239 120.236 99.5661 119.695C99.7849 119.152 100.187 118.693 100.71 118.389C101.234 118.085 101.848 117.953 102.459 118.015C103.069 118.076 103.641 118.327 104.085 118.728C104.529 119.13 104.82 119.659 104.914 120.234C105.003 120.663 105.023 121.103 104.974 121.539C104.302 127.635 103.619 133.725 102.924 139.811C102.89 140.179 102.815 140.542 102.701 140.895C102.51 141.502 102.118 142.034 101.583 142.414C101.048 142.793 100.398 142.998 99.7298 143C99.0717 142.916 98.4602 142.632 97.9867 142.19C97.5133 141.749 97.2033 141.175 97.1033 140.553C97.0258 140.178 97.0172 139.802 97 139.705Z" fill="#3558A2"/>
<path d="M80.1144 136.106C80.4742 131.468 80.8173 126.838 81.2023 122.208C81.2717 121.412 81.4403 120.627 81.7044 119.869C81.8824 119.308 82.2505 118.821 82.7506 118.483C83.2507 118.145 83.8543 117.976 84.4659 118.003C85.125 118.023 85.7515 118.282 86.2179 118.729C86.6842 119.175 86.9554 119.775 86.9764 120.406C87.0328 122.009 86.9882 123.614 86.8426 125.212C86.6027 128.678 86.3237 132.149 86.0057 135.625C85.9157 137.002 85.7536 138.374 85.5203 139.735C85.4332 140.318 85.1441 140.855 84.6995 141.262C84.2549 141.669 83.6805 141.921 83.0684 141.978C82.4972 142.051 81.9165 141.943 81.416 141.669C80.9155 141.395 80.5228 140.972 80.2984 140.464C80.1132 139.915 80.02 139.342 80.0223 138.766C79.9721 137.892 80.0223 137.019 80.0223 136.154L80.1144 136.106Z" fill="#3558A2"/>
<path d="M211.972 129.201C211.487 134.618 211.043 139.833 210.526 145.041C210.439 145.737 210.16 146.397 209.718 146.953C209.47 147.313 209.125 147.6 208.72 147.782C208.315 147.964 207.865 148.034 207.421 147.985C206.977 147.935 206.556 147.769 206.204 147.502C205.852 147.236 205.583 146.882 205.427 146.477C205.069 145.559 204.933 144.573 205.031 143.596C205.394 138.873 205.839 134.15 206.3 129.435C206.358 128.589 206.499 127.75 206.72 126.929C206.883 126.328 207.264 125.805 207.794 125.453C208.323 125.102 208.966 124.947 209.605 125.016C210.244 125.085 210.835 125.374 211.271 125.83C211.707 126.286 211.959 126.878 211.98 127.499C212.009 128.066 212.006 128.634 211.972 129.201V129.201Z" fill="#3558A2"/>
<path d="M226.978 130.579C226.484 135.866 226.014 141.029 225.505 146.193C225.433 146.933 225.265 147.658 225.003 148.349C224.751 148.885 224.349 149.328 223.852 149.621C223.354 149.913 222.783 150.041 222.214 149.988C221.646 149.881 221.127 149.583 220.736 149.139C220.344 148.695 220.101 148.13 220.044 147.529C219.985 146.938 219.985 146.342 220.044 145.751C220.53 140.513 221.016 135.267 221.54 130.03C221.619 129.219 221.809 128.423 222.104 127.669C222.313 127.113 222.696 126.648 223.191 126.351C223.686 126.053 224.263 125.94 224.827 126.03C225.391 126.121 225.909 126.41 226.295 126.849C226.682 127.288 226.914 127.852 226.954 128.448C227.006 129.157 227.014 129.869 226.978 130.579V130.579Z" fill="#3558A2"/>
<path d="M158.463 125.001C159.61 124.98 160.749 125.188 161.81 125.612C162.871 126.035 163.831 126.666 164.63 127.464C165.43 128.262 166.052 129.211 166.458 130.252C166.864 131.293 167.045 132.403 166.991 133.515C166.784 138.71 162.438 141.852 157.62 141.996C153.017 142.141 148.911 138.044 149.001 133.659C149.123 131.311 150.175 129.099 151.938 127.485C153.702 125.872 156.039 124.982 158.463 125.001V125.001Z" fill="#EAECF1"/>
</svg>
