<svg width="300" height="300" viewBox="0 0 300 300" fill="none" xmlns="http://www.w3.org/2000/svg">
<path d="M189.07 192.47C188.66 194.78 188.45 196.78 187.94 198.69C185.43 208.16 179.35 214.27 169.8 216.14C161.08 217.85 153.18 214.77 147.8 206.48C146.202 203.904 145.135 201.035 144.66 198.04C144.121 197.95 143.576 197.907 143.03 197.91L128.71 199.35C126.37 199.58 124.03 199.81 121.71 200.01L107.64 201.18C106.01 201.32 105.99 201.34 105.58 203.09C103.24 213.03 97.29 219.65 87.39 222.4C76.33 225.47 64.1701 219.85 60.5601 207.72C60.4301 207.29 60.3601 206.85 60.2301 206.27C59.6176 206.165 59.0001 206.092 58.3801 206.05C55.4701 206.05 52.56 206.05 49.66 206C47.6751 205.91 45.6959 205.72 43.7301 205.43C43.1825 205.374 42.6591 205.175 42.2118 204.854C41.7645 204.533 41.4089 204.101 41.1801 203.6C40.8196 202.774 40.5221 201.921 40.29 201.05C38.84 195.61 38.2901 190.05 37.5601 184.46C36.9875 179.592 36.8536 174.682 37.16 169.79C37.58 160.88 40.8701 153.23 47.8701 147.45C50.8101 145.03 53.8101 142.697 56.8701 140.45C63.0077 135.911 68.437 130.485 72.9801 124.35C74.9223 121.72 77.256 119.403 79.9 117.48C83.83 114.63 88.36 113.96 93.01 113.62C104.33 112.8 115.68 112.99 127.01 113.14C132.01 113.21 137.01 113.39 142.01 113.57C145.1 113.673 148.135 114.419 150.92 115.76C153.329 116.858 155.381 118.611 156.84 120.82C158.11 122.82 159.53 124.7 160.72 126.73C164.258 132.847 169.937 137.436 176.66 139.61C184.236 142.381 192.157 144.1 200.2 144.72L206.98 145.12C207.99 145.086 208.981 145.394 209.793 145.995C210.604 146.596 211.189 147.455 211.45 148.43C212.058 150.414 212.539 152.435 212.89 154.48C213.63 159.307 214.297 164.15 214.89 169.01C215.44 173.69 215.89 178.38 216.27 183.08C216.5 186.15 215.02 188.08 211.93 188.68C207.77 189.5 203.56 190.13 199.37 190.82C195.92 191.36 192.54 191.9 189.07 192.47ZM188.55 150.71L185.97 149.96C182.24 148.88 178.47 147.96 174.78 146.7C166.193 144.023 158.924 138.22 154.41 130.44C153.5 128.87 152.41 127.44 151.41 125.89C150.52 124.453 149.286 123.26 147.82 122.421C146.353 121.581 144.7 121.12 143.01 121.08C139.21 120.8 135.4 120.69 131.6 120.61C127.15 120.52 122.7 120.61 118.25 120.49C109.44 120.27 100.65 120.54 91.8501 121.09C89.754 121.156 87.6942 121.655 85.8009 122.557C83.9076 123.459 82.2218 124.744 80.8501 126.33C80.1301 127.14 79.45 127.99 78.77 128.84C74.93 133.68 71.02 138.46 66.14 142.33C62.38 145.33 58.6001 148.33 54.7501 151.17C51.5484 153.429 48.9379 156.426 47.1398 159.907C45.3416 163.389 44.4087 167.252 44.42 171.17C44.3664 178.973 44.992 186.766 46.29 194.46C46.5488 195.857 46.8826 197.239 47.29 198.6H59.29C59.6 198.29 59.7101 198.23 59.7301 198.16C59.8101 197.81 59.8601 197.45 59.9301 197.1C61.0428 190.962 64.3964 185.456 69.3401 181.65C75.1201 177.26 81.64 175.42 88.78 176.95C92.0122 177.554 95.0491 178.934 97.6292 180.972C100.209 183.011 102.255 185.646 103.59 188.65C104.42 190.43 105.12 192.28 105.89 194.12C118.89 192.75 131.74 191.79 144.51 190.38C147.39 178.71 154.31 171.38 166.27 170.57C176.59 169.88 183.39 175.75 187.62 185.02C194.698 184.083 201.748 182.942 208.76 181.6C208.24 176.6 207.91 171.83 206.93 167.05C206.14 166.99 205.51 166.99 204.93 166.88C203.053 166.662 201.194 166.304 199.37 165.81C197.003 165.12 194.864 163.81 193.174 162.014C191.484 160.219 190.306 158.005 189.76 155.6C189.36 154 188.96 152.42 188.53 150.71H188.55ZM98.66 198.71C98.66 198.53 98.66 198.35 98.66 198.16C98.87 187.84 88.8401 182.16 81.2401 184.09C73.6401 186.02 69.1401 190.57 67.3601 198.09C66.6796 201.103 66.9737 204.255 68.2001 207.09C71.1301 214.36 79.1 216.74 84.65 215.56C91.99 214.04 98.83 206.39 98.64 198.73L98.66 198.71ZM181.46 191.23C181.173 187.824 179.738 184.615 177.39 182.13C175.943 180.492 174.108 179.243 172.054 178.495C170 177.748 167.792 177.526 165.63 177.85C161.626 178.378 157.992 180.466 155.52 183.66C150.91 189.18 150.58 198.03 154.6 203.37C157.66 207.44 161.76 209.64 166.78 209.22C175.07 208.55 181.37 201.3 181.44 191.25L181.46 191.23ZM205.55 159.54C205.808 157.204 205.573 154.84 204.86 152.6C202.7 152.41 200.46 152.21 198.22 152.04C197.792 152.041 197.364 152.071 196.94 152.13C197.39 157.15 199.32 158.78 205.53 159.56L205.55 159.54Z" fill="#3558A2"/>
<path d="M252.07 158.1C251.925 158.42 251.818 158.756 251.75 159.1C251.5 164.17 251.25 169.24 251.04 174.32C250.8 180.39 250.56 186.46 250.39 192.53C250.31 195.42 250.45 198.31 250.39 201.2C250.361 202.542 250.224 203.88 249.98 205.2C249.58 207.48 248.34 208.87 246.06 209.07C241.996 209.496 237.894 209.385 233.86 208.74C233.183 208.633 232.554 208.323 232.056 207.852C231.558 207.381 231.214 206.77 231.07 206.1C230.821 205.235 230.69 204.34 230.68 203.44C230.8 196.36 230.98 189.29 231.14 182.22L231.68 159.1C231.68 158.39 231.68 157.67 231.68 157.03C230.45 156.23 229.23 156.46 228.08 156.46C223.86 156.46 222.47 155.11 221.36 150.2C221.289 149.475 221.289 148.745 221.36 148.02C221.29 137.02 221.25 126.02 221.15 115.08C221.05 105.47 220.84 95.86 220.77 86.24C220.807 84.4361 221.024 82.6405 221.42 80.88C221.566 80.0185 221.99 79.2284 222.627 78.6306C223.265 78.0329 224.08 77.6604 224.95 77.57C226.644 77.2661 228.359 77.0856 230.08 77.03C236.886 76.99 243.693 76.99 250.5 77.03C253.03 77.03 255.57 77.26 258.1 77.43C260.63 77.6 262.88 79.83 262.39 82.35C262.081 84.6698 261.994 87.0137 262.13 89.35C262.05 101.24 262.07 113.13 261.95 125.02C261.86 134.09 261.62 143.16 261.42 152.22C261.398 153.125 261.291 154.025 261.1 154.91C260.989 155.772 260.563 156.563 259.903 157.13C259.244 157.697 258.399 157.999 257.53 157.98C256.44 158.04 255.35 157.98 254.26 157.98L252.07 158.1ZM228.81 149.35C233.19 149.59 237.26 150 241.32 149.99C245.38 149.98 249.56 150.99 253.87 150.44C254.01 148.51 254.24 146.72 254.25 144.93C254.36 129.43 254.41 113.93 254.52 98.42C254.52 95.34 254.72 92.26 254.8 89.18C254.8 87.76 254.8 86.34 254.8 84.88C254.539 84.7717 254.267 84.6912 253.99 84.64C246.99 84.46 239.99 84.26 233.06 84.15C231.405 84.2184 229.756 84.3787 228.12 84.63C227.99 106.26 228.44 127.7 228.84 149.33L228.81 149.35ZM239.23 157.68C239.03 162.81 238.79 167.68 238.67 172.57C238.55 177.46 238.43 182.19 238.51 187C238.59 191.81 237.77 196.71 238.15 201.81C239.86 201.64 241.36 202.2 242.87 201.51C242.87 201.07 242.97 200.72 242.98 200.37C243.12 193.2 243.16 186.03 243.42 178.88C243.62 173.35 244.11 167.88 244.42 162.31C244.5 160.81 244.81 159.25 243.98 157.68H239.23Z" fill="#3558A2"/>
<path d="M188.53 150.711C188.96 152.421 189.36 154.001 189.77 155.581C190.316 157.985 191.494 160.2 193.184 161.995C194.874 163.79 197.013 165.101 199.38 165.791C201.205 166.284 203.063 166.642 204.94 166.861C205.55 166.971 206.18 166.971 206.94 167.031C207.94 171.811 208.25 176.571 208.77 181.581C201.758 182.923 194.708 184.063 187.63 185.001C183.4 175.731 176.63 169.861 166.28 170.551C154.28 171.351 147.4 178.691 144.52 190.361C131.75 191.771 118.86 192.731 105.9 194.101C105.13 192.261 104.43 190.411 103.6 188.631C102.265 185.626 100.219 182.991 97.6393 180.953C95.0593 178.915 92.0223 177.534 88.7902 176.931C81.6502 175.401 75.1302 177.241 69.3502 181.631C64.4136 185.446 61.0706 190.959 59.9702 197.101C59.9002 197.451 59.8502 197.811 59.7702 198.161C59.7702 198.231 59.6402 198.291 59.3302 198.601H47.3302C46.9227 197.24 46.5889 195.858 46.3302 194.461C45.0322 186.766 44.4065 178.974 44.4602 171.171C44.4489 167.252 45.3818 163.389 47.1799 159.908C48.9781 156.426 51.5884 153.429 54.7902 151.171C58.6402 148.301 62.4202 145.311 66.1802 142.331C71.0602 138.461 74.9702 133.681 78.8102 128.841C79.4902 127.991 80.1701 127.141 80.8901 126.331C82.2619 124.744 83.9476 123.46 85.841 122.558C87.7343 121.656 89.794 121.156 91.8901 121.091C100.69 120.541 109.48 120.271 118.29 120.491C122.74 120.601 127.19 120.491 131.64 120.611C135.44 120.691 139.25 120.801 143.05 121.081C144.74 121.12 146.393 121.581 147.86 122.421C149.327 123.261 150.561 124.453 151.45 125.891C152.45 127.431 153.52 128.891 154.45 130.441C158.964 138.221 166.233 144.023 174.82 146.701C178.51 147.921 182.28 148.881 186.01 149.961L188.53 150.711ZM83.0702 165.101V165.231C85.1402 165.051 87.2102 164.841 89.2902 164.691C95.4302 164.271 101.58 163.881 107.72 163.461C110.34 163.281 112.96 163.071 115.57 162.851C121.34 162.371 127.11 161.851 132.88 161.381C136.04 161.121 139.2 160.961 142.36 160.731C144.17 160.591 145.97 160.421 147.77 160.231C150.64 159.921 151.98 158.441 151.98 155.591C151.984 154.502 151.927 153.413 151.81 152.331C151.51 149.731 151.14 147.131 150.81 144.531C150.44 141.531 150.1 138.611 149.7 135.661C149.25 132.401 147.24 130.881 144.08 131.131C137.58 131.651 131.08 132.131 124.58 132.551C120.58 132.821 116.58 132.971 112.65 133.211C109.84 133.371 107.04 133.571 104.25 133.781C100.19 134.091 96.1302 134.441 92.0702 134.781C89.1802 135.001 86.2802 135.141 83.4002 135.391C82.3435 135.412 81.329 135.809 80.5389 136.511C79.7489 137.213 79.2352 138.174 79.0902 139.221C78.8002 141.001 78.6702 142.811 78.4902 144.611C78.1802 147.611 77.8702 150.541 77.5802 153.511C77.3402 155.941 77.0402 158.371 76.9302 160.811C76.7902 163.811 78.4102 165.311 81.4302 165.221L83.0702 165.101Z" fill="white"/>
<path d="M98.6403 198.731C98.8303 206.391 91.9903 214.041 84.6403 215.601C79.0903 216.781 71.1203 214.401 68.1903 207.131C66.964 204.296 66.6699 201.144 67.3504 198.131C69.1304 190.631 73.7204 186.041 81.2304 184.131C88.7404 182.221 98.8603 187.881 98.6503 198.201C98.6303 198.371 98.6403 198.551 98.6403 198.731Z" fill="#979FBB"/>
<path d="M181.44 191.251C181.37 201.301 175.1 208.551 166.76 209.251C161.76 209.671 157.64 207.471 154.58 203.401C150.58 198.061 150.89 189.211 155.5 183.691C157.972 180.497 161.606 178.409 165.61 177.881C167.772 177.557 169.98 177.779 172.034 178.526C174.088 179.274 175.923 180.523 177.37 182.161C179.716 184.644 181.15 187.848 181.44 191.251V191.251Z" fill="#979FBB"/>
<path d="M205.53 159.562C199.32 158.783 197.39 157.152 196.92 152.152C197.344 152.093 197.772 152.063 198.2 152.062C200.44 152.233 202.68 152.432 204.84 152.622C205.553 154.862 205.788 157.226 205.53 159.562V159.562Z" fill="white"/>
<path d="M228.838 149.331C228.438 127.702 227.988 106.262 228.148 84.6116C229.778 84.351 231.42 84.1807 233.068 84.1016C240.068 84.2116 247.068 84.4116 253.998 84.5916C254.276 84.6427 254.548 84.7232 254.808 84.8315C254.808 86.2915 254.808 87.7116 254.808 89.1316C254.728 92.2116 254.548 95.2916 254.528 98.3716C254.418 113.872 254.368 129.372 254.258 144.882C254.258 146.672 254.018 148.461 253.878 150.391C249.568 150.911 245.468 149.932 241.328 149.942C237.188 149.952 233.218 149.571 228.838 149.331ZM249.988 138.332C249.987 137.127 249.747 135.935 249.283 134.824C248.818 133.712 248.138 132.704 247.282 131.857C246.426 131.01 245.41 130.341 244.294 129.889C243.178 129.436 241.983 129.21 240.778 129.222C239.501 129.191 238.231 129.421 237.046 129.898C235.861 130.376 234.786 131.09 233.886 131.997C232.987 132.904 232.282 133.985 231.814 135.174C231.347 136.363 231.127 137.635 231.168 138.912C231.278 144.912 235.398 148.061 240.518 148.211C245.638 148.361 250.068 143.732 249.988 138.312V138.332ZM232.068 116.422C232.004 117.843 232.296 119.258 232.918 120.539C233.54 121.819 234.471 122.923 235.628 123.752C239.308 126.632 244.118 127.022 247.938 123.292C249.596 121.642 250.541 119.408 250.571 117.069C250.601 114.731 249.714 112.473 248.098 110.782C246.918 109.526 245.438 108.593 243.797 108.068C242.156 107.543 240.408 107.444 238.718 107.782C236.769 108.206 235.033 109.306 233.816 110.887C232.599 112.468 231.98 114.428 232.068 116.422V116.422ZM250.558 95.5915C250.658 90.0015 246.458 87.2715 241.138 86.9015C236.258 86.5615 232.208 91.0216 232.048 96.0516C232.132 98.4618 233.159 100.743 234.907 102.404C236.656 104.065 238.987 104.972 241.398 104.932C246.788 104.922 250.978 100.102 250.578 95.5915H250.558Z" fill="white"/>
<path d="M239.259 157.66H243.989C244.819 159.23 244.509 160.79 244.429 162.29C244.139 167.82 243.649 173.29 243.429 178.86C243.169 186.01 243.129 193.18 242.989 200.35C242.989 200.7 242.919 201.05 242.879 201.49C241.369 202.18 239.879 201.62 238.159 201.79C237.779 196.69 238.609 191.79 238.519 186.98C238.429 182.17 238.519 177.36 238.679 172.55C238.839 167.74 239.069 162.79 239.259 157.66Z" fill="#979FBB"/>
<path d="M83.0699 165.101L81.4399 165.181C78.4399 165.271 76.7999 163.751 76.9399 160.771C77.0499 158.331 77.3499 155.901 77.5899 153.471C77.8799 150.471 78.19 147.541 78.5 144.571C78.68 142.771 78.81 140.961 79.1 139.181C79.245 138.134 79.7587 137.173 80.5487 136.471C81.3387 135.769 82.3532 135.372 83.4099 135.351C86.2899 135.101 89.1899 134.961 92.0799 134.741C96.1399 134.441 100.2 134.091 104.26 133.741C107.05 133.531 109.85 133.331 112.66 133.171C116.66 132.931 120.66 132.781 124.59 132.511C131.09 132.071 137.59 131.611 144.09 131.091C147.25 130.841 149.26 132.361 149.71 135.621C150.11 138.571 150.45 141.541 150.82 144.491C151.15 147.091 151.52 149.691 151.82 152.291C151.937 153.374 151.993 154.462 151.99 155.551C151.99 158.401 150.65 159.881 147.78 160.191C145.98 160.381 144.18 160.551 142.37 160.691C139.21 160.921 136.05 161.081 132.89 161.341C127.12 161.811 121.35 162.341 115.58 162.811C112.97 163.031 110.35 163.241 107.73 163.421C101.59 163.841 95.4399 164.231 89.2999 164.651C87.2199 164.801 85.1499 165.011 83.0799 165.191L83.0699 165.101ZM108.07 141.011L86.0699 142.461C85.5699 147.721 85.0699 152.801 84.5899 158.061L89.6499 157.651C94.4299 157.261 99.21 156.891 103.98 156.471C105.62 156.331 106.03 155.961 106.27 154.331C106.68 151.561 107.01 148.781 107.38 146.011C107.54 144.541 107.75 143.041 108.07 141.031V141.011ZM144.37 153.101C143.74 148.101 143.14 143.431 142.53 138.621L126.53 139.751C125.84 144.751 125.18 149.541 124.53 154.631L144.37 153.101ZM119.07 140.261C118.27 140.311 117.74 140.261 117.23 140.391C116.72 140.521 116.06 140.691 115.54 140.831C115.035 143.266 114.658 145.726 114.41 148.201C114.29 150.581 113.27 152.921 113.95 155.531L116.85 155.301C117.64 150.201 118.34 145.401 119.07 140.261Z" fill="#3558A2"/>
<path d="M249.989 138.312C249.989 143.732 245.759 148.312 240.519 148.192C235.279 148.072 231.279 144.872 231.169 138.892C231.128 137.615 231.348 136.343 231.815 135.154C232.282 133.965 232.987 132.884 233.887 131.977C234.786 131.07 235.862 130.356 237.047 129.879C238.232 129.402 239.502 129.171 240.779 129.202C241.983 129.19 243.178 129.417 244.294 129.869C245.411 130.322 246.426 130.991 247.282 131.838C248.139 132.685 248.819 133.693 249.283 134.804C249.748 135.915 249.988 137.108 249.989 138.312ZM242.509 138.502C242.509 137.282 241.849 136.402 240.879 136.442C240.291 136.485 239.738 136.733 239.314 137.142C238.89 137.551 238.623 138.096 238.559 138.682C238.563 139.178 238.742 139.658 239.064 140.036C239.385 140.414 239.83 140.668 240.319 140.752C240.907 140.741 241.467 140.499 241.877 140.078C242.287 139.656 242.514 139.09 242.509 138.502V138.502Z" fill="#3558A2"/>
<path d="M232.069 116.421C231.969 114.42 232.582 112.448 233.8 110.856C235.018 109.265 236.761 108.158 238.719 107.731C240.409 107.394 242.156 107.493 243.797 108.018C245.439 108.542 246.919 109.476 248.099 110.731C249.714 112.423 250.602 114.68 250.572 117.019C250.542 119.358 249.597 121.591 247.939 123.241C244.119 126.971 239.309 126.581 235.629 123.701C234.479 122.877 233.552 121.781 232.931 120.51C232.309 119.24 232.013 117.835 232.069 116.421V116.421ZM241.069 114.971C240.869 114.938 240.664 114.952 240.47 115.01C240.276 115.069 240.098 115.171 239.949 115.309C239.8 115.447 239.685 115.617 239.613 115.807C239.54 115.996 239.511 116.199 239.529 116.401C239.501 116.891 239.663 117.372 239.982 117.745C240.301 118.118 240.751 118.353 241.239 118.401C241.438 118.435 241.642 118.428 241.837 118.379C242.033 118.33 242.216 118.242 242.376 118.119C242.536 117.995 242.668 117.841 242.765 117.664C242.862 117.487 242.921 117.292 242.939 117.091C242.967 116.833 242.941 116.571 242.865 116.323C242.788 116.074 242.662 115.844 242.494 115.645C242.325 115.447 242.118 115.285 241.886 115.169C241.653 115.053 241.399 114.986 241.139 114.971H241.069Z" fill="#3558A2"/>
<path d="M250.58 95.5917C250.98 100.082 246.79 104.922 241.42 104.932C239.017 104.973 236.694 104.072 234.946 102.422C233.199 100.772 232.167 98.5031 232.07 96.1017C232.23 91.1017 236.28 86.6117 241.16 86.9517C246.48 87.2717 250.68 90.0017 250.58 95.5917ZM243.1 95.7617C243.122 95.5602 243.099 95.3564 243.032 95.1652C242.965 94.9739 242.856 94.8 242.713 94.6563C242.57 94.5125 242.397 94.4024 242.206 94.3342C242.016 94.2659 241.812 94.2411 241.61 94.2617C240.4 94.2617 239.61 94.9817 239.61 96.0017C239.644 96.4036 239.816 96.7814 240.097 97.0711C240.378 97.3608 240.75 97.5447 241.15 97.5917C241.643 97.5874 242.115 97.3959 242.472 97.0561C242.828 96.7162 243.042 96.2534 243.07 95.7617H243.1Z" fill="#3558A2"/>
<path d="M108.07 141.031C107.8 143.031 107.59 144.541 107.39 146.031C107.02 148.801 106.69 151.581 106.28 154.351C106.04 155.981 105.63 156.351 103.99 156.491C99.2196 156.911 94.4395 157.281 89.6595 157.671L84.5996 158.081C85.0996 152.821 85.5996 147.741 86.0796 142.481L108.07 141.031Z" fill="#CBCFDD"/>
<path d="M144.37 153.101L124.49 154.631C125.19 149.541 125.85 144.741 126.49 139.751L142.49 138.621C143.14 143.471 143.74 148.171 144.37 153.101Z" fill="#CBCFDD"/>
<path d="M119.069 140.262C118.309 145.402 117.609 150.202 116.849 155.262L113.949 155.492C113.269 152.882 114.289 150.542 114.409 148.162C114.657 145.687 115.034 143.227 115.539 140.792C116.059 140.652 116.629 140.462 117.229 140.352C117.829 140.242 118.299 140.312 119.069 140.262Z" fill="#CBCFDD"/>
<path d="M242.509 138.501C242.514 139.089 242.287 139.655 241.877 140.076C241.467 140.498 240.907 140.74 240.319 140.751C239.829 140.666 239.385 140.413 239.063 140.035C238.742 139.656 238.563 139.177 238.559 138.681C238.622 138.095 238.89 137.55 239.313 137.141C239.737 136.732 240.291 136.484 240.879 136.441C241.849 136.401 242.549 137.281 242.509 138.501Z" fill="white"/>
<path d="M241.139 114.971C241.406 114.976 241.67 115.037 241.913 115.15C242.155 115.263 242.371 115.426 242.547 115.627C242.724 115.829 242.856 116.065 242.935 116.32C243.014 116.576 243.04 116.845 243.009 117.111C242.991 117.312 242.932 117.507 242.835 117.683C242.738 117.86 242.605 118.015 242.446 118.138C242.286 118.261 242.103 118.35 241.907 118.399C241.711 118.447 241.508 118.455 241.309 118.421C240.821 118.373 240.37 118.138 240.052 117.765C239.733 117.392 239.571 116.911 239.599 116.421C239.578 116.217 239.604 116.012 239.675 115.82C239.746 115.628 239.861 115.455 240.01 115.315C240.159 115.174 240.338 115.07 240.534 115.011C240.73 114.951 240.937 114.938 241.139 114.971V114.971Z" fill="white"/>
<path d="M243.07 95.7599C243.042 96.2551 242.825 96.7208 242.464 97.0612C242.103 97.4015 241.626 97.5907 241.13 97.5899C240.729 97.5429 240.357 97.3591 240.077 97.0693C239.796 96.7796 239.624 96.4019 239.59 96C239.59 95 240.37 94.2899 241.59 94.2599C241.791 94.241 241.993 94.2669 242.183 94.3359C242.372 94.4049 242.544 94.5151 242.686 94.6587C242.827 94.8023 242.935 94.9756 243.002 95.1661C243.068 95.3566 243.091 95.5594 243.07 95.7599V95.7599Z" fill="white"/>
</svg>
