<svg width="300" height="300" viewBox="0 0 300 300" fill="none" xmlns="http://www.w3.org/2000/svg">
<path d="M228.089 183.014L159.709 126.014C159.36 126.134 159.025 126.291 158.709 126.484C154.216 130.444 149.729 134.414 145.249 138.394C144.668 138.964 144.05 139.495 143.399 139.984C142.737 140.545 141.893 140.846 141.024 140.832C140.156 140.817 139.322 140.487 138.679 139.904C135.979 137.224 133.349 134.444 130.919 131.524C129.439 129.744 129.679 128.134 131.269 126.364C132.359 125.154 133.579 124.054 134.759 122.924C137.759 120.034 140.839 117.204 143.759 114.244C145.731 112.243 148.014 110.574 150.519 109.304C156.963 105.933 163.648 103.045 170.519 100.664C180.504 97.2221 191.048 95.6888 201.599 96.1435C208.334 96.3787 214.964 97.8852 221.139 100.584C221.789 100.874 222.469 101.094 223.259 101.404C225.259 99.6135 227.149 97.8335 229.119 96.0935C231.939 93.6135 233.349 93.6135 236.119 96.1635C238.889 98.7135 241.889 101.414 244.749 104.084C247.939 107.084 247.979 108.404 245.059 111.564L242.649 114.164C240.839 116.164 240.809 116.164 242.219 118.304C246.107 124.358 248.762 131.121 250.029 138.204C251.76 148.065 251.689 158.158 249.819 167.994C248.705 174.435 246.984 180.757 244.679 186.874C244.29 187.877 244.29 188.99 244.679 189.994C245.07 191.096 245.167 192.282 244.959 193.434C244.189 196.964 243.219 200.434 242.279 203.954C242.122 204.669 241.807 205.34 241.357 205.918C240.907 206.495 240.334 206.966 239.679 207.294C239.156 207.554 238.706 207.941 238.371 208.419C238.035 208.898 237.825 209.453 237.759 210.034C235.329 219.874 232.759 229.684 230.459 239.554C227.629 251.634 225.019 263.754 222.289 275.854C221.709 278.424 221.419 278.714 218.769 278.514C215.791 278.285 212.827 277.901 209.889 277.364C199.359 275.444 188.889 273.424 178.319 271.454L133.149 262.904L117.369 259.994C116.369 259.814 115.459 259.524 114.199 259.214C114.199 256.874 114.089 254.634 114.199 252.404C114.589 245.704 115.019 239.004 115.529 232.304C115.949 226.784 116.529 221.304 116.989 215.764C117.449 210.224 117.909 204.764 118.249 199.204C118.589 193.504 118.749 187.784 119.079 182.074C119.136 181.63 119.086 181.18 118.935 180.759C118.784 180.338 118.535 179.96 118.209 179.654C117.656 179.109 117.237 178.444 116.985 177.71C116.733 176.976 116.656 176.193 116.759 175.424C117.039 172.254 117.329 169.094 117.759 165.944C118.299 161.534 120.759 159.704 125.099 160.624C134.099 162.564 143.179 164.564 152.219 166.554C161.699 168.634 171.179 170.72 180.659 172.814L207.489 178.814C213.869 180.22 220.253 181.62 226.639 183.014C227.122 183.049 227.607 183.049 228.089 183.014ZM243.399 167.814C243.623 167.317 243.814 166.806 243.969 166.284C245.699 155.974 245.879 145.694 243.239 135.494C238.439 116.984 224.729 104.774 205.129 102.404C194.389 101.094 183.969 102.694 173.739 105.934C173.411 106.11 173.102 106.321 172.819 106.564C196.329 126.954 219.679 147.264 243.399 167.814ZM211.789 226.974L139.679 211.124C139.679 218.934 138.769 226.274 138.929 233.874L207.159 246.194C208.679 239.704 210.209 233.484 211.789 226.974V226.974ZM140.099 204.224L213.429 220.324L217.429 204.024C214.719 202.804 143.289 186.914 140.949 187.024C140.679 192.694 140.379 198.374 140.099 204.224V204.224ZM205.529 252.904C197.889 251.504 190.529 250.134 183.159 248.794C175.789 247.454 168.159 246.094 160.689 244.794C153.349 243.504 146.029 241.984 138.489 240.904C138.109 246.724 137.549 252.184 137.879 257.834L159.159 261.774C166.159 263.084 173.229 264.504 180.289 265.704C187.349 266.904 194.219 268.704 201.459 269.454C202.819 263.904 204.109 258.624 205.529 252.904ZM125.229 166.814C124.504 169.348 124.167 171.978 124.229 174.614C124.229 175.824 124.969 176.384 126.099 176.534C126.999 176.654 127.919 176.664 128.799 176.854C138.613 179.034 148.419 181.227 158.219 183.434L229.679 199.464C231.609 199.894 233.549 200.264 235.739 200.714L238.089 191.644L125.229 166.814ZM242.029 175.704L165.299 109.114C160.299 110.834 156.489 112.774 155.089 114.424L239.179 184.424C240.189 181.324 241.079 178.594 242.029 175.664V175.704ZM126.349 183.344C126.209 185.544 126.069 187.514 125.969 189.484C125.729 194.364 125.519 199.244 125.249 204.114C125.189 205.194 124.849 206.254 124.759 207.324C124.359 212.194 124.019 217.074 123.629 221.944C122.979 230.264 122.269 238.584 121.629 246.944C121.449 249.454 121.629 251.944 121.629 254.794L130.829 256.434C131.969 232.434 133.089 208.874 134.209 185.134L126.349 183.344ZM224.109 205.274C218.769 227.204 213.489 248.874 208.179 270.654C210.656 271.53 213.253 272.022 215.879 272.114C216.239 270.724 216.569 269.514 216.879 268.304C219.969 256.124 221.819 243.674 225.039 231.524C225.769 228.744 226.129 225.864 226.799 223.054C227.189 221.404 227.949 219.844 228.399 218.204C229.249 215.064 229.999 211.894 230.769 208.734C230.909 208.144 230.939 207.534 231.039 206.734L224.109 205.274ZM136.829 129.344L141.249 133.974C145.709 129.774 150.349 126.334 154.689 121.974L149.229 117.454L136.829 129.344ZM228.889 104.474L237.119 111.334L240.029 107.894L232.559 101.104L228.889 104.474Z" fill="#3558A2"/>
<path d="M187.58 47.5742C188.74 48.1642 189.58 48.5741 190.34 48.9841C193.113 50.4244 195.252 52.8446 196.34 55.7741C199.5 64.1541 192.03 71.3241 185.48 70.4441C180.64 69.7941 176.17 65.0141 175.8 59.7541C175.69 58.1341 175.8 56.5142 175.8 54.6942C175.267 54.8182 174.747 54.9958 174.25 55.2242C166.98 59.5641 162.43 65.8141 161.05 74.2241C160.78 75.9141 160.79 77.6541 160.67 79.3641C160.55 81.2941 159.67 82.3641 157.98 82.5641C157.203 82.6215 156.433 82.3852 155.821 81.9019C155.21 81.4185 154.803 80.7234 154.68 79.9541C154.53 79.1499 154.469 78.3316 154.5 77.5141C154.5 68.8741 158 61.6841 163.77 55.5141C167.523 51.2451 172.627 48.393 178.23 47.4342C179.461 47.1604 180.537 46.418 181.23 45.3641C186.013 39.4354 192.786 35.4449 200.29 34.1342C202.279 33.8743 204.289 33.8173 206.29 33.9642C207.103 34.0453 207.891 34.2974 208.6 34.7042C209.137 34.963 209.576 35.3875 209.853 35.915C210.131 36.4425 210.231 37.0452 210.14 37.6342C210.114 38.2343 209.881 38.8068 209.479 39.2538C209.078 39.7007 208.534 39.9943 207.94 40.0842C206.943 40.198 205.937 40.198 204.94 40.0842C198.04 39.7942 192.68 42.9642 187.58 47.5742ZM183.39 53.5742C182.435 54.9815 181.927 56.6436 181.93 58.3441C181.863 59.4876 182.147 60.6243 182.744 61.6019C183.341 62.5795 184.222 63.3514 185.27 63.8141C185.909 64.1349 186.632 64.2501 187.34 64.1441C188.438 63.8249 189.382 63.1172 189.997 62.1531C190.611 61.1889 190.854 60.0342 190.68 58.9041C190.14 55.8341 187.14 53.5841 183.39 53.5841V53.5742Z" fill="#3558A2"/>
<path d="M105.15 120.494C105.15 116.864 105.15 113.234 105.15 109.614C105.15 108.254 104.94 106.904 104.85 105.544C104.56 101.084 102.55 98.0135 98.0102 96.8735C97.2808 96.7543 96.618 96.3785 96.1413 95.8138C95.6646 95.249 95.4053 94.5326 95.4102 93.7936C95.4102 92.3536 96.4102 91.3836 98.4102 90.7136C100.563 90.0427 102.663 89.2103 104.69 88.2236C108.86 86.0336 110.85 82.2236 111.69 77.7536C112.09 75.7536 112.1 73.6036 112.33 71.5336C112.398 70.4532 112.569 69.3817 112.84 68.3336C112.917 67.9523 113.07 67.5902 113.289 67.2691C113.509 66.948 113.791 66.6743 114.118 66.4644C114.446 66.2545 114.812 66.1126 115.196 66.0472C115.579 65.9817 115.972 65.9941 116.35 66.0836C117.063 66.2569 117.688 66.6854 118.106 67.2879C118.524 67.8904 118.707 68.6253 118.62 69.3536C118.49 71.8036 118.24 74.2336 118 76.6736C118 77.5849 117.851 78.49 117.56 79.3536C116.26 82.1636 117.42 84.5836 118.61 87.0136C119.784 89.3045 121.792 91.0582 124.22 91.9136C125.65 92.4836 127.11 92.9136 128.56 93.4836C129.225 93.6681 129.818 94.048 130.264 94.574C130.71 95.1001 130.987 95.748 131.06 96.4336C131.22 97.9736 130.22 98.9535 129.06 99.7035C126.59 101.224 123.99 102.554 121.65 104.254C117.08 107.574 114 111.964 113.23 117.704C112.65 122.013 112.23 126.333 111.68 130.703C111.53 132.053 111.31 133.403 111.28 134.763C111.221 135.582 110.86 136.35 110.267 136.917C109.674 137.484 108.891 137.811 108.07 137.833C106.45 137.713 105.29 136.454 105.22 134.434C105.14 132.164 105.22 129.893 105.22 127.623C105.22 125.353 105.22 122.904 105.22 120.544L105.15 120.494ZM120.21 97.3135L112.54 89.9636L106.73 94.3235C107.841 96.084 108.843 97.9108 109.73 99.7936C110.371 101.692 110.889 103.629 111.28 105.594L120.21 97.3135Z" fill="#3558A2"/>
<path d="M69.1094 126.134C68.539 131.033 69.5368 135.988 71.9594 140.284C73.0961 142.361 74.6894 144.153 76.6193 145.524C77.3788 146.017 78.1008 146.565 78.7793 147.164C80.6293 148.964 80.4594 151.164 78.3394 152.714C77.4257 153.304 76.4659 153.819 75.4694 154.254C71.8207 155.98 68.919 158.967 67.2993 162.664C66.1393 165.294 66.3593 168.174 66.2993 170.954C66.2393 173.734 66.4493 176.214 66.5293 178.844C66.5744 179.387 66.5744 179.932 66.5293 180.474C66.5098 181.21 66.2122 181.911 65.6963 182.436C65.1805 182.961 64.4847 183.272 63.7493 183.304C63.0168 183.31 62.3074 183.048 61.7548 182.568C61.2022 182.087 60.8445 181.42 60.7493 180.694C60.5988 179.618 60.5387 178.531 60.5694 177.444C60.5489 171.733 59.9559 166.037 58.7993 160.444C58.3791 158.782 57.7438 157.182 56.9093 155.684C56.4439 154.789 55.7378 154.041 54.8703 153.525C54.0028 153.009 53.0084 152.745 51.9993 152.764C51.8193 152.764 51.6394 152.764 51.4594 152.764C49.4594 152.564 48.2893 151.684 48.0493 150.214C47.7593 148.494 48.7893 147.514 50.0493 146.724C50.5937 146.399 51.1582 146.108 51.7394 145.854C58.6794 142.734 61.7393 136.994 62.6393 129.774C62.8493 128.064 62.9494 126.334 63.2294 124.634C63.5894 122.444 64.6794 121.464 66.3594 121.634C68.0394 121.804 68.8193 122.844 69.0493 124.864C69.0993 125.314 69.0894 125.904 69.1094 126.134ZM65.4794 141.694L59.2394 148.694L64.1094 155.584C65.2794 154.484 66.4293 153.344 67.6493 152.294C68.8693 151.244 70.0994 150.294 71.1994 149.414L65.4794 141.694Z" fill="#3558A2"/>
<path d="M96.9983 66.5331C96.1921 66.5039 95.4305 66.1557 94.881 65.5649C94.3315 64.9742 94.0392 64.1894 94.0684 63.3832C94.0976 62.5769 94.4458 61.8153 95.0365 61.2658C95.6273 60.7163 96.4122 60.424 97.2184 60.4532C97.6227 60.4528 98.0228 60.5342 98.3948 60.6924C98.7668 60.8507 99.1031 61.0824 99.3833 61.3738C99.6635 61.6652 99.8819 62.0103 100.025 62.3882C100.169 62.7662 100.235 63.1692 100.218 63.5732C100.182 64.392 99.8228 65.1631 99.2194 65.7178C98.616 66.2725 97.8173 66.5656 96.9983 66.5331V66.5331Z" fill="#3558A2"/>
<path d="M122.328 42.0746C121.922 42.095 121.516 42.0324 121.134 41.8908C120.753 41.7491 120.404 41.5314 120.109 41.2508C119.815 40.9701 119.58 40.6325 119.42 40.2584C119.26 39.8843 119.178 39.4815 119.178 39.0746C119.153 38.6902 119.203 38.3044 119.327 37.9397C119.451 37.5749 119.646 37.2382 119.901 36.9491C120.156 36.66 120.465 36.4242 120.811 36.2552C121.157 36.0863 121.534 35.9875 121.918 35.9646C122.329 35.9183 122.745 35.9557 123.141 36.0746C123.537 36.1935 123.905 36.3915 124.222 36.6565C124.54 36.9215 124.8 37.2481 124.988 37.6165C125.176 37.9849 125.287 38.3876 125.314 38.8001C125.342 39.2127 125.286 39.6265 125.149 40.0168C125.013 40.407 124.798 40.7655 124.519 41.0706C124.24 41.3757 123.902 41.6211 123.526 41.7919C123.149 41.9628 122.742 42.0555 122.328 42.0646V42.0746Z" fill="#3558A2"/>
<path d="M135.239 58.6642C135.24 59.0702 135.161 59.4725 135.005 59.8476C134.85 60.2226 134.621 60.5629 134.332 60.8487C134.044 61.1344 133.701 61.3599 133.325 61.5119C132.948 61.6639 132.545 61.7395 132.139 61.7342C131.734 61.745 131.331 61.6738 130.955 61.5248C130.578 61.3757 130.236 61.152 129.948 60.867C129.66 60.582 129.433 60.2416 129.28 59.8665C129.127 59.4913 129.052 59.0891 129.059 58.6842C129.072 57.8671 129.405 57.0878 129.987 56.5137C130.568 55.9396 131.352 55.6166 132.169 55.6141C132.573 55.6046 132.975 55.6769 133.35 55.8265C133.726 55.9762 134.067 56.2002 134.354 56.4851C134.641 56.7699 134.867 57.1098 135.019 57.4842C135.171 57.8587 135.246 58.26 135.239 58.6642Z" fill="#3558A2"/>
<path d="M134 23.994C134.001 24.7578 133.712 25.4934 133.19 26.0509C132.667 26.6083 131.952 26.9456 131.19 26.994C130.59 27.0321 129.992 26.889 129.475 26.5834C128.957 26.2777 128.543 25.8236 128.287 25.2798C128.03 24.7361 127.943 24.1278 128.036 23.5339C128.13 22.9401 128.399 22.3879 128.81 21.9492C129.221 21.5104 129.755 21.2052 130.341 21.0732C130.928 20.9412 131.54 20.9885 132.1 21.2089C132.659 21.4293 133.139 21.8126 133.478 22.3092C133.817 22.8059 133.999 23.3928 134 23.994Z" fill="#3558A2"/>
<path d="M243.4 167.813C219.72 147.263 196.33 126.953 172.82 106.563C173.103 106.321 173.412 106.109 173.74 105.933C183.97 102.693 194.39 101.093 205.13 102.403C224.73 104.773 238.44 116.983 243.24 135.493C245.88 145.693 245.7 155.973 243.97 166.283C243.815 166.806 243.624 167.317 243.4 167.813Z" fill="#EAECF1"/>
<path d="M211.79 226.974C210.21 233.484 208.71 239.704 207.14 246.194L138.91 233.904C138.75 226.304 139.65 218.964 139.66 211.154L211.79 226.974Z" fill="#EAECF1"/>
<path d="M140.1 204.224C140.38 198.374 140.65 192.694 140.92 187.024C143.26 186.914 214.69 202.804 217.4 204.024L213.4 220.324L140.1 204.224Z" fill="#EAECF1"/>
<path d="M205.529 252.905C204.109 258.665 202.819 263.904 201.459 269.444C194.219 268.654 187.299 266.904 180.289 265.694C173.279 264.484 166.209 263.074 159.159 261.764L137.879 257.824C137.549 252.174 138.109 246.715 138.489 240.895C146.029 241.975 153.349 243.495 160.689 244.785C168.189 246.118 175.679 247.451 183.159 248.785C190.529 250.095 197.889 251.465 205.529 252.905Z" fill="#EAECF1"/>
<path d="M125.23 166.773L238.12 191.643L235.77 200.714C233.58 200.263 231.64 199.893 229.71 199.463L158.17 183.393C148.363 181.18 138.556 178.987 128.75 176.813C127.87 176.623 126.95 176.613 126.05 176.493C124.92 176.343 124.17 175.783 124.18 174.573C124.134 171.935 124.488 169.305 125.23 166.773V166.773Z" fill="white"/>
<path d="M242.03 175.663C241.08 178.593 240.19 181.323 239.18 184.423L155.09 114.423C156.49 112.773 160.25 110.833 165.3 109.113L242.03 175.663Z" fill="white"/>
<path d="M126.349 183.305L134.229 185.055C133.109 208.795 131.989 232.405 130.849 256.355L121.649 254.715C121.649 251.915 121.499 249.375 121.649 246.865C122.239 238.545 122.949 230.225 123.649 221.865C124.039 216.995 124.379 212.115 124.779 207.245C124.869 206.175 125.209 205.115 125.269 204.035C125.539 199.165 125.749 194.285 125.989 189.405C126.069 187.475 126.209 185.505 126.349 183.305Z" fill="white"/>
<path d="M224.11 205.234L231.04 206.704C230.94 207.494 230.91 208.104 230.77 208.704C230 211.864 229.25 215.034 228.4 218.174C227.95 219.814 227.19 221.374 226.8 223.024C226.13 225.834 225.8 228.714 225.04 231.494C221.82 243.644 219.97 256.094 216.88 268.274C216.57 269.484 216.24 270.694 215.88 272.084C213.254 271.993 210.657 271.501 208.18 270.624C213.49 248.834 218.77 227.164 224.11 205.234Z" fill="white"/>
<path d="M136.828 129.303L149.228 117.383L154.678 121.903C150.338 126.293 145.678 129.733 141.238 133.903L136.828 129.303Z" fill="#979FBB"/>
<path d="M228.891 104.433L232.561 101.062L240.031 107.853L237.121 111.293L228.891 104.433Z" fill="#979FBB"/>
<path d="M120.21 97.3148L111.21 105.595C110.819 103.63 110.301 101.693 109.66 99.7949C108.773 97.9121 107.771 96.0853 106.66 94.3248L112.47 89.9648L120.21 97.3148Z" fill="white"/>
<path d="M65.4783 141.693L71.1982 149.433C70.0982 150.313 68.8382 151.273 67.6482 152.313C66.4582 153.353 65.2783 154.503 64.1083 155.603L59.2383 148.713L65.4783 141.693Z" fill="white"/>
</svg>
