<svg width="300" height="300" viewBox="0 0 300 300" fill="none" xmlns="http://www.w3.org/2000/svg">
<path d="M193.114 241.929C198.244 243.529 198.814 244.269 198.634 249.549C198.464 254.549 198.194 259.549 197.924 264.479C197.877 265.383 197.713 266.277 197.434 267.139C197.287 267.718 196.976 268.242 196.537 268.648C196.099 269.055 195.553 269.326 194.964 269.429C193.192 269.768 191.389 269.925 189.584 269.899C185.794 269.649 182.024 269.159 178.254 268.719C174.484 268.279 170.554 267.719 166.694 267.289C160.774 266.579 154.854 265.869 148.924 265.199C144.924 264.749 141.004 264.399 137.054 263.959C133.104 263.519 129.154 262.959 125.204 262.509C121.534 262.079 117.844 261.709 114.204 261.279C109.994 260.789 105.784 260.279 101.564 259.749C97.7943 259.319 94.0143 258.969 90.2443 258.539C86.1143 258.069 81.9943 257.539 77.8643 257.049C74.4543 256.649 71.0343 256.288 67.6243 255.868C67.003 255.78 66.3971 255.605 65.8243 255.349C65.2638 255.14 64.7848 254.758 64.4573 254.258C64.1298 253.757 63.9711 253.166 64.0043 252.569C64.0043 251.299 64.0043 250.019 64.1543 248.769C64.6543 244.549 65.1543 240.338 65.7443 236.128C65.9543 234.518 66.1543 232.899 66.4943 231.309C66.8743 229.499 67.8043 228.159 69.8643 227.929C71.2843 227.759 72.6843 227.459 74.3643 227.179C74.5793 226.478 74.7431 225.763 74.8543 225.039C75.0943 222.699 75.2543 220.349 75.4343 218.039C75.8343 212.708 76.2143 207.388 76.6343 202.038C77.1743 195.368 77.7444 188.698 78.2944 182.038C78.8444 175.378 79.3744 168.878 79.9244 162.298C80.6577 153.378 81.391 144.458 82.1243 135.538C82.6643 129.048 83.1244 122.538 83.7744 116.068C84.2344 111.668 84.3143 107.248 85.4343 102.898C88.0326 93.0579 93.0241 84.0128 99.9643 76.5684C106.359 69.5791 114.55 64.4804 123.644 61.8284C128.101 60.3058 132.736 59.3712 137.434 59.0483C140.604 58.9183 143.764 58.5684 146.924 58.5684C151.721 58.6984 156.488 59.3693 161.134 60.5684C167.494 62.0287 173.647 64.2725 179.454 67.2483C188.014 71.5883 194.134 78.3284 198.834 86.4784C200.374 89.1484 201.644 91.9683 202.944 94.7583C204.881 98.9643 206.092 103.468 206.524 108.078C207.176 112.844 207.122 117.679 206.364 122.428C205.714 125.798 205.534 129.248 205.144 132.658C204.454 138.658 203.754 144.658 203.084 150.658C202.664 154.438 202.314 158.219 201.894 161.989C201.394 166.569 200.894 171.149 200.344 175.729C199.934 179.499 199.574 183.288 199.154 187.058C198.484 193.058 197.774 199.059 197.154 205.059C196.734 208.829 196.364 212.608 195.954 216.378C195.454 220.958 194.954 225.538 194.404 230.118C193.874 234.048 193.494 237.919 193.114 241.929ZM167.994 132.058C169.294 132.288 170.534 132.518 171.784 132.708C173.496 132.91 175.144 133.482 176.612 134.385C178.08 135.288 179.333 136.501 180.284 137.938C181.585 140.014 182.469 142.324 182.884 144.738C183.884 149.369 183.624 153.738 180.134 157.438C179.82 157.76 179.615 158.173 179.548 158.619C179.482 159.064 179.557 159.519 179.764 159.918C180.508 161.763 181.084 163.671 181.484 165.618C182.874 173.618 179.174 181.829 170.814 183.839C170.457 183.877 170.116 184.005 169.822 184.212C169.528 184.418 169.292 184.696 169.134 185.018C167.849 187.861 165.512 190.094 162.614 191.248C161.034 191.958 160.984 192.248 161.074 193.998C161.224 196.888 161.424 199.788 161.404 202.678C161.404 206.679 161.144 210.678 161.084 214.618C160.984 221.138 160.974 227.619 160.904 234.189C160.904 235.429 160.774 236.669 160.704 237.859C163.614 238.859 183.894 241.269 186.254 240.859C186.724 236.479 187.254 232.089 187.674 227.699C188.104 223.469 188.454 219.238 188.914 215.018C189.584 208.818 190.314 202.618 191.014 196.418C191.254 194.268 191.484 192.109 191.734 189.949C192.184 185.949 192.674 182.049 193.104 178.099C193.384 175.489 193.554 172.868 193.844 170.258C194.314 165.938 194.844 161.638 195.334 157.328C195.774 153.328 196.124 149.218 196.564 145.178C197.224 139.178 197.924 133.178 198.564 127.178C198.694 125.285 198.921 123.399 199.244 121.528C200.244 117.188 199.874 112.818 199.394 108.528C198.584 101.208 195.614 94.5283 191.684 88.3883C189.832 85.4888 187.745 82.7463 185.444 80.1884C182.324 76.6984 178.264 74.3484 174.104 72.3484C166.661 68.7685 158.639 66.5469 150.414 65.7883C141.997 64.9046 133.488 65.874 125.484 68.6283C122.203 69.6623 119.01 70.9564 115.934 72.4983C109.814 75.8683 104.934 80.7784 100.824 86.3484C97.7104 90.4762 95.267 95.0693 93.5843 99.9584C92.0032 104.959 91.0427 110.134 90.7243 115.368C90.1443 122.368 89.6043 129.438 89.0543 136.478C88.4609 144.045 87.8744 151.615 87.2944 159.188C87.1044 161.718 86.9143 164.248 86.6843 166.768C86.2243 171.768 85.6844 176.668 85.2844 181.618C84.8144 187.218 84.4544 192.818 84.0344 198.408C83.8444 200.938 83.6643 203.468 83.4343 205.998C82.7943 212.998 82.1243 219.999 81.4943 227.059C81.5209 227.473 81.612 227.882 81.7643 228.268C88.9243 229.678 107.764 231.859 110.044 231.489C112.964 216.289 115.898 201.035 118.844 185.729C105.004 183.249 98.5843 167.578 104.224 157.558C101.964 154.448 99.9643 151.168 99.8743 147.038C99.6186 143.112 100.83 139.231 103.274 136.148C105.894 132.918 109.594 131.848 113.274 131.018C113.994 124.018 117.534 119.348 123.784 116.798C130.414 114.098 135.944 116.538 140.934 120.698C147.934 118.278 147.324 118.418 152.934 118.478C154.666 118.463 156.371 118.897 157.884 119.738C162.734 122.478 166.454 126.178 167.964 132.058H167.994ZM161.384 184.158C162.154 182.858 162.844 181.819 163.384 180.719C164.384 178.829 165.674 177.478 167.904 177.248C168.439 177.157 168.965 177.016 169.474 176.828C170.718 176.519 171.846 175.858 172.722 174.923C173.599 173.988 174.186 172.819 174.414 171.558C174.824 169.785 174.848 167.944 174.486 166.161C174.124 164.377 173.383 162.692 172.314 161.218C170.654 158.918 170.754 157.008 172.744 154.968C173.44 154.386 174.08 153.74 174.654 153.038C175.364 152.124 175.884 151.077 176.184 149.958C176.534 147.422 176.053 144.84 174.814 142.598C174.442 141.769 173.85 141.057 173.103 140.539C172.356 140.021 171.482 139.717 170.574 139.658C169.044 139.538 167.574 139.268 166.004 139.098C163.094 138.768 161.774 137.628 161.104 134.848C161.044 134.588 161.044 134.308 161.004 134.038C160.794 132.623 160.288 131.268 159.519 130.062C158.749 128.855 157.734 127.825 156.539 127.038C155.344 126.251 153.997 125.724 152.585 125.494C151.173 125.263 149.728 125.333 148.344 125.698C146.534 126.128 144.734 126.588 143.344 128.178C141.534 130.258 139.404 130.008 137.694 127.718C136.611 126.269 135.252 125.049 133.694 124.128C132.401 123.324 130.918 122.877 129.397 122.832C127.875 122.788 126.368 123.147 125.03 123.873C123.692 124.6 122.57 125.667 121.779 126.968C120.987 128.269 120.554 129.756 120.524 131.278C120.504 132.181 120.414 133.08 120.254 133.968C119.624 137.198 118.644 138.098 115.434 138.438C114.988 138.468 114.54 138.468 114.094 138.438C112.965 138.336 111.829 138.549 110.814 139.054C109.799 139.559 108.944 140.336 108.344 141.298C107.508 142.543 107.008 143.982 106.892 145.477C106.776 146.971 107.049 148.47 107.684 149.828C108.366 151.196 109.272 152.44 110.364 153.508C112.784 156.058 112.984 157.838 110.944 160.698C110.601 161.116 110.309 161.572 110.074 162.058C109.624 162.938 109.342 163.895 109.244 164.878C109.394 170.118 111.014 174.638 115.954 177.328C116.415 177.607 116.905 177.835 117.414 178.008C117.737 178.164 118.092 178.242 118.451 178.236C118.809 178.23 119.161 178.141 119.479 177.975C119.797 177.809 120.071 177.57 120.28 177.279C120.49 176.988 120.628 176.652 120.684 176.298C120.904 175.608 121.064 174.889 121.334 174.229C121.599 173.447 122.148 172.793 122.873 172.398C123.597 172.004 124.444 171.897 125.244 172.099C125.954 172.229 126.654 172.438 127.374 172.518C135.084 173.448 142.804 174.338 150.514 175.278C152.514 175.508 154.454 175.778 156.394 176.178C159.164 176.748 159.704 177.398 159.844 180.178C159.964 181.627 160.487 183.013 161.354 184.178L161.384 184.158ZM191.684 249.159C183.374 248.099 175.504 247.079 167.624 246.099C159.744 245.119 151.824 244.179 143.924 243.219C136.024 242.259 128.304 241.369 120.494 240.389C112.684 239.408 104.734 238.219 96.8343 237.309C88.9343 236.399 81.1444 235.199 73.0444 234.529L71.1143 249.179C72.3243 249.399 73.3744 249.639 74.4244 249.769C75.4744 249.899 76.4244 249.849 77.4244 249.959L94.9144 252.049C96.9844 252.299 99.0543 252.469 101.124 252.709C105.124 253.189 109.184 253.709 113.224 254.199C117.004 254.639 120.784 254.999 124.554 255.429C128.554 255.899 132.624 256.429 136.654 256.889C140.684 257.349 144.754 257.679 148.794 258.139C154.634 258.809 160.464 259.539 166.294 260.229C169.884 260.659 173.474 261.049 177.064 261.469C181.064 261.939 185.144 262.469 189.184 262.889C189.744 262.883 190.301 262.813 190.844 262.679L191.684 249.159ZM133.684 234.599C135.892 235.152 138.144 235.51 140.414 235.669C142.564 235.869 144.704 236.279 146.864 236.449C149.024 236.619 151.224 237.448 153.664 237.008C153.894 232.828 154.214 228.788 154.304 224.748C154.374 220.988 153.964 217.209 154.194 213.459C154.794 203.459 154.014 193.539 153.844 183.579C153.759 183.264 153.635 182.962 153.474 182.678C148.734 182.178 143.974 181.268 139.094 181.168C137.324 186.168 137.184 191.168 137.184 196.168C137.184 199.408 137.784 202.648 138.004 205.888C138.703 214.394 137.626 222.951 134.844 231.018C134.424 232.118 134.114 233.228 133.654 234.638L133.684 234.599ZM126.284 233.909C127.284 231.079 128.494 228.429 129.284 225.659C130.967 219.059 131.545 212.227 130.994 205.439C130.714 200.559 130.474 195.668 130.474 190.778C130.607 188.25 130.894 185.732 131.334 183.239C131.454 182.239 131.584 181.329 131.724 180.239L127.604 179.578C126.504 182.049 117.314 229.898 117.354 232.758L126.284 233.909Z" fill="#3558A2"/>
<path d="M103.824 47.1789C103.62 47.8674 103.356 48.5367 103.035 49.1789C102.52 50.0345 101.941 50.8501 101.304 51.6189C98.3969 55.3546 96.5707 59.8167 96.0245 64.5189C95.7901 66.3978 95.4292 68.2587 94.9445 70.089C94.781 70.8778 94.3586 71.5891 93.7442 72.11C93.1297 72.6309 92.3587 72.9314 91.5538 72.9635C90.749 72.9957 89.9565 72.7579 89.3025 72.2878C88.6485 71.8176 88.1704 71.1421 87.9445 70.3689C87.6245 69.3689 87.6045 68.229 87.3745 67.169C86.7545 64.359 86.1845 61.5389 85.4345 58.7589C84.7745 56.2489 83.1545 54.9089 80.4345 55.2789C80.2548 55.2939 80.0742 55.2939 79.8945 55.2789C78.1445 55.2789 76.6945 54.689 75.8945 52.949C75.5831 52.2395 75.4947 51.4521 75.6411 50.6913C75.7876 49.9304 76.1619 49.2321 76.7145 48.689C77.6215 47.5575 78.6073 46.4914 79.6646 45.4989C81.7807 43.6449 83.3069 41.2112 84.0545 38.4989C84.3402 37.4515 84.7081 36.4284 85.1546 35.4389C85.6085 34.3668 86.2001 33.3583 86.9146 32.4389C88.7446 30.2989 91.3445 30.5789 92.7445 33.0589C93.5797 34.5591 94.3082 36.1164 94.9246 37.719C95.3129 38.8813 95.9946 39.9236 96.9038 40.7452C97.813 41.5668 98.9189 42.1399 100.115 42.4089C102.985 43.0189 103.924 44.3089 103.824 47.1789ZM86.6945 48.859L91.4745 53.979L94.8345 48.1789L89.9146 43.7489L86.6945 48.859Z" fill="#3558A2"/>
<path d="M223.595 172.878C224.475 173.118 225.315 173.368 226.155 173.578C228.515 174.158 230.945 174.578 233.225 175.348C235.505 176.118 236.335 178.708 235.025 180.918C234.655 181.538 234.23 182.124 233.755 182.668C232.076 184.689 230.797 187.01 229.985 189.508C229.374 191.208 229.037 192.993 228.985 194.798C228.985 196.598 228.715 198.398 228.515 200.188C228.507 201.019 228.199 201.819 227.648 202.44C227.096 203.061 226.339 203.462 225.515 203.568C224.663 203.75 223.774 203.606 223.023 203.166C222.272 202.725 221.713 202.02 221.455 201.188C220.805 199.508 220.355 197.748 219.725 196.068C219.188 194.536 218.547 193.042 217.805 191.598C217.434 190.812 216.832 190.158 216.08 189.722C215.328 189.286 214.461 189.089 213.595 189.158C212.697 189.194 211.8 189.072 210.945 188.798C210.366 188.664 209.83 188.387 209.386 187.992C208.942 187.596 208.605 187.096 208.406 186.536C208.207 185.976 208.152 185.375 208.246 184.788C208.34 184.201 208.58 183.648 208.945 183.178C209.443 182.417 210.061 181.742 210.775 181.178C214.975 177.798 216.665 173.348 216.585 168.058C216.576 166.893 216.783 165.737 217.195 164.648C217.396 164.083 217.779 163.601 218.284 163.277C218.789 162.953 219.387 162.806 219.985 162.858C221.325 163.008 222.705 163.518 222.985 165.128C223.244 166.449 223.424 167.785 223.525 169.128C223.665 170.318 223.595 171.488 223.595 172.878ZM219.005 182.958L223.455 186.498L226.145 180.778L221.225 179.888L219.005 182.958Z" fill="#3558A2"/>
<path d="M167.964 132.06C166.454 126.15 162.734 122.48 157.964 119.74C156.451 118.898 154.746 118.464 153.014 118.48C147.374 118.42 147.954 118.28 141.014 120.7C136.014 116.54 130.494 114.1 123.864 116.8C117.614 119.35 114.074 123.98 113.354 131.02C109.664 131.85 105.964 132.92 103.354 136.15C100.91 139.233 99.6985 143.114 99.9542 147.04C100.044 151.17 102.044 154.45 104.304 157.56C98.6642 167.56 105.084 183.25 118.924 185.73C115.984 201.01 113.051 216.263 110.124 231.49C107.804 231.86 89.0042 229.68 81.8442 228.27C81.6919 227.883 81.6008 227.475 81.5742 227.06C82.2042 220.06 82.8743 213.06 83.5143 206C83.7443 203.47 83.9243 200.94 84.1143 198.41C84.5343 192.82 84.8943 187.22 85.3643 181.62C85.7743 176.62 86.3043 171.72 86.7643 166.77C86.9943 164.25 87.1843 161.77 87.3743 159.19C87.9609 151.623 88.5476 144.053 89.1343 136.48C89.6843 129.48 90.2242 122.41 90.8042 115.37C91.1226 110.135 92.0832 104.96 93.6643 99.9597C95.347 95.0706 97.7904 90.4775 100.904 86.3497C105.034 80.7797 109.904 75.8696 116.014 72.4996C119.09 70.9577 122.283 69.6636 125.564 68.6296C133.567 65.8753 142.077 64.906 150.494 65.7897C158.719 66.5482 166.741 68.7698 174.184 72.3497C178.344 74.3497 182.404 76.6997 185.524 80.1897C187.825 82.7476 189.912 85.4901 191.764 88.3896C195.694 94.5596 198.664 101.21 199.474 108.53C199.954 112.82 200.284 117.19 199.324 121.53C199.001 123.4 198.774 125.286 198.644 127.18C197.954 133.18 197.254 139.18 196.644 145.18C196.204 149.18 195.854 153.28 195.414 157.33C194.944 161.64 194.414 165.94 193.924 170.26C193.634 172.87 193.464 175.49 193.184 178.1C192.754 182.1 192.264 186 191.814 189.95C191.564 192.11 191.334 194.27 191.094 196.42C190.394 202.62 189.664 208.82 188.994 215.02C188.534 219.24 188.184 223.47 187.754 227.7C187.304 232.09 186.754 236.48 186.334 240.86C183.974 241.22 163.694 238.86 160.784 237.86C160.854 236.67 160.974 235.43 160.984 234.19C161.054 227.67 161.064 221.19 161.164 214.62C161.224 210.62 161.464 206.62 161.484 202.68C161.484 199.79 161.304 196.89 161.154 194C161.064 192.27 161.154 192 162.694 191.25C165.592 190.095 167.929 187.862 169.214 185.02C169.371 184.697 169.608 184.419 169.902 184.213C170.196 184.006 170.537 183.878 170.894 183.84C179.254 181.84 182.954 173.58 181.564 165.62C181.163 163.672 180.588 161.764 179.844 159.92C179.637 159.52 179.562 159.065 179.628 158.62C179.694 158.175 179.9 157.762 180.214 157.44C183.704 153.77 183.914 149.37 182.964 144.74C182.548 142.325 181.665 140.016 180.364 137.94C179.413 136.502 178.16 135.29 176.692 134.386C175.224 133.483 173.576 132.911 171.864 132.71C170.504 132.52 169.264 132.29 167.964 132.06ZM182.234 95.8796C182.44 93.4402 181.801 91.0043 180.424 88.9797C179.199 86.9714 177.757 85.1034 176.124 83.4096C171.083 78.5885 165.194 74.7405 158.754 72.0597C155.112 70.4168 151.121 69.6989 147.134 69.9697C141.294 70.4197 138.134 74.7397 139.274 80.4397C139.42 81.4239 139.832 82.3497 140.464 83.1178C141.097 83.8859 141.926 84.4673 142.864 84.7997C145.1 85.7693 147.271 86.8816 149.364 88.1296C152.364 89.8196 154.754 92.3696 157.224 94.7596C159.694 97.1496 162.484 99.7597 165.134 102.21C166.712 103.722 168.702 104.735 170.854 105.12C174.314 105.72 177.524 105.12 180.074 102.45C180.892 101.579 181.51 100.539 181.883 99.4042C182.256 98.2691 182.376 97.066 182.234 95.8796V95.8796ZM192.644 116.45C192.784 113.39 192.084 110.33 189.524 108.07C187.434 106.23 184.954 104.95 182.074 105.81C178.674 106.81 176.074 108.95 175.364 112.58C174.769 115.232 174.9 117.996 175.744 120.58C175.92 121.189 176.216 121.756 176.614 122.25C177.896 123.775 179.301 125.193 180.814 126.49C182.31 127.531 184.154 127.947 185.952 127.65C187.75 127.353 189.362 126.366 190.444 124.9C192.194 122.41 192.574 119.63 192.644 116.45Z" fill="white"/>
<path d="M161.355 184.18C160.477 182.991 159.957 181.575 159.855 180.1C159.715 177.37 159.175 176.72 156.405 176.1C154.465 175.7 152.495 175.43 150.525 175.2C142.815 174.26 135.095 173.37 127.385 172.44C126.665 172.36 125.965 172.15 125.255 172.02C124.455 171.818 123.608 171.925 122.883 172.32C122.159 172.715 121.609 173.368 121.345 174.15C121.075 174.81 120.915 175.53 120.695 176.22C120.639 176.574 120.5 176.91 120.291 177.201C120.082 177.492 119.807 177.73 119.49 177.896C119.172 178.063 118.82 178.152 118.461 178.158C118.103 178.164 117.748 178.086 117.425 177.93C116.915 177.757 116.426 177.529 115.965 177.25C111.025 174.56 109.405 170.04 109.255 164.8C109.353 163.816 109.635 162.86 110.085 161.98C110.32 161.494 110.612 161.037 110.955 160.62C112.955 157.76 112.795 155.98 110.375 153.43C109.283 152.362 108.377 151.118 107.695 149.75C107.06 148.392 106.787 146.893 106.903 145.398C107.019 143.903 107.519 142.464 108.355 141.22C108.955 140.257 109.81 139.48 110.825 138.975C111.84 138.47 112.976 138.257 114.105 138.36C114.551 138.39 114.999 138.39 115.445 138.36C118.655 138.02 119.635 137.12 120.265 133.89C120.425 133.001 120.515 132.102 120.535 131.2C120.565 129.678 120.998 128.19 121.789 126.89C122.581 125.589 123.703 124.521 125.041 123.795C126.379 123.068 127.886 122.709 129.407 122.754C130.929 122.799 132.412 123.246 133.705 124.05C135.263 124.971 136.622 126.191 137.705 127.64C139.415 129.93 141.545 130.18 143.355 128.1C144.735 126.51 146.535 126.1 148.355 125.62C149.739 125.254 151.184 125.184 152.596 125.415C154.008 125.646 155.355 126.172 156.55 126.959C157.745 127.746 158.76 128.777 159.53 129.983C160.299 131.189 160.805 132.544 161.015 133.96C161.015 134.23 161.015 134.51 161.115 134.77C161.785 137.55 163.115 138.69 166.015 139.02C167.535 139.19 169.015 139.46 170.585 139.58C171.492 139.638 172.367 139.943 173.114 140.461C173.861 140.979 174.453 141.691 174.825 142.52C176.064 144.761 176.544 147.343 176.195 149.88C175.895 150.998 175.375 152.045 174.665 152.96C174.09 153.662 173.451 154.308 172.755 154.89C170.755 156.89 170.665 158.89 172.325 161.14C173.394 162.613 174.135 164.299 174.497 166.082C174.859 167.866 174.835 169.707 174.425 171.48C174.197 172.741 173.61 173.909 172.733 174.844C171.857 175.779 170.729 176.441 169.485 176.75C168.976 176.938 168.45 177.078 167.915 177.17C165.685 177.4 164.365 178.75 163.395 180.64C162.815 181.82 162.115 182.86 161.355 184.18Z" fill="#979FBB"/>
<path d="M191.655 249.179L190.865 262.649C190.321 262.783 189.764 262.853 189.205 262.859C185.205 262.409 181.125 261.859 177.085 261.439C173.495 261.019 169.905 260.629 166.315 260.199C160.485 259.509 154.655 258.779 148.815 258.109C144.815 257.649 140.725 257.309 136.675 256.859C132.625 256.409 128.615 255.859 124.575 255.399C120.805 254.969 117.025 254.609 113.245 254.169C109.245 253.699 105.175 253.169 101.145 252.679C99.0748 252.439 97.0047 252.269 94.9347 252.019L77.4447 249.929C76.4447 249.819 75.4447 249.859 74.4447 249.739C73.4447 249.619 72.3448 249.369 71.1348 249.149L73.0048 234.549C81.1048 235.219 88.9348 236.439 96.7948 237.329C104.655 238.219 112.565 239.409 120.455 240.409C128.345 241.409 136.075 242.299 143.885 243.239C151.695 244.179 159.685 245.139 167.585 246.119C175.485 247.099 183.345 248.179 191.655 249.179Z" fill="#EAECF1"/>
<path d="M133.654 234.64C134.104 233.23 134.424 232.12 134.814 231.03C137.596 222.962 138.672 214.405 137.974 205.9C137.754 202.66 137.154 199.42 137.154 196.18C137.154 191.18 137.294 186.25 139.064 181.18C143.944 181.28 148.704 182.18 153.444 182.69C153.605 182.973 153.729 183.275 153.814 183.59C153.984 193.59 154.814 203.5 154.164 213.47C153.934 217.22 154.344 221 154.274 224.76C154.184 228.76 153.864 232.84 153.634 237.02C151.194 237.47 149.034 236.63 146.834 236.46C144.634 236.29 142.534 235.88 140.384 235.68C138.115 235.532 135.863 235.183 133.654 234.64V234.64Z" fill="#EAECF1"/>
<path d="M126.254 233.949L117.254 232.799C117.254 229.939 126.404 182.089 127.504 179.619L131.624 180.279C131.484 181.369 131.354 182.279 131.234 183.279C130.794 185.773 130.507 188.291 130.374 190.819C130.374 195.709 130.614 200.599 130.894 205.479C131.444 212.267 130.866 219.1 129.184 225.699C128.464 228.469 127.294 231.119 126.254 233.949Z" fill="#EAECF1"/>
<path d="M86.6934 48.8678L89.9134 43.7578L94.8333 48.1879L91.4734 53.9879L86.6934 48.8678Z" fill="white"/>
<path d="M219.004 182.959L221.224 179.889L226.144 180.779L223.454 186.499L219.004 182.959Z" fill="white"/>
<path d="M182.235 95.8785C182.376 97.0649 182.256 98.2679 181.883 99.403C181.51 100.538 180.893 101.578 180.075 102.449C177.525 105.109 174.315 105.718 170.855 105.118C168.692 104.729 166.695 103.705 165.115 102.179C162.465 99.7085 159.815 97.2386 157.205 94.7286C154.595 92.2186 152.395 89.7886 149.345 88.0986C147.252 86.8506 145.08 85.7382 142.845 84.7685C141.907 84.4362 141.077 83.8548 140.445 83.0867C139.812 82.3185 139.401 81.3927 139.255 80.4086C138.065 74.7086 141.255 70.4086 147.115 69.9386C151.101 69.6678 155.093 70.3857 158.735 72.0286C165.175 74.7094 171.063 78.5573 176.105 83.3785C177.738 85.0723 179.18 86.9402 180.405 88.9486C181.795 90.9788 182.441 93.4267 182.235 95.8785V95.8785ZM146.025 78.2986L148.585 79.6786C149.705 80.2686 150.855 80.8186 151.945 81.4686C157.145 84.5386 161.385 88.7485 165.575 93.0285C167.115 94.5518 168.748 95.9779 170.465 97.2985C171.084 97.8345 171.844 98.1816 172.655 98.2985C174.335 98.4285 175.415 97.7685 175.205 96.0085C175.179 94.9314 174.927 93.8719 174.465 92.8985C173.34 90.9335 171.954 89.1304 170.345 87.5385C166.093 83.7247 161.21 80.6793 155.915 78.5386C153.791 77.7684 151.592 77.2221 149.355 76.9086C148.724 76.7476 148.058 76.7963 147.457 77.047C146.857 77.2977 146.354 77.737 146.025 78.2986V78.2986Z" fill="#3558A2"/>
<path d="M192.645 116.449C192.575 119.629 192.195 122.449 190.445 124.949C189.363 126.416 187.751 127.403 185.953 127.699C184.155 127.996 182.311 127.58 180.815 126.539C179.302 125.243 177.897 123.825 176.615 122.299C176.217 121.806 175.921 121.238 175.745 120.629C174.901 118.046 174.769 115.282 175.365 112.629C176.125 109 178.675 106.89 182.075 105.86C184.955 105 187.435 106.28 189.525 108.12C192.115 110.329 192.785 113.39 192.645 116.449ZM184.745 120.449C185.245 119.423 185.538 118.309 185.606 117.169C185.675 116.03 185.518 114.888 185.145 113.809C185.025 113.409 184.145 113.01 183.645 113.06C183.361 113.118 183.093 113.238 182.86 113.411C182.627 113.583 182.434 113.805 182.295 114.059C181.475 116.179 182.325 118.559 184.745 120.449V120.449Z" fill="#3558A2"/>
<path d="M146.025 78.2984C146.341 77.7204 146.838 77.2623 147.44 76.9948C148.042 76.7274 148.715 76.6654 149.355 76.8185C151.593 77.132 153.791 77.6783 155.915 78.4485C161.211 80.5892 166.093 83.6345 170.345 87.4484C171.955 89.0403 173.341 90.8434 174.465 92.8084C174.927 93.7817 175.179 94.8413 175.205 95.9183C175.415 97.6783 174.335 98.3384 172.655 98.2084C171.845 98.0914 171.085 97.7444 170.465 97.2084C168.748 95.8877 167.115 94.4616 165.575 92.9384C161.385 88.6584 157.145 84.4484 151.945 81.3784C150.855 80.7284 149.705 80.1785 148.585 79.5885L146.025 78.2984Z" fill="#EAECF1"/>
<path d="M184.744 120.448C182.324 118.558 181.474 116.218 182.294 114.098C182.433 113.843 182.625 113.622 182.859 113.449C183.092 113.277 183.36 113.157 183.644 113.098C184.134 113.048 185.024 113.448 185.144 113.848C185.886 116.015 185.743 118.387 184.744 120.448V120.448Z" fill="#EAECF1"/>
</svg>
