<svg width="300" height="300" viewBox="0 0 300 300" fill="none" xmlns="http://www.w3.org/2000/svg">
<path d="M126.304 235.38C126.074 236.33 125.844 237.01 125.754 237.71C124.841 244.662 121.686 251.126 116.769 256.124C111.852 261.123 105.44 264.382 98.5041 265.41C91.0111 266.661 83.3161 265.273 76.7323 261.483C70.1484 257.693 65.0838 251.736 62.4026 244.628C59.7213 237.52 59.5896 229.702 62.03 222.508C64.4704 215.314 69.3317 209.189 75.7842 205.18C77.2651 204.332 78.3721 202.957 78.8841 201.33C81.3741 194.14 83.9441 186.98 86.5141 179.82C88.0541 175.51 88.0442 174.61 94.0442 174.49C98.1942 174.41 102.364 175.01 106.524 175.31L108.004 175.43C108.274 173.76 108.584 172.17 108.784 170.58C109.514 164.64 110.234 158.71 110.904 152.77C111.039 151.503 111.039 150.226 110.904 148.96C110.83 147.268 110.24 145.639 109.214 144.291C108.188 142.944 106.775 141.942 105.164 141.42C104.122 141.099 103.117 140.67 102.164 140.14C99.3342 138.36 98.7242 135.24 100.864 132.67C103.004 130.1 105.414 127.49 107.864 125.07C109.864 123.07 111.944 122.74 114.324 124.21C121.974 128.95 127.774 135.21 129.824 144.3C130.734 148.35 130.284 152.43 129.824 156.48C129.184 162.34 128.474 168.18 127.824 174.03C127.724 174.92 127.564 175.81 127.374 177.03L140.754 178.24C140.953 177.998 141.127 177.736 141.274 177.46C146.074 164.84 150.861 152.216 155.634 139.59C157.364 135.01 159.014 130.41 160.724 125.82C160.974 125.15 161.264 124.48 161.574 123.82C161.876 123.05 162.43 122.406 163.146 121.994C163.862 121.581 164.697 121.425 165.514 121.55L179.314 122.94L193.104 124.34C197.884 124.83 202.664 125.34 207.444 125.8L220.704 127.06C221.424 127.13 222.154 127.12 222.874 127.24C227.474 127.97 228.974 129.82 229.234 134.52C229.654 142.52 230.234 150.46 230.714 158.42C230.944 162.14 231.154 165.85 231.364 169.56C231.574 173.27 231.784 176.98 231.994 180.76C232.271 180.985 232.569 181.182 232.884 181.35C244.704 186.01 253.194 194.45 259.694 205.1C262.279 209.16 264.345 213.527 265.844 218.1C265.873 218.188 265.907 218.275 265.944 218.36C267.604 222.36 267.324 223.55 263.744 226.05C260.744 228.17 257.554 230.13 254.414 232.18C254.744 234.69 255.274 237.18 255.354 239.71C255.535 249.141 252.478 258.35 246.694 265.801C240.909 273.252 232.746 278.496 223.564 280.66C209.354 284.07 196.564 280.97 185.744 270.96C179.066 264.79 174.945 256.34 174.194 247.28C173.944 244.77 173.884 242.28 173.714 239.37C158.154 237.97 142.284 236.71 126.304 235.38ZM87.0342 200.65C87.5894 200.706 88.1489 200.706 88.7042 200.65C92.091 199.955 95.5857 199.975 98.9642 200.71C110.684 203.03 118.964 209.63 123.724 220.62C124.204 221.73 125.194 222.62 125.534 223.8C125.8 225.093 125.927 226.41 125.914 227.73C129.124 228.61 156.914 230.88 159.254 230.49C159.634 229.1 159.884 227.67 160.384 226.34C163.948 216.601 169.183 207.559 175.854 199.62C176.364 199.02 176.854 198.39 177.404 197.62L173.994 196.83C169.994 195.92 165.994 195.09 162.094 194.08C161.237 193.863 160.435 193.469 159.739 192.923C159.043 192.377 158.469 191.692 158.053 190.911C157.638 190.131 157.391 189.272 157.327 188.39C157.263 187.508 157.385 186.622 157.684 185.79C157.854 185.27 158.054 184.79 158.254 184.26L166.954 162.26C169.354 156.2 171.814 150.16 174.124 144.06C174.443 143.017 175.052 142.086 175.881 141.378C176.71 140.669 177.724 140.212 178.804 140.06C179.6 139.898 180.405 139.782 181.214 139.71C189.424 139.24 197.504 140.55 205.604 141.52C208.494 141.87 209.604 143.38 209.714 146.34C209.714 146.79 209.714 147.24 209.714 147.7C209.454 157.033 209.191 166.366 208.924 175.7C208.924 176.7 208.924 177.65 208.924 178.86C211.604 178.68 214.194 178.38 216.784 178.38C219.374 178.38 221.964 178.64 224.784 178.81C223.884 163.95 222.994 149.32 222.094 134.41L167.384 129.01C166.894 130.18 166.504 131.08 166.154 132.01C161.094 145.2 156.684 158.64 150.984 171.59C149.785 174.433 148.757 177.345 147.904 180.31C147.534 181.534 146.837 182.635 145.89 183.495C144.942 184.354 143.779 184.94 142.524 185.19C141.098 185.449 139.638 185.472 138.204 185.26C134.134 184.96 130.074 184.6 126.014 184.26C123.014 183.98 120.014 183.62 117.084 183.37C114.154 183.12 110.974 182.92 107.984 182.71C105.734 189.71 98.9042 195.23 88.4842 195.96C88.0542 197.07 87.5942 198.24 87.1842 199.43C87.0888 199.83 87.0385 200.239 87.0342 200.65V200.65ZM181.124 242.91C181.117 244.546 181.2 246.182 181.374 247.81C182.445 254.97 185.935 261.547 191.264 266.447C196.593 271.346 203.44 274.273 210.664 274.74C223.454 275.68 233.864 270.66 241.664 260.5C246.885 253.721 249.234 245.163 248.204 236.67C247.451 229.809 244.299 223.434 239.304 218.67C230.384 209.84 219.624 207.05 207.534 209.98C191.794 213.83 180.834 228.25 181.124 242.91V242.91ZM93.3142 258.6C104.904 259.14 119.104 249.43 119.014 232.8C118.99 229.418 118.301 226.074 116.985 222.959C115.669 219.844 113.753 217.019 111.345 214.644C108.937 212.27 106.085 210.393 102.952 209.121C99.8188 207.849 96.4657 207.206 93.0842 207.23C89.7027 207.253 86.3588 207.943 83.2438 209.259C80.1287 210.575 77.3033 212.491 74.9289 214.899C72.5545 217.307 70.6776 220.159 69.4054 223.292C68.1332 226.425 67.4905 229.778 67.5141 233.16C67.7041 248.42 80.4942 259.08 93.3142 258.6V258.6ZM175.254 232.26C181.334 214.84 193.194 204.09 211.444 202.15C229.924 200.15 243.644 208.37 252.444 225.01L259.294 220.51C259.044 219.87 258.924 219.51 258.784 219.21C258.404 218.29 258.034 217.36 257.624 216.45C253.624 207.57 248.194 199.69 240.314 193.75C231.014 186.75 220.674 183.93 209.084 186.45C201.36 188.215 194.216 191.93 188.334 197.24C178.524 205.78 171.944 216.53 167.214 228.51C166.864 229.4 166.584 230.32 166.214 231.51L175.254 232.26ZM164.764 187.26C165.374 187.46 165.704 187.6 166.044 187.68C171.154 188.84 176.274 189.94 181.364 191.21C182.09 191.432 182.862 191.457 183.6 191.281C184.339 191.105 185.017 190.736 185.564 190.21C189.783 186.751 194.503 183.956 199.564 181.92C200.214 181.66 200.834 181.3 201.484 180.98C201.844 170.12 202.194 159.37 202.554 148.51C195.184 147.43 188.054 146.44 180.694 146.98L164.764 187.26ZM108.624 134.92C108.945 135.167 109.279 135.397 109.624 135.61C115.684 138.61 118.324 143.79 118.024 150.26C117.724 156.73 116.744 162.86 116.174 169.17C115.964 171.46 115.114 173.72 115.604 176.12L120.284 176.49C120.584 174.15 120.894 171.93 121.144 169.7C121.844 163.4 122.614 157.11 123.144 150.8C123.401 148.397 123.146 145.968 122.394 143.672C121.643 141.375 120.412 139.265 118.784 137.48C116.784 135.2 114.784 132.78 111.854 131.25L108.624 134.92ZM100.294 182.05L93.5542 181.52C93.0842 182.82 92.7141 183.83 92.3741 184.85C92.0341 185.87 91.2941 186.85 91.5141 188.12C93.3688 187.911 95.1424 187.244 96.6751 186.179C98.2079 185.114 99.4515 183.685 100.294 182.02V182.05Z" fill="#3558A2"/>
<path d="M35.9937 18C40.718 18.3985 45.195 20.2817 48.7836 23.38C51.3928 25.6576 53.4744 28.4763 54.8836 31.64C56.2236 34.51 57.6336 37.36 59.0236 40.2C60.5901 43.3875 62.9232 46.1363 65.8136 48.2C68.4636 50.11 71.1736 51.94 73.8136 53.79C80.8136 58.62 85.5637 65 87.4937 73.38C89.0922 80.3648 91.7388 87.0674 95.3437 93.26C97.4737 96.92 99.6137 100.67 100.244 104.98C100.784 108.647 101.28 112.313 101.734 115.98C101.834 116.793 101.803 117.617 101.644 118.42C101.564 119.061 101.28 119.66 100.833 120.126C100.386 120.593 99.8008 120.903 99.1636 121.01C96.7836 121.3 94.4237 121.15 92.6937 119.07C91.1337 117.19 89.5237 115.33 87.9837 113.43C83.8797 108.322 78.8819 104.002 73.2337 100.68C69.5157 98.3878 66.2208 95.4717 63.4937 92.06C60.9129 88.8922 58.8844 85.312 57.4937 81.47C56.0837 77.75 54.4936 74.1 52.7736 70.47C51.0668 66.9362 48.4936 63.8917 45.2936 61.62C41.8036 59.02 38.3536 56.35 35.0036 53.62C32.9075 51.8839 30.9267 50.0133 29.0736 48.02C25.5009 44.2059 23.4085 39.2408 23.1736 34.02C22.8288 31.4123 22.9987 28.7623 23.6736 26.22C24.1489 24.5072 25.0721 22.9521 26.3482 21.7147C27.6242 20.4773 29.207 19.6023 30.9336 19.18C32.7536 18.67 34.6137 18.31 35.9937 18ZM93.1736 108.32L93.5336 108.07C93.5336 107.54 93.4537 107 93.3637 106.48C92.5951 103.197 91.24 100.081 89.3637 97.2799C85.2171 90.1449 82.1822 82.4196 80.3637 74.37C79.2637 69.5438 76.5511 65.2368 72.6736 62.16C69.7736 59.84 66.6736 57.71 63.6736 55.63C58.6114 52.3607 54.5655 47.7397 51.9937 42.29C50.7937 39.65 49.5336 37.04 48.2636 34.43C47.2975 32.2677 45.8636 30.3468 44.0651 28.806C42.2666 27.2652 40.1486 26.1429 37.8637 25.52C33.5037 24.28 30.2636 26.77 30.1936 31.2C30.0691 33.7476 30.5153 36.2908 31.4998 38.6438C32.4842 40.9968 33.9819 43.1001 35.8836 44.8C36.9536 45.8 37.9936 46.8 39.1236 47.71C42.4536 50.37 45.7436 53.09 49.2036 55.58C53.7397 58.7983 57.3614 63.1402 59.7137 68.18C61.3005 71.4357 62.7124 74.7738 63.9436 78.18C66.3835 85.2877 71.3044 91.2773 77.8036 95.05C83.0933 98.2683 87.8586 102.278 91.9336 106.94C92.3236 107.4 92.7536 107.86 93.1736 108.32V108.32Z" fill="#3558A2"/>
<path d="M87.0334 200.651C87.0221 200.246 87.0556 199.84 87.1334 199.442C87.5434 198.252 88.0034 197.081 88.4334 195.971C98.8534 195.241 105.683 189.721 107.933 182.721C110.933 182.931 113.933 183.111 117.033 183.381C120.133 183.651 123.033 183.992 125.963 184.272C130.023 184.642 134.083 185.002 138.153 185.272C139.588 185.484 141.047 185.46 142.473 185.202C143.728 184.952 144.892 184.366 145.839 183.506C146.787 182.647 147.483 181.546 147.853 180.321C148.706 177.356 149.735 174.444 150.933 171.601C156.633 158.601 161.043 145.211 166.103 132.021C166.453 131.101 166.843 130.201 167.333 129.021L222.043 134.421C222.943 149.331 223.833 163.961 224.733 178.821C221.953 178.651 219.363 178.382 216.733 178.392C214.103 178.402 211.553 178.691 208.873 178.871C208.873 177.661 208.873 176.692 208.873 175.712C209.133 166.378 209.397 157.045 209.663 147.711C209.663 147.251 209.663 146.801 209.663 146.351C209.583 143.351 208.443 141.881 205.553 141.531C197.453 140.531 189.373 139.251 181.163 139.721C180.354 139.793 179.55 139.91 178.753 140.071C177.674 140.224 176.66 140.681 175.831 141.39C175.002 142.098 174.392 143.029 174.073 144.071C171.763 150.171 169.303 156.211 166.903 162.272L158.203 184.272C158.003 184.782 157.803 185.271 157.633 185.801C157.334 186.634 157.213 187.519 157.276 188.401C157.34 189.283 157.587 190.142 158.003 190.923C158.418 191.704 158.992 192.389 159.688 192.935C160.384 193.48 161.186 193.874 162.043 194.091C165.983 195.091 169.973 195.931 173.943 196.841L177.353 197.632C176.773 198.382 176.353 199.012 175.803 199.632C169.133 207.571 163.898 216.613 160.333 226.351C159.833 227.681 159.583 229.112 159.203 230.502C156.833 230.892 129.073 228.622 125.863 227.742C125.876 226.422 125.749 225.104 125.483 223.812C125.143 222.672 124.153 221.742 123.673 220.632C118.903 209.632 110.673 203.041 98.9134 200.721C95.5349 199.987 92.0402 199.966 88.6534 200.661C88.1144 200.711 87.5718 200.707 87.0334 200.651Z" fill="white"/>
<path d="M181.125 242.911C180.835 228.251 191.795 213.831 207.535 210.011C219.625 207.081 230.385 209.871 239.305 218.701C244.3 223.465 247.452 229.84 248.205 236.701C249.234 245.195 246.886 253.753 241.665 260.531C233.865 270.691 223.455 275.711 210.665 274.771C203.44 274.304 196.594 271.378 191.265 266.478C185.935 261.578 182.445 255.001 181.375 247.841C181.2 246.204 181.116 244.558 181.125 242.911V242.911ZM215.555 230.531C214.852 230.546 214.151 230.602 213.455 230.701C211.111 231.044 208.905 232.02 207.075 233.525C205.246 235.03 203.863 237.007 203.075 239.241C202.173 241.339 201.903 243.655 202.299 245.904C202.695 248.153 203.74 250.237 205.305 251.901C208.365 255.451 212.385 256.701 217.015 256.331C220.143 256.044 223.073 254.672 225.297 252.454C227.521 250.235 228.9 247.309 229.195 244.181C229.715 236.611 223.785 230.541 215.555 230.531V230.531Z" fill="#979FBB"/>
<path d="M93.3144 258.601C80.4944 259.081 67.7043 248.421 67.5143 233.161C67.4907 229.78 68.1333 226.426 69.4055 223.293C70.6778 220.16 72.5547 217.308 74.9291 214.9C77.3035 212.493 80.1288 210.576 83.2439 209.26C86.359 207.944 89.7028 207.255 93.0844 207.231C96.4659 207.207 99.819 207.85 102.952 209.122C106.085 210.395 108.937 212.271 111.345 214.646C113.753 217.02 115.669 219.846 116.985 222.961C118.301 226.076 118.991 229.42 119.014 232.801C119.104 249.431 104.934 259.181 93.3144 258.601ZM83.6643 232.181C83.6043 237.671 87.5344 242.001 92.8344 241.891C95.3605 241.841 97.7658 240.801 99.5318 238.994C101.298 237.186 102.283 234.758 102.274 232.231C102.444 226.391 98.1344 222.651 92.8444 222.481C87.5544 222.311 83.7243 226.631 83.6643 232.181Z" fill="#979FBB"/>
<path d="M175.255 232.261L166.135 231.471C166.545 230.321 166.825 229.401 167.135 228.471C171.865 216.471 178.445 205.741 188.255 197.201C194.136 191.891 201.28 188.177 209.005 186.411C220.595 183.891 230.935 186.701 240.235 193.711C248.115 199.651 253.505 207.531 257.545 216.411C257.955 217.321 258.325 218.251 258.705 219.171C258.845 219.501 258.965 219.831 259.215 220.471L252.365 224.971C243.605 208.331 229.885 200.151 211.365 202.111C193.195 204.091 181.335 214.841 175.255 232.261Z" fill="#EAECF1"/>
<path d="M108.625 134.891L111.865 131.221C114.865 132.751 116.765 135.221 118.795 137.451C120.423 139.236 121.654 141.346 122.405 143.643C123.157 145.939 123.412 148.368 123.155 150.771C122.585 157.081 121.815 163.371 121.155 169.671C120.905 171.901 120.595 174.121 120.295 176.461L115.615 176.091C115.125 173.691 115.975 171.431 116.185 169.141C116.755 162.831 117.745 156.551 118.035 150.231C118.325 143.911 115.695 138.601 109.635 135.581C109.287 135.369 108.949 135.138 108.625 134.891V134.891Z" fill="#979FBB"/>
<path d="M100.293 182.02C99.4468 183.68 98.2015 185.104 96.669 186.163C95.1365 187.223 93.3649 187.885 91.5132 188.09C91.2932 186.86 92.0232 185.87 92.3732 184.82C92.7232 183.77 93.0833 182.82 93.5533 181.49L100.293 182.02Z" fill="white"/>
<path d="M93.174 108.322C92.754 107.862 92.324 107.402 91.914 106.942C87.8436 102.288 83.0852 98.2854 77.804 95.0715C71.2973 91.2958 66.3722 85.2983 63.934 78.1815C62.7028 74.7753 61.2908 71.4373 59.704 68.1815C57.3603 63.1368 53.7454 58.7879 49.214 55.5615C45.754 53.0715 42.464 50.3515 39.134 47.6915C38.004 46.7815 36.964 45.7515 35.894 44.7815C33.9923 43.0816 32.4946 40.9784 31.5102 38.6254C30.5257 36.2724 30.0795 33.7291 30.204 31.1815C30.274 26.7515 33.5139 24.2615 37.8739 25.5015C40.1588 26.1244 42.277 27.2468 44.0755 28.7876C45.874 30.3284 47.3079 32.2492 48.274 34.4115C49.544 37.0215 50.804 39.6315 52.004 42.2715C54.5758 47.7213 58.6218 52.3422 63.684 55.6115C66.754 57.6915 69.814 59.8215 72.684 62.1415C76.5615 65.2184 79.274 69.5253 80.374 74.3515C82.1925 82.4011 85.2273 90.1265 89.374 97.2615C91.2503 100.062 92.6053 103.179 93.374 106.462C93.464 106.982 93.494 107.522 93.544 108.052L93.174 108.322Z" fill="white"/>
<path d="M215.554 230.531C223.784 230.531 229.714 236.611 229.194 244.141C228.909 247.276 227.534 250.212 225.309 252.439C223.084 254.665 220.149 256.043 217.014 256.331C212.384 256.701 208.364 255.451 205.304 251.901C203.74 250.238 202.695 248.153 202.299 245.904C201.903 243.655 202.172 241.339 203.074 239.241C203.862 237.007 205.246 235.031 207.075 233.526C208.904 232.021 211.11 231.044 213.454 230.701C214.15 230.603 214.852 230.546 215.554 230.531ZM215.424 249.231C218.964 249.231 222.064 246.511 222.114 243.381C222.164 240.251 219.364 237.711 216.034 237.711C212.354 237.711 209.544 240.221 209.494 243.551C209.476 244.324 209.619 245.091 209.914 245.805C210.208 246.52 210.649 247.164 211.207 247.699C211.765 248.233 212.428 248.646 213.154 248.909C213.88 249.173 214.654 249.283 215.424 249.231V249.231Z" fill="#3558A2"/>
<path d="M83.6647 232.181C83.7247 226.621 87.6648 222.311 92.8448 222.481C98.0248 222.651 102.445 226.391 102.275 232.231C102.283 234.758 101.298 237.187 99.5322 238.994C97.7663 240.801 95.3609 241.842 92.8348 241.891C87.5348 242.011 83.6047 237.681 83.6647 232.181ZM92.7647 234.531C93.3926 234.478 93.9797 234.198 94.416 233.744C94.8522 233.289 95.1077 232.691 95.1347 232.061C95.1566 231.474 94.9667 230.898 94.5996 230.44C94.2324 229.981 93.7125 229.669 93.1347 229.561C92.5054 229.624 91.9202 229.913 91.488 230.375C91.0557 230.836 90.8059 231.439 90.7847 232.071C90.75 232.364 90.7739 232.661 90.855 232.944C90.9362 233.227 91.0729 233.491 91.2571 233.721C91.4414 233.951 91.6697 234.142 91.9285 234.283C92.1874 234.424 92.4716 234.512 92.7647 234.541V234.531Z" fill="#3558A2"/>
<path d="M215.424 249.231C214.653 249.282 213.88 249.173 213.153 248.909C212.427 248.645 211.764 248.233 211.206 247.699C210.648 247.164 210.208 246.519 209.913 245.805C209.618 245.091 209.475 244.323 209.494 243.551C209.494 240.221 212.354 237.721 216.034 237.711C219.364 237.711 222.164 240.331 222.114 243.381C222.064 246.431 218.934 249.181 215.424 249.231Z" fill="white"/>
<path d="M92.7633 234.54C92.1804 234.47 91.649 234.172 91.2854 233.711C90.9218 233.25 90.7557 232.664 90.8234 232.08C90.8445 231.448 91.0944 230.845 91.5266 230.384C91.9589 229.922 92.544 229.633 93.1734 229.57C93.7512 229.678 94.2711 229.989 94.6382 230.448C95.0054 230.907 95.1953 231.483 95.1734 232.07C95.1454 232.706 94.8843 233.309 94.4397 233.765C93.9952 234.221 93.3984 234.497 92.7633 234.54V234.54Z" fill="white"/>
</svg>
