<svg width="90" height="101" viewBox="0 0 90 101" fill="none" xmlns="http://www.w3.org/2000/svg">
<g clip-path="url(#clip0_5_13418)">
<path d="M21.3376 70.3111C20.2047 70.4397 19.0349 70.8346 17.9341 70.6417C16.1887 70.3341 15.1018 70.9173 13.8537 72.0974C11.5509 74.297 8.32705 74.3107 5.66507 72.5566C5.26475 72.2718 4.80224 72.086 4.31569 72.0147C3.47233 71.9786 2.66076 71.6835 1.99214 71.1697C1.32352 70.6559 0.830536 69.9487 0.580636 69.1447C-0.658244 65.7145 0.120075 62.6701 2.58402 60.0481C3.73079 58.8358 5.246 58.5602 6.84411 58.6429C7.3369 58.6704 7.8297 58.7852 8.4146 58.8725C9.65809 57.4306 11.1779 56.278 13.1721 55.9979C15.1663 55.7178 16.944 56.4571 18.4131 57.7658C19.7349 57.3755 20.9876 56.9255 22.2772 56.6592C23.2811 56.425 24.3306 56.4755 25.3073 56.8049C26.2839 57.1344 27.1487 57.7297 27.8038 58.5235C27.9979 58.7817 28.2506 58.9903 28.5412 59.1324C28.8318 59.2745 29.152 59.3459 29.4756 59.3409C31.7461 59.3776 33.3626 61.0399 33.4915 63.313C33.533 63.9696 33.4915 64.6354 33.4915 65.3334C36.2318 65.5543 38.897 66.3359 41.3209 67.6294C46.8475 70.4488 49.5371 75.1051 50.3338 80.9874C50.9 85.1366 49.8916 89.347 47.5061 92.7932C45.1206 96.2395 41.53 98.6731 37.4384 99.6171C29.2959 101.536 20.6376 96.7746 17.7499 88.5963C15.484 82.1676 16.5018 76.198 20.9231 70.9356C21.0336 70.807 21.1442 70.6831 21.2455 70.5499C21.2902 70.4764 21.3213 70.3955 21.3376 70.3111ZM33.0816 70.8988C32.2757 71.7346 31.5526 72.6071 30.7144 73.3418C28.2551 75.4954 25.7313 77.5572 22.4245 78.3379C21.964 78.4435 21.5034 78.5215 21.0889 78.6639C20.7558 78.7254 20.456 78.9046 20.2446 79.1686C20.0331 79.4326 19.9241 79.7636 19.9375 80.1012C19.9375 81.589 19.7671 83.1043 19.9375 84.5692C20.8586 91.5765 27.3063 97.592 35.2462 96.7747C43.5361 95.916 49.3483 87.4346 46.7324 78.641C46.6894 78.4156 46.5686 78.2124 46.3912 78.0665C46.2137 77.9205 45.9907 77.8411 45.7606 77.842C45.0507 77.8225 44.3443 77.7348 43.6513 77.5802C39.5063 76.4689 35.8311 74.5357 33.0816 70.8988ZM30.2493 65.2783C30.2815 64.6997 30.346 64.1624 30.3276 63.6298C30.2953 62.7114 29.9361 62.2981 29.0933 62.4726C27.5274 62.7894 26.5602 62.1144 25.7451 60.8976C25.4609 60.4256 25.0345 60.0551 24.5267 59.8391C24.0189 59.623 23.4557 59.5724 22.9173 59.6945C21.9741 59.8599 21.0622 60.1697 20.2139 60.6129C18.7125 61.4578 17.5196 61.2924 16.267 60.1077C14.7057 58.6383 13.0431 58.7301 11.4957 60.2225C11.1736 60.5469 10.875 60.8937 10.6022 61.2603C9.56137 62.592 8.93042 62.7573 7.37836 61.9813C6.99423 61.7645 6.55329 61.6687 6.11354 61.7064C5.67379 61.7441 5.25576 61.9136 4.91437 62.1925C3.36232 63.368 2.66231 66.2242 3.50051 68.0013C3.67091 68.3641 4.19593 68.8692 4.46765 68.8187C5.7618 68.5799 6.59077 69.2779 7.49806 69.9804C8.04028 70.4566 8.73492 70.7246 9.45736 70.7364C10.1798 70.7482 10.8828 70.503 11.4404 70.0447C12.009 69.6263 12.5079 69.1211 12.9187 68.5478C14.0701 66.9727 14.48 66.7845 16.3913 67.3584C17.2463 67.6487 18.162 67.7137 19.0497 67.5471C19.9373 67.3806 20.7666 66.9882 21.4574 66.4079C21.9179 66.0452 22.3785 65.6824 22.7976 65.2829C23.1956 64.8483 23.7356 64.5691 24.3212 64.495C24.9067 64.421 25.4996 64.557 25.9938 64.8788C26.6288 65.2562 27.3402 65.488 28.0763 65.5571C28.8124 65.6262 29.5547 65.5309 30.2493 65.2783ZM35.7206 68.7452C36.3101 71.0734 41.8874 74.3658 44.4711 74.3199C42.8223 71.6979 38.8063 68.6947 35.7206 68.7452ZM21.6692 75.2016C24.4555 74.623 29.4065 70.9586 30.6085 68.7039C26.7399 69.6131 23.8476 71.7209 21.6692 75.2016Z" fill="#3558A2"/>
<path d="M17.6532 17.9353C18.2104 17.545 18.6756 17.2098 19.1454 16.8837C20.748 15.7466 22.5757 14.9639 24.5062 14.5877C27.8037 13.9632 29.8532 15.8413 29.54 19.1797C29.5496 19.2897 29.5744 19.3979 29.6137 19.5012C30.0742 19.593 30.5348 19.6756 31.0184 19.7859C36.2134 20.9844 39.884 24.0701 42.1499 28.8366C42.2744 29.1828 42.4726 29.4979 42.731 29.7603C42.9894 30.0227 43.3018 30.2262 43.6467 30.3566C44.1777 30.5973 44.6576 30.9371 45.0605 31.3576C45.8665 32.0831 46.631 32.8546 47.4093 33.6123C47.5592 33.7504 47.6936 33.9043 47.81 34.0715C48.0273 34.3557 48.1396 34.7061 48.1279 35.0633C48.1161 35.4205 47.9811 35.7628 47.7455 36.0323C47.4956 36.2891 47.163 36.4501 46.806 36.487C46.449 36.524 46.0903 36.4345 45.7928 36.2343C45.4773 36.0318 45.1786 35.8046 44.8993 35.5547L43.923 34.7236C43.9034 34.9405 43.9034 35.1587 43.923 35.3756C44.2085 36.519 44.3559 37.5935 43.6558 38.7277C43.2459 39.3982 43.3012 40.3395 43.0525 41.1293C40.9662 47.6821 36.7384 52.0215 29.8624 53.4221C23.4147 54.74 16.7781 51.5485 13.4391 45.657C11.482 42.2689 10.7473 38.3148 11.3574 34.4526C11.4172 34.0971 11.3381 33.7323 11.1364 33.4332C9.45997 31.5229 9.46457 29.3555 10.0863 27.0825C10.7227 24.818 12.037 22.8011 13.8536 21.3012C14.5122 20.7318 14.8669 20.2267 14.503 19.2899C14.3596 18.686 14.3596 18.057 14.503 17.4531C14.5356 17.053 14.7119 16.6779 14.9996 16.397C15.2872 16.1161 15.667 15.9481 16.0689 15.924C16.8104 15.924 17.3124 16.3832 17.5426 17.3383C17.5611 17.499 17.5979 17.6506 17.6532 17.9353ZM15.7649 43.2921C16.5599 45.1243 17.8203 46.7181 19.4217 47.9163C23.6726 51.1307 28.2965 51.5393 32.9619 49.101C37.8667 46.5295 40.3307 42.2544 40.5471 36.7348C40.5521 36.3057 40.468 35.8801 40.3 35.4849C40.1319 35.0898 39.8836 34.7336 39.5708 34.4389C39.4556 35.0312 39.3451 35.472 39.2898 35.9221C39.1793 36.7899 39.1286 37.6624 38.9997 38.5257C38.8431 39.5635 38.1661 40.2477 37.3325 40.2844C36.4989 40.3212 35.8633 39.7518 35.564 38.7874C35.4166 38.3282 35.3199 37.8231 35.1034 37.0609C34.8455 37.8369 34.6705 38.3742 34.4817 38.8976C34.1409 39.8757 33.4362 40.3395 32.6072 40.142C32.4013 40.0946 32.2076 40.0049 32.0385 39.8785C31.8694 39.7522 31.7285 39.5921 31.625 39.4085C31.5214 39.2248 31.4574 39.0217 31.437 38.8119C31.4166 38.6022 31.4402 38.3905 31.5065 38.1905C31.9783 36.5167 32.5788 34.8818 33.3027 33.3001C33.6777 32.6067 34.2884 32.0694 35.0251 31.7847C35.5732 31.5826 36.3331 31.9454 36.9318 32.051L39.1977 30.0581C38.2229 27.7751 36.5749 25.8415 34.4726 24.5138C32.3702 23.186 29.9128 22.5269 27.426 22.6237C27.059 22.63 26.7037 22.754 26.4129 22.9773C24.1423 25.062 21.9041 27.1881 19.7487 29.2132C19.9287 31.7019 19.6683 34.2028 18.9796 36.6017C18.3819 39.0306 17.284 41.309 15.7557 43.2921H15.7649ZM13.0477 30.5494C13.3924 30.3483 13.7233 30.1244 14.0379 29.879C17.9556 26.3248 21.8688 22.763 25.7773 19.1935C25.9552 19.0213 26.11 18.8268 26.2378 18.6149C26.5602 18.096 26.4036 17.6965 25.8095 17.646C25.3952 17.593 24.9742 17.6371 24.5799 17.7746C23.3226 18.3072 21.9501 18.7297 20.8955 19.5287C18.8723 21.0663 16.9452 22.7255 15.1248 24.4972C14.3698 25.3251 13.7652 26.2776 13.3378 27.3121C12.8522 28.3209 12.7491 29.4708 13.0477 30.5494ZM16.5202 32.1383C15.0695 32.8868 14.5629 33.2679 14.503 33.9016C14.3372 35.6557 14.0424 37.419 14.5767 39.4119C15.6912 37.0149 16.511 34.7649 16.5202 32.1383Z" fill="#3558A2"/>
<path d="M75.4246 45.9233C76.3457 44.8304 77.0457 43.9166 77.8148 43.0441C78.4143 42.3493 79.054 41.6899 79.7307 41.0696C80.0087 40.7825 80.3667 40.5853 80.7584 40.5035C81.15 40.4216 81.5573 40.4588 81.9275 40.6104C82.3277 40.7538 82.6696 41.0242 82.9009 41.38C83.1321 41.7359 83.24 42.1575 83.2078 42.5803C83.1434 44.0681 82.9638 45.5559 82.8256 47.0437C82.798 47.3605 82.7565 47.682 82.7059 48.155C83.5625 47.7784 84.2671 47.4294 85.0086 47.1631C85.8575 46.82 86.7342 46.5496 87.6292 46.3549C89.3839 46.0427 90.4661 47.3789 89.8029 49.0412C89.4242 49.9236 88.9615 50.7677 88.4213 51.5622C87.5509 52.9398 86.6113 54.2531 85.6948 55.6123C86.6895 57.5143 87.3367 59.5777 87.6061 61.7059C88.6654 70.3709 82.8532 78.641 74.1488 80.0232C67.1255 81.1345 58.573 76.74 56.3762 67.6249C55.1833 62.6977 56.0814 58.1287 58.9092 53.9362C59.0792 53.6877 59.197 53.4074 59.2556 53.1122C59.3141 52.8171 59.3122 52.5132 59.25 52.2189C58.9599 49.8678 58.7895 47.4983 58.6237 45.1334C58.5583 44.7161 58.6231 44.2888 58.8092 43.9094C58.9954 43.5299 59.294 43.2167 59.6645 43.0119C60.5396 42.5527 61.3824 42.8099 62.1239 43.3563C63.5378 44.3941 64.924 45.4687 66.3195 46.5248C66.4807 46.6488 66.6511 46.7498 66.978 46.984L68.9262 41.9328C69.0898 41.418 69.2883 40.9147 69.5203 40.4267C69.6503 40.1381 69.8543 39.8888 70.1117 39.7039C70.3691 39.519 70.6708 39.405 70.9864 39.3733C71.3021 39.3416 71.6206 39.3935 71.9097 39.5236C72.1989 39.6537 72.4486 39.8575 72.6336 40.1144C72.956 40.5385 73.2237 41.0014 73.4304 41.492C74.0797 42.9018 74.7061 44.3023 75.4246 45.9233ZM84.6724 63.7676C84.5158 62.6564 84.4329 61.5314 84.2119 60.4431C83.5589 57.3461 81.8015 54.5904 79.2656 52.6872C77.8638 51.6213 76.2445 50.8751 74.5219 50.5015C73.3303 50.2807 72.1154 50.2128 70.9066 50.2994C70.2705 50.3415 69.6399 50.4429 69.0229 50.6025C68.8065 50.6622 68.5393 50.7357 68.0603 50.9056C66.7754 51.3648 65.8037 51.8239 65.7254 51.8561C63.8832 52.7745 56.0538 65.2738 62.2943 72.5199C65.426 76.1613 69.4374 77.7089 74.1626 76.8088C80.3847 75.5966 84.5296 70.2882 84.6724 63.7676ZM64.3575 48.954L61.7785 47.1172L62.1239 50.428L64.3575 48.954ZM79.8596 45.7396L79.7031 45.6615L77.5799 48.2698L79.353 49.1055C79.5326 47.907 79.6938 46.8233 79.8596 45.7396ZM71.3257 44.5319L70.3124 47.085H72.4908L71.3257 44.5319ZM83.7881 52.7699C84.2947 52.0397 84.7092 51.3923 85.1698 50.7678L84.9902 50.5841L82.6874 51.6127L83.7881 52.7699Z" fill="#3558A2"/>
<path d="M69.7229 8.23709C68.1018 7.48401 67.4662 6.20744 67.2728 4.61862C67.1804 4.05957 67.2532 3.48582 67.4821 2.96726C67.7111 2.44871 68.0864 2.00775 68.5623 1.69814C69.5756 0.977203 70.6579 0.669544 71.8415 1.29864C72.4489 1.58322 72.9914 1.98872 73.4357 2.49019C73.8801 2.99165 74.2168 3.57846 74.4251 4.21453C74.4942 4.44413 74.5955 4.67375 74.7383 5.0411C75.2311 4.73344 75.6594 4.49465 76.0417 4.22372C76.2812 4.063 76.4654 3.81964 76.7095 3.65892C76.9971 3.44734 77.3489 3.34057 77.706 3.35645C78.063 3.37233 78.4038 3.5099 78.6714 3.74617C78.9506 3.97872 79.1265 4.31167 79.161 4.67274C79.1955 5.03382 79.0858 5.39388 78.8556 5.6748C78.3489 6.278 77.7809 6.82733 77.1608 7.3141C76.9036 7.53553 76.5974 7.69291 76.2673 7.7733C74.0843 8.27382 72.5553 9.70653 71.1599 11.3229C72.7129 12.339 74.0372 13.6657 75.0488 15.219C76.0604 16.7723 76.7373 18.5182 77.0365 20.3461C78.2616 27.1284 73.3106 33.8924 66.4714 34.9394C59.3651 36.0231 51.4713 30.9352 51.1858 22.1278C50.9785 15.621 55.4689 10.6479 61.3179 9.43561C62.9146 9.08298 64.5671 9.06266 66.1721 9.37592C67.5077 9.62847 68.5531 8.89374 69.7229 8.23709ZM64.0858 12.3239C62.8403 12.2848 61.5993 12.4918 60.4344 12.9329C59.2695 13.3741 58.2036 14.0407 57.2981 14.8943C56.3927 15.748 55.6657 16.7718 55.1589 17.9069C54.6521 19.0419 54.3755 20.2658 54.3452 21.5079C54.3059 22.8421 54.5313 24.171 55.0084 25.4182C55.4855 26.6654 56.2048 27.8064 57.1252 28.7757C58.0456 29.745 59.149 30.5236 60.3719 31.0667C61.5948 31.6099 62.9133 31.9069 64.2516 31.9408C66.7615 32.003 69.1948 31.0769 71.0248 29.3631C72.8548 27.6494 73.9342 25.2859 74.0291 22.7844C74.2455 17.6047 70.0683 12.2643 64.0858 12.3239Z" fill="#3558A2"/>
<path d="M33.0815 70.8989C35.8448 74.5358 39.5292 76.469 43.6742 77.5802C44.3672 77.7348 45.0736 77.8225 45.7835 77.842C46.0135 77.8412 46.2366 77.9206 46.4141 78.0665C46.5916 78.2124 46.7123 78.4157 46.7553 78.641C49.3712 87.4346 43.5683 95.9159 35.2691 96.7746C27.3339 97.592 20.8677 91.5765 19.9604 84.5692C19.7716 83.1043 19.9604 81.589 19.9604 80.1012C19.947 79.7637 20.056 79.4326 20.2675 79.1686C20.4789 78.9047 20.7787 78.7255 21.1118 78.6639C21.5447 78.5216 22.0007 78.4435 22.4474 78.3379C25.7404 77.5573 28.2642 75.4955 30.7373 73.3419C31.5525 72.6072 32.2756 71.7347 33.0815 70.8989ZM33.3625 89.7259C34.0016 89.6598 34.6325 89.5306 35.2461 89.3402C36.5172 88.8167 37.5489 88.004 37.8114 86.53C37.8718 86.2115 37.8249 85.8821 37.678 85.593C37.5312 85.3039 37.2926 85.0713 36.9994 84.9314C36.7062 84.7915 36.3749 84.7522 36.0569 84.8196C35.739 84.8869 35.4523 85.0573 35.2415 85.3039C35.0942 85.4509 34.9836 85.6299 34.85 85.7907C34.0947 86.6815 33.2519 86.755 32.3769 85.9789C32.0683 85.7034 31.8196 85.359 31.5064 85.0881C31.2484 84.8421 30.913 84.6927 30.5572 84.6651C30.2013 84.6375 29.8468 84.7334 29.5537 84.9366C29.265 85.1514 29.0636 85.4628 28.9867 85.8137C28.9097 86.1646 28.9622 86.5314 29.1346 86.8468C29.5456 87.6379 30.1469 88.315 30.8847 88.8175C31.6226 89.3199 32.4739 89.6321 33.3625 89.7259ZM32.2433 81.3365C32.2558 80.9158 32.1003 80.5074 31.811 80.2009C31.5218 79.8945 31.1223 79.7149 30.7005 79.7017C30.2786 79.7155 29.8777 79.8888 29.5792 80.1864C29.2807 80.484 29.1069 80.8836 29.0931 81.3043C29.0879 81.7254 29.2468 82.1321 29.5363 82.4387C29.8258 82.7454 30.2233 82.9281 30.6452 82.9483C31.0681 82.9354 31.4699 82.7608 31.7674 82.4608C32.0649 82.1608 32.2353 81.7583 32.2433 81.3365ZM37.8022 81.5293C37.8155 81.3257 37.787 81.1215 37.7185 80.9292C37.65 80.737 37.5429 80.5606 37.4038 80.411C37.2647 80.2613 37.0964 80.1415 36.9093 80.0589C36.7222 79.9763 36.5201 79.9326 36.3155 79.9304C36.1109 79.9282 35.9079 79.9676 35.7191 80.0462C35.5302 80.1248 35.3595 80.241 35.2171 80.3876C35.0748 80.5342 34.964 80.7083 34.8913 80.899C34.8187 81.0898 34.7859 81.2933 34.7948 81.4972C34.8115 81.881 34.9752 82.2437 35.252 82.5109C35.5289 82.778 35.898 82.9292 36.2832 82.9333C36.6685 82.9374 37.0406 82.7942 37.3232 82.533C37.6057 82.2719 37.7771 81.9126 37.8022 81.5293Z" fill="#979FBB"/>
<path d="M30.2492 65.2787C29.5536 65.5272 28.8113 65.6183 28.076 65.5452C27.3408 65.4721 26.631 65.2368 25.9983 64.8563C25.5041 64.5345 24.9113 64.3985 24.3257 64.4725C23.7402 64.5466 23.2001 64.8258 22.8021 65.2604C22.3738 65.6599 21.9178 66.0226 21.4619 66.3854C20.7712 66.9656 19.9418 67.358 19.0542 67.5246C18.1666 67.6911 17.2508 67.6262 16.3958 67.336C14.4846 66.762 14.0931 66.9502 12.9233 68.5253C12.5125 69.0986 12.0136 69.6038 11.4449 70.0223C10.8874 70.4805 10.1843 70.7256 9.4619 70.7139C8.73945 70.7021 8.04482 70.4341 7.50259 69.958C6.58149 69.2646 5.76633 68.5574 4.47219 68.7962C4.20046 68.8467 3.67545 68.337 3.50504 67.9788C2.66684 66.2017 3.36685 63.3455 4.91891 62.17C5.2603 61.8911 5.67832 61.7216 6.11807 61.6839C6.55782 61.6462 6.99871 61.742 7.38284 61.9587C8.93029 62.7348 9.56125 62.5695 10.6067 61.2378C10.8795 60.8712 11.1781 60.5244 11.5002 60.2C13.0661 58.7122 14.724 58.6158 16.2715 60.0852C17.5242 61.2699 18.717 61.4352 20.2184 60.5903C21.0667 60.1471 21.9786 59.8373 22.9219 59.6719C23.4602 59.5499 24.0235 59.6005 24.5313 59.8165C25.0391 60.0326 25.4654 60.403 25.7496 60.875C26.5648 62.0919 27.5319 62.7669 29.0978 62.4501C29.9406 62.2756 30.2999 62.7027 30.3321 63.6073C30.3459 64.1537 30.2814 64.7001 30.2492 65.2787Z" fill="#EAECF1"/>
<path d="M35.7205 68.7453C38.8062 68.6947 42.8222 71.6979 44.471 74.3199C41.8873 74.3658 36.31 71.0734 35.7205 68.7453Z" fill="#EAECF1"/>
<path d="M21.6693 75.2017C23.8477 71.721 26.7353 69.6133 30.6086 68.7041C29.4065 70.9587 24.4556 74.6231 21.6693 75.2017Z" fill="#EAECF1"/>
<path d="M15.7556 43.2921C17.2828 41.3117 18.3806 39.0366 18.9795 36.6109C19.6734 34.2161 19.9399 31.7183 19.767 29.2316C21.9224 27.2065 24.1607 25.0988 26.4312 22.9957C26.7221 22.7724 27.0773 22.6484 27.4444 22.6421C29.9311 22.5453 32.3886 23.2045 34.4909 24.5322C36.5933 25.86 38.2412 27.7935 39.216 30.0765L36.9502 32.0694C36.3514 31.9638 35.5685 31.6102 35.0435 31.8031C34.3068 32.0878 33.6961 32.6251 33.321 33.3184C32.5972 34.9001 31.9967 36.5351 31.5249 38.2089C31.4586 38.4089 31.4349 38.6206 31.4553 38.8303C31.4757 39.04 31.5397 39.2431 31.6433 39.4268C31.7469 39.6104 31.8877 39.7705 32.0569 39.8969C32.226 40.0232 32.4197 40.113 32.6256 40.1604C33.4546 40.3579 34.1592 39.8941 34.5 38.916C34.6888 38.3788 34.8639 37.8415 35.1218 37.0793C35.3152 37.8415 35.4119 38.3329 35.5823 38.8058C35.8817 39.7701 36.5679 40.3395 37.3508 40.3028C38.1338 40.2661 38.8614 39.5818 39.018 38.5441C39.147 37.6808 39.1976 36.8083 39.3082 35.9405C39.3634 35.4813 39.474 35.0496 39.5891 34.4572C39.902 34.752 40.1503 35.1082 40.3183 35.5033C40.4864 35.8985 40.5705 36.324 40.5655 36.7532C40.3444 42.2635 37.8851 46.5478 32.9802 49.1193C28.3148 51.5576 23.6909 51.1352 19.44 47.9346C17.8259 46.7349 16.5556 45.1342 15.7556 43.2921ZM28.7063 29.1352C28.5082 29.1225 28.3096 29.1508 28.123 29.2182C27.9364 29.2856 27.7658 29.3907 27.6218 29.5269C27.4778 29.6631 27.3636 29.8275 27.2864 30.0098C27.2091 30.1921 27.1704 30.3883 27.1727 30.5862C27.1567 30.7834 27.182 30.9816 27.2472 31.1685C27.3123 31.3553 27.4157 31.5265 27.5509 31.6713C27.6861 31.816 27.8501 31.9311 28.0324 32.0091C28.2147 32.0871 28.4112 32.1264 28.6096 32.1245C29.0086 32.1137 29.3872 31.9458 29.6625 31.6576C29.9378 31.3693 30.0874 30.9842 30.0787 30.5862C30.0887 30.4008 30.0609 30.2152 29.9971 30.0407C29.9333 29.8662 29.8347 29.7064 29.7074 29.5709C29.5801 29.4353 29.4266 29.3269 29.2561 29.252C29.0857 29.1771 28.9018 29.1374 28.7155 29.1352H28.7063ZM35.2784 29.0938C35.2766 28.9071 35.2378 28.7226 35.1643 28.5508C35.0909 28.379 34.9841 28.2234 34.8501 28.0929C34.7162 27.9623 34.5578 27.8594 34.3839 27.7901C34.21 27.7207 34.0241 27.6863 33.8368 27.6887C33.5439 27.6843 33.2564 27.7676 33.0115 27.9278C32.7665 28.088 32.5754 28.3178 32.4628 28.5875C32.3502 28.8571 32.3213 29.1542 32.3798 29.4404C32.4383 29.7266 32.5816 29.9888 32.791 30.193C33.0005 30.3971 33.2665 30.534 33.5548 30.5858C33.8431 30.6377 34.1404 30.6021 34.4082 30.4838C34.6761 30.3654 34.9021 30.1697 35.0572 29.9219C35.2124 29.6742 35.2894 29.3857 35.2784 29.0938Z" fill="#EAECF1"/>
<path d="M13.0476 30.5496C12.7548 29.4781 12.8578 28.3374 13.3377 27.3353C13.7651 26.3007 14.3697 25.3482 15.1247 24.5204C16.9451 22.7487 18.8722 21.0895 20.8954 19.5519C21.9638 18.7529 23.3363 18.3304 24.5798 17.7978C24.9741 17.6603 25.3951 17.6163 25.8094 17.6692C26.4035 17.7243 26.5601 18.1284 26.2377 18.6381C26.1099 18.85 25.9551 19.0445 25.7772 19.2167C21.8686 22.7801 17.9555 26.3419 14.0378 29.9022C13.7225 30.1397 13.3917 30.356 13.0476 30.5496Z" fill="#979FBB"/>
<path d="M16.5203 32.1382C16.5203 34.7694 15.6912 37.0148 14.5767 39.3935C14.0425 37.4189 14.3373 35.6556 14.5031 33.8831C14.5629 33.2678 15.0695 32.8867 16.5203 32.1382Z" fill="white"/>
<path d="M70.8928 50.2998C73.882 50.0094 76.8702 50.8631 79.2518 52.6876C81.7877 54.5908 83.5451 57.3465 84.1981 60.4434C84.433 61.5317 84.5159 62.6568 84.6586 63.768C84.5159 70.2886 80.3709 75.5969 74.1351 76.7862C69.4098 77.7046 65.3846 76.1388 62.2667 72.4973C56.7401 66.0686 58.4349 55.9663 65.6977 51.8335L70.8928 50.2998ZM72.2652 67.6528C73.4838 67.6216 74.656 67.1798 75.5904 66.3992C75.9178 66.1682 76.1435 65.8204 76.2206 65.428C76.2978 65.0356 76.2205 64.6287 76.0049 64.2915C75.7862 63.983 75.4642 63.7625 75.0968 63.6699C74.7294 63.5772 74.341 63.6185 74.0015 63.7863C71.275 64.8517 71.275 64.8517 69.396 62.62C69.1942 62.3529 68.9082 62.161 68.5839 62.0753C68.2597 61.9896 67.916 62.015 67.608 62.1474C67.2999 62.2798 67.0454 62.5115 66.8852 62.8054C66.7251 63.0993 66.6686 63.4383 66.7248 63.768C66.7883 64.1778 66.9356 64.5701 67.1577 64.9206C68.2584 66.638 69.7921 67.662 72.279 67.6758L72.2652 67.6528ZM75.0285 59.1669C74.6138 59.1938 74.2238 59.373 73.9337 59.6698C73.6437 59.9666 73.4743 60.36 73.4581 60.774C73.4691 61.1942 73.647 61.5928 73.9527 61.8821C74.2585 62.1715 74.667 62.3279 75.0884 62.3169C75.5098 62.306 75.9096 62.1286 76.1998 61.8237C76.49 61.5189 76.6468 61.1115 76.6358 60.6914C76.625 60.2846 76.4533 59.8985 76.1583 59.6173C75.8633 59.336 75.4689 59.1824 75.0608 59.1898L75.0285 59.1669ZM70.9112 59.548C70.9075 59.2675 70.8202 58.9945 70.6604 58.7637C70.5007 58.5328 70.2756 58.3545 70.014 58.2514C69.7524 58.1484 69.4659 58.1252 69.1911 58.1849C68.9162 58.2446 68.6653 58.3844 68.4703 58.5865C68.2753 58.7887 68.1451 59.0441 68.0961 59.3203C68.047 59.5965 68.0815 59.881 68.195 60.1377C68.3085 60.3943 68.496 60.6114 68.7337 60.7615C68.9713 60.9117 69.2483 60.9879 69.5296 60.9807C69.7172 60.9851 69.9039 60.9514 70.078 60.8816C70.2522 60.8117 70.4103 60.7072 70.5426 60.5744C70.6749 60.4417 70.7786 60.2834 70.8476 60.1092C70.9165 59.9351 70.9491 59.7489 70.9434 59.5618L70.9112 59.548Z" fill="white"/>
<path d="M64.3576 48.954L62.1239 50.428L61.7785 47.1172L64.3576 48.954Z" fill="white"/>
<path d="M79.8597 45.7397C79.6939 46.8234 79.5327 47.9071 79.3531 49.1056L77.58 48.2699L79.7031 45.6616L79.8597 45.7397Z" fill="white"/>
<path d="M71.3257 44.5322L72.4908 47.0854H70.3124L71.3257 44.5322Z" fill="white"/>
<path d="M83.7883 52.7698L82.7014 51.6126L85.0042 50.584L85.1838 50.7677C84.7324 51.4014 84.2949 52.0396 83.7883 52.7698Z" fill="white"/>
<path d="M64.0858 12.324C70.073 12.2506 74.2594 17.6048 74.0292 22.7616C73.9343 25.263 72.8549 27.6266 71.0249 29.3403C69.1949 31.0541 66.7615 31.9802 64.2517 31.918C62.9134 31.8841 61.5949 31.587 60.372 31.0439C59.1491 30.5007 58.0457 29.7222 57.1253 28.7528C56.2049 27.7835 55.4856 26.6425 55.0085 25.3953C54.5314 24.1481 54.306 22.8193 54.3452 21.485C54.3786 20.2449 54.6574 19.0235 55.1655 17.8911C55.6736 16.7587 56.4012 15.7376 57.3063 14.8863C58.2114 14.0351 59.2762 13.3705 60.4397 12.9308C61.6031 12.4911 62.8422 12.2849 64.0858 12.324ZM64.703 26.6739C65.207 26.6153 65.7059 26.5186 66.1952 26.3846C66.5408 26.2875 66.8374 26.065 67.0266 25.7607C67.2159 25.4564 67.284 25.0926 67.2176 24.7407C67.195 24.3835 67.0339 24.0489 66.7682 23.8081C66.5026 23.5672 66.1534 23.4389 65.7945 23.4504C64.049 23.6478 62.6213 23.331 61.5437 21.7973C61.1752 21.2692 60.4475 21.2462 59.8258 21.5769C59.526 21.7332 59.2923 21.9915 59.1673 22.3049C59.0422 22.6184 59.034 22.9661 59.1441 23.2851C59.2342 23.6008 59.3775 23.899 59.5679 24.1667C60.7469 25.8887 62.4601 26.5775 64.703 26.6739ZM62.3266 20.4105C62.5359 20.4028 62.7416 20.354 62.932 20.267C63.1224 20.1799 63.2937 20.0564 63.4362 19.9032C63.5786 19.7501 63.6894 19.5705 63.7621 19.3747C63.8349 19.1789 63.8682 18.9707 63.8602 18.762C63.8193 18.3431 63.6189 17.9557 63.3002 17.6798C62.9814 17.4039 62.5687 17.2603 62.1469 17.2788C61.7454 17.3222 61.376 17.5177 61.1149 17.8249C60.8539 18.1322 60.7212 18.5277 60.7443 18.9297C60.7673 19.3317 60.9444 19.7096 61.2388 19.9851C61.5333 20.2607 61.9227 20.413 62.3266 20.4105ZM68.4196 20.911C68.4172 20.5124 68.2564 20.1309 67.9724 19.8503C67.6883 19.5697 67.3043 19.4128 66.9045 19.414C66.6964 19.4091 66.4894 19.4459 66.2959 19.5224C66.1024 19.5988 65.9263 19.7132 65.7781 19.8589C65.6299 20.0045 65.5125 20.1784 65.433 20.3702C65.3536 20.562 65.3136 20.7678 65.3155 20.9753C65.3104 21.173 65.3458 21.3698 65.4195 21.5534C65.4932 21.7371 65.6038 21.9038 65.7443 22.0435C65.8848 22.1832 66.0524 22.2928 66.2368 22.3658C66.4212 22.4387 66.6186 22.4734 66.8169 22.4677C67.0254 22.4732 67.2329 22.437 67.4271 22.3613C67.6214 22.2855 67.7984 22.1717 67.9478 22.0266C68.0972 21.8815 68.2159 21.708 68.297 21.5164C68.378 21.3248 68.4197 21.119 68.4196 20.911Z" fill="#979FBB"/>
<path d="M33.3625 89.7262C32.474 89.6323 31.6227 89.3202 30.8848 88.8177C30.147 88.3152 29.5456 87.6381 29.1347 86.847C28.9623 86.5316 28.9097 86.1648 28.9867 85.8139C29.0637 85.463 29.265 85.1516 29.5538 84.9368C29.8468 84.7336 30.2013 84.6377 30.5572 84.6653C30.9131 84.6929 31.2485 84.8423 31.5065 85.0883C31.8197 85.3592 32.0684 85.7036 32.3769 85.9792C33.252 86.7552 34.0948 86.6817 34.8501 85.7909C34.9836 85.6301 35.0942 85.4511 35.2416 85.3041C35.4524 85.0575 35.7391 84.8872 36.057 84.8198C36.3749 84.7524 36.7063 84.7917 36.9995 84.9316C37.2927 85.0715 37.5312 85.3041 37.6781 85.5932C37.8249 85.8823 37.8718 86.2117 37.8114 86.5302C37.5627 88.0042 36.5173 88.8261 35.2461 89.3404C34.6326 89.5308 34.0016 89.66 33.3625 89.7262Z" fill="#3558A2"/>
<path d="M32.2435 81.3369C32.2354 81.7587 32.065 82.1612 31.7675 82.4612C31.47 82.7612 31.0682 82.9358 30.6453 82.9486C30.2234 82.9285 29.8259 82.7458 29.5364 82.4391C29.2469 82.1325 29.088 81.7258 29.0933 81.3047C29.1071 80.8841 29.2808 80.4844 29.5793 80.1868C29.8778 79.8892 30.2787 79.7159 30.7006 79.7021C31.1225 79.7153 31.5219 79.8949 31.8111 80.2014C32.1004 80.5078 32.2559 80.9162 32.2435 81.3369Z" fill="#3558A2"/>
<path d="M37.8022 81.5292C37.7772 81.9125 37.6057 82.2718 37.3232 82.5329C37.0406 82.7941 36.6685 82.9373 36.2832 82.9332C35.898 82.9291 35.5289 82.7779 35.2521 82.5108C34.9752 82.2436 34.8115 81.8809 34.7948 81.4971C34.7859 81.2932 34.8187 81.0897 34.8913 80.8989C34.964 80.7082 35.0748 80.5341 35.2171 80.3875C35.3595 80.2409 35.5302 80.1247 35.7191 80.0461C35.9079 79.9674 36.1109 79.9281 36.3155 79.9303C36.5201 79.9324 36.7222 79.9762 36.9093 80.0588C37.0964 80.1414 37.2647 80.2612 37.4038 80.4109C37.5429 80.5605 37.65 80.7369 37.7185 80.9291C37.787 81.1214 37.8155 81.3256 37.8022 81.5292Z" fill="#3558A2"/>
<path d="M28.7155 29.1352C28.9033 29.1349 29.0892 29.1729 29.2618 29.2466C29.4345 29.3204 29.5902 29.4285 29.7195 29.5643C29.8488 29.7001 29.949 29.8608 30.0139 30.0365C30.0788 30.2122 30.1072 30.3993 30.0972 30.5863C30.1058 30.9842 29.9561 31.3694 29.6809 31.6577C29.4056 31.9459 29.027 32.1138 28.628 32.1246C28.4296 32.1265 28.233 32.0872 28.0508 32.0092C27.8685 31.9311 27.7046 31.8161 27.5694 31.6713C27.4342 31.5266 27.3307 31.3553 27.2655 31.1685C27.2004 30.9817 27.1751 30.7834 27.1911 30.5863C27.1888 30.3892 27.2273 30.1938 27.3041 30.0122C27.3808 29.8305 27.4941 29.6666 27.6371 29.5305C27.7801 29.3944 27.9496 29.2891 28.1351 29.2211C28.3206 29.1531 28.5182 29.1239 28.7155 29.1352Z" fill="#3558A2"/>
<path d="M35.2876 29.0938C35.2941 29.3793 35.215 29.6603 35.0605 29.9008C34.9061 30.1414 34.6832 30.3306 34.4205 30.4443C34.1577 30.5581 33.8669 30.5911 33.5851 30.5393C33.3034 30.4876 33.0436 30.3533 32.8387 30.1536C32.6339 29.954 32.4934 29.698 32.4351 29.4183C32.3768 29.1387 32.4034 28.8481 32.5115 28.5836C32.6196 28.3191 32.8043 28.0927 33.042 27.9333C33.2797 27.7739 33.5597 27.6887 33.8461 27.6886C34.0334 27.6862 34.2193 27.7206 34.3932 27.79C34.5671 27.8594 34.7255 27.9623 34.8594 28.0928C34.9933 28.2233 35.1001 28.3789 35.1736 28.5507C35.2471 28.7225 35.2858 28.907 35.2876 29.0938Z" fill="#3558A2"/>
<path d="M72.2792 67.6757C69.7922 67.6757 68.2632 66.6379 67.1486 64.9205C66.9266 64.57 66.7792 64.1776 66.7157 63.7679C66.6595 63.4382 66.716 63.0991 66.8762 62.8053C67.0363 62.5114 67.2909 62.2797 67.5989 62.1473C67.9069 62.0149 68.2506 61.9895 68.5749 62.0752C68.8991 62.1609 69.1851 62.3527 69.3869 62.6199C71.289 64.8516 71.289 64.8516 73.9924 63.7862C74.3319 63.6184 74.7204 63.5771 75.0877 63.6697C75.4551 63.7624 75.7772 63.9828 75.9958 64.2914C76.2115 64.6285 76.2887 65.0355 76.2116 65.4279C76.1344 65.8203 75.9087 66.1681 75.5813 66.3991C74.6561 67.1831 73.4926 67.6329 72.2792 67.6757Z" fill="#3558A2"/>
<path d="M75.0609 59.1896C75.2676 59.1816 75.4738 59.215 75.6672 59.2878C75.8607 59.3606 76.0376 59.4714 76.1874 59.6135C76.3373 59.7556 76.457 59.9263 76.5396 60.1153C76.6222 60.3044 76.6659 60.508 76.6682 60.7142C76.6792 61.1344 76.5223 61.5417 76.2321 61.8465C75.9419 62.1514 75.5422 62.3289 75.1208 62.3398C74.6994 62.3508 74.2908 62.1943 73.9851 61.905C73.6793 61.6156 73.5014 61.217 73.4904 60.7968C73.5066 60.3828 73.6761 59.9894 73.9661 59.6926C74.2562 59.3958 74.6462 59.2166 75.0609 59.1896Z" fill="#3558A2"/>
<path d="M70.9435 59.5614C70.9362 59.841 70.8458 60.1122 70.6839 60.3406C70.522 60.569 70.2958 60.7444 70.034 60.8446C69.7721 60.9449 69.4863 60.9654 69.2127 60.9038C68.939 60.8421 68.6899 60.7009 68.4968 60.498C68.3037 60.2952 68.1752 60.0398 68.1276 59.7642C68.08 59.4886 68.1155 59.205 68.2295 58.9495C68.3435 58.6939 68.5309 58.4778 68.7681 58.3284C69.0052 58.1791 69.2815 58.1032 69.5619 58.1103C69.7497 58.1101 69.9356 58.148 70.1082 58.2218C70.2809 58.2955 70.4366 58.4036 70.5659 58.5394C70.6952 58.6752 70.7954 58.8359 70.8603 59.0116C70.9253 59.1874 70.9536 59.3744 70.9435 59.5614Z" fill="#3558A2"/>
<path d="M64.7031 26.6738C62.4602 26.5774 60.7469 25.8886 59.5679 24.1666C59.3775 23.8988 59.2342 23.6007 59.1442 23.2849C59.034 22.966 59.0422 22.6182 59.1673 22.3048C59.2924 21.9914 59.526 21.7331 59.8258 21.5767C60.4475 21.2461 61.1752 21.2691 61.5437 21.7971C62.6214 23.3309 64.0491 23.6339 65.7946 23.4502C66.1534 23.4388 66.5026 23.5671 66.7683 23.8079C67.0339 24.0488 67.1951 24.3833 67.2176 24.7406C67.284 25.0924 67.2159 25.4563 67.0267 25.7606C66.8374 26.0648 66.5408 26.2874 66.1952 26.3845C65.7059 26.5184 65.2071 26.6152 64.7031 26.6738Z" fill="#3558A2"/>
<path d="M62.3265 20.4106C61.9226 20.4131 61.5332 20.2608 61.2387 19.9852C60.9442 19.7097 60.7672 19.3319 60.7441 18.9299C60.7211 18.5278 60.8538 18.1323 61.1148 17.8251C61.3759 17.5179 61.7453 17.3223 62.1468 17.2789C62.5685 17.2605 62.9813 17.404 63.3001 17.68C63.6188 17.9559 63.8192 18.3432 63.8601 18.7621C63.8681 18.9708 63.8348 19.179 63.762 19.3748C63.6893 19.5706 63.5785 19.7502 63.4361 19.9034C63.2936 20.0565 63.1223 20.18 62.9319 20.2671C62.7415 20.3541 62.5358 20.4029 62.3265 20.4106Z" fill="#3558A2"/>
<path d="M68.4195 20.911C68.4196 21.119 68.3779 21.3248 68.2969 21.5164C68.2158 21.7081 68.0971 21.8815 67.9477 22.0266C67.7983 22.1717 67.6213 22.2855 67.427 22.3613C67.2328 22.437 67.0253 22.4732 66.8168 22.4677C66.6185 22.4734 66.4211 22.4387 66.2367 22.3658C66.0523 22.2929 65.8847 22.1832 65.7442 22.0435C65.6036 21.9039 65.4931 21.7371 65.4194 21.5534C65.3457 21.3698 65.3103 21.1731 65.3154 20.9753C65.3135 20.7678 65.3535 20.562 65.4329 20.3702C65.5124 20.1784 65.6298 20.0045 65.778 19.8589C65.9262 19.7132 66.1023 19.5988 66.2958 19.5223C66.4893 19.4459 66.6963 19.4091 66.9044 19.414C67.3042 19.4128 67.6882 19.5697 67.9722 19.8503C68.2563 20.1309 68.4171 20.5124 68.4195 20.911Z" fill="#3558A2"/>
</g>
<defs>
<clipPath id="clip0_5_13418">
<rect width="90" height="99.0826" fill="white" transform="translate(0 0.958496)"/>
</clipPath>
</defs>
</svg>
