<svg width="300" height="300" viewBox="0 0 300 300" fill="none" xmlns="http://www.w3.org/2000/svg">
<path d="M166.11 114.28C166.05 122.85 164.65 130.86 159.5 137.86C158.974 138.794 158.738 139.862 158.82 140.93C158.82 147.63 159.01 154.33 159.09 161.03C159.15 166.42 158.15 167.54 152.76 168.03C148.43 168.43 144.09 168.77 139.76 169.11C135.76 169.41 134.22 168.18 133.83 164.22C133.19 157.72 132.53 151.22 132.11 144.7C132.017 142.283 131.013 139.989 129.3 138.28C119.09 127.34 116.88 110.05 124.3 96.1704C128.94 87.4604 134.3 79.1705 139.51 70.7205C141.65 67.2505 144.72 67.1104 147.31 70.2404C156.31 81.0904 163.39 92.8704 165.45 107.11C165.74 109.54 165.89 111.99 166.11 114.28ZM143.69 77.5004C143.05 78.2234 142.458 78.9884 141.92 79.7904C137.92 86.6204 133.59 93.2504 130.24 100.37C125.56 110.37 125.82 120.37 131.78 129.98C134.17 133.84 137 136.13 141.78 135.3C143.136 135.168 144.5 135.142 145.86 135.22C153.46 135.08 154.63 134.22 157.08 126.99C157.619 125.449 158.021 123.863 158.28 122.25C159.694 113.137 158.469 103.81 154.75 95.3704C152.035 88.8648 148.301 82.8327 143.69 77.5004ZM151.69 160.89C151.69 154.99 151.69 149.39 151.69 143.79C151.69 143.28 150.98 142.37 150.57 142.35C146.83 142.24 143.09 142.29 139.08 142.29C139.68 148.93 140.18 154.78 140.81 160.62C140.931 160.916 141.127 161.175 141.377 161.372C141.628 161.57 141.925 161.701 142.24 161.75C145.34 161.56 148.47 161.2 151.69 160.94V160.89Z" fill="#3558A2"/>
<path d="M112.66 115.461C112.66 124.191 111.19 132.171 106.14 139.211C105.602 140.116 105.338 141.158 105.38 142.211C105.38 148.911 105.56 155.621 105.65 162.321C105.73 167.861 104.65 169.041 99.1496 169.451C94.8096 169.771 90.4796 170.241 86.1496 170.521C82.2796 170.771 80.7796 169.521 80.3996 165.691C79.7496 159.101 79.0895 152.511 78.6595 145.901C78.5669 143.571 77.5824 141.365 75.9095 139.741C65.8495 129.091 63.4195 111.541 70.5495 98.1109C75.2595 89.2309 80.7096 80.7309 85.9696 72.1109C88.0996 68.6409 91.2596 68.4309 93.7796 71.5009C102.72 82.3509 109.9 94.1109 111.96 108.361C112.29 110.861 112.44 113.311 112.66 115.461ZM90.4095 78.9409C89.7706 79.5568 89.1851 80.2259 88.6595 80.9409C84.6595 87.8409 80.1796 94.5209 76.8296 101.731C71.7096 112.731 72.4396 123.561 79.8296 133.571C81.4696 135.781 83.4395 137.001 86.2895 136.791C88.9971 136.511 91.7235 136.461 94.4396 136.641C98.8596 137.071 101.03 134.721 102.61 131.071C105.61 124.071 105.83 116.821 104.8 109.441C103.23 97.8209 97.6095 88.1309 90.4095 78.9409ZM85.6096 143.771C86.0096 148.171 86.3296 151.941 86.7096 155.701C86.9496 158.111 86.4495 161.451 87.8095 162.651C89.1695 163.851 92.3795 162.751 94.8095 162.651C95.4495 162.651 96.2195 162.791 96.6795 162.501C97.3695 162.051 98.3396 161.281 98.3496 160.631C98.4496 155.571 98.3496 150.501 98.2296 145.431C98.1318 145.059 97.9409 144.718 97.675 144.44C97.4091 144.161 97.0769 143.955 96.7096 143.841C93.1696 143.651 89.6596 143.721 85.6096 143.721V143.771Z" fill="#3558A2"/>
<path d="M218.269 114.669C218.269 123.669 216.758 131.569 211.658 138.469C211.179 139.327 210.963 140.308 211.039 141.289C211.039 147.999 211.159 154.709 211.269 161.419C211.369 166.979 210.409 168.109 204.879 168.619C200.539 169.019 196.199 169.349 191.879 169.689C188.039 169.979 186.449 168.689 186.089 164.959C185.419 158.099 184.769 151.239 184.239 144.359C184.174 142.463 183.37 140.669 181.999 139.359C171.329 128.619 168.999 110.359 176.759 96.1186C181.269 87.8486 186.319 79.8686 191.279 71.8486C193.959 67.5186 196.879 67.4986 200.079 71.4586C208.809 82.2586 215.739 93.9286 217.679 107.989C217.969 110.439 218.109 112.939 218.269 114.669ZM195.969 77.9386C195.275 78.7453 194.628 79.59 194.029 80.4687C190.449 86.5687 186.869 92.6786 183.359 98.8186C179.359 105.749 178.079 113.379 180.099 120.919C182.729 130.729 185.229 137.209 197.399 135.919C205.789 135.029 206.959 134.839 209.549 126.629C209.993 125.326 210.328 123.988 210.549 122.629C212.969 105.529 206.459 91.2986 195.969 77.9386ZM203.969 161.439C203.969 155.519 203.969 149.899 203.899 144.289C203.801 143.951 203.619 143.643 203.368 143.397C203.118 143.15 202.808 142.971 202.469 142.879C198.869 142.759 195.249 142.809 191.269 142.809C191.869 149.289 192.389 155.229 193.029 161.159C193.149 161.456 193.343 161.717 193.594 161.917C193.844 162.116 194.142 162.248 194.459 162.299C197.559 162.119 200.689 161.759 203.969 161.449V161.439Z" fill="#3558A2"/>
<path d="M143.17 207.059C143.38 211.219 143.619 215.379 143.789 219.549C143.919 222.989 142.469 224.729 139.159 225.039C129.509 225.929 119.849 226.809 110.159 227.619C106.089 227.959 104.67 226.759 104.27 222.719C103.44 214.429 102.56 206.129 102 197.819C101.898 195.66 102.385 193.513 103.409 191.609C107.039 185.019 110.95 178.609 114.83 172.129C117.08 168.389 119.96 167.959 123.06 170.889C128.67 176.179 134.389 181.379 139.669 186.979C141.291 188.996 142.26 191.458 142.45 194.039C142.89 198.339 142.57 202.709 142.57 207.039L143.17 207.059ZM135.49 195.639C126.94 196.729 118.7 197.749 110.49 198.899C110.03 198.959 109.34 200.059 109.38 200.629C109.88 206.589 110.476 212.539 111.169 218.479C111.239 219.119 112.17 219.669 112.64 220.259C113.12 219.629 113.89 219.069 114.03 218.369C114.55 215.899 114.63 213.369 115.27 210.889C116.27 206.839 118.79 204.699 122.11 204.469C123.981 204.325 125.848 204.792 127.432 205.8C129.015 206.808 130.228 208.302 130.89 210.059C131.75 212.239 132.15 214.599 133.01 216.779C133.24 217.142 133.546 217.452 133.907 217.686C134.267 217.921 134.674 218.075 135.1 218.139C135.45 218.209 136.429 217.139 136.419 216.669C136.179 209.809 135.83 202.939 135.49 195.639ZM129.77 189.159L119.97 177.569L111.85 191.349L129.77 189.159ZM126.27 219.089L123.659 211.639L122.33 211.809C121.94 214.159 121.54 216.519 121.11 219.089H126.27Z" fill="#3558A2"/>
<path d="M196.8 210.039C196.91 211.939 197.09 213.839 197.1 215.739C197.1 218.929 195.83 220.499 192.66 220.799C182.74 221.746 172.81 222.629 162.87 223.449C159.52 223.719 158.04 222.379 157.69 218.949C156.81 210.389 155.86 201.829 155.27 193.249C155.261 191.078 155.842 188.946 156.95 187.079C160.51 180.659 164.35 174.389 168.1 168.079C170.47 164.079 173.3 163.719 176.71 166.969C182.09 172.099 187.41 177.299 192.82 182.399C193.756 183.259 194.509 184.299 195.033 185.457C195.557 186.616 195.842 187.868 195.87 189.139C196.196 196.106 196.53 203.076 196.87 210.049L196.8 210.039ZM188.8 191.469C180.17 192.549 172 193.539 163.85 194.659C163.524 194.821 163.246 195.063 163.039 195.362C162.833 195.661 162.706 196.007 162.67 196.369C163.156 202.329 163.743 208.282 164.43 214.229C164.5 214.889 165.33 215.469 165.82 216.089C166.35 215.419 167.19 214.799 167.36 214.089C167.87 211.699 167.92 209.209 168.53 206.859C169.61 202.739 172.22 200.469 175.53 200.299C177.453 200.18 179.362 200.705 180.953 201.792C182.545 202.878 183.73 204.464 184.32 206.299C185.11 208.409 185.51 210.669 186.32 212.779C186.507 213.123 186.776 213.416 187.105 213.631C187.433 213.845 187.809 213.975 188.2 214.009C188.57 213.891 188.903 213.679 189.166 213.393C189.429 213.107 189.613 212.758 189.7 212.379C189.53 205.569 189.16 198.799 188.82 191.469H188.8ZM173.34 173.329L165.16 187.199L183.16 184.939L173.34 173.329ZM179.34 214.889C178.4 212.039 178.66 209.329 175.67 207.039C175.18 210.039 174.8 212.419 174.35 215.169L179.34 214.889Z" fill="#3558A2"/>
<path d="M250.388 198.51C250.388 202.76 250.388 207.02 250.388 211.27C250.388 214.87 249.068 216.43 245.458 216.75C235.798 217.603 226.132 218.44 216.458 219.26C212.958 219.56 211.398 218.34 211.018 214.79C210.118 206.23 209.178 197.68 208.578 189.09C208.564 186.923 209.141 184.793 210.248 182.93C213.858 176.43 217.728 170.07 221.548 163.69C223.758 160.01 226.728 159.6 229.838 162.56C235.288 167.74 240.648 173.03 246.118 178.2C247.084 179.094 247.856 180.176 248.388 181.38C248.919 182.584 249.198 183.884 249.208 185.2C249.388 189.63 249.608 194.07 249.808 198.5L250.388 198.51ZM242.168 187.94C241.778 187.67 241.698 187.57 241.628 187.58C233.538 188.51 225.448 189.41 217.378 190.47C216.838 190.54 215.998 191.86 216.048 192.54C216.475 198.227 217.018 203.893 217.678 209.54C217.778 210.38 218.678 211.12 219.228 211.91C219.866 211.105 220.379 210.208 220.748 209.25C221.218 207.25 221.238 205.11 221.748 203.1C222.838 198.66 225.448 196.23 228.948 196.1C233.088 195.94 236.248 198.1 237.808 202.33C238.698 204.76 239.358 207.33 240.108 209.73C241.938 210.05 243.328 210.1 243.178 207.65C242.768 201.07 242.488 194.48 242.168 187.94ZM226.688 169.14C223.898 173.89 221.428 178.09 218.538 182.99L236.838 180.76L226.688 169.14ZM227.608 211.43C229.708 210.87 231.298 210.87 232.208 210.08C233.118 209.29 230.958 204.38 228.988 203.36C228.568 205.82 228.168 208.15 227.608 211.42V211.43Z" fill="#3558A2"/>
<path d="M90.24 210.421C90.44 214.671 90.69 218.921 90.85 223.181C90.97 226.571 89.56 228.291 86.14 228.611C76.3 229.524 66.4566 230.371 56.61 231.151C53.36 231.421 51.8 230.151 51.46 226.951C50.55 218.211 49.59 209.471 49 200.701C49.0355 198.53 49.6649 196.41 50.8199 194.571C54.3499 188.241 58.1299 182.041 61.8199 175.801C64.1899 171.801 67.0299 171.441 70.4199 174.671C75.8799 179.861 81.27 185.111 86.73 190.291C87.6684 191.215 88.4093 192.32 88.9078 193.538C89.4063 194.757 89.6521 196.064 89.63 197.381C89.81 201.731 90.0099 206.071 90.1999 210.381L90.24 210.421ZM82.5599 199.191C73.9599 200.261 65.79 201.191 57.64 202.371C57.14 202.441 56.3799 203.681 56.4399 204.371C56.9133 210.251 57.4933 216.114 58.1799 221.961C58.2599 222.651 59.0699 223.251 59.5399 223.891C60.0799 223.211 60.94 222.601 61.1 221.891C61.62 219.511 61.67 217.021 62.27 214.661C63.27 210.591 65.97 208.261 69.27 208.101C71.1468 207.975 73.0134 208.466 74.5857 209.498C76.158 210.531 77.3499 212.049 77.98 213.821C78.81 215.921 79.2 218.191 79.98 220.301C80.25 220.981 81.2499 221.371 81.9199 221.901C82.4299 221.241 83.42 220.561 83.4 219.901C83.26 213.111 82.8999 206.421 82.5599 199.191ZM67.0599 181.071L58.97 194.881L77.4 192.631L67.0599 181.071ZM70.9 215.291H69.4399C69.0199 217.721 68.6 220.151 68.11 223.031L73.23 222.471C72.35 219.751 71.62 217.521 70.9 215.291V215.291Z" fill="#3558A2"/>
<path d="M143.688 77.5C148.278 82.8365 151.991 88.8683 154.688 95.37C158.407 103.809 159.632 113.137 158.218 122.25C157.959 123.862 157.557 125.448 157.018 126.99C154.568 134.25 153.398 135.08 145.798 135.22C144.438 135.141 143.074 135.168 141.718 135.3C136.958 136.13 134.128 133.84 131.718 129.98C125.718 120.34 125.498 110.32 130.178 100.37C133.528 93.25 137.898 86.62 141.858 79.79C142.416 78.9862 143.027 78.2211 143.688 77.5ZM147.688 128.73C148.139 128.756 148.59 128.692 149.015 128.542C149.44 128.392 149.832 128.159 150.167 127.857C150.502 127.554 150.773 127.189 150.966 126.781C151.158 126.373 151.268 125.931 151.288 125.48C151.317 125.008 151.251 124.536 151.095 124.09C150.938 123.644 150.695 123.233 150.378 122.882C150.062 122.532 149.679 122.247 149.251 122.046C148.824 121.845 148.36 121.73 147.888 121.71C147.001 121.747 146.16 122.119 145.536 122.751C144.911 123.383 144.55 124.229 144.525 125.117C144.499 126.005 144.812 126.87 145.399 127.536C145.986 128.203 146.804 128.623 147.688 128.71V128.73ZM141.248 113.28C141.259 112.825 141.175 112.373 141.002 111.952C140.829 111.531 140.572 111.151 140.245 110.834C139.918 110.518 139.529 110.272 139.103 110.113C138.677 109.954 138.223 109.885 137.768 109.91C136.902 109.964 136.09 110.348 135.499 110.983C134.908 111.618 134.582 112.456 134.59 113.323C134.598 114.191 134.938 115.023 135.54 115.647C136.143 116.272 136.961 116.641 137.828 116.68C138.283 116.706 138.738 116.636 139.164 116.474C139.589 116.313 139.977 116.064 140.3 115.743C140.623 115.423 140.876 115.038 141.041 114.614C141.206 114.189 141.28 113.735 141.258 113.28H141.248ZM144.338 100.41C144.807 100.451 145.278 100.393 145.723 100.239C146.167 100.085 146.574 99.8389 146.916 99.517C147.259 99.1951 147.53 98.8046 147.711 98.3708C147.892 97.9371 147.98 97.47 147.968 97C147.973 96.5686 147.889 96.1409 147.721 95.7435C147.554 95.346 147.306 94.9874 146.994 94.6899C146.681 94.3925 146.311 94.1627 145.905 94.0147C145.5 93.8668 145.069 93.8039 144.638 93.83C144.188 93.8141 143.739 93.8922 143.32 94.0592C142.901 94.2263 142.521 94.4786 142.205 94.8003C141.889 95.122 141.644 95.5059 141.484 95.9276C141.325 96.3493 141.254 96.7997 141.278 97.25C141.272 97.6593 141.346 98.0658 141.497 98.4463C141.648 98.8268 141.872 99.1738 142.157 99.4673C142.442 99.7609 142.783 99.9953 143.159 100.157C143.535 100.319 143.939 100.405 144.348 100.41H144.338Z" fill="#CBCFDD"/>
<path d="M151.689 160.939C148.469 161.249 145.339 161.609 142.189 161.799C141.874 161.75 141.577 161.619 141.326 161.422C141.076 161.224 140.881 160.965 140.759 160.669C140.129 154.829 139.629 148.979 139.029 142.339C143.029 142.339 146.779 142.289 150.519 142.399C150.929 142.399 151.639 143.329 151.639 143.839C151.719 149.389 151.689 154.989 151.689 160.939Z" fill="white"/>
<path d="M90.4081 78.9395C97.6081 88.1794 103.228 97.8694 104.838 109.479C105.838 116.859 105.678 124.109 102.648 131.109C101.068 134.759 98.8981 137.109 94.4781 136.679C91.7621 136.499 89.0357 136.55 86.3281 136.829C83.4781 137.039 81.5081 135.829 79.8681 133.609C72.4382 123.609 71.7082 112.759 76.8682 101.769C80.2181 94.5594 84.6981 87.8794 88.6981 80.9794C89.2092 80.2521 89.7812 79.5697 90.4081 78.9395ZM98.5881 126.229C98.5388 125.317 98.1504 124.457 97.4991 123.817C96.8478 123.177 95.9807 122.803 95.0681 122.769C94.5923 122.762 94.1199 122.852 93.68 123.034C93.2401 123.215 92.8419 123.485 92.5096 123.825C92.1774 124.166 91.918 124.571 91.7475 125.015C91.5771 125.459 91.4991 125.934 91.5182 126.409C91.4901 126.865 91.5594 127.321 91.7217 127.748C91.8839 128.174 92.1353 128.561 92.459 128.883C92.7826 129.205 93.1711 129.454 93.5986 129.614C94.0261 129.773 94.4828 129.84 94.9381 129.809C95.4176 129.816 95.8936 129.727 96.3381 129.547C96.7827 129.367 97.1868 129.1 97.5268 128.762C97.8668 128.424 98.1358 128.021 98.3181 127.578C98.5003 127.134 98.5922 126.659 98.5881 126.179V126.229ZM84.5881 113.349C86.5881 113.029 87.8282 111.979 87.7682 109.929C87.7873 109.494 87.7114 109.06 87.5458 108.657C87.3801 108.254 87.1286 107.892 86.8088 107.596C86.489 107.3 86.1087 107.077 85.6941 106.943C85.2795 106.809 84.8406 106.767 84.4081 106.819C83.9715 106.784 83.5328 106.847 83.1238 107.004C82.7147 107.16 82.3457 107.406 82.0438 107.723C81.7419 108.04 81.5147 108.421 81.3788 108.837C81.2428 109.254 81.2017 109.695 81.2582 110.129C81.3282 112.149 82.6981 113.069 84.6081 113.299L84.5881 113.349Z" fill="#CBCFDD"/>
<path d="M85.6094 143.721C89.6094 143.721 93.1693 143.651 96.6793 143.791C97.0467 143.905 97.3789 144.111 97.6448 144.389C97.9107 144.667 98.1015 145.009 98.1993 145.381C98.3593 150.451 98.4193 155.521 98.3193 160.581C98.3193 161.231 97.3194 162.001 96.6494 162.451C96.1894 162.741 95.4194 162.581 94.7794 162.601C92.3794 162.701 89.1094 163.751 87.7794 162.601C86.4494 161.451 86.9193 158.061 86.6793 155.651C86.3293 151.941 85.9694 148.121 85.6094 143.721Z" fill="white"/>
<path d="M195.969 77.9395C206.449 91.2894 212.969 105.519 210.499 122.669C210.278 124.028 209.944 125.366 209.499 126.669C206.909 134.879 205.739 135.069 197.349 135.959C185.179 137.249 182.679 130.769 180.049 120.959C178.049 113.419 179.339 105.789 183.309 98.8594C186.819 92.7194 190.399 86.6095 193.979 80.5095C194.593 79.6158 195.258 78.7578 195.969 77.9395V77.9395ZM199.219 101.099C199.199 100.203 198.824 99.3512 198.176 98.7314C197.528 98.1116 196.66 97.7745 195.764 97.7944C194.868 97.8143 194.016 98.1895 193.396 98.8374C192.776 99.4854 192.439 100.353 192.459 101.249C192.449 101.684 192.528 102.116 192.691 102.519C192.854 102.922 193.097 103.288 193.406 103.594C193.715 103.9 194.083 104.14 194.487 104.299C194.892 104.458 195.324 104.533 195.759 104.519C196.213 104.53 196.664 104.45 197.086 104.283C197.507 104.116 197.892 103.866 198.215 103.548C198.539 103.23 198.795 102.851 198.969 102.432C199.143 102.013 199.232 101.563 199.229 101.109L199.219 101.099ZM205.019 118.279C204.709 116.379 203.749 115.109 201.669 115.089C201.214 115.085 200.764 115.175 200.347 115.356C199.93 115.537 199.555 115.803 199.248 116.138C198.94 116.473 198.707 116.868 198.562 117.299C198.418 117.73 198.365 118.187 198.409 118.639C198.405 119.07 198.494 119.497 198.669 119.891C198.845 120.284 199.104 120.635 199.427 120.92C199.751 121.205 200.132 121.416 200.545 121.54C200.957 121.665 201.392 121.698 201.819 121.639C203.879 121.589 204.839 120.289 205.029 118.289L205.019 118.279ZM190.849 112.849C190.729 110.749 189.649 109.529 187.649 109.429C187.219 109.375 186.783 109.411 186.368 109.536C185.953 109.661 185.569 109.871 185.241 110.154C184.912 110.437 184.647 110.786 184.463 111.178C184.278 111.57 184.178 111.996 184.169 112.429C184.125 112.882 184.177 113.339 184.323 113.77C184.469 114.201 184.705 114.596 185.015 114.929C185.325 115.262 185.703 115.525 186.122 115.701C186.542 115.877 186.994 115.961 187.449 115.949C188.307 115.977 189.142 115.671 189.779 115.094C190.415 114.517 190.802 113.716 190.859 112.859L190.849 112.849Z" fill="#CBCFDD"/>
<path d="M203.969 161.45C200.729 161.76 197.599 162.12 194.459 162.31C194.143 162.26 193.845 162.128 193.595 161.928C193.344 161.728 193.15 161.467 193.03 161.17C192.39 155.24 191.87 149.3 191.27 142.82C195.27 142.82 198.869 142.82 202.469 142.89C202.809 142.983 203.119 143.161 203.369 143.408C203.619 143.655 203.802 143.962 203.9 144.3C203.97 149.94 203.969 155.53 203.969 161.45Z" fill="white"/>
<path d="M135.489 195.641C135.829 202.961 136.179 209.811 136.399 216.641C136.399 217.151 135.399 218.181 135.079 218.111C134.654 218.047 134.247 217.893 133.886 217.658C133.526 217.423 133.22 217.114 132.989 216.751C132.129 214.571 131.729 212.211 130.869 210.031C130.208 208.274 128.995 206.779 127.411 205.771C125.828 204.763 123.961 204.296 122.089 204.441C118.769 204.671 116.299 206.811 115.249 210.861C114.609 213.291 114.529 215.861 114.009 218.341C113.869 219.041 113.099 219.601 112.619 220.231C112.109 219.641 111.219 219.091 111.149 218.451C110.483 212.511 109.886 206.561 109.359 200.601C109.359 200.031 110.009 198.931 110.469 198.871C118.699 197.751 126.969 196.731 135.489 195.641Z" fill="white"/>
<path d="M129.769 189.16L111.869 191.35L119.989 177.57L129.769 189.16Z" fill="#979FBB"/>
<path d="M126.269 219.091H121.109C121.539 216.521 121.939 214.161 122.329 211.811L123.659 211.641L126.269 219.091Z" fill="#979FBB"/>
<path d="M188.819 191.469C189.159 198.799 189.529 205.569 189.739 212.349C189.653 212.728 189.469 213.077 189.206 213.363C188.943 213.649 188.609 213.861 188.239 213.979C187.848 213.945 187.472 213.815 187.144 213.601C186.816 213.386 186.546 213.093 186.359 212.749C185.549 210.639 185.149 208.379 184.359 206.269C183.769 204.434 182.585 202.848 180.993 201.761C179.401 200.675 177.493 200.15 175.569 200.269C172.239 200.439 169.629 202.709 168.569 206.829C167.959 209.179 167.909 211.669 167.399 214.059C167.229 214.809 166.399 215.429 165.859 216.059C165.369 215.439 164.539 214.859 164.469 214.199C163.802 208.252 163.216 202.299 162.709 196.339C162.745 195.977 162.872 195.631 163.079 195.332C163.285 195.033 163.564 194.791 163.889 194.629C172.019 193.539 180.189 192.549 188.819 191.469Z" fill="white"/>
<path d="M173.358 173.33L183.168 184.94L165.168 187.2L173.358 173.33Z" fill="#979FBB"/>
<path d="M179.398 214.94L174.398 215.22C174.848 212.47 175.228 210.1 175.718 207.09C178.718 209.33 178.458 212.04 179.398 214.94Z" fill="#979FBB"/>
<path d="M242.169 187.94C242.489 194.49 242.769 201.08 243.169 207.67C243.319 210.12 241.929 210.07 240.099 209.75C239.349 207.3 238.689 204.75 237.799 202.35C236.239 198.1 233.079 195.96 228.939 196.12C225.439 196.26 222.829 198.69 221.739 203.12C221.249 205.12 221.229 207.26 220.739 209.27C220.37 210.229 219.857 211.125 219.219 211.93C218.679 211.14 217.769 210.4 217.669 209.56C217.002 203.894 216.459 198.227 216.039 192.56C216.039 191.88 216.829 190.56 217.369 190.49C225.439 189.43 233.529 188.49 241.619 187.6C241.699 187.56 241.779 187.66 242.169 187.94Z" fill="white"/>
<path d="M226.689 169.129L236.839 180.749L218.539 182.979C221.429 178.079 223.899 173.879 226.689 169.129Z" fill="#979FBB"/>
<path d="M227.609 211.42C228.169 208.15 228.609 205.82 228.989 203.35C230.989 204.35 233.199 209.21 232.209 210.07C231.219 210.93 229.709 210.86 227.609 211.42Z" fill="#979FBB"/>
<path d="M82.5594 199.189C82.8994 206.419 83.2594 213.109 83.4594 219.809C83.4594 220.459 82.4594 221.139 81.9794 221.809C81.3094 221.279 80.3094 220.889 80.0394 220.209C79.2194 218.099 78.8294 215.829 78.0394 213.729C77.4093 211.957 76.2175 210.439 74.6452 209.406C73.0729 208.374 71.2062 207.883 69.3294 208.009C66.0094 208.169 63.3294 210.499 62.3294 214.569C61.7294 216.929 61.6794 219.419 61.1594 221.799C60.9994 222.559 60.1594 223.169 59.5994 223.799C59.1294 223.159 58.3194 222.559 58.2394 221.869C57.5728 216.016 56.9928 210.153 56.4994 204.279C56.4394 203.639 57.1994 202.399 57.6994 202.279C65.7894 201.239 73.9694 200.259 82.5594 199.189Z" fill="white"/>
<path d="M67.0587 181.07L77.3788 192.63L58.9688 194.88L67.0587 181.07Z" fill="#979FBB"/>
<path d="M70.8994 215.289C71.6194 217.519 72.3494 219.749 73.2294 222.459L68.1094 223.019C68.5994 220.139 69.0193 217.709 69.4393 215.279L70.8994 215.289Z" fill="#979FBB"/>
<path d="M147.7 128.731C146.816 128.643 145.998 128.224 145.411 127.557C144.824 126.89 144.511 126.025 144.537 125.137C144.562 124.249 144.923 123.404 145.547 122.771C146.172 122.139 147.012 121.767 147.9 121.73C148.372 121.751 148.836 121.865 149.263 122.066C149.691 122.268 150.074 122.552 150.39 122.903C150.707 123.254 150.95 123.664 151.106 124.11C151.263 124.556 151.328 125.029 151.3 125.501C151.277 125.949 151.166 126.389 150.972 126.795C150.778 127.201 150.506 127.564 150.172 127.864C149.837 128.164 149.447 128.396 149.022 128.544C148.598 128.693 148.149 128.756 147.7 128.731V128.731Z" fill="#3558A2"/>
<path d="M141.259 113.28C141.28 113.734 141.206 114.188 141.042 114.611C140.877 115.035 140.626 115.419 140.304 115.74C139.981 116.06 139.595 116.309 139.171 116.471C138.746 116.633 138.292 116.704 137.838 116.68C137.17 116.674 136.518 116.471 135.964 116.095C135.411 115.719 134.981 115.188 134.729 114.569C134.477 113.95 134.413 113.27 134.547 112.614C134.68 111.959 135.004 111.358 135.478 110.886C135.953 110.415 136.556 110.094 137.212 109.965C137.868 109.835 138.548 109.903 139.166 110.158C139.784 110.414 140.312 110.847 140.684 111.403C141.057 111.958 141.257 112.611 141.259 113.28Z" fill="#3558A2"/>
<path d="M144.35 100.41C143.941 100.403 143.538 100.317 143.163 100.154C142.789 99.9918 142.449 99.7572 142.165 99.4638C141.881 99.1704 141.657 98.8238 141.507 98.444C141.357 98.0641 141.283 97.6584 141.29 97.2499C141.266 96.7997 141.336 96.3493 141.496 95.9276C141.655 95.5058 141.901 95.1219 142.217 94.8003C142.533 94.4786 142.912 94.2262 143.331 94.0592C143.75 93.8921 144.199 93.8141 144.65 93.83C145.08 93.8039 145.512 93.8667 145.917 94.0147C146.322 94.1626 146.692 94.3925 147.005 94.6899C147.317 94.9873 147.565 95.346 147.733 95.7434C147.901 96.1409 147.985 96.5686 147.98 96.9999C147.991 97.4699 147.904 97.937 147.722 98.3708C147.541 98.8045 147.27 99.1951 146.928 99.517C146.585 99.8388 146.178 100.085 145.734 100.239C145.29 100.393 144.818 100.451 144.35 100.41Z" fill="#3558A2"/>
<path d="M98.5897 126.179C98.5871 126.654 98.4904 127.124 98.3052 127.562C98.1199 128 97.8499 128.397 97.5106 128.729C97.1713 129.062 96.7694 129.325 96.3281 129.501C95.8868 129.678 95.4149 129.766 94.9397 129.759C94.4843 129.79 94.0277 129.723 93.6002 129.563C93.1727 129.404 92.7842 129.155 92.4605 128.833C92.1369 128.511 91.8855 128.124 91.7232 127.697C91.561 127.271 91.4917 126.815 91.5197 126.359C91.5007 125.884 91.5786 125.409 91.7491 124.965C91.9196 124.521 92.1789 124.116 92.5112 123.775C92.8435 123.434 93.2417 123.165 93.6816 122.983C94.1215 122.802 94.5938 122.712 95.0697 122.719C95.9823 122.753 96.8494 123.126 97.5007 123.766C98.152 124.407 98.5404 125.267 98.5897 126.179V126.179Z" fill="#3558A2"/>
<path d="M84.6084 113.3C82.6984 113.07 81.3285 112.15 81.2785 110.08C81.222 109.646 81.2632 109.204 81.3991 108.788C81.535 108.372 81.7622 107.991 82.0641 107.674C82.366 107.357 82.7349 107.111 83.144 106.955C83.553 106.798 83.9919 106.735 84.4284 106.77C84.8609 106.717 85.2998 106.759 85.7144 106.894C86.129 107.028 86.5094 107.25 86.8292 107.546C87.1489 107.842 87.4004 108.204 87.5661 108.607C87.7318 109.01 87.8076 109.445 87.7884 109.88C87.8484 111.94 86.6084 112.94 84.6084 113.3Z" fill="#3558A2"/>
<path d="M199.23 101.11C199.234 101.564 199.147 102.014 198.974 102.433C198.801 102.853 198.546 103.233 198.223 103.552C197.9 103.871 197.517 104.122 197.095 104.29C196.674 104.458 196.223 104.54 195.77 104.531C195.335 104.544 194.902 104.469 194.498 104.31C194.093 104.151 193.725 103.911 193.416 103.605C193.108 103.299 192.864 102.933 192.702 102.53C192.539 102.127 192.46 101.695 192.47 101.261C192.46 100.817 192.537 100.375 192.698 99.9613C192.859 99.5475 193.1 99.1694 193.406 98.8485C193.713 98.5277 194.08 98.2705 194.487 98.0915C194.893 97.9126 195.331 97.8154 195.775 97.8055C196.218 97.7957 196.66 97.8733 197.074 98.0341C197.488 98.1949 197.866 98.4356 198.187 98.7425C198.507 99.0494 198.765 99.4165 198.944 99.8228C199.123 100.229 199.22 100.667 199.23 101.11V101.11Z" fill="#3558A2"/>
<path d="M205.029 118.289C204.839 120.289 203.879 121.589 201.829 121.669C201.402 121.728 200.968 121.694 200.555 121.57C200.142 121.446 199.761 121.234 199.437 120.95C199.114 120.665 198.856 120.314 198.68 119.92C198.504 119.527 198.415 119.1 198.419 118.669C198.376 118.217 198.428 117.76 198.572 117.329C198.717 116.898 198.95 116.502 199.258 116.168C199.565 115.833 199.94 115.566 200.357 115.386C200.774 115.205 201.225 115.114 201.679 115.119C203.759 115.119 204.719 116.389 205.029 118.289Z" fill="#3558A2"/>
<path d="M190.859 112.86C190.815 113.724 190.435 114.536 189.799 115.123C189.164 115.71 188.324 116.025 187.459 116C187.004 116.012 186.552 115.927 186.133 115.751C185.713 115.575 185.336 115.312 185.026 114.979C184.715 114.647 184.48 114.252 184.334 113.821C184.188 113.39 184.135 112.933 184.179 112.48C184.188 112.047 184.288 111.62 184.473 111.228C184.658 110.836 184.923 110.488 185.251 110.205C185.579 109.922 185.963 109.711 186.378 109.586C186.793 109.461 187.229 109.425 187.659 109.48C189.659 109.54 190.739 110.76 190.859 112.86Z" fill="#3558A2"/>
</svg>
