<svg width="300" height="300" viewBox="0 0 300 300" fill="none" xmlns="http://www.w3.org/2000/svg">
<path d="M133.941 114.735C139.421 110.945 151.621 108.215 161.241 110.585C161.091 111.262 160.901 111.93 160.671 112.585C159.091 116.455 157.471 120.304 155.891 124.164C155.481 125.072 155.147 126.012 154.891 126.975C154.667 127.813 154.745 128.704 155.11 129.492C155.476 130.279 156.106 130.914 156.891 131.284C157.698 131.615 158.597 131.642 159.422 131.36C160.248 131.079 160.943 130.509 161.381 129.755C161.942 128.823 162.424 127.847 162.821 126.835C164.551 122.735 166.241 118.624 167.961 114.524C168.171 114.024 168.451 113.525 168.681 113.115C174.351 114.045 184.251 121.994 187.011 127.894C186.447 128.26 185.862 128.594 185.261 128.894C175.221 133.561 165.171 138.198 155.111 142.804C153.862 143.343 152.65 143.961 151.481 144.654C150.696 145.117 150.115 145.859 149.856 146.733C149.596 147.606 149.678 148.545 150.084 149.361C150.49 150.176 151.19 150.808 152.043 151.128C152.896 151.448 153.839 151.432 154.681 151.084C158.191 149.614 161.681 147.984 165.101 146.394L189.311 135.194C189.711 135.004 190.131 134.875 190.821 134.605C194.271 143.024 194.411 151.374 191.991 160.154C190.301 159.674 188.821 159.284 187.371 158.824C182.701 157.344 178.051 155.824 173.371 154.354C172.343 154 171.268 153.804 170.181 153.774C169.444 153.761 168.723 153.991 168.13 154.428C167.538 154.866 167.105 155.486 166.901 156.194C166.648 156.889 166.642 157.649 166.882 158.348C167.122 159.047 167.595 159.642 168.221 160.034C169.381 160.734 170.624 161.285 171.921 161.674C176.581 163.204 181.261 164.674 185.921 166.144C186.841 166.434 187.731 166.784 188.921 167.224C182.701 178.134 173.721 184.634 161.671 187.694C161.121 185.374 160.611 183.304 160.151 181.234C159.691 179.164 159.351 177.314 158.931 175.364C158.815 174.835 158.644 174.318 158.421 173.824C158.128 173.004 157.549 172.317 156.791 171.889C156.032 171.461 155.144 171.321 154.291 171.494C153.433 171.675 152.672 172.168 152.157 172.877C151.642 173.587 151.408 174.462 151.501 175.334C151.771 177.754 152.391 180.134 152.881 182.534C153.261 184.394 153.671 186.244 154.051 188.074C148.471 190.414 132.051 185.594 126.341 179.154C127.231 178.214 128.151 177.244 129.071 176.294C130.961 174.294 132.901 172.414 134.751 170.414C136.601 168.414 136.601 166.284 135.141 164.814C133.681 163.344 131.631 163.344 129.591 165.244C127.551 167.144 125.891 168.984 124.061 170.884C123.121 171.884 122.211 172.884 121.341 173.804C116.341 170.804 110.671 155.024 112.461 149.194C114.161 149.464 115.921 149.734 117.681 150.024C119.111 150.264 120.531 150.564 121.971 150.754C124.471 151.084 126.361 149.874 126.751 147.754C127.141 145.634 125.901 144.034 123.461 143.484C120.541 142.824 117.581 142.384 114.631 141.834C114.201 141.754 113.781 141.594 113.391 141.484C112.841 135.585 120.461 123.174 127.391 118.815C128.661 121.945 129.911 125.035 131.171 128.125C131.477 128.975 131.841 129.804 132.261 130.605C132.657 131.382 133.319 131.992 134.126 132.322C134.934 132.652 135.833 132.682 136.661 132.404C137.541 132.12 138.272 131.498 138.694 130.675C139.116 129.852 139.194 128.895 138.911 128.014C138.141 125.414 137.041 122.915 136.071 120.375C135.431 118.565 134.711 116.705 133.941 114.735ZM156.391 156.234C155.896 156.257 155.41 156.379 154.963 156.595C154.517 156.81 154.119 157.114 153.793 157.488C153.468 157.863 153.222 158.299 153.07 158.771C152.918 159.243 152.864 159.741 152.911 160.234C152.911 162.634 154.531 164.404 156.641 164.374C157.134 164.345 157.616 164.218 158.059 164C158.502 163.783 158.898 163.478 159.222 163.106C159.546 162.733 159.792 162.3 159.947 161.831C160.101 161.362 160.16 160.867 160.121 160.374C160.101 157.954 158.521 156.204 156.391 156.234ZM176.541 124.845C176.56 124.348 176.479 123.852 176.302 123.387C176.126 122.922 175.859 122.497 175.516 122.137C175.173 121.778 174.761 121.49 174.305 121.292C173.849 121.094 173.358 120.99 172.861 120.985C172.36 120.958 171.86 121.041 171.394 121.228C170.929 121.415 170.51 121.701 170.167 122.067C169.824 122.433 169.566 122.869 169.409 123.345C169.252 123.822 169.202 124.327 169.261 124.825C169.331 125.814 169.761 126.743 170.471 127.436C171.181 128.129 172.12 128.538 173.111 128.585C173.591 128.588 174.066 128.491 174.506 128.299C174.946 128.107 175.341 127.824 175.664 127.47C175.988 127.115 176.233 126.696 176.384 126.24C176.535 125.785 176.589 125.302 176.541 124.825V124.845ZM171.261 176.844C171.758 176.838 172.25 176.732 172.705 176.532C173.161 176.332 173.572 176.042 173.914 175.68C174.255 175.318 174.52 174.891 174.693 174.425C174.866 173.958 174.944 173.462 174.921 172.964C174.938 172.489 174.854 172.015 174.675 171.573C174.496 171.132 174.226 170.734 173.882 170.404C173.539 170.075 173.129 169.822 172.681 169.662C172.233 169.501 171.756 169.437 171.281 169.474C170.781 169.448 170.281 169.524 169.811 169.698C169.341 169.871 168.912 170.138 168.548 170.483C168.185 170.828 167.896 171.243 167.698 171.703C167.501 172.163 167.399 172.659 167.399 173.159C167.399 173.66 167.501 174.156 167.698 174.616C167.896 175.076 168.185 175.491 168.548 175.836C168.912 176.18 169.341 176.448 169.811 176.621C170.281 176.794 170.781 176.87 171.281 176.844H171.261ZM149.331 119.615C149.358 119.136 149.284 118.658 149.114 118.21C148.945 117.762 148.682 117.355 148.344 117.015C148.007 116.676 147.601 116.411 147.154 116.239C146.707 116.066 146.229 115.99 145.751 116.014C144.787 116.041 143.873 116.448 143.209 117.147C142.546 117.847 142.187 118.781 142.211 119.745C142.184 120.234 142.259 120.725 142.43 121.184C142.601 121.644 142.865 122.064 143.206 122.417C143.547 122.77 143.956 123.049 144.41 123.237C144.863 123.425 145.35 123.517 145.841 123.508C146.331 123.499 146.815 123.389 147.261 123.185C147.707 122.981 148.106 122.687 148.434 122.321C148.761 121.956 149.01 121.527 149.164 121.061C149.319 120.596 149.375 120.103 149.331 119.615V119.615ZM147.111 175.614C147.125 174.654 146.764 173.726 146.105 173.028C145.446 172.33 144.54 171.916 143.581 171.874C142.667 171.879 141.791 172.236 141.135 172.872C140.479 173.507 140.094 174.372 140.061 175.284C140.047 176.247 140.415 177.177 141.084 177.87C141.753 178.563 142.668 178.963 143.631 178.984C144.083 179.002 144.535 178.928 144.958 178.766C145.38 178.604 145.766 178.358 146.091 178.043C146.417 177.728 146.675 177.351 146.85 176.933C147.025 176.516 147.114 176.067 147.111 175.614V175.614ZM188.451 148.234C188.463 147.318 188.122 146.431 187.498 145.759C186.874 145.087 186.016 144.681 185.101 144.624C184.186 144.634 183.308 144.985 182.638 145.608C181.968 146.231 181.556 147.083 181.481 147.994C181.443 148.472 181.506 148.952 181.664 149.403C181.823 149.855 182.074 150.269 182.401 150.618C182.729 150.967 183.126 151.244 183.566 151.431C184.007 151.619 184.482 151.711 184.961 151.704C185.881 151.697 186.761 151.329 187.413 150.681C188.065 150.032 188.438 149.154 188.451 148.234V148.234ZM136.581 148.844C137.489 148.816 138.35 148.432 138.978 147.776C139.606 147.119 139.952 146.243 139.941 145.334C139.905 144.425 139.523 143.564 138.872 142.928C138.221 142.292 137.351 141.929 136.441 141.914C135.968 141.927 135.502 142.033 135.071 142.226C134.639 142.419 134.249 142.696 133.924 143.039C133.599 143.383 133.345 143.787 133.176 144.229C133.008 144.671 132.928 145.142 132.941 145.614C133.005 146.52 133.423 147.364 134.104 147.965C134.785 148.565 135.674 148.874 136.581 148.824V148.844ZM123.581 131.034C123.129 131.046 122.685 131.147 122.273 131.332C121.861 131.517 121.49 131.781 121.181 132.111C120.872 132.44 120.632 132.827 120.474 133.25C120.316 133.673 120.243 134.123 120.261 134.574C120.296 135.232 120.524 135.864 120.916 136.394C121.307 136.923 121.846 137.325 122.464 137.551C123.083 137.776 123.754 137.815 124.395 137.663C125.035 137.51 125.617 137.173 126.067 136.693C126.517 136.213 126.817 135.611 126.928 134.962C127.039 134.313 126.957 133.645 126.692 133.043C126.427 132.44 125.991 131.928 125.438 131.571C124.885 131.214 124.239 131.028 123.581 131.034Z" fill="#EAECF1"/>
<path d="M115.261 133.103C109.441 146.043 111.031 161.712 117.931 174.102C119.258 176.678 121.032 178.998 123.171 180.952C126.601 183.882 131.091 185.192 135.501 186.062C141.771 187.292 147.801 189.472 154.181 189.212C153.288 185.242 151.506 181.526 148.971 178.342C143.845 171.779 140.513 163.996 139.301 155.756C138.09 147.517 139.041 139.104 142.061 131.343C145.161 123.643 150.261 116.883 153.211 109.123C152.051 109.293 145.381 107.262 133.561 114.052C133.561 114.082 121.081 120.153 115.261 133.103Z" fill="#979FBB"/>
<path d="M174.331 79.7046C173.151 79.2046 172.151 78.8346 171.191 78.3746C169.021 77.3746 168.191 75.6846 168.721 73.8146C169.251 71.9446 171.181 70.8146 173.561 71.5546C178.481 73.1546 183.341 74.9346 188.151 76.8246C188.592 76.9608 189.001 77.1851 189.353 77.484C189.705 77.7829 189.992 78.1501 190.198 78.5634C190.404 78.9766 190.523 79.4274 190.55 79.8883C190.576 80.3492 190.508 80.8106 190.351 81.2446C189.771 83.0346 188.181 83.9746 185.991 83.5846C184.457 83.2244 182.944 82.777 181.461 82.2446C178.011 89.9046 175.001 97.7346 171.591 105.735C180.913 109.587 188.82 116.222 194.231 124.735L206.671 119.185C206.441 118.395 206.151 117.575 205.961 116.725C205.441 114.485 206.281 112.645 208.081 111.985C208.529 111.811 209.007 111.729 209.487 111.743C209.968 111.756 210.44 111.866 210.877 112.066C211.314 112.265 211.707 112.55 212.032 112.904C212.358 113.257 212.609 113.672 212.771 114.125C214.541 118.205 216.201 122.334 217.711 126.514C217.925 126.972 218.043 127.468 218.057 127.973C218.071 128.477 217.982 128.979 217.795 129.448C217.607 129.917 217.325 130.342 216.967 130.697C216.609 131.053 216.181 131.331 215.711 131.514C213.921 132.174 212.131 131.364 210.991 129.305C210.431 128.305 209.991 127.205 209.411 125.995L197.751 131.435C201.706 141.376 202.165 152.368 199.051 162.605L225.781 171.125C226.281 169.775 226.651 168.675 227.101 167.615C228.021 165.415 229.941 164.324 231.801 164.904C233.661 165.484 234.801 167.674 234.041 170.054C232.621 174.554 231.041 179.004 229.551 183.474C229.353 184.078 229.07 184.65 228.711 185.174C228.255 185.805 227.609 186.273 226.868 186.511C226.127 186.748 225.329 186.742 224.591 186.494C223.886 186.285 223.276 185.837 222.864 185.228C222.452 184.62 222.264 183.887 222.331 183.154C222.547 181.472 222.857 179.802 223.261 178.154C214.521 175.154 205.541 172.484 196.261 169.474C192.983 175.904 188.325 181.529 182.62 185.95C176.916 190.37 170.305 193.475 163.261 195.044C165.001 203.274 166.721 211.374 168.491 219.754C170.031 219.524 171.411 219.264 172.811 219.124C173.696 218.994 174.596 218.994 175.481 219.124C176.163 219.237 176.789 219.573 177.26 220.08C177.73 220.587 178.019 221.235 178.081 221.924C178.224 222.599 178.145 223.302 177.857 223.929C177.569 224.556 177.086 225.073 176.481 225.404C175.623 225.919 174.688 226.29 173.711 226.504C168.571 227.624 163.411 228.684 158.251 229.724C157.461 229.905 156.644 229.943 155.841 229.834C155.063 229.739 154.341 229.381 153.796 228.819C153.25 228.257 152.913 227.525 152.841 226.744C152.741 225.969 152.906 225.183 153.309 224.513C153.712 223.844 154.33 223.33 155.061 223.054C156.26 222.649 157.482 222.315 158.721 222.054C159.481 221.854 160.271 221.714 161.261 221.494C159.451 213.004 157.681 204.714 155.871 196.244C142.871 196.664 131.291 193.244 121.071 184.885C114.461 191.704 107.911 198.444 101.231 205.324C102.561 206.564 103.891 207.664 105.031 208.924C105.827 209.762 106.452 210.747 106.871 211.824C107.084 212.482 107.067 213.192 106.824 213.839C106.581 214.486 106.125 215.031 105.531 215.384C104.371 216.254 103.311 215.864 102.291 215.114C99.8811 213.344 97.401 211.674 95.111 209.774C92.661 207.774 90.3811 205.534 88.0311 203.384C87.6738 203.076 87.3396 202.742 87.0311 202.384C85.6111 200.694 85.5111 198.574 86.7911 197.194C87.4329 196.52 88.3081 196.117 89.2375 196.067C90.1669 196.017 91.0803 196.323 91.7911 196.924C93.1211 197.864 94.3011 199.004 95.7911 200.274L115.571 179.564C108.161 170.677 104.246 159.392 104.561 147.824L74.3111 142.274C74.0311 142.984 73.7511 143.614 73.5511 144.274C73.3511 144.934 73.281 145.705 73.011 146.375C72.7592 147.213 72.2032 147.927 71.4521 148.376C70.701 148.826 69.8089 148.979 68.951 148.804C68.052 148.623 67.2532 148.112 66.7112 147.372C66.1692 146.632 65.9231 145.716 66.021 144.804C66.871 139.624 67.8111 134.444 68.9311 129.305C69.0296 128.832 69.2242 128.385 69.5029 127.991C69.7815 127.597 70.1382 127.264 70.5508 127.013C70.9635 126.763 71.4233 126.6 71.9015 126.535C72.3798 126.47 72.8664 126.504 73.331 126.635C74.2007 126.92 74.9439 127.499 75.4329 128.273C75.922 129.047 76.1264 129.967 76.011 130.875C75.881 132.115 75.6411 133.345 75.4011 134.875L105.531 140.264C108.119 128.651 114.88 118.392 124.531 111.435C120.691 101.725 116.901 92.1546 113.071 82.4346C111.821 82.9746 110.841 83.4346 109.821 83.8046C107.561 84.5846 105.501 83.8045 104.711 82.0245C103.921 80.2445 104.711 78.1346 106.891 77.1046C111.081 75.1046 115.341 73.3246 119.581 71.4646C120.082 71.2506 120.611 71.1059 121.151 71.0346C121.922 70.9254 122.708 71.0766 123.383 71.4642C124.059 71.8519 124.586 72.4537 124.881 73.1746C125.21 73.8838 125.28 74.6862 125.077 75.4413C124.874 76.1964 124.412 76.856 123.771 77.3046C122.535 78.1222 121.257 78.8733 119.941 79.5546L130.941 107.555C141.661 102.305 152.781 101.345 164.401 103.495C167.791 95.4446 171.011 87.6846 174.331 79.7046ZM133.941 114.705C134.711 116.705 135.431 118.535 136.141 120.385C137.141 122.925 138.211 125.384 138.981 128.024C139.264 128.905 139.186 129.862 138.765 130.685C138.343 131.508 137.611 132.13 136.731 132.414C135.904 132.692 135.004 132.662 134.197 132.332C133.389 132.002 132.727 131.392 132.331 130.615C131.911 129.814 131.547 128.985 131.241 128.135C129.981 125.045 128.731 121.955 127.461 118.825C120.541 123.185 112.921 135.595 113.461 141.495C113.851 141.605 114.271 141.765 114.701 141.845C117.701 142.395 120.611 142.845 123.531 143.495C125.971 144.045 127.191 145.774 126.821 147.764C126.451 149.754 124.541 151.064 122.041 150.764C120.601 150.574 119.181 150.274 117.751 150.034C115.991 149.744 114.231 149.474 112.531 149.204C110.741 155.034 116.461 170.834 121.411 173.814C122.281 172.874 123.191 171.814 124.131 170.894C125.961 168.994 127.741 167.045 129.661 165.255C131.581 163.465 133.661 163.254 135.211 164.824C136.761 166.394 136.561 168.544 134.821 170.424C133.081 172.304 131.031 174.344 129.141 176.304C128.221 177.304 127.301 178.224 126.411 179.164C132.151 185.604 148.541 190.424 154.121 188.084C153.741 186.254 153.331 184.404 152.951 182.544C152.461 180.144 151.841 177.764 151.571 175.344C151.478 174.473 151.712 173.597 152.227 172.888C152.743 172.178 153.503 171.685 154.361 171.505C155.215 171.331 156.102 171.471 156.861 171.899C157.619 172.327 158.198 173.014 158.491 173.834C158.715 174.328 158.886 174.845 159.001 175.375C159.421 177.375 159.791 179.294 160.221 181.244C160.651 183.194 161.221 185.384 161.741 187.704C173.741 184.644 182.741 178.144 188.991 167.235C187.751 166.795 186.861 166.444 185.991 166.154C181.321 164.654 176.641 163.214 171.991 161.684C170.694 161.295 169.451 160.744 168.291 160.044C167.665 159.652 167.192 159.057 166.952 158.358C166.712 157.659 166.719 156.899 166.971 156.204C167.175 155.497 167.608 154.876 168.201 154.438C168.794 154.001 169.514 153.771 170.251 153.784C171.338 153.814 172.413 154.01 173.441 154.365C178.121 155.825 182.771 157.364 187.441 158.834C188.891 159.294 190.371 159.684 192.061 160.164C194.481 151.384 194.341 143.035 190.891 134.615C190.201 134.885 189.781 135.015 189.381 135.205L165.171 146.404C161.711 147.994 158.261 149.625 154.751 151.095C153.909 151.442 152.966 151.458 152.113 151.138C151.26 150.818 150.56 150.187 150.154 149.371C149.748 148.555 149.667 147.616 149.926 146.743C150.185 145.869 150.766 145.127 151.551 144.664C152.72 143.971 153.933 143.353 155.181 142.814C165.234 138.148 175.284 133.511 185.331 128.904C185.933 128.604 186.517 128.27 187.081 127.904C184.321 122.004 174.421 114.055 168.751 113.125C168.521 113.575 168.241 114.035 168.031 114.535C166.311 118.634 164.621 122.745 162.891 126.845C162.494 127.857 162.012 128.833 161.451 129.764C161.014 130.519 160.318 131.089 159.493 131.371C158.667 131.652 157.768 131.625 156.961 131.294C156.176 130.924 155.546 130.289 155.181 129.502C154.815 128.714 154.737 127.823 154.961 126.985C155.217 126.022 155.551 125.082 155.961 124.175C157.541 120.315 159.161 116.465 160.741 112.595C160.971 111.94 161.161 111.272 161.311 110.595C151.621 108.215 139.421 110.945 133.941 114.735V114.705Z" fill="#3558A2"/>
<path d="M156.391 156.234C158.521 156.234 160.101 157.954 160.121 160.354C160.16 160.847 160.101 161.342 159.947 161.811C159.792 162.28 159.546 162.713 159.222 163.086C158.898 163.458 158.502 163.762 158.059 163.98C157.616 164.198 157.134 164.325 156.641 164.354C154.531 164.354 152.941 162.614 152.911 160.214C152.867 159.722 152.923 159.226 153.076 158.757C153.23 158.287 153.476 157.853 153.801 157.481C154.126 157.11 154.523 156.807 154.968 156.593C155.414 156.379 155.897 156.257 156.391 156.234V156.234Z" fill="#3558A2"/>
<path d="M176.542 124.824C176.583 125.297 176.526 125.773 176.374 126.222C176.221 126.672 175.977 127.085 175.656 127.435C175.335 127.785 174.945 128.064 174.51 128.255C174.076 128.446 173.606 128.544 173.132 128.544C172.144 128.503 171.205 128.102 170.492 127.417C169.779 126.732 169.341 125.809 169.262 124.824C169.206 124.329 169.259 123.828 169.416 123.356C169.572 122.884 169.83 122.451 170.17 122.088C170.511 121.724 170.926 121.439 171.387 121.252C171.848 121.065 172.344 120.98 172.842 121.004C173.337 121.006 173.827 121.108 174.283 121.302C174.738 121.496 175.15 121.78 175.495 122.136C175.84 122.491 176.11 122.912 176.29 123.374C176.469 123.836 176.555 124.329 176.542 124.824Z" fill="#3558A2"/>
<path d="M171.261 176.824C170.761 176.85 170.261 176.774 169.791 176.6C169.321 176.427 168.892 176.16 168.529 175.815C168.165 175.47 167.876 175.055 167.678 174.595C167.481 174.135 167.379 173.639 167.379 173.139C167.379 172.638 167.481 172.142 167.678 171.682C167.876 171.222 168.165 170.807 168.529 170.462C168.892 170.118 169.321 169.85 169.791 169.677C170.261 169.504 170.761 169.427 171.261 169.454C171.736 169.417 172.213 169.48 172.661 169.641C173.109 169.801 173.519 170.054 173.862 170.384C174.206 170.713 174.476 171.112 174.655 171.553C174.834 171.994 174.918 172.468 174.901 172.944C174.924 173.439 174.847 173.934 174.675 174.399C174.503 174.865 174.24 175.291 173.901 175.653C173.561 176.014 173.153 176.304 172.699 176.506C172.246 176.707 171.757 176.815 171.261 176.824Z" fill="#3558A2"/>
<path d="M149.332 119.634C149.377 120.122 149.32 120.615 149.166 121.081C149.012 121.546 148.763 121.975 148.435 122.341C148.108 122.706 147.709 123 147.262 123.204C146.816 123.408 146.333 123.518 145.842 123.527C145.352 123.536 144.865 123.444 144.411 123.256C143.958 123.068 143.548 122.789 143.208 122.436C142.867 122.083 142.603 121.663 142.432 121.204C142.26 120.744 142.186 120.254 142.212 119.764C142.188 118.8 142.547 117.866 143.211 117.167C143.875 116.467 144.789 116.06 145.752 116.034C146.231 116.009 146.709 116.086 147.156 116.258C147.603 116.431 148.008 116.695 148.346 117.035C148.684 117.374 148.946 117.781 149.116 118.229C149.286 118.677 149.36 119.156 149.332 119.634Z" fill="#3558A2"/>
<path d="M147.111 175.615C147.114 176.068 147.025 176.516 146.85 176.934C146.675 177.351 146.417 177.729 146.091 178.044C145.766 178.359 145.38 178.605 144.957 178.766C144.535 178.928 144.083 179.002 143.631 178.985C142.668 178.964 141.753 178.563 141.084 177.87C140.415 177.177 140.047 176.248 140.061 175.285C140.094 174.372 140.479 173.508 141.135 172.872C141.791 172.237 142.667 171.88 143.581 171.875C144.54 171.917 145.446 172.33 146.105 173.029C146.764 173.727 147.125 174.655 147.111 175.615Z" fill="#3558A2"/>
<path d="M188.451 148.235C188.438 149.155 188.066 150.033 187.414 150.681C186.761 151.33 185.881 151.697 184.961 151.705C184.483 151.712 184.008 151.619 183.567 151.432C183.126 151.245 182.729 150.968 182.402 150.619C182.074 150.27 181.823 149.856 181.665 149.404C181.506 148.952 181.444 148.472 181.481 147.995C181.556 147.083 181.969 146.232 182.638 145.609C183.308 144.985 184.186 144.634 185.101 144.625C186.016 144.681 186.875 145.088 187.499 145.76C188.122 146.432 188.463 147.318 188.451 148.235Z" fill="#3558A2"/>
<path d="M136.581 148.824C135.671 148.874 134.779 148.562 134.097 147.957C133.416 147.353 133 146.504 132.941 145.594C132.928 145.122 133.008 144.651 133.176 144.209C133.345 143.767 133.599 143.363 133.924 143.019C134.249 142.676 134.639 142.4 135.071 142.207C135.502 142.014 135.968 141.907 136.441 141.895C137.351 141.909 138.221 142.272 138.872 142.908C139.522 143.544 139.905 144.405 139.941 145.314C139.952 146.223 139.606 147.099 138.978 147.756C138.35 148.412 137.489 148.796 136.581 148.824V148.824Z" fill="#3558A2"/>
<path d="M123.58 131.033C124.258 131.012 124.927 131.192 125.503 131.55C126.078 131.909 126.535 132.43 126.814 133.048C127.093 133.666 127.183 134.353 127.072 135.022C126.961 135.692 126.654 136.313 126.19 136.807C125.726 137.302 125.126 137.648 124.466 137.802C123.805 137.955 123.114 137.91 122.479 137.67C121.844 137.431 121.295 137.009 120.9 136.458C120.505 135.907 120.282 135.251 120.26 134.573C120.243 134.122 120.315 133.672 120.473 133.249C120.631 132.826 120.872 132.438 121.181 132.109C121.489 131.78 121.861 131.515 122.273 131.33C122.685 131.146 123.129 131.045 123.58 131.033V131.033Z" fill="#3558A2"/>
</svg>
