<svg width="300" height="300" viewBox="0 0 300 300" fill="none" xmlns="http://www.w3.org/2000/svg">
<path d="M227.986 169.962C219.965 173.731 211.219 175.707 202.356 175.752C202.706 176.832 202.946 177.752 203.356 178.582C206.916 187.112 210.416 195.672 214.136 204.142C214.791 205.581 215.123 207.146 215.107 208.727C215.092 210.308 214.729 211.866 214.046 213.292C212.046 218.032 209.336 222.032 204.686 224.552C202.81 225.66 200.692 226.295 198.516 226.402C181.356 226.762 164.2 227.139 147.046 227.532L71.8162 229.242C69.7262 229.292 67.6462 229.452 65.5562 229.532C62.3962 229.642 59.2062 230.032 56.1462 228.782C55.8032 228.66 55.4404 228.602 55.0762 228.612C51.7196 228.597 48.4384 227.615 45.6262 225.782C42.0262 223.502 38.1861 221.652 34.9961 218.782C33.3461 217.282 32.5962 215.562 33.2162 213.442C34.4062 209.362 35.6162 205.272 37.0062 201.252C40.8395 190.126 44.7396 179.019 48.7062 167.932C49.3362 166.172 49.0062 164.562 48.9762 162.862C48.8962 157.512 48.9762 152.152 48.8062 146.792C48.3662 127.459 47.9062 108.126 47.4262 88.7922C47.3362 85.2522 47.2562 81.7122 47.2562 78.1622C47.2562 73.8922 49.5061 72.4722 52.7461 73.8822C54.5543 73.375 56.4002 73.0138 58.2662 72.8022C77.3262 72.3422 96.3962 71.9722 115.466 71.5622L162.036 70.5622L187.636 70.0222C188.546 70.0222 189.466 69.9722 190.366 70.0222C191.241 70.0152 192.089 70.3207 192.758 70.8835C193.427 71.4463 193.873 72.2296 194.016 73.0922C194.211 73.8843 194.312 74.6965 194.316 75.5122C194.496 81.7722 194.676 88.0322 194.806 94.3022C195.046 106.642 195.226 118.992 195.506 131.302C195.726 141.009 196.016 150.716 196.376 160.422C196.474 161.76 196.785 163.073 197.296 164.312C198.126 166.482 199.146 168.572 199.926 170.362C202.026 169.872 203.706 169.312 205.436 169.092C212.506 168.192 219.366 166.592 225.736 163.272C226.536 162.862 227.326 162.422 228.096 162.012C228.336 158.542 228.496 155.192 228.816 151.862C229.091 147.677 230.337 143.612 232.456 139.992C236.006 134.272 241.176 131.362 247.926 131.642C254.676 131.922 258.816 137.222 257.586 143.942C256.797 147.606 254.951 150.957 252.276 153.582C248.212 157.753 243.559 161.307 238.466 164.132C236.376 165.342 235.466 166.642 235.706 169.062C236.036 172.832 236.046 176.632 236.186 180.192C236.736 180.482 236.906 180.642 237.036 180.622C241.304 180.096 245.624 181.026 249.296 183.262C250.259 183.751 251.148 184.374 251.936 185.112C255.917 189.101 259.265 193.673 261.866 198.672C263.859 202.648 265.209 206.914 265.866 211.312C267.456 221.192 259.376 228.772 250.406 229.062C247.815 229.168 245.232 228.701 242.842 227.695C240.452 226.689 238.312 225.169 236.576 223.242C232.425 219.011 229.185 213.974 227.056 208.442C224.226 200.782 224.366 193.172 228.886 186.002C229.263 185.513 229.479 184.919 229.506 184.302C229.066 179.642 228.526 174.972 227.986 169.962ZM54.6762 80.1122C55.1162 107.212 55.7462 134.319 56.5662 161.432L188.796 158.492C188.226 131.192 187.656 104.292 187.096 77.1922L54.6762 80.1122ZM41.9762 209.502C45.2262 209.362 47.9762 209.202 50.6362 209.132L113.236 207.452C126.756 207.092 140.276 206.736 153.796 206.382C170.576 205.976 187.363 205.576 204.156 205.182C204.826 205.182 205.486 205.052 206.396 204.962C200.836 191.762 195.396 178.842 189.846 165.712L55.9662 168.712C51.3462 182.162 46.7462 195.562 41.9662 209.502H41.9762ZM44.9762 216.642C45.1262 216.952 45.1662 217.152 45.2862 217.242C45.7121 217.575 46.1597 217.879 46.6262 218.152C51.0654 220.662 56.0667 222.011 61.1662 222.072C74.6962 221.972 88.1663 221.662 101.736 221.362C121.606 220.912 141.476 220.362 161.346 219.932C172.596 219.662 183.856 219.482 195.106 219.232C196.378 219.251 197.646 219.096 198.876 218.772C202.116 217.772 204.876 216.042 206.176 212.412L44.9762 216.642ZM237.456 212.712C238.946 214.562 240.356 216.442 241.896 218.202C244.596 221.272 248.066 222.202 251.986 221.472C253.982 221.186 255.79 220.142 257.036 218.557C258.281 216.972 258.869 214.969 258.676 212.962C258.247 208.569 256.791 204.339 254.426 200.612C252.626 201.022 250.976 201.422 249.316 201.782C248.316 201.992 247.926 202.562 247.686 203.602C247.076 206.162 245.566 207.062 243.106 206.602C242.686 206.522 242.266 206.372 241.636 206.192L237.456 212.712ZM235.816 157.162C240.146 155.262 246.816 149.782 248.886 146.372C249.462 145.455 249.916 144.467 250.236 143.432C251.136 140.432 250.116 139.042 247.066 139.022C242.766 139.022 239.876 141.222 238.126 145.022C236.376 148.822 236.006 152.782 235.816 157.162V157.162ZM234.386 190.902C232.276 195.562 231.886 199.902 233.536 204.502L238.336 199.302L234.386 190.902ZM241.966 188.282C242.344 190.893 243.426 193.351 245.096 195.392L249.656 193.942C248.036 190.662 244.676 189.942 241.966 188.242V188.282Z" fill="#3558A2"/>
<path d="M54.6777 80.1122L187.088 77.2422C187.648 104.342 188.218 131.242 188.788 158.542L56.5577 161.482C55.7377 134.302 55.1111 107.179 54.6777 80.1122ZM123.238 150.502V150.412C138.938 150.092 154.638 149.759 170.338 149.412C173.418 149.342 176.508 149.202 179.588 149.032C182.208 148.882 183.528 147.592 183.818 144.972C183.868 144.34 183.868 143.705 183.818 143.072C183.538 134.822 183.208 126.572 182.968 118.312C182.698 108.972 182.518 99.6222 182.258 90.3122C182.211 88.9526 182.084 87.5969 181.878 86.2522C181.757 85.4341 181.362 84.6813 180.757 84.1178C180.151 83.5544 179.372 83.2138 178.548 83.1522C177.735 83.0502 176.915 83.0234 176.098 83.0722L72.8877 83.2622C70.8877 83.2622 68.8877 83.2022 66.8877 83.3422C63.2477 83.6122 61.0878 85.6422 60.5878 89.1822C60.3848 90.5257 60.2911 91.8835 60.3077 93.2422C60.4077 96.8722 60.6177 100.492 60.7677 104.122C61.3477 118.172 61.9778 132.222 62.4878 146.272C62.6278 150.272 64.4878 151.932 68.2278 151.752C74.2978 151.462 80.3878 151.362 86.4678 151.232C98.7278 150.972 110.978 150.752 123.228 150.502H123.238Z" fill="white"/>
<path d="M41.9668 209.503C46.7468 195.563 51.3468 182.163 55.9668 168.703L189.847 165.703C195.377 178.833 200.847 191.703 206.397 204.953C205.487 205.043 204.827 205.153 204.157 205.173C187.37 205.573 170.583 205.973 153.797 206.373C140.277 206.713 126.757 207.07 113.237 207.443L50.6367 209.123C47.9167 209.243 45.2168 209.363 41.9668 209.503ZM100.857 204.433V204.373L126.157 203.473C132.417 203.253 138.677 203.063 144.937 202.813C146.281 202.733 147.617 202.559 148.937 202.293C152.497 201.633 153.687 199.993 152.797 196.573C151.027 189.743 149.117 182.943 147.207 176.143C146.913 174.985 146.28 173.941 145.39 173.144C144.499 172.348 143.391 171.836 142.207 171.673C141.137 171.493 140.052 171.413 138.967 171.433C115.54 171.56 92.1168 171.71 68.6968 171.883C67.2499 171.916 65.8097 172.09 64.3967 172.403C63.3556 172.596 62.3874 173.072 61.5975 173.777C60.8076 174.482 60.2263 175.39 59.9167 176.403C57.2367 184.293 54.5468 192.173 51.9868 200.093C50.9868 203.143 52.6967 205.473 55.8967 205.873C56.6172 205.953 57.343 205.973 58.0668 205.933L100.857 204.433ZM174.367 198.643V198.563C178.367 198.423 182.367 198.343 186.367 198.123C189.877 197.913 191.517 195.693 190.477 192.383C188.887 187.293 187.077 182.263 185.357 177.203C185.082 176.183 184.478 175.283 183.639 174.641C182.8 173.999 181.773 173.652 180.717 173.653C174.097 173.403 167.477 173.173 160.857 173.103C159.707 173.103 158.037 173.573 157.487 174.413C156.177 176.413 154.927 178.643 155.487 181.243C156.487 185.663 157.487 190.083 158.577 194.483C159.347 197.613 160.797 198.643 164.017 198.643H174.367Z" fill="white"/>
<path d="M44.9766 216.642L206.177 212.412C204.837 216.042 202.116 217.752 198.876 218.772C197.647 219.096 196.378 219.251 195.107 219.232C183.857 219.482 172.597 219.662 161.347 219.932C141.477 220.392 121.607 220.932 101.737 221.362C88.2166 221.662 74.7365 221.972 61.1665 222.072C56.0671 222.011 51.0657 220.662 46.6265 218.152C46.16 217.879 45.7124 217.575 45.2865 217.242C45.1665 217.152 45.1266 216.952 44.9766 216.642Z" fill="#979FBB"/>
<path d="M237.457 212.712L241.677 206.242C242.307 206.422 242.677 206.572 243.147 206.652C245.607 207.092 247.147 206.192 247.727 203.652C247.967 202.652 248.337 202.042 249.357 201.832C251.017 201.472 252.667 201.072 254.467 200.662C256.832 204.389 258.288 208.619 258.717 213.012C258.91 215.019 258.322 217.022 257.076 218.607C255.831 220.192 254.022 221.236 252.027 221.522C248.107 222.222 244.637 221.322 241.937 218.252C240.357 216.442 238.947 214.562 237.457 212.712Z" fill="#979FBB"/>
<path d="M234.387 190.902L238.387 199.302L233.587 204.502C231.887 199.892 232.277 195.562 234.387 190.902Z" fill="#979FBB"/>
<path d="M241.967 188.242C244.677 189.902 248.037 190.622 249.657 193.902L245.097 195.352C243.427 193.311 242.345 190.853 241.967 188.242V188.242Z" fill="#979FBB"/>
<path d="M123.228 150.502C110.978 150.752 98.7283 150.972 86.4783 151.232C80.3983 151.362 74.3083 151.462 68.2383 151.752C64.5483 151.932 62.6382 150.262 62.4982 146.272C61.9882 132.272 61.3582 118.172 60.7782 104.122C60.6282 100.492 60.4183 96.8725 60.3183 93.2425C60.3017 91.8838 60.3953 90.526 60.5983 89.1825C61.0983 85.6425 63.2582 83.6125 66.8982 83.3425C68.8982 83.2025 70.8982 83.2625 72.8982 83.2625L176.108 83.0725C176.926 83.0237 177.746 83.0505 178.558 83.1525C179.383 83.2141 180.162 83.5547 180.767 84.1181C181.373 84.6816 181.768 85.4344 181.888 86.2525C182.095 87.5972 182.221 88.9529 182.268 90.3125C182.528 99.6525 182.708 109.002 182.978 118.312C183.218 126.572 183.548 134.822 183.828 143.072C183.879 143.705 183.879 144.34 183.828 144.972C183.538 147.592 182.218 148.882 179.598 149.032C176.518 149.202 173.428 149.342 170.348 149.412C154.648 149.752 138.948 150.086 123.248 150.412L123.228 150.502ZM116.678 90.8525H67.4383C67.8383 99.1125 68.2182 107.112 68.6182 115.302L76.6182 114.942C78.6182 109.632 80.8683 106.442 86.3383 103.142C85.5283 100.232 85.8883 97.6125 88.8183 95.9325C91.1083 94.6125 93.5583 94.3125 95.8183 95.8425C98.8183 97.9525 98.2783 100.932 97.0283 103.912C100.653 105.76 103.611 108.693 105.488 112.302C105.707 112.728 106.013 113.102 106.388 113.4C106.762 113.699 107.195 113.914 107.658 114.032C110.598 114.112 113.548 113.862 116.738 113.732L116.678 90.8525ZM143.548 128.852C143.318 125.072 144.188 123.052 146.548 121.682C147.484 121.108 148.569 120.822 149.666 120.861C150.764 120.901 151.826 121.263 152.718 121.902C155.718 123.822 155.488 126.682 154.548 129.702C156.958 130.931 159.072 132.67 160.744 134.797C162.415 136.925 163.604 139.39 164.228 142.022C166.408 142.022 168.388 142.022 170.368 142.022C172.348 142.022 174.288 141.932 176.478 141.882C176.228 134.292 175.988 127.012 175.738 119.462L123.918 120.942V142.942H133.678C136.368 137.752 138.268 132.242 143.508 128.832L143.548 128.852ZM174.908 90.5625C170.358 90.0125 126.078 90.5025 124.278 91.0625C123.788 96.2625 123.938 111.572 124.508 113.552C126.118 113.552 127.748 113.462 129.368 113.552C130.126 113.666 130.9 113.502 131.547 113.09C132.194 112.679 132.67 112.047 132.888 111.312C134.447 107.785 137.208 104.925 140.678 103.242C141.112 102.988 141.529 102.708 141.928 102.402C140.208 98.2125 140.548 95.8125 143.108 93.6125C144.281 92.5177 145.793 91.8587 147.393 91.7458C148.994 91.6329 150.584 92.0731 151.898 92.9925C155.318 95.1325 156.338 98.1825 155.348 102.392C157.108 105.122 158.688 107.512 160.208 109.952C161.068 111.322 162.208 112.462 163.828 112.442C167.618 112.442 171.398 112.182 175.528 112.012C175.288 104.722 175.078 97.6825 174.868 90.5425L174.908 90.5625ZM68.9083 122.562C69.2083 129.852 69.4983 136.952 69.7883 144.142H77.0282C78.7183 138.492 80.9183 133.372 86.3383 130.592C87.1483 125.722 89.0383 123.362 92.1683 123.592C93.4034 123.769 94.5752 124.25 95.5783 124.992C97.5783 126.332 96.7882 128.582 96.9982 130.522C101.828 132.372 104.608 135.992 106.298 140.642C106.798 142.012 107.718 143.392 109.298 143.472C111.608 143.602 113.948 143.362 116.388 143.272V121.142L68.9083 122.562ZM99.0583 143.632C98.9653 141.848 98.1838 140.169 96.8782 138.95C95.5727 137.73 93.8448 137.064 92.0583 137.092C88.4283 136.892 86.1583 139.092 84.9583 144.152L99.0583 143.632ZM156.208 142.412C155.458 139.202 152.008 135.832 149.208 135.412C148.588 135.248 147.933 135.271 147.325 135.479C146.718 135.688 146.187 136.072 145.798 136.582C144.508 138.412 143.368 140.332 142.008 142.452L156.208 142.412ZM97.9683 114.412C95.9683 111.652 93.8983 110.022 91.0783 110.012C88.0783 110.012 86.2483 111.952 84.8583 114.892L97.9683 114.412ZM153.168 112.842C152.278 109.842 150.468 108.842 148.098 108.842C146.615 108.852 145.156 109.221 143.846 109.918C142.537 110.614 141.415 111.618 140.578 112.842H153.168Z" fill="#3558A2"/>
<path d="M100.857 204.434L58.1267 205.904C57.403 205.944 56.6773 205.924 55.9568 205.844C52.7568 205.444 51.0568 203.114 52.0468 200.064C54.6068 192.144 57.2968 184.264 59.9768 176.373C60.2864 175.361 60.8677 174.452 61.6576 173.747C62.4475 173.042 63.4157 172.567 64.4568 172.373C65.8699 172.061 67.3099 171.887 68.7568 171.853C92.1768 171.673 115.6 171.523 139.027 171.403C140.112 171.383 141.197 171.463 142.267 171.643C143.451 171.806 144.559 172.318 145.45 173.115C146.34 173.911 146.973 174.955 147.267 176.113C149.177 182.913 151.087 189.714 152.857 196.544C153.747 199.964 152.557 201.604 148.997 202.264C147.677 202.529 146.341 202.703 144.997 202.784C138.737 203.034 132.477 203.224 126.217 203.444L100.917 204.344L100.857 204.434ZM111.597 190.504C103.727 190.574 96.0368 190.974 88.2768 190.954V197.564L111.597 196.644V190.504ZM143.457 190.054L119.357 190.524V196.414L144.907 195.414L143.457 190.054ZM80.8667 191.164H62.6768C61.8468 193.634 61.0568 195.974 60.1868 198.574L80.4268 197.814L80.8667 191.164ZM88.7868 183.164H111.037C111.037 182.254 111.037 181.624 111.037 181.004C111.037 180.384 110.837 179.814 110.707 179.004L88.7968 179.453L88.7868 183.164ZM140.467 179.113H118.227C118.407 180.483 118.557 181.623 118.717 182.763H141.427L140.467 179.113ZM65.2068 183.714H81.2068V179.613H66.6069C66.1269 181.003 65.6768 182.243 65.2068 183.733V183.714Z" fill="#3558A2"/>
<path d="M174.366 198.642H164.016C160.796 198.642 159.346 197.642 158.576 194.482C157.486 190.082 156.476 185.662 155.486 181.242C154.896 178.642 156.146 176.402 157.486 174.412C158.036 173.572 159.706 173.082 160.856 173.102C167.476 173.172 174.096 173.402 180.716 173.652C181.772 173.651 182.799 173.998 183.638 174.64C184.477 175.282 185.081 176.182 185.356 177.202C187.076 182.262 188.886 187.292 190.476 192.382C191.476 195.692 189.876 197.912 186.366 198.122C182.366 198.342 178.366 198.422 174.366 198.562V198.642ZM162.946 180.482C163.876 184.392 164.666 187.702 165.416 190.872H182.136L178.806 181.022L162.946 180.482Z" fill="#3558A2"/>
<path d="M116.677 90.8535V113.734C113.487 113.864 110.537 114.114 107.597 114.034C107.134 113.915 106.7 113.7 106.326 113.402C105.952 113.103 105.646 112.729 105.427 112.304C103.55 108.694 100.592 105.761 96.967 103.914C98.217 100.914 98.787 97.9135 95.757 95.8435C93.547 94.3135 91.097 94.6135 88.757 95.9335C85.827 97.6135 85.467 100.234 86.277 103.144C80.807 106.444 78.567 109.634 76.557 114.944L68.557 115.304C68.157 107.114 67.777 99.1135 67.377 90.8535H116.677Z" fill="white"/>
<path d="M143.507 128.833C138.267 132.213 136.367 137.753 133.697 142.913H123.887V120.913L175.677 119.443C175.927 126.993 176.167 134.273 176.417 141.863C174.227 141.913 172.267 141.973 170.307 142.003C168.347 142.033 166.307 142.003 164.167 142.003C163.543 139.371 162.354 136.906 160.682 134.778C159.011 132.651 156.897 130.912 154.487 129.683C155.427 126.683 155.657 123.803 152.657 121.883C151.764 121.244 150.703 120.881 149.605 120.842C148.507 120.803 147.423 121.089 146.487 121.663C144.147 123.033 143.277 125.053 143.507 128.833Z" fill="white"/>
<path d="M174.866 90.5427C175.076 97.6827 175.286 104.723 175.496 112.033C171.366 112.203 167.586 112.443 163.796 112.463C162.156 112.463 161.036 111.343 160.176 109.973C158.656 107.533 157.076 105.143 155.316 102.413C156.316 98.2028 155.316 95.1527 151.866 93.0127C150.552 92.0933 148.962 91.6532 147.362 91.7661C145.762 91.8789 144.249 92.5379 143.076 93.6327C140.516 95.8328 140.176 98.2327 141.896 102.423C141.497 102.728 141.08 103.008 140.646 103.263C137.176 104.938 134.412 107.791 132.847 111.313C132.628 112.048 132.152 112.679 131.505 113.091C130.858 113.502 130.085 113.666 129.326 113.553C127.706 113.443 126.077 113.553 124.467 113.553C123.897 111.553 123.747 96.2627 124.237 91.0627C126.037 90.4827 170.316 89.9927 174.866 90.5427Z" fill="#EAECF1"/>
<path d="M68.877 122.503L116.357 121.143V143.243C113.917 143.333 111.577 143.573 109.267 143.443C107.687 143.363 106.767 141.983 106.267 140.613C104.577 135.963 101.797 132.343 96.967 130.493C96.757 128.553 97.497 126.303 95.547 124.963C94.5439 124.221 93.3721 123.74 92.137 123.563C89.007 123.303 87.137 125.663 86.307 130.563C80.887 133.343 78.6869 138.463 76.9969 144.113H69.757C69.467 136.893 69.177 129.793 68.877 122.503Z" fill="#979FBB"/>
<path d="M99.0267 143.572L84.9668 144.092C86.1668 139.022 88.4368 136.832 92.0668 137.032C93.8464 137.014 95.5641 137.685 96.8611 138.903C98.1581 140.122 98.934 141.795 99.0267 143.572V143.572Z" fill="white"/>
<path d="M156.178 142.353H141.928C143.288 140.233 144.428 138.354 145.718 136.484C146.106 135.973 146.638 135.589 147.245 135.38C147.852 135.172 148.507 135.149 149.128 135.314C151.978 135.774 155.428 139.143 156.178 142.353Z" fill="white"/>
<path d="M97.9381 114.312L84.8281 114.792C86.2181 111.852 88.0681 109.902 91.0481 109.912C93.8681 109.922 95.9881 111.552 97.9381 114.312Z" fill="white"/>
<path d="M153.137 112.743H140.547C141.384 111.518 142.505 110.515 143.815 109.818C145.125 109.121 146.584 108.752 148.067 108.743C150.437 108.713 152.247 109.713 153.137 112.743Z" fill="white"/>
<path d="M111.597 190.502V196.642L88.2773 197.562V190.952C96.0373 190.972 103.727 190.572 111.597 190.502Z" fill="#EAECF1"/>
<path d="M143.457 190.053L144.907 195.373L119.357 196.373V190.483L143.457 190.053Z" fill="#EAECF1"/>
<path d="M80.8667 191.162L80.4568 197.812L60.2168 198.572C61.0868 195.972 61.8768 193.632 62.7068 191.162H80.8667Z" fill="#EAECF1"/>
<path d="M88.7871 183.183V179.483L110.697 179.033C110.827 179.833 110.977 180.423 111.027 181.033C111.077 181.643 111.027 182.283 111.027 183.193L88.7871 183.183Z" fill="#EAECF1"/>
<path d="M140.468 179.133L141.468 182.783H118.677C118.517 181.643 118.368 180.503 118.188 179.133H140.468Z" fill="#EAECF1"/>
<path d="M65.207 183.733C65.697 182.263 66.127 181.003 66.577 179.633H81.177V183.733H65.207Z" fill="#EAECF1"/>
<path d="M162.947 180.482L178.807 181.022L182.137 190.872H165.417C164.677 187.702 163.877 184.392 162.947 180.482Z" fill="#979FBB"/>
</svg>
