<svg width="300" height="300" viewBox="0 0 300 300" fill="none" xmlns="http://www.w3.org/2000/svg">
<path d="M79.1174 154.164C74.7674 151.064 70.5174 148.164 66.3774 145.064C59.8581 140.223 54.6478 133.834 51.2174 126.474C49.299 122.532 48.6026 118.106 49.2174 113.764C49.9374 108.594 54.3074 105.435 59.5074 105.935C63.7474 106.345 66.7473 108.524 69.2173 111.764C72.4348 116.164 75.0638 120.964 77.0374 126.044C79.8074 132.754 82.4974 139.494 85.2274 146.214C85.5374 146.964 85.8974 147.694 86.3274 148.654C93.5974 147.764 100.837 147.014 108.247 145.844C107.347 143.844 106.607 142.064 105.817 140.334C99.6974 126.974 93.4374 113.674 87.4974 100.234C85.1919 95.2628 84.2299 89.7737 84.7073 84.3144C84.9804 81.4886 86.1711 78.8299 88.0973 76.7444C90.1525 74.4345 92.7215 72.6397 95.5973 71.5045C101.937 69.0645 108.237 66.5045 114.517 63.8845C115.374 63.4124 116.071 62.695 116.517 61.8244C118.266 58.8422 120.597 56.2428 123.371 54.1811C126.146 52.1194 129.308 50.6377 132.667 49.8244C136.217 48.9299 139.911 48.7613 143.528 49.3286C147.145 49.8958 150.61 51.1875 153.716 53.1259C156.821 55.0644 159.504 57.6099 161.602 60.6098C163.7 63.6097 165.172 67.0023 165.927 70.5844C167.216 76.6956 166.253 83.0665 163.217 88.5245L169.327 100.334C181.047 92.6044 192.817 92.2245 203.897 100.624C214.447 108.624 217.547 119.624 213.827 132.744C215.887 132.534 217.827 132.364 219.727 132.124C223.237 131.684 226.727 131.124 230.247 130.774C233.767 130.424 235.247 131.124 236.567 134.514C241.567 147.734 246.727 160.934 249.017 174.994C250.397 183.454 251.017 191.994 249.247 200.444C248.187 205.784 246.422 210.96 243.997 215.834C240.999 221.59 236.456 226.397 230.877 229.714C221.693 235.404 211.846 239.948 201.557 243.244C194.199 245.55 186.668 247.265 179.037 248.374C175.907 248.864 172.767 249.374 169.667 250.064C164.761 250.994 159.781 251.473 154.787 251.494C148.077 251.694 141.347 251.824 134.647 251.574C122.13 251.18 110.026 246.995 99.9374 239.574C93.8574 235.073 88.9774 229.146 85.7274 222.314C82.2419 215.422 79.9719 207.979 79.0174 200.314C78.6474 197.314 78.4074 194.174 78.2574 191.094C77.9874 185.094 77.5974 179.094 77.6674 173.094C77.7174 166.734 77.8774 160.294 79.1174 154.164ZM230.297 137.464C224.537 138.194 218.767 138.754 213.057 139.694C207.517 140.624 202.057 141.804 196.387 142.194C191.777 142.514 187.177 143.074 182.577 143.584C175.731 144.344 168.884 145.128 162.037 145.935C157.187 146.505 152.327 147.134 147.477 147.734C142.257 148.394 137.047 149.064 131.827 149.734C126.827 150.364 121.757 150.954 116.717 151.584L96.7173 154.104L85.7974 155.474C85.5184 156.352 85.3144 157.252 85.1874 158.164C84.8074 164.224 84.1874 170.294 84.1874 176.354C84.1874 182.244 84.8974 188.124 85.0774 194.024C85.3957 203.767 88.0575 213.289 92.8373 221.784C94.3482 224.58 96.2063 227.174 98.3674 229.504C103.767 235.194 110.467 238.994 117.777 241.734C123.593 243.837 129.724 244.936 135.907 244.984C146.777 245.204 157.697 245.374 168.477 243.464C175.967 242.134 183.477 240.714 190.897 239.114C203.797 236.344 215.637 230.914 226.897 224.254C231.715 221.569 235.634 217.524 238.167 212.624C240.293 208.312 241.821 203.73 242.707 199.004C244.187 191.314 243.627 183.644 242.377 176.004C240.267 163.004 235.507 150.854 230.997 138.604C230.789 138.203 230.544 137.822 230.267 137.464H230.297ZM140.167 94.8244C142.689 94.9003 145.201 94.4764 147.558 93.577C149.915 92.6776 152.071 91.3205 153.902 89.584C155.732 87.8476 157.201 85.7662 158.223 83.4595C159.245 81.1529 159.8 78.6668 159.857 76.1445C159.867 73.4412 159.34 70.763 158.308 68.2646C157.275 65.7662 155.758 63.4973 153.843 61.5891C151.928 59.6808 149.654 58.1711 147.153 57.1473C144.651 56.1235 141.971 55.6059 139.267 55.6245C136.732 55.5497 134.208 55.9832 131.843 56.8995C129.478 57.8158 127.32 59.1963 125.497 60.9597C123.675 62.723 122.223 64.8333 121.229 67.1664C120.234 69.4996 119.717 72.0083 119.707 74.5445C119.547 87.1645 130.587 95.1844 140.167 94.8244V94.8244ZM165.287 138.824C164.537 137.644 164.047 136.894 163.577 136.124C160.988 131.931 159.546 127.131 159.397 122.204C159.209 116.996 160.604 111.854 163.397 107.454C163.827 106.893 164.07 106.211 164.091 105.504C164.113 104.797 163.912 104.101 163.517 103.514C162.187 101.144 161.067 98.6544 159.837 96.2444C159.475 95.6115 159.082 94.9974 158.657 94.4045C150.657 101.284 141.657 103.134 131.157 100.074C137.507 113.934 143.607 127.234 149.787 140.734L165.287 138.824ZM132.037 142.754C135.428 142.659 138.804 142.27 142.127 141.594C141.577 140.264 141.207 139.264 140.757 138.294L124.667 103.224C123.427 100.514 122.087 97.8245 121.047 95.0345C120.608 93.7653 119.959 92.5788 119.127 91.5245C115.045 86.5769 112.877 80.3272 113.017 73.9145C113.017 73.2445 112.917 72.5745 112.857 71.6745C109.127 73.2345 105.597 74.5245 102.187 76.1245C110.897 99.0345 121.147 120.844 132.037 142.774V142.754ZM185.477 124.524C189.417 124.604 191.407 124.894 190.927 130.134C192.133 129.703 193.237 129.03 194.172 128.156C195.108 127.283 195.855 126.227 196.367 125.055C197.227 122.965 198.927 122.124 200.647 122.614C202.367 123.104 203.367 124.874 202.967 127.214C202.439 129.631 201.085 131.789 199.137 133.314L196.847 135.314C199.117 134.854 200.847 134.194 202.627 134.204C205.627 134.204 206.787 132.584 207.487 130.134C207.557 129.874 207.687 129.624 207.757 129.364C209.907 121.144 208.197 113.834 202.177 107.814C196.157 101.794 188.747 99.6844 180.447 102.104C175.955 103.392 172.061 106.226 169.454 110.104C166.847 113.983 165.694 118.658 166.197 123.305C166.667 128.425 168.887 132.624 172.057 136.514C172.368 136.948 172.791 137.287 173.282 137.495C173.772 137.703 174.31 137.772 174.837 137.694C176.173 137.711 177.509 137.648 178.837 137.504C180.597 137.124 182.587 137.634 184.367 136.334L181.467 134.634C180.567 134.994 179.827 135.344 179.047 135.634C178.247 135.975 177.35 136.016 176.522 135.75C175.694 135.483 174.989 134.928 174.537 134.185C173.637 132.685 174.027 131.064 175.617 129.614C176.007 129.254 176.347 128.844 176.937 128.224C173.337 128.554 171.747 127.834 171.187 125.874C170.627 123.914 171.497 122.664 175.047 120.664C175.217 119.864 175.477 118.984 175.577 118.094C175.815 116.19 176.627 114.404 177.907 112.974C180.757 109.494 184.617 108.144 188.907 107.974C189.635 107.929 190.363 108.031 191.051 108.273C191.738 108.515 192.369 108.893 192.907 109.384C193.37 109.756 193.712 110.257 193.89 110.823C194.068 111.389 194.074 111.995 193.907 112.564C193.784 113.149 193.491 113.684 193.066 114.103C192.642 114.523 192.103 114.808 191.517 114.924C190.817 115.064 190.067 114.924 189.357 115.094C187.627 115.374 185.717 115.194 184.207 117.014C184.807 116.924 185.147 116.904 185.467 116.824C185.787 116.744 186.337 116.564 186.777 116.474C188.957 116.024 190.637 116.814 191.247 118.534C191.512 119.412 191.441 120.358 191.048 121.186C190.654 122.014 189.966 122.666 189.117 123.014C188.137 123.504 187.027 123.894 185.477 124.544V124.524ZM124.477 143.935C122.797 140.385 121.407 137.334 119.907 134.324C111.347 117.124 103.567 99.5712 96.5674 81.6645C96.3174 81.0345 95.9574 80.4545 95.5674 79.7645C94.3387 80.3452 93.3101 81.2778 92.6122 82.4439C91.9143 83.6101 91.5785 84.9571 91.6474 86.3144C91.7829 91.3114 92.9257 96.2297 95.0074 100.774C101.197 114.584 107.537 128.324 113.827 142.094C114.237 142.994 114.677 143.874 115.217 144.994L124.477 143.935ZM76.4774 144.294L76.9673 143.914C76.4473 142.594 75.9674 141.274 75.4074 139.974C73.0274 134.294 70.7674 128.554 68.1674 122.974C66.7606 120.236 65.1319 117.617 63.2974 115.144C62.8688 114.444 62.2855 113.851 61.5921 113.41C60.8988 112.97 60.1138 112.694 59.2974 112.604C56.7474 112.354 55.7274 113.154 55.6074 115.704C55.4496 118.524 56.0177 121.337 57.2574 123.874C60.2694 130.119 64.7258 135.555 70.2574 139.734C72.3774 141.314 74.4874 142.794 76.5674 144.314L76.4774 144.294Z" fill="#3558A2"/>
<path d="M230.267 137.465C230.531 137.804 230.765 138.166 230.967 138.545C235.477 150.795 240.237 162.965 242.347 175.945C243.597 183.595 244.157 191.265 242.677 198.945C241.79 203.67 240.263 208.253 238.137 212.565C235.644 217.457 231.771 221.511 226.997 224.225C215.687 230.885 203.847 236.315 190.997 239.085C183.557 240.685 176.067 242.085 168.577 243.435C157.797 245.345 146.877 245.175 136.007 244.955C129.823 244.907 123.693 243.808 117.877 241.705C110.567 238.965 103.877 235.165 98.467 229.475C96.3059 227.145 94.448 224.551 92.9371 221.755C88.1573 213.26 85.4954 203.737 85.1771 193.995C84.9971 188.095 84.2871 182.215 84.2871 176.325C84.2871 170.265 84.8671 164.195 85.2871 158.135C85.4141 157.223 85.6181 156.323 85.8971 155.445L96.8171 154.075L116.817 151.555C121.817 150.925 126.897 150.335 131.927 149.705C137.147 149.055 142.357 148.385 147.577 147.705C152.427 147.105 157.287 146.475 162.137 145.905C168.984 145.098 175.83 144.315 182.677 143.555C187.277 143.045 191.877 142.485 196.487 142.165C202.117 141.775 207.617 140.595 213.157 139.665C218.767 138.755 224.537 138.195 230.267 137.465ZM120.897 183.275C124.277 187.095 127.987 191.275 131.727 195.505C132.987 196.925 134.327 198.275 135.597 199.695C137.048 201.344 137.919 203.424 138.077 205.615C138.599 209.771 138.168 213.99 136.817 217.955C136.095 219.806 135.257 221.61 134.307 223.355C132.927 226.035 133.607 228.575 136.157 229.795C136.818 230.09 137.514 230.302 138.227 230.425C143.907 231.555 149.577 232.685 155.227 233.765C157.715 234.305 160.29 234.308 162.78 233.776C165.27 233.243 167.618 232.186 169.667 230.675C170.257 230.255 170.807 229.775 171.407 229.375C173.957 227.685 176.517 226.605 179.807 227.465C182.27 228.091 184.833 228.22 187.347 227.845C194.077 226.845 198.707 222.535 202.347 217.065C202.893 216.266 203.141 215.301 203.048 214.337C202.954 213.374 202.526 212.475 201.837 211.795C201.017 210.795 200.037 210.015 199.147 209.095C196.877 206.755 194.497 204.475 193.087 201.475C191.973 199.182 191.352 196.681 191.266 194.133C191.18 191.585 191.63 189.048 192.587 186.685C194.307 182.205 196.247 177.805 198.087 173.375C198.594 172.31 199.035 171.214 199.407 170.095C200.207 167.205 198.937 165.095 195.997 164.405C194.753 164.166 193.493 164.023 192.227 163.975C189.427 163.745 186.617 163.685 183.837 163.315C179.854 162.907 176.03 161.534 172.697 159.315C169.697 157.175 166.777 154.825 163.967 152.405C160.787 149.675 157.067 150.705 156.027 154.735C155.703 156.146 155.303 157.538 154.827 158.905C152.927 163.905 150.477 168.515 145.227 170.835C144.307 171.235 143.427 171.735 142.487 172.035C137.317 173.705 132.167 175.415 126.947 176.925C123.977 177.755 121.267 178.695 120.927 183.275H120.897Z" fill="#979FBB"/>
<path d="M140.167 94.8247C130.587 95.1847 119.547 87.1647 119.667 74.5047C119.682 71.9684 120.204 69.4608 121.203 67.1296C122.203 64.7984 123.659 62.6908 125.485 60.9312C127.312 59.1716 129.473 57.7956 131.839 56.8842C134.206 55.9729 136.732 55.5446 139.267 55.6247C141.977 55.6008 144.665 56.1158 147.174 57.1397C149.683 58.1636 151.964 59.6761 153.883 61.5891C155.803 63.5021 157.323 65.7775 158.355 68.2832C159.388 70.7888 159.912 73.4748 159.897 76.1848C159.835 78.7072 159.274 81.1922 158.247 83.4969C157.22 85.8016 155.747 87.8803 153.913 89.613C152.079 91.3457 149.92 92.6984 147.561 93.5929C145.202 94.4873 142.689 94.9059 140.167 94.8247V94.8247ZM136.737 74.5947C135.457 77.0547 134.187 79.2448 133.137 81.5348C132.688 82.3353 132.571 83.2797 132.81 84.1657C133.05 85.0517 133.626 85.8088 134.417 86.2747C134.837 86.504 135.298 86.6463 135.774 86.6933C136.25 86.7403 136.73 86.691 137.187 86.5482C137.643 86.4054 138.066 86.1721 138.43 85.8623C138.795 85.5524 139.093 85.1723 139.307 84.7447C141.827 80.4647 144.264 76.1314 146.617 71.7447C147.131 70.6922 147.398 69.5361 147.397 68.3647C147.421 67.8868 147.345 67.4092 147.175 66.962C147.005 66.5148 146.744 66.1078 146.408 65.7667C146.073 65.4255 145.67 65.1577 145.226 64.9801C144.781 64.8024 144.305 64.7189 143.827 64.7347C142.928 64.6832 142.026 64.795 141.167 65.0647C138.934 65.8247 136.737 66.6647 134.577 67.5847C133.749 67.9428 133.004 68.4669 132.387 69.1247C131.973 69.5768 131.694 70.1364 131.582 70.7395C131.47 71.3426 131.531 71.9649 131.756 72.5354C131.981 73.1058 132.362 73.6014 132.856 73.9655C133.349 74.3297 133.935 74.5477 134.547 74.5947C135.167 74.6247 135.797 74.6247 136.737 74.6247V74.5947Z" fill="#EAECF1"/>
<path d="M165.268 138.844L149.728 140.754C143.548 127.254 137.448 113.954 131.098 100.094C141.558 103.154 150.548 101.304 158.598 94.4238C159.022 95.0168 159.416 95.6308 159.778 96.2638C161.008 98.6738 162.128 101.164 163.458 103.534C163.852 104.121 164.053 104.816 164.031 105.523C164.01 106.23 163.767 106.912 163.338 107.474C160.544 111.873 159.149 117.016 159.338 122.224C159.487 127.15 160.928 131.95 163.518 136.144C164.048 136.914 164.538 137.624 165.268 138.844Z" fill="white"/>
<path d="M132.037 142.773C121.147 120.843 110.898 99.0334 102.188 76.1434C105.598 74.5434 109.127 73.2534 112.857 71.6934C112.917 72.5934 113.027 73.2635 113.017 73.9335C112.877 80.3462 115.045 86.5958 119.127 91.5435C119.959 92.5978 120.608 93.7843 121.047 95.0535C122.047 97.8435 123.427 100.533 124.667 103.243L140.757 138.313C141.207 139.313 141.577 140.313 142.127 141.613C138.804 142.289 135.428 142.678 132.037 142.773V142.773Z" fill="#EAECF1"/>
<path d="M185.478 124.545C187.028 123.895 188.138 123.545 189.178 122.985C190.026 122.636 190.714 121.984 191.108 121.156C191.502 120.328 191.573 119.382 191.308 118.505C190.698 116.785 189.018 115.994 186.838 116.444C186.398 116.534 185.968 116.695 185.528 116.795C185.088 116.895 184.868 116.895 184.268 116.985C185.778 115.165 187.688 115.344 189.418 115.064C190.128 114.944 190.878 115.065 191.578 114.895C192.164 114.778 192.702 114.493 193.127 114.073C193.552 113.654 193.844 113.119 193.968 112.535C194.135 111.965 194.129 111.359 193.951 110.793C193.773 110.227 193.431 109.726 192.968 109.355C192.43 108.863 191.799 108.485 191.112 108.243C190.424 108.001 189.695 107.899 188.968 107.944C184.648 108.134 180.788 109.484 177.968 112.944C176.688 114.374 175.875 116.16 175.638 118.064C175.538 118.954 175.278 119.835 175.108 120.635C171.558 122.635 170.678 123.845 171.248 125.845C171.818 127.845 173.398 128.525 176.998 128.195C176.408 128.815 176.068 129.195 175.678 129.585C174.088 131.035 173.678 132.655 174.598 134.155C175.05 134.898 175.755 135.453 176.583 135.72C177.411 135.986 178.308 135.945 179.108 135.605C179.888 135.365 180.628 135.015 181.528 134.605L184.428 136.305C182.648 137.605 180.658 137.095 178.898 137.475C177.57 137.618 176.234 137.682 174.898 137.665C174.371 137.742 173.833 137.673 173.342 137.465C172.852 137.257 172.428 136.918 172.118 136.485C168.948 132.595 166.728 128.395 166.258 123.275C165.754 118.628 166.908 113.953 169.515 110.075C172.122 106.196 176.016 103.362 180.508 102.074C188.808 99.6545 196.178 101.735 202.238 107.785C208.298 113.835 209.968 121.115 207.818 129.335C207.748 129.595 207.618 129.845 207.548 130.105C206.848 132.555 205.648 134.215 202.688 134.175C200.938 134.175 199.178 134.825 196.908 135.285L199.198 133.285C201.146 131.759 202.5 129.602 203.028 127.185C203.428 124.845 202.548 123.105 200.708 122.585C198.868 122.065 197.288 122.935 196.428 125.025C195.916 126.197 195.169 127.253 194.233 128.127C193.298 129 192.193 129.673 190.988 130.105C191.408 124.915 189.418 124.625 185.478 124.545Z" fill="#EAECF1"/>
<path d="M124.518 143.955L115.298 145.015C114.758 143.895 114.298 143.015 113.908 142.115C107.618 128.345 101.278 114.605 95.0876 100.795C93.0059 96.2504 91.863 91.3321 91.7276 86.3351C91.6587 84.9778 91.9945 83.6306 92.6924 82.4645C93.3903 81.2983 94.4189 80.3659 95.6476 79.7852C95.9976 80.4752 96.3576 81.0552 96.6476 81.6852C103.661 99.5852 111.441 117.138 119.988 134.345C121.448 137.355 122.838 140.405 124.518 143.955Z" fill="white"/>
<path d="M76.5662 144.314C74.4862 142.794 72.3762 141.314 70.3262 139.754C64.7946 135.575 60.3383 130.138 57.3262 123.894C56.0865 121.356 55.5184 118.543 55.6762 115.724C55.7962 113.174 56.8161 112.374 59.3661 112.624C60.1825 112.714 60.9675 112.989 61.6608 113.43C62.3542 113.87 62.9375 114.463 63.3661 115.164C65.2006 117.636 66.8293 120.255 68.2361 122.994C70.8361 128.574 73.0961 134.314 75.4761 139.994C76.0261 141.294 76.4762 142.614 77.0362 143.934L76.5662 144.314Z" fill="white"/>
<path d="M136.737 74.6242C135.797 74.6242 135.167 74.6242 134.547 74.6242C133.935 74.5772 133.349 74.3592 132.856 73.995C132.362 73.6309 131.981 73.1353 131.756 72.5649C131.531 71.9944 131.47 71.372 131.582 70.7689C131.693 70.1659 131.972 69.6063 132.387 69.1542C133.004 68.4964 133.749 67.9722 134.577 67.6141C136.737 66.6941 138.934 65.8541 141.167 65.0941C142.026 64.8244 142.928 64.7127 143.827 64.7642C144.305 64.7484 144.781 64.8319 145.226 65.0095C145.67 65.1872 146.072 65.455 146.408 65.7961C146.743 66.1373 147.005 66.5443 147.175 66.9915C147.345 67.4386 147.421 67.9163 147.397 68.3942C147.398 69.5656 147.131 70.7216 146.617 71.7742C144.27 76.1542 141.834 80.4876 139.307 84.7743C139.093 85.2019 138.795 85.5818 138.43 85.8917C138.066 86.2016 137.643 86.4349 137.187 86.5777C136.73 86.7205 136.25 86.7699 135.774 86.7229C135.298 86.6759 134.837 86.5336 134.417 86.3043C133.626 85.8384 133.049 85.0813 132.81 84.1953C132.571 83.3093 132.688 82.3648 133.137 81.5642C134.187 79.2442 135.457 77.0542 136.737 74.6242Z" fill="#3558A2"/>
<path d="M141.667 224.154C143.391 220.138 144.487 215.882 144.917 211.534C145.467 204.634 144.097 198.414 138.917 193.364C136.197 190.704 133.707 187.804 131.137 184.994C130.657 184.474 130.257 183.884 129.607 183.044C131.837 182.404 133.807 181.784 135.797 181.264C140.915 180.039 145.834 178.097 150.407 175.494C154.205 173.295 157.206 169.948 158.977 165.934C159.897 163.864 160.847 161.814 161.777 159.754C180.987 171.754 177.157 168.834 191.887 170.844C191.497 171.784 191.097 172.674 190.747 173.584C188.937 178.414 186.668 183.134 185.448 188.104C184.481 191.717 184.41 195.512 185.241 199.159C186.072 202.807 187.78 206.196 190.217 209.034C191.887 211.034 193.657 212.974 195.377 214.934C192.307 220.164 187.307 222.514 181.007 220.934C175.687 219.614 171.277 221.214 167.307 224.284C164.388 226.636 160.688 227.8 156.948 227.544C155.43 227.345 153.929 227.035 152.457 226.614C149.457 226.004 146.457 225.424 143.457 224.804C142.848 224.624 142.25 224.407 141.667 224.154Z" fill="white"/>
<path d="M143.576 180.115C146.967 182.377 150.052 185.065 152.756 188.115C155.38 191.382 157.297 195.158 158.386 199.205C159.656 203.275 161.156 207.575 164.486 210.445C167.816 213.315 172.026 213.845 176.246 212.955C180.466 212.065 184.616 209.825 189.086 210.065C192.306 210.245 192.296 205.245 189.086 205.065C185.086 204.855 181.296 206.325 177.506 207.455C174.296 208.455 170.666 209.195 167.886 206.785C164.886 204.165 163.886 200.005 162.726 196.355C161.443 192.162 159.342 188.263 156.546 184.885C153.49 181.392 149.978 178.325 146.106 175.765C145.533 175.43 144.85 175.335 144.208 175.503C143.566 175.671 143.017 176.087 142.681 176.66C142.346 177.233 142.251 177.916 142.419 178.558C142.587 179.2 143.003 179.749 143.576 180.085V180.115Z" fill="#979FBB"/>
<path d="M174.138 169.354C171.849 180.044 167 190.019 160.008 198.424C159.553 198.898 159.299 199.531 159.299 200.188C159.299 200.846 159.553 201.479 160.008 201.953C160.477 202.421 161.112 202.683 161.773 202.683C162.435 202.683 163.07 202.421 163.538 201.953C171.141 192.937 176.434 182.204 178.958 170.684C179.638 167.544 174.818 166.204 174.138 169.354Z" fill="#979FBB"/>
<path d="M161.857 207.625C160.007 211.085 156.797 213.465 154.277 216.435C151.277 219.925 149.197 224.225 150.197 228.885C150.373 229.524 150.796 230.067 151.373 230.394C151.95 230.722 152.633 230.806 153.272 230.63C153.911 230.454 154.454 230.03 154.781 229.454C155.109 228.877 155.193 228.194 155.017 227.555C154.759 226.05 155.009 224.502 155.727 223.155C156.554 221.55 157.615 220.077 158.877 218.785C161.467 216.035 164.367 213.525 166.177 210.155C166.493 209.578 166.576 208.901 166.409 208.265C166.241 207.629 165.836 207.081 165.277 206.735C164.704 206.405 164.024 206.313 163.385 206.48C162.745 206.646 162.196 207.057 161.857 207.625Z" fill="#979FBB"/>
<path d="M152.798 185.923C150.762 188.266 148.205 190.098 145.332 191.274C142.46 192.45 139.352 192.936 136.258 192.693C135.596 192.698 134.964 192.964 134.496 193.431C134.028 193.899 133.763 194.532 133.758 195.193C133.771 195.852 134.038 196.481 134.504 196.947C134.97 197.413 135.599 197.68 136.258 197.693C140.011 197.938 143.771 197.323 147.251 195.895C150.73 194.467 153.838 192.264 156.338 189.453C156.793 188.979 157.047 188.346 157.047 187.688C157.047 187.03 156.793 186.398 156.338 185.923C155.865 185.46 155.23 185.201 154.568 185.201C153.906 185.201 153.271 185.46 152.798 185.923V185.923Z" fill="#979FBB"/>
<path d="M120.928 183.275C121.218 178.695 123.928 177.755 127.008 176.875C132.228 175.365 137.378 173.655 142.548 171.985C143.488 171.685 144.368 171.185 145.288 170.785C150.538 168.465 152.988 163.865 154.888 158.855C155.363 157.488 155.764 156.096 156.088 154.685C157.088 150.685 160.848 149.625 164.028 152.355C166.838 154.775 169.738 157.125 172.758 159.265C176.091 161.484 179.914 162.857 183.898 163.265C186.678 163.635 189.488 163.695 192.288 163.925C193.553 163.973 194.814 164.116 196.058 164.355C198.998 165.035 200.268 167.155 199.468 170.045C199.095 171.164 198.654 172.26 198.148 173.325C196.308 177.755 194.368 182.155 192.648 186.635C191.691 188.998 191.241 191.535 191.327 194.083C191.413 196.631 192.033 199.132 193.148 201.425C194.558 204.425 196.938 206.705 199.208 209.045C200.098 209.965 201.078 210.785 201.898 211.745C202.587 212.424 203.015 213.324 203.108 214.287C203.201 215.251 202.954 216.216 202.408 217.015C198.778 222.485 194.148 226.765 187.408 227.795C184.894 228.17 182.331 228.041 179.868 227.415C176.578 226.555 174.018 227.635 171.468 229.325C170.868 229.725 170.318 230.205 169.728 230.625C167.678 232.136 165.33 233.193 162.841 233.726C160.351 234.258 157.776 234.255 155.288 233.715C149.598 232.635 143.928 231.505 138.288 230.375C137.574 230.252 136.879 230.04 136.218 229.745C133.668 228.525 132.988 225.985 134.368 223.305C135.317 221.56 136.156 219.756 136.878 217.905C138.228 213.94 138.659 209.721 138.138 205.565C137.98 203.374 137.109 201.295 135.658 199.645C134.388 198.225 133.048 196.875 131.788 195.455C128.018 191.305 124.268 187.095 120.928 183.275ZM141.668 224.155C142.234 224.41 142.815 224.63 143.408 224.815C146.408 225.435 149.408 226.015 152.408 226.625C153.879 227.046 155.38 227.357 156.898 227.555C160.638 227.811 164.338 226.647 167.258 224.295C171.258 221.225 175.638 219.625 180.958 220.945C187.258 222.515 192.258 220.165 195.328 214.945C193.608 212.945 191.838 211.055 190.168 209.045C187.731 206.207 186.022 202.818 185.191 199.171C184.36 195.523 184.431 191.729 185.398 188.115C186.618 183.115 188.888 178.425 190.698 173.595C191.048 172.685 191.448 171.795 191.838 170.855C177.108 168.855 180.938 171.785 161.728 159.765C160.798 161.825 159.848 163.875 158.928 165.945C157.156 169.959 154.155 173.307 150.358 175.505C145.784 178.108 140.865 180.05 135.748 181.275C133.748 181.795 131.748 182.415 129.558 183.055C130.208 183.895 130.608 184.485 131.088 185.005C133.658 187.815 136.148 190.715 138.868 193.375C144.048 198.375 145.418 204.645 144.868 211.545C144.452 215.887 143.373 220.14 141.668 224.155V224.155Z" fill="#3558A2"/>
</svg>
