<svg width="300" height="300" viewBox="0 0 300 300" fill="none" xmlns="http://www.w3.org/2000/svg">
<path d="M116.469 86.993C118.159 86.203 119.589 86.793 121.009 87.433C124.897 89.202 128.585 91.381 132.009 93.933C137.345 97.8559 142.401 102.146 147.14 106.773C147.91 107.523 148.71 108.243 149.66 109.113C151.15 107.003 152.479 104.983 153.969 103.113C155.699 100.903 157.48 98.713 159.4 96.673C165.183 90.4036 171.482 84.6301 178.229 79.413C182.88 75.9424 187.834 72.8969 193.03 70.313C193.657 69.9785 194.331 69.7392 195.03 69.603C195.57 69.5111 196.125 69.5521 196.647 69.7227C197.168 69.8932 197.64 70.1881 198.022 70.5818C198.404 70.9756 198.685 71.4564 198.839 71.9828C198.994 72.5092 199.018 73.0653 198.91 73.603C198.708 74.6646 198.372 75.6962 197.91 76.673C196.16 80.243 194.41 83.823 192.51 87.323C188.302 95.071 182.963 102.149 176.67 108.323C172.21 112.736 167.162 116.511 161.67 119.543C161.147 119.778 160.713 120.173 160.431 120.671C160.148 121.169 160.032 121.744 160.099 122.313C161.739 122.733 163.44 123.243 165.16 123.613C171.826 124.863 178.378 126.659 184.749 128.983C186.199 129.553 187.18 128.833 188.44 128.233C188.77 126.823 189.05 125.323 189.44 123.863C192.47 113.403 197.447 103.608 204.109 94.993C207.639 90.373 211.399 85.993 216.109 82.463C216.979 81.813 217.87 81.183 218.8 80.623C220.25 79.743 221.8 79.153 223.4 80.173C224.172 80.6599 224.787 81.36 225.17 82.1886C225.553 83.0173 225.689 83.9392 225.56 84.843C225.401 86.4618 225.137 88.0686 224.77 89.653C222.77 99.473 218.009 108.123 212.859 116.563C209.187 122.296 205.003 127.684 200.359 132.663C200.349 132.823 200.349 132.983 200.359 133.143C200.789 136.373 202.729 138.273 205.469 139.933C210.539 142.933 214.779 147.123 218.859 151.393C222.939 155.663 227.07 159.863 230.42 164.763C233.59 169.403 236.699 174.083 238.369 179.533C238.628 180.297 238.77 181.096 238.79 181.903C238.84 182.592 238.632 183.276 238.207 183.821C237.782 184.366 237.17 184.733 236.489 184.853C234.156 185.646 231.604 185.484 229.39 184.403C221.013 180.24 213.357 174.764 206.709 168.183C206.449 167.933 206.149 167.723 205.599 167.283C206.799 174.033 206.899 180.623 208.079 187.113C208.929 191.813 209.27 196.613 209.91 201.353C210.55 206.093 211.28 210.643 211.91 215.293C212.214 217.254 212.414 219.23 212.51 221.213C212.6 223.583 211.609 225.163 209.369 225.673C205.861 226.533 202.295 227.142 198.699 227.493C195.489 227.763 193.41 225.493 193.01 222.153C192.86 220.913 192.489 219.693 192.239 218.463C192.119 217.843 192.029 217.223 191.959 216.593C191.439 212.023 190.96 207.453 190.42 202.883C189.85 198.033 189.27 193.183 188.64 188.343C188.01 183.503 187.31 178.853 186.64 174.103C186.19 170.783 185.789 167.463 185.369 164.103C184.749 159.256 184.133 154.413 183.52 149.573C183.46 149.123 183.199 148.573 183.339 148.243C183.939 146.653 182.81 145.953 181.9 145.043C175.9 145.943 170.199 144.603 164.349 143.373C163.739 144.373 164.12 145.443 164.17 146.473C164.26 148.543 164.52 150.613 164.54 152.683C164.498 153.579 164.766 154.462 165.3 155.183C166.3 156.563 167.3 158.023 168.14 159.493C169.67 162.043 169.399 163.393 167.069 165.273C166.897 165.469 166.743 165.679 166.609 165.903C166.889 168.903 167.169 172.013 167.499 175.163C167.779 177.763 168.12 180.363 168.43 182.963L169.839 194.803C170.079 196.803 170.32 198.753 170.55 200.733C170.91 203.873 171.28 207.013 171.55 210.163C171.658 211.246 171.681 212.336 171.619 213.423C171.489 215.753 170.54 216.823 168.31 217.423C164.58 218.423 160.919 217.783 157.359 216.703C156.404 216.37 155.564 215.77 154.938 214.974C154.312 214.179 153.928 213.22 153.829 212.213C153.309 209.213 153 206.123 152.64 203.063C152.1 198.583 151.579 194.096 151.079 189.603C150.659 185.743 150.299 181.863 149.869 178.003C149.409 173.783 148.87 169.563 148.42 165.343C148.27 164.003 148.209 162.643 148.099 161.133C140.753 158.143 133.796 154.275 127.379 149.613C127.261 150.084 127.194 150.567 127.18 151.053C127.88 156.703 128.579 162.343 129.319 167.993C129.979 172.993 130.689 177.993 131.319 182.993C131.769 186.493 132.11 189.993 132.55 193.503C133 197.173 133.549 200.843 133.969 204.503C134.389 208.163 134.799 211.863 135.249 215.503C135.499 217.573 135.869 219.613 136.089 221.673C136.409 224.673 136.65 227.613 136.92 230.583C136.97 231.593 136.625 232.584 135.959 233.345C135.293 234.106 134.357 234.579 133.349 234.663C130.289 234.933 127.21 235.113 124.14 235.273C123.506 235.289 122.873 235.215 122.259 235.053C121.352 234.935 120.512 234.509 119.881 233.847C119.249 233.184 118.864 232.325 118.79 231.413C118.54 229.343 118.16 227.303 117.91 225.233C117.176 219.233 116.47 213.233 115.79 207.233C115.35 203.363 115.01 199.483 114.56 195.623C113.93 190.143 113.21 184.623 112.56 179.193C112.12 175.513 111.759 171.813 111.329 168.133C110.849 164.003 110.329 159.873 109.829 155.753C109.599 153.753 109.41 151.823 109.16 149.453C106.57 151.643 104.3 153.543 102.05 155.453C97.9589 158.921 93.6133 162.077 89.0495 164.893C83.6895 168.233 77.7095 170.033 71.6295 171.483C69.6034 171.932 67.5534 172.266 65.4895 172.483C62.3395 172.853 60.2095 169.873 61.2795 166.613C61.5841 165.856 61.9768 165.138 62.4494 164.473C64.9659 160.696 67.8756 157.197 71.1295 154.033C79.2814 145.868 88.7038 139.08 99.0295 133.933C100.656 133.17 102.325 132.502 104.03 131.933C106.09 131.193 106.809 129.753 105.969 127.813C103.145 121.151 101.235 114.137 100.29 106.963C99.8195 103.663 99.2895 100.353 98.8595 97.043C98.7578 96.2338 98.711 95.4186 98.7195 94.603C98.7195 90.243 98.5295 85.883 98.7195 81.533C98.8995 77.383 99.4595 73.243 99.8795 69.103C99.8795 68.663 100.169 68.243 100.259 67.803C100.369 67.0687 100.727 66.3939 101.272 65.8902C101.818 65.3865 102.519 65.0841 103.259 65.033C103.939 64.9395 104.63 65.0457 105.25 65.3387C105.87 65.6317 106.391 66.0988 106.749 66.683C107.771 68.18 108.709 69.7323 109.56 71.333C111.91 76.033 114.339 80.693 115.759 85.783C115.953 86.21 116.191 86.6155 116.469 86.993V86.993ZM205.38 219.413C205.1 217.183 204.859 215.213 204.609 213.253C204.019 208.683 203.449 204.103 202.839 199.543C201.969 193.003 201.05 186.473 200.19 179.943C199.92 177.873 199.82 175.793 199.55 173.733C199.08 170.153 198.55 166.573 198.04 162.993C197.73 160.853 197.71 158.583 196.94 156.613C196.08 154.393 194.519 152.453 193.249 150.373C191.899 151.373 192.049 152.523 192.119 153.683L192.63 162.633C192.63 163.353 192.69 164.083 192.78 164.803C193.59 170.803 194.439 176.803 195.229 182.803C195.869 187.733 196.43 192.683 197.06 197.623C197.73 202.823 198.319 208.043 199.199 213.213C199.579 215.483 199.29 217.913 200.44 220.263L205.38 219.413ZM129.859 228.053C129.679 226.523 129.54 225.293 129.39 224.053C128.98 220.553 128.59 217.053 128.16 213.563C127.68 209.713 127.16 205.863 126.67 202.023C126.22 198.523 125.809 195.023 125.369 191.533C124.899 187.863 124.369 184.203 123.959 180.533C123.529 177.033 123.159 173.533 122.719 170.033C122.279 166.533 121.72 162.893 121.27 159.313C120.81 155.543 120.47 151.763 120.02 147.993C119.84 146.911 119.603 145.84 119.31 144.783L116.04 145.603C117.62 159.513 119.149 173.253 120.739 186.983C122.329 200.713 123.98 214.403 125.64 228.363L129.859 228.053ZM116.599 124.653C117.309 116.393 109.849 85.573 106.079 80.963C104.809 93.963 108.569 118.963 112.709 125.183L116.599 124.653ZM146.66 138.273C147.36 136.703 146.369 136.273 145.469 135.853C142.366 134.357 139.523 132.372 137.05 129.973C135.752 128.722 134.629 127.303 133.709 125.753C133.427 125.337 133.25 124.859 133.193 124.36C133.136 123.861 133.201 123.355 133.384 122.887C133.566 122.418 133.859 122.001 134.238 121.671C134.617 121.341 135.071 121.109 135.56 120.993C136.423 120.732 137.311 120.561 138.209 120.483C138.999 120.383 139.789 120.373 141.109 120.283C134.463 117.808 128.183 114.444 122.44 110.283C122.364 110.655 122.334 111.034 122.349 111.413C123.349 116.653 124.169 121.903 123.569 127.273C123.524 127.859 123.696 128.442 124.051 128.91C124.407 129.378 124.922 129.7 125.499 129.813C125.839 129.923 126.189 130.033 126.499 130.113C133.602 131.697 140.395 134.437 146.609 138.223L146.66 138.273ZM71.6595 164.023C72.7995 163.913 73.3195 163.913 73.7995 163.803C79.0071 162.576 83.9276 160.351 88.2895 157.253C94.5495 152.773 100.899 148.393 105.749 142.253C106.869 140.833 106.899 140.853 105.579 138.913C92.5774 144.722 80.9831 153.27 71.5894 163.973L71.6595 164.023ZM157.76 113.803C172.63 105.293 183.08 91.403 186.89 82.413C179.39 85.873 161.109 103.763 156.329 112.413L157.76 113.803ZM229.02 175.933C225.64 167.023 206.109 146.813 199.369 144.463C197.949 145.353 198.779 146.263 199.369 147.183C205.138 156.743 212.79 165.031 221.859 171.543C224.05 173.255 226.429 174.711 228.949 175.883L229.02 175.933ZM155.379 163.183L160.55 209.123L164.349 208.333C162.659 193.513 160.989 178.833 159.349 163.993L155.379 163.183ZM125.969 137.243C125.77 137.417 125.616 137.637 125.52 137.884C125.425 138.13 125.391 138.397 125.421 138.66C125.452 138.923 125.546 139.174 125.696 139.392C125.845 139.611 126.046 139.789 126.28 139.913C127.71 141.023 129.139 142.143 130.599 143.213C137.849 148.573 145.599 152.973 154.339 155.483C154.979 155.629 155.627 155.74 156.28 155.813C147.93 146.603 138.09 140.023 126.009 137.243H125.969ZM196.38 126.353C206.65 115.853 216.87 96.253 216.77 91.233C206.91 100.503 197.8 117.223 196.38 126.353ZM145.999 127.413L145.89 128.113C156.89 133.643 168.179 138.213 180.699 138.343C180.865 138.146 181.01 137.931 181.13 137.703C181.91 135.133 181.919 135.053 179.329 134.393C172.239 132.603 165.16 130.743 158.02 129.173C154.07 128.333 150.009 128.003 145.999 127.413ZM118.89 94.193L118.479 94.603C118.604 94.9286 118.704 95.2628 118.78 95.603C119.12 97.603 119.519 99.513 121.839 100.193C122.149 100.283 122.369 100.663 122.629 100.923C127.959 106.263 134.479 109.773 141.239 112.923C141.928 113.193 142.633 113.42 143.349 113.603L143.599 113.103C135.999 105.983 128.38 98.903 118.89 94.213V94.193ZM194.65 138.413C194.581 137.562 194.217 136.761 193.619 136.151C193.022 135.541 192.229 135.159 191.38 135.073C189.64 135.003 187.679 137.073 187.699 139.073C187.719 141.073 189.29 142.833 190.9 142.783C192.66 142.643 194.66 140.323 194.65 138.413ZM119.069 135.413C119.072 134.937 118.979 134.465 118.795 134.025C118.611 133.586 118.339 133.188 117.997 132.857C117.655 132.525 117.25 132.266 116.805 132.095C116.36 131.924 115.886 131.845 115.41 131.863C114.602 131.918 113.836 132.244 113.237 132.788C112.638 133.333 112.241 134.064 112.109 134.863C112.202 135.774 112.618 136.621 113.283 137.25C113.947 137.88 114.815 138.25 115.729 138.293C116.539 138.294 117.323 138.004 117.936 137.475C118.549 136.946 118.952 136.214 119.069 135.413ZM153.069 121.113C152.449 118.293 151.839 117.573 150.349 117.613C149.019 117.613 148.6 118.153 148.01 120.613L153.069 121.113ZM154.589 139.893C154.329 143.733 154.589 144.323 157.199 145.733C156.969 144.003 156.75 142.413 156.53 140.733L154.589 139.893Z" fill="#3558A2"/>
<path d="M205.379 219.413L200.439 220.273C199.289 217.923 199.579 215.493 199.199 213.223C198.319 208.053 197.729 202.833 197.059 197.633C196.429 192.693 195.869 187.743 195.229 182.813C194.439 176.813 193.589 170.813 192.779 164.813C192.689 164.093 192.669 163.363 192.629 162.643L192.119 153.693C192.049 152.533 191.899 151.343 193.249 150.383C194.519 152.463 196.079 154.383 196.939 156.623C197.709 158.623 197.729 160.863 198.039 163.003C198.559 166.583 199.039 170.163 199.549 173.743C199.819 175.803 199.919 177.883 200.189 179.953C201.049 186.483 201.969 193.013 202.839 199.553C203.449 204.113 204.019 208.693 204.609 213.263C204.809 215.163 205.049 217.133 205.379 219.413Z" fill="white"/>
<path d="M129.81 228.004L125.59 228.314C123.93 214.314 122.28 200.644 120.69 186.934C119.1 173.224 117.57 159.464 115.99 145.554L119.26 144.734C119.554 145.791 119.79 146.863 119.97 147.944C120.42 151.714 120.76 155.494 121.22 159.264C121.65 162.844 122.22 166.404 122.67 169.984C123.12 173.564 123.48 176.984 123.91 180.484C124.36 184.154 124.85 187.814 125.32 191.484C125.76 194.984 126.17 198.484 126.62 201.974C127.1 205.814 127.62 209.664 128.11 213.514C128.54 217.004 128.93 220.514 129.34 224.004C129.49 225.244 129.63 226.474 129.81 228.004Z" fill="white"/>
<path d="M116.55 124.604L112.66 125.134C108.52 118.954 104.76 93.9341 106.03 80.9141C109.8 85.5241 117.26 116.344 116.55 124.604Z" fill="white"/>
<path d="M146.61 138.224C140.396 134.42 133.599 131.663 126.49 130.064C126.14 129.984 125.79 129.874 125.49 129.764C124.913 129.651 124.398 129.33 124.042 128.861C123.686 128.393 123.515 127.811 123.56 127.224C124.16 121.854 123.32 116.604 122.34 111.364C122.324 110.985 122.355 110.606 122.43 110.234C128.173 114.395 134.454 117.759 141.1 120.234C139.78 120.324 138.99 120.334 138.2 120.434C137.301 120.512 136.413 120.683 135.55 120.944C135.061 121.06 134.607 121.293 134.228 121.623C133.849 121.953 133.556 122.37 133.374 122.838C133.192 123.307 133.127 123.812 133.183 124.311C133.24 124.811 133.417 125.289 133.7 125.704C134.619 127.254 135.743 128.674 137.04 129.924C139.513 132.323 142.356 134.309 145.46 135.804C146.32 136.204 147.31 136.654 146.61 138.224Z" fill="white"/>
<path d="M71.5898 163.973C80.9582 153.26 92.5283 144.695 105.51 138.863C106.83 140.803 106.8 140.783 105.68 142.203C100.83 148.343 94.4799 152.723 88.2199 157.203C83.858 160.302 78.9374 162.526 73.7299 163.753C73.2499 163.863 72.7298 163.863 71.5898 163.973Z" fill="white"/>
<path d="M157.69 113.753L156.26 112.363C161.04 103.713 179.32 85.8233 186.82 82.3633C183.01 91.3533 172.56 105.243 157.69 113.753Z" fill="#EAECF1"/>
<path d="M228.95 175.884C226.392 174.703 223.979 173.23 221.76 171.494C212.69 164.982 205.038 156.694 199.27 147.134C198.71 146.214 197.88 145.304 199.27 144.414C206.04 146.764 225.57 166.974 228.95 175.884Z" fill="white"/>
<path d="M155.381 163.184L159.301 163.994C160.991 178.834 162.661 193.514 164.301 208.334L160.501 209.124L155.381 163.184Z" fill="#EAECF1"/>
<path d="M126.01 137.244C138.09 140.024 147.93 146.604 156.32 155.814C155.668 155.741 155.02 155.631 154.38 155.484C145.65 152.974 137.89 148.574 130.64 143.214C129.18 142.144 127.75 141.024 126.32 139.914C126.086 139.791 125.886 139.612 125.736 139.393C125.587 139.175 125.493 138.924 125.462 138.661C125.432 138.398 125.465 138.132 125.561 137.885C125.656 137.638 125.811 137.418 126.01 137.244V137.244Z" fill="white"/>
<path d="M196.381 126.354C197.761 117.224 206.871 100.504 216.771 91.2344C216.911 96.2544 206.691 115.854 196.381 126.354Z" fill="white"/>
<path d="M145.999 127.414C149.999 127.984 154.069 128.314 157.999 129.174C165.139 130.744 172.219 132.604 179.309 134.394C181.899 135.054 181.889 135.134 181.109 137.704C180.989 137.932 180.845 138.147 180.679 138.344C168.159 138.214 156.869 133.644 145.869 128.114L145.999 127.414Z" fill="white"/>
<path d="M118.891 94.2129C128.371 98.9029 136 105.983 143.6 113.113L143.35 113.613C142.634 113.43 141.929 113.203 141.24 112.933C134.48 109.793 127.96 106.283 122.63 100.933C122.37 100.673 122.15 100.293 121.84 100.203C119.52 99.5229 119.121 97.6029 118.781 95.6129C118.705 95.2727 118.605 94.9385 118.48 94.6129L118.891 94.2129Z" fill="#EAECF1"/>
<path d="M194.649 138.413C194.649 140.413 192.649 142.693 190.899 142.753C189.289 142.803 187.709 140.983 187.699 139.043C187.689 137.103 189.639 135.043 191.379 135.043C192.234 135.13 193.03 135.516 193.628 136.132C194.226 136.749 194.588 137.556 194.649 138.413V138.413Z" fill="white"/>
<path d="M119.069 135.413C118.963 136.223 118.565 136.967 117.951 137.506C117.336 138.045 116.547 138.342 115.729 138.343C114.815 138.299 113.947 137.929 113.282 137.3C112.618 136.67 112.202 135.823 112.109 134.913C112.241 134.114 112.638 133.383 113.237 132.838C113.836 132.293 114.602 131.967 115.409 131.913C115.881 131.895 116.352 131.973 116.793 132.14C117.235 132.308 117.638 132.563 117.979 132.889C118.321 133.215 118.593 133.607 118.78 134.04C118.967 134.474 119.066 134.94 119.069 135.413V135.413Z" fill="white"/>
<path d="M153.101 121.094L148.041 120.624C148.631 118.134 149.041 117.624 150.381 117.624C151.871 117.554 152.481 118.274 153.101 121.094Z" fill="#EAECF1"/>
<path d="M154.621 139.873L156.561 140.703C156.781 142.393 157.001 143.983 157.231 145.703C154.621 144.303 154.381 143.713 154.621 139.873Z" fill="white"/>
</svg>
