<?xml version="1.0" encoding="UTF-8" standalone="no"?>
<!DOCTYPE svg PUBLIC "-//W3C//DTD SVG 1.1//EN" "http://www.w3.org/Graphics/SVG/1.1/DTD/svg11.dtd">
<svg width="102" height="90" viewBox="0 0 102 90" version="1.1" xmlns="http://www.w3.org/2000/svg" xmlns:xlink="http://www.w3.org/1999/xlink" xml:space="preserve" xmlns:serif="http://www.serif.com/" style="fill-rule:evenodd;clip-rule:evenodd;stroke-linejoin:round;stroke-miterlimit:2;">
    <g id="Plan-de-travail1" serif:id="Plan de travail1" transform="matrix(0.826029,0,0,0.69725,0,0)">
        <rect x="0" y="0" width="123" height="128" style="fill:none;"/>
        <g transform="matrix(1.21061,0,0,1.43421,-13.494,-27.2007)">
            <path d="M31.972,72.784C30.872,72.459 29.634,72.367 28.69,71.756C27.195,70.786 25.959,70.901 24.339,71.508C21.341,72.648 18.35,71.396 16.575,68.723C16.316,68.301 15.961,67.948 15.538,67.69C14.772,67.326 14.136,66.734 13.719,65.994C13.302,65.255 13.124,64.405 13.208,63.56C13.41,59.888 15.329,57.365 18.642,55.897C20.181,55.22 21.692,55.559 23.14,56.262C23.585,56.481 23.997,56.781 24.504,57.092C26.223,56.24 28.083,55.766 30.04,56.287C31.997,56.809 33.353,58.193 34.199,59.985C35.576,60.141 36.913,60.214 38.212,60.473C39.234,60.649 40.186,61.108 40.961,61.797C41.736,62.486 42.303,63.378 42.597,64.372C42.675,64.688 42.827,64.981 43.04,65.227C43.254,65.473 43.522,65.665 43.824,65.787C45.912,66.711 46.755,68.889 45.98,71.051C45.76,71.677 45.46,72.279 45.186,72.928C47.636,74.208 49.797,75.979 51.533,78.131C55.542,82.917 56.201,88.297 54.625,94.073C53.517,98.149 50.927,101.664 47.362,103.929C43.798,106.194 39.515,107.047 35.355,106.319C27.059,104.908 20.914,97.089 21.457,88.361C21.887,81.501 25.178,76.355 31.343,73.202C31.495,73.126 31.647,73.054 31.793,72.97C31.863,72.919 31.924,72.856 31.972,72.784ZM42.617,77.936C41.542,78.396 40.529,78.923 39.464,79.277C36.339,80.313 33.191,81.238 29.821,80.666C29.353,80.583 28.896,80.475 28.456,80.445C28.123,80.371 27.775,80.42 27.476,80.582C27.176,80.745 26.945,81.009 26.824,81.328C26.239,82.71 25.485,84.051 25.067,85.478C23.163,92.348 26.768,100.464 34.443,102.819C42.458,105.272 51.176,99.674 52.213,90.481C52.262,90.255 52.23,90.019 52.123,89.814C52.016,89.608 51.841,89.447 51.627,89.358C50.977,89.061 50.358,88.703 49.777,88.287C46.375,85.629 43.732,82.392 42.617,77.936ZM42.205,71.605C42.462,71.08 42.733,70.606 42.926,70.104C43.257,69.239 43.087,68.714 42.238,68.546C40.663,68.226 40.033,67.219 39.757,65.769C39.679,65.22 39.43,64.708 39.045,64.308C38.659,63.909 38.158,63.641 37.611,63.543C36.673,63.327 35.706,63.257 34.746,63.336C33.024,63.532 31.984,62.91 31.29,61.319C30.422,59.341 28.846,58.775 26.826,59.554C26.4,59.729 25.987,59.934 25.59,60.167C24.103,60.996 23.453,60.902 22.321,59.573C22.051,59.221 21.68,58.959 21.258,58.821C20.836,58.684 20.382,58.677 19.956,58.802C18.057,59.285 16.285,61.664 16.362,63.643C16.377,64.047 16.665,64.722 16.936,64.781C18.229,65.067 18.722,66.041 19.286,67.049C19.6,67.704 20.138,68.225 20.803,68.52C21.467,68.814 22.215,68.862 22.911,68.655C23.602,68.489 24.263,68.216 24.869,67.844C26.555,66.833 27.009,66.819 28.553,68.102C29.231,68.707 30.053,69.126 30.94,69.32C31.828,69.513 32.75,69.474 33.618,69.206C34.188,69.05 34.757,68.893 35.302,68.687C35.842,68.439 36.452,68.391 37.023,68.552C37.594,68.713 38.09,69.072 38.421,69.565C38.861,70.164 39.428,70.659 40.083,71.012C40.737,71.365 41.462,71.567 42.205,71.605ZM45.908,76.971C45.538,79.365 49.408,84.61 51.818,85.581C51.323,82.499 48.785,78.134 45.908,76.971ZM30.355,77.457C33.163,78.012 39.19,76.55 41.19,74.928C37.25,74.255 33.742,75.078 30.355,77.457Z" style="fill-rule:nonzero;"/>
        </g>
        <g transform="matrix(1.21061,0,0,1.43421,-13.494,-27.2007)">
            <path d="M49.161,22.692C49.83,22.548 50.393,22.419 50.956,22.3C52.888,21.873 54.888,21.862 56.824,22.27C60.123,22.983 61.283,25.532 59.679,28.509C59.645,28.615 59.625,28.726 59.621,28.837C60.011,29.103 60.406,29.36 60.81,29.652C65.15,32.803 67.335,37.109 67.558,42.425C67.537,42.795 67.597,43.165 67.733,43.51C67.869,43.855 68.079,44.167 68.347,44.423C68.744,44.855 69.054,45.359 69.262,45.908C69.723,46.898 70.128,47.914 70.55,48.923C70.635,49.11 70.699,49.306 70.741,49.507C70.83,49.856 70.797,50.225 70.645,50.552C70.494,50.88 70.234,51.145 69.91,51.303C69.577,51.443 69.206,51.462 68.861,51.356C68.516,51.251 68.219,51.027 68.022,50.724C67.809,50.412 67.622,50.084 67.462,49.743L66.885,48.588C66.781,48.782 66.695,48.984 66.628,49.193C66.443,50.367 66.157,51.423 65.062,52.202C64.419,52.664 64.1,53.56 63.559,54.196C59.049,59.464 53.427,61.836 46.508,60.44C40.019,59.136 35.128,53.568 34.353,46.787C33.874,42.872 34.749,38.912 36.833,35.564C37.028,35.257 37.099,34.887 37.029,34.53C36.228,32.098 37.085,30.087 38.555,28.22C40.035,26.366 42.046,25.008 44.318,24.328C45.152,24.057 45.679,23.727 45.711,22.714C45.815,22.097 46.063,21.513 46.433,21.008C46.621,20.649 46.932,20.37 47.308,20.222C47.685,20.074 48.103,20.067 48.485,20.202C49.171,20.493 49.456,21.116 49.293,22.094C49.247,22.25 49.222,22.405 49.161,22.692ZM37.438,45.503C37.453,47.516 37.993,49.491 39.005,51.232C41.677,55.884 45.799,58.078 51.078,57.643C56.632,57.178 60.596,54.173 62.967,49.132C63.141,48.735 63.23,48.307 63.23,47.874C63.23,47.441 63.14,47.013 62.966,46.616C62.627,47.121 62.351,47.487 62.123,47.884C61.679,48.647 61.289,49.437 60.83,50.188C60.277,51.091 59.38,51.461 58.594,51.168C57.807,50.875 57.443,50.097 57.545,49.084C57.589,48.6 57.698,48.092 57.798,47.3C57.254,47.919 56.88,48.35 56.499,48.762C55.799,49.536 54.964,49.691 54.274,49.182C54.102,49.058 53.958,48.898 53.851,48.715C53.744,48.531 53.677,48.327 53.653,48.116C53.629,47.905 53.65,47.691 53.714,47.488C53.777,47.285 53.882,47.098 54.022,46.938C55.118,45.568 56.317,44.285 57.609,43.1C58.23,42.603 59.006,42.344 59.801,42.368C60.388,42.396 60.949,43.031 61.462,43.363L64.344,42.401C64.339,39.898 63.574,37.456 62.149,35.398C60.724,33.341 58.708,31.765 56.367,30.879C56.025,30.741 55.647,30.717 55.289,30.81C52.367,31.856 49.458,32.953 46.665,33.988C45.853,36.371 44.628,38.591 43.046,40.549C41.538,42.571 39.625,44.256 37.429,45.499L37.438,45.503ZM39.934,32.601C40.332,32.55 40.727,32.471 41.115,32.367C46.141,30.602 51.166,28.829 56.189,27.047C56.422,26.956 56.642,26.836 56.843,26.69C57.346,26.334 57.358,25.902 56.828,25.622C56.465,25.41 56.058,25.286 55.639,25.259C54.265,25.261 52.828,25.115 51.536,25.443C49.058,26.078 46.621,26.863 44.238,27.795C43.213,28.267 42.279,28.915 41.476,29.708C40.629,30.455 40.082,31.482 39.934,32.601ZM42.525,35.439C40.887,35.565 40.268,35.721 39.963,36.286C39.119,37.85 38.153,39.372 37.864,41.433C39.839,39.643 41.483,37.875 42.525,35.439Z" style="fill-rule:nonzero;"/>
        </g>
        <g transform="matrix(1.21061,0,0,1.43421,-13.494,-27.2007)">
            <path d="M91.652,71.345C92.935,70.691 93.942,70.117 94.998,69.609C95.826,69.198 96.678,68.837 97.549,68.526C97.919,68.368 98.328,68.326 98.723,68.403C99.118,68.481 99.481,68.675 99.764,68.961C100.078,69.251 100.288,69.636 100.362,70.058C100.437,70.479 100.371,70.913 100.174,71.293C99.53,72.65 98.778,73.961 98.065,75.289C97.915,75.572 97.75,75.854 97.517,76.274C98.458,76.26 99.248,76.212 100.039,76.256C100.961,76.27 101.879,76.363 102.784,76.533C104.532,76.931 105.009,78.597 103.741,79.88C103.043,80.551 102.282,81.154 101.469,81.68C100.121,82.618 98.735,83.47 97.351,84.373C97.524,86.529 97.312,88.7 96.724,90.782C94.297,99.245 85.661,104.647 77.057,102.517C70.115,100.795 63.924,93.359 65.475,84.031C66.308,78.987 68.937,75.095 73.205,72.31C73.46,72.146 73.68,71.932 73.85,71.681C74.02,71.43 74.138,71.147 74.196,70.849C74.852,68.551 75.627,66.284 76.403,64.022C76.507,63.609 76.735,63.237 77.057,62.958C77.378,62.679 77.778,62.505 78.202,62.46C79.193,62.377 79.872,62.946 80.344,63.744C81.245,65.263 82.106,66.805 82.983,68.333C83.084,68.511 83.202,68.672 83.412,69.018L87.203,65.09C87.557,64.676 87.939,64.287 88.346,63.924C88.58,63.707 88.867,63.556 89.178,63.485C89.489,63.414 89.813,63.426 90.118,63.521C90.423,63.615 90.697,63.788 90.914,64.023C91.131,64.257 91.282,64.544 91.352,64.855C91.484,65.376 91.55,65.911 91.548,66.447C91.595,68.011 91.624,69.558 91.652,71.345ZM93.197,91.546C93.489,90.453 93.854,89.375 94.078,88.278C94.691,85.145 94.148,81.896 92.548,79.134C91.669,77.594 90.463,76.266 89.015,75.243C87.998,74.571 86.9,74.031 85.746,73.638C85.141,73.427 84.517,73.274 83.882,73.181C83.659,73.151 83.382,73.115 82.872,73.084C81.501,73.007 80.421,73.052 80.336,73.052C78.268,73.182 66.101,81.721 69.03,90.899C70.498,95.509 73.604,98.519 78.334,99.537C84.573,100.851 90.499,97.546 93.197,91.546ZM80.211,69.82L78.545,67.102L77.562,70.313L80.211,69.82ZM95.831,72.914L95.717,72.78L92.725,74.37L94.038,75.842C94.676,74.799 95.251,73.856 95.831,72.914ZM88.403,68.445L86.46,70.419L88.478,71.274L88.403,68.445ZM96.704,80.985C97.46,80.505 98.099,80.066 98.771,79.667L98.677,79.426L96.14,79.478L96.704,80.985Z" style="fill-rule:nonzero;"/>
        </g>
        <g transform="matrix(1.21061,0,0,1.43421,-13.494,-27.2007)">
            <path d="M101.197,34.106C99.992,32.771 99.905,31.336 100.351,29.784C100.485,29.229 100.779,28.724 101.195,28.333C101.611,27.941 102.132,27.678 102.694,27.577C103.916,27.305 105.039,27.444 105.888,28.492C106.339,28.995 106.681,29.584 106.896,30.224C107.11,30.865 107.191,31.542 107.134,32.214C107.107,32.454 107.111,32.707 107.099,33.105C107.676,33.012 108.167,32.958 108.627,32.857C108.912,32.801 109.178,32.648 109.468,32.594C109.817,32.51 110.185,32.549 110.509,32.704C110.834,32.859 111.095,33.12 111.25,33.444C111.417,33.77 111.449,34.148 111.339,34.497C111.229,34.846 110.986,35.137 110.662,35.308C109.956,35.67 109.214,35.957 108.448,36.166C108.123,36.271 107.777,36.297 107.44,36.242C105.221,35.851 103.242,36.582 101.314,37.536C102.352,39.089 103.057,40.84 103.382,42.68C103.708,44.519 103.648,46.406 103.206,48.221C101.673,55.001 94.427,59.342 87.682,57.632C80.675,55.851 75.366,48.03 78.566,39.737C80.934,33.613 87.048,30.755 92.942,31.923C94.559,32.221 96.097,32.851 97.46,33.771C98.598,34.53 99.855,34.257 101.197,34.106ZM94.369,35.691C93.231,35.166 92,34.872 90.748,34.825C89.495,34.777 88.246,34.978 87.072,35.416C85.897,35.854 84.822,36.52 83.906,37.375C82.99,38.231 82.252,39.259 81.736,40.401C81.174,41.625 80.86,42.947 80.812,44.293C80.763,45.638 80.98,46.98 81.451,48.241C81.922,49.503 82.638,50.659 83.557,51.643C84.476,52.627 85.58,53.42 86.806,53.976C89.106,55.018 91.723,55.113 94.092,54.239C96.461,53.365 98.39,51.593 99.462,49.307C101.7,44.58 99.933,37.982 94.369,35.691Z" style="fill-rule:nonzero;"/>
        </g>
        <g transform="matrix(1.21061,0,0,1.43421,-13.494,-27.2007)">
            <path d="M42.616,77.936C43.744,82.397 46.396,85.638 49.797,88.296C50.378,88.711 50.998,89.07 51.647,89.366C51.861,89.456 52.036,89.617 52.143,89.822C52.25,90.027 52.282,90.263 52.233,90.49C51.197,99.683 42.486,105.285 34.463,102.827C26.793,100.474 23.171,92.351 25.087,85.487C25.488,84.052 26.259,82.719 26.845,81.337C26.965,81.018 27.196,80.753 27.496,80.591C27.795,80.429 28.144,80.38 28.476,80.453C28.933,80.491 29.386,80.597 29.841,80.674C33.198,81.241 36.346,80.316 39.484,79.285C40.528,78.923 41.54,78.396 42.616,77.936ZM35.47,95.533C36.088,95.722 36.723,95.849 37.366,95.913C38.749,95.925 40.024,95.575 40.847,94.309C41.028,94.037 41.114,93.713 41.092,93.386C41.07,93.06 40.94,92.751 40.724,92.506C40.507,92.261 40.216,92.094 39.895,92.032C39.574,91.97 39.242,92.016 38.95,92.162C38.755,92.241 38.582,92.364 38.395,92.461C37.346,92.992 36.536,92.73 36.031,91.666C35.854,91.289 35.759,90.871 35.575,90.497C35.433,90.167 35.181,89.897 34.863,89.732C34.544,89.566 34.178,89.516 33.827,89.59C33.475,89.677 33.166,89.887 32.957,90.183C32.747,90.478 32.651,90.84 32.687,91.2C32.757,92.096 33.047,92.961 33.533,93.717C34.018,94.473 34.684,95.097 35.47,95.533ZM37.734,87.301C37.911,86.915 37.927,86.475 37.78,86.077C37.633,85.679 37.333,85.356 36.948,85.178C36.552,85.025 36.112,85.029 35.719,85.188C35.325,85.348 35.007,85.651 34.829,86.036C34.658,86.425 34.646,86.865 34.793,87.263C34.941,87.662 35.237,87.987 35.62,88.172C36.016,88.326 36.457,88.321 36.85,88.159C37.244,87.997 37.56,87.69 37.734,87.301ZM42.806,89.661C42.898,89.477 42.952,89.276 42.964,89.071C42.976,88.865 42.947,88.659 42.877,88.466C42.807,88.272 42.698,88.095 42.557,87.945C42.416,87.795 42.247,87.675 42.058,87.593C41.869,87.51 41.666,87.467 41.46,87.466C41.254,87.465 41.05,87.506 40.861,87.586C40.671,87.667 40.5,87.785 40.358,87.934C40.216,88.082 40.105,88.259 40.033,88.451C39.898,88.814 39.907,89.216 40.058,89.572C40.209,89.929 40.492,90.214 40.847,90.369C41.202,90.524 41.603,90.537 41.967,90.405C42.332,90.273 42.632,90.007 42.806,89.661Z" style="fill:rgb(230,238,254);fill-rule:nonzero;"/>
        </g>
        <g transform="matrix(1.21061,0,0,1.43421,-13.494,-27.2007)">
            <path d="M42.204,71.605C41.462,71.563 40.739,71.356 40.087,71C39.434,70.644 38.87,70.147 38.433,69.545C38.102,69.053 37.607,68.694 37.035,68.533C36.464,68.372 35.854,68.42 35.315,68.667C34.761,68.87 34.196,69.028 33.631,69.186C32.763,69.454 31.84,69.494 30.953,69.3C30.066,69.107 29.243,68.687 28.565,68.082C27.021,66.8 26.585,66.821 24.882,67.825C24.276,68.196 23.615,68.47 22.924,68.636C22.227,68.843 21.48,68.795 20.815,68.5C20.151,68.206 19.613,67.685 19.298,67.03C18.718,66.024 18.241,65.048 16.949,64.762C16.677,64.702 16.392,64.023 16.375,63.624C16.298,61.644 18.069,59.266 19.969,58.783C20.395,58.658 20.849,58.664 21.271,58.802C21.693,58.939 22.063,59.201 22.334,59.553C23.462,60.881 24.111,60.975 25.603,60.148C26,59.914 26.413,59.709 26.839,59.534C28.874,58.767 30.447,59.327 31.302,61.299C31.997,62.891 33.036,63.512 34.759,63.316C35.719,63.237 36.685,63.307 37.624,63.524C38.17,63.621 38.672,63.889 39.057,64.289C39.443,64.689 39.692,65.2 39.769,65.75C40.045,67.2 40.676,68.206 42.25,68.526C43.099,68.695 43.264,69.232 42.938,70.085C42.736,70.598 42.461,71.08 42.204,71.605Z" style="fill:white;fill-rule:nonzero;"/>
        </g>
        <g transform="matrix(1.21061,0,0,1.43421,-13.494,-27.2007)">
            <path d="M45.906,76.97C48.783,78.133 51.321,82.498 51.817,85.58C49.406,84.609 45.536,79.364 45.906,76.97Z" style="fill:white;fill-rule:nonzero;"/>
        </g>
        <g transform="matrix(1.21061,0,0,1.43421,-13.494,-27.2007)">
            <path d="M30.352,77.456C33.739,75.077 37.242,74.252 41.187,74.927C39.187,76.549 33.16,78.011 30.352,77.456Z" style="fill:white;fill-rule:nonzero;"/>
        </g>
        <g transform="matrix(1.21061,0,0,1.43421,-13.494,-27.2007)">
            <path d="M37.43,45.499C39.623,44.259 41.535,42.576 43.044,40.558C44.628,38.606 45.858,36.391 46.676,34.013C49.468,32.978 52.37,31.898 55.3,30.835C55.658,30.741 56.035,30.766 56.378,30.904C58.719,31.789 60.735,33.365 62.16,35.423C63.584,37.481 64.35,39.923 64.355,42.426L61.472,43.388C60.959,43.055 60.374,42.42 59.811,42.393C59.017,42.369 58.24,42.628 57.62,43.125C56.328,44.31 55.128,45.593 54.033,46.963C53.893,47.123 53.788,47.31 53.724,47.513C53.661,47.715 53.64,47.929 53.664,48.14C53.687,48.352 53.755,48.556 53.862,48.739C53.969,48.923 54.113,49.082 54.285,49.207C54.975,49.716 55.81,49.561 56.51,48.786C56.896,48.361 57.27,47.931 57.809,47.324C57.688,48.108 57.584,48.602 57.556,49.109C57.454,50.122 57.865,50.92 58.605,51.193C59.344,51.466 60.287,51.115 60.841,50.213C61.3,49.462 61.69,48.671 62.133,47.908C62.365,47.504 62.637,47.146 62.977,46.641C63.151,47.038 63.241,47.466 63.241,47.899C63.241,48.332 63.152,48.76 62.978,49.156C60.606,54.188 56.643,57.203 51.089,57.667C45.81,58.102 41.694,55.896 39.016,51.256C37.993,49.509 37.446,47.524 37.43,45.499ZM54.992,37.43C54.814,37.34 54.619,37.288 54.419,37.278C54.22,37.267 54.021,37.298 53.834,37.368C53.647,37.438 53.476,37.546 53.333,37.685C53.19,37.824 53.077,37.991 53.001,38.176C52.909,38.353 52.854,38.547 52.841,38.746C52.828,38.945 52.856,39.145 52.925,39.332C52.993,39.519 53.1,39.691 53.238,39.835C53.376,39.978 53.542,40.092 53.727,40.168C54.1,40.315 54.517,40.307 54.885,40.147C55.254,39.988 55.544,39.689 55.692,39.316C55.775,39.147 55.822,38.964 55.831,38.777C55.841,38.59 55.813,38.403 55.748,38.227C55.683,38.051 55.584,37.89 55.455,37.754C55.327,37.617 55.172,37.508 55.001,37.433L54.992,37.43ZM61.095,39.969C61.166,39.795 61.203,39.608 61.203,39.42C61.202,39.231 61.164,39.045 61.092,38.871C61.019,38.697 60.913,38.54 60.779,38.407C60.645,38.274 60.487,38.17 60.312,38.098C60.043,37.979 59.744,37.944 59.454,37.997C59.164,38.049 58.897,38.188 58.686,38.394C58.476,38.6 58.332,38.865 58.274,39.154C58.216,39.443 58.245,39.742 58.359,40.014C58.472,40.286 58.665,40.517 58.912,40.679C59.158,40.84 59.448,40.923 59.742,40.919C60.037,40.914 60.323,40.821 60.564,40.651C60.805,40.482 60.99,40.244 61.095,39.969Z" style="fill:white;fill-rule:nonzero;"/>
        </g>
        <g transform="matrix(1.21061,0,0,1.43421,-13.494,-27.2007)">
            <path d="M39.936,32.602C40.086,31.492 40.63,30.473 41.469,29.73C42.271,28.937 43.206,28.289 44.231,27.816C46.613,26.885 49.051,26.1 51.529,25.465C52.833,25.142 54.27,25.288 55.631,25.281C56.051,25.308 56.458,25.432 56.821,25.644C57.349,25.928 57.335,26.364 56.836,26.711C56.634,26.858 56.414,26.978 56.182,27.068C51.161,28.845 46.136,30.618 41.107,32.389C40.722,32.486 40.33,32.557 39.936,32.602Z" style="fill:rgb(230,238,254);fill-rule:nonzero;"/>
        </g>
        <g transform="matrix(1.21061,0,0,1.43421,-13.494,-27.2007)">
            <path d="M42.526,35.439C41.491,37.883 39.84,39.644 37.872,41.416C38.154,39.372 39.121,37.85 39.972,36.269C40.269,35.721 40.888,35.565 42.526,35.439Z" style="fill:white;fill-rule:nonzero;"/>
        </g>
        <g transform="matrix(1.21061,0,0,1.43421,-13.494,-27.2007)">
            <path d="M85.736,73.633C88.619,74.536 91.05,76.5 92.538,79.129C94.138,81.891 94.682,85.14 94.068,88.273C93.857,89.376 93.492,90.453 93.187,91.541C90.49,97.542 84.563,100.846 78.32,99.505C73.583,98.505 70.471,95.472 69.016,90.867C66.427,82.728 71.971,74.01 80.322,73.02L85.736,73.633ZM80.181,90.289C81.322,90.738 82.582,90.787 83.754,90.428C84.148,90.342 84.494,90.108 84.72,89.774C84.945,89.439 85.034,89.031 84.967,88.633C84.886,88.261 84.674,87.93 84.37,87.7C84.067,87.47 83.691,87.356 83.31,87.378C80.366,87.299 80.366,87.299 79.504,84.489C79.422,84.162 79.233,83.871 78.966,83.664C78.7,83.458 78.371,83.347 78.034,83.349C77.697,83.351 77.37,83.466 77.106,83.676C76.842,83.886 76.656,84.179 76.579,84.507C76.476,84.913 76.458,85.335 76.526,85.748C76.87,87.775 77.887,89.327 80.185,90.315L80.181,90.289ZM86.078,83.491C85.684,83.353 85.252,83.366 84.867,83.528C84.481,83.69 84.17,83.989 83.992,84.368C83.837,84.762 83.845,85.202 84.014,85.591C84.183,85.979 84.5,86.285 84.895,86.44C85.289,86.595 85.729,86.587 86.118,86.418C86.507,86.248 86.812,85.932 86.967,85.537C87.117,85.155 87.11,84.729 86.948,84.352C86.785,83.975 86.48,83.678 86.099,83.525L86.078,83.491ZM82.116,82.23C82.222,81.968 82.249,81.68 82.192,81.403C82.135,81.126 81.997,80.872 81.795,80.674C81.593,80.475 81.337,80.342 81.059,80.289C80.781,80.237 80.493,80.268 80.233,80.379C79.973,80.491 79.752,80.677 79.598,80.914C79.444,81.152 79.364,81.429 79.368,81.712C79.372,81.995 79.461,82.27 79.622,82.503C79.783,82.736 80.009,82.915 80.272,83.019C80.445,83.096 80.631,83.138 80.819,83.142C81.008,83.145 81.196,83.11 81.37,83.039C81.545,82.967 81.704,82.861 81.836,82.726C81.968,82.591 82.072,82.431 82.14,82.255L82.116,82.23Z" style="fill:white;fill-rule:nonzero;"/>
        </g>
        <g transform="matrix(1.21061,0,0,1.43421,-13.494,-27.2007)">
            <path d="M80.213,69.82L77.564,70.313L78.547,67.102L80.213,69.82Z" style="fill:white;fill-rule:nonzero;"/>
        </g>
        <g transform="matrix(1.21061,0,0,1.43421,-13.494,-27.2007)">
            <path d="M95.832,72.915C95.253,73.856 94.677,74.8 94.039,75.842L92.726,74.371L95.718,72.781L95.832,72.915Z" style="fill:white;fill-rule:nonzero;"/>
        </g>
        <g transform="matrix(1.21061,0,0,1.43421,-13.494,-27.2007)">
            <path d="M88.405,68.446L88.48,71.274L86.463,70.42L88.405,68.446Z" style="fill:white;fill-rule:nonzero;"/>
        </g>
        <g transform="matrix(1.21061,0,0,1.43421,-13.494,-27.2007)">
            <path d="M96.705,80.985L96.154,79.484L98.691,79.432L98.785,79.673C98.118,80.084 97.462,80.505 96.705,80.985Z" style="fill:white;fill-rule:nonzero;"/>
        </g>
        <g transform="matrix(1.21061,0,0,1.43421,-13.494,-27.2007)">
            <path d="M94.37,35.691C99.944,37.971 101.714,44.586 99.473,49.285C98.401,51.571 96.472,53.343 94.103,54.217C91.734,55.091 89.116,54.997 86.816,53.955C85.59,53.399 84.486,52.606 83.567,51.622C82.648,50.637 81.933,49.481 81.462,48.22C80.991,46.959 80.773,45.617 80.822,44.272C80.871,42.926 81.185,41.603 81.746,40.38C82.265,39.241 83.003,38.216 83.919,37.363C84.835,36.511 85.911,35.848 87.084,35.412C88.257,34.976 89.504,34.777 90.755,34.825C92.005,34.872 93.234,35.167 94.37,35.691ZM89.297,49.261C89.787,49.405 90.287,49.51 90.793,49.578C91.151,49.623 91.513,49.533 91.808,49.325C92.103,49.116 92.309,48.805 92.386,48.452C92.506,48.111 92.488,47.737 92.337,47.41C92.186,47.082 91.913,46.826 91.576,46.695C89.882,46.194 88.684,45.34 88.29,43.493C88.156,42.858 87.491,42.551 86.785,42.614C86.446,42.642 86.128,42.79 85.889,43.032C85.65,43.274 85.506,43.594 85.482,43.934C85.441,44.262 85.457,44.595 85.528,44.919C85.942,46.98 87.258,48.292 89.297,49.261ZM89.56,42.512C89.757,42.587 89.967,42.622 90.177,42.616C90.388,42.61 90.595,42.562 90.787,42.476C90.979,42.39 91.153,42.266 91.297,42.113C91.441,41.959 91.554,41.779 91.629,41.582C91.756,41.177 91.722,40.739 91.536,40.357C91.349,39.976 91.023,39.681 90.626,39.533C90.237,39.415 89.818,39.452 89.455,39.635C89.092,39.818 88.814,40.133 88.677,40.516C88.54,40.898 88.556,41.319 88.72,41.69C88.884,42.062 89.185,42.356 89.56,42.512ZM95.006,45.366C95.16,44.995 95.161,44.578 95.009,44.206C94.856,43.834 94.562,43.537 94.191,43.382C94.001,43.295 93.795,43.249 93.585,43.244C93.376,43.239 93.168,43.276 92.973,43.353C92.779,43.43 92.602,43.546 92.453,43.693C92.304,43.84 92.186,44.015 92.106,44.209C92.023,44.39 91.979,44.587 91.975,44.786C91.971,44.986 92.007,45.184 92.083,45.369C92.158,45.554 92.27,45.721 92.412,45.861C92.554,46.002 92.723,46.111 92.909,46.184C93.1,46.271 93.307,46.318 93.516,46.324C93.726,46.33 93.935,46.294 94.13,46.218C94.325,46.141 94.504,46.027 94.654,45.881C94.804,45.734 94.924,45.56 95.006,45.366Z" style="fill:rgb(230,238,254);fill-rule:nonzero;"/>
        </g>
        <g transform="matrix(1.21061,0,0,1.43421,-13.494,-27.2007)">
            <path d="M35.471,95.533C34.685,95.097 34.019,94.474 33.533,93.718C33.048,92.961 32.757,92.097 32.688,91.201C32.652,90.84 32.748,90.479 32.957,90.183C33.167,89.887 33.475,89.677 33.827,89.591C34.179,89.517 34.545,89.567 34.864,89.732C35.182,89.897 35.434,90.168 35.576,90.497C35.76,90.872 35.855,91.289 36.032,91.666C36.537,92.73 37.346,92.993 38.396,92.461C38.583,92.365 38.756,92.242 38.95,92.163C39.243,92.016 39.575,91.971 39.896,92.033C40.217,92.095 40.508,92.261 40.725,92.506C40.941,92.751 41.071,93.061 41.093,93.387C41.115,93.713 41.029,94.037 40.848,94.31C40.038,95.581 38.746,95.934 37.367,95.914C36.724,95.85 36.089,95.722 35.471,95.533Z" style="fill-rule:nonzero;"/>
        </g>
        <g transform="matrix(1.21061,0,0,1.43421,-13.494,-27.2007)">
            <path d="M37.733,87.301C37.56,87.69 37.244,87.997 36.85,88.159C36.457,88.321 36.016,88.325 35.619,88.172C35.237,87.987 34.94,87.662 34.793,87.263C34.645,86.865 34.658,86.425 34.829,86.036C35.007,85.651 35.325,85.348 35.719,85.188C36.112,85.029 36.552,85.025 36.948,85.178C37.333,85.356 37.632,85.679 37.78,86.077C37.927,86.475 37.91,86.915 37.733,87.301Z" style="fill-rule:nonzero;"/>
        </g>
        <g transform="matrix(1.21061,0,0,1.43421,-13.494,-27.2007)">
            <path d="M42.806,89.661C42.632,90.007 42.332,90.274 41.967,90.406C41.603,90.537 41.202,90.524 40.847,90.369C40.492,90.215 40.21,89.929 40.058,89.573C39.907,89.216 39.898,88.815 40.033,88.452C40.105,88.259 40.216,88.083 40.358,87.934C40.5,87.785 40.672,87.667 40.861,87.587C41.051,87.507 41.254,87.466 41.46,87.467C41.666,87.468 41.869,87.511 42.058,87.593C42.247,87.675 42.417,87.795 42.557,87.945C42.698,88.095 42.807,88.273 42.877,88.466C42.947,88.66 42.977,88.866 42.964,89.071C42.952,89.276 42.898,89.477 42.806,89.661Z" style="fill-rule:nonzero;"/>
        </g>
        <g transform="matrix(1.21061,0,0,1.43421,-13.494,-27.2007)">
            <path d="M54.999,37.433C55.173,37.506 55.33,37.614 55.461,37.751C55.592,37.887 55.694,38.048 55.76,38.225C55.826,38.402 55.856,38.59 55.847,38.779C55.838,38.968 55.791,39.153 55.708,39.322C55.559,39.695 55.269,39.995 54.901,40.154C54.533,40.314 54.116,40.321 53.742,40.175C53.558,40.099 53.391,39.985 53.253,39.841C53.115,39.697 53.008,39.526 52.94,39.339C52.872,39.151 52.843,38.952 52.856,38.753C52.87,38.554 52.924,38.359 53.017,38.183C53.092,37.999 53.205,37.832 53.347,37.694C53.49,37.555 53.659,37.447 53.845,37.377C54.031,37.307 54.229,37.275 54.428,37.285C54.626,37.295 54.821,37.345 54.999,37.433Z" style="fill-rule:nonzero;"/>
        </g>
        <g transform="matrix(1.21061,0,0,1.43421,-13.494,-27.2007)">
            <path d="M61.103,39.972C60.997,40.24 60.813,40.47 60.575,40.633C60.338,40.795 60.057,40.884 59.769,40.886C59.481,40.889 59.198,40.806 58.958,40.647C58.717,40.488 58.53,40.262 58.418,39.996C58.307,39.73 58.278,39.437 58.334,39.155C58.39,38.872 58.529,38.613 58.733,38.409C58.937,38.206 59.197,38.068 59.48,38.014C59.763,37.959 60.056,37.989 60.321,38.102C60.495,38.173 60.654,38.278 60.788,38.41C60.921,38.543 61.028,38.701 61.1,38.874C61.173,39.048 61.211,39.235 61.211,39.423C61.212,39.611 61.175,39.798 61.103,39.972Z" style="fill-rule:nonzero;"/>
        </g>
        <g transform="matrix(1.21061,0,0,1.43421,-13.494,-27.2007)">
            <path d="M80.184,90.315C77.88,89.34 76.873,87.776 76.516,85.744C76.448,85.331 76.466,84.909 76.569,84.504C76.646,84.175 76.832,83.883 77.096,83.673C77.36,83.462 77.687,83.347 78.024,83.345C78.361,83.343 78.69,83.454 78.956,83.661C79.223,83.868 79.412,84.158 79.494,84.485C80.377,87.304 80.377,87.304 83.3,87.375C83.681,87.352 84.057,87.466 84.36,87.696C84.664,87.926 84.876,88.257 84.957,88.63C85.024,89.027 84.935,89.436 84.709,89.77C84.484,90.104 84.138,90.339 83.744,90.425C82.579,90.79 81.324,90.751 80.184,90.315Z" style="fill-rule:nonzero;"/>
        </g>
        <g transform="matrix(1.21061,0,0,1.43421,-13.494,-27.2007)">
            <path d="M86.099,83.525C86.293,83.598 86.471,83.71 86.621,83.854C86.772,83.997 86.892,84.17 86.975,84.36C87.058,84.551 87.102,84.757 87.104,84.965C87.106,85.173 87.066,85.379 86.987,85.571C86.832,85.966 86.527,86.283 86.138,86.452C85.749,86.621 85.309,86.629 84.915,86.474C84.52,86.319 84.203,86.013 84.034,85.625C83.865,85.236 83.857,84.796 84.012,84.402C84.19,84.023 84.501,83.724 84.887,83.563C85.272,83.401 85.704,83.387 86.099,83.525Z" style="fill-rule:nonzero;"/>
        </g>
        <g transform="matrix(1.21061,0,0,1.43421,-13.494,-27.2007)">
            <path d="M82.14,82.256C82.023,82.512 81.833,82.729 81.593,82.877C81.353,83.026 81.075,83.1 80.793,83.091C80.511,83.081 80.238,82.988 80.009,82.823C79.78,82.659 79.605,82.43 79.506,82.166C79.407,81.902 79.388,81.614 79.453,81.339C79.517,81.065 79.661,80.815 79.867,80.623C80.073,80.43 80.332,80.303 80.61,80.257C80.889,80.211 81.175,80.249 81.431,80.366C81.605,80.439 81.763,80.547 81.893,80.684C82.024,80.82 82.126,80.981 82.192,81.158C82.259,81.335 82.288,81.524 82.279,81.712C82.27,81.901 82.223,82.086 82.14,82.256Z" style="fill-rule:nonzero;"/>
        </g>
        <g transform="matrix(1.21061,0,0,1.43421,-13.494,-27.2007)">
            <path d="M89.297,49.262C87.257,48.292 85.942,46.981 85.527,44.919C85.456,44.596 85.441,44.262 85.482,43.934C85.505,43.594 85.65,43.275 85.889,43.033C86.128,42.791 86.446,42.642 86.785,42.615C87.491,42.551 88.156,42.858 88.289,43.493C88.684,45.34 89.887,46.182 91.576,46.696C91.912,46.826 92.185,47.082 92.337,47.41C92.488,47.738 92.505,48.112 92.386,48.452C92.309,48.805 92.103,49.116 91.808,49.325C91.513,49.533 91.15,49.624 90.792,49.578C90.286,49.511 89.786,49.405 89.297,49.262Z" style="fill-rule:nonzero;"/>
        </g>
        <g transform="matrix(1.21061,0,0,1.43421,-13.494,-27.2007)">
            <path d="M89.559,42.512C89.184,42.355 88.884,42.061 88.719,41.69C88.555,41.318 88.54,40.898 88.677,40.516C88.813,40.133 89.092,39.818 89.454,39.635C89.817,39.452 90.236,39.415 90.625,39.532C91.023,39.681 91.349,39.976 91.535,40.357C91.722,40.738 91.755,41.177 91.628,41.582C91.554,41.779 91.441,41.959 91.296,42.112C91.152,42.266 90.979,42.389 90.787,42.476C90.594,42.562 90.387,42.609 90.177,42.616C89.966,42.622 89.756,42.586 89.559,42.512Z" style="fill-rule:nonzero;"/>
        </g>
        <g transform="matrix(1.21061,0,0,1.43421,-13.494,-27.2007)">
            <path d="M95.007,45.367C94.925,45.56 94.805,45.735 94.655,45.881C94.505,46.027 94.326,46.142 94.131,46.218C93.936,46.294 93.727,46.33 93.517,46.324C93.308,46.319 93.101,46.271 92.91,46.184C92.724,46.111 92.555,46.002 92.413,45.862C92.271,45.722 92.159,45.554 92.084,45.369C92.009,45.184 91.972,44.986 91.976,44.787C91.98,44.587 92.024,44.391 92.107,44.209C92.187,44.015 92.305,43.84 92.454,43.693C92.603,43.546 92.78,43.43 92.974,43.353C93.169,43.276 93.377,43.239 93.586,43.244C93.796,43.249 94.002,43.296 94.192,43.382C94.563,43.538 94.857,43.834 95.01,44.206C95.162,44.578 95.161,44.995 95.007,45.367Z" style="fill-rule:nonzero;"/>
        </g>
    </g>
</svg>
