<svg width="122" height="101" viewBox="0 0 122 101" fill="none" xmlns="http://www.w3.org/2000/svg">
<path d="M95.7684 39.1154H95.2132C95.0941 38.7039 95.0128 38.2824 94.9703 37.8562C94.9703 35.9029 94.9405 33.9497 94.9703 31.9964C95.0143 31.3955 95.0954 30.7978 95.2132 30.2068H95.7684V39.1154Z" fill="#ECECF1"/>
<path d="M93.858 15.0815C93.6225 14.6123 93.4301 14.1228 93.283 13.619C92.8269 11.403 92.4253 9.15725 92.0039 6.95117C92.1675 7.08007 92.4451 7.18417 92.4997 7.34281C92.9557 9.91575 93.4019 12.4986 93.858 15.0815Z" fill="#ECECF1"/>
<path d="M94.6767 46.6756C94.5455 46.2181 94.464 45.7477 94.4338 45.2726C94.4834 43.6631 94.576 42.0536 94.7115 40.444C94.7115 40.1664 95.0387 39.9086 95.2072 39.6459L94.6767 46.6756Z" fill="#ECECF1"/>
<path d="M94.156 18.8493C94.0569 17.7685 93.9594 16.6878 93.8635 15.6071C93.9594 16.6878 94.0569 17.7685 94.156 18.8493Z" fill="#ECECF1"/>
<path d="M92.2461 60.4573C92.5072 59.3732 92.7732 58.2875 93.0442 57.2002C92.7765 58.2875 92.5105 59.3732 92.2461 60.4573Z" fill="#ECECF1"/>
<path d="M94.9688 28.0354C94.9688 27.0439 94.9688 26.0524 94.9688 25.0609C94.9539 26.0574 94.9638 27.0439 94.9688 28.0354Z" fill="#ECECF1"/>
<path d="M90.6562 65.3356L91.7271 62.0785L90.6562 65.3356Z" fill="#ECECF1"/>
<path d="M91.4537 4.0164C91.2702 3.20338 91.0819 2.3953 90.8984 1.58228C91.0819 2.37052 91.2702 3.17859 91.4537 4.0164Z" fill="#ECECF1"/>
<path d="M89.3025 69.3858L90.3485 67.1996C89.9982 67.9267 89.6495 68.6554 89.3025 69.3858Z" fill="#ECECF1"/>
<path d="M88.2227 72.3556L89.2637 70.437L88.2227 72.3556Z" fill="#ECECF1"/>
<path d="M94.4337 21.2833L94.166 19.6473C95.0633 20.0588 94.7114 20.6785 94.4337 21.2833Z" fill="#ECECF1"/>
<path d="M94.6966 23.4448C94.6074 22.8995 94.5231 22.3542 94.4338 21.8088C95.3311 22.2253 94.9841 22.8549 94.6966 23.4448Z" fill="#ECECF1"/>
<path d="M94.166 49.1296C94.3296 48.5843 94.4982 48.034 94.6618 47.4886C94.4982 48.0241 94.3098 48.5743 94.166 49.1296Z" fill="#ECECF1"/>
<path d="M94.1367 50.7306C94.1367 50.3687 94.1367 50.0068 94.1367 49.6499C94.1516 50.0068 94.1466 50.3687 94.1367 50.7306Z" fill="#ECECF1"/>
<path d="M93.5918 53.973L93.8595 52.8823L93.5918 53.973Z" fill="#ECECF1"/>
<path d="M91.9645 5.3549L91.4688 4.51709L91.9645 5.3549Z" fill="#ECECF1"/>
<path d="M93.8635 52.3519C93.9528 52.0743 94.0371 51.8016 94.1263 51.5289C94.0371 51.8016 93.9528 52.0743 93.8635 52.3519Z" fill="#ECECF1"/>
<path d="M93.3184 55.3214C93.4076 55.0487 93.4968 54.776 93.5811 54.4984C93.5018 54.776 93.4126 55.0487 93.3184 55.3214Z" fill="#ECECF1"/>
<path d="M91.9944 6.42086C91.9944 6.24239 91.9944 6.06392 91.9944 5.88049C91.9796 6.06392 91.9895 6.24239 91.9944 6.42086Z" fill="#ECECF1"/>
<path d="M93.0508 56.6749C93.14 56.4865 93.2243 56.3031 93.3135 56.1196C93.2243 56.3031 93.14 56.4865 93.0508 56.6749Z" fill="#ECECF1"/>
<path d="M91.7363 61.553L92.2321 60.9829L91.7363 61.553Z" fill="#ECECF1"/>
<path d="M61.3326 55.1529L59.4488 58.8958C63.5684 59.8327 64.6094 60.9581 65.2837 65.1769C65.4477 65.2046 65.6153 65.2046 65.7794 65.1769C69.5719 64.1854 71.8077 66.2923 72.7199 69.8667C72.9892 70.9211 72.9514 72.0306 72.6108 73.0643C72.2291 74.264 71.8523 75.4686 71.3566 76.6188C69.7355 80.3716 68.0599 84.0996 66.3991 87.8376C66.0025 88.7349 65.1994 89.0125 64.3418 89.186C61.521 89.7512 58.6952 90.2965 55.8744 90.8517L21.0679 97.7327C16.393 98.6598 11.723 99.6166 7.03818 100.499C6.10861 100.649 5.1628 100.671 4.22732 100.563C3.79283 100.536 3.38171 100.357 3.06492 100.058C2.74814 99.7595 2.54558 99.3596 2.4922 98.9275C1.12393 92.1803 -0.145182 85.4282 0.0134571 78.4927C0.201842 71.1556 2.03611 64.3589 6.52264 58.4496C7.74218 56.8483 9.23932 55.4751 10.7117 53.8589C7.62318 49.6996 6.14089 44.9355 7.06299 39.5764C7.98508 34.2174 10.7167 30.0828 15.1883 26.9001C14.7669 26.5581 14.4248 26.2953 14.0976 26.0128C10.6274 22.9986 11.2273 17.4809 15.218 15.602C16.2289 15.0801 17.3725 14.8711 18.5027 15.0018C19.6329 15.1324 20.6985 15.5968 21.5636 16.3357C23.621 17.937 24.3695 20.1133 23.9581 22.6863C23.9135 22.9887 23.8292 23.2911 23.7549 23.6282C25.0983 23.7224 26.3922 23.7422 27.6712 23.9108C33.9672 24.7337 38.7066 27.9115 41.5522 33.5878C43.5308 37.3247 44.0874 41.6523 43.1188 45.7683C43.089 45.8972 43.0544 46.0261 43.0296 46.16C43.0296 46.1996 43.0543 46.2443 43.1088 46.3979C43.6988 46.7202 44.3581 47.087 45.0274 47.444C48.9934 49.5806 51.9679 52.7832 54.5606 56.4319C54.9942 56.9298 55.4685 57.3908 55.9785 57.8101C56.8907 55.9014 57.7285 54.2208 58.4919 52.5056C58.5813 52.1203 58.5572 51.7174 58.4225 51.3455C56.846 44.4315 55.2597 37.5174 53.6633 30.6034C52.6719 26.2656 51.6803 21.9377 50.7186 17.5949C50.2823 15.6119 50.8128 14.6998 52.771 14.1842C58.0705 12.801 63.38 11.4675 68.6944 10.1389C81.8879 6.83389 95.0832 3.53716 108.28 0.248692C109.49 -0.0537148 110.57 -0.197481 111.75 0.516397C112.183 0.742653 112.562 1.06014 112.861 1.44698C113.16 1.83382 113.371 2.28082 113.48 2.75718C114.794 8.0716 116.148 13.3811 117.446 18.6955C118.927 24.6643 120.399 30.6364 121.863 36.6119C122.359 38.6494 121.497 40.0821 119.414 40.6473C116.286 41.4603 113.153 42.2535 109.995 43.0467C94.5081 46.9664 79.0176 50.8845 63.5238 54.8009C62.9091 54.9744 62.1902 55.024 61.3326 55.1529ZM109.98 3.595L54.3722 17.4413C56.6527 27.3215 58.8984 37.0184 61.1937 46.9631C61.5259 46.3682 61.749 45.9964 61.9423 45.6047C65.3432 38.7006 68.7424 31.8014 72.1399 24.9072C72.3366 24.4541 72.5791 24.0222 72.8637 23.6183C73.0963 23.2791 73.4415 23.0333 73.8381 22.9244C74.2346 22.8155 74.6569 22.8505 75.0301 23.0234C75.412 23.1805 75.72 23.4767 75.8921 23.8521C76.0641 24.2275 76.0874 24.6542 75.9571 25.046C75.7985 25.6519 75.5706 26.2374 75.278 26.7911C71.5698 34.3397 67.8583 41.8883 64.1435 49.4369C63.9204 49.8979 63.7121 50.3689 63.3602 51.1323C81.8863 46.4425 100.08 41.842 118.319 37.1869C115.518 25.8839 112.762 14.789 109.98 3.595ZM41.7158 49.9128C38.9892 55.1033 34.8695 58.5785 29.1734 60.0062C23.3929 61.4538 18.1529 60.0707 13.3689 56.536C11.7719 57.8259 10.3577 59.3269 9.16496 60.9977C5.30307 66.218 3.8059 72.1868 3.57786 78.5671C3.42418 82.8603 4.03397 87.084 4.71314 91.3029C5.01059 93.152 5.36753 94.9962 5.70464 96.8007C7.10761 96.8999 38.0572 90.7327 38.9545 90.2122L34.7356 74.8192C33.7441 75.315 32.8766 75.7363 31.9793 76.1131C30.8787 76.5692 29.8625 76.242 29.4262 75.3447C28.9899 74.4474 29.3617 73.56 30.3284 72.9354C30.4421 72.8645 30.5616 72.8031 30.6854 72.7519C33.7541 71.3738 36.4014 69.3263 38.9743 67.2343C41.0913 65.4334 43.1165 63.5273 45.0423 61.5232C46.5295 60.036 47.9821 58.6082 49.8014 57.5572C50.0546 57.4051 50.2995 57.2396 50.5351 57.0615C48.0762 53.9829 45.3893 51.3852 41.7158 49.9128ZM53.6138 60.5169C53.1802 60.3682 52.7145 60.3395 52.266 60.4337C51.8174 60.528 51.4027 60.7417 51.0656 61.0523C49.7742 62.096 48.5365 63.2046 47.3574 64.3738C44.7349 67.036 42.1025 69.6733 38.9942 71.81C37.9085 72.5437 37.9134 72.5834 38.2703 73.9269C39.48 78.4283 40.6995 82.9297 41.929 87.4311C42.1273 88.1598 42.4247 88.8638 42.6528 89.6421C43.0692 89.6074 43.4262 89.6124 43.7682 89.5479C49.9403 88.3284 56.1074 87.0692 62.2844 85.8893C62.6146 85.8523 62.9282 85.7249 63.1907 85.5211C63.4531 85.3173 63.6541 85.045 63.7717 84.7342C64.9912 81.9828 66.2504 79.2562 67.4799 76.5048C67.9756 75.3546 68.4267 74.1747 68.8233 72.9849C69.0818 72.357 69.2002 71.6803 69.1704 71.0019C68.9027 68.8653 67.7922 68.0275 65.8786 69.1231C65.0905 69.6353 64.3489 70.2159 63.6626 70.8582C63.385 71.0862 63.1668 71.3985 62.8942 71.6117C62.5961 71.8577 62.2254 71.9987 61.8393 72.0131C61.4531 72.0274 61.0729 71.9142 60.7575 71.691C60.4391 71.4727 60.1996 71.1575 60.0746 70.7922C59.9496 70.4269 59.9457 70.0311 60.0635 69.6634C60.2221 69.1677 60.5592 68.6719 60.6782 68.1762C61.0453 67.1229 61.2947 66.0322 61.4218 64.9241C61.5061 63.1096 60.2617 62.3263 58.5415 62.9411C58.1565 63.0664 57.802 63.2707 57.5004 63.5409C56.7717 64.2647 56.0777 65.0282 55.4183 65.8115C54.987 66.3072 54.6846 66.9517 54.2483 67.4623C53.9802 67.8327 53.5795 68.0853 53.1297 68.1675C52.6799 68.2497 52.2158 68.1551 51.834 67.9035C51.4596 67.6472 51.1906 67.264 51.0767 66.8248C50.9628 66.3856 51.0117 65.92 51.2143 65.514C51.4167 65.1116 51.6419 64.721 51.8886 64.344C52.3447 63.5707 52.8454 62.8221 53.237 62.019C53.4163 61.5381 53.5442 61.0395 53.6187 60.5317L53.6138 60.5169ZM22.3816 29.1806C21.2563 30.2117 20.3292 31.2132 19.2534 32.0113C16.9085 33.7464 14.5042 35.4072 12.0849 37.0432C11.5824 37.3314 11.2124 37.8046 11.0538 38.3618C10.4682 40.3999 10.3211 42.539 10.6224 44.638C10.8891 46.5117 11.526 48.3136 12.4959 49.9387C13.4659 51.5638 14.7497 52.9796 16.2723 54.1036C17.795 55.2276 19.5261 56.0373 21.3648 56.4855C23.2035 56.9338 25.113 57.0116 26.9821 56.7145C34.5274 55.5346 40.2236 48.7825 39.832 41.1529C39.7625 39.7698 39.7229 38.3073 39.2569 37.0382C38.5216 35.0445 37.3689 33.2309 35.8759 31.7188C35.6226 31.4472 35.3154 31.2316 34.9739 31.0856C34.6324 30.9396 34.2642 30.8665 33.8929 30.8711C31.5602 30.806 29.2322 30.624 26.9177 30.3258C25.3994 30.0326 23.8996 29.6502 22.4262 29.1806H22.3816Z" fill="black"/>
<path d="M109.981 3.59497C112.762 14.789 115.519 25.9037 118.32 37.1869C100.081 41.842 81.8871 46.4425 63.361 51.1323C63.713 50.3688 63.9212 49.8979 64.1443 49.4368C67.8591 41.8915 71.5706 34.3429 75.2788 26.791C75.5714 26.2374 75.7993 25.6518 75.958 25.046C76.0882 24.6541 76.065 24.2275 75.8929 23.8521C75.7209 23.4767 75.4128 23.1805 75.0309 23.0234C74.6577 22.8505 74.2354 22.8154 73.8389 22.9243C73.4423 23.0332 73.0971 23.2791 72.8645 23.6183C72.58 24.0221 72.3375 24.454 72.1407 24.9072C68.7432 31.8014 65.344 38.7006 61.9431 45.6047C61.7498 45.9963 61.5267 46.3682 61.1946 46.9631C58.8992 37.0183 56.6535 27.3215 54.373 17.4412L109.981 3.59497ZM91.817 20.9462C91.8715 21.2089 91.9508 21.6551 92.0698 22.0864C92.2681 22.8201 92.4912 23.5736 92.7093 24.2826C93.7008 27.6834 94.6923 31.0892 95.7185 34.4851C96.358 36.6515 97.1364 37.1373 99.273 36.6069C102.909 35.7145 106.519 34.7875 110.105 33.8257C112.053 33.33 112.584 32.3385 112.034 30.4051C110.893 26.3003 109.737 22.1955 108.563 18.0907C107.934 15.8994 107.116 15.4533 104.87 15.9589C102.986 16.3853 101.097 16.8017 99.2135 17.233C97.3297 17.6643 95.4459 18.0857 93.5769 18.5715C92.2731 18.8888 91.7922 19.563 91.8318 20.9263L91.817 20.9462ZM67.1138 22.5623C67.4361 22.4879 67.9665 22.3938 68.4871 22.25L101.861 13.0638C102.253 12.9659 102.634 12.8263 102.996 12.6473C103.363 12.4665 103.658 12.1666 103.833 11.7965C104.007 11.4265 104.052 11.0081 103.958 10.6098C103.853 10.2138 103.61 9.86839 103.273 9.63641C102.935 9.40442 102.526 9.30125 102.119 9.34565C101.671 9.3734 101.229 9.45327 100.8 9.58361C89.6819 12.6639 78.564 15.7507 67.446 18.8442C66.9658 18.961 66.4989 19.1271 66.0529 19.3399C65.6724 19.4903 65.3608 19.7758 65.1778 20.1418C64.9949 20.5077 64.9534 20.9283 65.0614 21.3229C65.2845 22.131 65.9339 22.5623 67.1138 22.5425V22.5623ZM86.334 36.24C86.1218 36.3745 85.8958 36.4859 85.6598 36.5722C85.4145 36.6133 85.1799 36.7031 84.9697 36.8361C84.7595 36.9691 84.5779 37.1427 84.4357 37.3468C84.2935 37.5509 84.1935 37.7813 84.1415 38.0246C84.0895 38.2678 84.0865 38.519 84.1329 38.7634C84.3807 39.7251 85.2631 40.3002 86.4777 40.0672C87.8846 39.7843 89.2734 39.4185 90.6371 38.9716C91.5145 38.684 92.3326 38.0792 92.4664 37.1373C92.7685 34.7604 92.2677 32.3507 91.0436 30.291C90.8289 29.9646 90.5022 29.728 90.125 29.6257C89.7479 29.5235 89.3464 29.5626 88.9962 29.7358C88.6327 29.9075 88.3374 30.1963 88.1576 30.5559C87.9778 30.9154 87.924 31.325 88.0047 31.7188C88.084 32.1352 88.2079 32.5467 88.3368 33.0573C87.0512 32.4684 86.0326 31.4197 85.4813 30.1175C84.7922 28.6303 84.2518 27.0389 83.6966 25.4773C83.3198 24.4214 83.0719 23.3208 82.7051 22.2698C82.5776 21.8304 82.2849 21.4574 81.8884 21.2291C81.4919 21.0008 81.0224 20.9349 80.5784 21.0453C80.1411 21.1737 79.7662 21.4582 79.525 21.8448C79.2837 22.2314 79.1928 22.6931 79.2696 23.1423C79.2898 23.3664 79.3347 23.5875 79.4035 23.8017C79.8546 25.2889 80.2759 26.8208 80.7816 28.308C81.788 31.4461 83.191 34.3413 86.334 36.24Z" fill="white"/>
<path d="M41.7159 49.9128C45.3894 51.4001 48.0763 53.9829 50.5352 57.0318C50.2996 57.2099 50.0547 57.3754 49.8015 57.5275C47.9821 58.5637 46.5098 60.0063 45.0423 61.4935C43.1124 63.5065 41.0822 65.4208 38.9595 67.2293C36.3866 69.3214 33.7393 71.3688 30.6706 72.747C30.5467 72.7982 30.4274 72.8595 30.3137 72.9304C29.3222 73.5551 28.9999 74.4871 29.4114 75.3398C29.8228 76.1925 30.8639 76.5643 31.9645 76.1082C32.8618 75.7314 33.7294 75.2853 34.7209 74.8143L38.9397 90.2073C38.0424 90.703 7.09278 96.8949 5.68981 96.7958C5.36757 94.9913 5.01063 93.1471 4.69831 91.2979C4.01913 87.0791 3.40934 82.8702 3.56303 78.5622C3.79107 72.1819 5.28824 66.2131 9.15012 60.9928C10.3428 59.322 11.7571 57.821 13.3541 56.5311C18.138 60.0459 23.3781 61.4291 29.1585 60.0013C34.8696 58.5785 38.9893 55.1033 41.7159 49.9128Z" fill="white"/>
<path d="M53.619 60.5317C53.5461 61.0393 53.4198 61.5378 53.2422 62.0189C52.8506 62.822 52.3498 63.5706 51.8937 64.344C51.647 64.7209 51.4219 65.1115 51.2195 65.514C51.0169 65.9199 50.968 66.3855 51.0819 66.8248C51.1958 67.264 51.4648 67.6471 51.8392 67.9035C52.221 68.1551 52.6852 68.2496 53.1349 68.1674C53.5847 68.0852 53.9854 67.8326 54.2535 67.4623C54.6898 66.9665 54.9922 66.327 55.4235 65.8114C56.0829 65.0281 56.7769 64.2647 57.5057 63.5409C57.8072 63.2707 58.1617 63.0664 58.5467 62.941C60.267 62.3065 61.5212 63.0898 61.427 64.924C61.2999 66.0322 61.0505 67.1228 60.6834 68.1761C60.5446 68.6719 60.2273 69.1676 60.0687 69.6634C59.9509 70.031 59.9547 70.4269 60.0798 70.7922C60.2048 71.1574 60.4443 71.4726 60.7627 71.691C61.0782 71.9142 61.4583 72.0273 61.8445 72.013C62.2306 71.9987 62.6014 71.8576 62.8994 71.6117C63.182 71.3985 63.3951 71.0862 63.6678 70.8581C64.3541 70.2159 65.0957 69.6352 65.8838 69.123C67.7974 68.0324 68.9079 68.8652 69.1756 71.0019C69.2055 71.6803 69.087 72.357 68.8285 72.9849C68.4319 74.1747 67.9907 75.3546 67.4851 76.5047C66.2705 79.2561 65.0063 81.958 63.7769 84.7341C63.6594 85.0449 63.4583 85.3173 63.1959 85.5211C62.9334 85.7249 62.6199 85.8523 62.2896 85.8892C56.1126 87.084 49.9455 88.3283 43.7734 89.5479C43.4314 89.6123 43.0744 89.6074 42.658 89.6421C42.4052 88.8637 42.1325 88.1548 41.9342 87.431C40.7047 82.9164 39.4901 78.4117 38.2904 73.9169C37.9335 72.5734 37.9285 72.5338 39.0142 71.8001C42.1225 69.6832 44.755 67.0458 47.3775 64.3638C48.5566 63.1946 49.7943 62.086 51.0857 61.0423C51.4238 60.7386 51.8371 60.5311 52.2826 60.4413C52.7281 60.3515 53.1896 60.3827 53.619 60.5317Z" fill="#E6EEFE"/>
<path d="M22.4254 29.1807C23.9069 29.6513 25.4149 30.0336 26.9416 30.3258C29.2561 30.6241 31.5841 30.8061 33.9169 30.8712C34.2882 30.8666 34.6564 30.9397 34.9979 31.0857C35.3393 31.2316 35.6465 31.4473 35.8998 31.7189C37.3929 33.231 38.5456 35.0446 39.2808 37.0383C39.7468 38.3074 39.7766 39.7699 39.8559 41.153C40.2476 48.8024 34.5514 55.5297 27.0061 56.7145C25.137 57.0117 23.2274 56.9339 21.3887 56.4856C19.55 56.0374 17.8189 55.2276 16.2962 54.1036C14.7736 52.9797 13.4899 51.5639 12.5199 49.9388C11.5499 48.3137 10.913 46.5118 10.6464 44.6381C10.3451 42.5391 10.4921 40.4 11.0777 38.3619C11.2362 37.8047 11.6063 37.3315 12.1088 37.0432C14.5281 35.4073 16.9325 33.7465 19.2774 32.0114C20.3581 31.2132 21.2852 30.2118 22.4254 29.1807ZM27.3829 46.5814C30.8035 46.4773 32.8361 45.352 33.892 41.9908C34.0299 41.4305 34.0162 40.8436 33.8524 40.2904C33.757 39.9156 33.5329 39.5862 33.2195 39.3597C32.906 39.1332 32.5229 39.024 32.1371 39.051C31.7747 39.064 31.4261 39.1929 31.1424 39.4186C30.8586 39.6444 30.6547 39.9551 30.5606 40.3053C30.4714 40.5581 30.4317 40.8258 30.3524 41.0836C30.2522 41.6211 29.9556 42.102 29.5204 42.4329C29.0851 42.7637 28.5423 42.9207 27.9976 42.8732C27.5721 42.8682 27.1519 42.7778 26.7619 42.6075C26.3719 42.4372 26.02 42.1904 25.7271 41.8817C25.3602 41.5496 25.038 41.1629 24.6463 40.8655C24.3191 40.5811 23.8971 40.43 23.4638 40.4419C23.0305 40.4538 22.6174 40.628 22.3064 40.9299C21.9943 41.1992 21.7923 41.5741 21.7393 41.983C21.6863 42.3918 21.7858 42.8058 22.0189 43.1459C22.6227 44.0621 23.4121 44.8414 24.3361 45.4332C25.2601 46.025 26.2981 46.4162 27.3829 46.5814ZM22.5692 37.8216C22.8162 37.814 23.0591 37.7571 23.2839 37.6543C23.5086 37.5515 23.7104 37.4047 23.8776 37.2228C24.0448 37.0408 24.174 36.8272 24.2575 36.5946C24.341 36.362 24.3771 36.1151 24.3638 35.8683C24.3599 35.6316 24.3073 35.3982 24.2094 35.1827C24.1114 34.9672 23.9701 34.7742 23.7944 34.6156C23.6186 34.457 23.4121 34.3363 23.1876 34.261C22.9632 34.1857 22.7257 34.1574 22.4898 34.1778C22.0138 34.1984 21.5652 34.4065 21.242 34.7567C20.9188 35.1068 20.7472 35.5706 20.7646 36.0468C20.7612 36.2829 20.8056 36.5173 20.8951 36.7358C20.9846 36.9543 21.1175 37.1524 21.2856 37.3183C21.4537 37.4841 21.6537 37.6142 21.8734 37.7007C22.0931 37.7871 22.3281 37.8283 22.5642 37.8216H22.5692ZM30.8035 35.3825C30.8115 35.146 30.7717 34.9103 30.6866 34.6895C30.6014 34.4688 30.4726 34.2675 30.3078 34.0976C30.1431 33.9278 29.9458 33.7929 29.7277 33.701C29.5097 33.6092 29.2753 33.5623 29.0386 33.5631C28.8025 33.5565 28.5675 33.5966 28.3469 33.681C28.1263 33.7655 27.9246 33.8926 27.7532 34.0552C27.5819 34.2178 27.4444 34.4126 27.3485 34.6284C27.2526 34.8443 27.2003 35.077 27.1945 35.3131C27.1879 35.5494 27.2286 35.7848 27.3142 36.0052C27.3998 36.2256 27.5286 36.4267 27.693 36.5967C27.8574 36.7666 28.0541 36.902 28.2716 36.9949C28.4891 37.0877 28.7229 37.1362 28.9594 37.1374C29.434 37.1416 29.8915 36.9607 30.2349 36.633C30.5783 36.3054 30.7805 35.8568 30.7986 35.3825H30.8035Z" fill="#E6EEFE"/>
<path d="M91.832 20.9264C91.832 19.5631 92.2881 18.8938 93.592 18.5517C95.4609 18.056 97.3497 17.6495 99.2286 17.2132C101.108 16.777 103.001 16.3655 104.885 15.9392C107.131 15.4434 107.949 15.8797 108.578 18.0709C109.758 22.1724 110.915 26.2772 112.049 30.3853C112.594 32.3385 112.049 33.2903 110.12 33.8059C106.521 34.7677 102.904 35.6947 99.2683 36.5871C97.1316 37.1175 96.3532 36.6317 95.7137 34.4653C94.7222 31.0694 93.7308 27.6636 92.7046 24.2628C92.4864 23.534 92.2633 22.7755 92.065 22.0666C91.951 21.6353 91.8717 21.1891 91.832 20.9264ZM105.217 19.6374L95.798 21.789L99.0749 32.869L108.251 30.4894L105.217 19.6374Z" fill="black"/>
<path d="M67.1125 22.5424C65.9327 22.5424 65.2832 22.1309 65.0452 21.303C64.9372 20.9084 64.9787 20.4878 65.1617 20.1219C65.3446 19.7559 65.6562 19.4704 66.0367 19.3201C66.4828 19.1072 66.9496 18.9411 67.4298 18.8243C78.5445 15.7308 89.6625 12.644 100.784 9.56372C101.213 9.43337 101.655 9.35351 102.102 9.32576C102.51 9.28136 102.919 9.38453 103.257 9.61651C103.594 9.8485 103.837 10.1939 103.942 10.5899C104.035 10.9883 103.991 11.4066 103.817 11.7766C103.642 12.1467 103.347 12.4466 102.98 12.6274C102.617 12.8064 102.237 12.946 101.845 13.0439L68.4709 22.2301C67.9652 22.359 67.4348 22.4681 67.1125 22.5424Z" fill="black"/>
<path d="M86.3339 36.24C83.1909 34.3314 81.7879 31.4362 80.7319 28.308C80.2362 26.8208 79.8049 25.3038 79.3538 23.8017C79.285 23.5875 79.2401 23.3664 79.22 23.1423C79.1432 22.6932 79.234 22.2314 79.4753 21.8448C79.7165 21.4582 80.0914 21.1737 80.5287 21.0453C80.9727 20.9349 81.4423 21.0008 81.8388 21.2291C82.2353 21.4574 82.528 21.8304 82.6555 22.2698C83.0471 23.3208 83.295 24.4214 83.647 25.4773C84.2022 27.0389 84.7425 28.6154 85.4316 30.1175C85.9829 31.4197 87.0016 32.4684 88.2872 33.0573C88.1583 32.5616 88.0344 32.1352 87.955 31.7188C87.8743 31.325 87.9281 30.9155 88.1079 30.5559C88.2877 30.1963 88.583 29.9075 88.9465 29.7358C89.2968 29.5626 89.6982 29.5235 90.0753 29.6257C90.4525 29.728 90.7792 29.9646 90.994 30.291C92.2181 32.3507 92.7189 34.7604 92.4168 37.1373C92.2829 38.0793 91.4649 38.6841 90.5874 38.9716C89.2238 39.4185 87.8349 39.7843 86.4281 40.0672C85.2135 40.3002 84.3311 39.7251 84.0832 38.7634C84.0369 38.519 84.0399 38.2678 84.0919 38.0246C84.1439 37.7813 84.2439 37.5509 84.3861 37.3468C84.5283 37.1428 84.7098 36.9691 84.92 36.8361C85.1302 36.7031 85.3648 36.6134 85.6101 36.5722C85.8632 36.4893 86.106 36.3778 86.3339 36.24Z" fill="black"/>
<path d="M27.3841 46.5814C26.2964 46.412 25.2566 46.0155 24.3324 45.4176C23.4082 44.8197 22.6204 44.0338 22.0201 43.1111C21.787 42.7711 21.6874 42.357 21.7405 41.9482C21.7935 41.5394 21.9955 41.1645 22.3076 40.8951C22.6186 40.5932 23.0317 40.4191 23.465 40.4071C23.8983 40.3952 24.3203 40.5464 24.6475 40.8307C25.0392 41.1281 25.3614 41.5148 25.7283 41.847C26.0212 42.1556 26.3731 42.4024 26.7631 42.5727C27.1531 42.743 27.5733 42.8334 27.9988 42.8385C28.5434 42.8859 29.0863 42.7289 29.5215 42.3981C29.9568 42.0673 30.2534 41.5863 30.3536 41.0488C30.4329 40.791 30.4726 40.5233 30.5618 40.2705C30.6559 39.9203 30.8598 39.6096 31.1436 39.3838C31.4273 39.1581 31.7759 39.0293 32.1383 39.0163C32.5241 38.9892 32.9072 39.0984 33.2207 39.3249C33.5341 39.5515 33.7582 39.8808 33.8536 40.2556C34.0174 40.8089 34.0311 41.3958 33.8932 41.956C32.8373 45.3519 30.7998 46.4773 27.3841 46.5814Z" fill="black"/>
<path d="M22.5655 37.8216C22.3291 37.829 22.0935 37.7883 21.8732 37.7022C21.6529 37.616 21.4523 37.486 21.2837 37.3201C21.115 37.1542 20.9817 36.9559 20.8919 36.737C20.802 36.5181 20.7575 36.2833 20.761 36.0468C20.7435 35.5706 20.9151 35.1068 21.2383 34.7567C21.5615 34.4065 22.0101 34.1985 22.4862 34.1778C22.722 34.1574 22.9596 34.1857 23.184 34.261C23.4084 34.3363 23.6149 34.457 23.7907 34.6156C23.9665 34.7742 24.1078 34.9672 24.2057 35.1827C24.3037 35.3983 24.3562 35.6316 24.3601 35.8683C24.3735 36.1151 24.3373 36.362 24.2539 36.5946C24.1704 36.8272 24.0413 37.0408 23.8741 37.2228C23.7069 37.4048 23.5049 37.5515 23.2802 37.6543C23.0555 37.7571 22.8125 37.814 22.5655 37.8216Z" fill="black"/>
<path d="M30.7995 35.3824C30.7814 35.8575 30.5785 36.3069 30.2341 36.6347C29.8896 36.9625 29.4308 37.1428 28.9553 37.1373C28.7188 37.1361 28.485 37.0876 28.2675 36.9947C28.05 36.9019 27.8533 36.7665 27.6889 36.5965C27.5245 36.4266 27.3957 36.2255 27.3101 36.0051C27.2245 35.7846 27.1838 35.5493 27.1904 35.313C27.1962 35.0768 27.2485 34.8442 27.3444 34.6283C27.4403 34.4125 27.5779 34.2177 27.7492 34.0551C27.9205 33.8925 28.1222 33.7653 28.3428 33.6809C28.5634 33.5964 28.7985 33.5564 29.0346 33.563C29.2712 33.5622 29.5056 33.6091 29.7237 33.7009C29.9417 33.7928 30.139 33.9276 30.3038 34.0975C30.4685 34.2673 30.5974 34.4687 30.6825 34.6894C30.7677 34.9102 30.8075 35.1459 30.7995 35.3824Z" fill="black"/>
<path d="M105.186 19.6375L108.25 30.4894L99.0738 32.869L95.7969 21.789L105.186 19.6375Z" fill="#979FBB"/>
</svg>
